  0
SECTION
  2
HEADER
  9
$ACADVER
  1
AC1015
  9
$DWGCODEPAGE
  3
ansi_1252
  9
$INSBASE
 10
0
 20
0
 30
0
  9
$EXTMIN
 10
1895.804387325014
 20
0.999998857303523
 30
0
  9
$EXTMAX
 10
2499.0000011524248
 20
1999.0000005432132
 30
0
  9
$LIMMIN
 10
0
 20
0
  9
$LIMMAX
 10
12
 20
9
  9
$SNAPMODE
 70
0
  9
$SNAPUNIT
 10
1
 20
1
  9
$SNAPBASE
 10
0
 20
0
  9
$SNAPANG
 50
0
  9
$SNAPSTYLE
 70
0
  9
$SNAPISOPAIR
 70
0
  9
$ORTHOMODE
 70
0
  9
$REGENMODE
 70
1
  9
$FILLMODE
 70
1
  9
$QTEXTMODE
 70
0
  9
$MIRRTEXT
 70
1
  9
$LTSCALE
 40
1
  9
$OSMODE
 70
0
  9
$ATTMODE
 70
1
  9
$TEXTSIZE
 40
0.2
  9
$TRACEWID
 40
0.05
  9
$TEXTSTYLE
  7
Standard
  9
$CLAYER
  8
0
  9
$CELTYPE
  6
ByLayer
  9
$CECOLOR
 62
256
  9
$CELTSCALE
 40
1
  9
$DISPSILH
 70
0
  9
$DIMSCALE
 40
1
  9
$DIMASZ
 40
0.18
  9
$DIMEXO
 40
0.0625
  9
$DIMDLI
 40
0.38
  9
$DIMRND
 40
0
  9
$DIMDLE
 40
0
  9
$DIMEXE
 40
0.18
  9
$DIMTP
 40
0
  9
$DIMTM
 40
0
  9
$DIMTXT
 40
0.18
  9
$DIMCEN
 40
0.09
  9
$DIMTSZ
 40
0
  9
$DIMTOL
 70
0
  9
$DIMLIM
 70
0
  9
$DIMTIH
 70
1
  9
$DIMTOH
 70
1
  9
$DIMSE1
 70
0
  9
$DIMSE2
 70
0
  9
$DIMTAD
 70
0
  9
$DIMZIN
 70
0
  9
$DIMBLK
  1

  9
$DIMASO
 70
1
  9
$DIMSHO
 70
1
  9
$DIMPOST
  1

  9
$DIMAPOST
  1

  9
$DIMALT
 70
0
  9
$DIMALTD
 70
2
  9
$DIMALTF
 40
0.03937007874015748
  9
$DIMLFAC
 40
1
  9
$DIMTOFL
 70
0
  9
$DIMTVP
 40
0
  9
$DIMTIX
 70
0
  9
$DIMSOXD
 70
0
  9
$DIMSAH
 70
0
  9
$DIMBLK1
  1

  9
$DIMBLK2
  1

  9
$DIMSTYLE
  2
Standard
  9
$DIMCLRD
 70
0
  9
$DIMCLRE
 70
0
  9
$DIMCLRT
 70
0
  9
$DIMTFAC
 40
1
  9
$DIMGAP
 40
0.09
  9
$DIMJUST
 70
0
  9
$DIMSD1
 70
0
  9
$DIMSD2
 70
0
  9
$DIMTOLJ
 70
1
  9
$DIMTZIN
 70
0
  9
$DIMALTZ
 70
0
  9
$DIMALTTZ
 70
0
  9
$DIMUPT
 70
0
  9
$DIMDEC
 70
4
  9
$DIMTDEC
 70
4
  9
$DIMALTU
 70
2
  9
$DIMALTTD
 70
0
  9
$DIMTXSTY
  7
Standard
  9
$DIMAUNIT
 70
0
  9
$DIMADEC
 70
0
  9
$DIMALTRND
 40
0
  9
$DIMAZIN
 70
0
  9
$DIMDSEP
 70
46
  9
$DIMATFIT
 70
0
  9
$DIMFRAC
 70
0
  9
$DIMLDRBLK
  1

  9
$DIMLUNIT
 70
2
  9
$DIMLWD
 70
-2
  9
$DIMLWE
 70
-2
  9
$LUNITS
 70
2
  9
$LUPREC
 70
4
  9
$SKETCHINC
 40
0.1
  9
$FILLETRAD
 40
0
  9
$AUNITS
 70
0
  9
$AUPREC
 70
0
  9
$MENU
  1
.
  9
$ELEVATION
 40
0
  9
$PELEVATION
 40
0
  9
$THICKNESS
 40
0
  9
$LIMCHECK
 70
0
  9
$CHAMFERA
 40
0.5
  9
$CHAMFERB
 40
0.5
  9
$CHAMFERC
 40
0
  9
$CHAMFERD
 40
0
  9
$SKPOLY
 70
0
  9
$TDCREATE
 40
2460962.9597722916
  9
$TDUCREATE
 40
2460962.9181056251
  9
$TDUPDATE
 40
2460962.9597722916
  9
$TDUUPDATE
 40
2460962.9181056251
  9
$TDINDWG
 40
0
  9
$TDUSRTIMER
 40
1.1574074074074074E-08
  9
$USRTIMER
 70
1
  9
$ANGBASE
 50
0
  9
$ANGDIR
 70
1
  9
$PDMODE
 70
0
  9
$PDSIZE
 40
0
  9
$PLINEWID
 40
0
  9
$SPLFRAME
 70
0
  9
$SPLINETYPE
 70
6
  9
$SPLINESEGS
 70
8
  9
$HANDSEED
  5
57
  9
$SURFTAB1
 70
6
  9
$SURFTAB2
 70
6
  9
$SURFTYPE
 70
6
  9
$SURFU
 70
6
  9
$SURFV
 70
6
  9
$UCSORG
 10
0
 20
0
 30
0
  9
$UCSXDIR
 10
1
 20
0
 30
0
  9
$UCSYDIR
 10
0
 20
1
 30
0
  9
$UCSORTHOREF
  2

  9
$UCSORTHOVIEW
 70
0
  9
$UCSORGTOP
 10
0
 20
0
 30
0
  9
$UCSORGBOTTOM
 10
0
 20
0
 30
0
  9
$UCSORGLEFT
 10
0
 20
0
 30
0
  9
$UCSORGRIGHT
 10
0
 20
0
 30
0
  9
$UCSORGFRONT
 10
0
 20
0
 30
0
  9
$UCSORGBACK
 10
0
 20
0
 30
0
  9
$PUCSORG
 10
0
 20
0
 30
0
  9
$PUCSXDIR
 10
1
 20
0
 30
0
  9
$PUCSYDIR
 10
0
 20
1
 30
0
  9
$PUCSORTHOREF
  2

  9
$PUCSORTHOVIEW
 70
0
  9
$PUCSORGTOP
 10
0
 20
0
 30
0
  9
$PUCSORGBOTTOM
 10
0
 20
0
 30
0
  9
$PUCSORGLEFT
 10
0
 20
0
 30
0
  9
$PUCSORGRIGHT
 10
0
 20
0
 30
0
  9
$PUCSORGFRONT
 10
0
 20
0
 30
0
  9
$PUCSORGBACK
 10
0
 20
0
 30
0
  9
$USERI1
 70
0
  9
$USERI2
 70
0
  9
$USERI3
 70
0
  9
$USERI4
 70
0
  9
$USERI5
 70
0
  9
$USERR1
 40
0
  9
$USERR2
 40
0
  9
$USERR3
 40
0
  9
$USERR4
 40
0
  9
$USERR5
 40
0
  9
$WORLDVIEW
 70
1
  9
$SHADEDGE
 70
3
  9
$SHADEDIF
 70
70
  9
$TILEMODE
 70
1
  9
$MAXACTVP
 70
48
  9
$PINSBASE
 10
0
 20
0
 30
0
  9
$PLIMCHECK
 70
0
  9
$PEXTMIN
 10
1E+20
 20
1E+20
 30
1E+20
  9
$PEXTMAX
 10
-1E+20
 20
-1E+20
 30
-1E+20
  9
$PLIMMAX
 10
0
 20
0
  9
$PLIMMIN
 10
0
 20
0
  9
$UNITMODE
 70
0
  9
$VISRETAIN
 70
1
  9
$PLINEGEN
 70
1
  9
$PSLTSCALE
 70
1
  9
$TREEDEPTH
 70
3020
  9
$CMLSTYLE
  2
STANDARD
  9
$CMLJUST
 70
0
  9
$CMLSCALE
 40
1
  9
$PROXYGRAPHICS
 70
1
  9
$MEASUREMENT
 70
1
  9
$CELWEIGHT
370
-1
  9
$ENDCAPS
280
0
  9
$JOINSTYLE
280
0
  9
$LWDISPLAY
290
1
  9
$INSUNITS
 70
4
  9
$HYPERLINKBASE
  1

  9
$XEDIT
290
1
  9
$CEPSNTYPE
380
0
  9
$PSTYLEMODE
290
0
  9
$FINGERPRINTGUID
  2

  9
$VERSIONGUID
  2

  9
$EXTNAMES
290
1
  9
$PSVPSCALE
 40
0
  9
$CSHADOW
280
0
  9
$SHADOWPLANELOCATION
 40
0
  0
ENDSEC
  0
SECTION
  2
CLASSES
  0
CLASS
  1
RASTERVARIABLES
  2
AcDbRasterVariables
  3
ISM
 90
0
280
0
281
0
  0
CLASS
  1
IMAGEDEF
  2
AcDbRasterImageDef
  3
ISM
 90
0
280
0
281
0
  0
CLASS
  1
IMAGEDEF_REACTOR
  2
AcDbRasterImageDefReactor
  3
ISM
 90
1
280
0
281
0
  0
CLASS
  1
IMAGE
  2
AcDbRasterImage
  3
ISM
 90
127
280
0
281
1
  0
CLASS
  1
ACAD_EVALUATION_GRAPH
  2
AcDbEvalGraph
  3
ObjectDBX Classes
 90
1153
280
0
281
0
  0
CLASS
  1
BLOCKPOINTPARAMETER
  2
AcDbBlockPointParameter
  3
ObjectDBX Classes
 90
1153
280
0
281
0
  0
CLASS
  1
BLOCKBASEPOINTPARAMETER
  2
AcDbBlockBasepointParameter
  3
ObjectDBX Classes
 90
1153
280
0
281
0
  0
CLASS
  1
BLOCKLOOKUPPARAMETER
  2
AcDbBlockLookupParameter
  3
ObjectDBX Classes
 90
1153
280
0
281
0
  0
CLASS
  1
BLOCKVISIBILITYPARAMETER
  2
AcDbBlockVisibilityParameter
  3
ObjectDBX Classes
 90
1153
280
0
281
0
  0
CLASS
  1
BLOCKPROPERTIESTABLE
  2
AcDbBlockPropertiesTable
  3
ObjectDBX Classes
 90
1153
280
0
281
0
  0
CLASS
  1
BLOCKPOLARPARAMETER
  2
AcDbBlockPolarParameter
  3
ObjectDBX Classes
 90
1153
280
0
281
0
  0
CLASS
  1
BLOCKROTATIONPARAMETER
  2
AcDbBlockRotationParameter
  3
ObjectDBX Classes
 90
1153
280
0
281
0
  0
CLASS
  1
BLOCKLINEARPARAMETER
  2
AcDbBlockLinearParameter
  3
ObjectDBX Classes
 90
1153
280
0
281
0
  0
CLASS
  1
BLOCKXYPARAMETER
  2
AcDbBlockXYParameter
  3
ObjectDBX Classes
 90
1153
280
0
281
0
  0
CLASS
  1
BLOCKFLIPPARAMETER
  2
AcDbBlockFlipParameter
  3
ObjectDBX Classes
 90
1153
280
0
281
0
  0
CLASS
  1
BLOCKALIGNMENTPARAMETER
  2
AcDbBlockAlignmentParameter
  3
ObjectDBX Classes
 90
1153
280
0
281
0
  0
CLASS
  1
BLOCKROTATEACTION
  2
AcDbBlockRotateAction
  3
ObjectDBX Classes
 90
1153
280
0
281
0
  0
CLASS
  1
BLOCKSCALEACTION
  2
AcDbBlockScaleAction
  3
ObjectDBX Classes
 90
1153
280
0
281
0
  0
CLASS
  1
BLOCKARRAYACTION
  2
AcDbBlockArrayAction
  3
ObjectDBX Classes
 90
1153
280
0
281
0
  0
CLASS
  1
BLOCKFLIPACTION
  2
AcDbBlockFlipAction
  3
ObjectDBX Classes
 90
1153
280
0
281
0
  0
CLASS
  1
BLOCKLOOKUPACTION
  2
AcDbBlockLookupAction
  3
ObjectDBX Classes
 90
1153
280
0
281
0
  0
CLASS
  1
BLOCKMOVEACTION
  2
AcDbBlockMoveAction
  3
ObjectDBX Classes
 90
1153
280
0
281
0
  0
CLASS
  1
BLOCKPOLARSTRETCHACTION
  2
AcDbBlockPolarStretchAction
  3
ObjectDBX Classes
 90
1153
280
0
281
0
  0
CLASS
  1
BLOCKSTRETCHACTION
  2
AcDbBlockStretchAction
  3
ObjectDBX Classes
 90
1153
280
0
281
0
  0
CLASS
  1
BLOCKALIGNMENTGRIP
  2
AcDbBlockAlignmentGrip
  3
ObjectDBX Classes
 90
1153
280
0
281
0
  0
CLASS
  1
BLOCKFLIPGRIP
  2
AcDbBlockFlipGrip
  3
ObjectDBX Classes
 90
1153
280
0
281
0
  0
CLASS
  1
ACDB_BLOCKREPRESENTATION_DATA
  2
AcDbBlockRepresentationData
  3
ObjectDBX Classes
 90
1153
280
0
281
0
  0
CLASS
  1
ACDB_DYNAMICBLOCKPURGEPREVENTER_VERSION
  2
AcDbDynamicBlockPurgePreventer
  3
ObjectDBX Classes
 90
1153
280
0
281
0
  0
CLASS
  1
BLOCKLINEARGRIP
  2
AcDbBlockLinearGrip
  3
ObjectDBX Classes
 90
1153
280
0
281
0
  0
CLASS
  1
BLOCKLOOKUPGRIP
  2
AcDbBlockLookupGrip
  3
ObjectDBX Classes
 90
1153
280
0
281
0
  0
CLASS
  1
BLOCKPOLARGRIP
  2
AcDbBlockPolarGrip
  3
ObjectDBX Classes
 90
1153
280
0
281
0
  0
CLASS
  1
BLOCKPROPERTIESTABLEGRIP
  2
AcDbBlockPropertiesTableGrip
  3
ObjectDBX Classes
 90
1153
280
0
281
0
  0
CLASS
  1
BLOCKROTATIONGRIP
  2
AcDbBlockRotationGrip
  3
ObjectDBX Classes
 90
1153
280
0
281
0
  0
CLASS
  1
BLOCKVISIBILITYGRIP
  2
AcDbBlockVisibilityGrip
  3
ObjectDBX Classes
 90
1153
280
0
281
0
  0
CLASS
  1
BLOCKXYGRIP
  2
AcDbBlockXYGrip
  3
ObjectDBX Classes
 90
1153
280
0
281
0
  0
CLASS
  1
BLOCKGRIPLOCATIONCOMPONENT
  2
AcDbBlockGripExpr
  3
ObjectDBX Classes
 90
1153
280
0
281
0
  0
CLASS
  1
ACDB_DYNAMICBLOCKPROXYNODE
  2
AcDbDynamicBlockProxyNode
  3
ObjectDBX Classes
 90
1153
280
0
281
0
  0
CLASS
  1
BLOCKLINEARCONSTRAINTPARAMETER
  2
AcDbBlockLinearConstraintParameter
  3
ObjectDBX Classes
 90
1153
280
0
281
0
  0
CLASS
  1
BLOCKHORIZONTALCONSTRAINTPARAMETER
  2
AcDbBlockHorizontalConstraintParameter
  3
ObjectDBX Classes
 90
1153
280
0
281
0
  0
CLASS
  1
BLOCKVERTICALCONSTRAINTPARAMETER
  2
AcDbBlockVerticalConstraintParameter
  3
ObjectDBX Classes
 90
1153
280
0
281
0
  0
CLASS
  1
BLOCKALIGNEDCONSTRAINTPARAMETER
  2
AcDbBlockAlignedConstraintParameter
  3
ObjectDBX Classes
 90
1153
280
0
281
0
  0
CLASS
  1
BLOCKANGULARCONSTRAINTPARAMETER
  2
AcDbBlockAngularConstraintParameter
  3
ObjectDBX Classes
 90
1153
280
0
281
0
  0
CLASS
  1
BLOCKDIAMETRICCONSTRAINTPARAMETER
  2
AcDbBlockDiametricConstraintParameter
  3
ObjectDBX Classes
 90
1153
280
0
281
0
  0
CLASS
  1
BLOCKRADIALCONSTRAINTPARAMETER
  2
AcDbBlockRadialConstraintParameter
  3
ObjectDBX Classes
 90
1153
280
0
281
0
  0
ENDSEC
  0
SECTION
  2
TABLES
  0
TABLE
  2
VPORT
  5
8
330
0
100
AcDbSymbolTable
 70
1
  0
VPORT
  5
32
330
8
100
AcDbSymbolTableRecord
100
AcDbViewportTableRecord
  2
*Active
 70
64
 10
0
 20
0
 11
1
 21
1
 12
2197.4021942387194
 22
999.9999997002584
 13
0
 23
0
 14
1
 24
1
 15
0
 25
0
 16
0
 26
0
 36
1
 17
0
 27
0
 37
0
 40
1998.0000016859096
 41
0.30189970636558322
 42
50
 43
0
 44
0
 50
0
 51
0
 71
0
 72
20000
 73
20000
 74
1
 75
0
 76
0
 77
0
 78
0
281
0
 65
1
110
0
120
0
130
0
111
1
121
0
131
0
112
0
122
1
132
0
 79
0
146
0
  0
ENDTAB
  0
TABLE
  2
LTYPE
  5
5
100
AcDbSymbolTable
 70
3
  0
LTYPE
  5
16
330
5
100
AcDbSymbolTableRecord
100
AcDbLinetypeTableRecord
  2
Continuous
  3
Solid line
 70
64
 72
65
 73
0
 40
0
  0
LTYPE
  5
14
330
5
100
AcDbSymbolTableRecord
100
AcDbLinetypeTableRecord
  2
ByBlock
  3

 70
64
 72
65
 73
0
 40
0
  0
LTYPE
  5
15
330
5
100
AcDbSymbolTableRecord
100
AcDbLinetypeTableRecord
  2
ByLayer
  3

 70
64
 72
65
 73
0
 40
0
  0
ENDTAB
  0
TABLE
  2
LAYER
  5
2
100
AcDbSymbolTable
 70
2
  0
LAYER
  5
10
330
2
100
AcDbSymbolTableRecord
100
AcDbLayerTableRecord
 70
64
  2
0
 62
7
  6
Continuous
370
-3
390
F
  0
LAYER
  5
27
330
2
100
AcDbSymbolTableRecord
100
AcDbLayerTableRecord
 70
64
  2
DEFPOINTS
 62
7
  6
Continuous
290
0
370
-3
390
F
  0
ENDTAB
  0
TABLE
  2
STYLE
  5
3
100
AcDbSymbolTable
 70
1
  0
STYLE
  5
11
330
3
100
AcDbSymbolTableRecord
100
AcDbTextStyleTableRecord
  2
Standard
 70
64
 40
0
 41
1
 50
0
 71
0
 42
0.2
  3
txt.shx
  0
ENDTAB
  0
TABLE
  2
VIEW
  5
6
100
AcDbSymbolTable
 70
0
  0
ENDTAB
  0
TABLE
  2
UCS
  5
7
100
AcDbSymbolTable
 70
0
  0
ENDTAB
  0
TABLE
  2
APPID
  5
9
330
0
100
AcDbSymbolTable
 70
2
  0
APPID
  5
12
330
0
100
AcDbSymbolTableRecord
100
AcDbRegAppTableRecord
  2
ACAD
 70
64
  0
APPID
  5
55
330
0
100
AcDbSymbolTableRecord
100
AcDbRegAppTableRecord
  2
ACAD_MLEADERVER
 70
64
  0
ENDTAB
  0
TABLE
  2
DIMSTYLE
  5
A
330
0
100
AcDbSymbolTable
 70
1
100
AcDbDimStyleTable
 71
0
  0
DIMSTYLE
105
31
330
A
100
AcDbSymbolTableRecord
100
AcDbDimStyleTableRecord
  2
Standard
 70
64
  3

  4

 40
1
 41
0.18
 42
0.0625
 43
0.38
 44
0.18
 45
0
 46
0
 47
0
 48
0
140
0.18
141
0.09
142
0
143
1
144
1
145
0
146
1
147
0.09
148
0
 71
0
 72
0
 73
1
 74
1
 75
0
 76
0
 77
0
 78
0
 79
0
170
0
171
2
172
0
173
0
174
0
175
0
179
0
271
4
272
4
273
2
274
0
275
0
276
0
277
2
278
46
279
0
280
0
281
0
282
0
283
1
284
0
285
0
286
0
288
0
289
0
340
11
371
-2
372
-2
  0
ENDTAB
  0
TABLE
  2
BLOCK_RECORD
  5
1
330
0
100
AcDbSymbolTable
 70
3
  0
BLOCK_RECORD
  5
1F
330
1
100
AcDbSymbolTableRecord
100
AcDbBlockTableRecord
  2
*Model_Space
340
22
  0
BLOCK_RECORD
  5
2E
330
1
100
AcDbSymbolTableRecord
100
AcDbBlockTableRecord
  2
*Paper_Space
340
1E
  0
ENDTAB
  0
ENDSEC
  0
SECTION
  2
BLOCKS
  0
BLOCK
  5
20
330
1F
100
AcDbEntity
  8
0
100
AcDbBlockBegin
  2
*Model_Space
 70
64
 10
0
 20
0
 30
0
  3
*Model_Space
  0
ENDBLK
  5
21
330
1F
100
AcDbEntity
  8
0
100
AcDbBlockEnd
  0
BLOCK
  5
2F
330
2E
100
AcDbEntity
  8
0
 67
1
100
AcDbBlockBegin
  2
*Paper_Space
 70
64
 10
0
 20
0
 30
0
  3
*Paper_Space
  0
ENDBLK
  5
30
330
2E
100
AcDbEntity
  8
0
100
AcDbBlockEnd
  0
ENDSEC
  0
SECTION
  2
ENTITIES
  0
LWPOLYLINE
  5
28
330
1F
100
AcDbEntity
  8
0
 62
18
100
AcDbPolyline
 90
70
 70
1
 10
1899.6227740019801
 20
783.35519260439207
 10
1902.4078763996506
 20
763.036667945727
 10
1904.9446340638428
 20
754.43989280883375
 10
1908.9327163316193
 20
746.41269887235967
 10
1914.1551091970259
 20
739.13918908702112
 10
1920.399672474399
 20
732.72185950504115
 10
1927.4821171805468
 20
727.20508271847518
 10
1935.1995109780057
 20
722.61862399159907
 10
1943.4304214425795
 20
719.03423943561415
 10
1952.0453039037259
 20
716.50868288730567
 10
1960.9214985743104
 20
715.27468622499225
 10
1964.7515839450948
 20
714.99586364814945
 10
2083.1518294861639
 20
714.92765131475835
 10
2091.4163303897549
 20
716.67925545379273
 10
2096.6176967036854
 20
719.43036526329684
 10
2100.9920718866019
 20
723.365680102487
 10
2104.275819130979
 20
728.24833248519758
 10
2106.2089367048784
 20
733.06906296413354
 10
2107.0168104919976
 20
736.43865792750523
 10
2107.4798277673522
 20
741.61180022744043
 10
2107.2831575943487
 20
745.07122930682442
 10
2105.6921558777804
 20
751.80410641504557
 10
2105.0523084393108
 20
753.41500308320531
 10
2103.9407656462267
 20
757.62521337093381
 10
2104.2139160191973
 20
762.94004779339548
 10
2105.8210075079019
 20
768.00969226214
 10
2108.580789925596
 20
772.55138323876042
 10
2112.3076991844587
 20
776.33085526217235
 10
2116.7353864802144
 20
779.24611476287862
 10
2121.8291815379202
 20
781.21623447873822
 10
2127.3974306020496
 20
781.99821495514243
 10
2140.0631100593705
 20
781.93567980522994
 10
2272.7891816443375
 20
782.29229222537572
 10
2276.5255913358924
 20
783.13719839361329
 10
2281.5999922233691
 20
785.90677718477184
 10
2284.695886360827
 20
788.58367982328036
 10
2288.8610831647115
 20
794.384423507732
 10
2290.0913216823205
 20
797.20076732153223
 10
2291.1473588772087
 20
801.15489145250285
 10
2291.4403291901936
 20
807.277658781682
 10
2290.5709587115452
 20
1118.8746967902268
 10
2289.4289922757007
 20
1123.1733807223388
 10
2287.5202482762379
 20
1127.3983667629836
 10
2283.415793304689
 20
1132.9995913681726
 10
2278.0546605335671
 20
1137.4130307036971
 10
2271.7692863752518
 20
1140.3649367529374
 10
2267.2497456185938
 20
1141.3533125254289
 10
2265.770891891686
 20
1141.4145292503445
 10
2127.8280551589128
 20
1140.3640942948891
 10
2122.4466389076342
 20
1142.4876379943632
 10
2117.6403932517296
 20
1145.7175378747113
 10
2115.0235438976074
 20
1148.5689514908775
 10
2112.5372691303955
 20
1152.1302365051286
 10
2105.6041891227137
 20
1163.2635836988222
 10
2102.9160971004389
 20
1166.5763283209994
 10
2097.3704857682806
 20
1170.9791458999578
 10
2092.2083129437974
 20
1173.4209282231743
 10
2086.68865328683
 20
1174.8852187429518
 10
2080.9949057571821
 20
1175.3233670206757
 10
1938.626008284112
 20
1176.2334098967049
 10
1932.8549992068888
 20
1175.36278540247
 10
1924.4940316857148
 20
1172.7976030268244
 10
1917.0825444552663
 20
1169.1478250648033
 10
1913.0763310402363
 20
1166.3701226271664
 10
1907.081455952213
 20
1160.8966820519618
 10
1904.4447226659936
 20
1157.8040734361482
 10
1900.3856778177
 20
1151.7262839717825
 10
1897.2824355715311
 20
1145.1091428726043
 10
1895.947645990944
 20
1140.448082014798
 10
1895.804387325014
 20
1138.2123853666565
  0
LWPOLYLINE
  5
29
330
1F
100
AcDbEntity
  8
0
 62
18
100
AcDbPolyline
 90
119
 70
1
 10
1922.8747894427302
 20
1538.3096768573041
 10
1924.0670600207125
 20
1530.7512257638205
 10
1926.5505434895449
 20
1523.5152446701807
 10
1930.2540444784236
 20
1516.8188153224798
 10
1935.0613146995472
 20
1510.863844847511
 10
1940.8299017563938
 20
1505.8347175203489
 10
1947.3805799385623
 20
1501.8779252921559
 10
1954.5174156836224
 20
1499.1230544442844
 10
1962.0283493264044
 20
1497.7614315024448
 10
1963.8897608964523
 20
1497.827666819913
 10
2104.0415980640705
 20
1512.0501203489996
 10
2210.5046342751707
 20
1523.7557057196345
 10
2230.4980904276254
 20
1527.1177860809128
 10
2272.6422290760893
 20
1535.2552741226391
 10
2330.4921175607637
 20
1546.9816393511092
 10
2341.3224837229022
 20
1549.8110492281928
 10
2345.0807926983325
 20
1552.0862221487819
 10
2349.8913240992256
 20
1556.8521581143491
 10
2351.7662662139905
 20
1559.6809633081357
 10
2354.04599552333
 20
1564.940035751051
 10
2355.1450997920533
 20
1570.5654868211498
 10
2355.0124386723114
 20
1576.2960013792667
 10
2338.6550476304269
 20
1698.1325007465703
 10
2339.4771625596045
 20
1702.8901894698145
 10
2342.0258436986715
 20
1708.9022356696107
 10
2345.8518011463525
 20
1714.1938223570482
 10
2350.7849601665221
 20
1718.9276716160814
 10
2356.310272948836
 20
1722.9544464257983
 10
2365.236051107323
 20
1727.741812543883
 10
2375.6937291192244
 20
1732.3446346372898
 10
2380.2342665091992
 20
1736.0974472188459
 10
2383.1543349949252
 20
1739.918749595339
 10
2385.2254139650177
 20
1744.2592174187375
 10
2386.1331362875248
 20
1748.2719070104295
 10
2386.3237902446449
 20
1752.4217244523954
 10
2386.0051408603181
 20
1756.6544573782464
 10
2381.7136197974742
 20
1786.4203215035884
 10
2380.3149949219633
 20
1801.480114123962
 10
2380.5448759259502
 20
1807.149223517159
 10
2382.2303824009859
 20
1811.042796242077
 10
2384.6168398444356
 20
1814.550840504739
 10
2389.3191031679212
 20
1818.8218473282789
 10
2392.1312915461772
 20
1820.3253623302733
 10
2418.2697184121953
 20
1826.7597749394897
 10
2431.1076077786138
 20
1830.1228916494319
 10
2435.8001830783883
 20
1832.4119004849103
 10
2439.1085831836722
 20
1835.0838799303685
 10
2441.8323312136918
 20
1838.3499269040524
 10
2443.8668422791839
 20
1842.0843040290197
 10
2445.1737682781904
 20
1846.1072482501072
 10
2445.7680442138735
 20
1850.2951459623407
 10
2445.6319756122671
 20
1854.5227797691739
 10
2441.8381224348591
 20
1888.963806038942
 10
2437.2364261249086
 20
1917.5696011238044
 10
2434.3220295036253
 20
1928.6174952198296
 10
2431.5186642906388
 20
1933.81285762557
 10
2427.6634585192223
 20
1938.2835173518176
 10
2422.9367811680795
 20
1941.8202129769018
 10
2418.1352005038511
 20
1944.04225207324
 10
2413.5728148409862
 20
1945.0762495326339
 10
2408.89566229035
 20
1945.1702758478921
 10
2401.78283899602
 20
1943.9291959365476
 10
2373.2582937514353
 20
1936.3018587281269
 10
2346.6390901813593
 20
1929.9759175847448
 10
2335.4582754009703
 20
1928.6982118854723
 10
2329.5695534873075
 20
1929.3302106837457
 10
2323.9300810619184
 20
1931.1349848710711
 10
2321.2745008060278
 20
1932.4569023254551
 10
2314.2972339617349
 20
1937.9252196557404
 10
2310.7012695404073
 20
1942.6311406761652
 10
2308.1177501278148
 20
1947.96476551619
 10
2306.6004054881628
 20
1954.6653987071948
 10
2306.2548642481215
 20
1958.5922048364027
 10
2302.2175523432525
 20
1981.8097390945659
 10
2301.4914666268091
 20
1984.1236029609074
 10
2299.7458417238072
 20
1987.8015589226852
 10
2296.7403499911265
 20
1991.7222362965797
 10
2292.9028837053179
 20
1994.8331921087354
 10
2286.9051300019378
 20
1997.5714412267746
 10
2282.0705101147696
 20
1998.6488761572332
 10
2277.1329459564972
 20
1999.0000005390928
 10
2272.1907371828506
 20
1998.7064373973842
 10
2264.9397401220317
 20
1997.1395005689235
 10
2246.7472053784727
 20
1991.211227263308
 10
2223.719651855808
 20
1985.205656443228
 10
2200.3568567717225
 20
1980.6801146625526
 10
2169.6331433606815
 20
1977.0978680115466
 10
2159.7821003451554
 20
1975.911496786948
 10
2149.8767048773921
 20
1975.3337309823035
 10
2130.0432380477787
 20
1975.5883390578217
 10
2110.2645237427346
 20
1977.2132177307635
 10
2079.8793237328396
 20
1981.0752049087366
 10
1953.2295483506202
 20
1998.6271011202855
 10
1949.7741293878491
 20
1999.0000005432132
 10
1943.6227859599776
 20
1998.2988827031795
 10
1938.1316493355341
 20
1996.7064966254065
 10
1935.4947211424314
 20
1995.5970802604318
 10
1930.5169870623943
 20
1992.7845320716867
 10
1927.0999451232562
 20
1990.1909572327731
 10
1924.0085161062709
 20
1987.2163421688297
 10
1918.9551875505344
 20
1980.3004887025629
 10
1916.6893041627102
 20
1975.3448314452728
 10
1915.9833282210134
 20
1970.1330803155811
 10
1916.0963612787978
 20
1968.8166138395422
 10
1932.9502525775031
 20
1839.6025582937673
 10
1933.3351752825963
 20
1830.1682836829591
 10
1932.7731107953011
 20
1825.5515721782815
 10
1931.37668581665
 20
1821.0532289615653
 10
1927.2561710345353
 20
1813.9046987626123
 10
1924.9937108361446
 20
1811.1767741651654
 10
1921.5092234324268
 20
1807.9948065913311
 10
1917.9859461390765
 20
1806.2393826468078
 10
1906.7683140087495
 20
1802.1579380992428
 10
1902.1592907420809
 20
1798.4233509146206
 10
1899.3579778654448
 20
1794.9453005795256
 10
1897.3944237464327
 20
1790.9451188776309
 10
1896.3422933992924
 20
1786.651960628373
 10
1895.8047005977621
 20
1782.2215103482374
 10
1919.3666647056864
 20
1568.7781881193662
  0
CIRCLE
  5
2A
330
1F
100
AcDbEntity
  8
0
 62
18
100
AcDbCircle
 10
1991.850349248866
 20
1907.4780855665122
 30
0
 40
12.00000047683703
  0
CIRCLE
  5
2B
330
1F
100
AcDbEntity
  8
0
 62
18
100
AcDbCircle
 10
2031.4245911819526
 20
1566.9579583861855
 30
0
 40
12.00000047683719
  0
LWPOLYLINE
  5
2C
330
1F
100
AcDbEntity
  8
0
 62
18
100
AcDbPolyline
 90
66
 70
1
 10
2033.7819271524247
 20
0.999998857303523
 10
2483.8520986500093
 20
0.99999890749840958
 10
2486.5908699849638
 20
1.9789183886377566
 10
2489.1146481541082
 20
3.4229086508279996
 10
2491.8589993365608
 20
5.703591247884706
 10
2494.1953273888403
 20
8.4006786511388256
 10
2496.1016618858844
 20
11.437709943902634
 10
2497.5555015577852
 20
14.715511840224233
 10
2498.5271878950612
 20
18.167113036833058
 10
2498.9999990050123
 20
23.995241983318692
 10
2498.8334843470534
 20
28.177651547288079
 10
2490.9131544329211
 20
112.18115063162651
 10
2480.9555784214613
 20
165.25009197462202
 10
2455.5660450295268
 20
290.09307257502195
 10
2451.0900425243917
 20
315.18215205727233
 10
2448.4533827986861
 20
334.12338979912511
 10
2446.6134790172055
 20
357.41717656108978
 10
2446.6635649390387
 20
393.01028350073716
 10
2447.4352554254465
 20
416.89157195776966
 10
2448.4852338342603
 20
431.19311244753368
 10
2451.1115196090209
 20
454.95984062798192
 10
2454.5606395318937
 20
480.587063887702
 10
2460.4883869969449
 20
529.63058812494319
 10
2479.3478134858028
 20
717.66267372664583
 10
2482.1425828021625
 20
749.83803423308689
 10
2481.4173881446291
 20
755.06926720774811
 10
2479.8580964869379
 20
760.115143589347
 10
2476.1271346887374
 20
767.05700200547108
 10
2470.9415439509557
 20
772.99153364212009
 10
2467.84470693106
 20
775.45772454597648
 10
2464.4425625039171
 20
777.48213311444931
 10
2458.075465796413
 20
779.79602194576557
 10
2455.2849972312642
 20
780.07690186809862
 10
2230.0513558638895
 20
781.17744633934365
 10
2221.7957045346461
 20
780.30864656976212
 10
2213.6157798848785
 20
778.91720648056821
 10
2201.5343739216687
 20
775.89904924138511
 10
2192.3587721230988
 20
772.78497919581594
 10
2183.4386607867414
 20
769.00202094654753
 10
2171.0265531285308
 20
762.2930719088846
 10
2160.0164200158829
 20
754.80634581259937
 10
2143.2621192217935
 20
741.1289441028897
 10
2134.2878620850797
 20
732.54094232377156
 10
2128.6999330973213
 20
726.40077368013419
 10
2120.9361738877406
 20
716.65511976608934
 10
2114.915902286476
 20
708.19995580805664
 10
2055.9802139922986
 20
615.74128010897232
 10
2040.6766008163829
 20
589.68010298529589
 10
2037.5986324811995
 20
582.7178528620035
 10
2030.5201568617513
 20
562.05728330802742
 10
2028.256909053503
 20
552.69318688494741
 10
2026.7258461428228
 20
543.16166382876213
 10
2024.8840284840803
 20
523.8195733278817
 10
2021.2599420306988
 20
498.85915259372655
 10
2014.1517859365845
 20
417.84142834145268
 10
2005.0468997456564
 20
310.86111834794178
 10
2002.9161258341735
 20
272.45932928610318
 10
1998.3908144391758
 20
75.262382187175589
 10
2000.2743565235937
 20
37.425576533190352
 10
2002.2860040904634
 20
29.467852985676952
 10
2003.4974817414854
 20
26.201291991291168
 10
2006.5643445262888
 20
19.962952031030657
 10
2010.3879814971913
 20
14.500558266500514
 10
2017.8051272906973
 20
7.5194851042534969
 10
2023.8863478641438
 20
3.8265344798740779
 10
2027.7695512906953
 20
2.1087843594727209
  0
LWPOLYLINE
  5
2D
330
1F
100
AcDbEntity
  8
0
 62
18
100
AcDbPolyline
 90
65
 70
1
 10
2499.0000011524248
 20
1151.8498749947514
 10
2499.000000035478
 20
1508.9864290157032
 10
2496.5001584581792
 20
1515.8543884658734
 10
2494.2735572072565
 20
1520.1911855613407
 10
2487.47892342607
 20
1529.2859088534788
 10
2481.4260077665731
 20
1534.6977734501852
 10
2475.2745416729117
 20
1538.6444595295641
 10
2467.1892177415525
 20
1541.9743516115211
 10
2458.6741682704724
 20
1543.9713415915276
 10
2450.4659400194469
 20
1544.4007900249619
 10
2441.227780388198
 20
1544.2503549256269
 10
2307.7320978047292
 20
1541.3445642955355
 10
2302.2285179733171
 20
1539.8209015813622
 10
2297.0928914054716
 20
1537.3237560559057
 10
2292.4958562685015
 20
1533.935799612899
 10
2289.3010619054489
 20
1530.6558771965429
 10
2284.07016922946
 20
1523.0652223281638
 10
2278.4587095389597
 20
1513.2224507923388
 10
2275.6064982565149
 20
1510.6064452504909
 10
2270.5870773532765
 20
1507.7216008543589
 10
2266.9664949596736
 20
1506.3827077804838
 10
2125.2611017321046
 20
1505.483462544106
 10
2120.8677513973848
 20
1504.003063461608
 10
2116.7803788166343
 20
1501.8151628914427
 10
2111.467054345223
 20
1497.3443989708612
 10
2107.423113001345
 20
1491.6992820622313
 10
2104.8993017785683
 20
1485.2302134704237
 10
2104.1427772009911
 20
1480.6561988128346
 10
2107.3065855300833
 20
1165.4352127973871
 10
2109.6611044063216
 20
1158.6899386164896
 10
2111.2624286983428
 20
1156.0697176334845
 10
2113.8929995985218
 20
1152.9344228431105
 10
2118.7371321461737
 20
1149.1784246581874
 10
2122.4287854401723
 20
1147.4116490570798
 10
2124.3739781020909
 20
1146.7703238373947
 10
2274.0615998025087
 20
1147.8436176967275
 10
2279.5172011487248
 20
1146.479279845164
 10
2284.2475828630872
 20
1144.0862737455102
 10
2288.3874101983838
 20
1140.7749833071002
 10
2291.7079236466966
 20
1136.6255318580636
 10
2293.9652556743563
 20
1131.8142233954529
 10
2294.9773509746919
 20
1126.5894626401277
 10
2294.970653546819
 20
1123.922933949354
 10
2291.7652843821024
 20
1111.3552364389589
 10
2291.6028769537857
 20
1107.90121011166
 10
2292.1137771354211
 20
1102.7432256000086
 10
2292.950633063655
 20
1099.388093559598
 10
2296.439330754677
 20
1092.0587078149824
 10
2300.347721835753
 20
1087.6404367390112
 10
2302.679363404277
 20
1085.8250354017985
 10
2306.5537838036885
 20
1083.6858358143249
 10
2310.7512858883697
 20
1082.2696653684166
 10
2316.2177713913811
 20
1081.451691117102
 10
2321.9911053684282
 20
1081.1864685548012
 10
2434.6104897164896
 20
1082.7936945020178
 10
2444.7859559919625
 20
1083.9423694132263
 10
2451.634457055733
 20
1085.6175531234308
 10
2460.0405353838091
 20
1088.7691483085327
 10
2467.9859382940977
 20
1092.9484028251391
 10
2475.3455433873369
 20
1098.0894566078966
 10
2481.9775624524495
 20
1104.1228873615144
 10
2487.6527892166696
 20
1111.0488508116493
 10
2492.214574593861
 20
1118.7592867686183
 10
2495.3994398523
 20
1127.1376485259952
 10
2497.3305189373059
 20
1136.5540549655063
  0
ENDSEC
  0
SECTION
  2
OBJECTS
  0
DICTIONARY
  5
C
330
0
100
AcDbDictionary
280
0
281
1
  3
ACAD_SCALELIST
350
33
  3
ACAD_COLOR
350
45
  3
ACAD_FIELDLIST
350
46
  3
ACAD_GROUP
350
D
  3
ACAD_IMAGE_DICT
350
47
  3
ACAD_LAYOUT
350
1A
  3
ACAD_MATERIAL
350
48
  3
ACAD_MLEADERSTYLE
350
49
  3
ACAD_MLINESTYLE
350
17
  3
ACAD_PLOTSETTINGS
350
19
  3
ACAD_PLOTSTYLENAME
350
E
  3
ACAD_TABLESTYLE
350
4B
  3
ACDB_RECOMPOSE_DATA
350
4F
  3
AcDbVariableDictionary
350
50
  3
ACAD_VISUALSTYLE
350
53
  3
DWGPROPS
350
54
  0
DICTIONARY
  5
4D
330
4C
100
AcDbDictionary
280
0
281
1
  3
ACAD_ROUNDTRIP_2008_TABLESTYLE_CELLSTYLEMAP
360
4E
  0
DICTIONARY
  5
33
102
{ACAD_REACTORS
330
C
102
}
330
C
100
AcDbDictionary
280
0
281
1
  0
DICTIONARY
  5
45
102
{ACAD_REACTORS
330
C
102
}
330
C
100
AcDbDictionary
280
0
281
1
  0
FIELDLIST
  5
46
102
{ACAD_REACTORS
330
C
102
}
330
C
100
AcDbIdSet
100
AcDbFieldList
  0
DICTIONARY
  5
D
102
{ACAD_REACTORS
330
C
102
}
330
C
100
AcDbDictionary
280
0
281
1
  0
DICTIONARY
  5
47
102
{ACAD_REACTORS
330
C
102
}
330
C
100
AcDbDictionary
280
0
281
1
  0
DICTIONARY
  5
1A
102
{ACAD_REACTORS
330
C
102
}
330
C
100
AcDbDictionary
280
0
281
1
  3
Layout1
350
1E
  3
Model
350
22
  0
DICTIONARY
  5
48
102
{ACAD_REACTORS
330
C
102
}
330
C
100
AcDbDictionary
280
0
281
1
  0
DICTIONARY
  5
49
102
{ACAD_REACTORS
330
C
102
}
330
C
100
AcDbDictionary
280
0
281
1
  3
Standard
350
4A
  0
DICTIONARY
  5
17
102
{ACAD_REACTORS
330
C
102
}
330
C
100
AcDbDictionary
280
0
281
1
  3
STANDARD
350
18
  0
DICTIONARY
  5
19
102
{ACAD_REACTORS
330
C
102
}
330
C
100
AcDbDictionary
280
0
281
1
  0
ACDBDICTIONARYWDFLT
  5
E
102
{ACAD_REACTORS
330
C
102
}
330
C
100
AcDbDictionary
280
0
281
1
  3
Normal
350
F
100
AcDbDictionaryWithDefault
340
F
  0
ACDBPLACEHOLDER
  5
F
102
{ACAD_REACTORS
330
E
102
}
330
E
  0
DICTIONARY
  5
4B
102
{ACAD_REACTORS
330
C
102
}
330
C
100
AcDbDictionary
280
0
281
1
  3
Standard
350
4C
  0
XRECORD
  5
4F
102
{ACAD_REACTORS
330
C
102
}
330
C
100
AcDbXrecord
280
1
 90
1
330
4C
  0
DICTIONARY
  5
50
102
{ACAD_REACTORS
330
C
102
}
330
C
100
AcDbDictionary
280
0
281
1
  3
DIMASSOC
350
51
  3
HIDETEXT
350
52
  0
DICTIONARY
  5
53
102
{ACAD_REACTORS
330
C
102
}
330
C
100
AcDbDictionary
280
0
281
1
  0
XRECORD
  5
54
102
{ACAD_REACTORS
330
C
102
}
330
C
100
AcDbXrecord
280
0
  1
DWGPROPS COOKIE
  2

  3

  4

  6

  7

  8

  9

300
=
301
=
302
=
303
=
304
=
305
=
306
=
307
=
308
=
309
=
 40
0
 41
2460962.95977228
 42
2460962.95977228
  1

 90
0
  0
CELLSTYLEMAP
  5
4E
102
{ACAD_REACTORS
330
4D
102
}
330
4D
100
AcDbCellStyleMap
 90
3
300
CELLSTYLE
  1
TABLEFORMAT_BEGIN
 90
5
170
0
309
TABLEFORMAT_END
  1
CELLSTYLE_BEGIN
 90
3
 91
2
300
_DATA
309
CELLSTYLE_END
300
CELLSTYLE
  1
TABLEFORMAT_BEGIN
 90
5
170
0
309
TABLEFORMAT_END
  1
CELLSTYLE_BEGIN
 90
1
 91
2
300
_TITLE
309
CELLSTYLE_END
300
CELLSTYLE
  1
TABLEFORMAT_BEGIN
 90
5
170
0
309
TABLEFORMAT_END
  1
CELLSTYLE_BEGIN
 90
2
 91
2
300
_HEADER
309
CELLSTYLE_END
  0
LAYOUT
  5
1E
102
{ACAD_REACTORS
330
1A
102
}
330
1A
100
AcDbPlotSettings
  1

  2
C:\Program Files\AutoCAD 2002\plotters\DWF ePlot (optimized for plotting).pc3
  4

  6

 40
0
 41
0
 42
0
 43
0
 44
0
 45
0
 46
0
 47
0
 48
0
 49
0
140
0
141
0
142
1
143
1
 70
688
 72
1
 73
1
 74
1
  7
acad.stb
 75
16
 76
0
 77
0
 78
0
147
1
148
0
149
0
100
AcDbLayout
  1
Layout1
 70
1
 71
1
 10
0
 20
0
 11
420
 21
297
 12
0
 22
0
 32
0
 14
0
 24
0
 34
0
 15
0
 25
0
 35
0
146
0
 13
0
 23
0
 33
0
 16
1
 26
0
 36
0
 17
0
 27
1
 37
0
 76
0
330
2E
  0
LAYOUT
  5
22
102
{ACAD_REACTORS
330
1A
102
}
330
1A
100
AcDbPlotSettings
  1

  2
C:\Program Files\AutoCAD 2002\plotters\DWF ePlot (optimized for plotting).pc3
  4

  6

 40
0
 41
0
 42
0
 43
0
 44
0
 45
0
 46
0
 47
0
 48
0
 49
0
140
0
141
0
142
1
143
1
 70
1712
 72
1
 73
1
 74
0
  7
acad.stb
 75
0
 76
0
 77
0
 78
0
147
1
148
0
149
0
100
AcDbLayout
  1
Model
 70
1
 71
0
 10
0
 20
0
 11
12
 21
9
 12
0
 22
0
 32
0
 14
0
 24
0
 34
0
 15
0
 25
0
 35
0
146
0
 13
0
 23
0
 33
0
 16
1
 26
0
 36
0
 17
0
 27
1
 37
0
 76
0
330
1F
  0
MLEADERSTYLE
  5
4A
102
{ACAD_REACTORS
330
49
102
}
330
49
100
AcDbMLeaderStyle
170
2
171
1
172
0
 90
2
 40
0
 41
0
173
1
 91
0
340
0
 92
-2
290
1
 42
0.09
292
1
 43
0.36
  3
Standard
341
0
 44
0.18
300

342
0
174
1
178
1
175
1
176
0
 93
0
 45
0.18
292
0
297
0
 46
0
343
0
 94
0
 47
1
 49
1
140
1
293
1
141
0
294
1
177
0
142
1
295
0
296
0
143
0.125
  0
MLINESTYLE
  5
18
102
{ACAD_REACTORS
330
17
102
}
330
17
100
AcDbMlineStyle
  2
STANDARD
 70
0
  3

 51
90
 52
90
 71
2
 49
0.5
 62
0
  6
ByLayer
 49
-0.5
 62
0
  6
ByLayer
  0
TABLESTYLE
  5
4C
102
{ACAD_XDICTIONARY
360
4D
102
}
102
{ACAD_REACTORS
330
4B
102
}
330
4B
100
AcDbTableStyle
  3

 70
0
 71
0
 40
0.06
 41
0.06
280
0
281
0
  7
Standard
140
0.18
170
1
 62
0
283
0
 90
512
 91
0
274
-2
284
1
 64
0
275
-2
285
1
 65
0
276
-2
286
1
 66
0
277
-2
287
1
 67
0
278
-2
288
1
 68
0
279
-2
289
1
 69
0
  7
Standard
140
0.18
170
1
 62
0
283
0
 90
512
 91
0
274
-2
284
1
 64
0
275
-2
285
1
 65
0
276
-2
286
1
 66
0
277
-2
287
1
 67
0
278
-2
288
1
 68
0
279
-2
289
1
 69
0
  7
Standard
140
0.18
170
1
 62
0
283
0
 90
512
 91
0
274
-2
284
1
 64
0
275
-2
285
1
 65
0
276
-2
286
1
 66
0
277
-2
287
1
 67
0
278
-2
288
1
 68
0
279
-2
289
1
 69
0
  0
DICTIONARYVAR
  5
51
102
{ACAD_REACTORS
330
50
102
}
330
50
100
DictionaryVariables
280
0
  1
1
  0
DICTIONARYVAR
  5
52
102
{ACAD_REACTORS
330
50
102
}
330
50
100
DictionaryVariables
280
0
  1
2
  0
ENDSEC
999
Created By CadLib version 4.0.38.30
999
CadLib website: www.woutware.com
  0
EOF
