  0
SECTION
  2
HEADER
  9
$ACADVER
  1
AC1015
  9
$DWGCODEPAGE
  3
ansi_1252
  9
$INSBASE
 10
0
 20
0
 30
0
  9
$EXTMIN
 10
1981.2387785715578
 20
42.0375942064804
 30
0
  9
$EXTMAX
 10
2499.0021363448732
 20
1998.99992066543
 30
0
  9
$LIMMIN
 10
0
 20
0
  9
$LIMMAX
 10
12
 20
9
  9
$SNAPMODE
 70
0
  9
$SNAPUNIT
 10
1
 20
1
  9
$SNAPBASE
 10
0
 20
0
  9
$SNAPANG
 50
0
  9
$SNAPSTYLE
 70
0
  9
$SNAPISOPAIR
 70
0
  9
$ORTHOMODE
 70
0
  9
$REGENMODE
 70
1
  9
$FILLMODE
 70
1
  9
$QTEXTMODE
 70
0
  9
$MIRRTEXT
 70
1
  9
$LTSCALE
 40
1
  9
$OSMODE
 70
0
  9
$ATTMODE
 70
1
  9
$TEXTSIZE
 40
0.2
  9
$TRACEWID
 40
0.05
  9
$TEXTSTYLE
  7
Standard
  9
$CLAYER
  8
0
  9
$CELTYPE
  6
ByLayer
  9
$CECOLOR
 62
256
  9
$CELTSCALE
 40
1
  9
$DISPSILH
 70
0
  9
$DIMSCALE
 40
1
  9
$DIMASZ
 40
0.18
  9
$DIMEXO
 40
0.0625
  9
$DIMDLI
 40
0.38
  9
$DIMRND
 40
0
  9
$DIMDLE
 40
0
  9
$DIMEXE
 40
0.18
  9
$DIMTP
 40
0
  9
$DIMTM
 40
0
  9
$DIMTXT
 40
0.18
  9
$DIMCEN
 40
0.09
  9
$DIMTSZ
 40
0
  9
$DIMTOL
 70
0
  9
$DIMLIM
 70
0
  9
$DIMTIH
 70
1
  9
$DIMTOH
 70
1
  9
$DIMSE1
 70
0
  9
$DIMSE2
 70
0
  9
$DIMTAD
 70
0
  9
$DIMZIN
 70
0
  9
$DIMBLK
  1

  9
$DIMASO
 70
1
  9
$DIMSHO
 70
1
  9
$DIMPOST
  1

  9
$DIMAPOST
  1

  9
$DIMALT
 70
0
  9
$DIMALTD
 70
2
  9
$DIMALTF
 40
0.03937007874015748
  9
$DIMLFAC
 40
1
  9
$DIMTOFL
 70
0
  9
$DIMTVP
 40
0
  9
$DIMTIX
 70
0
  9
$DIMSOXD
 70
0
  9
$DIMSAH
 70
0
  9
$DIMBLK1
  1

  9
$DIMBLK2
  1

  9
$DIMSTYLE
  2
Standard
  9
$DIMCLRD
 70
0
  9
$DIMCLRE
 70
0
  9
$DIMCLRT
 70
0
  9
$DIMTFAC
 40
1
  9
$DIMGAP
 40
0.09
  9
$DIMJUST
 70
0
  9
$DIMSD1
 70
0
  9
$DIMSD2
 70
0
  9
$DIMTOLJ
 70
1
  9
$DIMTZIN
 70
0
  9
$DIMALTZ
 70
0
  9
$DIMALTTZ
 70
0
  9
$DIMUPT
 70
0
  9
$DIMDEC
 70
4
  9
$DIMTDEC
 70
4
  9
$DIMALTU
 70
2
  9
$DIMALTTD
 70
0
  9
$DIMTXSTY
  7
Standard
  9
$DIMAUNIT
 70
0
  9
$DIMADEC
 70
0
  9
$DIMALTRND
 40
0
  9
$DIMAZIN
 70
0
  9
$DIMDSEP
 70
46
  9
$DIMATFIT
 70
0
  9
$DIMFRAC
 70
0
  9
$DIMLDRBLK
  1

  9
$DIMLUNIT
 70
2
  9
$DIMLWD
 70
-2
  9
$DIMLWE
 70
-2
  9
$LUNITS
 70
2
  9
$LUPREC
 70
4
  9
$SKETCHINC
 40
0.1
  9
$FILLETRAD
 40
0
  9
$AUNITS
 70
0
  9
$AUPREC
 70
0
  9
$MENU
  1
.
  9
$ELEVATION
 40
0
  9
$PELEVATION
 40
0
  9
$THICKNESS
 40
0
  9
$LIMCHECK
 70
0
  9
$CHAMFERA
 40
0.5
  9
$CHAMFERB
 40
0.5
  9
$CHAMFERC
 40
0
  9
$CHAMFERD
 40
0
  9
$SKPOLY
 70
0
  9
$TDCREATE
 40
2460962.9612866319
  9
$TDUCREATE
 40
2460962.9196199654
  9
$TDUPDATE
 40
2460962.9612866319
  9
$TDUUPDATE
 40
2460962.9196199654
  9
$TDINDWG
 40
0
  9
$TDUSRTIMER
 40
1.1574074074074074E-08
  9
$USRTIMER
 70
1
  9
$ANGBASE
 50
0
  9
$ANGDIR
 70
1
  9
$PDMODE
 70
0
  9
$PDSIZE
 40
0
  9
$PLINEWID
 40
0
  9
$SPLFRAME
 70
0
  9
$SPLINETYPE
 70
6
  9
$SPLINESEGS
 70
8
  9
$HANDSEED
  5
1CF
  9
$SURFTAB1
 70
6
  9
$SURFTAB2
 70
6
  9
$SURFTYPE
 70
6
  9
$SURFU
 70
6
  9
$SURFV
 70
6
  9
$UCSORG
 10
0
 20
0
 30
0
  9
$UCSXDIR
 10
1
 20
0
 30
0
  9
$UCSYDIR
 10
0
 20
1
 30
0
  9
$UCSORTHOREF
  2

  9
$UCSORTHOVIEW
 70
0
  9
$UCSORGTOP
 10
0
 20
0
 30
0
  9
$UCSORGBOTTOM
 10
0
 20
0
 30
0
  9
$UCSORGLEFT
 10
0
 20
0
 30
0
  9
$UCSORGRIGHT
 10
0
 20
0
 30
0
  9
$UCSORGFRONT
 10
0
 20
0
 30
0
  9
$UCSORGBACK
 10
0
 20
0
 30
0
  9
$PUCSORG
 10
0
 20
0
 30
0
  9
$PUCSXDIR
 10
1
 20
0
 30
0
  9
$PUCSYDIR
 10
0
 20
1
 30
0
  9
$PUCSORTHOREF
  2

  9
$PUCSORTHOVIEW
 70
0
  9
$PUCSORGTOP
 10
0
 20
0
 30
0
  9
$PUCSORGBOTTOM
 10
0
 20
0
 30
0
  9
$PUCSORGLEFT
 10
0
 20
0
 30
0
  9
$PUCSORGRIGHT
 10
0
 20
0
 30
0
  9
$PUCSORGFRONT
 10
0
 20
0
 30
0
  9
$PUCSORGBACK
 10
0
 20
0
 30
0
  9
$USERI1
 70
0
  9
$USERI2
 70
0
  9
$USERI3
 70
0
  9
$USERI4
 70
0
  9
$USERI5
 70
0
  9
$USERR1
 40
0
  9
$USERR2
 40
0
  9
$USERR3
 40
0
  9
$USERR4
 40
0
  9
$USERR5
 40
0
  9
$WORLDVIEW
 70
1
  9
$SHADEDGE
 70
3
  9
$SHADEDIF
 70
70
  9
$TILEMODE
 70
1
  9
$MAXACTVP
 70
48
  9
$PINSBASE
 10
0
 20
0
 30
0
  9
$PLIMCHECK
 70
0
  9
$PEXTMIN
 10
1E+20
 20
1E+20
 30
1E+20
  9
$PEXTMAX
 10
-1E+20
 20
-1E+20
 30
-1E+20
  9
$PLIMMAX
 10
0
 20
0
  9
$PLIMMIN
 10
0
 20
0
  9
$UNITMODE
 70
0
  9
$VISRETAIN
 70
1
  9
$PLINEGEN
 70
1
  9
$PSLTSCALE
 70
1
  9
$TREEDEPTH
 70
3020
  9
$CMLSTYLE
  2
STANDARD
  9
$CMLJUST
 70
0
  9
$CMLSCALE
 40
1
  9
$PROXYGRAPHICS
 70
1
  9
$MEASUREMENT
 70
1
  9
$CELWEIGHT
370
-1
  9
$ENDCAPS
280
0
  9
$JOINSTYLE
280
0
  9
$LWDISPLAY
290
1
  9
$INSUNITS
 70
4
  9
$HYPERLINKBASE
  1

  9
$XEDIT
290
1
  9
$CEPSNTYPE
380
0
  9
$PSTYLEMODE
290
0
  9
$FINGERPRINTGUID
  2

  9
$VERSIONGUID
  2

  9
$EXTNAMES
290
1
  9
$PSVPSCALE
 40
0
  9
$CSHADOW
280
0
  9
$SHADOWPLANELOCATION
 40
0
  0
ENDSEC
  0
SECTION
  2
CLASSES
  0
CLASS
  1
RASTERVARIABLES
  2
AcDbRasterVariables
  3
ISM
 90
0
280
0
281
0
  0
CLASS
  1
IMAGEDEF
  2
AcDbRasterImageDef
  3
ISM
 90
0
280
0
281
0
  0
CLASS
  1
IMAGEDEF_REACTOR
  2
AcDbRasterImageDefReactor
  3
ISM
 90
1
280
0
281
0
  0
CLASS
  1
IMAGE
  2
AcDbRasterImage
  3
ISM
 90
127
280
0
281
1
  0
CLASS
  1
ACAD_EVALUATION_GRAPH
  2
AcDbEvalGraph
  3
ObjectDBX Classes
 90
1153
280
0
281
0
  0
CLASS
  1
BLOCKPOINTPARAMETER
  2
AcDbBlockPointParameter
  3
ObjectDBX Classes
 90
1153
280
0
281
0
  0
CLASS
  1
BLOCKBASEPOINTPARAMETER
  2
AcDbBlockBasepointParameter
  3
ObjectDBX Classes
 90
1153
280
0
281
0
  0
CLASS
  1
BLOCKLOOKUPPARAMETER
  2
AcDbBlockLookupParameter
  3
ObjectDBX Classes
 90
1153
280
0
281
0
  0
CLASS
  1
BLOCKVISIBILITYPARAMETER
  2
AcDbBlockVisibilityParameter
  3
ObjectDBX Classes
 90
1153
280
0
281
0
  0
CLASS
  1
BLOCKPROPERTIESTABLE
  2
AcDbBlockPropertiesTable
  3
ObjectDBX Classes
 90
1153
280
0
281
0
  0
CLASS
  1
BLOCKPOLARPARAMETER
  2
AcDbBlockPolarParameter
  3
ObjectDBX Classes
 90
1153
280
0
281
0
  0
CLASS
  1
BLOCKROTATIONPARAMETER
  2
AcDbBlockRotationParameter
  3
ObjectDBX Classes
 90
1153
280
0
281
0
  0
CLASS
  1
BLOCKLINEARPARAMETER
  2
AcDbBlockLinearParameter
  3
ObjectDBX Classes
 90
1153
280
0
281
0
  0
CLASS
  1
BLOCKXYPARAMETER
  2
AcDbBlockXYParameter
  3
ObjectDBX Classes
 90
1153
280
0
281
0
  0
CLASS
  1
BLOCKFLIPPARAMETER
  2
AcDbBlockFlipParameter
  3
ObjectDBX Classes
 90
1153
280
0
281
0
  0
CLASS
  1
BLOCKALIGNMENTPARAMETER
  2
AcDbBlockAlignmentParameter
  3
ObjectDBX Classes
 90
1153
280
0
281
0
  0
CLASS
  1
BLOCKROTATEACTION
  2
AcDbBlockRotateAction
  3
ObjectDBX Classes
 90
1153
280
0
281
0
  0
CLASS
  1
BLOCKSCALEACTION
  2
AcDbBlockScaleAction
  3
ObjectDBX Classes
 90
1153
280
0
281
0
  0
CLASS
  1
BLOCKARRAYACTION
  2
AcDbBlockArrayAction
  3
ObjectDBX Classes
 90
1153
280
0
281
0
  0
CLASS
  1
BLOCKFLIPACTION
  2
AcDbBlockFlipAction
  3
ObjectDBX Classes
 90
1153
280
0
281
0
  0
CLASS
  1
BLOCKLOOKUPACTION
  2
AcDbBlockLookupAction
  3
ObjectDBX Classes
 90
1153
280
0
281
0
  0
CLASS
  1
BLOCKMOVEACTION
  2
AcDbBlockMoveAction
  3
ObjectDBX Classes
 90
1153
280
0
281
0
  0
CLASS
  1
BLOCKPOLARSTRETCHACTION
  2
AcDbBlockPolarStretchAction
  3
ObjectDBX Classes
 90
1153
280
0
281
0
  0
CLASS
  1
BLOCKSTRETCHACTION
  2
AcDbBlockStretchAction
  3
ObjectDBX Classes
 90
1153
280
0
281
0
  0
CLASS
  1
BLOCKALIGNMENTGRIP
  2
AcDbBlockAlignmentGrip
  3
ObjectDBX Classes
 90
1153
280
0
281
0
  0
CLASS
  1
BLOCKFLIPGRIP
  2
AcDbBlockFlipGrip
  3
ObjectDBX Classes
 90
1153
280
0
281
0
  0
CLASS
  1
ACDB_BLOCKREPRESENTATION_DATA
  2
AcDbBlockRepresentationData
  3
ObjectDBX Classes
 90
1153
280
0
281
0
  0
CLASS
  1
ACDB_DYNAMICBLOCKPURGEPREVENTER_VERSION
  2
AcDbDynamicBlockPurgePreventer
  3
ObjectDBX Classes
 90
1153
280
0
281
0
  0
CLASS
  1
BLOCKLINEARGRIP
  2
AcDbBlockLinearGrip
  3
ObjectDBX Classes
 90
1153
280
0
281
0
  0
CLASS
  1
BLOCKLOOKUPGRIP
  2
AcDbBlockLookupGrip
  3
ObjectDBX Classes
 90
1153
280
0
281
0
  0
CLASS
  1
BLOCKPOLARGRIP
  2
AcDbBlockPolarGrip
  3
ObjectDBX Classes
 90
1153
280
0
281
0
  0
CLASS
  1
BLOCKPROPERTIESTABLEGRIP
  2
AcDbBlockPropertiesTableGrip
  3
ObjectDBX Classes
 90
1153
280
0
281
0
  0
CLASS
  1
BLOCKROTATIONGRIP
  2
AcDbBlockRotationGrip
  3
ObjectDBX Classes
 90
1153
280
0
281
0
  0
CLASS
  1
BLOCKVISIBILITYGRIP
  2
AcDbBlockVisibilityGrip
  3
ObjectDBX Classes
 90
1153
280
0
281
0
  0
CLASS
  1
BLOCKXYGRIP
  2
AcDbBlockXYGrip
  3
ObjectDBX Classes
 90
1153
280
0
281
0
  0
CLASS
  1
BLOCKGRIPLOCATIONCOMPONENT
  2
AcDbBlockGripExpr
  3
ObjectDBX Classes
 90
1153
280
0
281
0
  0
CLASS
  1
ACDB_DYNAMICBLOCKPROXYNODE
  2
AcDbDynamicBlockProxyNode
  3
ObjectDBX Classes
 90
1153
280
0
281
0
  0
CLASS
  1
BLOCKLINEARCONSTRAINTPARAMETER
  2
AcDbBlockLinearConstraintParameter
  3
ObjectDBX Classes
 90
1153
280
0
281
0
  0
CLASS
  1
BLOCKHORIZONTALCONSTRAINTPARAMETER
  2
AcDbBlockHorizontalConstraintParameter
  3
ObjectDBX Classes
 90
1153
280
0
281
0
  0
CLASS
  1
BLOCKVERTICALCONSTRAINTPARAMETER
  2
AcDbBlockVerticalConstraintParameter
  3
ObjectDBX Classes
 90
1153
280
0
281
0
  0
CLASS
  1
BLOCKALIGNEDCONSTRAINTPARAMETER
  2
AcDbBlockAlignedConstraintParameter
  3
ObjectDBX Classes
 90
1153
280
0
281
0
  0
CLASS
  1
BLOCKANGULARCONSTRAINTPARAMETER
  2
AcDbBlockAngularConstraintParameter
  3
ObjectDBX Classes
 90
1153
280
0
281
0
  0
CLASS
  1
BLOCKDIAMETRICCONSTRAINTPARAMETER
  2
AcDbBlockDiametricConstraintParameter
  3
ObjectDBX Classes
 90
1153
280
0
281
0
  0
CLASS
  1
BLOCKRADIALCONSTRAINTPARAMETER
  2
AcDbBlockRadialConstraintParameter
  3
ObjectDBX Classes
 90
1153
280
0
281
0
  0
ENDSEC
  0
SECTION
  2
TABLES
  0
TABLE
  2
VPORT
  5
8
330
0
100
AcDbSymbolTable
 70
1
  0
VPORT
  5
1AA
330
8
100
AcDbSymbolTableRecord
100
AcDbViewportTableRecord
  2
*Active
 70
64
 10
0
 20
0
 11
1
 21
1
 12
2240.1204574582152
 22
1020.5187574359552
 13
0
 23
0
 14
1
 24
1
 15
0
 25
0
 16
0
 26
0
 36
1
 17
0
 27
0
 37
0
 40
1956.9623264589495
 41
0.2645750256777753
 42
50
 43
0
 44
0
 50
0
 51
0
 71
0
 72
20000
 73
20000
 74
1
 75
0
 76
0
 77
0
 78
0
281
0
 65
1
110
0
120
0
130
0
111
1
121
0
131
0
112
0
122
1
132
0
 79
0
146
0
  0
ENDTAB
  0
TABLE
  2
LTYPE
  5
5
100
AcDbSymbolTable
 70
3
  0
LTYPE
  5
16
330
5
100
AcDbSymbolTableRecord
100
AcDbLinetypeTableRecord
  2
Continuous
  3
Solid line
 70
64
 72
65
 73
0
 40
0
  0
LTYPE
  5
14
330
5
100
AcDbSymbolTableRecord
100
AcDbLinetypeTableRecord
  2
ByBlock
  3

 70
64
 72
65
 73
0
 40
0
  0
LTYPE
  5
15
330
5
100
AcDbSymbolTableRecord
100
AcDbLinetypeTableRecord
  2
ByLayer
  3

 70
64
 72
65
 73
0
 40
0
  0
ENDTAB
  0
TABLE
  2
LAYER
  5
2
100
AcDbSymbolTable
 70
6
  0
LAYER
  5
10
330
2
100
AcDbSymbolTableRecord
100
AcDbLayerTableRecord
 70
64
  2
0
 62
7
  6
Continuous
370
-3
390
F
  0
LAYER
  5
27
330
2
100
AcDbSymbolTableRecord
100
AcDbLayerTableRecord
 70
64
  2
1
 62
7
  6
Continuous
370
-3
390
F
  0
LAYER
  5
28
330
2
100
AcDbSymbolTableRecord
100
AcDbLayerTableRecord
 70
64
  2
11
 62
7
  6
Continuous
370
-3
390
F
  0
LAYER
  5
29
330
2
100
AcDbSymbolTableRecord
100
AcDbLayerTableRecord
 70
64
  2
3
 62
7
  6
Continuous
370
-3
390
F
  0
LAYER
  5
2A
330
2
100
AcDbSymbolTableRecord
100
AcDbLayerTableRecord
 70
64
  2
2
 62
7
  6
Continuous
370
-3
390
F
  0
LAYER
  5
2B
330
2
100
AcDbSymbolTableRecord
100
AcDbLayerTableRecord
 70
64
  2
DEFPOINTS
 62
7
  6
Continuous
290
0
370
-3
390
F
  0
ENDTAB
  0
TABLE
  2
STYLE
  5
3
100
AcDbSymbolTable
 70
1
  0
STYLE
  5
11
330
3
100
AcDbSymbolTableRecord
100
AcDbTextStyleTableRecord
  2
Standard
 70
64
 40
0
 41
1
 50
0
 71
0
 42
0.2
  3
txt.shx
  0
ENDTAB
  0
TABLE
  2
VIEW
  5
6
100
AcDbSymbolTable
 70
0
  0
ENDTAB
  0
TABLE
  2
UCS
  5
7
100
AcDbSymbolTable
 70
0
  0
ENDTAB
  0
TABLE
  2
APPID
  5
9
330
0
100
AcDbSymbolTable
 70
2
  0
APPID
  5
12
330
0
100
AcDbSymbolTableRecord
100
AcDbRegAppTableRecord
  2
ACAD
 70
64
  0
APPID
  5
1CD
330
0
100
AcDbSymbolTableRecord
100
AcDbRegAppTableRecord
  2
ACAD_MLEADERVER
 70
64
  0
ENDTAB
  0
TABLE
  2
DIMSTYLE
  5
A
330
0
100
AcDbSymbolTable
 70
1
100
AcDbDimStyleTable
 71
0
  0
DIMSTYLE
105
1A9
330
A
100
AcDbSymbolTableRecord
100
AcDbDimStyleTableRecord
  2
Standard
 70
64
  3

  4

 40
1
 41
0.18
 42
0.0625
 43
0.38
 44
0.18
 45
0
 46
0
 47
0
 48
0
140
0.18
141
0.09
142
0
143
1
144
1
145
0
146
1
147
0.09
148
0
 71
0
 72
0
 73
1
 74
1
 75
0
 76
0
 77
0
 78
0
 79
0
170
0
171
2
172
0
173
0
174
0
175
0
179
0
271
4
272
4
273
2
274
0
275
0
276
0
277
2
278
46
279
0
280
0
281
0
282
0
283
1
284
0
285
0
286
0
288
0
289
0
340
11
371
-2
372
-2
  0
ENDTAB
  0
TABLE
  2
BLOCK_RECORD
  5
1
330
0
100
AcDbSymbolTable
 70
3
  0
BLOCK_RECORD
  5
1F
330
1
100
AcDbSymbolTableRecord
100
AcDbBlockTableRecord
  2
*Model_Space
340
22
  0
BLOCK_RECORD
  5
1A6
330
1
100
AcDbSymbolTableRecord
100
AcDbBlockTableRecord
  2
*Paper_Space
340
1E
  0
ENDTAB
  0
ENDSEC
  0
SECTION
  2
BLOCKS
  0
BLOCK
  5
20
330
1F
100
AcDbEntity
  8
0
100
AcDbBlockBegin
  2
*Model_Space
 70
64
 10
0
 20
0
 30
0
  3
*Model_Space
  0
ENDBLK
  5
21
330
1F
100
AcDbEntity
  8
0
100
AcDbBlockEnd
  0
BLOCK
  5
1A7
330
1A6
100
AcDbEntity
  8
0
 67
1
100
AcDbBlockBegin
  2
*Paper_Space
 70
64
 10
0
 20
0
 30
0
  3
*Paper_Space
  0
ENDBLK
  5
1A8
330
1A6
100
AcDbEntity
  8
0
100
AcDbBlockEnd
  0
ENDSEC
  0
SECTION
  2
ENTITIES
  0
LWPOLYLINE
  5
2C
330
1F
100
AcDbEntity
  8
1
 62
7
100
AcDbPolyline
 90
92
 70
1
 10
2020.2919421000001
 20
1922.5314911000003
 10
2028.9899406237123
 20
1834.319516002344
 10
2030.9746274752138
 20
1826.7808349720706
 10
2031.9192251963136
 20
1819.0427215687503
 10
2031.806300620508
 20
1811.2479980580081
 10
2030.6379422945497
 20
1803.5405166737307
 10
2029.8575720591066
 20
1799.5870407215823
 10
2028.5867032808778
 20
1795.7629593006839
 10
2026.8454704088686
 20
1792.1288116566409
 10
2024.661468009424
 20
1788.742237865137
 10
2022.0693025393007
 20
1785.6568725697268
 10
2019.1100535196779
 20
1782.9215820423831
 10
2015.8306107325075
 20
1780.5797775379885
 10
2008.1954861169233
 20
1776.3151600354438
 10
1996.4401473626183
 20
1768.5249116516784
 10
1989.1219410700319
 20
1762.5845153919925
 10
1984.9074921411989
 20
1756.6237075916995
 10
1981.543940047693
 20
1750.1445205799807
 10
1981.4838537973878
 20
1647.6735885731448
 10
1982.27240417428
 20
1644.4567688099612
 10
1983.5826573175905
 20
1641.4148910633792
 10
1985.3784546656129
 20
1638.6319549671878
 10
1987.6102194590089
 20
1636.1847122303714
 10
1990.2163634104249
 20
1634.1407592884768
 10
1996.2188467783449
 20
1631.400814830469
 10
2002.5908455652711
 20
1629.6723373524417
 10
2012.4259886545656
 20
1628.5805709950198
 10
2019.0219411653993
 20
1628.8695343128909
 10
2033.8861188692567
 20
1630.0469024769534
 10
2038.8470184059838
 20
1629.9658832321645
 10
2048.7759414715288
 20
1629.2575271717776
 10
2053.3680040044305
 20
1627.3349197499026
 10
2057.7031234865603
 20
1624.8874481312503
 10
2063.5945275825975
 20
1620.3077133290042
 10
2065.3679415983675
 20
1618.5595138661135
 10
2069.0931532186983
 20
1610.4218872181643
 10
2074.168942908716
 20
1603.0507095448245
 10
2080.4424986643312
 20
1596.6678436390628
 10
2087.724941710901
 20
1591.465512096094
 10
2095.1779780191896
 20
1589.9039276234378
 10
2102.7611717981813
 20
1589.2100341908206
 10
2110.3738484186647
 20
1589.3930252186526
 10
2117.9149422449586
 20
1590.4505355946292
 10
2169.9587664408205
 20
1595.3781707875003
 10
2222.0899424356935
 20
1599.2745025746096
 10
2371.602939109277
 20
1599.2745025746096
 10
2396.0564564335291
 20
1598.2610651517346
 10
2410.61737392373
 20
1596.8227966419925
 10
2425.043582841115
 20
1594.3787003519385
 10
2454.491504172754
 20
1587.8991134754885
 10
2460.1698717875
 20
1587.6875122181643
 10
2465.82001064248
 20
1588.2910354725589
 10
2471.3255724710934
 20
1589.6972854725589
 10
2476.5730700296876
 20
1591.8772323719729
 10
2481.454394797754
 20
1594.7860153309573
 10
2485.8690295023434
 20
1598.3636673084964
 10
2489.7259554666989
 20
1602.5365265003909
 10
2498.4359392923825
 20
1623.0835159413089
 10
2498.435939292382
 20
1928.3325012318362
 10
2498.9999422831047
 20
1937.7991302601565
 10
2497.8060183329094
 20
1947.2070129505862
 10
2494.8953280252922
 20
1956.2326629750003
 10
2490.3679308695305
 20
1964.5654876820315
 10
2480.8539233011711
 20
1972.0033844105471
 10
2470.2643999857419
 20
1977.8086670033206
 10
2458.8769182962883
 20
1981.8291290394534
 10
2446.9899401468747
 20
1983.9594848744143
 10
2433.3783001366005
 20
1986.2963176927285
 10
2396.9535201900871
 20
1991.5451605155777
 10
2364.8799357218254
 20
1994.5765503041018
 10
2162.1478209299553
 20
1998.99992066543
 10
2156.2213644785393
 20
1997.9611786000003
 10
2150.4607233805168
 20
1996.2242706410159
 10
2144.9478182596672
 20
1993.8139160267581
 10
2142.3089442057121
 20
1992.3665435902346
 10
2133.1700405878532
 20
1983.2667358509768
 10
2120.4920038980949
 20
1968.4343536488284
 10
2115.5020603937614
 20
1964.0855224720706
 10
2110.0254902643669
 20
1960.368099986719
 10
2104.1417393488396
 20
1957.3360260121096
 10
2097.936147193383
 20
1955.0333221546878
 10
2091.4987335009087
 20
1953.493328868555
 10
2084.92287013955
 20
1952.7384002796878
 10
2074.0519720626116
 20
1952.7080478427556
 10
2057.1350285740014
 20
1951.5267326195876
 10
2039.8356506628511
 20
1948.1874664417971
 10
2035.3584394258974
 20
1946.2366302601565
 10
2031.2748226923463
 20
1943.5579498402346
 10
2027.702022532892
 20
1940.2282531849612
 10
2024.7425946993349
 20
1936.3432891957034
 10
2022.481485347223
 20
1932.0144470326175
 10
2020.9836015505311
 20
1927.3660858265628
  0
CIRCLE
  5
2D
330
1F
100
AcDbEntity
  8
11
 62
7
100
AcDbCircle
 10
2452.2799334330075
 20
1665.2655227772464
 30
0
 40
14.50000047683716
  0
CIRCLE
  5
2E
330
1F
100
AcDbEntity
  8
11
 62
7
100
AcDbCircle
 10
2454.330943564843
 20
1904.11954957168
 30
0
 40
14.50000047683716
  0
POINT
  5
2F
330
1F
100
AcDbEntity
  8
3
 62
7
100
AcDbPoint
 10
2030.1104507250307
 20
1830.5839355580081
 30
0
 50
0
  0
POINT
  5
30
330
1F
100
AcDbEntity
  8
3
 62
7
100
AcDbPoint
 10
2030.9746274752138
 20
1826.7808349720706
 30
0
 50
0
  0
POINT
  5
31
330
1F
100
AcDbEntity
  8
3
 62
7
100
AcDbPoint
 10
2031.5784821314332
 20
1822.9278381458987
 30
0
 50
0
  0
POINT
  5
32
330
1F
100
AcDbEntity
  8
3
 62
7
100
AcDbPoint
 10
2031.9192251963136
 20
1819.0427215687503
 30
0
 50
0
  0
POINT
  5
33
330
1F
100
AcDbEntity
  8
3
 62
7
100
AcDbPoint
 10
2031.9952831072328
 20
1815.1434524647464
 30
0
 50
0
  0
POINT
  5
34
330
1F
100
AcDbEntity
  8
3
 62
7
100
AcDbPoint
 10
2031.806300620508
 20
1811.2479980580081
 30
0
 50
0
  0
POINT
  5
35
330
1F
100
AcDbEntity
  8
3
 62
7
100
AcDbPoint
 10
2031.3531575006959
 20
1807.3744018666018
 30
0
 50
0
  0
POINT
  5
36
330
1F
100
AcDbEntity
  8
3
 62
7
100
AcDbPoint
 10
2029.8575720591066
 20
1799.5870407215823
 30
0
 50
0
  0
POINT
  5
37
330
1F
100
AcDbEntity
  8
3
 62
7
100
AcDbPoint
 10
2028.5867032808778
 20
1795.7629593006839
 30
0
 50
0
  0
POINT
  5
38
330
1F
100
AcDbEntity
  8
3
 62
7
100
AcDbPoint
 10
2026.8454704088686
 20
1792.1288116566409
 30
0
 50
0
  0
POINT
  5
39
330
1F
100
AcDbEntity
  8
3
 62
7
100
AcDbPoint
 10
2024.661468009424
 20
1788.742237865137
 30
0
 50
0
  0
POINT
  5
3A
330
1F
100
AcDbEntity
  8
3
 62
7
100
AcDbPoint
 10
2022.0693025393007
 20
1785.6568725697268
 30
0
 50
0
  0
POINT
  5
3B
330
1F
100
AcDbEntity
  8
3
 62
7
100
AcDbPoint
 10
2019.1100535196779
 20
1782.9215820423831
 30
0
 50
0
  0
POINT
  5
3C
330
1F
100
AcDbEntity
  8
3
 62
7
100
AcDbPoint
 10
2015.8306107325075
 20
1780.5797775379885
 30
0
 50
0
  0
POINT
  5
3D
330
1F
100
AcDbEntity
  8
3
 62
7
100
AcDbPoint
 10
2000.2303776545045
 20
1771.3062866322268
 30
0
 50
0
  0
POINT
  5
3E
330
1F
100
AcDbEntity
  8
3
 62
7
100
AcDbPoint
 10
1984.9074921411989
 20
1756.6237075916995
 30
0
 50
0
  0
POINT
  5
3F
330
1F
100
AcDbEntity
  8
3
 62
7
100
AcDbPoint
 10
1981.2387785715578
 20
1650.9765442005862
 30
0
 50
0
  0
POINT
  5
40
330
1F
100
AcDbEntity
  8
3
 62
7
100
AcDbPoint
 10
1981.4838537973878
 20
1647.6735885731448
 30
0
 50
0
  0
POINT
  5
41
330
1F
100
AcDbEntity
  8
3
 62
7
100
AcDbPoint
 10
1982.27240417428
 20
1644.4567688099612
 30
0
 50
0
  0
POINT
  5
42
330
1F
100
AcDbEntity
  8
3
 62
7
100
AcDbPoint
 10
1983.5826573175905
 20
1641.4148910633792
 30
0
 50
0
  0
POINT
  5
43
330
1F
100
AcDbEntity
  8
3
 62
7
100
AcDbPoint
 10
1985.3784546656129
 20
1638.6319549671878
 30
0
 50
0
  0
POINT
  5
44
330
1F
100
AcDbEntity
  8
3
 62
7
100
AcDbPoint
 10
1987.6102194590089
 20
1636.1847122303714
 30
0
 50
0
  0
POINT
  5
45
330
1F
100
AcDbEntity
  8
3
 62
7
100
AcDbPoint
 10
1990.2163634104249
 20
1634.1407592884768
 30
0
 50
0
  0
POINT
  5
46
330
1F
100
AcDbEntity
  8
3
 62
7
100
AcDbPoint
 10
1996.2188467783449
 20
1631.400814830469
 30
0
 50
0
  0
POINT
  5
47
330
1F
100
AcDbEntity
  8
3
 62
7
100
AcDbPoint
 10
1999.3781647486207
 20
1630.4382141224612
 30
0
 50
0
  0
POINT
  5
48
330
1F
100
AcDbEntity
  8
3
 62
7
100
AcDbPoint
 10
2002.5908455652711
 20
1629.6723373524417
 30
0
 50
0
  0
POINT
  5
49
330
1F
100
AcDbEntity
  8
3
 62
7
100
AcDbPoint
 10
2009.1272148890016
 20
1628.7417419544925
 30
0
 50
0
  0
POINT
  5
4A
330
1F
100
AcDbEntity
  8
3
 62
7
100
AcDbPoint
 10
2012.4259886545656
 20
1628.5805709950198
 30
0
 50
0
  0
POINT
  5
4B
330
1F
100
AcDbEntity
  8
3
 62
7
100
AcDbPoint
 10
2015.7284292978761
 20
1628.6232193104495
 30
0
 50
0
  0
POINT
  5
4C
330
1F
100
AcDbEntity
  8
3
 62
7
100
AcDbPoint
 10
2033.8861188692567
 20
1630.0469024769534
 30
0
 50
0
  0
POINT
  5
4D
330
1F
100
AcDbEntity
  8
3
 62
7
100
AcDbPoint
 10
2051.100208501291
 20
1628.3636673084964
 30
0
 50
0
  0
POINT
  5
4E
330
1F
100
AcDbEntity
  8
3
 62
7
100
AcDbPoint
 10
2053.3680040044305
 20
1627.3349197499026
 30
0
 50
0
  0
POINT
  5
4F
330
1F
100
AcDbEntity
  8
3
 62
7
100
AcDbPoint
 10
2057.7031234865603
 20
1624.8874481312503
 30
0
 50
0
  0
POINT
  5
50
330
1F
100
AcDbEntity
  8
3
 62
7
100
AcDbPoint
 10
2061.721560995054
 20
1621.9488342396487
 30
0
 50
0
  0
POINT
  5
51
330
1F
100
AcDbEntity
  8
3
 62
7
100
AcDbPoint
 10
2063.5945275825975
 20
1620.3077133290042
 30
0
 50
0
  0
POINT
  5
52
330
1F
100
AcDbEntity
  8
3
 62
7
100
AcDbPoint
 10
2067.0537165207384
 20
1614.4097717396487
 30
0
 50
0
  0
POINT
  5
53
330
1F
100
AcDbEntity
  8
3
 62
7
100
AcDbPoint
 10
2069.0931532186983
 20
1610.4218872181643
 30
0
 50
0
  0
POINT
  5
54
330
1F
100
AcDbEntity
  8
3
 62
7
100
AcDbPoint
 10
2071.4708719057558
 20
1606.6259964100589
 30
0
 50
0
  0
POINT
  5
55
330
1F
100
AcDbEntity
  8
3
 62
7
100
AcDbPoint
 10
2074.168942908716
 20
1603.0507095448245
 30
0
 50
0
  0
POINT
  5
56
330
1F
100
AcDbEntity
  8
3
 62
7
100
AcDbPoint
 10
2077.1670207781312
 20
1599.7229583851565
 30
0
 50
0
  0
POINT
  5
57
330
1F
100
AcDbEntity
  8
3
 62
7
100
AcDbPoint
 10
2080.4424986643312
 20
1596.6678436390628
 30
0
 50
0
  0
POINT
  5
58
330
1F
100
AcDbEntity
  8
3
 62
7
100
AcDbPoint
 10
2083.9706740183351
 20
1593.9084442250003
 30
0
 50
0
  0
POINT
  5
59
330
1F
100
AcDbEntity
  8
3
 62
7
100
AcDbPoint
 10
2091.4289483828065
 20
1590.5772979847659
 30
0
 50
0
  0
POINT
  5
5A
330
1F
100
AcDbEntity
  8
3
 62
7
100
AcDbPoint
 10
2095.1779780191896
 20
1589.9039276234378
 30
0
 50
0
  0
POINT
  5
5B
330
1F
100
AcDbEntity
  8
3
 62
7
100
AcDbPoint
 10
2098.9595732492921
 20
1589.4476516834964
 30
0
 50
0
  0
POINT
  5
5C
330
1F
100
AcDbEntity
  8
3
 62
7
100
AcDbPoint
 10
2102.7611717981813
 20
1589.2100341908206
 30
0
 50
0
  0
POINT
  5
5D
330
1F
100
AcDbEntity
  8
3
 62
7
100
AcDbPoint
 10
2106.5701517862794
 20
1589.1917999378909
 30
0
 50
0
  0
POINT
  5
5E
330
1F
100
AcDbEntity
  8
3
 62
7
100
AcDbPoint
 10
2110.3738484186647
 20
1589.3930252186526
 30
0
 50
0
  0
POINT
  5
5F
330
1F
100
AcDbEntity
  8
3
 62
7
100
AcDbPoint
 10
2114.1596398157594
 20
1589.8130615345706
 30
0
 50
0
  0
POINT
  5
60
330
1F
100
AcDbEntity
  8
3
 62
7
100
AcDbPoint
 10
2169.9587664408205
 20
1595.3781707875003
 30
0
 50
0
  0
POINT
  5
61
330
1F
100
AcDbEntity
  8
3
 62
7
100
AcDbPoint
 10
2391.1785829191804
 20
1598.5595456427732
 30
0
 50
0
  0
POINT
  5
62
330
1F
100
AcDbEntity
  8
3
 62
7
100
AcDbPoint
 10
2410.61737392373
 20
1596.8227966419925
 30
0
 50
0
  0
POINT
  5
63
330
1F
100
AcDbEntity
  8
3
 62
7
100
AcDbPoint
 10
2425.043582841115
 20
1594.3787003519385
 30
0
 50
0
  0
POINT
  5
64
330
1F
100
AcDbEntity
  8
3
 62
7
100
AcDbPoint
 10
2454.491504172754
 20
1587.8991134754885
 30
0
 50
0
  0
POINT
  5
65
330
1F
100
AcDbEntity
  8
3
 62
7
100
AcDbPoint
 10
2460.1698717875
 20
1587.6875122181643
 30
0
 50
0
  0
POINT
  5
66
330
1F
100
AcDbEntity
  8
3
 62
7
100
AcDbPoint
 10
2465.82001064248
 20
1588.2910354725589
 30
0
 50
0
  0
POINT
  5
67
330
1F
100
AcDbEntity
  8
3
 62
7
100
AcDbPoint
 10
2471.3255724710934
 20
1589.6972854725589
 30
0
 50
0
  0
POINT
  5
68
330
1F
100
AcDbEntity
  8
3
 62
7
100
AcDbPoint
 10
2476.5730700296876
 20
1591.8772323719729
 30
0
 50
0
  0
POINT
  5
69
330
1F
100
AcDbEntity
  8
3
 62
7
100
AcDbPoint
 10
2481.454394797754
 20
1594.7860153309573
 30
0
 50
0
  0
POINT
  5
6A
330
1F
100
AcDbEntity
  8
3
 62
7
100
AcDbPoint
 10
2485.8690295023434
 20
1598.3636673084964
 30
0
 50
0
  0
POINT
  5
6B
330
1F
100
AcDbEntity
  8
3
 62
7
100
AcDbPoint
 10
2498.937877158593
 20
1933.0527313343753
 30
0
 50
0
  0
POINT
  5
6C
330
1F
100
AcDbEntity
  8
3
 62
7
100
AcDbPoint
 10
2498.9999422831047
 20
1937.7991302601565
 30
0
 50
0
  0
POINT
  5
6D
330
1F
100
AcDbEntity
  8
3
 62
7
100
AcDbPoint
 10
2498.6215624613274
 20
1942.5308044544925
 30
0
 50
0
  0
POINT
  5
6E
330
1F
100
AcDbEntity
  8
3
 62
7
100
AcDbPoint
 10
2497.8060183329094
 20
1947.2070129505862
 30
0
 50
0
  0
POINT
  5
6F
330
1F
100
AcDbEntity
  8
3
 62
7
100
AcDbPoint
 10
2496.5603670877922
 20
1951.7874725453128
 30
0
 50
0
  0
POINT
  5
70
330
1F
100
AcDbEntity
  8
3
 62
7
100
AcDbPoint
 10
2494.8953280252922
 20
1956.2326629750003
 30
0
 50
0
  0
POINT
  5
71
330
1F
100
AcDbEntity
  8
3
 62
7
100
AcDbPoint
 10
2492.8252444071286
 20
1960.5042846791018
 30
0
 50
0
  0
POINT
  5
72
330
1F
100
AcDbEntity
  8
3
 62
7
100
AcDbPoint
 10
2485.7616839212883
 20
1968.4773071400393
 30
0
 50
0
  0
POINT
  5
73
330
1F
100
AcDbEntity
  8
3
 62
7
100
AcDbPoint
 10
2480.8539233011711
 20
1972.0033844105471
 30
0
 50
0
  0
POINT
  5
74
330
1F
100
AcDbEntity
  8
3
 62
7
100
AcDbPoint
 10
2475.6768450541008
 20
1975.1206787220706
 30
0
 50
0
  0
POINT
  5
75
330
1F
100
AcDbEntity
  8
3
 62
7
100
AcDbPoint
 10
2470.2643999857419
 20
1977.8086670033206
 30
0
 50
0
  0
POINT
  5
76
330
1F
100
AcDbEntity
  8
3
 62
7
100
AcDbPoint
 10
2464.6521410746086
 20
1980.04972535293
 30
0
 50
0
  0
POINT
  5
77
330
1F
100
AcDbEntity
  8
3
 62
7
100
AcDbPoint
 10
2458.8769182962883
 20
1981.8291290394534
 30
0
 50
0
  0
POINT
  5
78
330
1F
100
AcDbEntity
  8
3
 62
7
100
AcDbPoint
 10
2452.9766115946286
 20
1983.1352813832034
 30
0
 50
0
  0
POINT
  5
79
330
1F
100
AcDbEntity
  8
3
 62
7
100
AcDbPoint
 10
2406.087306479882
 20
1990.4463012806643
 30
0
 50
0
  0
POINT
  5
7A
330
1F
100
AcDbEntity
  8
3
 62
7
100
AcDbPoint
 10
2401.5229212505556
 20
1991.0151265536847
 30
0
 50
0
  0
POINT
  5
7B
330
1F
100
AcDbEntity
  8
3
 62
7
100
AcDbPoint
 10
2162.1478209299553
 20
1998.99992066543
 30
0
 50
0
  0
POINT
  5
7C
330
1F
100
AcDbEntity
  8
3
 62
7
100
AcDbPoint
 10
2159.1690954966057
 20
1998.569012462305
 30
0
 50
0
  0
POINT
  5
7D
330
1F
100
AcDbEntity
  8
3
 62
7
100
AcDbPoint
 10
2156.2213644785393
 20
1997.9611786000003
 30
0
 50
0
  0
POINT
  5
7E
330
1F
100
AcDbEntity
  8
3
 62
7
100
AcDbPoint
 10
2153.3151278299797
 20
1997.17863160293
 30
0
 50
0
  0
POINT
  5
7F
330
1F
100
AcDbEntity
  8
3
 62
7
100
AcDbPoint
 10
2150.4607233805168
 20
1996.2242706410159
 30
0
 50
0
  0
POINT
  5
80
330
1F
100
AcDbEntity
  8
3
 62
7
100
AcDbPoint
 10
2147.6683077616203
 20
1995.1013000599612
 30
0
 50
0
  0
POINT
  5
81
330
1F
100
AcDbEntity
  8
3
 62
7
100
AcDbPoint
 10
2144.9478182596672
 20
1993.8139160267581
 30
0
 50
0
  0
POINT
  5
82
330
1F
100
AcDbEntity
  8
3
 62
7
100
AcDbPoint
 10
2133.1700405878532
 20
1983.2667358509768
 30
0
 50
0
  0
POINT
  5
83
330
1F
100
AcDbEntity
  8
3
 62
7
100
AcDbPoint
 10
2120.4920038980949
 20
1968.4343536488284
 30
0
 50
0
  0
POINT
  5
84
330
1F
100
AcDbEntity
  8
3
 62
7
100
AcDbPoint
 10
2115.5020603937614
 20
1964.0855224720706
 30
0
 50
0
  0
POINT
  5
85
330
1F
100
AcDbEntity
  8
3
 62
7
100
AcDbPoint
 10
2110.0254902643669
 20
1960.368099986719
 30
0
 50
0
  0
POINT
  5
86
330
1F
100
AcDbEntity
  8
3
 62
7
100
AcDbPoint
 10
2104.1417393488396
 20
1957.3360260121096
 30
0
 50
0
  0
POINT
  5
87
330
1F
100
AcDbEntity
  8
3
 62
7
100
AcDbPoint
 10
2097.936147193383
 20
1955.0333221546878
 30
0
 50
0
  0
POINT
  5
88
330
1F
100
AcDbEntity
  8
3
 62
7
100
AcDbPoint
 10
2091.4987335009087
 20
1953.493328868555
 30
0
 50
0
  0
POINT
  5
89
330
1F
100
AcDbEntity
  8
3
 62
7
100
AcDbPoint
 10
2084.92287013955
 20
1952.7384002796878
 30
0
 50
0
  0
POINT
  5
8A
330
1F
100
AcDbEntity
  8
3
 62
7
100
AcDbPoint
 10
2061.3423014087189
 20
1952.0383270375003
 30
0
 50
0
  0
POINT
  5
8B
330
1F
100
AcDbEntity
  8
3
 62
7
100
AcDbPoint
 10
2039.8356506628511
 20
1948.1874664417971
 30
0
 50
0
  0
POINT
  5
8C
330
1F
100
AcDbEntity
  8
3
 62
7
100
AcDbPoint
 10
2035.3584394258974
 20
1946.2366302601565
 30
0
 50
0
  0
POINT
  5
8D
330
1F
100
AcDbEntity
  8
3
 62
7
100
AcDbPoint
 10
2031.2748226923463
 20
1943.5579498402346
 30
0
 50
0
  0
POINT
  5
8E
330
1F
100
AcDbEntity
  8
3
 62
7
100
AcDbPoint
 10
2027.702022532892
 20
1940.2282531849612
 30
0
 50
0
  0
POINT
  5
8F
330
1F
100
AcDbEntity
  8
3
 62
7
100
AcDbPoint
 10
2024.7425946993349
 20
1936.3432891957034
 30
0
 50
0
  0
POINT
  5
90
330
1F
100
AcDbEntity
  8
3
 62
7
100
AcDbPoint
 10
2022.481485347223
 20
1932.0144470326175
 30
0
 50
0
  0
POINT
  5
91
330
1F
100
AcDbEntity
  8
3
 62
7
100
AcDbPoint
 10
2020.9836015505311
 20
1927.3660858265628
 30
0
 50
0
  0
POINT
  5
92
330
1F
100
AcDbEntity
  8
2
 62
7
100
AcDbPoint
 10
2020.2919421000001
 20
1922.5314911000003
 30
0
 50
0
  0
LWPOLYLINE
  5
93
330
1F
100
AcDbEntity
  8
1
 62
7
100
AcDbPolyline
 90
96
 70
1
 10
2000.6747011000004
 20
744.090829297916
 10
2002.9981862890852
 20
733.62507407445037
 10
2004.348178272852
 20
730.302873060123
 10
2007.8047899061528
 20
724.03471510113854
 10
2012.2293046766606
 20
718.40792219342381
 10
2017.5053361708012
 20
713.5704664439121
 10
2026.70465338113
 20
708.05225147696262
 10
2030.0379136854497
 20
706.74868147076768
 10
2036.9647172743169
 20
704.94383375348241
 10
2046.6079667860356
 20
703.86812727154881
 10
2056.3101533705076
 20
703.73522321881444
 10
2065.9792665296877
 20
704.5463422984044
 10
2075.5237153822268
 20
706.29381696881444
 10
2099.2859987074221
 20
713.38659803570908
 10
2123.3047822767576
 20
719.5553068369785
 10
2147.544131641992
 20
724.79078809918553
 10
2171.967730885156
 20
729.085183545963
 10
2196.5391115003904
 20
732.4320844859044
 10
2221.2214998060545
 20
734.82645551861913
 10
2245.9780458265623
 20
736.264787122623
 10
2270.771670704492
 20
736.7448286265294
 10
2319.4533876234373
 20
736.62863294781835
 10
2386.0574678236326
 20
738.4913877695958
 10
2403.8884309583982
 20
740.546479627506
 10
2421.500430470117
 20
744.00824110211533
 10
2438.7826875501951
 20
748.854813978092
 10
2448.5066560560549
 20
752.9316190928381
 10
2457.702823048242
 20
758.0897001475256
 10
2466.2514833265632
 20
764.2618421763342
 10
2474.0413240248049
 20
771.36770765484982
 10
2480.9709504896491
 20
779.314790174381
 10
2486.950030689844
 20
787.99959699811154
 10
2491.9007448011716
 20
797.30902235211545
 10
2495.7587007337888
 20
807.12183515729123
 10
2498.0009684673787
 20
829.81142705727086
 10
2498.9999727064451
 20
847.98140089215451
 10
2498.973340186169
 20
861.6267383574675
 10
2496.823077564844
 20
901.76226179303342
 10
2495.4093507582029
 20
908.03461591901
 10
2493.344684010156
 20
914.12386457623654
 10
2488.991885548242
 20
919.41248457135373
 10
2484.0256837660158
 20
924.12981550397092
 10
2473.5622743421877
 20
931.88616316022092
 10
2463.8707307630857
 20
940.5878690928381
 10
2460.5403474623049
 20
947.67458479108029
 10
2457.8583101087888
 20
955.0312284678381
 10
2455.846286183008
 20
962.598596021549
 10
2454.520450001367
 20
970.31580488385373
 10
2453.8914827162107
 20
978.12075178326779
 10
2453.9643434339841
 20
985.95072309674435
 10
2454.73849809707
 20
993.74262373151
 10
2456.2076906019529
 20
1001.4338163584631
 10
2457.4445331782858
 20
1011.059031216049
 10
2458.9909174474569
 20
1030.3616281357117
 10
2458.9267305189451
 20
1049.754815503971
 10
2458.2072786146491
 20
1056.7344907969398
 10
2456.5552095228518
 20
1063.5539488047523
 10
2454.0005067640632
 20
1070.0889829844398
 10
2450.5896333509768
 20
1076.220879957096
 10
2446.3846925550779
 20
1081.8379453867835
 10
2441.46213090957
 20
1086.8381742686195
 10
2435.9114412123045
 20
1091.1304716319007
 10
2429.83371294082
 20
1094.6368650645179
 10
2308.2937196546873
 20
1163.3428434580726
 10
2298.1925538832029
 20
1163.434014722721
 10
2288.1202272230466
 20
1162.6663450449867
 10
2278.1495240980466
 20
1161.045327588932
 10
2268.3526948744138
 20
1158.5828642100257
 10
2256.5613893324216
 20
1152.4649290293617
 10
2244.2642549330076
 20
1147.4407438486976
 10
2231.5623811537107
 20
1143.5515073985023
 10
2218.5603669935545
 20
1140.829263135807
 10
2205.365176563867
 20
1139.2963651865882
 10
2192.0852998548826
 20
1138.9655546397132
 10
2178.8301423841795
 20
1139.8394254893226
 10
2161.4747497158505
 20
1142.4992125362021
 10
2136.0099297660718
 20
1145.2956222952191
 10
2106.40109575332
 20
1146.2649778574867
 10
2098.2027772718748
 20
1145.2056364268226
 10
2090.2379182630857
 20
1142.993340894596
 10
2082.6677278333982
 20
1139.67279951276
 10
2076.1789659315427
 20
1132.1090940684242
 10
2071.3054231458982
 20
1123.4164671152992
 10
2068.2376817518552
 20
1113.9348081797523
 10
2067.0957139784177
 20
1104.034829542057
 10
2053.9126924330076
 20
959.914803907291
 10
2048.9769700819334
 20
955.41964094342381
 10
2043.5306886488283
 20
951.55886213483006
 10
2033.2849828379728
 20
951.39506249215094
 10
2029.9180177503908
 20
950.74808637799413
 10
2023.4063676649416
 20
948.64550153912694
 10
2017.3397401625002
 20
945.48037092389256
 10
2011.890101795801
 20
941.34226362408788
 10
2005.191171170678
 20
933.57882643736082
 10
2003.4378007704104
 20
930.64081709088475
 10
2000.6747011000004
 20
924.38082258404881
  0
POINT
  5
94
330
1F
100
AcDbEntity
  8
3
 62
7
100
AcDbPoint
 10
2001.9504503065434
 20
737.047372266666
 30
0
 50
0
  0
POINT
  5
95
330
1F
100
AcDbEntity
  8
3
 62
7
100
AcDbPoint
 10
2004.348178272852
 20
730.302873060123
 30
0
 50
0
  0
POINT
  5
96
330
1F
100
AcDbEntity
  8
3
 62
7
100
AcDbPoint
 10
2007.8047899061528
 20
724.03471510113854
 30
0
 50
0
  0
POINT
  5
97
330
1F
100
AcDbEntity
  8
3
 62
7
100
AcDbPoint
 10
2012.2293046766606
 20
718.40792219342381
 30
0
 50
0
  0
POINT
  5
98
330
1F
100
AcDbEntity
  8
3
 62
7
100
AcDbPoint
 10
2017.5053361708012
 20
713.5704664439121
 30
0
 50
0
  0
POINT
  5
99
330
1F
100
AcDbEntity
  8
3
 62
7
100
AcDbPoint
 10
2023.4940675550786
 20
709.64964430035741
 30
0
 50
0
  0
POINT
  5
9A
330
1F
100
AcDbEntity
  8
3
 62
7
100
AcDbPoint
 10
2030.0379136854497
 20
706.74868147076768
 30
0
 50
0
  0
POINT
  5
9B
330
1F
100
AcDbEntity
  8
3
 62
7
100
AcDbPoint
 10
2041.7732576185551
 20
704.288583204166
 30
0
 50
0
  0
POINT
  5
9C
330
1F
100
AcDbEntity
  8
3
 62
7
100
AcDbPoint
 10
2046.6079667860356
 20
703.86812727154881
 30
0
 50
0
  0
POINT
  5
9D
330
1F
100
AcDbEntity
  8
3
 62
7
100
AcDbPoint
 10
2051.4574388319334
 20
703.68353407086522
 30
0
 50
0
  0
POINT
  5
9E
330
1F
100
AcDbEntity
  8
3
 62
7
100
AcDbPoint
 10
2056.3101533705076
 20
703.73522321881444
 30
0
 50
0
  0
POINT
  5
9F
330
1F
100
AcDbEntity
  8
3
 62
7
100
AcDbPoint
 10
2061.1545900160154
 20
704.02304212750585
 30
0
 50
0
  0
POINT
  5
A0
330
1F
100
AcDbEntity
  8
3
 62
7
100
AcDbPoint
 10
2065.9792665296877
 20
704.5463422984044
 30
0
 50
0
  0
POINT
  5
A1
330
1F
100
AcDbEntity
  8
3
 62
7
100
AcDbPoint
 10
2070.7727769666994
 20
705.3038648814121
 30
0
 50
0
  0
POINT
  5
A2
330
1F
100
AcDbEntity
  8
3
 62
7
100
AcDbPoint
 10
2099.2859987074221
 20
713.38659803570908
 30
0
 50
0
  0
POINT
  5
A3
330
1F
100
AcDbEntity
  8
3
 62
7
100
AcDbPoint
 10
2123.3047822767576
 20
719.5553068369785
 30
0
 50
0
  0
POINT
  5
A4
330
1F
100
AcDbEntity
  8
3
 62
7
100
AcDbPoint
 10
2147.544131641992
 20
724.79078809918553
 30
0
 50
0
  0
POINT
  5
A5
330
1F
100
AcDbEntity
  8
3
 62
7
100
AcDbPoint
 10
2171.967730885156
 20
729.085183545963
 30
0
 50
0
  0
POINT
  5
A6
330
1F
100
AcDbEntity
  8
3
 62
7
100
AcDbPoint
 10
2196.5391115003904
 20
732.4320844859044
 30
0
 50
0
  0
POINT
  5
A7
330
1F
100
AcDbEntity
  8
3
 62
7
100
AcDbPoint
 10
2221.2214998060545
 20
734.82645551861913
 30
0
 50
0
  0
POINT
  5
A8
330
1F
100
AcDbEntity
  8
3
 62
7
100
AcDbPoint
 10
2245.9780458265623
 20
736.264787122623
 30
0
 50
0
  0
POINT
  5
A9
330
1F
100
AcDbEntity
  8
3
 62
7
100
AcDbPoint
 10
2319.4533876234373
 20
736.62863294781835
 30
0
 50
0
  0
POINT
  5
AA
330
1F
100
AcDbEntity
  8
3
 62
7
100
AcDbPoint
 10
2377.094912891992
 20
737.9957060069006
 30
0
 50
0
  0
POINT
  5
AB
330
1F
100
AcDbEntity
  8
3
 62
7
100
AcDbPoint
 10
2386.0574678236326
 20
738.4913877695958
 30
0
 50
0
  0
POINT
  5
AC
330
1F
100
AcDbEntity
  8
3
 62
7
100
AcDbPoint
 10
2394.9933198744138
 20
739.34206525983029
 30
0
 50
0
  0
POINT
  5
AD
330
1F
100
AcDbEntity
  8
3
 62
7
100
AcDbPoint
 10
2403.8884309583982
 20
740.546479627506
 30
0
 50
0
  0
POINT
  5
AE
330
1F
100
AcDbEntity
  8
3
 62
7
100
AcDbPoint
 10
2412.7287629896482
 20
742.10268537701779
 30
0
 50
0
  0
POINT
  5
AF
330
1F
100
AcDbEntity
  8
3
 62
7
100
AcDbPoint
 10
2421.500430470117
 20
744.00824110211533
 30
0
 50
0
  0
POINT
  5
B0
330
1F
100
AcDbEntity
  8
3
 62
7
100
AcDbPoint
 10
2430.1896241957029
 20
746.2601331919592
 30
0
 50
0
  0
POINT
  5
B1
330
1F
100
AcDbEntity
  8
3
 62
7
100
AcDbPoint
 10
2448.5066560560549
 20
752.9316190928381
 30
0
 50
0
  0
POINT
  5
B2
330
1F
100
AcDbEntity
  8
3
 62
7
100
AcDbPoint
 10
2457.702823048242
 20
758.0897001475256
 30
0
 50
0
  0
POINT
  5
B3
330
1F
100
AcDbEntity
  8
3
 62
7
100
AcDbPoint
 10
2466.2514833265632
 20
764.2618421763342
 30
0
 50
0
  0
POINT
  5
B4
330
1F
100
AcDbEntity
  8
3
 62
7
100
AcDbPoint
 10
2474.0413240248049
 20
771.36770765484982
 30
0
 50
0
  0
POINT
  5
B5
330
1F
100
AcDbEntity
  8
3
 62
7
100
AcDbPoint
 10
2480.9709504896491
 20
779.314790174381
 30
0
 50
0
  0
POINT
  5
B6
330
1F
100
AcDbEntity
  8
3
 62
7
100
AcDbPoint
 10
2486.950030689844
 20
787.99959699811154
 30
0
 50
0
  0
POINT
  5
B7
330
1F
100
AcDbEntity
  8
3
 62
7
100
AcDbPoint
 10
2491.9007448011716
 20
797.30902235211545
 30
0
 50
0
  0
POINT
  5
B8
330
1F
100
AcDbEntity
  8
3
 62
7
100
AcDbPoint
 10
2497.60928705979
 20
825.27220151192489
 30
0
 50
0
  0
POINT
  5
B9
330
1F
100
AcDbEntity
  8
3
 62
7
100
AcDbPoint
 10
2498.9999727064451
 20
847.98140089215451
 30
0
 50
0
  0
POINT
  5
BA
330
1F
100
AcDbEntity
  8
3
 62
7
100
AcDbPoint
 10
2498.973340186169
 20
861.6267383574675
 30
0
 50
0
  0
POINT
  5
BB
330
1F
100
AcDbEntity
  8
3
 62
7
100
AcDbPoint
 10
2497.6910737806638
 20
892.16242353619748
 30
0
 50
0
  0
POINT
  5
BC
330
1F
100
AcDbEntity
  8
3
 62
7
100
AcDbPoint
 10
2497.5703004652337
 20
895.37611524762326
 30
0
 50
0
  0
POINT
  5
BD
330
1F
100
AcDbEntity
  8
3
 62
7
100
AcDbPoint
 10
2497.2806886488279
 20
898.57901136578732
 30
0
 50
0
  0
POINT
  5
BE
330
1F
100
AcDbEntity
  8
3
 62
7
100
AcDbPoint
 10
2496.823077564844
 20
901.76226179303342
 30
0
 50
0
  0
POINT
  5
BF
330
1F
100
AcDbEntity
  8
3
 62
7
100
AcDbPoint
 10
2496.198687916406
 20
904.917054578678
 30
0
 50
0
  0
POINT
  5
C0
330
1F
100
AcDbEntity
  8
3
 62
7
100
AcDbPoint
 10
2495.4093507582029
 20
908.03461591901
 30
0
 50
0
  0
POINT
  5
C1
330
1F
100
AcDbEntity
  8
3
 62
7
100
AcDbPoint
 10
2494.457126026758
 20
911.10636274518185
 30
0
 50
0
  0
POINT
  5
C2
330
1F
100
AcDbEntity
  8
3
 62
7
100
AcDbPoint
 10
2488.991885548242
 20
919.41248457135373
 30
0
 50
0
  0
POINT
  5
C3
330
1F
100
AcDbEntity
  8
3
 62
7
100
AcDbPoint
 10
2473.5622743421877
 20
931.88616316022092
 30
0
 50
0
  0
POINT
  5
C4
330
1F
100
AcDbEntity
  8
3
 62
7
100
AcDbPoint
 10
2460.5403474623049
 20
947.67458479108029
 30
0
 50
0
  0
POINT
  5
C5
330
1F
100
AcDbEntity
  8
3
 62
7
100
AcDbPoint
 10
2457.8583101087888
 20
955.0312284678381
 30
0
 50
0
  0
POINT
  5
C6
330
1F
100
AcDbEntity
  8
3
 62
7
100
AcDbPoint
 10
2455.846286183008
 20
962.598596021549
 30
0
 50
0
  0
POINT
  5
C7
330
1F
100
AcDbEntity
  8
3
 62
7
100
AcDbPoint
 10
2454.520450001367
 20
970.31580488385373
 30
0
 50
0
  0
POINT
  5
C8
330
1F
100
AcDbEntity
  8
3
 62
7
100
AcDbPoint
 10
2453.8914827162107
 20
978.12075178326779
 30
0
 50
0
  0
POINT
  5
C9
330
1F
100
AcDbEntity
  8
3
 62
7
100
AcDbPoint
 10
2453.9643434339841
 20
985.95072309674435
 30
0
 50
0
  0
POINT
  5
CA
330
1F
100
AcDbEntity
  8
3
 62
7
100
AcDbPoint
 10
2454.73849809707
 20
993.74262373151
 30
0
 50
0
  0
POINT
  5
CB
330
1F
100
AcDbEntity
  8
3
 62
7
100
AcDbPoint
 10
2458.7873414808591
 20
1025.5256895274085
 30
0
 50
0
  0
POINT
  5
CC
330
1F
100
AcDbEntity
  8
3
 62
7
100
AcDbPoint
 10
2458.9909174474569
 20
1030.3616281357117
 30
0
 50
0
  0
POINT
  5
CD
330
1F
100
AcDbEntity
  8
3
 62
7
100
AcDbPoint
 10
2458.2072786146491
 20
1056.7344907969398
 30
0
 50
0
  0
POINT
  5
CE
330
1F
100
AcDbEntity
  8
3
 62
7
100
AcDbPoint
 10
2456.5552095228518
 20
1063.5539488047523
 30
0
 50
0
  0
POINT
  5
CF
330
1F
100
AcDbEntity
  8
3
 62
7
100
AcDbPoint
 10
2454.0005067640632
 20
1070.0889829844398
 30
0
 50
0
  0
POINT
  5
D0
330
1F
100
AcDbEntity
  8
3
 62
7
100
AcDbPoint
 10
2450.5896333509768
 20
1076.220879957096
 30
0
 50
0
  0
POINT
  5
D1
330
1F
100
AcDbEntity
  8
3
 62
7
100
AcDbPoint
 10
2446.3846925550779
 20
1081.8379453867835
 30
0
 50
0
  0
POINT
  5
D2
330
1F
100
AcDbEntity
  8
3
 62
7
100
AcDbPoint
 10
2441.46213090957
 20
1086.8381742686195
 30
0
 50
0
  0
POINT
  5
D3
330
1F
100
AcDbEntity
  8
3
 62
7
100
AcDbPoint
 10
2435.9114412123045
 20
1091.1304716319007
 30
0
 50
0
  0
POINT
  5
D4
330
1F
100
AcDbEntity
  8
3
 62
7
100
AcDbPoint
 10
2303.2441285902341
 20
1163.4958891123695
 30
0
 50
0
  0
POINT
  5
D5
330
1F
100
AcDbEntity
  8
3
 62
7
100
AcDbPoint
 10
2298.1925538832029
 20
1163.434014722721
 30
0
 50
0
  0
POINT
  5
D6
330
1F
100
AcDbEntity
  8
3
 62
7
100
AcDbPoint
 10
2293.1482271009763
 20
1163.1572965830726
 30
0
 50
0
  0
POINT
  5
D7
330
1F
100
AcDbEntity
  8
3
 62
7
100
AcDbPoint
 10
2288.1202272230466
 20
1162.6663450449867
 30
0
 50
0
  0
POINT
  5
D8
330
1F
100
AcDbEntity
  8
3
 62
7
100
AcDbPoint
 10
2283.117633228906
 20
1161.9619230479163
 30
0
 50
0
  0
POINT
  5
D9
330
1F
100
AcDbEntity
  8
3
 62
7
100
AcDbPoint
 10
2278.1495240980466
 20
1161.045327588932
 30
0
 50
0
  0
POINT
  5
DA
330
1F
100
AcDbEntity
  8
3
 62
7
100
AcDbPoint
 10
2273.2249025160154
 20
1159.9183134287757
 30
0
 50
0
  0
POINT
  5
DB
330
1F
100
AcDbEntity
  8
3
 62
7
100
AcDbPoint
 10
2256.5613893324216
 20
1152.4649290293617
 30
0
 50
0
  0
POINT
  5
DC
330
1F
100
AcDbEntity
  8
3
 62
7
100
AcDbPoint
 10
2244.2642549330076
 20
1147.4407438486976
 30
0
 50
0
  0
POINT
  5
DD
330
1F
100
AcDbEntity
  8
3
 62
7
100
AcDbPoint
 10
2231.5623811537107
 20
1143.5515073985023
 30
0
 50
0
  0
POINT
  5
DE
330
1F
100
AcDbEntity
  8
3
 62
7
100
AcDbPoint
 10
2218.5603669935545
 20
1140.829263135807
 30
0
 50
0
  0
POINT
  5
DF
330
1F
100
AcDbEntity
  8
3
 62
7
100
AcDbPoint
 10
2205.365176563867
 20
1139.2963651865882
 30
0
 50
0
  0
POINT
  5
E0
330
1F
100
AcDbEntity
  8
3
 62
7
100
AcDbPoint
 10
2192.0852998548826
 20
1138.9655546397132
 30
0
 50
0
  0
POINT
  5
E1
330
1F
100
AcDbEntity
  8
3
 62
7
100
AcDbPoint
 10
2178.8301423841795
 20
1139.8394254893226
 30
0
 50
0
  0
POINT
  5
E2
330
1F
100
AcDbEntity
  8
3
 62
7
100
AcDbPoint
 10
2140.2665284925779
 20
1144.9797300547523
 30
0
 50
0
  0
POINT
  5
E3
330
1F
100
AcDbEntity
  8
3
 62
7
100
AcDbPoint
 10
2110.5359224134763
 20
1146.3546232432288
 30
0
 50
0
  0
POINT
  5
E4
330
1F
100
AcDbEntity
  8
3
 62
7
100
AcDbPoint
 10
2106.40109575332
 20
1146.2649778574867
 30
0
 50
0
  0
POINT
  5
E5
330
1F
100
AcDbEntity
  8
3
 62
7
100
AcDbPoint
 10
2102.2830537611326
 20
1145.8813719004554
 30
0
 50
0
  0
POINT
  5
E6
330
1F
100
AcDbEntity
  8
3
 62
7
100
AcDbPoint
 10
2098.2027772718748
 20
1145.2056364268226
 30
0
 50
0
  0
POINT
  5
E7
330
1F
100
AcDbEntity
  8
3
 62
7
100
AcDbPoint
 10
2094.1809419447263
 20
1144.2413572520179
 30
0
 50
0
  0
POINT
  5
E8
330
1F
100
AcDbEntity
  8
3
 62
7
100
AcDbPoint
 10
2090.2379182630857
 20
1142.993340894596
 30
0
 50
0
  0
POINT
  5
E9
330
1F
100
AcDbEntity
  8
3
 62
7
100
AcDbPoint
 10
2086.3936952406248
 20
1141.4679197520179
 30
0
 50
0
  0
POINT
  5
EA
330
1F
100
AcDbEntity
  8
3
 62
7
100
AcDbPoint
 10
2079.2358735853513
 20
1136.0517362803382
 30
0
 50
0
  0
POINT
  5
EB
330
1F
100
AcDbEntity
  8
3
 62
7
100
AcDbPoint
 10
2076.1789659315427
 20
1132.1090940684242
 30
0
 50
0
  0
POINT
  5
EC
330
1F
100
AcDbEntity
  8
3
 62
7
100
AcDbPoint
 10
2073.526797657617
 20
1127.8835539072913
 30
0
 50
0
  0
POINT
  5
ED
330
1F
100
AcDbEntity
  8
3
 62
7
100
AcDbPoint
 10
2071.3054231458982
 20
1123.4164671152992
 30
0
 50
0
  0
POINT
  5
EE
330
1F
100
AcDbEntity
  8
3
 62
7
100
AcDbPoint
 10
2069.5366243177732
 20
1118.751626417057
 30
0
 50
0
  0
POINT
  5
EF
330
1F
100
AcDbEntity
  8
3
 62
7
100
AcDbPoint
 10
2068.2376817518552
 20
1113.9348081797523
 30
0
 50
0
  0
POINT
  5
F0
330
1F
100
AcDbEntity
  8
3
 62
7
100
AcDbPoint
 10
2067.4213746839841
 20
1109.0130857676429
 30
0
 50
0
  0
POINT
  5
F1
330
1F
100
AcDbEntity
  8
3
 62
7
100
AcDbPoint
 10
2048.9769700819334
 20
955.41964094342381
 30
0
 50
0
  0
POINT
  5
F2
330
1F
100
AcDbEntity
  8
3
 62
7
100
AcDbPoint
 10
2036.6901353651369
 20
951.72846357525975
 30
0
 50
0
  0
POINT
  5
F3
330
1F
100
AcDbEntity
  8
3
 62
7
100
AcDbPoint
 10
2029.9180177503908
 20
950.74808637799413
 30
0
 50
0
  0
POINT
  5
F4
330
1F
100
AcDbEntity
  8
3
 62
7
100
AcDbPoint
 10
2023.4063676649416
 20
948.64550153912694
 30
0
 50
0
  0
POINT
  5
F5
330
1F
100
AcDbEntity
  8
3
 62
7
100
AcDbPoint
 10
2017.3397401625002
 20
945.48037092389256
 30
0
 50
0
  0
POINT
  5
F6
330
1F
100
AcDbEntity
  8
3
 62
7
100
AcDbPoint
 10
2011.890101795801
 20
941.34226362408788
 30
0
 50
0
  0
POINT
  5
F7
330
1F
100
AcDbEntity
  8
3
 62
7
100
AcDbPoint
 10
2007.2119096571291
 20
936.34859602154881
 30
0
 50
0
  0
POINT
  5
F8
330
1F
100
AcDbEntity
  8
3
 62
7
100
AcDbPoint
 10
2003.4378007704104
 20
930.64081709088475
 30
0
 50
0
  0
POINT
  5
F9
330
1F
100
AcDbEntity
  8
2
 62
7
100
AcDbPoint
 10
2053.9126924330076
 20
959.914803907291
 30
0
 50
0
  0
POINT
  5
FA
330
1F
100
AcDbEntity
  8
2
 62
7
100
AcDbPoint
 10
2043.5306886488283
 20
951.55886213483006
 30
0
 50
0
  0
LWPOLYLINE
  5
FB
330
1F
100
AcDbEntity
  8
1
 62
7
100
AcDbPolyline
 90
95
 70
1
 10
2499.0000001000003
 20
1176.7200551389981
 10
2499.0000001000003
 20
1357.0100484251309
 10
2494.4835301323692
 20
1366.2080570736275
 10
2492.4627915428714
 20
1368.9778266310025
 10
2487.7845994041995
 20
1373.9714942335415
 10
2482.3349610375003
 20
1378.1096015333462
 10
2476.2683335350589
 20
1381.2747321485806
 10
2466.3896987176859
 20
1384.0242902877528
 10
2462.9845658348636
 20
1384.3576941847134
 10
2456.1439744041995
 20
1384.1880927442837
 10
2450.6977311180667
 20
1388.0488715528775
 10
2445.76197062002
 20
1392.5440345167447
 10
2431.4370194481448
 20
1546.564034020834
 10
2428.3692399071292
 20
1556.0456929563809
 10
2423.4957352684573
 20
1564.7383199095059
 10
2417.0069352196292
 20
1572.3020253538418
 10
2409.4367447899417
 20
1575.6225667356778
 10
2401.4718857811527
 20
1577.8348622679043
 10
2393.2735672997073
 20
1578.8942036985684
 10
2385.0079575584964
 20
1578.7790761350918
 10
2359.4081345604495
 20
1577.608955895834
 10
2355.1577294462
 20
1577.2183414526212
 10
2307.5893631981448
 20
1571.594780480795
 10
2294.3094864891605
 20
1571.92559102767
 10
2281.114296059473
 20
1573.4584889768887
 10
2268.1122818993167
 20
1576.180733239584
 10
2255.41040812002
 20
1580.0699696897793
 10
2243.1132737206058
 20
1585.0941548704434
 10
2231.3219681786136
 20
1591.2120900511075
 10
2221.5251389549808
 20
1593.6745534300137
 10
2211.5544358299808
 20
1595.2955708860684
 10
2201.4821091698245
 20
1596.0632405638028
 10
2191.38094339834
 20
1595.9720692991543
 10
2063.7632218407225
 20
1523.7596974729825
 10
2058.2125321434569
 20
1519.4674048780728
 10
2053.28997049795
 20
1514.4671759962368
 10
2049.0850297020506
 20
1508.8501105665493
 10
2045.6741562889652
 20
1502.7182135938931
 10
2043.1194535301761
 20
1496.1831794142056
 10
2041.467384438379
 20
1489.3637214063931
 10
2040.7479325340821
 20
1482.3840437292386
 10
2040.59870696384
 20
1472.6808589871027
 10
2041.2275526981471
 20
1453.3266564817507
 10
2043.466972451075
 20
1434.0630445837307
 10
2044.9361649559571
 20
1426.3718519567776
 10
2045.710319619043
 20
1418.579951322012
 10
2045.7831803368172
 20
1410.7499800085354
 10
2045.1542130516611
 20
1402.9450354933072
 10
2043.82837687002
 20
1395.2278266310025
 10
2041.816352944239
 20
1387.6604590772915
 10
2039.134315590723
 20
1380.3038154005337
 10
2035.8039322899422
 20
1373.2170997022915
 10
2026.1123887108402
 20
1364.5153937696743
 10
2015.648979287012
 20
1356.7590413450528
 10
2010.6827775047861
 20
1352.0417104124356
 10
2006.3299790428721
 20
1346.7530904173184
 10
2004.265312294825
 20
1340.6638417600918
 10
2002.8515854881841
 20
1334.3914876341153
 10
2002.104362587793
 20
1328.0053410887051
 10
2000.6746903465821
 20
1280.6106267332364
 10
2001.3293232940011
 20
1266.9809677481569
 10
2003.915962319239
 20
1239.7510609983731
 10
2007.773918251856
 20
1229.9382481931973
 10
2012.7246323631841
 20
1220.6288228391934
 10
2018.703712563379
 20
1211.9440160154629
 10
2025.633339028223
 20
1203.9969334959317
 10
2033.4231797264652
 20
1196.891068017416
 10
2041.9718400047861
 20
1190.7189259886075
 10
2051.1680069969725
 20
1185.56084493392
 10
2060.8919755028319
 20
1181.4840398191739
 10
2078.1742325829109
 20
1176.6374669431973
 10
2095.7862320946288
 20
1173.1757054685879
 10
2113.6171952293948
 20
1171.1206136106778
 10
2131.554969887598
 20
1170.485046899252
 10
2180.22127542959
 20
1169.2578587889004
 10
2228.9029923485355
 20
1169.3740544676114
 10
2253.6966172264652
 20
1168.8940129637051
 10
2278.453163246973
 20
1167.4556813597012
 10
2303.135551552637
 20
1165.0613103269864
 10
2327.7069321678714
 20
1161.714409387045
 10
2352.1305314110355
 20
1157.4200139402676
 10
2376.36988077627
 20
1152.1845326780606
 10
2400.3886643456058
 20
1146.015823876791
 10
2428.9019242333011
 20
1137.9330907224942
 10
2438.520073037012
 20
1136.6522679685879
 10
2448.2172623680667
 20
1136.3127599119473
 10
2457.901405434473
 20
1136.9178090452481
 10
2462.7099839256839
 20
1137.5730595945645
 10
2472.9700270386547
 20
1140.681480325549
 10
2476.1805954979495
 20
1142.2788701414395
 10
2482.1693650291995
 20
1146.1996922849942
 10
2487.44539652334
 20
1151.0371480345059
 10
2491.869911293848
 20
1156.6639409422207
 10
2496.6765148872819
 20
1166.25429995406
 10
2497.7242508934573
 20
1169.6765981077481
  0
POINT
  5
FC
330
1F
100
AcDbEntity
  8
3
 62
7
100
AcDbPoint
 10
2496.23690042959
 20
1363.2700477003384
 30
0
 50
0
  0
POINT
  5
FD
330
1F
100
AcDbEntity
  8
3
 62
7
100
AcDbPoint
 10
2492.4627915428714
 20
1368.9778266310025
 30
0
 50
0
  0
POINT
  5
FE
330
1F
100
AcDbEntity
  8
3
 62
7
100
AcDbPoint
 10
2487.7845994041995
 20
1373.9714942335415
 30
0
 50
0
  0
POINT
  5
FF
330
1F
100
AcDbEntity
  8
3
 62
7
100
AcDbPoint
 10
2482.3349610375003
 20
1378.1096015333462
 30
0
 50
0
  0
POINT
  5
100
330
1F
100
AcDbEntity
  8
3
 62
7
100
AcDbPoint
 10
2476.2683335350589
 20
1381.2747321485806
 30
0
 50
0
  0
POINT
  5
101
330
1F
100
AcDbEntity
  8
3
 62
7
100
AcDbPoint
 10
2469.756645302637
 20
1383.3773169874478
 30
0
 50
0
  0
POINT
  5
102
330
1F
100
AcDbEntity
  8
3
 62
7
100
AcDbPoint
 10
2462.9845658348636
 20
1384.3576941847134
 30
0
 50
0
  0
POINT
  5
103
330
1F
100
AcDbEntity
  8
3
 62
7
100
AcDbPoint
 10
2450.6977311180667
 20
1388.0488715528775
 30
0
 50
0
  0
POINT
  5
104
330
1F
100
AcDbEntity
  8
3
 62
7
100
AcDbPoint
 10
2432.2532883690433
 20
1541.6423116087246
 30
0
 50
0
  0
POINT
  5
105
330
1F
100
AcDbEntity
  8
3
 62
7
100
AcDbPoint
 10
2431.4370194481448
 20
1546.564034020834
 30
0
 50
0
  0
POINT
  5
106
330
1F
100
AcDbEntity
  8
3
 62
7
100
AcDbPoint
 10
2430.1380387352542
 20
1551.3808522581387
 30
0
 50
0
  0
POINT
  5
107
330
1F
100
AcDbEntity
  8
3
 62
7
100
AcDbPoint
 10
2428.3692399071292
 20
1556.0456929563809
 30
0
 50
0
  0
POINT
  5
108
330
1F
100
AcDbEntity
  8
3
 62
7
100
AcDbPoint
 10
2426.1478653954105
 20
1560.5127797483731
 30
0
 50
0
  0
POINT
  5
109
330
1F
100
AcDbEntity
  8
3
 62
7
100
AcDbPoint
 10
2423.4957352684573
 20
1564.7383199095059
 30
0
 50
0
  0
POINT
  5
10A
330
1F
100
AcDbEntity
  8
3
 62
7
100
AcDbPoint
 10
2420.4387894676761
 20
1568.68096212142
 30
0
 50
0
  0
POINT
  5
10B
330
1F
100
AcDbEntity
  8
3
 62
7
100
AcDbPoint
 10
2413.2809678124027
 20
1574.0971455930996
 30
0
 50
0
  0
POINT
  5
10C
330
1F
100
AcDbEntity
  8
3
 62
7
100
AcDbPoint
 10
2409.4367447899417
 20
1575.6225667356778
 30
0
 50
0
  0
POINT
  5
10D
330
1F
100
AcDbEntity
  8
3
 62
7
100
AcDbPoint
 10
2405.4937211083011
 20
1576.8705830930996
 30
0
 50
0
  0
POINT
  5
10E
330
1F
100
AcDbEntity
  8
3
 62
7
100
AcDbPoint
 10
2401.4718857811527
 20
1577.8348622679043
 30
0
 50
0
  0
POINT
  5
10F
330
1F
100
AcDbEntity
  8
3
 62
7
100
AcDbPoint
 10
2397.3916092918948
 20
1578.5105977415371
 30
0
 50
0
  0
POINT
  5
110
330
1F
100
AcDbEntity
  8
3
 62
7
100
AcDbPoint
 10
2393.2735672997073
 20
1578.8942036985684
 30
0
 50
0
  0
POINT
  5
111
330
1F
100
AcDbEntity
  8
3
 62
7
100
AcDbPoint
 10
2389.1387406395511
 20
1578.9838490843106
 30
0
 50
0
  0
POINT
  5
112
330
1F
100
AcDbEntity
  8
3
 62
7
100
AcDbPoint
 10
2359.4081345604495
 20
1577.608955895834
 30
0
 50
0
  0
POINT
  5
113
330
1F
100
AcDbEntity
  8
3
 62
7
100
AcDbPoint
 10
2320.844520668848
 20
1572.4686513304043
 30
0
 50
0
  0
POINT
  5
114
330
1F
100
AcDbEntity
  8
3
 62
7
100
AcDbPoint
 10
2307.5893631981448
 20
1571.594780480795
 30
0
 50
0
  0
POINT
  5
115
330
1F
100
AcDbEntity
  8
3
 62
7
100
AcDbPoint
 10
2294.3094864891605
 20
1571.92559102767
 30
0
 50
0
  0
POINT
  5
116
330
1F
100
AcDbEntity
  8
3
 62
7
100
AcDbPoint
 10
2281.114296059473
 20
1573.4584889768887
 30
0
 50
0
  0
POINT
  5
117
330
1F
100
AcDbEntity
  8
3
 62
7
100
AcDbPoint
 10
2268.1122818993167
 20
1576.180733239584
 30
0
 50
0
  0
POINT
  5
118
330
1F
100
AcDbEntity
  8
3
 62
7
100
AcDbPoint
 10
2255.41040812002
 20
1580.0699696897793
 30
0
 50
0
  0
POINT
  5
119
330
1F
100
AcDbEntity
  8
3
 62
7
100
AcDbPoint
 10
2243.1132737206058
 20
1585.0941548704434
 30
0
 50
0
  0
POINT
  5
11A
330
1F
100
AcDbEntity
  8
3
 62
7
100
AcDbPoint
 10
2226.449760537012
 20
1592.5475392698575
 30
0
 50
0
  0
POINT
  5
11B
330
1F
100
AcDbEntity
  8
3
 62
7
100
AcDbPoint
 10
2221.5251389549808
 20
1593.6745534300137
 30
0
 50
0
  0
POINT
  5
11C
330
1F
100
AcDbEntity
  8
3
 62
7
100
AcDbPoint
 10
2216.5570298241214
 20
1594.5911488889981
 30
0
 50
0
  0
POINT
  5
11D
330
1F
100
AcDbEntity
  8
3
 62
7
100
AcDbPoint
 10
2211.5544358299808
 20
1595.2955708860684
 30
0
 50
0
  0
POINT
  5
11E
330
1F
100
AcDbEntity
  8
3
 62
7
100
AcDbPoint
 10
2206.5264359520511
 20
1595.7865224241543
 30
0
 50
0
  0
POINT
  5
11F
330
1F
100
AcDbEntity
  8
3
 62
7
100
AcDbPoint
 10
2201.4821091698245
 20
1596.0632405638028
 30
0
 50
0
  0
POINT
  5
120
330
1F
100
AcDbEntity
  8
3
 62
7
100
AcDbPoint
 10
2196.4305344627933
 20
1596.1251149534512
 30
0
 50
0
  0
POINT
  5
121
330
1F
100
AcDbEntity
  8
3
 62
7
100
AcDbPoint
 10
2063.7632218407225
 20
1523.7596974729825
 30
0
 50
0
  0
POINT
  5
122
330
1F
100
AcDbEntity
  8
3
 62
7
100
AcDbPoint
 10
2058.2125321434569
 20
1519.4674048780728
 30
0
 50
0
  0
POINT
  5
123
330
1F
100
AcDbEntity
  8
3
 62
7
100
AcDbPoint
 10
2053.28997049795
 20
1514.4671759962368
 30
0
 50
0
  0
POINT
  5
124
330
1F
100
AcDbEntity
  8
3
 62
7
100
AcDbPoint
 10
2049.0850297020506
 20
1508.8501105665493
 30
0
 50
0
  0
POINT
  5
125
330
1F
100
AcDbEntity
  8
3
 62
7
100
AcDbPoint
 10
2045.6741562889652
 20
1502.7182135938931
 30
0
 50
0
  0
POINT
  5
126
330
1F
100
AcDbEntity
  8
3
 62
7
100
AcDbPoint
 10
2043.1194535301761
 20
1496.1831794142056
 30
0
 50
0
  0
POINT
  5
127
330
1F
100
AcDbEntity
  8
3
 62
7
100
AcDbPoint
 10
2041.467384438379
 20
1489.3637214063931
 30
0
 50
0
  0
POINT
  5
128
330
1F
100
AcDbEntity
  8
3
 62
7
100
AcDbPoint
 10
2040.887321572168
 20
1458.1549177526761
 30
0
 50
0
  0
POINT
  5
129
330
1F
100
AcDbEntity
  8
3
 62
7
100
AcDbPoint
 10
2041.2275526981471
 20
1453.3266564817507
 30
0
 50
0
  0
POINT
  5
12A
330
1F
100
AcDbEntity
  8
3
 62
7
100
AcDbPoint
 10
2044.9361649559571
 20
1426.3718519567776
 30
0
 50
0
  0
POINT
  5
12B
330
1F
100
AcDbEntity
  8
3
 62
7
100
AcDbPoint
 10
2045.710319619043
 20
1418.579951322012
 30
0
 50
0
  0
POINT
  5
12C
330
1F
100
AcDbEntity
  8
3
 62
7
100
AcDbPoint
 10
2045.7831803368172
 20
1410.7499800085354
 30
0
 50
0
  0
POINT
  5
12D
330
1F
100
AcDbEntity
  8
3
 62
7
100
AcDbPoint
 10
2045.1542130516611
 20
1402.9450354933072
 30
0
 50
0
  0
POINT
  5
12E
330
1F
100
AcDbEntity
  8
3
 62
7
100
AcDbPoint
 10
2043.82837687002
 20
1395.2278266310025
 30
0
 50
0
  0
POINT
  5
12F
330
1F
100
AcDbEntity
  8
3
 62
7
100
AcDbPoint
 10
2041.816352944239
 20
1387.6604590772915
 30
0
 50
0
  0
POINT
  5
130
330
1F
100
AcDbEntity
  8
3
 62
7
100
AcDbPoint
 10
2039.134315590723
 20
1380.3038154005337
 30
0
 50
0
  0
POINT
  5
131
330
1F
100
AcDbEntity
  8
3
 62
7
100
AcDbPoint
 10
2026.1123887108402
 20
1364.5153937696743
 30
0
 50
0
  0
POINT
  5
132
330
1F
100
AcDbEntity
  8
3
 62
7
100
AcDbPoint
 10
2010.6827775047861
 20
1352.0417104124356
 30
0
 50
0
  0
POINT
  5
133
330
1F
100
AcDbEntity
  8
3
 62
7
100
AcDbPoint
 10
2005.21753702627
 20
1343.7355885862637
 30
0
 50
0
  0
POINT
  5
134
330
1F
100
AcDbEntity
  8
3
 62
7
100
AcDbPoint
 10
2004.265312294825
 20
1340.6638417600918
 30
0
 50
0
  0
POINT
  5
135
330
1F
100
AcDbEntity
  8
3
 62
7
100
AcDbPoint
 10
2003.4759751366221
 20
1337.5462804197598
 30
0
 50
0
  0
POINT
  5
136
330
1F
100
AcDbEntity
  8
3
 62
7
100
AcDbPoint
 10
2002.8515854881841
 20
1334.3914876341153
 30
0
 50
0
  0
POINT
  5
137
330
1F
100
AcDbEntity
  8
3
 62
7
100
AcDbPoint
 10
2002.3939744042
 20
1331.2082372068692
 30
0
 50
0
  0
POINT
  5
138
330
1F
100
AcDbEntity
  8
3
 62
7
100
AcDbPoint
 10
2002.104362587793
 20
1328.0053410887051
 30
0
 50
0
  0
POINT
  5
139
330
1F
100
AcDbEntity
  8
3
 62
7
100
AcDbPoint
 10
2001.983589272364
 20
1324.7916493772793
 30
0
 50
0
  0
POINT
  5
13A
330
1F
100
AcDbEntity
  8
3
 62
7
100
AcDbPoint
 10
2001.018708285306
 20
1303.3597547627439
 30
0
 50
0
  0
POINT
  5
13B
330
1F
100
AcDbEntity
  8
3
 62
7
100
AcDbPoint
 10
2000.6746903465821
 20
1280.6106267332364
 30
0
 50
0
  0
POINT
  5
13C
330
1F
100
AcDbEntity
  8
3
 62
7
100
AcDbPoint
 10
2001.3293232940011
 20
1266.9809677481569
 30
0
 50
0
  0
POINT
  5
13D
330
1F
100
AcDbEntity
  8
3
 62
7
100
AcDbPoint
 10
2007.773918251856
 20
1229.9382481931973
 30
0
 50
0
  0
POINT
  5
13E
330
1F
100
AcDbEntity
  8
3
 62
7
100
AcDbPoint
 10
2012.7246323631841
 20
1220.6288228391934
 30
0
 50
0
  0
POINT
  5
13F
330
1F
100
AcDbEntity
  8
3
 62
7
100
AcDbPoint
 10
2018.703712563379
 20
1211.9440160154629
 30
0
 50
0
  0
POINT
  5
140
330
1F
100
AcDbEntity
  8
3
 62
7
100
AcDbPoint
 10
2025.633339028223
 20
1203.9969334959317
 30
0
 50
0
  0
POINT
  5
141
330
1F
100
AcDbEntity
  8
3
 62
7
100
AcDbPoint
 10
2033.4231797264652
 20
1196.891068017416
 30
0
 50
0
  0
POINT
  5
142
330
1F
100
AcDbEntity
  8
3
 62
7
100
AcDbPoint
 10
2041.9718400047861
 20
1190.7189259886075
 30
0
 50
0
  0
POINT
  5
143
330
1F
100
AcDbEntity
  8
3
 62
7
100
AcDbPoint
 10
2051.1680069969725
 20
1185.56084493392
 30
0
 50
0
  0
POINT
  5
144
330
1F
100
AcDbEntity
  8
3
 62
7
100
AcDbPoint
 10
2069.485038857325
 20
1178.889359033041
 30
0
 50
0
  0
POINT
  5
145
330
1F
100
AcDbEntity
  8
3
 62
7
100
AcDbPoint
 10
2078.1742325829109
 20
1176.6374669431973
 30
0
 50
0
  0
POINT
  5
146
330
1F
100
AcDbEntity
  8
3
 62
7
100
AcDbPoint
 10
2086.9459000633788
 20
1174.7319112180996
 30
0
 50
0
  0
POINT
  5
147
330
1F
100
AcDbEntity
  8
3
 62
7
100
AcDbPoint
 10
2095.7862320946288
 20
1173.1757054685879
 30
0
 50
0
  0
POINT
  5
148
330
1F
100
AcDbEntity
  8
3
 62
7
100
AcDbPoint
 10
2104.681343178614
 20
1171.9712911009121
 30
0
 50
0
  0
POINT
  5
149
330
1F
100
AcDbEntity
  8
3
 62
7
100
AcDbPoint
 10
2113.6171952293948
 20
1171.1206136106778
 30
0
 50
0
  0
POINT
  5
14A
330
1F
100
AcDbEntity
  8
3
 62
7
100
AcDbPoint
 10
2122.5797501610355
 20
1170.6249318479825
 30
0
 50
0
  0
POINT
  5
14B
330
1F
100
AcDbEntity
  8
3
 62
7
100
AcDbPoint
 10
2180.22127542959
 20
1169.2578587889004
 30
0
 50
0
  0
POINT
  5
14C
330
1F
100
AcDbEntity
  8
3
 62
7
100
AcDbPoint
 10
2253.6966172264652
 20
1168.8940129637051
 30
0
 50
0
  0
POINT
  5
14D
330
1F
100
AcDbEntity
  8
3
 62
7
100
AcDbPoint
 10
2278.453163246973
 20
1167.4556813597012
 30
0
 50
0
  0
POINT
  5
14E
330
1F
100
AcDbEntity
  8
3
 62
7
100
AcDbPoint
 10
2303.135551552637
 20
1165.0613103269864
 30
0
 50
0
  0
POINT
  5
14F
330
1F
100
AcDbEntity
  8
3
 62
7
100
AcDbPoint
 10
2327.7069321678714
 20
1161.714409387045
 30
0
 50
0
  0
POINT
  5
150
330
1F
100
AcDbEntity
  8
3
 62
7
100
AcDbPoint
 10
2352.1305314110355
 20
1157.4200139402676
 30
0
 50
0
  0
POINT
  5
151
330
1F
100
AcDbEntity
  8
3
 62
7
100
AcDbPoint
 10
2376.36988077627
 20
1152.1845326780606
 30
0
 50
0
  0
POINT
  5
152
330
1F
100
AcDbEntity
  8
3
 62
7
100
AcDbPoint
 10
2400.3886643456058
 20
1146.015823876791
 30
0
 50
0
  0
POINT
  5
153
330
1F
100
AcDbEntity
  8
3
 62
7
100
AcDbPoint
 10
2428.9019242333011
 20
1137.9330907224942
 30
0
 50
0
  0
POINT
  5
154
330
1F
100
AcDbEntity
  8
3
 62
7
100
AcDbPoint
 10
2433.69539652334
 20
1137.1755681394864
 30
0
 50
0
  0
POINT
  5
155
330
1F
100
AcDbEntity
  8
3
 62
7
100
AcDbPoint
 10
2438.520073037012
 20
1136.6522679685879
 30
0
 50
0
  0
POINT
  5
156
330
1F
100
AcDbEntity
  8
3
 62
7
100
AcDbPoint
 10
2443.36450968252
 20
1136.3644490598965
 30
0
 50
0
  0
POINT
  5
157
330
1F
100
AcDbEntity
  8
3
 62
7
100
AcDbPoint
 10
2448.2172623680667
 20
1136.3127599119473
 30
0
 50
0
  0
POINT
  5
158
330
1F
100
AcDbEntity
  8
3
 62
7
100
AcDbPoint
 10
2453.0667344139652
 20
1136.4973531126309
 30
0
 50
0
  0
POINT
  5
159
330
1F
100
AcDbEntity
  8
3
 62
7
100
AcDbPoint
 10
2457.901405434473
 20
1136.9178090452481
 30
0
 50
0
  0
POINT
  5
15A
330
1F
100
AcDbEntity
  8
3
 62
7
100
AcDbPoint
 10
2469.6367875145511
 20
1139.3779073118496
 30
0
 50
0
  0
POINT
  5
15B
330
1F
100
AcDbEntity
  8
3
 62
7
100
AcDbPoint
 10
2476.1805954979495
 20
1142.2788701414395
 30
0
 50
0
  0
POINT
  5
15C
330
1F
100
AcDbEntity
  8
3
 62
7
100
AcDbPoint
 10
2482.1693650291995
 20
1146.1996922849942
 30
0
 50
0
  0
POINT
  5
15D
330
1F
100
AcDbEntity
  8
3
 62
7
100
AcDbPoint
 10
2487.44539652334
 20
1151.0371480345059
 30
0
 50
0
  0
POINT
  5
15E
330
1F
100
AcDbEntity
  8
3
 62
7
100
AcDbPoint
 10
2491.869911293848
 20
1156.6639409422207
 30
0
 50
0
  0
POINT
  5
15F
330
1F
100
AcDbEntity
  8
3
 62
7
100
AcDbPoint
 10
2495.3265229271487
 20
1162.9320989012051
 30
0
 50
0
  0
POINT
  5
160
330
1F
100
AcDbEntity
  8
3
 62
7
100
AcDbPoint
 10
2497.7242508934573
 20
1169.6765981077481
 30
0
 50
0
  0
POINT
  5
161
330
1F
100
AcDbEntity
  8
2
 62
7
100
AcDbPoint
 10
2456.1439744041995
 20
1384.1880927442837
 30
0
 50
0
  0
POINT
  5
162
330
1F
100
AcDbEntity
  8
2
 62
7
100
AcDbPoint
 10
2445.76197062002
 20
1392.5440345167447
 30
0
 50
0
  0
LWPOLYLINE
  5
163
330
1F
100
AcDbEntity
  8
1
 62
7
100
AcDbPolyline
 90
65
 70
1
 10
2373.4139291
 20
42.037594206480421
 10
2381.3525239181154
 20
42.296268828062452
 10
2389.0863267135255
 20
44.1062663866562
 10
2396.3152352523439
 20
47.397320158628858
 10
2402.7586594771974
 20
52.041675932554639
 10
2408.166526908838
 20
57.859165556578084
 10
2412.3289529037111
 20
64.623920805601514
 10
2415.0844041061036
 20
72.0734523607773
 10
2416.325935478174
 20
79.918606169371031
 10
2417.4499360274904
 20
108.55885732903901
 10
2417.0669404220216
 20
137.21860159173431
 10
2432.5509301375978
 20
231.72360647454681
 10
2454.7179452132814
 20
476.8766044451279
 10
2472.0249406051271
 20
553.367606289534
 10
2478.4780307355395
 20
576.0281707970978
 10
2488.6181562741126
 20
617.16413335384027
 10
2498.0140153121583
 20
666.31319273248141
 10
2499.0000001144044
 20
678.62342108025973
 10
2498.6767426681154
 20
690.96884001031344
 10
2497.0479432296388
 20
703.210604078917
 10
2495.6013718795411
 20
708.70186079278415
 10
2493.2274857711427
 20
713.86045683160251
 10
2489.9977723312013
 20
718.5311340166611
 10
2486.0093918990724
 20
722.57332075372165
 10
2481.3823929977052
 20
725.86533773675387
 10
2476.256069297754
 20
728.30810774102633
 10
2470.7846871566408
 20
729.82812155023043
 10
2465.1329270553224
 20
730.37960279717868
 10
2188.8986639127443
 20
730.38008341809882
 10
2179.7677237101775
 20
728.57446267712487
 10
2171.0201899185809
 20
725.42278133605214
 10
2162.8551575345837
 20
720.96479426170458
 10
2155.4740297930903
 20
715.3104695491
 10
2149.0179053903021
 20
708.60578364430046
 10
2146.2200943183534
 20
704.89095915093833
 10
2141.4849368285768
 20
696.88560713067466
 10
2124.3385544967286
 20
672.72775877252036
 10
2106.5889350127809
 20
649.00960672631675
 10
2076.4422360610597
 20
620.54069746270591
 10
2047.0399323653814
 20
591.30360711350852
 10
2040.6513444137213
 20
578.86834073796683
 10
2035.023826713526
 20
566.0706435514968
 10
2030.1778451156256
 20
552.95704353585654
 10
2026.1310235213873
 20
539.57521904244834
 10
2022.8980675887701
 20
525.97382295861655
 10
2020.4907456588385
 20
512.20230329766684
 10
2018.9177933883307
 20
498.31073034539645
 10
2017.8622735160186
 20
479.38863936973684
 10
2013.1122076208187
 20
400.01208307965112
 10
2011.1291295327735
 20
350.39912726811724
 10
2010.4967168373983
 20
305.74441817793888
 10
2011.0380466235936
 20
266.04842513807853
 10
2012.8672348452103
 20
216.42538433238414
 10
2017.2659341048834
 20
137.02462423577725
 10
2018.8321660726485
 20
119.3352187971373
 10
2020.6952038955328
 20
106.19183767571865
 10
2022.4855351799854
 20
97.528098207123378
 10
2029.3759099197027
 20
72.504055388121
 10
2032.2924367141363
 20
65.547077543882622
 10
2035.9651890945074
 20
58.957950956968681
 10
2040.3485051345465
 20
52.818577177671806
 10
2042.789939994776
 20
49.941608793882743
 10
2046.0953370284674
 20
48.3944057299179
 10
2052.2121182632081
 20
44.425670988706962
 10
2054.97193729397
 20
42.0375942064804
  0
CIRCLE
  5
164
330
1F
100
AcDbEntity
  8
11
 62
7
100
AcDbCircle
 10
2353.9249268722169
 20
111.76160085931244
 30
0
 40
14.50000047683716
  0
CIRCLE
  5
165
330
1F
100
AcDbEntity
  8
11
 62
7
100
AcDbCircle
 10
2101.9529381942384
 20
111.37459982171475
 30
0
 40
14.50000047683716
  0
POINT
  5
166
330
1F
100
AcDbEntity
  8
3
 62
7
100
AcDbPoint
 10
2381.3525239181154
 20
42.296268828062452
 30
0
 50
0
  0
POINT
  5
167
330
1F
100
AcDbEntity
  8
3
 62
7
100
AcDbPoint
 10
2389.0863267135255
 20
44.1062663866562
 30
0
 50
0
  0
POINT
  5
168
330
1F
100
AcDbEntity
  8
3
 62
7
100
AcDbPoint
 10
2396.3152352523439
 20
47.397320158628858
 30
0
 50
0
  0
POINT
  5
169
330
1F
100
AcDbEntity
  8
3
 62
7
100
AcDbPoint
 10
2402.7586594771974
 20
52.041675932554639
 30
0
 50
0
  0
POINT
  5
16A
330
1F
100
AcDbEntity
  8
3
 62
7
100
AcDbPoint
 10
2408.166526908838
 20
57.859165556578084
 30
0
 50
0
  0
POINT
  5
16B
330
1F
100
AcDbEntity
  8
3
 62
7
100
AcDbPoint
 10
2412.3289529037111
 20
64.623920805601514
 30
0
 50
0
  0
POINT
  5
16C
330
1F
100
AcDbEntity
  8
3
 62
7
100
AcDbPoint
 10
2415.0844041061036
 20
72.0734523607773
 30
0
 50
0
  0
POINT
  5
16D
330
1F
100
AcDbEntity
  8
3
 62
7
100
AcDbPoint
 10
2417.4499360274904
 20
108.55885732903901
 30
0
 50
0
  0
POINT
  5
16E
330
1F
100
AcDbEntity
  8
3
 62
7
100
AcDbPoint
 10
2425.045189018213
 20
184.43238485589436
 30
0
 50
0
  0
POINT
  5
16F
330
1F
100
AcDbEntity
  8
3
 62
7
100
AcDbPoint
 10
2463.3025971603029
 20
515.1376842333359
 30
0
 50
0
  0
POINT
  5
170
330
1F
100
AcDbEntity
  8
3
 62
7
100
AcDbPoint
 10
2477.2101117391353
 20
571.490720275131
 30
0
 50
0
  0
POINT
  5
171
330
1F
100
AcDbEntity
  8
3
 62
7
100
AcDbPoint
 10
2485.5559006881349
 20
603.377418406157
 30
0
 50
0
  0
POINT
  5
172
330
1F
100
AcDbEntity
  8
3
 62
7
100
AcDbPoint
 10
2488.6181562741126
 20
617.16413335384027
 30
0
 50
0
  0
POINT
  5
173
330
1F
100
AcDbEntity
  8
3
 62
7
100
AcDbPoint
 10
2497.0329896163576
 20
660.21459806695407
 30
0
 50
0
  0
POINT
  5
174
330
1F
100
AcDbEntity
  8
3
 62
7
100
AcDbPoint
 10
2498.0140153121583
 20
666.31319273248141
 30
0
 50
0
  0
POINT
  5
175
330
1F
100
AcDbEntity
  8
3
 62
7
100
AcDbPoint
 10
2498.6702958297365
 20
672.45522726312106
 30
0
 50
0
  0
POINT
  5
176
330
1F
100
AcDbEntity
  8
3
 62
7
100
AcDbPoint
 10
2499.0000001144044
 20
678.62342108025973
 30
0
 50
0
  0
POINT
  5
177
330
1F
100
AcDbEntity
  8
3
 62
7
100
AcDbPoint
 10
2499.0021363448732
 20
684.80041731133883
 30
0
 50
0
  0
POINT
  5
178
330
1F
100
AcDbEntity
  8
3
 62
7
100
AcDbPoint
 10
2498.6767426681154
 20
690.96884001031344
 30
0
 50
0
  0
POINT
  5
179
330
1F
100
AcDbEntity
  8
3
 62
7
100
AcDbPoint
 10
2498.0247346114747
 20
697.111332304625
 30
0
 50
0
  0
POINT
  5
17A
330
1F
100
AcDbEntity
  8
3
 62
7
100
AcDbPoint
 10
2495.6013718795411
 20
708.70186079278415
 30
0
 50
0
  0
POINT
  5
17B
330
1F
100
AcDbEntity
  8
3
 62
7
100
AcDbPoint
 10
2493.2274857711427
 20
713.86045683160251
 30
0
 50
0
  0
POINT
  5
17C
330
1F
100
AcDbEntity
  8
3
 62
7
100
AcDbPoint
 10
2489.9977723312013
 20
718.5311340166611
 30
0
 50
0
  0
POINT
  5
17D
330
1F
100
AcDbEntity
  8
3
 62
7
100
AcDbPoint
 10
2486.0093918990724
 20
722.57332075372165
 30
0
 50
0
  0
POINT
  5
17E
330
1F
100
AcDbEntity
  8
3
 62
7
100
AcDbPoint
 10
2481.3823929977052
 20
725.86533773675387
 30
0
 50
0
  0
POINT
  5
17F
330
1F
100
AcDbEntity
  8
3
 62
7
100
AcDbPoint
 10
2476.256069297754
 20
728.30810774102633
 30
0
 50
0
  0
POINT
  5
180
330
1F
100
AcDbEntity
  8
3
 62
7
100
AcDbPoint
 10
2470.7846871566408
 20
729.82812155023043
 30
0
 50
0
  0
POINT
  5
181
330
1F
100
AcDbEntity
  8
3
 62
7
100
AcDbPoint
 10
2193.536411876642
 20
730.72496641412192
 30
0
 50
0
  0
POINT
  5
182
330
1F
100
AcDbEntity
  8
3
 62
7
100
AcDbPoint
 10
2184.2982605647676
 20
729.6460841967147
 30
0
 50
0
  0
POINT
  5
183
330
1F
100
AcDbEntity
  8
3
 62
7
100
AcDbPoint
 10
2175.3334391665094
 20
727.168304808287
 30
0
 50
0
  0
POINT
  5
184
330
1F
100
AcDbEntity
  8
3
 62
7
100
AcDbPoint
 10
2166.8524864863984
 20
723.34981191888266
 30
0
 50
0
  0
POINT
  5
185
330
1F
100
AcDbEntity
  8
3
 62
7
100
AcDbPoint
 10
2159.0545788955324
 20
718.28028906121665
 30
0
 50
0
  0
POINT
  5
186
330
1F
100
AcDbEntity
  8
3
 62
7
100
AcDbPoint
 10
2152.1228507709138
 20
712.07879293694907
 30
0
 50
0
  0
POINT
  5
187
330
1F
100
AcDbEntity
  8
3
 62
7
100
AcDbPoint
 10
2146.2200943183534
 20
704.89095915093833
 30
0
 50
0
  0
POINT
  5
188
330
1F
100
AcDbEntity
  8
3
 62
7
100
AcDbPoint
 10
2124.3385544967286
 20
672.72775877252036
 30
0
 50
0
  0
POINT
  5
189
330
1F
100
AcDbEntity
  8
3
 62
7
100
AcDbPoint
 10
2076.4422360610597
 20
620.54069746270591
 30
0
 50
0
  0
POINT
  5
18A
330
1F
100
AcDbEntity
  8
3
 62
7
100
AcDbPoint
 10
2040.6513444137213
 20
578.86834073796683
 30
0
 50
0
  0
POINT
  5
18B
330
1F
100
AcDbEntity
  8
3
 62
7
100
AcDbPoint
 10
2035.023826713526
 20
566.0706435514968
 30
0
 50
0
  0
POINT
  5
18C
330
1F
100
AcDbEntity
  8
3
 62
7
100
AcDbPoint
 10
2030.1778451156256
 20
552.95704353585654
 30
0
 50
0
  0
POINT
  5
18D
330
1F
100
AcDbEntity
  8
3
 62
7
100
AcDbPoint
 10
2026.1310235213873
 20
539.57521904244834
 30
0
 50
0
  0
POINT
  5
18E
330
1F
100
AcDbEntity
  8
3
 62
7
100
AcDbPoint
 10
2022.8980675887701
 20
525.97382295861655
 30
0
 50
0
  0
POINT
  5
18F
330
1F
100
AcDbEntity
  8
3
 62
7
100
AcDbPoint
 10
2020.4907456588385
 20
512.20230329766684
 30
0
 50
0
  0
POINT
  5
190
330
1F
100
AcDbEntity
  8
3
 62
7
100
AcDbPoint
 10
2018.9177933883307
 20
498.31073034539645
 30
0
 50
0
  0
POINT
  5
191
330
1F
100
AcDbEntity
  8
3
 62
7
100
AcDbPoint
 10
2013.8977022458803
 20
414.89546558460012
 30
0
 50
0
  0
POINT
  5
192
330
1F
100
AcDbEntity
  8
3
 62
7
100
AcDbPoint
 10
2011.4327342735887
 20
360.32196453091751
 30
0
 50
0
  0
POINT
  5
193
330
1F
100
AcDbEntity
  8
3
 62
7
100
AcDbPoint
 10
2010.5010834884283
 20
310.70622671380465
 30
0
 50
0
  0
POINT
  5
194
330
1F
100
AcDbEntity
  8
3
 62
7
100
AcDbPoint
 10
2010.9190727740602
 20
271.01056002457233
 30
0
 50
0
  0
POINT
  5
195
330
1F
100
AcDbEntity
  8
3
 62
7
100
AcDbPoint
 10
2012.6395798169015
 20
221.38780678193129
 30
0
 50
0
  0
POINT
  5
196
330
1F
100
AcDbEntity
  8
3
 62
7
100
AcDbPoint
 10
2017.9775317669933
 20
128.16707237800932
 30
0
 50
0
  0
POINT
  5
197
330
1F
100
AcDbEntity
  8
3
 62
7
100
AcDbPoint
 10
2020.6952038955328
 20
106.19183767571865
 30
0
 50
0
  0
POINT
  5
198
330
1F
100
AcDbEntity
  8
3
 62
7
100
AcDbPoint
 10
2022.4855351799854
 20
97.528098207123378
 30
0
 50
0
  0
POINT
  5
199
330
1F
100
AcDbEntity
  8
3
 62
7
100
AcDbPoint
 10
2029.3759099197027
 20
72.504055388121
 30
0
 50
0
  0
POINT
  5
19A
330
1F
100
AcDbEntity
  8
3
 62
7
100
AcDbPoint
 10
2030.7371560287115
 20
68.984882719663986
 30
0
 50
0
  0
POINT
  5
19B
330
1F
100
AcDbEntity
  8
3
 62
7
100
AcDbPoint
 10
2032.2924367141363
 20
65.547077543882622
 30
0
 50
0
  0
POINT
  5
19C
330
1F
100
AcDbEntity
  8
3
 62
7
100
AcDbPoint
 10
2034.0369263839361
 20
62.201282866148368
 30
0
 50
0
  0
POINT
  5
19D
330
1F
100
AcDbEntity
  8
3
 62
7
100
AcDbPoint
 10
2035.9651890945074
 20
58.957950956968681
 30
0
 50
0
  0
POINT
  5
19E
330
1F
100
AcDbEntity
  8
3
 62
7
100
AcDbPoint
 10
2038.0712262344
 20
55.827114470152274
 30
0
 50
0
  0
POINT
  5
19F
330
1F
100
AcDbEntity
  8
3
 62
7
100
AcDbPoint
 10
2040.3485051345465
 20
52.818577177671806
 30
0
 50
0
  0
POINT
  5
1A0
330
1F
100
AcDbEntity
  8
3
 62
7
100
AcDbPoint
 10
2044.4604054641363
 20
49.205944426206962
 30
0
 50
0
  0
POINT
  5
1A1
330
1F
100
AcDbEntity
  8
3
 62
7
100
AcDbPoint
 10
2046.0953370284674
 20
48.3944057299179
 30
0
 50
0
  0
POINT
  5
1A2
330
1F
100
AcDbEntity
  8
3
 62
7
100
AcDbPoint
 10
2049.2449132156007
 20
46.550571806578056
 30
0
 50
0
  0
POINT
  5
1A3
330
1F
100
AcDbEntity
  8
3
 62
7
100
AcDbPoint
 10
2052.2121182632081
 20
44.425670988706962
 30
0
 50
0
  0
POINT
  5
1A4
330
1F
100
AcDbEntity
  8
3
 62
7
100
AcDbPoint
 10
2053.6194459151857
 20
43.263332731871024
 30
0
 50
0
  0
POINT
  5
1A5
330
1F
100
AcDbEntity
  8
2
 62
7
100
AcDbPoint
 10
2054.97193729397
 20
42.0375942064804
 30
0
 50
0
  0
ENDSEC
  0
SECTION
  2
OBJECTS
  0
DICTIONARY
  5
C
330
0
100
AcDbDictionary
280
0
281
1
  3
ACAD_SCALELIST
350
1AB
  3
ACAD_COLOR
350
1BD
  3
ACAD_FIELDLIST
350
1BE
  3
ACAD_GROUP
350
D
  3
ACAD_IMAGE_DICT
350
1BF
  3
ACAD_LAYOUT
350
1A
  3
ACAD_MATERIAL
350
1C0
  3
ACAD_MLEADERSTYLE
350
1C1
  3
ACAD_MLINESTYLE
350
17
  3
ACAD_PLOTSETTINGS
350
19
  3
ACAD_PLOTSTYLENAME
350
E
  3
ACAD_TABLESTYLE
350
1C3
  3
ACDB_RECOMPOSE_DATA
350
1C7
  3
AcDbVariableDictionary
350
1C8
  3
ACAD_VISUALSTYLE
350
1CB
  3
DWGPROPS
350
1CC
  0
DICTIONARY
  5
1C5
330
1C4
100
AcDbDictionary
280
0
281
1
  3
ACAD_ROUNDTRIP_2008_TABLESTYLE_CELLSTYLEMAP
360
1C6
  0
DICTIONARY
  5
1AB
102
{ACAD_REACTORS
330
C
102
}
330
C
100
AcDbDictionary
280
0
281
1
  0
DICTIONARY
  5
1BD
102
{ACAD_REACTORS
330
C
102
}
330
C
100
AcDbDictionary
280
0
281
1
  0
FIELDLIST
  5
1BE
102
{ACAD_REACTORS
330
C
102
}
330
C
100
AcDbIdSet
100
AcDbFieldList
  0
DICTIONARY
  5
D
102
{ACAD_REACTORS
330
C
102
}
330
C
100
AcDbDictionary
280
0
281
1
  0
DICTIONARY
  5
1BF
102
{ACAD_REACTORS
330
C
102
}
330
C
100
AcDbDictionary
280
0
281
1
  0
DICTIONARY
  5
1A
102
{ACAD_REACTORS
330
C
102
}
330
C
100
AcDbDictionary
280
0
281
1
  3
Layout1
350
1E
  3
Model
350
22
  0
DICTIONARY
  5
1C0
102
{ACAD_REACTORS
330
C
102
}
330
C
100
AcDbDictionary
280
0
281
1
  0
DICTIONARY
  5
1C1
102
{ACAD_REACTORS
330
C
102
}
330
C
100
AcDbDictionary
280
0
281
1
  3
Standard
350
1C2
  0
DICTIONARY
  5
17
102
{ACAD_REACTORS
330
C
102
}
330
C
100
AcDbDictionary
280
0
281
1
  3
STANDARD
350
18
  0
DICTIONARY
  5
19
102
{ACAD_REACTORS
330
C
102
}
330
C
100
AcDbDictionary
280
0
281
1
  0
ACDBDICTIONARYWDFLT
  5
E
102
{ACAD_REACTORS
330
C
102
}
330
C
100
AcDbDictionary
280
0
281
1
  3
Normal
350
F
100
AcDbDictionaryWithDefault
340
F
  0
ACDBPLACEHOLDER
  5
F
102
{ACAD_REACTORS
330
E
102
}
330
E
  0
DICTIONARY
  5
1C3
102
{ACAD_REACTORS
330
C
102
}
330
C
100
AcDbDictionary
280
0
281
1
  3
Standard
350
1C4
  0
XRECORD
  5
1C7
102
{ACAD_REACTORS
330
C
102
}
330
C
100
AcDbXrecord
280
1
 90
1
330
1C4
  0
DICTIONARY
  5
1C8
102
{ACAD_REACTORS
330
C
102
}
330
C
100
AcDbDictionary
280
0
281
1
  3
DIMASSOC
350
1C9
  3
HIDETEXT
350
1CA
  0
DICTIONARY
  5
1CB
102
{ACAD_REACTORS
330
C
102
}
330
C
100
AcDbDictionary
280
0
281
1
  0
XRECORD
  5
1CC
102
{ACAD_REACTORS
330
C
102
}
330
C
100
AcDbXrecord
280
0
  1
DWGPROPS COOKIE
  2

  3

  4

  6

  7

  8

  9

300
=
301
=
302
=
303
=
304
=
305
=
306
=
307
=
308
=
309
=
 40
0
 41
2460962.9612866202
 42
2460962.9612866202
  1

 90
0
  0
CELLSTYLEMAP
  5
1C6
102
{ACAD_REACTORS
330
1C5
102
}
330
1C5
100
AcDbCellStyleMap
 90
3
300
CELLSTYLE
  1
TABLEFORMAT_BEGIN
 90
5
170
0
309
TABLEFORMAT_END
  1
CELLSTYLE_BEGIN
 90
3
 91
2
300
_DATA
309
CELLSTYLE_END
300
CELLSTYLE
  1
TABLEFORMAT_BEGIN
 90
5
170
0
309
TABLEFORMAT_END
  1
CELLSTYLE_BEGIN
 90
1
 91
2
300
_TITLE
309
CELLSTYLE_END
300
CELLSTYLE
  1
TABLEFORMAT_BEGIN
 90
5
170
0
309
TABLEFORMAT_END
  1
CELLSTYLE_BEGIN
 90
2
 91
2
300
_HEADER
309
CELLSTYLE_END
  0
LAYOUT
  5
1E
102
{ACAD_REACTORS
330
1A
102
}
330
1A
100
AcDbPlotSettings
  1

  2
C:\Program Files\AutoCAD 2002\plotters\DWF ePlot (optimized for plotting).pc3
  4

  6

 40
0
 41
0
 42
0
 43
0
 44
0
 45
0
 46
0
 47
0
 48
0
 49
0
140
0
141
0
142
1
143
1
 70
688
 72
1
 73
1
 74
1
  7
acad.stb
 75
16
 76
0
 77
0
 78
0
147
1
148
0
149
0
100
AcDbLayout
  1
Layout1
 70
1
 71
1
 10
0
 20
0
 11
420
 21
297
 12
0
 22
0
 32
0
 14
0
 24
0
 34
0
 15
0
 25
0
 35
0
146
0
 13
0
 23
0
 33
0
 16
1
 26
0
 36
0
 17
0
 27
1
 37
0
 76
0
330
1A6
  0
LAYOUT
  5
22
102
{ACAD_REACTORS
330
1A
102
}
330
1A
100
AcDbPlotSettings
  1

  2
C:\Program Files\AutoCAD 2002\plotters\DWF ePlot (optimized for plotting).pc3
  4

  6

 40
0
 41
0
 42
0
 43
0
 44
0
 45
0
 46
0
 47
0
 48
0
 49
0
140
0
141
0
142
1
143
1
 70
1712
 72
1
 73
1
 74
0
  7
acad.stb
 75
0
 76
0
 77
0
 78
0
147
1
148
0
149
0
100
AcDbLayout
  1
Model
 70
1
 71
0
 10
0
 20
0
 11
12
 21
9
 12
0
 22
0
 32
0
 14
0
 24
0
 34
0
 15
0
 25
0
 35
0
146
0
 13
0
 23
0
 33
0
 16
1
 26
0
 36
0
 17
0
 27
1
 37
0
 76
0
330
1F
  0
MLEADERSTYLE
  5
1C2
102
{ACAD_REACTORS
330
1C1
102
}
330
1C1
100
AcDbMLeaderStyle
170
2
171
1
172
0
 90
2
 40
0
 41
0
173
1
 91
0
340
0
 92
-2
290
1
 42
0.09
292
1
 43
0.36
  3
Standard
341
0
 44
0.18
300

342
0
174
1
178
1
175
1
176
0
 93
0
 45
0.18
292
0
297
0
 46
0
343
0
 94
0
 47
1
 49
1
140
1
293
1
141
0
294
1
177
0
142
1
295
0
296
0
143
0.125
  0
MLINESTYLE
  5
18
102
{ACAD_REACTORS
330
17
102
}
330
17
100
AcDbMlineStyle
  2
STANDARD
 70
0
  3

 51
90
 52
90
 71
2
 49
0.5
 62
0
  6
ByLayer
 49
-0.5
 62
0
  6
ByLayer
  0
TABLESTYLE
  5
1C4
102
{ACAD_XDICTIONARY
360
1C5
102
}
102
{ACAD_REACTORS
330
1C3
102
}
330
1C3
100
AcDbTableStyle
  3

 70
0
 71
0
 40
0.06
 41
0.06
280
0
281
0
  7
Standard
140
0.18
170
1
 62
0
283
0
 90
512
 91
0
274
-2
284
1
 64
0
275
-2
285
1
 65
0
276
-2
286
1
 66
0
277
-2
287
1
 67
0
278
-2
288
1
 68
0
279
-2
289
1
 69
0
  7
Standard
140
0.18
170
1
 62
0
283
0
 90
512
 91
0
274
-2
284
1
 64
0
275
-2
285
1
 65
0
276
-2
286
1
 66
0
277
-2
287
1
 67
0
278
-2
288
1
 68
0
279
-2
289
1
 69
0
  7
Standard
140
0.18
170
1
 62
0
283
0
 90
512
 91
0
274
-2
284
1
 64
0
275
-2
285
1
 65
0
276
-2
286
1
 66
0
277
-2
287
1
 67
0
278
-2
288
1
 68
0
279
-2
289
1
 69
0
  0
DICTIONARYVAR
  5
1C9
102
{ACAD_REACTORS
330
1C8
102
}
330
1C8
100
DictionaryVariables
280
0
  1
1
  0
DICTIONARYVAR
  5
1CA
102
{ACAD_REACTORS
330
1C8
102
}
330
1C8
100
DictionaryVariables
280
0
  1
2
  0
ENDSEC
999
Created By CadLib version 4.0.38.30
999
CadLib website: www.woutware.com
  0
EOF
