  0
SECTION
  2
HEADER
  9
$ACADVER
  1
AC1027
  9
$ACADMAINTVER
 70
105
  9
$DWGCODEPAGE
  3
ANSI_1252
  9
$LASTSAVEDBY
  1
ezdxf
  9
$REQUIREDVERSIONS
160
0
  9
$INSBASE
 10
0.0
 20
0.0
 30
0.0
  9
$EXTMIN
 10
1e+20
 20
1e+20
 30
1e+20
  9
$EXTMAX
 10
-1e+20
 20
-1e+20
 30
-1e+20
  9
$LIMMIN
 10
0.0
 20
0.0
  9
$LIMMAX
 10
420.0
 20
297.0
  9
$ORTHOMODE
 70
0
  9
$REGENMODE
 70
1
  9
$FILLMODE
 70
1
  9
$QTEXTMODE
 70
0
  9
$MIRRTEXT
 70
1
  9
$LTSCALE
 40
1.0
  9
$ATTMODE
 70
1
  9
$TEXTSIZE
 40
2.5
  9
$TRACEWID
 40
1.0
  9
$TEXTSTYLE
  7
Standard
  9
$CLAYER
  8
0
  9
$CELTYPE
  6
ByLayer
  9
$CECOLOR
 62
256
  9
$CELTSCALE
 40
1.0
  9
$DISPSILH
 70
0
  9
$DIMSCALE
 40
1.0
  9
$DIMASZ
 40
2.5
  9
$DIMEXO
 40
0.625
  9
$DIMDLI
 40
3.75
  9
$DIMRND
 40
0.0
  9
$DIMDLE
 40
0.0
  9
$DIMEXE
 40
1.25
  9
$DIMTP
 40
0.0
  9
$DIMTM
 40
0.0
  9
$DIMTXT
 40
2.5
  9
$DIMCEN
 40
2.5
  9
$DIMTSZ
 40
0.0
  9
$DIMTOL
 70
0
  9
$DIMLIM
 70
0
  9
$DIMTIH
 70
0
  9
$DIMTOH
 70
0
  9
$DIMSE1
 70
0
  9
$DIMSE2
 70
0
  9
$DIMTAD
 70
1
  9
$DIMZIN
 70
8
  9
$DIMBLK
  1

  9
$DIMASO
 70
1
  9
$DIMSHO
 70
1
  9
$DIMPOST
  1

  9
$DIMAPOST
  1

  9
$DIMALT
 70
0
  9
$DIMALTD
 70
3
  9
$DIMALTF
 40
0.03937007874
  9
$DIMLFAC
 40
1.0
  9
$DIMTOFL
 70
1
  9
$DIMTVP
 40
0.0
  9
$DIMTIX
 70
0
  9
$DIMSOXD
 70
0
  9
$DIMSAH
 70
0
  9
$DIMBLK1
  1

  9
$DIMBLK2
  1

  9
$DIMSTYLE
  2
ISO-25
  9
$DIMCLRD
 70
0
  9
$DIMCLRE
 70
0
  9
$DIMCLRT
 70
0
  9
$DIMTFAC
 40
1.0
  9
$DIMGAP
 40
0.625
  9
$DIMJUST
 70
0
  9
$DIMSD1
 70
0
  9
$DIMSD2
 70
0
  9
$DIMTOLJ
 70
0
  9
$DIMTZIN
 70
8
  9
$DIMALTZ
 70
0
  9
$DIMALTTZ
 70
0
  9
$DIMUPT
 70
0
  9
$DIMDEC
 70
2
  9
$DIMTDEC
 70
2
  9
$DIMALTU
 70
2
  9
$DIMALTTD
 70
3
  9
$DIMTXSTY
  7
Standard
  9
$DIMAUNIT
 70
0
  9
$DIMADEC
 70
0
  9
$DIMALTRND
 40
0.0
  9
$DIMAZIN
 70
0
  9
$DIMDSEP
 70
44
  9
$DIMATFIT
 70
3
  9
$DIMFRAC
 70
0
  9
$DIMLDRBLK
  1

  9
$DIMLUNIT
 70
2
  9
$DIMLWD
 70
-2
  9
$DIMLWE
 70
-2
  9
$DIMTMOVE
 70
0
  9
$DIMFXL
 40
1.0
  9
$DIMFXLON
 70
0
  9
$DIMJOGANG
 40
0.785398163397
  9
$DIMTFILL
 70
0
  9
$DIMTFILLCLR
 70
0
  9
$DIMARCSYM
 70
0
  9
$DIMLTYPE
  6

  9
$DIMLTEX1
  6

  9
$DIMLTEX2
  6

  9
$DIMTXTDIRECTION
 70
0
  9
$LUNITS
 70
2
  9
$LUPREC
 70
4
  9
$SKETCHINC
 40
1.0
  9
$FILLETRAD
 40
10.0
  9
$AUNITS
 70
0
  9
$AUPREC
 70
2
  9
$MENU
  1
.
  9
$ELEVATION
 40
0.0
  9
$PELEVATION
 40
0.0
  9
$THICKNESS
 40
0.0
  9
$LIMCHECK
 70
0
  9
$CHAMFERA
 40
0.0
  9
$CHAMFERB
 40
0.0
  9
$CHAMFERC
 40
0.0
  9
$CHAMFERD
 40
0.0
  9
$SKPOLY
 70
0
  9
$TDCREATE
 40
2460972.6881597224
  9
$TDUCREATE
 40
2458532.153996898
  9
$TDUPDATE
 40
2460972.6881712964
  9
$TDUUPDATE
 40
2458532.1544311
  9
$TDINDWG
 40
0.0
  9
$TDUSRTIMER
 40
0.0
  9
$USRTIMER
 70
1
  9
$ANGBASE
 50
0.0
  9
$ANGDIR
 70
0
  9
$PDMODE
 70
0
  9
$PDSIZE
 40
0.0
  9
$PLINEWID
 40
0.0
  9
$SPLFRAME
 70
0
  9
$SPLINETYPE
 70
6
  9
$SPLINESEGS
 70
8
  9
$HANDSEED
  5
3E
  9
$SURFTAB1
 70
6
  9
$SURFTAB2
 70
6
  9
$SURFTYPE
 70
6
  9
$SURFU
 70
6
  9
$SURFV
 70
6
  9
$UCSBASE
  2

  9
$UCSNAME
  2

  9
$UCSORG
 10
0.0
 20
0.0
 30
0.0
  9
$UCSXDIR
 10
1.0
 20
0.0
 30
0.0
  9
$UCSYDIR
 10
0.0
 20
1.0
 30
0.0
  9
$UCSORTHOREF
  2

  9
$UCSORTHOVIEW
 70
0
  9
$UCSORGTOP
 10
0.0
 20
0.0
 30
0.0
  9
$UCSORGBOTTOM
 10
0.0
 20
0.0
 30
0.0
  9
$UCSORGLEFT
 10
0.0
 20
0.0
 30
0.0
  9
$UCSORGRIGHT
 10
0.0
 20
0.0
 30
0.0
  9
$UCSORGFRONT
 10
0.0
 20
0.0
 30
0.0
  9
$UCSORGBACK
 10
0.0
 20
0.0
 30
0.0
  9
$PUCSBASE
  2

  9
$PUCSNAME
  2

  9
$PUCSORG
 10
0.0
 20
0.0
 30
0.0
  9
$PUCSXDIR
 10
1.0
 20
0.0
 30
0.0
  9
$PUCSYDIR
 10
0.0
 20
1.0
 30
0.0
  9
$PUCSORTHOREF
  2

  9
$PUCSORTHOVIEW
 70
0
  9
$PUCSORGTOP
 10
0.0
 20
0.0
 30
0.0
  9
$PUCSORGBOTTOM
 10
0.0
 20
0.0
 30
0.0
  9
$PUCSORGLEFT
 10
0.0
 20
0.0
 30
0.0
  9
$PUCSORGRIGHT
 10
0.0
 20
0.0
 30
0.0
  9
$PUCSORGFRONT
 10
0.0
 20
0.0
 30
0.0
  9
$PUCSORGBACK
 10
0.0
 20
0.0
 30
0.0
  9
$USERI1
 70
0
  9
$USERI2
 70
0
  9
$USERI3
 70
0
  9
$USERI4
 70
0
  9
$USERI5
 70
0
  9
$USERR1
 40
0.0
  9
$USERR2
 40
0.0
  9
$USERR3
 40
0.0
  9
$USERR4
 40
0.0
  9
$USERR5
 40
0.0
  9
$WORLDVIEW
 70
1
  9
$SHADEDGE
 70
3
  9
$SHADEDIF
 70
70
  9
$TILEMODE
 70
1
  9
$MAXACTVP
 70
64
  9
$PINSBASE
 10
0.0
 20
0.0
 30
0.0
  9
$PLIMCHECK
 70
0
  9
$PEXTMIN
 10
1e+20
 20
1e+20
 30
1e+20
  9
$PEXTMAX
 10
-1e+20
 20
-1e+20
 30
-1e+20
  9
$PLIMMIN
 10
0.0
 20
0.0
  9
$PLIMMAX
 10
420.0
 20
297.0
  9
$UNITMODE
 70
0
  9
$VISRETAIN
 70
1
  9
$PLINEGEN
 70
0
  9
$PSLTSCALE
 70
1
  9
$TREEDEPTH
 70
3020
  9
$CMLSTYLE
  2
Standard
  9
$CMLJUST
 70
0
  9
$CMLSCALE
 40
20.0
  9
$PROXYGRAPHICS
 70
1
  9
$MEASUREMENT
 70
1
  9
$CELWEIGHT
370
-1
  9
$ENDCAPS
280
0
  9
$JOINSTYLE
280
0
  9
$LWDISPLAY
290
0
  9
$INSUNITS
 70
6
  9
$HYPERLINKBASE
  1

  9
$STYLESHEET
  1

  9
$XEDIT
290
1
  9
$CEPSNTYPE
380
0
  9
$PSTYLEMODE
290
1
  9
$FINGERPRINTGUID
  2
{21D1285A-C96F-4BCB-A0A6-94F5D74A7583}
  9
$VERSIONGUID
  2
{F9F5BCBE-2D3B-48D6-A92E-B3132F1D7D1C}
  9
$EXTNAMES
290
1
  9
$PSVPSCALE
 40
0.0
  9
$OLESTARTUP
290
0
  9
$SORTENTS
280
127
  9
$INDEXCTL
280
0
  9
$HIDETEXT
280
1
  9
$XCLIPFRAME
280
1
  9
$HALOGAP
280
0
  9
$OBSCOLOR
 70
257
  9
$OBSLTYPE
280
0
  9
$INTERSECTIONDISPLAY
280
0
  9
$INTERSECTIONCOLOR
 70
257
  9
$DIMASSOC
280
2
  9
$PROJECTNAME
  1

  9
$CAMERADISPLAY
290
0
  9
$LENSLENGTH
 40
50.0
  9
$CAMERAHEIGHT
 40
0.0
  9
$STEPSPERSEC
 40
24.0
  9
$STEPSIZE
 40
100.0
  9
$3DDWFPREC
 40
2.0
  9
$PSOLWIDTH
 40
0.005
  9
$PSOLHEIGHT
 40
0.08
  9
$LOFTANG1
 40
1.570796326795
  9
$LOFTANG2
 40
1.570796326795
  9
$LOFTMAG1
 40
0.0
  9
$LOFTMAG2
 40
0.0
  9
$LOFTPARAM
 70
7
  9
$LOFTNORMALS
280
1
  9
$LATITUDE
 40
37.795
  9
$LONGITUDE
 40
-122.394
  9
$NORTHDIRECTION
 40
0.0
  9
$TIMEZONE
 70
-8000
  9
$LIGHTGLYPHDISPLAY
280
1
  9
$TILEMODELIGHTSYNCH
280
1
  9
$CMATERIAL
347
20
  9
$SOLIDHIST
280
0
  9
$SHOWHIST
280
1
  9
$DWFFRAME
280
2
  9
$DGNFRAME
280
2
  9
$REALWORLDSCALE
290
1
  9
$INTERFERECOLOR
 62
256
  9
$CSHADOW
280
0
  9
$SHADOWPLANELOCATION
 40
0.0
  0
ENDSEC
  0
SECTION
  2
CLASSES
  0
CLASS
  1
ACDBDICTIONARYWDFLT
  2
AcDbDictionaryWithDefault
  3
ObjectDBX Classes
 90
0
 91
0
280
0
281
0
  0
CLASS
  1
SUN
  2
AcDbSun
  3
SCENEOE
 90
1153
 91
0
280
0
281
0
  0
CLASS
  1
VISUALSTYLE
  2
AcDbVisualStyle
  3
ObjectDBX Classes
 90
4095
 91
0
280
0
281
0
  0
CLASS
  1
MATERIAL
  2
AcDbMaterial
  3
ObjectDBX Classes
 90
1153
 91
0
280
0
281
0
  0
CLASS
  1
SCALE
  2
AcDbScale
  3
ObjectDBX Classes
 90
1153
 91
0
280
0
281
0
  0
CLASS
  1
TABLESTYLE
  2
AcDbTableStyle
  3
ObjectDBX Classes
 90
4095
 91
0
280
0
281
0
  0
CLASS
  1
MLEADERSTYLE
  2
AcDbMLeaderStyle
  3
ACDB_MLEADERSTYLE_CLASS
 90
4095
 91
0
280
0
281
0
  0
CLASS
  1
DICTIONARYVAR
  2
AcDbDictionaryVar
  3
ObjectDBX Classes
 90
0
 91
0
280
0
281
0
  0
CLASS
  1
CELLSTYLEMAP
  2
AcDbCellStyleMap
  3
ObjectDBX Classes
 90
1152
 91
0
280
0
281
0
  0
CLASS
  1
MENTALRAYRENDERSETTINGS
  2
AcDbMentalRayRenderSettings
  3
SCENEOE
 90
1024
 91
0
280
0
281
0
  0
CLASS
  1
ACDBDETAILVIEWSTYLE
  2
AcDbDetailViewStyle
  3
ObjectDBX Classes
 90
1025
 91
0
280
0
281
0
  0
CLASS
  1
ACDBSECTIONVIEWSTYLE
  2
AcDbSectionViewStyle
  3
ObjectDBX Classes
 90
1025
 91
0
280
0
281
0
  0
CLASS
  1
RASTERVARIABLES
  2
AcDbRasterVariables
  3
ISM
 90
0
 91
0
280
0
281
0
  0
CLASS
  1
ACDBPLACEHOLDER
  2
AcDbPlaceHolder
  3
ObjectDBX Classes
 90
0
 91
0
280
0
281
0
  0
CLASS
  1
LAYOUT
  2
AcDbLayout
  3
ObjectDBX Classes
 90
0
 91
0
280
0
281
0
  0
ENDSEC
  0
SECTION
  2
TABLES
  0
TABLE
  2
VPORT
  5
8
330
0
100
AcDbSymbolTable
 70
1
  0
VPORT
  5
23
330
8
100
AcDbSymbolTableRecord
100
AcDbViewportTableRecord
  2
*Active
 70
0
 10
0.0
 20
0.0
 11
1.0
 21
1.0
 12
0.0
 22
0.0
 13
0.0
 23
0.0
 14
0.5
 24
0.5
 15
0.5
 25
0.5
 16
0.0
 26
0.0
 36
1.0
 17
0.0
 27
0.0
 37
0.0
 40
1000.0
 41
1.34
 42
50.0
 43
0.0
 44
0.0
 50
0.0
 51
0.0
 71
0
 72
1000
 73
1
 74
3
 75
0
 76
0
 77
0
 78
0
281
0
 65
0
146
0.0
  0
ENDTAB
  0
TABLE
  2
LTYPE
  5
2
330
0
100
AcDbSymbolTable
 70
3
  0
LTYPE
  5
24
330
2
100
AcDbSymbolTableRecord
100
AcDbLinetypeTableRecord
  2
ByBlock
 70
0
  3

 72
65
 73
0
 40
0.0
  0
LTYPE
  5
25
330
2
100
AcDbSymbolTableRecord
100
AcDbLinetypeTableRecord
  2
ByLayer
 70
0
  3

 72
65
 73
0
 40
0.0
  0
LTYPE
  5
26
330
2
100
AcDbSymbolTableRecord
100
AcDbLinetypeTableRecord
  2
Continuous
 70
0
  3

 72
65
 73
0
 40
0.0
  0
ENDTAB
  0
TABLE
  2
LAYER
  5
1
330
0
100
AcDbSymbolTable
 70
2
  0
LAYER
  5
27
330
1
100
AcDbSymbolTableRecord
100
AcDbLayerTableRecord
  2
0
 70
0
 62
7
  6
Continuous
370
-3
390
13
347
21
  0
LAYER
  5
28
330
1
100
AcDbSymbolTableRecord
100
AcDbLayerTableRecord
  2
Defpoints
 70
0
 62
7
  6
Continuous
290
0
370
-3
390
13
347
21
  0
ENDTAB
  0
TABLE
  2
STYLE
  5
5
330
0
100
AcDbSymbolTable
 70
1
  0
STYLE
  5
29
330
5
100
AcDbSymbolTableRecord
100
AcDbTextStyleTableRecord
  2
Standard
 70
0
 40
0.0
 41
1.0
 50
0.0
 71
0
 42
2.5
  3
txt
  4

  0
ENDTAB
  0
TABLE
  2
VIEW
  5
7
330
0
100
AcDbSymbolTable
 70
0
  0
ENDTAB
  0
TABLE
  2
UCS
  5
6
330
0
100
AcDbSymbolTable
 70
0
  0
ENDTAB
  0
TABLE
  2
APPID
  5
3
330
0
100
AcDbSymbolTable
 70
3
  0
APPID
  5
2A
330
3
100
AcDbSymbolTableRecord
100
AcDbRegAppTableRecord
  2
ACAD
 70
0
  0
APPID
  5
3B
330
3
100
AcDbSymbolTableRecord
100
AcDbRegAppTableRecord
  2
HATCHBACKGROUNDCOLOR
 70
0
  0
APPID
  5
3C
330
3
100
AcDbSymbolTableRecord
100
AcDbRegAppTableRecord
  2
EZDXF
 70
0
  0
ENDTAB
  0
TABLE
  2
DIMSTYLE
  5
4
330
0
100
AcDbSymbolTable
 70
1
100
AcDbDimStyleTable
  0
DIMSTYLE
105
2B
330
4
100
AcDbSymbolTableRecord
100
AcDbDimStyleTableRecord
  2
Standard
 70
0
 40
1.0
 41
2.5
 42
0.625
 43
3.75
 44
1.25
 45
0.0
 46
0.0
 47
0.0
 48
0.0
 49
2.5
140
2.5
141
2.5
142
0.0
143
0.03937007874
144
1.0
145
0.0
146
1.0
147
0.625
148
0.0
 69
0
 70
0
 71
0
 72
0
 73
0
 74
0
 75
0
 76
0
 77
1
 78
8
 79
3
170
0
171
3
172
1
173
0
174
0
175
0
176
0
177
0
178
0
179
2
271
2
272
2
273
2
274
3
275
0
276
0
277
2
278
44
279
0
280
0
281
0
282
0
283
0
284
8
285
0
286
0
288
0
289
3
290
0
371
-2
372
-2
  0
ENDTAB
  0
TABLE
  2
BLOCK_RECORD
  5
9
330
0
100
AcDbSymbolTable
 70
2
  0
BLOCK_RECORD
  5
17
330
9
100
AcDbSymbolTableRecord
100
AcDbBlockTableRecord
  2
*Model_Space
340
1A
 70
0
280
1
281
0
  0
BLOCK_RECORD
  5
1B
330
9
100
AcDbSymbolTableRecord
100
AcDbBlockTableRecord
  2
*Paper_Space
340
1E
 70
0
280
1
281
0
  0
ENDTAB
  0
ENDSEC
  0
SECTION
  2
BLOCKS
  0
BLOCK
  5
18
330
17
100
AcDbEntity
  8
0
100
AcDbBlockBegin
  2
*Model_Space
 70
0
 10
0.0
 20
0.0
 30
0.0
  3
*Model_Space
  1

  0
ENDBLK
  5
19
330
17
100
AcDbEntity
  8
0
100
AcDbBlockEnd
  0
BLOCK
  5
1C
330
1B
100
AcDbEntity
  8
0
100
AcDbBlockBegin
  2
*Paper_Space
 70
0
 10
0.0
 20
0.0
 30
0.0
  3
*Paper_Space
  1

  0
ENDBLK
  5
1D
330
1B
100
AcDbEntity
  8
0
100
AcDbBlockEnd
  0
ENDSEC
  0
SECTION
  2
ENTITIES
  0
CIRCLE
  5
2F
330
17
100
AcDbEntity
  8
0
100
AcDbCircle
 10
6.9999998807907104
 20
942.7536664416518
 30
0.0
 40
6.999999880790653
  0
CIRCLE
  5
30
330
17
100
AcDbEntity
  8
0
100
AcDbCircle
 10
16.6019505344766
 20
1953.858933301172
 30
0.0
 40
6.999999880790613
  0
CIRCLE
  5
31
330
17
100
AcDbEntity
  8
0
100
AcDbCircle
 10
15.341267650714599
 20
944.805668394777
 30
0.0
 40
6.999999880790653
  0
CIRCLE
  5
32
330
17
100
AcDbEntity
  8
0
100
AcDbCircle
 10
19.508237911944434
 20
1955.7759712650395
 30
0.0
 40
6.999999880790692
  0
LWPOLYLINE
  5
33
330
17
100
AcDbEntity
  8
0
100
AcDbPolyline
 90
73
 70
0
 10
2511.641801384751
 20
1350.044682119767
 10
2512.1497855461275
 20
1358.93475780336
 10
2511.895783928696
 20
1366.5546918853915
 10
2510.625794915024
 20
1372.6507307037507
 10
2507.8317961967623
 20
1377.9847455963293
 10
2504.275792626206
 20
1382.556736563126
 10
2499.1957984245455
 20
1386.6207624420315
 10
2494.877790001694
 20
1388.144810293595
 10
2241.1317954338233
 20
1396.272709463517
 10
2236.3057837761085
 20
1395.5106855377346
 10
2231.479810265366
 20
1394.240696524064
 10
2227.1618018425143
 20
1392.462742422501
 10
2222.843793419663
 20
1389.922764395157
 10
2215.985806969468
 20
1385.0967145904701
 10
2212.6838050163424
 20
1381.794712637345
 10
2209.8898062980807
 20
1378.2388044342201
 10
2204.3018088615577
 20
1367.316715811173
 10
2199.475797203843
 20
1356.1407209381257
 10
2192.363790062729
 20
1335.8207441314853
 10
2181.949780968491
 20
1308.8967634185947
 10
2161.1218009269874
 20
1266.9868207916418
 10
2147.1518073356783
 20
1251.7468000396893
 10
2130.3878150261085
 20
1235.9988141998451
 10
2121.2437567985694
 20
1228.632786367814
 10
2104.7338233268897
 20
1218.2188154205478
 10
2077.555783776108
 20
1203.9947248443762
 10
2070.189755944077
 20
1198.9147687896893
 10
2064.0937934196627
 20
1193.5807538971096
 10
2058.50579598314
 20
1187.738773916642
 10
2050.3778205192725
 20
1177.8327680572668
 10
2047.0758185661477
 20
1171.7367292389072
 10
2044.535764244859
 20
1165.6406904205476
 10
2040.4718146598975
 20
1150.9087873443757
 10
2033.7497650975404
 20
1106.6079385758724
 10
2029.2958197868509
 20
1071.152775381485
 10
2025.4857764518897
 20
1031.020786856095
 10
2022.6918158806009
 20
990.8887983307038
 10
2020.3235024192215
 20
930.4014459025765
 10
2020.4058203972024
 20
902.7506757721095
 10
2022.4377570427102
 20
833.9167524322661
 10
2024.9778113639998
 20
796.0706830963288
 10
2030.311826256578
 20
735.618717764298
 10
2031.5818152702493
 20
729.2687726959387
 10
2034.6297583854837
 20
720.1247907623446
 10
2038.6937842643902
 20
713.2667280182038
 10
2044.2817817009136
 20
705.9007001861727
 10
2050.1237616813823
 20
700.5666852935947
 10
2057.2358069694683
 20
696.5028120025785
 10
2062.5698218620455
 20
694.4707990631258
 10
2067.9037604606783
 20
693.2008100494531
 10
2076.793759850327
 20
691.6767621978915
 10
2082.8897986686866
 20
691.4227033600006
 10
2099.145825890366
 20
691.6767621978915
 10
2387.943776634995
 20
691.6767621978918
 10
2421.471799401108
 20
692.6926923736727
 10
2426.5517936027686
 20
693.9626813873446
 10
2430.3617987907564
 20
695.4867292389068
 10
2434.679807213608
 20
698.0267072662506
 10
2440.521787194077
 20
702.3447919830481
 10
2444.585774926011
 20
706.6627241119536
 10
2448.1417975700533
 20
712.2507978424231
 10
2450.4277930534518
 20
719.3627668365632
 10
2451.4437995231788
 20
809.2786909088292
 10
2454.7458014763033
 20
960.4087568267975
 10
2456.5566686479947
 20
1003.6507530907865
 10
2459.5717940605323
 20
1040.418675039689
 10
2465.4689344926355
 20
1094.790081700095
 10
2469.7318015373385
 20
1126.778690908829
 10
2476.3357863701026
 20
1167.6727033600005
 10
2483.3295672843083
 20
1218.8671248141763
 10
2489.035790947739
 20
1251.238682363907
 10
2495.893796471421
 20
1285.528690908829
 10
2503.259786156479
 20
1317.5327802642978
  0
LWPOLYLINE
  5
34
330
17
100
AcDbEntity
  8
0
100
AcDbPolyline
 90
16
 70
0
 10
2087.969754723374
 20
744.5087934478912
 10
2088.2238135612647
 20
742.7306867584387
 10
2090.255826500718
 20
739.1747785553134
 10
2093.557828453843
 20
737.3966718658595
 10
2097.3677954948585
 20
737.3966718658595
 10
2100.6697974479835
 20
739.1747785553134
 10
2102.701810387436
 20
742.7306867584387
 10
2102.955792931382
 20
744.5087934478912
 10
2102.701810387436
 20
746.5408063873446
 10
2101.9397864616553
 20
748.3187604889068
 10
2099.145825890366
 20
751.1127973541415
 10
2095.5897650993506
 20
752.1287275299225
 10
2093.557828453843
 20
751.8748212799225
 10
2091.7797980583346
 20
751.1127973541415
 10
2088.9857611931006
 20
748.3187604889062
 10
2088.2238135612647
 20
746.5408063873446
  0
LWPOLYLINE
  5
35
330
17
100
AcDbEntity
  8
0
100
AcDbPolyline
 90
19
 70
0
 10
2375.497792748276
 20
742.2227216705478
 10
2375.7517752922217
 20
740.1907087310946
 10
2377.529805687729
 20
736.88870677797
 10
2379.0537772453463
 20
735.6187177642981
 10
2380.831807640854
 20
734.8566938385167
 10
2382.863782433335
 20
734.6027875885167
 10
2384.8957953727877
 20
734.8566938385167
 10
2386.6737876213233
 20
735.6187177642981
 10
2389.467786339585
 20
738.4127546295316
 10
2390.229810265366
 20
740.1907087310946
 10
2390.229810265366
 20
744.0006757721101
 10
2389.467786339585
 20
745.7787824615633
 10
2386.6737876213233
 20
748.5728193267981
 10
2384.895795372788
 20
749.3346906646885
 10
2382.863782433335
 20
749.5887495025783
 10
2380.831807640854
 20
749.3346906646885
 10
2379.0537772453463
 20
748.5728193267981
 10
2377.529805687729
 20
747.3026777252347
 10
2375.7517752922217
 20
744.0006757721095
  0
LWPOLYLINE
  5
36
330
17
100
AcDbEntity
  8
0
100
AcDbPolyline
 90
74
 70
0
 10
2088.731810384751
 20
1643.9079901000005
 10
2089.098906304616
 20
1616.6042634969015
 10
2088.47780876732
 20
1564.9140020628913
 10
2089.493815237046
 20
1556.024078967188
 10
2093.0497997341167
 20
1538.7520452757813
 10
2096.09780006981
 20
1529.354004504297
 10
2099.907805257798
 20
1520.210022570703
 10
2107.781798177721
 20
1507.509979846094
 10
2111.0838001308452
 20
1503.4459539671882
 10
2117.687804037095
 20
1496.8419500609384
 10
2125.815808111192
 20
1489.7299810667973
 10
2138.5158031520846
 20
1480.5859991332034
 10
2218.017808729173
 20
1446.295990588281
 10
2227.415806585313
 20
1441.470093371484
 10
2239.8618071613323
 20
1430.8020635863284
 10
2245.19580536461
 20
1424.9600836058587
 10
2248.7518065509807
 20
1420.134033801172
 10
2255.355805688859
 20
1409.973969103906
 10
2259.419806533814
 20
1405.401978137109
 10
2265.261806779862
 20
1400.322022082422
 10
2268.817806178094
 20
1398.2900091429692
 10
2275.929806390167
 20
1396.2579962035163
 10
2280.7558064994814
 20
1396.004089953516
 10
2304.885806375504
 20
1396.765961291406
 10
2329.015805059433
 20
1398.035950305078
 10
2352.8918045101173
 20
1399.814056994531
 10
2381.237261120787
 20
1402.9256534032193
 10
2416.899802022935
 20
1408.1960150023438
 10
2424.26581078148
 20
1410.228027941797
 10
2431.37780838585
 20
1412.7680059691415
 10
2449.9198024806988
 20
1423.1819769164065
 10
2462.1118038234717
 20
1433.087982775781
 10
2472.779814535142
 20
1444.7720953246092
 10
2477.60580711937
 20
1451.375946642969
 10
2484.2098110256206
 20
1463.313965441797
 10
2487.5118129787456
 20
1473.7280889769531
 10
2490.559813314439
 20
1487.4440618773444
 10
2488.527800374986
 20
1581.1699529906252
 10
2489.2898052272803
 20
1593.1079717894531
 10
2491.067797475816
 20
1600.9819647093752
 10
2494.369799428941
 20
1607.8400274535163
 10
2505.5458133754737
 20
1622.3180242796882
 10
2510.8798091945655
 20
1632.731995226953
 10
2512.1497982082374
 20
1638.0660101195313
 10
2512.1497982082374
 20
1641.875977160547
 10
2511.641814046861
 20
1645.6859442015632
 10
2509.783125387285
 20
1679.8393121119493
 10
2507.0698040065777
 20
1707.9160162230473
 10
2502.751814657212
 20
1740.4280706664065
 10
2502.2438114223487
 20
1777.003998400781
 10
2503.767802053452
 20
1851.1720892210942
 10
2506.0537975368507
 20
1892.0659490843752
 10
2511.133810811997
 20
1960.9000250121096
 10
2510.879809194565
 20
1969.028076769922
 10
2509.863802724839
 20
1975.1239630003913
 10
2508.339812093735
 20
1980.7120367308596
 10
2506.05379753685
 20
1985.029968859766
 10
2500.2117984828947
 20
1991.8880316039063
 10
2494.3697994289396
 20
1995.4440923949226
 10
2486.495806509018
 20
1997.9840704222663
 10
2474.359136043666
 20
1998.7040034180254
 10
2433.663803869248
 20
1999.000000598047
 10
2125.8158081111915
 20
1999.000000598047
 10
2107.0198123989103
 20
1998.4920355101565
 10
2100.9238117275245
 20
1997.2220464964842
 10
2097.1138065395353
 20
1995.6979986449226
 10
2088.2238071498878
 20
1990.6180425902344
 10
2080.6038158473975
 20
1982.9979559203127
 10
2077.8097980556486
 20
1978.1720587035163
 10
2076.0318058071143
 20
1970.551972033595
 10
2072.72980385399
 20
1747.0320745726563
 10
2073.237807088853
 20
1740.681976916406
 10
2074.5078151760113
 20
1734.5860906859382
 10
2083.143812948228
 20
1678.4520574828132
  0
LWPOLYLINE
  5
37
330
17
100
AcDbEntity
  8
0
100
AcDbPolyline
 90
17
 70
0
 10
2447.887808614731
 20
1952.2640081664067
 10
2447.6338069972994
 20
1954.2960211058592
 10
2446.871802145005
 20
1956.073975207422
 10
2444.0778034267432
 20
1958.8680120726565
 10
2442.2998111782076
 20
1959.6300359984384
 10
2440.2677982387545
 20
1959.8840948363281
 10
2438.235804372788
 20
1959.6300359984384
 10
2436.4578025875094
 20
1958.8680120726565
 10
2434.933802419663
 20
1957.5980230589846
 10
2433.1558101711275
 20
1954.2960211058592
 10
2433.1558101711275
 20
1950.4860540648444
 10
2434.933802419663
 20
1946.9299932738281
 10
2438.235804372788
 20
1945.1520391722663
 10
2440.2677982387545
 20
1944.8979803343748
 10
2442.2998111782076
 20
1945.1520391722663
 10
2445.601813131333
 20
1946.9299932738281
 10
2446.871802145005
 20
1948.454041125391
  0
LWPOLYLINE
  5
38
330
17
100
AcDbEntity
  8
0
100
AcDbPolyline
 90
15
 70
0
 10
2159.0898101863863
 20
1951.7560430785163
 10
2158.8358085689547
 20
1953.7880560179694
 10
2157.057806783676
 20
1957.0900579710947
 10
2155.53380661583
 20
1958.3600469847659
 10
2151.7238109645846
 20
1959.3759771605476
 10
2149.691807561875
 20
1959.1220709105473
 10
2147.9138057765967
 20
1958.3600469847659
 10
2145.119807058335
 20
1955.566010119531
 10
2144.3578022060397
 20
1953.7880560179694
 10
2144.3578022060397
 20
1949.9780889769534
 10
2146.38980560875
 20
1946.4220281859384
 10
2149.691807561875
 20
1944.6440740843748
 10
2153.50180321312
 20
1944.6440740843748
 10
2157.057806783676
 20
1946.4220281859384
 10
2158.8358085689547
 20
1949.9780889769534
  0
LWPOLYLINE
  5
39
330
17
100
AcDbEntity
  8
0
100
AcDbPolyline
 90
42
 70
0
 10
2496.6558043847513
 20
335.4371216476675
 10
2492.5917975793313
 20
337.21515204317586
 10
2488.273798693222
 20
338.2311585129016
 10
2470.493799913926
 20
341.27917792208183
 10
2457.2858016381692
 20
346.10515143282373
 10
2451.697804201646
 20
349.66113592989444
 10
2434.425799120469
 20
365.4091217697377
 10
2431.1237971673436
 20
367.18715216524606
 10
2427.821804750962
 20
367.69511725313714
 10
2133.1818072686624
 20
369.2191651046987
 10
2125.561796892686
 20
368.4571411789172
 10
2120.7358043084573
 20
366.9331696213005
 10
2113.1157939324803
 20
363.8851502121208
 10
2108.2898013482522
 20
360.8371308029405
 10
2104.7337977776956
 20
357.7891113937615
 10
2101.939799059434
 20
354.2331268966908
 10
2100.1618068108983
 20
349.40715338594885
 10
2099.907805193467
 20
343.81915594942546
 10
2099.145800341172
 20
93.62918402559708
 10
2099.399801958604
 20
88.29516913301859
 10
2100.1618068108987
 20
82.96115424044075
 10
2102.447802294297
 20
75.34114386446404
 10
2105.749804247422
 20
68.48315741426879
 10
2109.8137919793558
 20
62.64117743380051
 10
2114.8938052545022
 20
57.05317999727713
 10
2120.2278010735945
 20
52.989154118370536
 10
2129.8798053155374
 20
49.68715216524605
 10
2139.785792101426
 20
47.90912176973756
 10
2471.5097968469095
 20
48.16318060762873
 10
2478.8758056054544
 20
48.67114569551913
 10
2485.479799974961
 20
50.44917609102695
 10
2491.3217990289163
 20
53.243136662316125
 10
2496.401802767319
 20
56.54513861544135
 10
2507.0698039422464
 20
65.4351380050892
 10
2509.101797808213
 20
67.7211334884881
 10
2510.6258075128035
 20
70.26111151583186
 10
2511.6417949090433
 20
73.05514838106595
 10
2512.149798143906
 20
76.61113287813598
 10
2512.149798143906
 20
312.57716681368345
 10
2511.133791674179
 20
318.41914679415174
 10
2509.3557994256453
 20
323.49917914278467
 10
2503.259798754258
 20
330.61114813692615
  0
LWPOLYLINE
  5
3A
330
17
100
AcDbEntity
  8
0
100
AcDbPolyline
 90
39
 70
0
 10
2108.0357813847513
 20
652.6068581802414
 10
2101.9398188603373
 20
645.4948128921558
 10
2100.1617884648294
 20
640.6688393814131
 10
2099.145781995103
 20
634.5728005630539
 10
2099.145781995103
 20
398.86082546539757
 10
2099.653823376939
 20
395.050858424382
 10
2100.6698298466654
 20
392.25682155914785
 10
2103.9718317997904
 20
387.4308480484053
 10
2114.893844128892
 20
378.54084865875683
 10
2119.719817639634
 20
375.2388467056322
 10
2125.561797620103
 20
372.4448098403975
 10
2132.419784070298
 20
370.9208382827807
 10
2144.8658442509623
 20
370.15881435699936
 10
2471.509826184556
 20
370.1588143569994
 10
2481.4158129704447
 20
371.6828622085616
 10
2490.8138155949564
 20
374.9848641616868
 10
2496.40181303148
 20
379.3028725845383
 10
2501.48180723314
 20
384.6368111831713
 10
2505.54581403856
 20
390.47886745758507
 10
2508.5938143742533
 20
397.33685390778095
 10
2510.8798098576517
 20
404.95686428375694
 10
2511.8958163273783
 20
410.29080288239
 10
2512.1497988713236
 20
415.6248177749678
 10
2511.387813092515
 20
665.8148659927416
 10
2510.8798098576517
 20
671.402863429265
 10
2509.10179853563
 20
676.2288369400069
 10
2506.5618014347997
 20
679.7848214370777
 10
2502.751815320298
 20
683.0868233902028
 10
2497.925803662583
 20
685.8808602554369
 10
2485.73380231981
 20
690.452851222234
 10
2478.1138110173197
 20
691.21479885407
 10
2180.171821118638
 20
689.4368447525069
 10
2176.869819165513
 20
687.4048318130535
 10
2159.5978236210794
 20
671.6568459732097
 10
2154.009826184556
 20
668.1008614761397
 10
2148.421828748032
 20
665.814865992742
 10
2140.801818372056
 20
663.2748116714529
 10
2118.703811169907
 20
659.4648446304367
 10
2114.6397852910013
 20
657.4328316909833
  0
ENDSEC
  0
SECTION
  2
OBJECTS
  0
DICTIONARY
  5
A
330
0
100
AcDbDictionary
281
1
  3
ACAD_COLOR
350
B
  3
ACAD_GROUP
350
C
  3
ACAD_LAYOUT
350
D
  3
ACAD_MATERIAL
350
E
  3
ACAD_MLEADERSTYLE
350
F
  3
ACAD_MLINESTYLE
350
10
  3
ACAD_PLOTSETTINGS
350
11
  3
ACAD_PLOTSTYLENAME
350
12
  3
ACAD_SCALELIST
350
14
  3
ACAD_TABLESTYLE
350
15
  3
ACAD_VISUALSTYLE
350
16
  3
EZDXF_META
350
2D
  0
DICTIONARY
  5
B
330
A
100
AcDbDictionary
281
1
  0
DICTIONARY
  5
C
330
A
100
AcDbDictionary
281
1
  0
DICTIONARY
  5
D
330
A
100
AcDbDictionary
281
1
  3
Model
350
1A
  3
Layout1
350
1E
  0
DICTIONARY
  5
E
330
A
100
AcDbDictionary
281
1
  3
ByBlock
350
1F
  3
ByLayer
350
20
  3
Global
350
21
  0
DICTIONARY
  5
F
330
A
100
AcDbDictionary
281
1
  3
Standard
350
2C
  0
DICTIONARY
  5
10
330
A
100
AcDbDictionary
281
1
  3
Standard
350
22
  0
DICTIONARY
  5
11
330
A
100
AcDbDictionary
281
1
  0
ACDBDICTIONARYWDFLT
  5
12
330
A
100
AcDbDictionary
281
1
  3
Normal
350
13
100
AcDbDictionaryWithDefault
340
13
  0
ACDBPLACEHOLDER
  5
13
330
12
  0
DICTIONARY
  5
14
330
A
100
AcDbDictionary
281
1
  0
DICTIONARY
  5
15
330
A
100
AcDbDictionary
281
1
  0
DICTIONARY
  5
16
330
A
100
AcDbDictionary
281
1
  0
LAYOUT
  5
1A
330
D
100
AcDbPlotSettings
  1

  4
A3
  6

 40
7.5
 41
20.0
 42
7.5
 43
20.0
 44
420.0
 45
297.0
 46
0.0
 47
0.0
 48
0.0
 49
0.0
140
0.0
141
0.0
142
1.0
143
1.0
 70
1024
 72
1
 73
0
 74
5
  7

 75
16
 76
0
 77
2
 78
300
147
1.0
148
0.0
149
0.0
100
AcDbLayout
  1
Model
 70
1
 71
0
 10
0.0
 20
0.0
 11
420.0
 21
297.0
 12
0.0
 22
0.0
 32
0.0
 14
1e+20
 24
1e+20
 34
1e+20
 15
-1e+20
 25
-1e+20
 35
-1e+20
146
0.0
 13
0.0
 23
0.0
 33
0.0
 16
1.0
 26
0.0
 36
0.0
 17
0.0
 27
1.0
 37
0.0
 76
1
330
17
  0
LAYOUT
  5
1E
330
D
100
AcDbPlotSettings
  1

  4
A3
  6

 40
7.5
 41
20.0
 42
7.5
 43
20.0
 44
420.0
 45
297.0
 46
0.0
 47
0.0
 48
0.0
 49
0.0
140
0.0
141
0.0
142
1.0
143
1.0
 70
0
 72
1
 73
0
 74
5
  7

 75
16
 76
0
 77
2
 78
300
147
1.0
148
0.0
149
0.0
100
AcDbLayout
  1
Layout1
 70
1
 71
1
 10
0.0
 20
0.0
 11
420.0
 21
297.0
 12
0.0
 22
0.0
 32
0.0
 14
1e+20
 24
1e+20
 34
1e+20
 15
-1e+20
 25
-1e+20
 35
-1e+20
146
0.0
 13
0.0
 23
0.0
 33
0.0
 16
1.0
 26
0.0
 36
0.0
 17
0.0
 27
1.0
 37
0.0
 76
1
330
1B
  0
MATERIAL
  5
1F
102
{ACAD_REACTORS
330
E
102
}
330
E
100
AcDbMaterial
  1
ByBlock
  2

 70
0
 40
1.0
 71
1
 41
1.0
 91
-1023410177
 42
1.0
 72
1
  3

 73
1
 74
1
 75
1
 44
0.5
 73
0
 45
1.0
 46
1.0
 77
1
  4

 78
1
 79
1
170
1
 48
1.0
171
1
  6

172
1
173
1
174
1
140
1.0
141
1.0
175
1
  7

176
1
177
1
178
1
143
1.0
179
1
  8

270
1
271
1
272
1
145
1.0
146
1.0
273
1
  9

274
1
275
1
276
1
 42
1.0
 72
1
  3

 73
1
 74
1
 75
1
 94
63
  0
MATERIAL
  5
20
102
{ACAD_REACTORS
330
E
102
}
330
E
100
AcDbMaterial
  1
ByLayer
  2

 70
0
 40
1.0
 71
1
 41
1.0
 91
-1023410177
 42
1.0
 72
1
  3

 73
1
 74
1
 75
1
 44
0.5
 73
0
 45
1.0
 46
1.0
 77
1
  4

 78
1
 79
1
170
1
 48
1.0
171
1
  6

172
1
173
1
174
1
140
1.0
141
1.0
175
1
  7

176
1
177
1
178
1
143
1.0
179
1
  8

270
1
271
1
272
1
145
1.0
146
1.0
273
1
  9

274
1
275
1
276
1
 42
1.0
 72
1
  3

 73
1
 74
1
 75
1
 94
63
  0
MATERIAL
  5
21
102
{ACAD_REACTORS
330
E
102
}
330
E
100
AcDbMaterial
  1
Global
  2

 70
0
 40
1.0
 71
1
 41
1.0
 91
-1023410177
 42
1.0
 72
1
  3

 73
1
 74
1
 75
1
 44
0.5
 73
0
 45
1.0
 46
1.0
 77
1
  4

 78
1
 79
1
170
1
 48
1.0
171
1
  6

172
1
173
1
174
1
140
1.0
141
1.0
175
1
  7

176
1
177
1
178
1
143
1.0
179
1
  8

270
1
271
1
272
1
145
1.0
146
1.0
273
1
  9

274
1
275
1
276
1
 42
1.0
 72
1
  3

 73
1
 74
1
 75
1
 94
63
  0
MLINESTYLE
  5
22
102
{ACAD_REACTORS
330
10
102
}
330
10
100
AcDbMlineStyle
  2
Standard
 70
0
  3

 62
256
 51
90.0
 52
90.0
 71
2
 49
0.5
 62
256
  6
BYLAYER
 49
-0.5
 62
256
  6
BYLAYER
  0
MLEADERSTYLE
  5
2C
102
{ACAD_REACTORS
330
F
102
}
330
F
100
AcDbMLeaderStyle
179
2
170
2
171
1
172
0
 90
2
 40
0.0
 41
0.0
173
1
 91
-1056964608
 92
-2
290
1
 42
2.0
291
1
 43
8.0
  3
Standard
 44
4.0
300

342
29
174
1
175
1
176
0
178
1
 93
-1056964608
 45
4.0
292
0
297
0
 46
4.0
 94
-1056964608
 47
1.0
 49
1.0
140
1.0
294
1
141
0.0
177
0
142
1.0
295
0
296
0
143
3.75
271
0
272
9
273
9
  0
DICTIONARY
  5
2D
330
A
100
AcDbDictionary
280
1
281
1
  3
CREATED_BY_EZDXF
350
2E
  3
WRITTEN_BY_EZDXF
350
3D
  0
DICTIONARYVAR
  5
2E
330
2D
100
DictionaryVariables
280
0
  1
1.4.2 @ 2025-10-23T11:30:57.943297+00:00
  0
DICTIONARYVAR
  5
3D
330
2D
100
DictionaryVariables
280
0
  1
1.4.2 @ 2025-10-23T11:30:58.388656+00:00
  0
ENDSEC
  0
EOF
