  0
SECTION
  2
HEADER
  9
$ACADVER
  1
AC1015
  9
$DWGCODEPAGE
  3
ansi_1252
  9
$INSBASE
 10
0
 20
0
 30
0
  9
$EXTMIN
 10
2007.1737041344704
 20
47.90912176973756
 30
0
  9
$EXTMAX
 10
2499.0000005865727
 20
1999.0000005980471
 30
0
  9
$LIMMIN
 10
0
 20
0
  9
$LIMMAX
 10
12
 20
9
  9
$SNAPMODE
 70
0
  9
$SNAPUNIT
 10
1
 20
1
  9
$SNAPBASE
 10
0
 20
0
  9
$SNAPANG
 50
0
  9
$SNAPSTYLE
 70
0
  9
$SNAPISOPAIR
 70
0
  9
$ORTHOMODE
 70
0
  9
$REGENMODE
 70
1
  9
$FILLMODE
 70
1
  9
$QTEXTMODE
 70
0
  9
$MIRRTEXT
 70
1
  9
$LTSCALE
 40
1
  9
$OSMODE
 70
0
  9
$ATTMODE
 70
1
  9
$TEXTSIZE
 40
0.2
  9
$TRACEWID
 40
0.05
  9
$TEXTSTYLE
  7
Standard
  9
$CLAYER
  8
0
  9
$CELTYPE
  6
ByLayer
  9
$CECOLOR
 62
256
  9
$CELTSCALE
 40
1
  9
$DISPSILH
 70
0
  9
$DIMSCALE
 40
1
  9
$DIMASZ
 40
0.18
  9
$DIMEXO
 40
0.0625
  9
$DIMDLI
 40
0.38
  9
$DIMRND
 40
0
  9
$DIMDLE
 40
0
  9
$DIMEXE
 40
0.18
  9
$DIMTP
 40
0
  9
$DIMTM
 40
0
  9
$DIMTXT
 40
0.18
  9
$DIMCEN
 40
0.09
  9
$DIMTSZ
 40
0
  9
$DIMTOL
 70
0
  9
$DIMLIM
 70
0
  9
$DIMTIH
 70
1
  9
$DIMTOH
 70
1
  9
$DIMSE1
 70
0
  9
$DIMSE2
 70
0
  9
$DIMTAD
 70
0
  9
$DIMZIN
 70
0
  9
$DIMBLK
  1

  9
$DIMASO
 70
1
  9
$DIMSHO
 70
1
  9
$DIMPOST
  1

  9
$DIMAPOST
  1

  9
$DIMALT
 70
0
  9
$DIMALTD
 70
2
  9
$DIMALTF
 40
0.03937007874015748
  9
$DIMLFAC
 40
1
  9
$DIMTOFL
 70
0
  9
$DIMTVP
 40
0
  9
$DIMTIX
 70
0
  9
$DIMSOXD
 70
0
  9
$DIMSAH
 70
0
  9
$DIMBLK1
  1

  9
$DIMBLK2
  1

  9
$DIMSTYLE
  2
Standard
  9
$DIMCLRD
 70
0
  9
$DIMCLRE
 70
0
  9
$DIMCLRT
 70
0
  9
$DIMTFAC
 40
1
  9
$DIMGAP
 40
0.09
  9
$DIMJUST
 70
0
  9
$DIMSD1
 70
0
  9
$DIMSD2
 70
0
  9
$DIMTOLJ
 70
1
  9
$DIMTZIN
 70
0
  9
$DIMALTZ
 70
0
  9
$DIMALTTZ
 70
0
  9
$DIMUPT
 70
0
  9
$DIMDEC
 70
4
  9
$DIMTDEC
 70
4
  9
$DIMALTU
 70
2
  9
$DIMALTTD
 70
0
  9
$DIMTXSTY
  7
Standard
  9
$DIMAUNIT
 70
0
  9
$DIMADEC
 70
0
  9
$DIMALTRND
 40
0
  9
$DIMAZIN
 70
0
  9
$DIMDSEP
 70
46
  9
$DIMATFIT
 70
0
  9
$DIMFRAC
 70
0
  9
$DIMLDRBLK
  1

  9
$DIMLUNIT
 70
2
  9
$DIMLWD
 70
-2
  9
$DIMLWE
 70
-2
  9
$LUNITS
 70
2
  9
$LUPREC
 70
4
  9
$SKETCHINC
 40
0.1
  9
$FILLETRAD
 40
0
  9
$AUNITS
 70
0
  9
$AUPREC
 70
0
  9
$MENU
  1
.
  9
$ELEVATION
 40
0
  9
$PELEVATION
 40
0
  9
$THICKNESS
 40
0
  9
$LIMCHECK
 70
0
  9
$CHAMFERA
 40
0.5
  9
$CHAMFERB
 40
0.5
  9
$CHAMFERC
 40
0
  9
$CHAMFERD
 40
0
  9
$SKPOLY
 70
0
  9
$TDCREATE
 40
2460962.9642815511
  9
$TDUCREATE
 40
2460962.9226148841
  9
$TDUPDATE
 40
2460962.9642815511
  9
$TDUUPDATE
 40
2460962.9226148841
  9
$TDINDWG
 40
0
  9
$TDUSRTIMER
 40
1.1574074074074074E-08
  9
$USRTIMER
 70
1
  9
$ANGBASE
 50
0
  9
$ANGDIR
 70
1
  9
$PDMODE
 70
0
  9
$PDSIZE
 40
0
  9
$PLINEWID
 40
0
  9
$SPLFRAME
 70
0
  9
$SPLINETYPE
 70
6
  9
$SPLINESEGS
 70
8
  9
$HANDSEED
  5
5B
  9
$SURFTAB1
 70
6
  9
$SURFTAB2
 70
6
  9
$SURFTYPE
 70
6
  9
$SURFU
 70
6
  9
$SURFV
 70
6
  9
$UCSORG
 10
0
 20
0
 30
0
  9
$UCSXDIR
 10
1
 20
0
 30
0
  9
$UCSYDIR
 10
0
 20
1
 30
0
  9
$UCSORTHOREF
  2

  9
$UCSORTHOVIEW
 70
0
  9
$UCSORGTOP
 10
0
 20
0
 30
0
  9
$UCSORGBOTTOM
 10
0
 20
0
 30
0
  9
$UCSORGLEFT
 10
0
 20
0
 30
0
  9
$UCSORGRIGHT
 10
0
 20
0
 30
0
  9
$UCSORGFRONT
 10
0
 20
0
 30
0
  9
$UCSORGBACK
 10
0
 20
0
 30
0
  9
$PUCSORG
 10
0
 20
0
 30
0
  9
$PUCSXDIR
 10
1
 20
0
 30
0
  9
$PUCSYDIR
 10
0
 20
1
 30
0
  9
$PUCSORTHOREF
  2

  9
$PUCSORTHOVIEW
 70
0
  9
$PUCSORGTOP
 10
0
 20
0
 30
0
  9
$PUCSORGBOTTOM
 10
0
 20
0
 30
0
  9
$PUCSORGLEFT
 10
0
 20
0
 30
0
  9
$PUCSORGRIGHT
 10
0
 20
0
 30
0
  9
$PUCSORGFRONT
 10
0
 20
0
 30
0
  9
$PUCSORGBACK
 10
0
 20
0
 30
0
  9
$USERI1
 70
0
  9
$USERI2
 70
0
  9
$USERI3
 70
0
  9
$USERI4
 70
0
  9
$USERI5
 70
0
  9
$USERR1
 40
0
  9
$USERR2
 40
0
  9
$USERR3
 40
0
  9
$USERR4
 40
0
  9
$USERR5
 40
0
  9
$WORLDVIEW
 70
1
  9
$SHADEDGE
 70
3
  9
$SHADEDIF
 70
70
  9
$TILEMODE
 70
1
  9
$MAXACTVP
 70
48
  9
$PINSBASE
 10
0
 20
0
 30
0
  9
$PLIMCHECK
 70
0
  9
$PEXTMIN
 10
1E+20
 20
1E+20
 30
1E+20
  9
$PEXTMAX
 10
-1E+20
 20
-1E+20
 30
-1E+20
  9
$PLIMMAX
 10
0
 20
0
  9
$PLIMMIN
 10
0
 20
0
  9
$UNITMODE
 70
0
  9
$VISRETAIN
 70
1
  9
$PLINEGEN
 70
1
  9
$PSLTSCALE
 70
1
  9
$TREEDEPTH
 70
3020
  9
$CMLSTYLE
  2
STANDARD
  9
$CMLJUST
 70
0
  9
$CMLSCALE
 40
1
  9
$PROXYGRAPHICS
 70
1
  9
$MEASUREMENT
 70
1
  9
$CELWEIGHT
370
-1
  9
$ENDCAPS
280
0
  9
$JOINSTYLE
280
0
  9
$LWDISPLAY
290
1
  9
$INSUNITS
 70
4
  9
$HYPERLINKBASE
  1

  9
$XEDIT
290
1
  9
$CEPSNTYPE
380
0
  9
$PSTYLEMODE
290
0
  9
$FINGERPRINTGUID
  2

  9
$VERSIONGUID
  2

  9
$EXTNAMES
290
1
  9
$PSVPSCALE
 40
0
  9
$CSHADOW
280
0
  9
$SHADOWPLANELOCATION
 40
0
  0
ENDSEC
  0
SECTION
  2
CLASSES
  0
CLASS
  1
RASTERVARIABLES
  2
AcDbRasterVariables
  3
ISM
 90
0
280
0
281
0
  0
CLASS
  1
IMAGEDEF
  2
AcDbRasterImageDef
  3
ISM
 90
0
280
0
281
0
  0
CLASS
  1
IMAGEDEF_REACTOR
  2
AcDbRasterImageDefReactor
  3
ISM
 90
1
280
0
281
0
  0
CLASS
  1
IMAGE
  2
AcDbRasterImage
  3
ISM
 90
127
280
0
281
1
  0
CLASS
  1
ACAD_EVALUATION_GRAPH
  2
AcDbEvalGraph
  3
ObjectDBX Classes
 90
1153
280
0
281
0
  0
CLASS
  1
BLOCKPOINTPARAMETER
  2
AcDbBlockPointParameter
  3
ObjectDBX Classes
 90
1153
280
0
281
0
  0
CLASS
  1
BLOCKBASEPOINTPARAMETER
  2
AcDbBlockBasepointParameter
  3
ObjectDBX Classes
 90
1153
280
0
281
0
  0
CLASS
  1
BLOCKLOOKUPPARAMETER
  2
AcDbBlockLookupParameter
  3
ObjectDBX Classes
 90
1153
280
0
281
0
  0
CLASS
  1
BLOCKVISIBILITYPARAMETER
  2
AcDbBlockVisibilityParameter
  3
ObjectDBX Classes
 90
1153
280
0
281
0
  0
CLASS
  1
BLOCKPROPERTIESTABLE
  2
AcDbBlockPropertiesTable
  3
ObjectDBX Classes
 90
1153
280
0
281
0
  0
CLASS
  1
BLOCKPOLARPARAMETER
  2
AcDbBlockPolarParameter
  3
ObjectDBX Classes
 90
1153
280
0
281
0
  0
CLASS
  1
BLOCKROTATIONPARAMETER
  2
AcDbBlockRotationParameter
  3
ObjectDBX Classes
 90
1153
280
0
281
0
  0
CLASS
  1
BLOCKLINEARPARAMETER
  2
AcDbBlockLinearParameter
  3
ObjectDBX Classes
 90
1153
280
0
281
0
  0
CLASS
  1
BLOCKXYPARAMETER
  2
AcDbBlockXYParameter
  3
ObjectDBX Classes
 90
1153
280
0
281
0
  0
CLASS
  1
BLOCKFLIPPARAMETER
  2
AcDbBlockFlipParameter
  3
ObjectDBX Classes
 90
1153
280
0
281
0
  0
CLASS
  1
BLOCKALIGNMENTPARAMETER
  2
AcDbBlockAlignmentParameter
  3
ObjectDBX Classes
 90
1153
280
0
281
0
  0
CLASS
  1
BLOCKROTATEACTION
  2
AcDbBlockRotateAction
  3
ObjectDBX Classes
 90
1153
280
0
281
0
  0
CLASS
  1
BLOCKSCALEACTION
  2
AcDbBlockScaleAction
  3
ObjectDBX Classes
 90
1153
280
0
281
0
  0
CLASS
  1
BLOCKARRAYACTION
  2
AcDbBlockArrayAction
  3
ObjectDBX Classes
 90
1153
280
0
281
0
  0
CLASS
  1
BLOCKFLIPACTION
  2
AcDbBlockFlipAction
  3
ObjectDBX Classes
 90
1153
280
0
281
0
  0
CLASS
  1
BLOCKLOOKUPACTION
  2
AcDbBlockLookupAction
  3
ObjectDBX Classes
 90
1153
280
0
281
0
  0
CLASS
  1
BLOCKMOVEACTION
  2
AcDbBlockMoveAction
  3
ObjectDBX Classes
 90
1153
280
0
281
0
  0
CLASS
  1
BLOCKPOLARSTRETCHACTION
  2
AcDbBlockPolarStretchAction
  3
ObjectDBX Classes
 90
1153
280
0
281
0
  0
CLASS
  1
BLOCKSTRETCHACTION
  2
AcDbBlockStretchAction
  3
ObjectDBX Classes
 90
1153
280
0
281
0
  0
CLASS
  1
BLOCKALIGNMENTGRIP
  2
AcDbBlockAlignmentGrip
  3
ObjectDBX Classes
 90
1153
280
0
281
0
  0
CLASS
  1
BLOCKFLIPGRIP
  2
AcDbBlockFlipGrip
  3
ObjectDBX Classes
 90
1153
280
0
281
0
  0
CLASS
  1
ACDB_BLOCKREPRESENTATION_DATA
  2
AcDbBlockRepresentationData
  3
ObjectDBX Classes
 90
1153
280
0
281
0
  0
CLASS
  1
ACDB_DYNAMICBLOCKPURGEPREVENTER_VERSION
  2
AcDbDynamicBlockPurgePreventer
  3
ObjectDBX Classes
 90
1153
280
0
281
0
  0
CLASS
  1
BLOCKLINEARGRIP
  2
AcDbBlockLinearGrip
  3
ObjectDBX Classes
 90
1153
280
0
281
0
  0
CLASS
  1
BLOCKLOOKUPGRIP
  2
AcDbBlockLookupGrip
  3
ObjectDBX Classes
 90
1153
280
0
281
0
  0
CLASS
  1
BLOCKPOLARGRIP
  2
AcDbBlockPolarGrip
  3
ObjectDBX Classes
 90
1153
280
0
281
0
  0
CLASS
  1
BLOCKPROPERTIESTABLEGRIP
  2
AcDbBlockPropertiesTableGrip
  3
ObjectDBX Classes
 90
1153
280
0
281
0
  0
CLASS
  1
BLOCKROTATIONGRIP
  2
AcDbBlockRotationGrip
  3
ObjectDBX Classes
 90
1153
280
0
281
0
  0
CLASS
  1
BLOCKVISIBILITYGRIP
  2
AcDbBlockVisibilityGrip
  3
ObjectDBX Classes
 90
1153
280
0
281
0
  0
CLASS
  1
BLOCKXYGRIP
  2
AcDbBlockXYGrip
  3
ObjectDBX Classes
 90
1153
280
0
281
0
  0
CLASS
  1
BLOCKGRIPLOCATIONCOMPONENT
  2
AcDbBlockGripExpr
  3
ObjectDBX Classes
 90
1153
280
0
281
0
  0
CLASS
  1
ACDB_DYNAMICBLOCKPROXYNODE
  2
AcDbDynamicBlockProxyNode
  3
ObjectDBX Classes
 90
1153
280
0
281
0
  0
CLASS
  1
BLOCKLINEARCONSTRAINTPARAMETER
  2
AcDbBlockLinearConstraintParameter
  3
ObjectDBX Classes
 90
1153
280
0
281
0
  0
CLASS
  1
BLOCKHORIZONTALCONSTRAINTPARAMETER
  2
AcDbBlockHorizontalConstraintParameter
  3
ObjectDBX Classes
 90
1153
280
0
281
0
  0
CLASS
  1
BLOCKVERTICALCONSTRAINTPARAMETER
  2
AcDbBlockVerticalConstraintParameter
  3
ObjectDBX Classes
 90
1153
280
0
281
0
  0
CLASS
  1
BLOCKALIGNEDCONSTRAINTPARAMETER
  2
AcDbBlockAlignedConstraintParameter
  3
ObjectDBX Classes
 90
1153
280
0
281
0
  0
CLASS
  1
BLOCKANGULARCONSTRAINTPARAMETER
  2
AcDbBlockAngularConstraintParameter
  3
ObjectDBX Classes
 90
1153
280
0
281
0
  0
CLASS
  1
BLOCKDIAMETRICCONSTRAINTPARAMETER
  2
AcDbBlockDiametricConstraintParameter
  3
ObjectDBX Classes
 90
1153
280
0
281
0
  0
CLASS
  1
BLOCKRADIALCONSTRAINTPARAMETER
  2
AcDbBlockRadialConstraintParameter
  3
ObjectDBX Classes
 90
1153
280
0
281
0
  0
ENDSEC
  0
SECTION
  2
TABLES
  0
TABLE
  2
VPORT
  5
8
330
0
100
AcDbSymbolTable
 70
1
  0
VPORT
  5
36
330
8
100
AcDbSymbolTableRecord
100
AcDbViewportTableRecord
  2
*Active
 70
64
 10
0
 20
0
 11
1
 21
1
 12
2253.0868523605213
 22
1023.4545611838923
 13
0
 23
0
 14
1
 24
1
 15
0
 25
0
 16
0
 26
0
 36
1
 17
0
 27
0
 37
0
 40
1951.0908788283095
 41
0.25207759504644867
 42
50
 43
0
 44
0
 50
0
 51
0
 71
0
 72
20000
 73
20000
 74
1
 75
0
 76
0
 77
0
 78
0
281
0
 65
1
110
0
120
0
130
0
111
1
121
0
131
0
112
0
122
1
132
0
 79
0
146
0
  0
ENDTAB
  0
TABLE
  2
LTYPE
  5
5
100
AcDbSymbolTable
 70
3
  0
LTYPE
  5
16
330
5
100
AcDbSymbolTableRecord
100
AcDbLinetypeTableRecord
  2
Continuous
  3
Solid line
 70
64
 72
65
 73
0
 40
0
  0
LTYPE
  5
14
330
5
100
AcDbSymbolTableRecord
100
AcDbLinetypeTableRecord
  2
ByBlock
  3

 70
64
 72
65
 73
0
 40
0
  0
LTYPE
  5
15
330
5
100
AcDbSymbolTableRecord
100
AcDbLinetypeTableRecord
  2
ByLayer
  3

 70
64
 72
65
 73
0
 40
0
  0
ENDTAB
  0
TABLE
  2
LAYER
  5
2
100
AcDbSymbolTable
 70
4
  0
LAYER
  5
10
330
2
100
AcDbSymbolTableRecord
100
AcDbLayerTableRecord
 70
64
  2
0
 62
7
  6
Continuous
370
-3
390
F
  0
LAYER
  5
27
330
2
100
AcDbSymbolTableRecord
100
AcDbLayerTableRecord
 70
64
  2
1
 62
7
  6
Continuous
370
-3
390
F
  0
LAYER
  5
28
330
2
100
AcDbSymbolTableRecord
100
AcDbLayerTableRecord
 70
64
  2
11
 62
7
  6
Continuous
370
-3
390
F
  0
LAYER
  5
29
330
2
100
AcDbSymbolTableRecord
100
AcDbLayerTableRecord
 70
64
  2
DEFPOINTS
 62
7
  6
Continuous
290
0
370
-3
390
F
  0
ENDTAB
  0
TABLE
  2
STYLE
  5
3
100
AcDbSymbolTable
 70
1
  0
STYLE
  5
11
330
3
100
AcDbSymbolTableRecord
100
AcDbTextStyleTableRecord
  2
Standard
 70
64
 40
0
 41
1
 50
0
 71
0
 42
0.2
  3
txt.shx
  0
ENDTAB
  0
TABLE
  2
VIEW
  5
6
100
AcDbSymbolTable
 70
0
  0
ENDTAB
  0
TABLE
  2
UCS
  5
7
100
AcDbSymbolTable
 70
0
  0
ENDTAB
  0
TABLE
  2
APPID
  5
9
330
0
100
AcDbSymbolTable
 70
2
  0
APPID
  5
12
330
0
100
AcDbSymbolTableRecord
100
AcDbRegAppTableRecord
  2
ACAD
 70
64
  0
APPID
  5
59
330
0
100
AcDbSymbolTableRecord
100
AcDbRegAppTableRecord
  2
ACAD_MLEADERVER
 70
64
  0
ENDTAB
  0
TABLE
  2
DIMSTYLE
  5
A
330
0
100
AcDbSymbolTable
 70
1
100
AcDbDimStyleTable
 71
0
  0
DIMSTYLE
105
35
330
A
100
AcDbSymbolTableRecord
100
AcDbDimStyleTableRecord
  2
Standard
 70
64
  3

  4

 40
1
 41
0.18
 42
0.0625
 43
0.38
 44
0.18
 45
0
 46
0
 47
0
 48
0
140
0.18
141
0.09
142
0
143
1
144
1
145
0
146
1
147
0.09
148
0
 71
0
 72
0
 73
1
 74
1
 75
0
 76
0
 77
0
 78
0
 79
0
170
0
171
2
172
0
173
0
174
0
175
0
179
0
271
4
272
4
273
2
274
0
275
0
276
0
277
2
278
46
279
0
280
0
281
0
282
0
283
1
284
0
285
0
286
0
288
0
289
0
340
11
371
-2
372
-2
  0
ENDTAB
  0
TABLE
  2
BLOCK_RECORD
  5
1
330
0
100
AcDbSymbolTable
 70
3
  0
BLOCK_RECORD
  5
1F
330
1
100
AcDbSymbolTableRecord
100
AcDbBlockTableRecord
  2
*Model_Space
340
22
  0
BLOCK_RECORD
  5
32
330
1
100
AcDbSymbolTableRecord
100
AcDbBlockTableRecord
  2
*Paper_Space
340
1E
  0
ENDTAB
  0
ENDSEC
  0
SECTION
  2
BLOCKS
  0
BLOCK
  5
20
330
1F
100
AcDbEntity
  8
0
100
AcDbBlockBegin
  2
*Model_Space
 70
64
 10
0
 20
0
 30
0
  3
*Model_Space
  0
ENDBLK
  5
21
330
1F
100
AcDbEntity
  8
0
100
AcDbBlockEnd
  0
BLOCK
  5
33
330
32
100
AcDbEntity
  8
0
 67
1
100
AcDbBlockBegin
  2
*Paper_Space
 70
64
 10
0
 20
0
 30
0
  3
*Paper_Space
  0
ENDBLK
  5
34
330
32
100
AcDbEntity
  8
0
100
AcDbBlockEnd
  0
ENDSEC
  0
SECTION
  2
ENTITIES
  0
LWPOLYLINE
  5
2A
330
1F
100
AcDbEntity
  8
1
 62
18
100
AcDbPolyline
 90
73
 70
1
 10
2498.4920031
 20
1350.044682119767
 10
2498.9999872613766
 20
1358.93475780336
 10
2498.745985643945
 20
1366.5546918853915
 10
2497.4759966302731
 20
1372.6507307037507
 10
2494.6819979120114
 20
1377.9847455963293
 10
2491.1259943414552
 20
1382.5567365631259
 10
2486.0460001397946
 20
1386.6207624420315
 10
2481.7279917169431
 20
1388.1448102935949
 10
2227.9819971490724
 20
1396.272709463517
 10
2223.1559854913576
 20
1395.5106855377346
 10
2218.3300119806149
 20
1394.2406965240641
 10
2214.0120035577634
 20
1392.4627424225009
 10
2209.6939951349123
 20
1389.9227643951569
 10
2202.8360086847169
 20
1385.0967145904701
 10
2199.5340067315915
 20
1381.7947126373449
 10
2196.7400080133298
 20
1378.2388044342201
 10
2191.1520105768068
 20
1367.316715811173
 10
2186.3259989190919
 20
1356.1407209381257
 10
2179.2139917779782
 20
1335.8207441314853
 10
2168.79998268374
 20
1308.8967634185947
 10
2147.9720026422365
 20
1266.9868207916418
 10
2134.0020090509274
 20
1251.7468000396893
 10
2117.2380167413576
 20
1235.9988141998451
 10
2108.0939585138185
 20
1228.6327863678141
 10
2091.5840250421388
 20
1218.2188154205478
 10
2064.4059854913571
 20
1203.9947248443762
 10
2057.0399576593263
 20
1198.9147687896893
 10
2050.9439951349118
 20
1193.5807538971096
 10
2045.355997698389
 20
1187.738773916642
 10
2037.2280222345214
 20
1177.8327680572668
 10
2033.9260202813966
 20
1171.7367292389072
 10
2031.3859659601078
 20
1165.6406904205476
 10
2027.3220163751464
 20
1150.9087873443757
 10
2020.5999668127893
 20
1106.6079385758724
 10
2016.1460215020998
 20
1071.1527753814851
 10
2012.3359781671386
 20
1031.0207868560949
 10
2009.5420175958498
 20
990.88879833070382
 10
2007.1737041344704
 20
930.40144590257648
 10
2007.2560221124513
 20
902.7506757721095
 10
2009.2879587579591
 20
833.91675243226609
 10
2011.8280130792486
 20
796.07068309632882
 10
2017.1620279718268
 20
735.618717764298
 10
2018.4320169854982
 20
729.26877269593865
 10
2021.4799601007326
 20
720.12479076234456
 10
2025.543985979639
 20
713.26672801820382
 10
2031.1319834161625
 20
705.90070018617268
 10
2036.9739633966315
 20
700.56668529359467
 10
2044.0860086847174
 20
696.50281200257848
 10
2049.4200235772946
 20
694.47079906312581
 10
2054.7539621759274
 20
693.20081004945314
 10
2063.6439615655763
 20
691.67676219789155
 10
2069.7400003839357
 20
691.42270336000058
 10
2085.9960276056149
 20
691.67676219789155
 10
2374.7939783502443
 20
691.67676219789178
 10
2408.3220011163571
 20
692.69269237367268
 10
2413.4019953180177
 20
693.96268138734456
 10
2417.2120005060056
 20
695.48672923890683
 10
2421.5300089288571
 20
698.02670726625058
 10
2427.3719889093263
 20
702.34479198304814
 10
2431.43597664126
 20
706.66272411195359
 10
2434.9919992853024
 20
712.25079784242314
 10
2437.2779947687009
 20
719.3627668365632
 10
2438.2940012384279
 20
809.27869090882916
 10
2441.5960031915524
 20
960.40875682679746
 10
2443.4068703632438
 20
1003.6507530907865
 10
2446.4219957757814
 20
1040.4186750396891
 10
2452.3191362078846
 20
1094.790081700095
 10
2456.5820032525876
 20
1126.778690908829
 10
2463.1859880853517
 20
1167.6727033600005
 10
2470.1797689995574
 20
1218.8671248141763
 10
2475.885992662988
 20
1251.2386823639069
 10
2482.74399818667
 20
1285.528690908829
 10
2490.1099878717282
 20
1317.5327802642978
  0
LWPOLYLINE
  5
2B
330
1F
100
AcDbEntity
  8
11
 62
18
100
AcDbPolyline
 90
16
 70
1
 10
2074.8199564386232
 20
744.50879344789121
 10
2075.0740152765138
 20
742.73068675843865
 10
2077.1060282159669
 20
739.17477855531342
 10
2080.4080301690919
 20
737.3966718658595
 10
2084.2179972101076
 20
737.3966718658595
 10
2087.5199991632326
 20
739.17477855531342
 10
2089.5520121026852
 20
742.73068675843865
 10
2089.805994646631
 20
744.50879344789121
 10
2089.5520121026852
 20
746.54080638734456
 10
2088.7899881769044
 20
748.31876048890683
 10
2085.9960276056149
 20
751.11279735414155
 10
2082.4399668145998
 20
752.12872752992246
 10
2080.4080301690919
 20
751.87482127992246
 10
2078.6299997735837
 20
751.11279735414155
 10
2075.8359629083498
 20
748.31876048890615
 10
2075.0740152765138
 20
746.54080638734456
  0
LWPOLYLINE
  5
2C
330
1F
100
AcDbEntity
  8
11
 62
18
100
AcDbPolyline
 90
19
 70
1
 10
2362.3479944635251
 20
742.2227216705478
 10
2362.6019770074709
 20
740.19070873109456
 10
2364.3800074029782
 20
736.88870677797
 10
2365.9039789605954
 20
735.61871776429814
 10
2367.6820093561032
 20
734.85669383851666
 10
2369.7139841485841
 20
734.60278758851666
 10
2371.7459970880368
 20
734.85669383851666
 10
2373.5239893365724
 20
735.61871776429814
 10
2376.3179880548341
 20
738.41275462953161
 10
2377.0800119806149
 20
740.19070873109456
 10
2377.0800119806149
 20
744.00067577211007
 10
2376.3179880548341
 20
745.77878246156331
 10
2373.5239893365724
 20
748.57281932679814
 10
2371.7459970880373
 20
749.33469066468854
 10
2369.7139841485841
 20
749.58874950257825
 10
2367.6820093561032
 20
749.33469066468854
 10
2365.9039789605954
 20
748.57281932679814
 10
2364.3800074029782
 20
747.30267772523473
 10
2362.6019770074709
 20
744.0006757721095
  0
LWPOLYLINE
  5
2D
330
1F
100
AcDbEntity
  8
1
 62
18
100
AcDbPolyline
 90
74
 70
1
 10
2075.5820121
 20
1643.9079901000005
 10
2075.949108019865
 20
1616.6042634969015
 10
2075.328010482569
 20
1564.9140020628913
 10
2076.3440169522951
 20
1556.024078967188
 10
2079.9000014493658
 20
1538.7520452757813
 10
2082.9480017850592
 20
1529.3540045042971
 10
2086.758006973047
 20
1520.2100225707029
 10
2094.6319998929703
 20
1507.509979846094
 10
2097.9340018460944
 20
1503.4459539671882
 10
2104.5380057523439
 20
1496.8419500609384
 10
2112.666009826441
 20
1489.7299810667973
 10
2125.3660048673337
 20
1480.5859991332034
 10
2204.868010444422
 20
1446.295990588281
 10
2214.2660083005621
 20
1441.4700933714839
 10
2226.7120088765814
 20
1430.8020635863284
 10
2232.046007079859
 20
1424.9600836058587
 10
2235.60200826623
 20
1420.1340338011721
 10
2242.2060074041083
 20
1409.973969103906
 10
2246.2700082490633
 20
1405.4019781371089
 10
2252.1120084951112
 20
1400.3220220824221
 10
2255.6680078933432
 20
1398.2900091429692
 10
2262.7800081054161
 20
1396.2579962035163
 10
2267.6060082147305
 20
1396.0040899535161
 10
2291.7360080907533
 20
1396.765961291406
 10
2315.8660067746823
 20
1398.0359503050779
 10
2339.7420062253664
 20
1399.814056994531
 10
2368.0874628360361
 20
1402.9256534032193
 10
2403.7500037381842
 20
1408.1960150023438
 10
2411.1160124967291
 20
1410.2280279417971
 10
2418.2280101010992
 20
1412.7680059691415
 10
2436.7700041959479
 20
1423.1819769164065
 10
2448.9620055387209
 20
1433.087982775781
 10
2459.6300162503912
 20
1444.7720953246092
 10
2464.4560088346193
 20
1451.375946642969
 10
2471.0600127408698
 20
1463.3139654417971
 10
2474.3620146939948
 20
1473.7280889769531
 10
2477.4100150296881
 20
1487.4440618773444
 10
2475.378002090235
 20
1581.1699529906252
 10
2476.1400069425295
 20
1593.1079717894531
 10
2477.9179991910651
 20
1600.9819647093752
 10
2481.22000114419
 20
1607.8400274535163
 10
2492.3960150907228
 20
1622.3180242796882
 10
2497.7300109098146
 20
1632.7319952269529
 10
2498.9999999234865
 20
1638.0660101195313
 10
2498.9999999234865
 20
1641.8759771605471
 10
2498.49201576211
 20
1645.6859442015632
 10
2496.6333271025342
 20
1679.8393121119493
 10
2493.9200057218268
 20
1707.9160162230473
 10
2489.6020163724611
 20
1740.4280706664065
 10
2489.0940131375978
 20
1777.003998400781
 10
2490.6180037687013
 20
1851.1720892210942
 10
2492.9039992520998
 20
1892.0659490843752
 10
2497.9840125272463
 20
1960.9000250121096
 10
2497.7300109098142
 20
1969.0280767699221
 10
2496.714004440088
 20
1975.1239630003913
 10
2495.1900138089841
 20
1980.7120367308596
 10
2492.9039992520993
 20
1985.0299688597661
 10
2487.0620001981438
 20
1991.8880316039063
 10
2481.2200011441887
 20
1995.4440923949226
 10
2473.3460082242673
 20
1997.9840704222663
 10
2461.2093377589149
 20
1998.7040034180254
 10
2420.5140055844972
 20
1999.0000005980471
 10
2112.6660098264406
 20
1999.0000005980471
 10
2093.8700141141594
 20
1998.4920355101565
 10
2087.7740134427736
 20
1997.2220464964842
 10
2083.9640082547844
 20
1995.6979986449226
 10
2075.0740088651369
 20
1990.6180425902344
 10
2067.4540175626466
 20
1982.9979559203127
 10
2064.6599997708977
 20
1978.1720587035163
 10
2062.8820075223634
 20
1970.5519720335949
 10
2059.5800055692389
 20
1747.0320745726563
 10
2060.0880088041022
 20
1740.681976916406
 10
2061.3580168912604
 20
1734.5860906859382
 10
2069.9940146634772
 20
1678.4520574828132
  0
LWPOLYLINE
  5
2E
330
1F
100
AcDbEntity
  8
11
 62
18
100
AcDbPolyline
 90
17
 70
1
 10
2434.73801032998
 20
1952.2640081664067
 10
2434.4840087125485
 20
1954.2960211058592
 10
2433.7220038602541
 20
1956.0739752074221
 10
2430.9280051419923
 20
1958.8680120726565
 10
2429.1500128934567
 20
1959.6300359984384
 10
2427.1179999540036
 20
1959.8840948363281
 10
2425.0860060880373
 20
1959.6300359984384
 10
2423.3080043027585
 20
1958.8680120726565
 10
2421.7840041349123
 20
1957.5980230589846
 10
2420.0060118863767
 20
1954.2960211058592
 10
2420.0060118863767
 20
1950.4860540648444
 10
2421.7840041349123
 20
1946.9299932738281
 10
2425.0860060880373
 20
1945.1520391722663
 10
2427.1179999540036
 20
1944.8979803343748
 10
2429.1500128934567
 20
1945.1520391722663
 10
2432.4520148465822
 20
1946.9299932738281
 10
2433.7220038602541
 20
1948.4540411253911
  0
LWPOLYLINE
  5
2F
330
1F
100
AcDbEntity
  8
11
 62
18
100
AcDbPolyline
 90
15
 70
1
 10
2145.9400119016354
 20
1951.7560430785163
 10
2145.6860102842038
 20
1953.7880560179694
 10
2143.908008498925
 20
1957.0900579710947
 10
2142.3840083310793
 20
1958.3600469847659
 10
2138.5740126798337
 20
1959.3759771605476
 10
2136.5420092771242
 20
1959.1220709105473
 10
2134.7640074918459
 20
1958.3600469847659
 10
2131.9700087735841
 20
1955.566010119531
 10
2131.2080039212888
 20
1953.7880560179694
 10
2131.2080039212888
 20
1949.9780889769534
 10
2133.2400073239992
 20
1946.4220281859384
 10
2136.5420092771242
 20
1944.6440740843748
 10
2140.3520049283693
 20
1944.6440740843748
 10
2143.908008498925
 20
1946.4220281859384
 10
2145.6860102842038
 20
1949.9780889769534
  0
LWPOLYLINE
  5
30
330
1F
100
AcDbEntity
  8
1
 62
18
100
AcDbPolyline
 90
42
 70
1
 10
2483.5060061000004
 20
335.43712164766748
 10
2479.4419992945805
 20
337.21515204317586
 10
2475.1240004084711
 20
338.23115851290157
 10
2457.3440016291752
 20
341.27917792208183
 10
2444.1360033534183
 20
346.10515143282373
 10
2438.5480059168949
 20
349.66113592989444
 10
2421.2760008357182
 20
365.40912176973768
 10
2417.9739988825927
 20
367.18715216524606
 10
2414.6720064662113
 20
367.69511725313714
 10
2120.0320089839115
 20
369.21916510469867
 10
2112.4119986079349
 20
368.4571411789172
 10
2107.5860060237064
 20
366.93316962130052
 10
2099.9659956477294
 20
363.88515021212078
 10
2095.1400030635014
 20
360.83713080294052
 10
2091.5839994929447
 20
357.78911139376152
 10
2088.790000774683
 20
354.23312689669081
 10
2087.0120085261474
 20
349.40715338594885
 10
2086.7580069087162
 20
343.81915594942546
 10
2085.9960020564213
 20
93.629184025597084
 10
2086.2500036738529
 20
88.295169133018589
 10
2087.0120085261478
 20
82.961154240440749
 10
2089.2980040095463
 20
75.341143864464044
 10
2092.6000059626713
 20
68.483157414268788
 10
2096.6639936946049
 20
62.641177433800507
 10
2101.7440069697514
 20
57.053179997277127
 10
2107.0780027888436
 20
52.989154118370536
 10
2116.7300070307865
 20
49.687152165246047
 10
2126.6359938166752
 20
47.90912176973756
 10
2458.3599985621586
 20
48.163180607628732
 10
2465.7260073207035
 20
48.67114569551913
 10
2472.3300016902103
 20
50.449176091026949
 10
2478.1720007441654
 20
53.243136662316125
 10
2483.2520044825683
 20
56.545138615441353
 10
2493.9200056574955
 20
65.4351380050892
 10
2495.9519995234623
 20
67.7211334884881
 10
2497.4760092280526
 20
70.261111515831857
 10
2498.4919966242924
 20
73.055148381065948
 10
2498.9999998591552
 20
76.611132878135976
 10
2498.9999998591552
 20
312.57716681368345
 10
2497.9839933894282
 20
318.41914679415174
 10
2496.2060011408944
 20
323.49917914278467
 10
2490.1100004695072
 20
330.61114813692615
  0
LWPOLYLINE
  5
31
330
1F
100
AcDbEntity
  8
1
 62
18
100
AcDbPolyline
 90
39
 70
1
 10
2094.8859831000004
 20
652.60685818024137
 10
2088.7900205755864
 20
645.49481289215578
 10
2087.0119901800786
 20
640.66883938141314
 10
2085.995983710352
 20
634.57280056305387
 10
2085.995983710352
 20
398.86082546539757
 10
2086.5040250921879
 20
395.050858424382
 10
2087.5200315619145
 20
392.25682155914785
 10
2090.8220335150395
 20
387.43084804840532
 10
2101.7440458441411
 20
378.54084865875683
 10
2106.5700193548832
 20
375.23884670563223
 10
2112.411999335352
 20
372.44480984039751
 10
2119.2699857855473
 20
370.92083828278072
 10
2131.7160459662114
 20
370.15881435699936
 10
2458.3600278998051
 20
370.15881435699941
 10
2468.2660146856938
 20
371.68286220856157
 10
2477.6640173102055
 20
374.9848641616868
 10
2483.2520147467289
 20
379.30287258453831
 10
2488.3320089483891
 20
384.63681118317129
 10
2492.396015753809
 20
390.47886745758507
 10
2495.4440160895024
 20
397.33685390778095
 10
2497.7300115729008
 20
404.95686428375694
 10
2498.7460180426274
 20
410.29080288239
 10
2499.0000005865727
 20
415.62481777496782
 10
2498.2380148077641
 20
665.8148659927416
 10
2497.7300115729008
 20
671.402863429265
 10
2495.9520002508793
 20
676.22883694000689
 10
2493.4120031500488
 20
679.78482143707765
 10
2489.6020170355473
 20
683.08682339020277
 10
2484.776005377832
 20
685.88086025543691
 10
2472.584004035059
 20
690.452851222234
 10
2464.9640127325688
 20
691.21479885407
 10
2167.0220228338871
 20
689.43684475250689
 10
2163.7200208807621
 20
687.40483181305353
 10
2146.4480253363286
 20
671.65684597320967
 10
2140.8600278998051
 20
668.1008614761397
 10
2135.2720304632812
 20
665.814865992742
 10
2127.6520200873051
 20
663.27481167145288
 10
2105.5540128851562
 20
659.46484463043669
 10
2101.4899870062504
 20
657.43283169098333
  0
ENDSEC
  0
SECTION
  2
OBJECTS
  0
DICTIONARY
  5
C
330
0
100
AcDbDictionary
280
0
281
1
  3
ACAD_SCALELIST
350
37
  3
ACAD_COLOR
350
49
  3
ACAD_FIELDLIST
350
4A
  3
ACAD_GROUP
350
D
  3
ACAD_IMAGE_DICT
350
4B
  3
ACAD_LAYOUT
350
1A
  3
ACAD_MATERIAL
350
4C
  3
ACAD_MLEADERSTYLE
350
4D
  3
ACAD_MLINESTYLE
350
17
  3
ACAD_PLOTSETTINGS
350
19
  3
ACAD_PLOTSTYLENAME
350
E
  3
ACAD_TABLESTYLE
350
4F
  3
ACDB_RECOMPOSE_DATA
350
53
  3
AcDbVariableDictionary
350
54
  3
ACAD_VISUALSTYLE
350
57
  3
DWGPROPS
350
58
  0
DICTIONARY
  5
51
330
50
100
AcDbDictionary
280
0
281
1
  3
ACAD_ROUNDTRIP_2008_TABLESTYLE_CELLSTYLEMAP
360
52
  0
DICTIONARY
  5
37
102
{ACAD_REACTORS
330
C
102
}
330
C
100
AcDbDictionary
280
0
281
1
  0
DICTIONARY
  5
49
102
{ACAD_REACTORS
330
C
102
}
330
C
100
AcDbDictionary
280
0
281
1
  0
FIELDLIST
  5
4A
102
{ACAD_REACTORS
330
C
102
}
330
C
100
AcDbIdSet
100
AcDbFieldList
  0
DICTIONARY
  5
D
102
{ACAD_REACTORS
330
C
102
}
330
C
100
AcDbDictionary
280
0
281
1
  0
DICTIONARY
  5
4B
102
{ACAD_REACTORS
330
C
102
}
330
C
100
AcDbDictionary
280
0
281
1
  0
DICTIONARY
  5
1A
102
{ACAD_REACTORS
330
C
102
}
330
C
100
AcDbDictionary
280
0
281
1
  3
Layout1
350
1E
  3
Model
350
22
  0
DICTIONARY
  5
4C
102
{ACAD_REACTORS
330
C
102
}
330
C
100
AcDbDictionary
280
0
281
1
  0
DICTIONARY
  5
4D
102
{ACAD_REACTORS
330
C
102
}
330
C
100
AcDbDictionary
280
0
281
1
  3
Standard
350
4E
  0
DICTIONARY
  5
17
102
{ACAD_REACTORS
330
C
102
}
330
C
100
AcDbDictionary
280
0
281
1
  3
STANDARD
350
18
  0
DICTIONARY
  5
19
102
{ACAD_REACTORS
330
C
102
}
330
C
100
AcDbDictionary
280
0
281
1
  0
ACDBDICTIONARYWDFLT
  5
E
102
{ACAD_REACTORS
330
C
102
}
330
C
100
AcDbDictionary
280
0
281
1
  3
Normal
350
F
100
AcDbDictionaryWithDefault
340
F
  0
ACDBPLACEHOLDER
  5
F
102
{ACAD_REACTORS
330
E
102
}
330
E
  0
DICTIONARY
  5
4F
102
{ACAD_REACTORS
330
C
102
}
330
C
100
AcDbDictionary
280
0
281
1
  3
Standard
350
50
  0
XRECORD
  5
53
102
{ACAD_REACTORS
330
C
102
}
330
C
100
AcDbXrecord
280
1
 90
1
330
50
  0
DICTIONARY
  5
54
102
{ACAD_REACTORS
330
C
102
}
330
C
100
AcDbDictionary
280
0
281
1
  3
DIMASSOC
350
55
  3
HIDETEXT
350
56
  0
DICTIONARY
  5
57
102
{ACAD_REACTORS
330
C
102
}
330
C
100
AcDbDictionary
280
0
281
1
  0
XRECORD
  5
58
102
{ACAD_REACTORS
330
C
102
}
330
C
100
AcDbXrecord
280
0
  1
DWGPROPS COOKIE
  2

  3

  4

  6

  7

  8

  9

300
=
301
=
302
=
303
=
304
=
305
=
306
=
307
=
308
=
309
=
 40
0
 41
2460962.9642815278
 42
2460962.9642815278
  1

 90
0
  0
CELLSTYLEMAP
  5
52
102
{ACAD_REACTORS
330
51
102
}
330
51
100
AcDbCellStyleMap
 90
3
300
CELLSTYLE
  1
TABLEFORMAT_BEGIN
 90
5
170
0
309
TABLEFORMAT_END
  1
CELLSTYLE_BEGIN
 90
3
 91
2
300
_DATA
309
CELLSTYLE_END
300
CELLSTYLE
  1
TABLEFORMAT_BEGIN
 90
5
170
0
309
TABLEFORMAT_END
  1
CELLSTYLE_BEGIN
 90
1
 91
2
300
_TITLE
309
CELLSTYLE_END
300
CELLSTYLE
  1
TABLEFORMAT_BEGIN
 90
5
170
0
309
TABLEFORMAT_END
  1
CELLSTYLE_BEGIN
 90
2
 91
2
300
_HEADER
309
CELLSTYLE_END
  0
LAYOUT
  5
1E
102
{ACAD_REACTORS
330
1A
102
}
330
1A
100
AcDbPlotSettings
  1

  2
C:\Program Files\AutoCAD 2002\plotters\DWF ePlot (optimized for plotting).pc3
  4

  6

 40
0
 41
0
 42
0
 43
0
 44
0
 45
0
 46
0
 47
0
 48
0
 49
0
140
0
141
0
142
1
143
1
 70
688
 72
1
 73
1
 74
1
  7
acad.stb
 75
16
 76
0
 77
0
 78
0
147
1
148
0
149
0
100
AcDbLayout
  1
Layout1
 70
1
 71
1
 10
0
 20
0
 11
420
 21
297
 12
0
 22
0
 32
0
 14
0
 24
0
 34
0
 15
0
 25
0
 35
0
146
0
 13
0
 23
0
 33
0
 16
1
 26
0
 36
0
 17
0
 27
1
 37
0
 76
0
330
32
  0
LAYOUT
  5
22
102
{ACAD_REACTORS
330
1A
102
}
330
1A
100
AcDbPlotSettings
  1

  2
C:\Program Files\AutoCAD 2002\plotters\DWF ePlot (optimized for plotting).pc3
  4

  6

 40
0
 41
0
 42
0
 43
0
 44
0
 45
0
 46
0
 47
0
 48
0
 49
0
140
0
141
0
142
1
143
1
 70
1712
 72
1
 73
1
 74
0
  7
acad.stb
 75
0
 76
0
 77
0
 78
0
147
1
148
0
149
0
100
AcDbLayout
  1
Model
 70
1
 71
0
 10
0
 20
0
 11
12
 21
9
 12
0
 22
0
 32
0
 14
0
 24
0
 34
0
 15
0
 25
0
 35
0
146
0
 13
0
 23
0
 33
0
 16
1
 26
0
 36
0
 17
0
 27
1
 37
0
 76
0
330
1F
  0
MLEADERSTYLE
  5
4E
102
{ACAD_REACTORS
330
4D
102
}
330
4D
100
AcDbMLeaderStyle
170
2
171
1
172
0
 90
2
 40
0
 41
0
173
1
 91
0
340
0
 92
-2
290
1
 42
0.09
292
1
 43
0.36
  3
Standard
341
0
 44
0.18
300

342
0
174
1
178
1
175
1
176
0
 93
0
 45
0.18
292
0
297
0
 46
0
343
0
 94
0
 47
1
 49
1
140
1
293
1
141
0
294
1
177
0
142
1
295
0
296
0
143
0.125
  0
MLINESTYLE
  5
18
102
{ACAD_REACTORS
330
17
102
}
330
17
100
AcDbMlineStyle
  2
STANDARD
 70
0
  3

 51
90
 52
90
 71
2
 49
0.5
 62
0
  6
ByLayer
 49
-0.5
 62
0
  6
ByLayer
  0
TABLESTYLE
  5
50
102
{ACAD_XDICTIONARY
360
51
102
}
102
{ACAD_REACTORS
330
4F
102
}
330
4F
100
AcDbTableStyle
  3

 70
0
 71
0
 40
0.06
 41
0.06
280
0
281
0
  7
Standard
140
0.18
170
1
 62
0
283
0
 90
512
 91
0
274
-2
284
1
 64
0
275
-2
285
1
 65
0
276
-2
286
1
 66
0
277
-2
287
1
 67
0
278
-2
288
1
 68
0
279
-2
289
1
 69
0
  7
Standard
140
0.18
170
1
 62
0
283
0
 90
512
 91
0
274
-2
284
1
 64
0
275
-2
285
1
 65
0
276
-2
286
1
 66
0
277
-2
287
1
 67
0
278
-2
288
1
 68
0
279
-2
289
1
 69
0
  7
Standard
140
0.18
170
1
 62
0
283
0
 90
512
 91
0
274
-2
284
1
 64
0
275
-2
285
1
 65
0
276
-2
286
1
 66
0
277
-2
287
1
 67
0
278
-2
288
1
 68
0
279
-2
289
1
 69
0
  0
DICTIONARYVAR
  5
55
102
{ACAD_REACTORS
330
54
102
}
330
54
100
DictionaryVariables
280
0
  1
1
  0
DICTIONARYVAR
  5
56
102
{ACAD_REACTORS
330
54
102
}
330
54
100
DictionaryVariables
280
0
  1
2
  0
ENDSEC
999
Created By CadLib version 4.0.38.30
999
CadLib website: www.woutware.com
  0
EOF
