  0
SECTION
  2
HEADER
  9
$ACADVER
  1
AC1027
  9
$ACADMAINTVER
 70
105
  9
$DWGCODEPAGE
  3
ANSI_1252
  9
$LASTSAVEDBY
  1
ezdxf
  9
$REQUIREDVERSIONS
160
0
  9
$INSBASE
 10
0.0
 20
0.0
 30
0.0
  9
$EXTMIN
 10
1e+20
 20
1e+20
 30
1e+20
  9
$EXTMAX
 10
-1e+20
 20
-1e+20
 30
-1e+20
  9
$LIMMIN
 10
0.0
 20
0.0
  9
$LIMMAX
 10
420.0
 20
297.0
  9
$ORTHOMODE
 70
0
  9
$REGENMODE
 70
1
  9
$FILLMODE
 70
1
  9
$QTEXTMODE
 70
0
  9
$MIRRTEXT
 70
1
  9
$LTSCALE
 40
1.0
  9
$ATTMODE
 70
1
  9
$TEXTSIZE
 40
2.5
  9
$TRACEWID
 40
1.0
  9
$TEXTSTYLE
  7
Standard
  9
$CLAYER
  8
0
  9
$CELTYPE
  6
ByLayer
  9
$CECOLOR
 62
256
  9
$CELTSCALE
 40
1.0
  9
$DISPSILH
 70
0
  9
$DIMSCALE
 40
1.0
  9
$DIMASZ
 40
2.5
  9
$DIMEXO
 40
0.625
  9
$DIMDLI
 40
3.75
  9
$DIMRND
 40
0.0
  9
$DIMDLE
 40
0.0
  9
$DIMEXE
 40
1.25
  9
$DIMTP
 40
0.0
  9
$DIMTM
 40
0.0
  9
$DIMTXT
 40
2.5
  9
$DIMCEN
 40
2.5
  9
$DIMTSZ
 40
0.0
  9
$DIMTOL
 70
0
  9
$DIMLIM
 70
0
  9
$DIMTIH
 70
0
  9
$DIMTOH
 70
0
  9
$DIMSE1
 70
0
  9
$DIMSE2
 70
0
  9
$DIMTAD
 70
1
  9
$DIMZIN
 70
8
  9
$DIMBLK
  1

  9
$DIMASO
 70
1
  9
$DIMSHO
 70
1
  9
$DIMPOST
  1

  9
$DIMAPOST
  1

  9
$DIMALT
 70
0
  9
$DIMALTD
 70
3
  9
$DIMALTF
 40
0.03937007874
  9
$DIMLFAC
 40
1.0
  9
$DIMTOFL
 70
1
  9
$DIMTVP
 40
0.0
  9
$DIMTIX
 70
0
  9
$DIMSOXD
 70
0
  9
$DIMSAH
 70
0
  9
$DIMBLK1
  1

  9
$DIMBLK2
  1

  9
$DIMSTYLE
  2
ISO-25
  9
$DIMCLRD
 70
0
  9
$DIMCLRE
 70
0
  9
$DIMCLRT
 70
0
  9
$DIMTFAC
 40
1.0
  9
$DIMGAP
 40
0.625
  9
$DIMJUST
 70
0
  9
$DIMSD1
 70
0
  9
$DIMSD2
 70
0
  9
$DIMTOLJ
 70
0
  9
$DIMTZIN
 70
8
  9
$DIMALTZ
 70
0
  9
$DIMALTTZ
 70
0
  9
$DIMUPT
 70
0
  9
$DIMDEC
 70
2
  9
$DIMTDEC
 70
2
  9
$DIMALTU
 70
2
  9
$DIMALTTD
 70
3
  9
$DIMTXSTY
  7
Standard
  9
$DIMAUNIT
 70
0
  9
$DIMADEC
 70
0
  9
$DIMALTRND
 40
0.0
  9
$DIMAZIN
 70
0
  9
$DIMDSEP
 70
44
  9
$DIMATFIT
 70
3
  9
$DIMFRAC
 70
0
  9
$DIMLDRBLK
  1

  9
$DIMLUNIT
 70
2
  9
$DIMLWD
 70
-2
  9
$DIMLWE
 70
-2
  9
$DIMTMOVE
 70
0
  9
$DIMFXL
 40
1.0
  9
$DIMFXLON
 70
0
  9
$DIMJOGANG
 40
0.785398163397
  9
$DIMTFILL
 70
0
  9
$DIMTFILLCLR
 70
0
  9
$DIMARCSYM
 70
0
  9
$DIMLTYPE
  6

  9
$DIMLTEX1
  6

  9
$DIMLTEX2
  6

  9
$DIMTXTDIRECTION
 70
0
  9
$LUNITS
 70
2
  9
$LUPREC
 70
4
  9
$SKETCHINC
 40
1.0
  9
$FILLETRAD
 40
10.0
  9
$AUNITS
 70
0
  9
$AUPREC
 70
2
  9
$MENU
  1
.
  9
$ELEVATION
 40
0.0
  9
$PELEVATION
 40
0.0
  9
$THICKNESS
 40
0.0
  9
$LIMCHECK
 70
0
  9
$CHAMFERA
 40
0.0
  9
$CHAMFERB
 40
0.0
  9
$CHAMFERC
 40
0.0
  9
$CHAMFERD
 40
0.0
  9
$SKPOLY
 70
0
  9
$TDCREATE
 40
2460972.6858564815
  9
$TDUCREATE
 40
2458532.153996898
  9
$TDUPDATE
 40
2460972.6858564815
  9
$TDUUPDATE
 40
2458532.1544311
  9
$TDINDWG
 40
0.0
  9
$TDUSRTIMER
 40
0.0
  9
$USRTIMER
 70
1
  9
$ANGBASE
 50
0.0
  9
$ANGDIR
 70
0
  9
$PDMODE
 70
0
  9
$PDSIZE
 40
0.0
  9
$PLINEWID
 40
0.0
  9
$SPLFRAME
 70
0
  9
$SPLINETYPE
 70
6
  9
$SPLINESEGS
 70
8
  9
$HANDSEED
  5
44
  9
$SURFTAB1
 70
6
  9
$SURFTAB2
 70
6
  9
$SURFTYPE
 70
6
  9
$SURFU
 70
6
  9
$SURFV
 70
6
  9
$UCSBASE
  2

  9
$UCSNAME
  2

  9
$UCSORG
 10
0.0
 20
0.0
 30
0.0
  9
$UCSXDIR
 10
1.0
 20
0.0
 30
0.0
  9
$UCSYDIR
 10
0.0
 20
1.0
 30
0.0
  9
$UCSORTHOREF
  2

  9
$UCSORTHOVIEW
 70
0
  9
$UCSORGTOP
 10
0.0
 20
0.0
 30
0.0
  9
$UCSORGBOTTOM
 10
0.0
 20
0.0
 30
0.0
  9
$UCSORGLEFT
 10
0.0
 20
0.0
 30
0.0
  9
$UCSORGRIGHT
 10
0.0
 20
0.0
 30
0.0
  9
$UCSORGFRONT
 10
0.0
 20
0.0
 30
0.0
  9
$UCSORGBACK
 10
0.0
 20
0.0
 30
0.0
  9
$PUCSBASE
  2

  9
$PUCSNAME
  2

  9
$PUCSORG
 10
0.0
 20
0.0
 30
0.0
  9
$PUCSXDIR
 10
1.0
 20
0.0
 30
0.0
  9
$PUCSYDIR
 10
0.0
 20
1.0
 30
0.0
  9
$PUCSORTHOREF
  2

  9
$PUCSORTHOVIEW
 70
0
  9
$PUCSORGTOP
 10
0.0
 20
0.0
 30
0.0
  9
$PUCSORGBOTTOM
 10
0.0
 20
0.0
 30
0.0
  9
$PUCSORGLEFT
 10
0.0
 20
0.0
 30
0.0
  9
$PUCSORGRIGHT
 10
0.0
 20
0.0
 30
0.0
  9
$PUCSORGFRONT
 10
0.0
 20
0.0
 30
0.0
  9
$PUCSORGBACK
 10
0.0
 20
0.0
 30
0.0
  9
$USERI1
 70
0
  9
$USERI2
 70
0
  9
$USERI3
 70
0
  9
$USERI4
 70
0
  9
$USERI5
 70
0
  9
$USERR1
 40
0.0
  9
$USERR2
 40
0.0
  9
$USERR3
 40
0.0
  9
$USERR4
 40
0.0
  9
$USERR5
 40
0.0
  9
$WORLDVIEW
 70
1
  9
$SHADEDGE
 70
3
  9
$SHADEDIF
 70
70
  9
$TILEMODE
 70
1
  9
$MAXACTVP
 70
64
  9
$PINSBASE
 10
0.0
 20
0.0
 30
0.0
  9
$PLIMCHECK
 70
0
  9
$PEXTMIN
 10
1e+20
 20
1e+20
 30
1e+20
  9
$PEXTMAX
 10
-1e+20
 20
-1e+20
 30
-1e+20
  9
$PLIMMIN
 10
0.0
 20
0.0
  9
$PLIMMAX
 10
420.0
 20
297.0
  9
$UNITMODE
 70
0
  9
$VISRETAIN
 70
1
  9
$PLINEGEN
 70
0
  9
$PSLTSCALE
 70
1
  9
$TREEDEPTH
 70
3020
  9
$CMLSTYLE
  2
Standard
  9
$CMLJUST
 70
0
  9
$CMLSCALE
 40
20.0
  9
$PROXYGRAPHICS
 70
1
  9
$MEASUREMENT
 70
1
  9
$CELWEIGHT
370
-1
  9
$ENDCAPS
280
0
  9
$JOINSTYLE
280
0
  9
$LWDISPLAY
290
0
  9
$INSUNITS
 70
6
  9
$HYPERLINKBASE
  1

  9
$STYLESHEET
  1

  9
$XEDIT
290
1
  9
$CEPSNTYPE
380
0
  9
$PSTYLEMODE
290
1
  9
$FINGERPRINTGUID
  2
{BED67B29-DC67-4536-BE86-836086704645}
  9
$VERSIONGUID
  2
{0183FC3D-0F80-4380-8B1E-9717DCA9C0D6}
  9
$EXTNAMES
290
1
  9
$PSVPSCALE
 40
0.0
  9
$OLESTARTUP
290
0
  9
$SORTENTS
280
127
  9
$INDEXCTL
280
0
  9
$HIDETEXT
280
1
  9
$XCLIPFRAME
280
1
  9
$HALOGAP
280
0
  9
$OBSCOLOR
 70
257
  9
$OBSLTYPE
280
0
  9
$INTERSECTIONDISPLAY
280
0
  9
$INTERSECTIONCOLOR
 70
257
  9
$DIMASSOC
280
2
  9
$PROJECTNAME
  1

  9
$CAMERADISPLAY
290
0
  9
$LENSLENGTH
 40
50.0
  9
$CAMERAHEIGHT
 40
0.0
  9
$STEPSPERSEC
 40
24.0
  9
$STEPSIZE
 40
100.0
  9
$3DDWFPREC
 40
2.0
  9
$PSOLWIDTH
 40
0.005
  9
$PSOLHEIGHT
 40
0.08
  9
$LOFTANG1
 40
1.570796326795
  9
$LOFTANG2
 40
1.570796326795
  9
$LOFTMAG1
 40
0.0
  9
$LOFTMAG2
 40
0.0
  9
$LOFTPARAM
 70
7
  9
$LOFTNORMALS
280
1
  9
$LATITUDE
 40
37.795
  9
$LONGITUDE
 40
-122.394
  9
$NORTHDIRECTION
 40
0.0
  9
$TIMEZONE
 70
-8000
  9
$LIGHTGLYPHDISPLAY
280
1
  9
$TILEMODELIGHTSYNCH
280
1
  9
$CMATERIAL
347
20
  9
$SOLIDHIST
280
0
  9
$SHOWHIST
280
1
  9
$DWFFRAME
280
2
  9
$DGNFRAME
280
2
  9
$REALWORLDSCALE
290
1
  9
$INTERFERECOLOR
 62
256
  9
$CSHADOW
280
0
  9
$SHADOWPLANELOCATION
 40
0.0
  0
ENDSEC
  0
SECTION
  2
CLASSES
  0
CLASS
  1
ACDBDICTIONARYWDFLT
  2
AcDbDictionaryWithDefault
  3
ObjectDBX Classes
 90
0
 91
0
280
0
281
0
  0
CLASS
  1
SUN
  2
AcDbSun
  3
SCENEOE
 90
1153
 91
0
280
0
281
0
  0
CLASS
  1
VISUALSTYLE
  2
AcDbVisualStyle
  3
ObjectDBX Classes
 90
4095
 91
0
280
0
281
0
  0
CLASS
  1
MATERIAL
  2
AcDbMaterial
  3
ObjectDBX Classes
 90
1153
 91
0
280
0
281
0
  0
CLASS
  1
SCALE
  2
AcDbScale
  3
ObjectDBX Classes
 90
1153
 91
0
280
0
281
0
  0
CLASS
  1
TABLESTYLE
  2
AcDbTableStyle
  3
ObjectDBX Classes
 90
4095
 91
0
280
0
281
0
  0
CLASS
  1
MLEADERSTYLE
  2
AcDbMLeaderStyle
  3
ACDB_MLEADERSTYLE_CLASS
 90
4095
 91
0
280
0
281
0
  0
CLASS
  1
DICTIONARYVAR
  2
AcDbDictionaryVar
  3
ObjectDBX Classes
 90
0
 91
0
280
0
281
0
  0
CLASS
  1
CELLSTYLEMAP
  2
AcDbCellStyleMap
  3
ObjectDBX Classes
 90
1152
 91
0
280
0
281
0
  0
CLASS
  1
MENTALRAYRENDERSETTINGS
  2
AcDbMentalRayRenderSettings
  3
SCENEOE
 90
1024
 91
0
280
0
281
0
  0
CLASS
  1
ACDBDETAILVIEWSTYLE
  2
AcDbDetailViewStyle
  3
ObjectDBX Classes
 90
1025
 91
0
280
0
281
0
  0
CLASS
  1
ACDBSECTIONVIEWSTYLE
  2
AcDbSectionViewStyle
  3
ObjectDBX Classes
 90
1025
 91
0
280
0
281
0
  0
CLASS
  1
RASTERVARIABLES
  2
AcDbRasterVariables
  3
ISM
 90
0
 91
0
280
0
281
0
  0
CLASS
  1
ACDBPLACEHOLDER
  2
AcDbPlaceHolder
  3
ObjectDBX Classes
 90
0
 91
0
280
0
281
0
  0
CLASS
  1
LAYOUT
  2
AcDbLayout
  3
ObjectDBX Classes
 90
0
 91
0
280
0
281
0
  0
ENDSEC
  0
SECTION
  2
TABLES
  0
TABLE
  2
VPORT
  5
8
330
0
100
AcDbSymbolTable
 70
1
  0
VPORT
  5
23
330
8
100
AcDbSymbolTableRecord
100
AcDbViewportTableRecord
  2
*Active
 70
0
 10
0.0
 20
0.0
 11
1.0
 21
1.0
 12
0.0
 22
0.0
 13
0.0
 23
0.0
 14
0.5
 24
0.5
 15
0.5
 25
0.5
 16
0.0
 26
0.0
 36
1.0
 17
0.0
 27
0.0
 37
0.0
 40
1000.0
 41
1.34
 42
50.0
 43
0.0
 44
0.0
 50
0.0
 51
0.0
 71
0
 72
1000
 73
1
 74
3
 75
0
 76
0
 77
0
 78
0
281
0
 65
0
146
0.0
  0
ENDTAB
  0
TABLE
  2
LTYPE
  5
2
330
0
100
AcDbSymbolTable
 70
3
  0
LTYPE
  5
24
330
2
100
AcDbSymbolTableRecord
100
AcDbLinetypeTableRecord
  2
ByBlock
 70
0
  3

 72
65
 73
0
 40
0.0
  0
LTYPE
  5
25
330
2
100
AcDbSymbolTableRecord
100
AcDbLinetypeTableRecord
  2
ByLayer
 70
0
  3

 72
65
 73
0
 40
0.0
  0
LTYPE
  5
26
330
2
100
AcDbSymbolTableRecord
100
AcDbLinetypeTableRecord
  2
Continuous
 70
0
  3

 72
65
 73
0
 40
0.0
  0
ENDTAB
  0
TABLE
  2
LAYER
  5
1
330
0
100
AcDbSymbolTable
 70
2
  0
LAYER
  5
27
330
1
100
AcDbSymbolTableRecord
100
AcDbLayerTableRecord
  2
0
 70
0
 62
7
  6
Continuous
370
-3
390
13
347
21
  0
LAYER
  5
28
330
1
100
AcDbSymbolTableRecord
100
AcDbLayerTableRecord
  2
Defpoints
 70
0
 62
7
  6
Continuous
290
0
370
-3
390
13
347
21
  0
ENDTAB
  0
TABLE
  2
STYLE
  5
5
330
0
100
AcDbSymbolTable
 70
1
  0
STYLE
  5
29
330
5
100
AcDbSymbolTableRecord
100
AcDbTextStyleTableRecord
  2
Standard
 70
0
 40
0.0
 41
1.0
 50
0.0
 71
0
 42
2.5
  3
txt
  4

  0
ENDTAB
  0
TABLE
  2
VIEW
  5
7
330
0
100
AcDbSymbolTable
 70
0
  0
ENDTAB
  0
TABLE
  2
UCS
  5
6
330
0
100
AcDbSymbolTable
 70
0
  0
ENDTAB
  0
TABLE
  2
APPID
  5
3
330
0
100
AcDbSymbolTable
 70
3
  0
APPID
  5
2A
330
3
100
AcDbSymbolTableRecord
100
AcDbRegAppTableRecord
  2
ACAD
 70
0
  0
APPID
  5
41
330
3
100
AcDbSymbolTableRecord
100
AcDbRegAppTableRecord
  2
HATCHBACKGROUNDCOLOR
 70
0
  0
APPID
  5
42
330
3
100
AcDbSymbolTableRecord
100
AcDbRegAppTableRecord
  2
EZDXF
 70
0
  0
ENDTAB
  0
TABLE
  2
DIMSTYLE
  5
4
330
0
100
AcDbSymbolTable
 70
1
100
AcDbDimStyleTable
  0
DIMSTYLE
105
2B
330
4
100
AcDbSymbolTableRecord
100
AcDbDimStyleTableRecord
  2
Standard
 70
0
 40
1.0
 41
2.5
 42
0.625
 43
3.75
 44
1.25
 45
0.0
 46
0.0
 47
0.0
 48
0.0
 49
2.5
140
2.5
141
2.5
142
0.0
143
0.03937007874
144
1.0
145
0.0
146
1.0
147
0.625
148
0.0
 69
0
 70
0
 71
0
 72
0
 73
0
 74
0
 75
0
 76
0
 77
1
 78
8
 79
3
170
0
171
3
172
1
173
0
174
0
175
0
176
0
177
0
178
0
179
2
271
2
272
2
273
2
274
3
275
0
276
0
277
2
278
44
279
0
280
0
281
0
282
0
283
0
284
8
285
0
286
0
288
0
289
3
290
0
371
-2
372
-2
  0
ENDTAB
  0
TABLE
  2
BLOCK_RECORD
  5
9
330
0
100
AcDbSymbolTable
 70
2
  0
BLOCK_RECORD
  5
17
330
9
100
AcDbSymbolTableRecord
100
AcDbBlockTableRecord
  2
*Model_Space
340
1A
 70
0
280
1
281
0
  0
BLOCK_RECORD
  5
1B
330
9
100
AcDbSymbolTableRecord
100
AcDbBlockTableRecord
  2
*Paper_Space
340
1E
 70
0
280
1
281
0
  0
ENDTAB
  0
ENDSEC
  0
SECTION
  2
BLOCKS
  0
BLOCK
  5
18
330
17
100
AcDbEntity
  8
0
100
AcDbBlockBegin
  2
*Model_Space
 70
0
 10
0.0
 20
0.0
 30
0.0
  3
*Model_Space
  1

  0
ENDBLK
  5
19
330
17
100
AcDbEntity
  8
0
100
AcDbBlockEnd
  0
BLOCK
  5
1C
330
1B
100
AcDbEntity
  8
0
100
AcDbBlockBegin
  2
*Paper_Space
 70
0
 10
0.0
 20
0.0
 30
0.0
  3
*Paper_Space
  1

  0
ENDBLK
  5
1D
330
1B
100
AcDbEntity
  8
0
100
AcDbBlockEnd
  0
ENDSEC
  0
SECTION
  2
ENTITIES
  0
LWPOLYLINE
  5
2F
330
17
100
AcDbEntity
  8
0
100
AcDbPolyline
 90
60
 70
0
 10
1788.7418975479954
 20
442.8307391
 10
1789.4212008910577
 20
26.147811086000395
 10
1791.277058033841
 20
21.860365539000334
 10
1795.717858788139
 20
14.893265114000432
 10
1807.2506858501622
 20
5.849432723000411
 10
1817.215092215137
 20
2.02348337750039
 10
1823.8891826395632
 20
1.000003822500397
 10
2214.6494827854494
 20
1.2205551339994816
 10
2227.9056049679693
 20
3.3642779075004228
 10
2237.118610601513
 20
6.311897897000451
 10
2246.0664940520214
 20
10.130404028500495
 10
2253.2248004401213
 20
15.824669703500549
 10
2260.117984645185
 20
23.193716855000453
 10
2266.3483624618925
 20
27.213197290500553
 10
2273.8380711134005
 20
31.098696111000386
 10
2329.542615044563
 20
47.3714208370006
 10
2333.7938311274506
 20
49.439053868999466
 10
2336.350952183672
 20
51.991289803999464
 10
2338.6203985172197
 20
55.83579826549949
 10
2340.4423495967
 20
60.71412136149952
 10
2341.0177009035797
 20
64.81708395199956
 10
2340.533384416825
 20
161.00905555849948
 10
2341.843972715833
 20
169.37404274950057
 10
2344.771366822101
 20
180.20431047149958
 10
2348.195866185021
 20
188.01996739650045
 10
2352.8355090419795
 20
196.05893014900042
 10
2358.0827245767277
 20
203.20467335449942
 10
2361.6729232098137
 20
206.72171991150017
 10
2367.2515428695087
 20
210.12711261400014
 10
2376.917464557405
 20
215.26311654250014
 10
2388.4613398507718
 20
219.3942489509999
 10
2411.2729181615887
 20
225.14434061250006
 10
2431.0822499007018
 20
228.86119870649975
 10
2436.8818025411315
 20
230.81511199699995
 10
2441.024342002977
 20
233.27146292900002
 10
2446.7686609328375
 20
239.69146642849992
 10
2448.2047411306876
 20
243.65512087749985
 10
2449.364652775698
 20
250.63338612350017
 10
2450.837278698527
 20
447.64736028500005
 10
2449.776789966387
 20
450.9969270010001
 10
2447.8546508816908
 20
453.40861488600007
 10
2441.2265907211995
 20
459.3708456725
 10
2437.978838859791
 20
460.9786382229999
 10
2430.2286097485635
 20
462.9880689340002
 10
2423.2860221716955
 20
463.18190858999986
 10
2382.7520513535037
 20
454.03262753150005
 10
2357.3572960312636
 20
451.9670603865001
 10
2289.314507066201
 20
452.7587540981438
 10
2224.683402453391
 20
456.74177503916417
 10
2134.5124802272303
 20
461.7774937110428
 10
2070.743878673593
 20
466.45289184595373
 10
1964.298567258012
 20
474.86546478450026
 10
1884.4175067993103
 20
473.53056714804296
 10
1836.5297028066454
 20
471.9853983583932
 10
1809.6202922658492
 20
470.9001132225
 10
1805.6434557972473
 20
469.6272784724999
 10
1801.2689351233234
 20
466.94762359450004
 10
1797.2258167128082
 20
463.4640733820001
 10
1794.0443467933112
 20
459.8465415545001
 10
1790.332632507744
 20
452.74545763300006
  0
LWPOLYLINE
  5
30
330
17
100
AcDbEntity
  8
0
100
AcDbPolyline
 90
22
 70
0
 10
1866.6197000798163
 20
311.5557088875002
 10
1869.3217009898033
 20
311.9606141930803
 10
1871.7907771333203
 20
313.1411585097639
 10
1873.8149141756248
 20
314.99554645381005
 10
1875.218886945543
 20
317.3631144975256
 10
1875.882549835142
 20
320.0412082178287
 10
1875.7485481650392
 20
322.7985210918668
 10
1874.8285073063162
 20
325.3975067091438
 10
1873.2012327704667
 20
327.6153159315126
 10
1871.007648974173
 20
329.2596595315246
 10
1868.4355408638974
 20
330.18994641289345
 10
1865.7072972230064
 20
330.3253599077173
 10
1863.0578002546513
 20
329.65460558960007
 10
1860.7146242918848
 20
328.2349760464561
 10
1858.8806363623546
 20
326.18973585463203
 10
1857.7127494507458
 20
323.69379869270466
 10
1857.3120072874963
 20
320.9632088875
 10
1857.712749274644
 20
318.2326194867474
 10
1858.8806363623546
 20
315.7366819203682
 10
1860.7146332016714
 20
313.69142046330916
 10
1863.0578002546513
 20
312.27181218540017
 10
1865.7068370886782
 20
311.60129002904176
  0
LWPOLYLINE
  5
31
330
17
100
AcDbEntity
  8
0
100
AcDbPolyline
 90
22
 70
0
 10
1864.6704849167872
 20
100.84140432600054
 10
1867.3724858267738
 20
101.2463096315804
 10
1869.841561970291
 20
102.42685394826447
 10
1871.8656990125955
 20
104.2812418923105
 10
1873.2696717825143
 20
106.64880993602549
 10
1873.9333346721126
 20
109.32690365632845
 10
1873.7993330020097
 20
112.08421653036646
 10
1872.8792921432873
 20
114.68320214764447
 10
1871.2520176074381
 20
116.9010113700125
 10
1869.0584338111435
 20
118.5453549700245
 10
1866.4863257008678
 20
119.47564185139333
 10
1863.7580820599774
 20
119.61105534621754
 10
1861.1085850916218
 20
118.9403010280995
 10
1858.765409128856
 20
117.52067148495541
 10
1856.9314211993255
 20
115.47543129313237
 10
1855.7635342877168
 20
112.97949413120443
 10
1855.3627921244672
 20
110.24890432600034
 10
1855.763534111615
 20
107.51831492524741
 10
1856.9314211993255
 20
105.02237735886854
 10
1858.7654180386426
 20
102.9771159018095
 10
1861.1085850916218
 20
101.5575076239005
 10
1863.7576219256491
 20
100.88698546754142
  0
LWPOLYLINE
  5
32
330
17
100
AcDbEntity
  8
0
100
AcDbPolyline
 90
73
 70
0
 10
1936.3021425479953
 20
862.3783543932451
 10
2236.456682306995
 20
862.4541450741144
 10
2239.527119090495
 20
864.1111601142371
 10
2244.318861200995
 20
867.9315007593063
 10
2247.296254046495
 20
871.9819834163583
 10
2250.3201688609947
 20
877.2752273535024
 10
2251.6693003174946
 20
881.1415964009682
 10
2253.018431773995
 20
886.9871793053327
 10
2254.826916403495
 20
990.2014095717406
 10
2255.0298634928267
 20
1065.5714444507496
 10
2254.826916403495
 20
1115.8210974508975
 10
2245.362145424995
 20
1294.2014940463996
 10
2231.823770781995
 20
1587.4608472848931
 10
2229.965183688995
 20
1592.85984895062
 10
2226.280659172495
 20
1599.7088458149221
 10
2223.2102223889947
 20
1603.740915994093
 10
2219.414045899495
 20
1606.4473752580882
 10
2210.872649268495
 20
1609.26430194322
 10
2203.8786964897135
 20
1609.865239028523
 10
2119.528648469907
 20
1609.265379327591
 10
2025.1526756023657
 20
1607.3542679390919
 10
1967.0795144644949
 20
1605.836271241654
 10
1961.552728630495
 20
1605.007763721593
 10
1957.030812434995
 20
1603.295514970902
 10
1954.295331570495
 20
1601.1966283846948
 10
1947.4845442839949
 20
1593.5743577109
 10
1943.9444830256462
 20
1586.287259904894
 10
1940.729584865495
 20
1573.082600828562
 10
1937.324190281495
 20
1563.913782535781
 10
1915.3992536917847
 20
1515.3382794630559
 10
1900.4086042189092
 20
1479.8337894319332
 10
1887.256319187707
 20
1445.8693323486552
 10
1878.6461301249951
 20
1422.383353335885
 10
1874.559657000495
 20
1416.5506597244992
 10
1869.870262845495
 20
1411.447052581844
 10
1861.1613882549952
 20
1403.6922198857621
 10
1853.591364917995
 20
1398.522332662734
 10
1846.0883342699951
 20
1394.5454943325929
 10
1830.6803243659951
 20
1387.5860300471538
 10
1827.263764960995
 20
1385.5976127436231
 10
1822.842335917495
 20
1381.289372150073
 10
1820.6316223364952
 20
1377.975340208289
 10
1815.808244684995
 20
1367.039039454249
 10
1811.9227477459951
 20
1352.4573044950148
 10
1806.8983957904952
 20
1326.6741447371678
 10
1804.610185105995
 20
1314.0274214017618
 10
1801.8234159319052
 20
1306.81589049822
 10
1792.551743799495
 20
1288.8301827667292
 10
1790.718859877995
 20
1280.4311032217183
 10
1789.964869449495
 20
1263.7902366937326
 10
1790.254272371995
 20
1248.9009588107938
 10
1792.823097492495
 20
1144.669096152939
 10
1788.7420624208435
 20
1049.8102137358235
 10
1790.6475563636473
 20
927.5698721925323
 10
1792.7342120483966
 20
852.6785258217624
 10
1793.5634940834952
 20
828.9164970048182
 10
1794.6677276184955
 20
825.3334001413325
 10
1797.4813641114952
 20
821.1179516603063
 10
1803.3498058859952
 20
816.6638948899334
 10
1809.7809742064956
 20
813.5619629284238
 10
1813.0769482764952
 20
812.7665945177803
 10
1817.7395461084952
 20
812.4484482704461
 10
1887.2644763429953
 20
812.82696607477
 10
1891.5251255669953
 20
813.6223344854135
 10
1899.0817488609955
 20
816.644730350474
 10
1904.3070751204953
 20
820.4624927646398
 10
1907.5226583399954
 20
824.3597931367931
 10
1911.3813608374953
 20
832.0748577846505
 10
1914.8381147269954
 20
845.3574919993201
 10
1916.8478540039953
 20
849.8115506312316
 10
1919.9830501359954
 20
853.7088491418461
 10
1924.9672057254954
 20
857.6856874719869
 10
1930.0317521654952
 20
860.6285453790601
  0
LWPOLYLINE
  5
33
330
17
100
AcDbEntity
  8
0
100
AcDbPolyline
 90
52
 70
0
 10
2486.5169668988274
 20
1875.9533311000002
 10
2488.2995371301026
 20
1976.6665490880002
 10
2486.1005053540666
 20
1982.7787335430012
 10
2481.152682927215
 20
1990.0022222100001
 10
2478.6291421650517
 20
1992.1183979420011
 10
2476.4418808973205
 20
1993.1902602695002
 10
2474.055779388467
 20
1993.5252161885003
 10
2079.563930263673
 20
1998.9999992440012
 10
2075.7729833124417
 20
1997.1060248990002
 10
2069.9508948862235
 20
1993.2473224015012
 10
2062.5062559447542
 20
1986.5910627100002
 10
2061.2654827878428
 20
1984.4687777475003
 10
2060.1201525743622
 20
1980.8994781725003
 10
2060.4362716062064
 20
1625.0675264425006
 10
2061.390712209748
 20
1621.5946951355006
 10
2063.6813707751708
 20
1617.8324609060007
 10
2066.7355803341957
 20
1614.4560978670006
 10
2070.362456861499
 20
1612.1408763685006
 10
2073.989331527264
 20
1610.5009271015006
 10
2080.4795298651925
 20
1609.8256548700006
 10
2206.5894930160302
 20
1611.2459879310006
 10
2215.2589964058902
 20
1609.3166376230006
 10
2223.0325180622967
 20
1606.0661000219388
 10
2235.0636445139908
 20
1597.9817008005007
 10
2240.7107539003287
 20
1591.9524792065006
 10
2246.198787370692
 20
1585.1193622780006
 10
2249.8574775919597
 20
1577.1607903760007
 10
2254.939832544942
 20
1554.5338185833682
 10
2259.5609595433493
 20
1529.5701369020005
 10
2261.3107685575337
 20
1523.2193575505005
 10
2263.5377960119513
 20
1520.4057191760007
 10
2268.9573416172097
 20
1516.6720686945005
 10
2273.3208159213277
 20
1514.9972853365007
 10
2278.1813936205594
 20
1513.7132838840005
 10
2463.2921623972643
 20
1513.5985594215008
 10
2466.9269169557474
 20
1514.5159694140007
 10
2470.425060645579
 20
1516.0977088340007
 10
2474.153346347394
 20
1518.8424937160005
 10
2478.157800602049
 20
1522.5642361840007
 10
2480.321126206996
 20
1525.9603248690005
 10
2481.9781412471184
 20
1529.5425014300006
 10
2482.7606203647833
 20
1532.5198942755005
 10
2488.139515552541
 20
1734.1460458320007
 10
2487.4714075023694
 20
1740.3199679465006
 10
2484.1308635284363
 20
1747.1691641740006
 10
2477.3543344986765
 20
1756.5265165545006
 10
2470.7686913557786
 20
1767.2344133980007
 10
2469.3370304504665
 20
1773.6012701670006
 10
2469.432475255436
 20
1839.3921341085002
 10
2470.7686913557786
 20
1842.4790942250002
 10
2482.2219823213527
 20
1862.3514087945011
 10
2485.657969238717
 20
1870.0688119080003
  0
LWPOLYLINE
  5
34
330
17
100
AcDbEntity
  8
0
100
AcDbPolyline
 90
50
 70
0
 10
2499.0000011
 20
488.3650328020608
 10
2497.217430868725
 20
589.0782507900607
 10
2496.3584332086143
 20
594.9627699820605
 10
2492.92244629125
 20
602.6801730955608
 10
2480.1329392253333
 20
625.6394477815606
 10
2480.037496281902
 20
691.4303117230606
 10
2481.469157187214
 20
697.7971684920609
 10
2488.054798468573
 20
708.5050653355607
 10
2494.8313293598712
 20
717.8624177160608
 10
2498.1718714722665
 20
724.7116120620607
 10
2498.8399795224377
 20
730.8855360580607
 10
2493.46108433468
 20
932.5116876145606
 10
2492.6786052170155
 20
935.4890804600608
 10
2491.0215901768925
 20
939.0712570210607
 10
2488.858264571946
 20
942.4673457060607
 10
2484.8538103172905
 20
946.1890881740609
 10
2481.1255264770143
 20
948.9338711745607
 10
2477.627382787183
 20
950.5156124760605
 10
2473.9926282286997
 20
951.4330205870609
 10
2288.8818594519953
 20
951.3182980060608
 10
2284.0212798912253
 20
950.0342965535608
 10
2279.6578074486456
 20
948.3595131955606
 10
2274.2382618433867
 20
944.6258608325609
 10
2272.0112325274313
 20
941.8122243395608
 10
2269.8664517269144
 20
933.5170857751223
 10
2260.5579434233955
 20
887.8707915140606
 10
2256.8992532021275
 20
879.9122196120604
 10
2251.411217870226
 20
873.0791026835607
 10
2245.764110345426
 20
867.0498810895605
 10
2232.0837900638962
 20
857.9658542140606
 10
2225.959462237326
 20
855.7149442670606
 10
2217.289956985927
 20
853.7855939590605
 10
2091.179993835089
 20
855.2059270200606
 10
2084.6897954971614
 20
854.5306529070607
 10
2081.062920831396
 20
852.8907055215607
 10
2077.4360461656306
 20
850.5754840230605
 10
2074.381834745068
 20
847.1991209840605
 10
2072.091176179645
 20
843.4368867545605
 10
2071.1367355761035
 20
839.9640554475606
 10
2070.820618405798
 20
484.1321037175607
 10
2071.96594675774
 20
480.5628041425607
 10
2073.206719914652
 20
478.44051918006073
 10
2075.9745987818446
 20
475.64296010456064
 10
2080.651358856121
 20
471.7842576070608
 10
2086.4734491438776
 20
467.9255569910607
 10
2090.264396095109
 20
466.03158264606077
 10
2487.1423467287564
 20
471.8413216205607
 10
2489.3296061349492
 20
472.91318394806086
 10
2491.8531487586515
 20
475.02935968006085
 10
2496.800969323964
 20
482.2528483470607
  0
CIRCLE
  5
35
330
17
100
AcDbEntity
  8
0
100
AcDbCircle
 10
649.9999998807907
 20
942.7536664416518
 30
0.0
 40
6.999999880790653
  0
CIRCLE
  5
36
330
17
100
AcDbEntity
  8
0
100
AcDbCircle
 10
659.6019505344766
 20
1953.858933301172
 30
0.0
 40
6.999999880790613
  0
CIRCLE
  5
37
330
17
100
AcDbEntity
  8
0
100
AcDbCircle
 10
658.3412676507146
 20
944.805668394777
 30
0.0
 40
6.999999880790653
  0
CIRCLE
  5
38
330
17
100
AcDbEntity
  8
0
100
AcDbCircle
 10
662.5082379119444
 20
1955.7759712650395
 30
0.0
 40
6.999999880790692
  0
LWPOLYLINE
  5
39
330
17
100
AcDbEntity
  8
0
100
AcDbPolyline
 90
73
 70
0
 10
3154.6418013847515
 20
1350.044682119767
 10
3155.1497855461275
 20
1358.93475780336
 10
3154.895783928696
 20
1366.5546918853915
 10
3153.625794915024
 20
1372.6507307037507
 10
3150.8317961967623
 20
1377.9847455963293
 10
3147.2757926262066
 20
1382.556736563126
 10
3142.1957984245455
 20
1386.6207624420315
 10
3137.877790001694
 20
1388.144810293595
 10
2884.1317954338238
 20
1396.272709463517
 10
2879.305783776109
 20
1395.5106855377346
 10
2874.479810265366
 20
1394.240696524064
 10
2870.1618018425143
 20
1392.462742422501
 10
2865.8437934196636
 20
1389.922764395157
 10
2858.9858069694683
 20
1385.0967145904701
 10
2855.6838050163424
 20
1381.794712637345
 10
2852.8898062980807
 20
1378.2388044342201
 10
2847.301808861558
 20
1367.316715811173
 10
2842.4757972038433
 20
1356.1407209381257
 10
2835.363790062729
 20
1335.8207441314853
 10
2824.949780968491
 20
1308.8967634185947
 10
2804.121800926988
 20
1266.9868207916418
 10
2790.1518073356783
 20
1251.7468000396893
 10
2773.387815026109
 20
1235.9988141998451
 10
2764.24375679857
 20
1228.632786367814
 10
2747.73382332689
 20
1218.2188154205478
 10
2720.555783776108
 20
1203.9947248443762
 10
2713.1897559440777
 20
1198.9147687896893
 10
2707.0937934196627
 20
1193.5807538971096
 10
2701.50579598314
 20
1187.738773916642
 10
2693.3778205192725
 20
1177.8327680572668
 10
2690.075818566148
 20
1171.7367292389072
 10
2687.535764244859
 20
1165.6406904205476
 10
2683.4718146598975
 20
1150.9087873443757
 10
2676.74976509754
 20
1106.6079385758724
 10
2672.295819786851
 20
1071.152775381485
 10
2668.4857764518897
 20
1031.020786856095
 10
2665.691815880601
 20
990.8887983307038
 10
2663.3235024192218
 20
930.4014459025765
 10
2663.4058203972027
 20
902.7506757721095
 10
2665.4377570427105
 20
833.9167524322661
 10
2667.9778113639995
 20
796.0706830963288
 10
2673.3118262565777
 20
735.618717764298
 10
2674.5818152702495
 20
729.2687726959387
 10
2677.629758385484
 20
720.1247907623446
 10
2681.69378426439
 20
713.2667280182038
 10
2687.2817817009136
 20
705.9007001861727
 10
2693.1237616813823
 20
700.5666852935947
 10
2700.2358069694683
 20
696.5028120025785
 10
2705.5698218620455
 20
694.4707990631258
 10
2710.9037604606783
 20
693.2008100494531
 10
2719.7937598503277
 20
691.6767621978915
 10
2725.889798668687
 20
691.4227033600006
 10
2742.145825890366
 20
691.6767621978915
 10
3030.9437766349956
 20
691.6767621978918
 10
3064.471799401108
 20
692.6926923736727
 10
3069.551793602769
 20
693.9626813873446
 10
3073.3617987907564
 20
695.4867292389068
 10
3077.679807213608
 20
698.0267072662506
 10
3083.5217871940777
 20
702.3447919830481
 10
3087.5857749260113
 20
706.6627241119536
 10
3091.1417975700533
 20
712.2507978424231
 10
3093.4277930534518
 20
719.3627668365632
 10
3094.443799523179
 20
809.2786909088292
 10
3097.7458014763033
 20
960.4087568267975
 10
3099.556668647995
 20
1003.6507530907865
 10
3102.5717940605327
 20
1040.418675039689
 10
3108.4689344926355
 20
1094.790081700095
 10
3112.7318015373385
 20
1126.778690908829
 10
3119.335786370103
 20
1167.6727033600005
 10
3126.3295672843087
 20
1218.8671248141763
 10
3132.035790947739
 20
1251.238682363907
 10
3138.8937964714214
 20
1285.528690908829
 10
3146.259786156479
 20
1317.5327802642978
  0
LWPOLYLINE
  5
3A
330
17
100
AcDbEntity
  8
0
100
AcDbPolyline
 90
16
 70
0
 10
2730.9697547233745
 20
744.5087934478912
 10
2731.223813561265
 20
742.7306867584387
 10
2733.2558265007183
 20
739.1747785553134
 10
2736.5578284538433
 20
737.3966718658595
 10
2740.367795494859
 20
737.3966718658595
 10
2743.669797447984
 20
739.1747785553134
 10
2745.701810387436
 20
742.7306867584387
 10
2745.9557929313823
 20
744.5087934478912
 10
2745.701810387436
 20
746.5408063873446
 10
2744.939786461656
 20
748.3187604889068
 10
2742.145825890366
 20
751.1127973541415
 10
2738.589765099351
 20
752.1287275299225
 10
2736.5578284538433
 20
751.8748212799225
 10
2734.7797980583346
 20
751.1127973541415
 10
2731.985761193101
 20
748.3187604889062
 10
2731.223813561265
 20
746.5408063873446
  0
LWPOLYLINE
  5
3B
330
17
100
AcDbEntity
  8
0
100
AcDbPolyline
 90
19
 70
0
 10
3018.497792748276
 20
742.2227216705478
 10
3018.751775292222
 20
740.1907087310946
 10
3020.529805687729
 20
736.88870677797
 10
3022.0537772453463
 20
735.6187177642981
 10
3023.831807640854
 20
734.8566938385167
 10
3025.8637824333355
 20
734.6027875885167
 10
3027.8957953727877
 20
734.8566938385167
 10
3029.6737876213238
 20
735.6187177642981
 10
3032.4677863395855
 20
738.4127546295316
 10
3033.229810265366
 20
740.1907087310946
 10
3033.229810265366
 20
744.0006757721101
 10
3032.4677863395855
 20
745.7787824615633
 10
3029.6737876213238
 20
748.5728193267981
 10
3027.8957953727886
 20
749.3346906646885
 10
3025.8637824333355
 20
749.5887495025783
 10
3023.831807640854
 20
749.3346906646885
 10
3022.0537772453463
 20
748.5728193267981
 10
3020.529805687729
 20
747.3026777252347
 10
3018.751775292222
 20
744.0006757721095
  0
LWPOLYLINE
  5
3C
330
17
100
AcDbEntity
  8
0
100
AcDbPolyline
 90
74
 70
0
 10
2731.731810384751
 20
1643.9079901000005
 10
2732.0989063046163
 20
1616.6042634969015
 10
2731.4778087673203
 20
1564.9140020628913
 10
2732.493815237046
 20
1556.024078967188
 10
2736.049799734117
 20
1538.7520452757813
 10
2739.0978000698105
 20
1529.354004504297
 10
2742.907805257798
 20
1520.210022570703
 10
2750.7817981777216
 20
1507.509979846094
 10
2754.0838001308457
 20
1503.4459539671882
 10
2760.687804037095
 20
1496.8419500609384
 10
2768.8158081111924
 20
1489.7299810667973
 10
2781.515803152085
 20
1480.5859991332034
 10
2861.0178087291733
 20
1446.295990588281
 10
2870.4158065853135
 20
1441.470093371484
 10
2882.8618071613328
 20
1430.8020635863284
 10
2888.1958053646104
 20
1424.9600836058587
 10
2891.751806550981
 20
1420.134033801172
 10
2898.3558056888596
 20
1409.973969103906
 10
2902.419806533814
 20
1405.401978137109
 10
2908.261806779862
 20
1400.322022082422
 10
2911.8178061780945
 20
1398.2900091429692
 10
2918.929806390167
 20
1396.2579962035163
 10
2923.755806499482
 20
1396.004089953516
 10
2947.885806375504
 20
1396.765961291406
 10
2972.0158050594337
 20
1398.035950305078
 10
2995.8918045101173
 20
1399.814056994531
 10
3024.2372611207875
 20
1402.9256534032193
 10
3059.8998020229355
 20
1408.1960150023438
 10
3067.2658107814805
 20
1410.228027941797
 10
3074.3778083858506
 20
1412.7680059691415
 10
3092.919802480699
 20
1423.1819769164065
 10
3105.1118038234717
 20
1433.087982775781
 10
3115.7798145351426
 20
1444.7720953246092
 10
3120.60580711937
 20
1451.375946642969
 10
3127.209811025621
 20
1463.313965441797
 10
3130.511812978746
 20
1473.7280889769531
 10
3133.5598133144395
 20
1487.4440618773444
 10
3131.5278003749863
 20
1581.1699529906252
 10
3132.2898052272803
 20
1593.1079717894531
 10
3134.0677974758164
 20
1600.9819647093752
 10
3137.3697994289414
 20
1607.8400274535163
 10
3148.5458133754737
 20
1622.3180242796882
 10
3153.8798091945655
 20
1632.731995226953
 10
3155.1497982082374
 20
1638.0660101195313
 10
3155.1497982082374
 20
1641.875977160547
 10
3154.6418140468613
 20
1645.6859442015632
 10
3152.7831253872855
 20
1679.8393121119493
 10
3150.069804006578
 20
1707.9160162230473
 10
3145.751814657212
 20
1740.4280706664065
 10
3145.2438114223487
 20
1777.003998400781
 10
3146.767802053452
 20
1851.1720892210942
 10
3149.0537975368507
 20
1892.0659490843752
 10
3154.133810811997
 20
1960.9000250121096
 10
3153.8798091945655
 20
1969.028076769922
 10
3152.863802724839
 20
1975.1239630003913
 10
3151.3398120937354
 20
1980.7120367308596
 10
3149.0537975368507
 20
1985.029968859766
 10
3143.2117984828947
 20
1991.8880316039063
 10
3137.3697994289396
 20
1995.4440923949226
 10
3129.4958065090186
 20
1997.9840704222663
 10
3117.359136043666
 20
1998.7040034180254
 10
3076.663803869248
 20
1999.000000598047
 10
2768.8158081111915
 20
1999.000000598047
 10
2750.0198123989103
 20
1998.4920355101565
 10
2743.9238117275245
 20
1997.2220464964842
 10
2740.1138065395353
 20
1995.6979986449226
 10
2731.2238071498878
 20
1990.6180425902344
 10
2723.6038158473975
 20
1982.9979559203127
 10
2720.8097980556486
 20
1978.1720587035163
 10
2719.0318058071143
 20
1970.551972033595
 10
2715.7298038539902
 20
1747.0320745726563
 10
2716.2378070888535
 20
1740.681976916406
 10
2717.5078151760117
 20
1734.5860906859382
 10
2726.1438129482285
 20
1678.4520574828132
  0
LWPOLYLINE
  5
3D
330
17
100
AcDbEntity
  8
0
100
AcDbPolyline
 90
17
 70
0
 10
3090.8878086147315
 20
1952.2640081664067
 10
3090.6338069973
 20
1954.2960211058592
 10
3089.871802145005
 20
1956.073975207422
 10
3087.0778034267432
 20
1958.8680120726565
 10
3085.299811178208
 20
1959.6300359984384
 10
3083.267798238755
 20
1959.8840948363281
 10
3081.235804372788
 20
1959.6300359984384
 10
3079.45780258751
 20
1958.8680120726565
 10
3077.933802419663
 20
1957.5980230589846
 10
3076.155810171128
 20
1954.2960211058592
 10
3076.155810171128
 20
1950.4860540648444
 10
3077.933802419663
 20
1946.9299932738281
 10
3081.235804372788
 20
1945.1520391722663
 10
3083.267798238755
 20
1944.8979803343748
 10
3085.299811178208
 20
1945.1520391722663
 10
3088.601813131333
 20
1946.9299932738281
 10
3089.871802145005
 20
1948.454041125391
  0
LWPOLYLINE
  5
3E
330
17
100
AcDbEntity
  8
0
100
AcDbPolyline
 90
15
 70
0
 10
2802.089810186387
 20
1951.7560430785163
 10
2801.835808568955
 20
1953.7880560179694
 10
2800.057806783676
 20
1957.0900579710947
 10
2798.53380661583
 20
1958.3600469847659
 10
2794.723810964585
 20
1959.3759771605476
 10
2792.691807561875
 20
1959.1220709105473
 10
2790.9138057765967
 20
1958.3600469847659
 10
2788.119807058335
 20
1955.566010119531
 10
2787.35780220604
 20
1953.7880560179694
 10
2787.35780220604
 20
1949.9780889769534
 10
2789.38980560875
 20
1946.4220281859384
 10
2792.691807561875
 20
1944.6440740843748
 10
2796.50180321312
 20
1944.6440740843748
 10
2800.057806783676
 20
1946.4220281859384
 10
2801.835808568955
 20
1949.9780889769534
  0
LWPOLYLINE
  5
3F
330
17
100
AcDbEntity
  8
0
100
AcDbPolyline
 90
42
 70
0
 10
3139.6558043847517
 20
335.4371216476675
 10
3135.591797579332
 20
337.21515204317586
 10
3131.2737986932225
 20
338.2311585129016
 10
3113.4937999139265
 20
341.27917792208183
 10
3100.2858016381697
 20
346.10515143282373
 10
3094.6978042016462
 20
349.66113592989444
 10
3077.4257991204695
 20
365.4091217697377
 10
3074.1237971673436
 20
367.18715216524606
 10
3070.8218047509627
 20
367.69511725313714
 10
2776.181807268663
 20
369.2191651046987
 10
2768.5617968926863
 20
368.4571411789172
 10
2763.735804308458
 20
366.9331696213005
 10
2756.1157939324803
 20
363.8851502121208
 10
2751.2898013482527
 20
360.8371308029405
 10
2747.733797777696
 20
357.7891113937615
 10
2744.9397990594343
 20
354.2331268966908
 10
2743.1618068108983
 20
349.40715338594885
 10
2742.9078051934675
 20
343.81915594942546
 10
2742.1458003411726
 20
93.62918402559708
 10
2742.3998019586043
 20
88.29516913301859
 10
2743.161806810899
 20
82.96115424044075
 10
2745.4478022942976
 20
75.34114386446404
 10
2748.7498042474226
 20
68.48315741426879
 10
2752.813791979356
 20
62.64117743380051
 10
2757.8938052545027
 20
57.05317999727713
 10
2763.2278010735945
 20
52.989154118370536
 10
2772.879805315538
 20
49.68715216524605
 10
2782.7857921014265
 20
47.90912176973756
 10
3114.50979684691
 20
48.16318060762873
 10
3121.875805605455
 20
48.67114569551913
 10
3128.4797999749617
 20
50.44917609102695
 10
3134.3217990289168
 20
53.243136662316125
 10
3139.401802767319
 20
56.54513861544135
 10
3150.069803942247
 20
65.4351380050892
 10
3152.1017978082136
 20
67.7211334884881
 10
3153.6258075128035
 20
70.26111151583186
 10
3154.6417949090437
 20
73.05514838106595
 10
3155.149798143906
 20
76.61113287813598
 10
3155.149798143906
 20
312.57716681368345
 10
3154.1337916741795
 20
318.41914679415174
 10
3152.3557994256453
 20
323.49917914278467
 10
3146.2597987542586
 20
330.61114813692615
  0
LWPOLYLINE
  5
40
330
17
100
AcDbEntity
  8
0
100
AcDbPolyline
 90
39
 70
0
 10
2751.0357813847513
 20
652.6068581802414
 10
2744.9398188603373
 20
645.4948128921558
 10
2743.1617884648294
 20
640.6688393814131
 10
2742.145781995103
 20
634.5728005630539
 10
2742.145781995103
 20
398.86082546539757
 10
2742.653823376939
 20
395.050858424382
 10
2743.6698298466654
 20
392.25682155914785
 10
2746.9718317997904
 20
387.4308480484053
 10
2757.893844128892
 20
378.54084865875683
 10
2762.719817639634
 20
375.2388467056322
 10
2768.561797620103
 20
372.4448098403975
 10
2775.419784070298
 20
370.9208382827807
 10
2787.8658442509623
 20
370.15881435699936
 10
3114.509826184556
 20
370.1588143569994
 10
3124.4158129704447
 20
371.6828622085616
 10
3133.8138155949564
 20
374.9848641616868
 10
3139.40181303148
 20
379.3028725845383
 10
3144.48180723314
 20
384.6368111831713
 10
3148.54581403856
 20
390.47886745758507
 10
3151.5938143742533
 20
397.33685390778095
 10
3153.8798098576517
 20
404.95686428375694
 10
3154.8958163273783
 20
410.29080288239
 10
3155.1497988713236
 20
415.6248177749678
 10
3154.387813092515
 20
665.8148659927416
 10
3153.8798098576517
 20
671.402863429265
 10
3152.10179853563
 20
676.2288369400069
 10
3149.5618014348
 20
679.7848214370777
 10
3145.751815320298
 20
683.0868233902028
 10
3140.9258036625833
 20
685.8808602554369
 10
3128.73380231981
 20
690.452851222234
 10
3121.1138110173197
 20
691.21479885407
 10
2823.171821118638
 20
689.4368447525069
 10
2819.869819165513
 20
687.4048318130535
 10
2802.5978236210794
 20
671.6568459732097
 10
2797.009826184556
 20
668.1008614761397
 10
2791.4218287480326
 20
665.814865992742
 10
2783.801818372056
 20
663.2748116714529
 10
2761.7038111699076
 20
659.4648446304367
 10
2757.6397852910013
 20
657.4328316909833
  0
ENDSEC
  0
SECTION
  2
OBJECTS
  0
DICTIONARY
  5
A
330
0
100
AcDbDictionary
281
1
  3
ACAD_COLOR
350
B
  3
ACAD_GROUP
350
C
  3
ACAD_LAYOUT
350
D
  3
ACAD_MATERIAL
350
E
  3
ACAD_MLEADERSTYLE
350
F
  3
ACAD_MLINESTYLE
350
10
  3
ACAD_PLOTSETTINGS
350
11
  3
ACAD_PLOTSTYLENAME
350
12
  3
ACAD_SCALELIST
350
14
  3
ACAD_TABLESTYLE
350
15
  3
ACAD_VISUALSTYLE
350
16
  3
EZDXF_META
350
2D
  0
DICTIONARY
  5
B
330
A
100
AcDbDictionary
281
1
  0
DICTIONARY
  5
C
330
A
100
AcDbDictionary
281
1
  0
DICTIONARY
  5
D
330
A
100
AcDbDictionary
281
1
  3
Model
350
1A
  3
Layout1
350
1E
  0
DICTIONARY
  5
E
330
A
100
AcDbDictionary
281
1
  3
ByBlock
350
1F
  3
ByLayer
350
20
  3
Global
350
21
  0
DICTIONARY
  5
F
330
A
100
AcDbDictionary
281
1
  3
Standard
350
2C
  0
DICTIONARY
  5
10
330
A
100
AcDbDictionary
281
1
  3
Standard
350
22
  0
DICTIONARY
  5
11
330
A
100
AcDbDictionary
281
1
  0
ACDBDICTIONARYWDFLT
  5
12
330
A
100
AcDbDictionary
281
1
  3
Normal
350
13
100
AcDbDictionaryWithDefault
340
13
  0
ACDBPLACEHOLDER
  5
13
330
12
  0
DICTIONARY
  5
14
330
A
100
AcDbDictionary
281
1
  0
DICTIONARY
  5
15
330
A
100
AcDbDictionary
281
1
  0
DICTIONARY
  5
16
330
A
100
AcDbDictionary
281
1
  0
LAYOUT
  5
1A
330
D
100
AcDbPlotSettings
  1

  4
A3
  6

 40
7.5
 41
20.0
 42
7.5
 43
20.0
 44
420.0
 45
297.0
 46
0.0
 47
0.0
 48
0.0
 49
0.0
140
0.0
141
0.0
142
1.0
143
1.0
 70
1024
 72
1
 73
0
 74
5
  7

 75
16
 76
0
 77
2
 78
300
147
1.0
148
0.0
149
0.0
100
AcDbLayout
  1
Model
 70
1
 71
0
 10
0.0
 20
0.0
 11
420.0
 21
297.0
 12
0.0
 22
0.0
 32
0.0
 14
1e+20
 24
1e+20
 34
1e+20
 15
-1e+20
 25
-1e+20
 35
-1e+20
146
0.0
 13
0.0
 23
0.0
 33
0.0
 16
1.0
 26
0.0
 36
0.0
 17
0.0
 27
1.0
 37
0.0
 76
1
330
17
  0
LAYOUT
  5
1E
330
D
100
AcDbPlotSettings
  1

  4
A3
  6

 40
7.5
 41
20.0
 42
7.5
 43
20.0
 44
420.0
 45
297.0
 46
0.0
 47
0.0
 48
0.0
 49
0.0
140
0.0
141
0.0
142
1.0
143
1.0
 70
0
 72
1
 73
0
 74
5
  7

 75
16
 76
0
 77
2
 78
300
147
1.0
148
0.0
149
0.0
100
AcDbLayout
  1
Layout1
 70
1
 71
1
 10
0.0
 20
0.0
 11
420.0
 21
297.0
 12
0.0
 22
0.0
 32
0.0
 14
1e+20
 24
1e+20
 34
1e+20
 15
-1e+20
 25
-1e+20
 35
-1e+20
146
0.0
 13
0.0
 23
0.0
 33
0.0
 16
1.0
 26
0.0
 36
0.0
 17
0.0
 27
1.0
 37
0.0
 76
1
330
1B
  0
MATERIAL
  5
1F
102
{ACAD_REACTORS
330
E
102
}
330
E
100
AcDbMaterial
  1
ByBlock
  2

 70
0
 40
1.0
 71
1
 41
1.0
 91
-1023410177
 42
1.0
 72
1
  3

 73
1
 74
1
 75
1
 44
0.5
 73
0
 45
1.0
 46
1.0
 77
1
  4

 78
1
 79
1
170
1
 48
1.0
171
1
  6

172
1
173
1
174
1
140
1.0
141
1.0
175
1
  7

176
1
177
1
178
1
143
1.0
179
1
  8

270
1
271
1
272
1
145
1.0
146
1.0
273
1
  9

274
1
275
1
276
1
 42
1.0
 72
1
  3

 73
1
 74
1
 75
1
 94
63
  0
MATERIAL
  5
20
102
{ACAD_REACTORS
330
E
102
}
330
E
100
AcDbMaterial
  1
ByLayer
  2

 70
0
 40
1.0
 71
1
 41
1.0
 91
-1023410177
 42
1.0
 72
1
  3

 73
1
 74
1
 75
1
 44
0.5
 73
0
 45
1.0
 46
1.0
 77
1
  4

 78
1
 79
1
170
1
 48
1.0
171
1
  6

172
1
173
1
174
1
140
1.0
141
1.0
175
1
  7

176
1
177
1
178
1
143
1.0
179
1
  8

270
1
271
1
272
1
145
1.0
146
1.0
273
1
  9

274
1
275
1
276
1
 42
1.0
 72
1
  3

 73
1
 74
1
 75
1
 94
63
  0
MATERIAL
  5
21
102
{ACAD_REACTORS
330
E
102
}
330
E
100
AcDbMaterial
  1
Global
  2

 70
0
 40
1.0
 71
1
 41
1.0
 91
-1023410177
 42
1.0
 72
1
  3

 73
1
 74
1
 75
1
 44
0.5
 73
0
 45
1.0
 46
1.0
 77
1
  4

 78
1
 79
1
170
1
 48
1.0
171
1
  6

172
1
173
1
174
1
140
1.0
141
1.0
175
1
  7

176
1
177
1
178
1
143
1.0
179
1
  8

270
1
271
1
272
1
145
1.0
146
1.0
273
1
  9

274
1
275
1
276
1
 42
1.0
 72
1
  3

 73
1
 74
1
 75
1
 94
63
  0
MLINESTYLE
  5
22
102
{ACAD_REACTORS
330
10
102
}
330
10
100
AcDbMlineStyle
  2
Standard
 70
0
  3

 62
256
 51
90.0
 52
90.0
 71
2
 49
0.5
 62
256
  6
BYLAYER
 49
-0.5
 62
256
  6
BYLAYER
  0
MLEADERSTYLE
  5
2C
102
{ACAD_REACTORS
330
F
102
}
330
F
100
AcDbMLeaderStyle
179
2
170
2
171
1
172
0
 90
2
 40
0.0
 41
0.0
173
1
 91
-1056964608
 92
-2
290
1
 42
2.0
291
1
 43
8.0
  3
Standard
 44
4.0
300

342
29
174
1
175
1
176
0
178
1
 93
-1056964608
 45
4.0
292
0
297
0
 46
4.0
 94
-1056964608
 47
1.0
 49
1.0
140
1.0
294
1
141
0.0
177
0
142
1.0
295
0
296
0
143
3.75
271
0
272
9
273
9
  0
DICTIONARY
  5
2D
330
A
100
AcDbDictionary
280
1
281
1
  3
CREATED_BY_EZDXF
350
2E
  3
WRITTEN_BY_EZDXF
350
43
  0
DICTIONARYVAR
  5
2E
330
2D
100
DictionaryVariables
280
0
  1
1.4.2 @ 2025-10-23T11:27:38.290807+00:00
  0
DICTIONARYVAR
  5
43
330
2D
100
DictionaryVariables
280
0
  1
1.4.2 @ 2025-10-23T11:27:38.400378+00:00
  0
ENDSEC
  0
EOF
