  0
SECTION
  2
HEADER
  9
$ACADVER
  1
AC1015
  9
$DWGCODEPAGE
  3
ansi_1252
  9
$INSBASE
 10
0
 20
0
 30
0
  9
$EXTMIN
 10
2047.6217905059452
 20
2.7171372376717362
 30
0
  9
$EXTMAX
 10
2499.0000012056521
 20
1999.0000008060551
 30
0
  9
$LIMMIN
 10
0
 20
0
  9
$LIMMAX
 10
12
 20
9
  9
$SNAPMODE
 70
0
  9
$SNAPUNIT
 10
1
 20
1
  9
$SNAPBASE
 10
0
 20
0
  9
$SNAPANG
 50
0
  9
$SNAPSTYLE
 70
0
  9
$SNAPISOPAIR
 70
0
  9
$ORTHOMODE
 70
0
  9
$REGENMODE
 70
1
  9
$FILLMODE
 70
1
  9
$QTEXTMODE
 70
0
  9
$MIRRTEXT
 70
1
  9
$LTSCALE
 40
1
  9
$OSMODE
 70
0
  9
$ATTMODE
 70
1
  9
$TEXTSIZE
 40
0.2
  9
$TRACEWID
 40
0.05
  9
$TEXTSTYLE
  7
Standard
  9
$CLAYER
  8
0
  9
$CELTYPE
  6
ByLayer
  9
$CECOLOR
 62
256
  9
$CELTSCALE
 40
1
  9
$DISPSILH
 70
0
  9
$DIMSCALE
 40
1
  9
$DIMASZ
 40
0.18
  9
$DIMEXO
 40
0.0625
  9
$DIMDLI
 40
0.38
  9
$DIMRND
 40
0
  9
$DIMDLE
 40
0
  9
$DIMEXE
 40
0.18
  9
$DIMTP
 40
0
  9
$DIMTM
 40
0
  9
$DIMTXT
 40
0.18
  9
$DIMCEN
 40
0.09
  9
$DIMTSZ
 40
0
  9
$DIMTOL
 70
0
  9
$DIMLIM
 70
0
  9
$DIMTIH
 70
1
  9
$DIMTOH
 70
1
  9
$DIMSE1
 70
0
  9
$DIMSE2
 70
0
  9
$DIMTAD
 70
0
  9
$DIMZIN
 70
0
  9
$DIMBLK
  1

  9
$DIMASO
 70
1
  9
$DIMSHO
 70
1
  9
$DIMPOST
  1

  9
$DIMAPOST
  1

  9
$DIMALT
 70
0
  9
$DIMALTD
 70
2
  9
$DIMALTF
 40
0.03937007874015748
  9
$DIMLFAC
 40
1
  9
$DIMTOFL
 70
0
  9
$DIMTVP
 40
0
  9
$DIMTIX
 70
0
  9
$DIMSOXD
 70
0
  9
$DIMSAH
 70
0
  9
$DIMBLK1
  1

  9
$DIMBLK2
  1

  9
$DIMSTYLE
  2
Standard
  9
$DIMCLRD
 70
0
  9
$DIMCLRE
 70
0
  9
$DIMCLRT
 70
0
  9
$DIMTFAC
 40
1
  9
$DIMGAP
 40
0.09
  9
$DIMJUST
 70
0
  9
$DIMSD1
 70
0
  9
$DIMSD2
 70
0
  9
$DIMTOLJ
 70
1
  9
$DIMTZIN
 70
0
  9
$DIMALTZ
 70
0
  9
$DIMALTTZ
 70
0
  9
$DIMUPT
 70
0
  9
$DIMDEC
 70
4
  9
$DIMTDEC
 70
4
  9
$DIMALTU
 70
2
  9
$DIMALTTD
 70
0
  9
$DIMTXSTY
  7
Standard
  9
$DIMAUNIT
 70
0
  9
$DIMADEC
 70
0
  9
$DIMALTRND
 40
0
  9
$DIMAZIN
 70
0
  9
$DIMDSEP
 70
46
  9
$DIMATFIT
 70
0
  9
$DIMFRAC
 70
0
  9
$DIMLDRBLK
  1

  9
$DIMLUNIT
 70
2
  9
$DIMLWD
 70
-2
  9
$DIMLWE
 70
-2
  9
$LUNITS
 70
2
  9
$LUPREC
 70
4
  9
$SKETCHINC
 40
0.1
  9
$FILLETRAD
 40
0
  9
$AUNITS
 70
0
  9
$AUPREC
 70
0
  9
$MENU
  1
.
  9
$ELEVATION
 40
0
  9
$PELEVATION
 40
0
  9
$THICKNESS
 40
0
  9
$LIMCHECK
 70
0
  9
$CHAMFERA
 40
0.5
  9
$CHAMFERB
 40
0.5
  9
$CHAMFERC
 40
0
  9
$CHAMFERD
 40
0
  9
$SKPOLY
 70
0
  9
$TDCREATE
 40
2460962.9733956712
  9
$TDUCREATE
 40
2460962.9317290047
  9
$TDUPDATE
 40
2460962.9733956712
  9
$TDUUPDATE
 40
2460962.9317290047
  9
$TDINDWG
 40
0
  9
$TDUSRTIMER
 40
1.1574074074074074E-08
  9
$USRTIMER
 70
1
  9
$ANGBASE
 50
0
  9
$ANGDIR
 70
1
  9
$PDMODE
 70
0
  9
$PDSIZE
 40
0
  9
$PLINEWID
 40
0
  9
$SPLFRAME
 70
0
  9
$SPLINETYPE
 70
6
  9
$SPLINESEGS
 70
8
  9
$HANDSEED
  5
59
  9
$SURFTAB1
 70
6
  9
$SURFTAB2
 70
6
  9
$SURFTYPE
 70
6
  9
$SURFU
 70
6
  9
$SURFV
 70
6
  9
$UCSORG
 10
0
 20
0
 30
0
  9
$UCSXDIR
 10
1
 20
0
 30
0
  9
$UCSYDIR
 10
0
 20
1
 30
0
  9
$UCSORTHOREF
  2

  9
$UCSORTHOVIEW
 70
0
  9
$UCSORGTOP
 10
0
 20
0
 30
0
  9
$UCSORGBOTTOM
 10
0
 20
0
 30
0
  9
$UCSORGLEFT
 10
0
 20
0
 30
0
  9
$UCSORGRIGHT
 10
0
 20
0
 30
0
  9
$UCSORGFRONT
 10
0
 20
0
 30
0
  9
$UCSORGBACK
 10
0
 20
0
 30
0
  9
$PUCSORG
 10
0
 20
0
 30
0
  9
$PUCSXDIR
 10
1
 20
0
 30
0
  9
$PUCSYDIR
 10
0
 20
1
 30
0
  9
$PUCSORTHOREF
  2

  9
$PUCSORTHOVIEW
 70
0
  9
$PUCSORGTOP
 10
0
 20
0
 30
0
  9
$PUCSORGBOTTOM
 10
0
 20
0
 30
0
  9
$PUCSORGLEFT
 10
0
 20
0
 30
0
  9
$PUCSORGRIGHT
 10
0
 20
0
 30
0
  9
$PUCSORGFRONT
 10
0
 20
0
 30
0
  9
$PUCSORGBACK
 10
0
 20
0
 30
0
  9
$USERI1
 70
0
  9
$USERI2
 70
0
  9
$USERI3
 70
0
  9
$USERI4
 70
0
  9
$USERI5
 70
0
  9
$USERR1
 40
0
  9
$USERR2
 40
0
  9
$USERR3
 40
0
  9
$USERR4
 40
0
  9
$USERR5
 40
0
  9
$WORLDVIEW
 70
1
  9
$SHADEDGE
 70
3
  9
$SHADEDIF
 70
70
  9
$TILEMODE
 70
1
  9
$MAXACTVP
 70
48
  9
$PINSBASE
 10
0
 20
0
 30
0
  9
$PLIMCHECK
 70
0
  9
$PEXTMIN
 10
1E+20
 20
1E+20
 30
1E+20
  9
$PEXTMAX
 10
-1E+20
 20
-1E+20
 30
-1E+20
  9
$PLIMMAX
 10
0
 20
0
  9
$PLIMMIN
 10
0
 20
0
  9
$UNITMODE
 70
0
  9
$VISRETAIN
 70
1
  9
$PLINEGEN
 70
1
  9
$PSLTSCALE
 70
1
  9
$TREEDEPTH
 70
3020
  9
$CMLSTYLE
  2
STANDARD
  9
$CMLJUST
 70
0
  9
$CMLSCALE
 40
1
  9
$PROXYGRAPHICS
 70
1
  9
$MEASUREMENT
 70
1
  9
$CELWEIGHT
370
-1
  9
$ENDCAPS
280
0
  9
$JOINSTYLE
280
0
  9
$LWDISPLAY
290
1
  9
$INSUNITS
 70
4
  9
$HYPERLINKBASE
  1

  9
$XEDIT
290
1
  9
$CEPSNTYPE
380
0
  9
$PSTYLEMODE
290
0
  9
$FINGERPRINTGUID
  2

  9
$VERSIONGUID
  2

  9
$EXTNAMES
290
1
  9
$PSVPSCALE
 40
0
  9
$CSHADOW
280
0
  9
$SHADOWPLANELOCATION
 40
0
  0
ENDSEC
  0
SECTION
  2
CLASSES
  0
CLASS
  1
RASTERVARIABLES
  2
AcDbRasterVariables
  3
ISM
 90
0
280
0
281
0
  0
CLASS
  1
IMAGEDEF
  2
AcDbRasterImageDef
  3
ISM
 90
0
280
0
281
0
  0
CLASS
  1
IMAGEDEF_REACTOR
  2
AcDbRasterImageDefReactor
  3
ISM
 90
1
280
0
281
0
  0
CLASS
  1
IMAGE
  2
AcDbRasterImage
  3
ISM
 90
127
280
0
281
1
  0
CLASS
  1
ACAD_EVALUATION_GRAPH
  2
AcDbEvalGraph
  3
ObjectDBX Classes
 90
1153
280
0
281
0
  0
CLASS
  1
BLOCKPOINTPARAMETER
  2
AcDbBlockPointParameter
  3
ObjectDBX Classes
 90
1153
280
0
281
0
  0
CLASS
  1
BLOCKBASEPOINTPARAMETER
  2
AcDbBlockBasepointParameter
  3
ObjectDBX Classes
 90
1153
280
0
281
0
  0
CLASS
  1
BLOCKLOOKUPPARAMETER
  2
AcDbBlockLookupParameter
  3
ObjectDBX Classes
 90
1153
280
0
281
0
  0
CLASS
  1
BLOCKVISIBILITYPARAMETER
  2
AcDbBlockVisibilityParameter
  3
ObjectDBX Classes
 90
1153
280
0
281
0
  0
CLASS
  1
BLOCKPROPERTIESTABLE
  2
AcDbBlockPropertiesTable
  3
ObjectDBX Classes
 90
1153
280
0
281
0
  0
CLASS
  1
BLOCKPOLARPARAMETER
  2
AcDbBlockPolarParameter
  3
ObjectDBX Classes
 90
1153
280
0
281
0
  0
CLASS
  1
BLOCKROTATIONPARAMETER
  2
AcDbBlockRotationParameter
  3
ObjectDBX Classes
 90
1153
280
0
281
0
  0
CLASS
  1
BLOCKLINEARPARAMETER
  2
AcDbBlockLinearParameter
  3
ObjectDBX Classes
 90
1153
280
0
281
0
  0
CLASS
  1
BLOCKXYPARAMETER
  2
AcDbBlockXYParameter
  3
ObjectDBX Classes
 90
1153
280
0
281
0
  0
CLASS
  1
BLOCKFLIPPARAMETER
  2
AcDbBlockFlipParameter
  3
ObjectDBX Classes
 90
1153
280
0
281
0
  0
CLASS
  1
BLOCKALIGNMENTPARAMETER
  2
AcDbBlockAlignmentParameter
  3
ObjectDBX Classes
 90
1153
280
0
281
0
  0
CLASS
  1
BLOCKROTATEACTION
  2
AcDbBlockRotateAction
  3
ObjectDBX Classes
 90
1153
280
0
281
0
  0
CLASS
  1
BLOCKSCALEACTION
  2
AcDbBlockScaleAction
  3
ObjectDBX Classes
 90
1153
280
0
281
0
  0
CLASS
  1
BLOCKARRAYACTION
  2
AcDbBlockArrayAction
  3
ObjectDBX Classes
 90
1153
280
0
281
0
  0
CLASS
  1
BLOCKFLIPACTION
  2
AcDbBlockFlipAction
  3
ObjectDBX Classes
 90
1153
280
0
281
0
  0
CLASS
  1
BLOCKLOOKUPACTION
  2
AcDbBlockLookupAction
  3
ObjectDBX Classes
 90
1153
280
0
281
0
  0
CLASS
  1
BLOCKMOVEACTION
  2
AcDbBlockMoveAction
  3
ObjectDBX Classes
 90
1153
280
0
281
0
  0
CLASS
  1
BLOCKPOLARSTRETCHACTION
  2
AcDbBlockPolarStretchAction
  3
ObjectDBX Classes
 90
1153
280
0
281
0
  0
CLASS
  1
BLOCKSTRETCHACTION
  2
AcDbBlockStretchAction
  3
ObjectDBX Classes
 90
1153
280
0
281
0
  0
CLASS
  1
BLOCKALIGNMENTGRIP
  2
AcDbBlockAlignmentGrip
  3
ObjectDBX Classes
 90
1153
280
0
281
0
  0
CLASS
  1
BLOCKFLIPGRIP
  2
AcDbBlockFlipGrip
  3
ObjectDBX Classes
 90
1153
280
0
281
0
  0
CLASS
  1
ACDB_BLOCKREPRESENTATION_DATA
  2
AcDbBlockRepresentationData
  3
ObjectDBX Classes
 90
1153
280
0
281
0
  0
CLASS
  1
ACDB_DYNAMICBLOCKPURGEPREVENTER_VERSION
  2
AcDbDynamicBlockPurgePreventer
  3
ObjectDBX Classes
 90
1153
280
0
281
0
  0
CLASS
  1
BLOCKLINEARGRIP
  2
AcDbBlockLinearGrip
  3
ObjectDBX Classes
 90
1153
280
0
281
0
  0
CLASS
  1
BLOCKLOOKUPGRIP
  2
AcDbBlockLookupGrip
  3
ObjectDBX Classes
 90
1153
280
0
281
0
  0
CLASS
  1
BLOCKPOLARGRIP
  2
AcDbBlockPolarGrip
  3
ObjectDBX Classes
 90
1153
280
0
281
0
  0
CLASS
  1
BLOCKPROPERTIESTABLEGRIP
  2
AcDbBlockPropertiesTableGrip
  3
ObjectDBX Classes
 90
1153
280
0
281
0
  0
CLASS
  1
BLOCKROTATIONGRIP
  2
AcDbBlockRotationGrip
  3
ObjectDBX Classes
 90
1153
280
0
281
0
  0
CLASS
  1
BLOCKVISIBILITYGRIP
  2
AcDbBlockVisibilityGrip
  3
ObjectDBX Classes
 90
1153
280
0
281
0
  0
CLASS
  1
BLOCKXYGRIP
  2
AcDbBlockXYGrip
  3
ObjectDBX Classes
 90
1153
280
0
281
0
  0
CLASS
  1
BLOCKGRIPLOCATIONCOMPONENT
  2
AcDbBlockGripExpr
  3
ObjectDBX Classes
 90
1153
280
0
281
0
  0
CLASS
  1
ACDB_DYNAMICBLOCKPROXYNODE
  2
AcDbDynamicBlockProxyNode
  3
ObjectDBX Classes
 90
1153
280
0
281
0
  0
CLASS
  1
BLOCKLINEARCONSTRAINTPARAMETER
  2
AcDbBlockLinearConstraintParameter
  3
ObjectDBX Classes
 90
1153
280
0
281
0
  0
CLASS
  1
BLOCKHORIZONTALCONSTRAINTPARAMETER
  2
AcDbBlockHorizontalConstraintParameter
  3
ObjectDBX Classes
 90
1153
280
0
281
0
  0
CLASS
  1
BLOCKVERTICALCONSTRAINTPARAMETER
  2
AcDbBlockVerticalConstraintParameter
  3
ObjectDBX Classes
 90
1153
280
0
281
0
  0
CLASS
  1
BLOCKALIGNEDCONSTRAINTPARAMETER
  2
AcDbBlockAlignedConstraintParameter
  3
ObjectDBX Classes
 90
1153
280
0
281
0
  0
CLASS
  1
BLOCKANGULARCONSTRAINTPARAMETER
  2
AcDbBlockAngularConstraintParameter
  3
ObjectDBX Classes
 90
1153
280
0
281
0
  0
CLASS
  1
BLOCKDIAMETRICCONSTRAINTPARAMETER
  2
AcDbBlockDiametricConstraintParameter
  3
ObjectDBX Classes
 90
1153
280
0
281
0
  0
CLASS
  1
BLOCKRADIALCONSTRAINTPARAMETER
  2
AcDbBlockRadialConstraintParameter
  3
ObjectDBX Classes
 90
1153
280
0
281
0
  0
ENDSEC
  0
SECTION
  2
TABLES
  0
TABLE
  2
VPORT
  5
8
330
0
100
AcDbSymbolTable
 70
1
  0
VPORT
  5
34
330
8
100
AcDbSymbolTableRecord
100
AcDbViewportTableRecord
  2
*Active
 70
64
 10
0
 20
0
 11
1
 21
1
 12
2273.3108958557987
 22
1000.8585690218634
 13
0
 23
0
 14
1
 24
1
 15
0
 25
0
 16
0
 26
0
 36
1
 17
0
 27
0
 37
0
 40
1996.2828635683834
 41
0.22610934499175234
 42
50
 43
0
 44
0
 50
0
 51
0
 71
0
 72
20000
 73
20000
 74
1
 75
0
 76
0
 77
0
 78
0
281
0
 65
1
110
0
120
0
130
0
111
1
121
0
131
0
112
0
122
1
132
0
 79
0
146
0
  0
ENDTAB
  0
TABLE
  2
LTYPE
  5
5
100
AcDbSymbolTable
 70
3
  0
LTYPE
  5
16
330
5
100
AcDbSymbolTableRecord
100
AcDbLinetypeTableRecord
  2
Continuous
  3
Solid line
 70
64
 72
65
 73
0
 40
0
  0
LTYPE
  5
14
330
5
100
AcDbSymbolTableRecord
100
AcDbLinetypeTableRecord
  2
ByBlock
  3

 70
64
 72
65
 73
0
 40
0
  0
LTYPE
  5
15
330
5
100
AcDbSymbolTableRecord
100
AcDbLinetypeTableRecord
  2
ByLayer
  3

 70
64
 72
65
 73
0
 40
0
  0
ENDTAB
  0
TABLE
  2
LAYER
  5
2
100
AcDbSymbolTable
 70
2
  0
LAYER
  5
10
330
2
100
AcDbSymbolTableRecord
100
AcDbLayerTableRecord
 70
64
  2
0
 62
7
  6
Continuous
370
-3
390
F
  0
LAYER
  5
27
330
2
100
AcDbSymbolTableRecord
100
AcDbLayerTableRecord
 70
64
  2
DEFPOINTS
 62
7
  6
Continuous
290
0
370
-3
390
F
  0
ENDTAB
  0
TABLE
  2
STYLE
  5
3
100
AcDbSymbolTable
 70
1
  0
STYLE
  5
11
330
3
100
AcDbSymbolTableRecord
100
AcDbTextStyleTableRecord
  2
Standard
 70
64
 40
0
 41
1
 50
0
 71
0
 42
0.2
  3
txt.shx
  0
ENDTAB
  0
TABLE
  2
VIEW
  5
6
100
AcDbSymbolTable
 70
0
  0
ENDTAB
  0
TABLE
  2
UCS
  5
7
100
AcDbSymbolTable
 70
0
  0
ENDTAB
  0
TABLE
  2
APPID
  5
9
330
0
100
AcDbSymbolTable
 70
2
  0
APPID
  5
12
330
0
100
AcDbSymbolTableRecord
100
AcDbRegAppTableRecord
  2
ACAD
 70
64
  0
APPID
  5
57
330
0
100
AcDbSymbolTableRecord
100
AcDbRegAppTableRecord
  2
ACAD_MLEADERVER
 70
64
  0
ENDTAB
  0
TABLE
  2
DIMSTYLE
  5
A
330
0
100
AcDbSymbolTable
 70
1
100
AcDbDimStyleTable
 71
0
  0
DIMSTYLE
105
33
330
A
100
AcDbSymbolTableRecord
100
AcDbDimStyleTableRecord
  2
Standard
 70
64
  3

  4

 40
1
 41
0.18
 42
0.0625
 43
0.38
 44
0.18
 45
0
 46
0
 47
0
 48
0
140
0.18
141
0.09
142
0
143
1
144
1
145
0
146
1
147
0.09
148
0
 71
0
 72
0
 73
1
 74
1
 75
0
 76
0
 77
0
 78
0
 79
0
170
0
171
2
172
0
173
0
174
0
175
0
179
0
271
4
272
4
273
2
274
0
275
0
276
0
277
2
278
46
279
0
280
0
281
0
282
0
283
1
284
0
285
0
286
0
288
0
289
0
340
11
371
-2
372
-2
  0
ENDTAB
  0
TABLE
  2
BLOCK_RECORD
  5
1
330
0
100
AcDbSymbolTable
 70
3
  0
BLOCK_RECORD
  5
1F
330
1
100
AcDbSymbolTableRecord
100
AcDbBlockTableRecord
  2
*Model_Space
340
22
  0
BLOCK_RECORD
  5
30
330
1
100
AcDbSymbolTableRecord
100
AcDbBlockTableRecord
  2
*Paper_Space
340
1E
  0
ENDTAB
  0
ENDSEC
  0
SECTION
  2
BLOCKS
  0
BLOCK
  5
20
330
1F
100
AcDbEntity
  8
0
100
AcDbBlockBegin
  2
*Model_Space
 70
64
 10
0
 20
0
 30
0
  3
*Model_Space
  0
ENDBLK
  5
21
330
1F
100
AcDbEntity
  8
0
100
AcDbBlockEnd
  0
BLOCK
  5
31
330
30
100
AcDbEntity
  8
0
 67
1
100
AcDbBlockBegin
  2
*Paper_Space
 70
64
 10
0
 20
0
 30
0
  3
*Paper_Space
  0
ENDBLK
  5
32
330
30
100
AcDbEntity
  8
0
100
AcDbBlockEnd
  0
ENDSEC
  0
SECTION
  2
ENTITIES
  0
LWPOLYLINE
  5
28
330
1F
100
AcDbEntity
  8
0
 62
18
100
AcDbPolyline
 90
59
 70
1
 10
2449.4909341000002
 20
329.79119767773523
 10
2382.8129250667976
 20
329.79119767773523
 10
2373.5023934505866
 20
328.64579667675861
 10
2368.8131236659028
 20
328.753565011298
 10
2359.573824852524
 20
330.44171950531
 10
2350.8577431747581
 20
333.89641698010473
 10
2342.9993430903892
 20
339.02470341417092
 10
2336.3275932921306
 20
345.61201712861174
 10
2331.062162999584
 20
353.38958768662764
 10
2329.075360979884
 20
357.63856401074293
 10
2326.3749367855476
 20
366.62217607129014
 10
2324.1536385677741
 20
375.8458088837902
 10
2320.431562151759
 20
384.5725392304696
 10
2315.3121621273444
 20
392.56013383496213
 10
2308.9374978207038
 20
399.58665361035264
 10
2301.4844948910163
 20
405.45724382031375
 10
2293.1602151058605
 20
410.00871171582133
 10
2284.1957528255871
 20
413.11479081738383
 10
2274.8399788998054
 20
414.6891926728523
 10
2096.8844277523444
 20
414.2156361542979
 10
2088.8507521316965
 20
412.46979485193015
 10
2081.1459844938372
 20
409.5443345997017
 10
2070.5575457683826
 20
403.24332544572144
 10
2061.5469440547822
 20
394.82308366738761
 10
2054.5387381791388
 20
384.68710615624769
 10
2049.8050204719893
 20
373.28895716509373
 10
2048.0869347713874
 20
365.24926652539142
 10
2047.737436192871
 20
361.16225412246371
 10
2047.6559502743178
 20
352.9281758271494
 10
2047.7423913143564
 20
60.332798858765479
 10
2050.7637841366218
 20
40.384144683960507
 10
2054.0395791195319
 20
31.5484665833748
 10
2058.9236886166022
 20
23.489613433960965
 10
2065.2406747005866
 20
16.497120758179772
 10
2072.7635628841808
 20
10.822071930054543
 10
2081.2220437191413
 20
6.6684769593513069
 10
2090.3123910091808
 20
4.185414215210626
 10
2115.7369668148444
 20
2.7171372376717362
 10
2448.5451180599612
 20
2.8456162415780839
 10
2456.5752083919933
 20
4.3904923402110692
 10
2464.3589455746105
 20
6.8971299134531439
 10
2470.8995492123054
 20
9.7651719056404147
 10
2476.9988686703123
 20
13.4803818665782
 10
2482.5477273128913
 20
17.976307769898348
 10
2487.4470193050793
 20
23.172688385132837
 10
2491.6089303158205
 20
28.976292511109229
 10
2494.9591500423835
 20
35.283512970093376
 10
2497.4375588558605
 20
41.981434723023064
 10
2498.9999825619143
 20
48.950199981812524
 10
2498.7086159847663
 20
282.56743898022575
 10
2496.3762337826174
 20
293.5116528474133
 10
2493.7229592464846
 20
300.49018373120185
 10
2490.5575997494143
 20
306.76789750683673
 10
2486.4999062679694
 20
312.50947465527435
 10
2481.6389138363293
 20
317.58889665234472
 10
2476.0812050960944
 20
321.89492692578244
 10
2469.9486214779304
 20
325.33303727734494
 10
2463.3755166195315
 20
327.827925583009
 10
2456.5060860775393
 20
329.32496537793054
  0
LWPOLYLINE
  5
29
330
1F
100
AcDbEntity
  8
0
 62
18
100
AcDbPolyline
 90
63
 70
1
 10
2449.4567791000004
 20
1070.2426953771987
 10
2456.4719310775395
 20
1070.7089276770034
 10
2463.3413616195317
 20
1072.2059674719255
 10
2469.9144640937443
 20
1074.7008557775896
 10
2476.0470381751652
 20
1078.1389661291521
 10
2481.6047469153996
 20
1082.44499640259
 10
2486.46573934704
 20
1087.5244183996597
 10
2490.5234328284855
 20
1093.2659955480974
 10
2495.122431851923
 20
1102.9922528723162
 10
2497.342890836298
 20
1110.1203389624038
 10
2498.9999953284855
 20
1121.1869283178726
 10
2498.9648238196964
 20
1128.6527486303733
 10
2498.9658156409855
 20
1351.0836978414932
 10
2497.4033919349308
 20
1358.0524631002827
 10
2494.9249831214543
 20
1364.7503848532124
 10
2491.5747633948918
 20
1371.0576053121965
 10
2487.4128523841496
 20
1376.8612094381729
 10
2482.5135603919621
 20
1382.0575900534075
 10
2476.9647017493839
 20
1386.5535159567276
 10
2470.8653918281193
 20
1390.2687259176653
 10
2460.4710308089848
 20
1394.5083041647356
 10
2452.5495067611332
 20
1396.5377994039934
 10
2444.4403759017582
 20
1397.5922580221579
 10
2436.2631908431645
 20
1397.6561160543838
 10
2432.1868053451176
 20
1397.3157687643452
 10
2115.7028070464726
 20
1397.316760585634
 10
2090.2782312408085
 20
1395.848483608095
 10
2081.1878839507694
 20
1393.3654208639543
 10
2072.7294031158081
 20
1389.2118258932512
 10
2065.2065149322148
 20
1383.5367770651264
 10
2058.8895288482304
 20
1376.5442843893454
 10
2054.00541935116
 20
1368.4854312399309
 10
2050.72962436825
 20
1359.6497531393452
 10
2047.7082315459845
 20
1339.7011037329121
 10
2047.6217905059452
 20
1328.9467092016619
 10
2048.0527750030155
 20
1034.7846265295432
 10
2049.770860703617
 20
1026.7449358898407
 10
2052.6697092169115
 20
1019.0301270751728
 10
2058.9340875477374
 20
1008.4200406017978
 10
2067.323086963233
 20
999.380360045966
 10
2077.434815800741
 20
992.33713627658221
 10
2088.8165923633246
 20
987.56409820300337
 10
2096.8502679839726
 20
985.81825690063647
 10
2100.9360601355152
 20
985.45463726889966
 10
2109.1698328033085
 20
985.34470038208133
 10
2274.8058191314335
 20
985.34470038208133
 10
2284.1615930572148
 20
986.91910223755053
 10
2293.1260553374877
 20
990.02518133911258
 10
2301.4503351226444
 20
994.57664923462073
 10
2308.9033380523319
 20
1000.4472394445818
 10
2315.2780023589726
 20
1007.4737592199722
 10
2320.3974023833866
 20
1015.4613538244647
 10
2324.1194787994023
 20
1024.1880841711443
 10
2326.3407770171757
 20
1033.4117169836445
 10
2329.0412012115116
 20
1042.3953290441909
 10
2331.0280032312121
 20
1046.644305368307
 10
2336.2934335237583
 20
1054.4218759263229
 10
2342.9651833220178
 20
1061.0091896407637
 10
2350.8235834063862
 20
1066.13747607483
 10
2359.5396650841521
 20
1069.5921735496238
 10
2368.7789638975305
 20
1071.2803280436365
 10
2373.4682336822148
 20
1071.3880963781753
 10
2382.7787652984257
 20
1070.2426953771987
  0
LWPOLYLINE
  5
2A
330
1F
100
AcDbEntity
  8
0
 62
18
100
AcDbPolyline
 90
55
 70
1
 10
2427.5379851
 20
1998.9219521000002
 10
2136.5499689714597
 20
1999.0000008060551
 10
2123.5173046940085
 20
1997.7325259716442
 10
2115.1304446559507
 20
1995.2481722180639
 10
2107.20705916667
 20
1991.5634404660602
 10
2099.9226601863015
 20
1986.7292105239246
 10
2093.4492208660163
 20
1980.8596350205778
 10
2087.9018626836614
 20
1974.0966465948406
 10
2085.5486109392332
 20
1970.4137276126955
 10
2081.6709711687254
 20
1962.5799416019534
 10
2078.7745961405981
 20
1945.0422417333994
 10
2077.2661402361082
 20
1931.836685986719
 10
2076.7892646148343
 20
1922.9913494219065
 10
2076.8040278093504
 20
1900.7829521610356
 10
2047.6495173113044
 20
1452.4044273807613
 10
2047.9984380189949
 20
1448.4572031303505
 10
2050.78833877975
 20
1436.8817805777542
 10
2055.8365404312117
 20
1426.1219097958622
 10
2062.9933554770405
 20
1416.620427082222
 10
2071.9394745572367
 20
1408.7936936932931
 10
2078.7148859636482
 20
1404.6568535282222
 10
2089.7769739763435
 20
1400.2929924442392
 10
2093.6403016204581
 20
1399.4365325652082
 10
2101.4980127947028
 20
1398.2849358036142
 10
2307.8479578630622
 20
1398.7474297000981
 10
2316.8748285906008
 20
1400.3357170536133
 10
2325.5613520281008
 20
1403.2599876834961
 10
2333.7109949724368
 20
1407.4539421512693
 10
2362.012310280054
 20
1437.696175427636
 10
2391.3719847337893
 20
1466.9119499637691
 10
2433.1799986498049
 20
1490.6489799930664
 10
2442.3685362474612
 20
1496.0560844852539
 10
2450.9939434663943
 20
1502.3224876834963
 10
2458.9761212007693
 20
1509.38997730752
 10
2466.2409832613162
 20
1517.1929405643557
 10
2472.0339062349494
 20
1529.4725273563477
 10
2476.2090160982307
 20
1542.391991467676
 10
2483.0701687471565
 20
1573.4512566043945
 10
2483.8696919854951
 20
1577.9218756666478
 10
2487.8309872286013
 20
1604.9009941532231
 10
2493.8393565122924
 20
1633.0822539808566
 10
2496.0983135835818
 20
1647.2703026249028
 10
2497.5623601502825
 20
1661.5622498418679
 10
2499.0000012056521
 20
1690.3409813358398
 10
2498.7368633882693
 20
1950.6070564701174
 10
2497.5061276094602
 20
1959.2616127445315
 10
2494.9070217744993
 20
1967.607941479883
 10
2490.6408550874876
 20
1973.560089917383
 10
2485.7297756807493
 20
1978.9922951175784
 10
2480.236649765222
 20
1983.8351295902346
 10
2474.2317059175662
 20
1988.0265663578127
 10
2467.7918865816282
 20
1991.5130470707034
 10
2460.9994366304563
 20
1994.2499397708987
 10
2453.9414074556516
 20
1996.2023018314455
 10
2437.1680357591795
 20
1998.6807869388674
  0
CIRCLE
  5
2B
330
1F
100
AcDbEntity
  8
0
 62
18
100
AcDbCircle
 10
2151.0950281755613
 20
1953.8589333011721
 30
0
 40
6.9999998807906127
  0
CIRCLE
  5
2C
330
1F
100
AcDbEntity
  8
0
 62
18
100
AcDbCircle
 10
2436.2110045091795
 20
1955.7759712650395
 30
0
 40
6.9999998807906918
  0
LWPOLYLINE
  5
2D
330
1F
100
AcDbEntity
  8
0
 62
18
100
AcDbPolyline
 90
50
 70
1
 10
2141.2110951000004
 20
984.34470037719871
 10
2136.8620359621173
 20
984.19826120013477
 10
2123.9893622132686
 20
982.50373582590021
 10
2115.7450916820321
 20
979.73563055298
 10
2104.3029835277348
 20
973.538425963136
 10
2097.5115707953523
 20
968.129183549264
 10
2091.5448185276896
 20
961.81468667099375
 10
2086.5285542064462
 20
954.72807745239368
 10
2084.4132452527274
 20
950.93750755408246
 10
2079.6860697986922
 20
938.79907028300477
 10
2078.0448200755873
 20
930.27846197387839
 10
2077.757353760559
 20
925.95834440322278
 10
2077.8280689769531
 20
917.26767401001121
 10
2084.6530964427752
 20
541.65968755981555
 10
2085.3282978587904
 20
533.74930242797939
 10
2087.064366584375
 20
526.00233892700294
 10
2089.8294880443364
 20
518.56032232544067
 10
2093.5732319408207
 20
511.55928472778436
 10
2098.2270100169926
 20
505.12724737426919
 10
2103.7059071117196
 20
499.3816266467299
 10
2109.9097492748051
 20
494.42763189575322
 10
2116.7250874095707
 20
490.35567144653459
 10
2243.4090473705087
 20
426.1326489855964
 10
2263.030095344141
 20
417.66867498657365
 10
2282.2560932689462
 20
414.46867803833169
 10
2418.1864979320321
 20
414.47325567504976
 10
2429.3175556712895
 20
416.6526685168464
 10
2439.9808170848637
 20
420.518559019777
 10
2457.3474934154306
 20
429.61172918579285
 10
2462.5103809886723
 20
434.32211736938569
 10
2466.821713691309
 20
439.82260565063547
 10
2470.1622440868173
 20
445.96136907837075
 10
2473.1731909426726
 20
455.9925360448828
 10
2473.59131360586
 20
459.46188787719842
 10
2473.9293665635823
 20
470.810991559015
 10
2475.3631939707388
 20
496.99360281304888
 10
2475.2870609813485
 20
518.85367254516746
 10
2485.14103437002
 20
647.31169561645629
 10
2498.9999423641893
 20
929.03552294922076
 10
2497.9431707291233
 20
938.48616780704083
 10
2495.1938679271489
 20
947.64609197876121
 10
2491.0581279260623
 20
956.254792414895
 10
2485.6254809669445
 20
964.09405617911
 10
2478.9999439769535
 20
970.97060064575351
 10
2471.3663093525188
 20
976.7074790752938
 10
2462.9227137426974
 20
981.14293873150109
 10
2453.8736774974618
 20
984.19730047485484
 10
2444.4466734172443
 20
985.80828498089522
 10
2434.9376876103934
 20
985.70392001671837
 10
2425.479054694727
 20
984.34470037719882
  0
CIRCLE
  5
2E
330
1F
100
AcDbEntity
  8
0
 62
18
100
AcDbCircle
 10
2141.4930775218754
 20
942.75366644165183
 30
0
 40
6.9999998807906527
  0
CIRCLE
  5
2F
330
1F
100
AcDbEntity
  8
0
 62
18
100
AcDbCircle
 10
2432.0440342479496
 20
944.805668394777
 30
0
 40
6.9999998807906527
  0
ENDSEC
  0
SECTION
  2
OBJECTS
  0
DICTIONARY
  5
C
330
0
100
AcDbDictionary
280
0
281
1
  3
ACAD_SCALELIST
350
35
  3
ACAD_COLOR
350
47
  3
ACAD_FIELDLIST
350
48
  3
ACAD_GROUP
350
D
  3
ACAD_IMAGE_DICT
350
49
  3
ACAD_LAYOUT
350
1A
  3
ACAD_MATERIAL
350
4A
  3
ACAD_MLEADERSTYLE
350
4B
  3
ACAD_MLINESTYLE
350
17
  3
ACAD_PLOTSETTINGS
350
19
  3
ACAD_PLOTSTYLENAME
350
E
  3
ACAD_TABLESTYLE
350
4D
  3
ACDB_RECOMPOSE_DATA
350
51
  3
AcDbVariableDictionary
350
52
  3
ACAD_VISUALSTYLE
350
55
  3
DWGPROPS
350
56
  0
DICTIONARY
  5
4F
330
4E
100
AcDbDictionary
280
0
281
1
  3
ACAD_ROUNDTRIP_2008_TABLESTYLE_CELLSTYLEMAP
360
50
  0
DICTIONARY
  5
35
102
{ACAD_REACTORS
330
C
102
}
330
C
100
AcDbDictionary
280
0
281
1
  0
DICTIONARY
  5
47
102
{ACAD_REACTORS
330
C
102
}
330
C
100
AcDbDictionary
280
0
281
1
  0
FIELDLIST
  5
48
102
{ACAD_REACTORS
330
C
102
}
330
C
100
AcDbIdSet
100
AcDbFieldList
  0
DICTIONARY
  5
D
102
{ACAD_REACTORS
330
C
102
}
330
C
100
AcDbDictionary
280
0
281
1
  0
DICTIONARY
  5
49
102
{ACAD_REACTORS
330
C
102
}
330
C
100
AcDbDictionary
280
0
281
1
  0
DICTIONARY
  5
1A
102
{ACAD_REACTORS
330
C
102
}
330
C
100
AcDbDictionary
280
0
281
1
  3
Layout1
350
1E
  3
Model
350
22
  0
DICTIONARY
  5
4A
102
{ACAD_REACTORS
330
C
102
}
330
C
100
AcDbDictionary
280
0
281
1
  0
DICTIONARY
  5
4B
102
{ACAD_REACTORS
330
C
102
}
330
C
100
AcDbDictionary
280
0
281
1
  3
Standard
350
4C
  0
DICTIONARY
  5
17
102
{ACAD_REACTORS
330
C
102
}
330
C
100
AcDbDictionary
280
0
281
1
  3
STANDARD
350
18
  0
DICTIONARY
  5
19
102
{ACAD_REACTORS
330
C
102
}
330
C
100
AcDbDictionary
280
0
281
1
  0
ACDBDICTIONARYWDFLT
  5
E
102
{ACAD_REACTORS
330
C
102
}
330
C
100
AcDbDictionary
280
0
281
1
  3
Normal
350
F
100
AcDbDictionaryWithDefault
340
F
  0
ACDBPLACEHOLDER
  5
F
102
{ACAD_REACTORS
330
E
102
}
330
E
  0
DICTIONARY
  5
4D
102
{ACAD_REACTORS
330
C
102
}
330
C
100
AcDbDictionary
280
0
281
1
  3
Standard
350
4E
  0
XRECORD
  5
51
102
{ACAD_REACTORS
330
C
102
}
330
C
100
AcDbXrecord
280
1
 90
1
330
4E
  0
DICTIONARY
  5
52
102
{ACAD_REACTORS
330
C
102
}
330
C
100
AcDbDictionary
280
0
281
1
  3
DIMASSOC
350
53
  3
HIDETEXT
350
54
  0
DICTIONARY
  5
55
102
{ACAD_REACTORS
330
C
102
}
330
C
100
AcDbDictionary
280
0
281
1
  0
XRECORD
  5
56
102
{ACAD_REACTORS
330
C
102
}
330
C
100
AcDbXrecord
280
0
  1
DWGPROPS COOKIE
  2

  3

  4

  6

  7

  8

  9

300
=
301
=
302
=
303
=
304
=
305
=
306
=
307
=
308
=
309
=
 40
0
 41
2460962.9733956596
 42
2460962.9733956596
  1

 90
0
  0
CELLSTYLEMAP
  5
50
102
{ACAD_REACTORS
330
4F
102
}
330
4F
100
AcDbCellStyleMap
 90
3
300
CELLSTYLE
  1
TABLEFORMAT_BEGIN
 90
5
170
0
309
TABLEFORMAT_END
  1
CELLSTYLE_BEGIN
 90
3
 91
2
300
_DATA
309
CELLSTYLE_END
300
CELLSTYLE
  1
TABLEFORMAT_BEGIN
 90
5
170
0
309
TABLEFORMAT_END
  1
CELLSTYLE_BEGIN
 90
1
 91
2
300
_TITLE
309
CELLSTYLE_END
300
CELLSTYLE
  1
TABLEFORMAT_BEGIN
 90
5
170
0
309
TABLEFORMAT_END
  1
CELLSTYLE_BEGIN
 90
2
 91
2
300
_HEADER
309
CELLSTYLE_END
  0
LAYOUT
  5
1E
102
{ACAD_REACTORS
330
1A
102
}
330
1A
100
AcDbPlotSettings
  1

  2
C:\Program Files\AutoCAD 2002\plotters\DWF ePlot (optimized for plotting).pc3
  4

  6

 40
0
 41
0
 42
0
 43
0
 44
0
 45
0
 46
0
 47
0
 48
0
 49
0
140
0
141
0
142
1
143
1
 70
688
 72
1
 73
1
 74
1
  7
acad.stb
 75
16
 76
0
 77
0
 78
0
147
1
148
0
149
0
100
AcDbLayout
  1
Layout1
 70
1
 71
1
 10
0
 20
0
 11
420
 21
297
 12
0
 22
0
 32
0
 14
0
 24
0
 34
0
 15
0
 25
0
 35
0
146
0
 13
0
 23
0
 33
0
 16
1
 26
0
 36
0
 17
0
 27
1
 37
0
 76
0
330
30
  0
LAYOUT
  5
22
102
{ACAD_REACTORS
330
1A
102
}
330
1A
100
AcDbPlotSettings
  1

  2
C:\Program Files\AutoCAD 2002\plotters\DWF ePlot (optimized for plotting).pc3
  4

  6

 40
0
 41
0
 42
0
 43
0
 44
0
 45
0
 46
0
 47
0
 48
0
 49
0
140
0
141
0
142
1
143
1
 70
1712
 72
1
 73
1
 74
0
  7
acad.stb
 75
0
 76
0
 77
0
 78
0
147
1
148
0
149
0
100
AcDbLayout
  1
Model
 70
1
 71
0
 10
0
 20
0
 11
12
 21
9
 12
0
 22
0
 32
0
 14
0
 24
0
 34
0
 15
0
 25
0
 35
0
146
0
 13
0
 23
0
 33
0
 16
1
 26
0
 36
0
 17
0
 27
1
 37
0
 76
0
330
1F
  0
MLEADERSTYLE
  5
4C
102
{ACAD_REACTORS
330
4B
102
}
330
4B
100
AcDbMLeaderStyle
170
2
171
1
172
0
 90
2
 40
0
 41
0
173
1
 91
0
340
0
 92
-2
290
1
 42
0.09
292
1
 43
0.36
  3
Standard
341
0
 44
0.18
300

342
0
174
1
178
1
175
1
176
0
 93
0
 45
0.18
292
0
297
0
 46
0
343
0
 94
0
 47
1
 49
1
140
1
293
1
141
0
294
1
177
0
142
1
295
0
296
0
143
0.125
  0
MLINESTYLE
  5
18
102
{ACAD_REACTORS
330
17
102
}
330
17
100
AcDbMlineStyle
  2
STANDARD
 70
0
  3

 51
90
 52
90
 71
2
 49
0.5
 62
0
  6
ByLayer
 49
-0.5
 62
0
  6
ByLayer
  0
TABLESTYLE
  5
4E
102
{ACAD_XDICTIONARY
360
4F
102
}
102
{ACAD_REACTORS
330
4D
102
}
330
4D
100
AcDbTableStyle
  3

 70
0
 71
0
 40
0.06
 41
0.06
280
0
281
0
  7
Standard
140
0.18
170
1
 62
0
283
0
 90
512
 91
0
274
-2
284
1
 64
0
275
-2
285
1
 65
0
276
-2
286
1
 66
0
277
-2
287
1
 67
0
278
-2
288
1
 68
0
279
-2
289
1
 69
0
  7
Standard
140
0.18
170
1
 62
0
283
0
 90
512
 91
0
274
-2
284
1
 64
0
275
-2
285
1
 65
0
276
-2
286
1
 66
0
277
-2
287
1
 67
0
278
-2
288
1
 68
0
279
-2
289
1
 69
0
  7
Standard
140
0.18
170
1
 62
0
283
0
 90
512
 91
0
274
-2
284
1
 64
0
275
-2
285
1
 65
0
276
-2
286
1
 66
0
277
-2
287
1
 67
0
278
-2
288
1
 68
0
279
-2
289
1
 69
0
  0
DICTIONARYVAR
  5
53
102
{ACAD_REACTORS
330
52
102
}
330
52
100
DictionaryVariables
280
0
  1
1
  0
DICTIONARYVAR
  5
54
102
{ACAD_REACTORS
330
52
102
}
330
52
100
DictionaryVariables
280
0
  1
2
  0
ENDSEC
999
Created By CadLib version 4.0.38.30
999
CadLib website: www.woutware.com
  0
EOF
