  0
SECTION
  2
HEADER
  9
$ACADVER
  1
AC1015
  9
$ACADMAINTVER
 70
6
  9
$DWGCODEPAGE
  3
ANSI_1252
  9
$INSBASE
 10
0.0
 20
0.0
 30
0.0
  9
$EXTMIN
 10
1981.2387785715578
 20
42.0375942064804
 30
0.0
  9
$EXTMAX
 10
2499.002136344873
 20
1998.99992066543
 30
0.0
  9
$LIMMIN
 10
0.0
 20
0.0
  9
$LIMMAX
 10
12.0
 20
9.0
  9
$ORTHOMODE
 70
0
  9
$REGENMODE
 70
1
  9
$FILLMODE
 70
1
  9
$QTEXTMODE
 70
0
  9
$MIRRTEXT
 70
1
  9
$LTSCALE
 40
1.0
  9
$ATTMODE
 70
1
  9
$TEXTSIZE
 40
0.2
  9
$TRACEWID
 40
0.05
  9
$TEXTSTYLE
  7
Standard
  9
$CLAYER
  8
0
  9
$CELTYPE
  6
ByLayer
  9
$CECOLOR
 62
256
  9
$CELTSCALE
 40
1.0
  9
$DISPSILH
 70
0
  9
$DIMSCALE
 40
1.0
  9
$DIMASZ
 40
0.18
  9
$DIMEXO
 40
0.0625
  9
$DIMDLI
 40
0.38
  9
$DIMRND
 40
0.0
  9
$DIMDLE
 40
0.0
  9
$DIMEXE
 40
0.18
  9
$DIMTP
 40
0.0
  9
$DIMTM
 40
0.0
  9
$DIMTXT
 40
0.18
  9
$DIMCEN
 40
0.09
  9
$DIMTSZ
 40
0.0
  9
$DIMTOL
 70
0
  9
$DIMLIM
 70
0
  9
$DIMTIH
 70
1
  9
$DIMTOH
 70
1
  9
$DIMSE1
 70
0
  9
$DIMSE2
 70
0
  9
$DIMTAD
 70
0
  9
$DIMZIN
 70
0
  9
$DIMBLK
  1

  9
$DIMASO
 70
1
  9
$DIMSHO
 70
1
  9
$DIMPOST
  1

  9
$DIMAPOST
  1

  9
$DIMALT
 70
0
  9
$DIMALTD
 70
2
  9
$DIMALTF
 40
0.03937007874015748
  9
$DIMLFAC
 40
1.0
  9
$DIMTOFL
 70
0
  9
$DIMTVP
 40
0.0
  9
$DIMTIX
 70
0
  9
$DIMSOXD
 70
0
  9
$DIMSAH
 70
0
  9
$DIMBLK1
  1

  9
$DIMBLK2
  1

  9
$DIMSTYLE
  2
Standard
  9
$DIMCLRD
 70
0
  9
$DIMCLRE
 70
0
  9
$DIMCLRT
 70
0
  9
$DIMTFAC
 40
1.0
  9
$DIMGAP
 40
0.09
  9
$DIMJUST
 70
0
  9
$DIMSD1
 70
0
  9
$DIMSD2
 70
0
  9
$DIMTOLJ
 70
1
  9
$DIMTZIN
 70
0
  9
$DIMALTZ
 70
0
  9
$DIMALTTZ
 70
0
  9
$DIMUPT
 70
0
  9
$DIMDEC
 70
4
  9
$DIMTDEC
 70
4
  9
$DIMALTU
 70
2
  9
$DIMALTTD
 70
0
  9
$DIMTXSTY
  7
Standard
  9
$DIMAUNIT
 70
0
  9
$DIMADEC
 70
0
  9
$DIMALTRND
 40
0.0
  9
$DIMAZIN
 70
0
  9
$DIMDSEP
 70
46
  9
$DIMATFIT
 70
0
  9
$DIMFRAC
 70
0
  9
$DIMLDRBLK
  1

  9
$DIMLUNIT
 70
2
  9
$DIMLWD
 70
-2
  9
$DIMLWE
 70
-2
  9
$LUNITS
 70
2
  9
$LUPREC
 70
4
  9
$SKETCHINC
 40
0.1
  9
$FILLETRAD
 40
0.0
  9
$AUNITS
 70
0
  9
$AUPREC
 70
0
  9
$MENU
  1
.
  9
$ELEVATION
 40
0.0
  9
$PELEVATION
 40
0.0
  9
$THICKNESS
 40
0.0
  9
$LIMCHECK
 70
0
  9
$CHAMFERA
 40
0.5
  9
$CHAMFERB
 40
0.5
  9
$CHAMFERC
 40
0.0
  9
$CHAMFERD
 40
0.0
  9
$SKPOLY
 70
0
  9
$TDCREATE
 40
2460972.539027778
  9
$TDUCREATE
 40
2460962.9196199654
  9
$TDUPDATE
 40
2460972.539027778
  9
$TDUUPDATE
 40
2460962.9196199654
  9
$TDINDWG
 40
0.0
  9
$TDUSRTIMER
 40
1.1574074074074074e-08
  9
$USRTIMER
 70
1
  9
$ANGBASE
 50
0.0
  9
$ANGDIR
 70
1
  9
$PDMODE
 70
0
  9
$PDSIZE
 40
0.0
  9
$PLINEWID
 40
0.0
  9
$SPLFRAME
 70
0
  9
$SPLINETYPE
 70
6
  9
$SPLINESEGS
 70
8
  9
$HANDSEED
  5
1F8
  9
$SURFTAB1
 70
6
  9
$SURFTAB2
 70
6
  9
$SURFTYPE
 70
6
  9
$SURFU
 70
6
  9
$SURFV
 70
6
  9
$UCSORG
 10
0.0
 20
0.0
 30
0.0
  9
$UCSXDIR
 10
1.0
 20
0.0
 30
0.0
  9
$UCSYDIR
 10
0.0
 20
1.0
 30
0.0
  9
$UCSORTHOREF
  2

  9
$UCSORTHOVIEW
 70
0
  9
$UCSORGTOP
 10
0.0
 20
0.0
 30
0.0
  9
$UCSORGBOTTOM
 10
0.0
 20
0.0
 30
0.0
  9
$UCSORGLEFT
 10
0.0
 20
0.0
 30
0.0
  9
$UCSORGRIGHT
 10
0.0
 20
0.0
 30
0.0
  9
$UCSORGFRONT
 10
0.0
 20
0.0
 30
0.0
  9
$UCSORGBACK
 10
0.0
 20
0.0
 30
0.0
  9
$PUCSORG
 10
0.0
 20
0.0
 30
0.0
  9
$PUCSXDIR
 10
1.0
 20
0.0
 30
0.0
  9
$PUCSYDIR
 10
0.0
 20
1.0
 30
0.0
  9
$PUCSORTHOREF
  2

  9
$PUCSORTHOVIEW
 70
0
  9
$PUCSORGTOP
 10
0.0
 20
0.0
 30
0.0
  9
$PUCSORGBOTTOM
 10
0.0
 20
0.0
 30
0.0
  9
$PUCSORGLEFT
 10
0.0
 20
0.0
 30
0.0
  9
$PUCSORGRIGHT
 10
0.0
 20
0.0
 30
0.0
  9
$PUCSORGFRONT
 10
0.0
 20
0.0
 30
0.0
  9
$PUCSORGBACK
 10
0.0
 20
0.0
 30
0.0
  9
$USERI1
 70
0
  9
$USERI2
 70
0
  9
$USERI3
 70
0
  9
$USERI4
 70
0
  9
$USERI5
 70
0
  9
$USERR1
 40
0.0
  9
$USERR2
 40
0.0
  9
$USERR3
 40
0.0
  9
$USERR4
 40
0.0
  9
$USERR5
 40
0.0
  9
$WORLDVIEW
 70
1
  9
$SHADEDGE
 70
3
  9
$SHADEDIF
 70
70
  9
$TILEMODE
 70
1
  9
$MAXACTVP
 70
48
  9
$PINSBASE
 10
0.0
 20
0.0
 30
0.0
  9
$PLIMCHECK
 70
0
  9
$PEXTMIN
 10
0.0
 20
0.0
 30
0.0
  9
$PEXTMAX
 10
0.0
 20
0.0
 30
0.0
  9
$PLIMMIN
 10
0.0
 20
0.0
  9
$PLIMMAX
 10
420.0
 20
297.0
  9
$UNITMODE
 70
0
  9
$VISRETAIN
 70
1
  9
$PLINEGEN
 70
1
  9
$PSLTSCALE
 70
1
  9
$TREEDEPTH
 70
3020
  9
$CMLSTYLE
  2
STANDARD
  9
$CMLJUST
 70
0
  9
$CMLSCALE
 40
1.0
  9
$PROXYGRAPHICS
 70
1
  9
$MEASUREMENT
 70
1
  9
$CELWEIGHT
370
-1
  9
$ENDCAPS
280
0
  9
$JOINSTYLE
280
0
  9
$LWDISPLAY
290
1
  9
$INSUNITS
 70
4
  9
$HYPERLINKBASE
  1

  9
$XEDIT
290
1
  9
$CEPSNTYPE
380
0
  9
$PSTYLEMODE
290
0
  9
$FINGERPRINTGUID
  2

  9
$VERSIONGUID
  2
{CB563206-D35F-4865-A409-22FE2CC91458}
  9
$EXTNAMES
290
1
  9
$PSVPSCALE
 40
0.0
  0
ENDSEC
  0
SECTION
  2
CLASSES
  0
CLASS
  1
RASTERVARIABLES
  2
AcDbRasterVariables
  3
ISM
 90
0
280
0
281
0
  0
CLASS
  1
IMAGEDEF
  2
AcDbRasterImageDef
  3
ISM
 90
0
280
0
281
0
  0
CLASS
  1
IMAGEDEF_REACTOR
  2
AcDbRasterImageDefReactor
  3
ISM
 90
1
280
0
281
0
  0
CLASS
  1
IMAGE
  2
AcDbRasterImage
  3
ISM
 90
127
280
0
281
1
  0
CLASS
  1
ACAD_EVALUATION_GRAPH
  2
AcDbEvalGraph
  3
ObjectDBX Classes
 90
1153
280
0
281
0
  0
CLASS
  1
BLOCKPOINTPARAMETER
  2
AcDbBlockPointParameter
  3
ObjectDBX Classes
 90
1153
280
0
281
0
  0
CLASS
  1
BLOCKBASEPOINTPARAMETER
  2
AcDbBlockBasepointParameter
  3
ObjectDBX Classes
 90
1153
280
0
281
0
  0
CLASS
  1
BLOCKLOOKUPPARAMETER
  2
AcDbBlockLookupParameter
  3
ObjectDBX Classes
 90
1153
280
0
281
0
  0
CLASS
  1
BLOCKVISIBILITYPARAMETER
  2
AcDbBlockVisibilityParameter
  3
ObjectDBX Classes
 90
1153
280
0
281
0
  0
CLASS
  1
BLOCKPROPERTIESTABLE
  2
AcDbBlockPropertiesTable
  3
ObjectDBX Classes
 90
1153
280
0
281
0
  0
CLASS
  1
BLOCKPOLARPARAMETER
  2
AcDbBlockPolarParameter
  3
ObjectDBX Classes
 90
1153
280
0
281
0
  0
CLASS
  1
BLOCKROTATIONPARAMETER
  2
AcDbBlockRotationParameter
  3
ObjectDBX Classes
 90
1153
280
0
281
0
  0
CLASS
  1
BLOCKLINEARPARAMETER
  2
AcDbBlockLinearParameter
  3
ObjectDBX Classes
 90
1153
280
0
281
0
  0
CLASS
  1
BLOCKXYPARAMETER
  2
AcDbBlockXYParameter
  3
ObjectDBX Classes
 90
1153
280
0
281
0
  0
CLASS
  1
BLOCKFLIPPARAMETER
  2
AcDbBlockFlipParameter
  3
ObjectDBX Classes
 90
1153
280
0
281
0
  0
CLASS
  1
BLOCKALIGNMENTPARAMETER
  2
AcDbBlockAlignmentParameter
  3
ObjectDBX Classes
 90
1153
280
0
281
0
  0
CLASS
  1
BLOCKROTATEACTION
  2
AcDbBlockRotateAction
  3
ObjectDBX Classes
 90
1153
280
0
281
0
  0
CLASS
  1
BLOCKSCALEACTION
  2
AcDbBlockScaleAction
  3
ObjectDBX Classes
 90
1153
280
0
281
0
  0
CLASS
  1
BLOCKARRAYACTION
  2
AcDbBlockArrayAction
  3
ObjectDBX Classes
 90
1153
280
0
281
0
  0
CLASS
  1
BLOCKFLIPACTION
  2
AcDbBlockFlipAction
  3
ObjectDBX Classes
 90
1153
280
0
281
0
  0
CLASS
  1
BLOCKLOOKUPACTION
  2
AcDbBlockLookupAction
  3
ObjectDBX Classes
 90
1153
280
0
281
0
  0
CLASS
  1
BLOCKMOVEACTION
  2
AcDbBlockMoveAction
  3
ObjectDBX Classes
 90
1153
280
0
281
0
  0
CLASS
  1
BLOCKPOLARSTRETCHACTION
  2
AcDbBlockPolarStretchAction
  3
ObjectDBX Classes
 90
1153
280
0
281
0
  0
CLASS
  1
BLOCKSTRETCHACTION
  2
AcDbBlockStretchAction
  3
ObjectDBX Classes
 90
1153
280
0
281
0
  0
CLASS
  1
BLOCKALIGNMENTGRIP
  2
AcDbBlockAlignmentGrip
  3
ObjectDBX Classes
 90
1153
280
0
281
0
  0
CLASS
  1
BLOCKFLIPGRIP
  2
AcDbBlockFlipGrip
  3
ObjectDBX Classes
 90
1153
280
0
281
0
  0
CLASS
  1
ACDB_BLOCKREPRESENTATION_DATA
  2
AcDbBlockRepresentationData
  3
ObjectDBX Classes
 90
1153
280
0
281
0
  0
CLASS
  1
ACDB_DYNAMICBLOCKPURGEPREVENTER_VERSION
  2
AcDbDynamicBlockPurgePreventer
  3
ObjectDBX Classes
 90
1153
280
0
281
0
  0
CLASS
  1
BLOCKLINEARGRIP
  2
AcDbBlockLinearGrip
  3
ObjectDBX Classes
 90
1153
280
0
281
0
  0
CLASS
  1
BLOCKLOOKUPGRIP
  2
AcDbBlockLookupGrip
  3
ObjectDBX Classes
 90
1153
280
0
281
0
  0
CLASS
  1
BLOCKPOLARGRIP
  2
AcDbBlockPolarGrip
  3
ObjectDBX Classes
 90
1153
280
0
281
0
  0
CLASS
  1
BLOCKPROPERTIESTABLEGRIP
  2
AcDbBlockPropertiesTableGrip
  3
ObjectDBX Classes
 90
1153
280
0
281
0
  0
CLASS
  1
BLOCKROTATIONGRIP
  2
AcDbBlockRotationGrip
  3
ObjectDBX Classes
 90
1153
280
0
281
0
  0
CLASS
  1
BLOCKVISIBILITYGRIP
  2
AcDbBlockVisibilityGrip
  3
ObjectDBX Classes
 90
1153
280
0
281
0
  0
CLASS
  1
BLOCKXYGRIP
  2
AcDbBlockXYGrip
  3
ObjectDBX Classes
 90
1153
280
0
281
0
  0
CLASS
  1
BLOCKGRIPLOCATIONCOMPONENT
  2
AcDbBlockGripExpr
  3
ObjectDBX Classes
 90
1153
280
0
281
0
  0
CLASS
  1
ACDB_DYNAMICBLOCKPROXYNODE
  2
AcDbDynamicBlockProxyNode
  3
ObjectDBX Classes
 90
1153
280
0
281
0
  0
CLASS
  1
BLOCKLINEARCONSTRAINTPARAMETER
  2
AcDbBlockLinearConstraintParameter
  3
ObjectDBX Classes
 90
1153
280
0
281
0
  0
CLASS
  1
BLOCKHORIZONTALCONSTRAINTPARAMETER
  2
AcDbBlockHorizontalConstraintParameter
  3
ObjectDBX Classes
 90
1153
280
0
281
0
  0
CLASS
  1
BLOCKVERTICALCONSTRAINTPARAMETER
  2
AcDbBlockVerticalConstraintParameter
  3
ObjectDBX Classes
 90
1153
280
0
281
0
  0
CLASS
  1
BLOCKALIGNEDCONSTRAINTPARAMETER
  2
AcDbBlockAlignedConstraintParameter
  3
ObjectDBX Classes
 90
1153
280
0
281
0
  0
CLASS
  1
BLOCKANGULARCONSTRAINTPARAMETER
  2
AcDbBlockAngularConstraintParameter
  3
ObjectDBX Classes
 90
1153
280
0
281
0
  0
CLASS
  1
BLOCKDIAMETRICCONSTRAINTPARAMETER
  2
AcDbBlockDiametricConstraintParameter
  3
ObjectDBX Classes
 90
1153
280
0
281
0
  0
CLASS
  1
BLOCKRADIALCONSTRAINTPARAMETER
  2
AcDbBlockRadialConstraintParameter
  3
ObjectDBX Classes
 90
1153
280
0
281
0
  0
CLASS
  1
ACDBDICTIONARYWDFLT
  2
AcDbDictionaryWithDefault
  3
ObjectDBX Classes
 90
0
280
0
281
0
  0
CLASS
  1
SUN
  2
AcDbSun
  3
SCENEOE
 90
1153
280
0
281
0
  0
CLASS
  1
VISUALSTYLE
  2
AcDbVisualStyle
  3
ObjectDBX Classes
 90
4095
280
0
281
0
  0
CLASS
  1
MATERIAL
  2
AcDbMaterial
  3
ObjectDBX Classes
 90
1153
280
0
281
0
  0
CLASS
  1
SCALE
  2
AcDbScale
  3
ObjectDBX Classes
 90
1153
280
0
281
0
  0
CLASS
  1
TABLESTYLE
  2
AcDbTableStyle
  3
ObjectDBX Classes
 90
4095
280
0
281
0
  0
CLASS
  1
MLEADERSTYLE
  2
AcDbMLeaderStyle
  3
ACDB_MLEADERSTYLE_CLASS
 90
4095
280
0
281
0
  0
CLASS
  1
DICTIONARYVAR
  2
AcDbDictionaryVar
  3
ObjectDBX Classes
 90
0
280
0
281
0
  0
CLASS
  1
CELLSTYLEMAP
  2
AcDbCellStyleMap
  3
ObjectDBX Classes
 90
1152
280
0
281
0
  0
CLASS
  1
MENTALRAYRENDERSETTINGS
  2
AcDbMentalRayRenderSettings
  3
SCENEOE
 90
1024
280
0
281
0
  0
CLASS
  1
ACDBDETAILVIEWSTYLE
  2
AcDbDetailViewStyle
  3
ObjectDBX Classes
 90
1025
280
0
281
0
  0
CLASS
  1
ACDBSECTIONVIEWSTYLE
  2
AcDbSectionViewStyle
  3
ObjectDBX Classes
 90
1025
280
0
281
0
  0
CLASS
  1
ACDBPLACEHOLDER
  2
AcDbPlaceHolder
  3
ObjectDBX Classes
 90
0
280
0
281
0
  0
CLASS
  1
LAYOUT
  2
AcDbLayout
  3
ObjectDBX Classes
 90
0
280
0
281
0
  0
CLASS
  1
FIELDLIST
  2
AcDbFieldList
  3
ObjectDBX Classes
 90
1152
280
0
281
0
  0
ENDSEC
  0
SECTION
  2
TABLES
  0
TABLE
  2
VPORT
  5
8
330
0
100
AcDbSymbolTable
 70
1
  0
VPORT
  5
1AA
330
8
100
AcDbSymbolTableRecord
100
AcDbViewportTableRecord
  2
*Active
 70
64
 10
0.0
 20
0.0
 11
1.0
 21
1.0
 12
2240.1204574582152
 22
1020.5187574359552
 13
0.0
 23
0.0
 14
1.0
 24
1.0
 15
0.0
 25
0.0
 16
0.0
 26
0.0
 36
1.0
 17
0.0
 27
0.0
 37
0.0
 40
1956.9623264589495
 41
0.2645750256777753
 42
50.0
 43
0.0
 44
0.0
 50
0.0
 51
0.0
 71
0
 72
20000
 73
20000
 74
1
 75
0
 76
0
 77
0
 78
0
281
0
 65
1
110
0.0
120
0.0
130
0.0
111
1.0
121
0.0
131
0.0
112
0.0
122
1.0
132
0.0
 79
0
146
0.0
  0
ENDTAB
  0
TABLE
  2
LTYPE
  5
5
330
0
100
AcDbSymbolTable
 70
3
  0
LTYPE
  5
16
330
5
100
AcDbSymbolTableRecord
100
AcDbLinetypeTableRecord
  2
Continuous
 70
64
  3
Solid line
 72
65
 73
0
 40
0.0
  0
LTYPE
  5
14
330
5
100
AcDbSymbolTableRecord
100
AcDbLinetypeTableRecord
  2
ByBlock
 70
64
  3

 72
65
 73
0
 40
0.0
  0
LTYPE
  5
15
330
5
100
AcDbSymbolTableRecord
100
AcDbLinetypeTableRecord
  2
ByLayer
 70
64
  3

 72
65
 73
0
 40
0.0
  0
ENDTAB
  0
TABLE
  2
LAYER
  5
2
330
0
100
AcDbSymbolTable
 70
6
  0
LAYER
  5
10
330
2
100
AcDbSymbolTableRecord
100
AcDbLayerTableRecord
  2
0
 70
64
 62
7
  6
Continuous
370
-3
390
F
  0
LAYER
  5
27
330
2
100
AcDbSymbolTableRecord
100
AcDbLayerTableRecord
  2
1
 70
64
 62
7
  6
Continuous
370
-3
390
F
  0
LAYER
  5
28
330
2
100
AcDbSymbolTableRecord
100
AcDbLayerTableRecord
  2
11
 70
64
 62
7
  6
Continuous
370
-3
390
F
  0
LAYER
  5
29
330
2
100
AcDbSymbolTableRecord
100
AcDbLayerTableRecord
  2
3
 70
64
 62
7
  6
Continuous
370
-3
390
F
  0
LAYER
  5
2A
330
2
100
AcDbSymbolTableRecord
100
AcDbLayerTableRecord
  2
2
 70
64
 62
7
  6
Continuous
370
-3
390
F
  0
LAYER
  5
2B
330
2
100
AcDbSymbolTableRecord
100
AcDbLayerTableRecord
  2
DEFPOINTS
 70
64
 62
7
  6
Continuous
290
0
370
-3
390
F
  0
ENDTAB
  0
TABLE
  2
STYLE
  5
3
330
0
100
AcDbSymbolTable
 70
1
  0
STYLE
  5
11
330
3
100
AcDbSymbolTableRecord
100
AcDbTextStyleTableRecord
  2
Standard
 70
64
 40
0.0
 41
1.0
 50
0.0
 71
0
 42
0.2
  3
txt.shx
  4

  0
ENDTAB
  0
TABLE
  2
VIEW
  5
6
330
0
100
AcDbSymbolTable
 70
0
  0
ENDTAB
  0
TABLE
  2
UCS
  5
7
330
0
100
AcDbSymbolTable
 70
0
  0
ENDTAB
  0
TABLE
  2
APPID
  5
9
330
0
100
AcDbSymbolTable
 70
4
  0
APPID
  5
12
330
9
100
AcDbSymbolTableRecord
100
AcDbRegAppTableRecord
  2
ACAD
 70
64
  0
APPID
  5
1CD
330
9
100
AcDbSymbolTableRecord
100
AcDbRegAppTableRecord
  2
ACAD_MLEADERVER
 70
64
  0
APPID
  5
1F4
330
9
100
AcDbSymbolTableRecord
100
AcDbRegAppTableRecord
  2
HATCHBACKGROUNDCOLOR
 70
0
  0
APPID
  5
1F5
330
9
100
AcDbSymbolTableRecord
100
AcDbRegAppTableRecord
  2
EZDXF
 70
0
  0
ENDTAB
  0
TABLE
  2
DIMSTYLE
  5
A
330
0
100
AcDbSymbolTable
 70
1
100
AcDbDimStyleTable
  0
DIMSTYLE
105
1A9
330
A
100
AcDbSymbolTableRecord
100
AcDbDimStyleTableRecord
  2
Standard
 70
64
  3

  4

 40
1.0
 41
0.18
 42
0.0625
 43
0.38
 44
0.18
 45
0.0
 46
0.0
 47
0.0
 48
0.0
140
0.18
141
0.09
142
0.0
143
1.0
144
1.0
145
0.0
146
1.0
147
0.09
148
0.0
 71
0
 72
0
 73
1
 74
1
 75
0
 76
0
 77
0
 78
0
 79
0
170
0
171
2
172
0
173
0
174
0
175
0
176
0
177
0
178
0
179
0
271
4
272
4
273
2
274
0
275
0
276
0
277
2
278
46
279
0
280
0
281
0
282
0
283
1
284
0
285
0
286
0
288
0
289
0
340
11
371
-2
372
-2
  0
ENDTAB
  0
TABLE
  2
BLOCK_RECORD
  5
1
330
0
100
AcDbSymbolTable
 70
2
  0
BLOCK_RECORD
  5
1F
330
1
100
AcDbSymbolTableRecord
100
AcDbBlockTableRecord
  2
*Model_Space
340
22
  0
BLOCK_RECORD
  5
1A6
330
1
100
AcDbSymbolTableRecord
100
AcDbBlockTableRecord
  2
*Paper_Space
340
1E
  0
ENDTAB
  0
ENDSEC
  0
SECTION
  2
BLOCKS
  0
BLOCK
  5
20
330
1F
100
AcDbEntity
  8
0
100
AcDbBlockBegin
  2
*Model_Space
 70
64
 10
0.0
 20
0.0
 30
0.0
  3
*Model_Space
  1

  0
ENDBLK
  5
21
330
1F
100
AcDbEntity
  8
0
100
AcDbBlockEnd
  0
BLOCK
  5
1A7
330
1A6
100
AcDbEntity
 67
1
  8
0
100
AcDbBlockBegin
  2
*Paper_Space
 70
64
 10
0.0
 20
0.0
 30
0.0
  3
*Paper_Space
  1

  0
ENDBLK
  5
1A8
330
1A6
100
AcDbEntity
  8
0
100
AcDbBlockEnd
  0
ENDSEC
  0
SECTION
  2
ENTITIES
  0
LWPOLYLINE
  5
2C
330
1F
100
AcDbEntity
  8
1
 62
7
100
AcDbPolyline
 90
92
 70
1
 10
2020.2919421000001
 20
1922.5314911000003
 10
2028.9899406237123
 20
1834.319516002344
 10
2030.9746274752138
 20
1826.7808349720706
 10
2031.9192251963136
 20
1819.0427215687503
 10
2031.806300620508
 20
1811.247998058008
 10
2030.6379422945497
 20
1803.5405166737307
 10
2029.8575720591066
 20
1799.5870407215823
 10
2028.5867032808778
 20
1795.7629593006839
 10
2026.8454704088686
 20
1792.128811656641
 10
2024.661468009424
 20
1788.742237865137
 10
2022.0693025393007
 20
1785.6568725697268
 10
2019.1100535196779
 20
1782.921582042383
 10
2015.8306107325075
 20
1780.5797775379885
 10
2008.1954861169233
 20
1776.3151600354438
 10
1996.4401473626183
 20
1768.5249116516784
 10
1989.1219410700319
 20
1762.5845153919925
 10
1984.9074921411989
 20
1756.6237075916995
 10
1981.543940047693
 20
1750.1445205799807
 10
1981.4838537973878
 20
1647.6735885731448
 10
1982.27240417428
 20
1644.4567688099612
 10
1983.5826573175905
 20
1641.4148910633792
 10
1985.378454665613
 20
1638.6319549671878
 10
1987.610219459009
 20
1636.1847122303714
 10
1990.216363410425
 20
1634.1407592884768
 10
1996.2188467783449
 20
1631.400814830469
 10
2002.5908455652711
 20
1629.6723373524417
 10
2012.4259886545656
 20
1628.5805709950198
 10
2019.0219411653993
 20
1628.869534312891
 10
2033.8861188692567
 20
1630.0469024769534
 10
2038.8470184059838
 20
1629.9658832321645
 10
2048.7759414715288
 20
1629.2575271717776
 10
2053.3680040044305
 20
1627.3349197499026
 10
2057.7031234865603
 20
1624.8874481312503
 10
2063.5945275825975
 20
1620.3077133290042
 10
2065.3679415983675
 20
1618.5595138661135
 10
2069.0931532186983
 20
1610.4218872181643
 10
2074.168942908716
 20
1603.0507095448245
 10
2080.442498664331
 20
1596.6678436390628
 10
2087.724941710901
 20
1591.465512096094
 10
2095.1779780191896
 20
1589.9039276234378
 10
2102.7611717981813
 20
1589.2100341908206
 10
2110.3738484186647
 20
1589.3930252186526
 10
2117.9149422449586
 20
1590.4505355946292
 10
2169.9587664408205
 20
1595.3781707875003
 10
2222.0899424356935
 20
1599.2745025746096
 10
2371.602939109277
 20
1599.2745025746096
 10
2396.056456433529
 20
1598.2610651517346
 10
2410.61737392373
 20
1596.8227966419925
 10
2425.043582841115
 20
1594.3787003519385
 10
2454.491504172754
 20
1587.8991134754885
 10
2460.1698717875
 20
1587.6875122181643
 10
2465.82001064248
 20
1588.2910354725589
 10
2471.3255724710934
 20
1589.6972854725589
 10
2476.5730700296876
 20
1591.877232371973
 10
2481.454394797754
 20
1594.7860153309573
 10
2485.8690295023434
 20
1598.3636673084964
 10
2489.725955466699
 20
1602.536526500391
 10
2498.4359392923825
 20
1623.0835159413089
 10
2498.435939292382
 20
1928.3325012318362
 10
2498.9999422831047
 20
1937.7991302601565
 10
2497.8060183329094
 20
1947.2070129505862
 10
2494.895328025292
 20
1956.2326629750003
 10
2490.3679308695305
 20
1964.5654876820315
 10
2480.853923301171
 20
1972.0033844105471
 10
2470.264399985742
 20
1977.8086670033206
 10
2458.8769182962883
 20
1981.8291290394534
 10
2446.9899401468747
 20
1983.9594848744143
 10
2433.3783001366005
 20
1986.2963176927285
 10
2396.953520190087
 20
1991.5451605155777
 10
2364.8799357218254
 20
1994.5765503041018
 10
2162.1478209299553
 20
1998.99992066543
 10
2156.2213644785393
 20
1997.9611786000003
 10
2150.460723380517
 20
1996.224270641016
 10
2144.947818259667
 20
1993.813916026758
 10
2142.308944205712
 20
1992.3665435902346
 10
2133.1700405878532
 20
1983.2667358509768
 10
2120.492003898095
 20
1968.4343536488284
 10
2115.5020603937614
 20
1964.0855224720706
 10
2110.025490264367
 20
1960.368099986719
 10
2104.1417393488396
 20
1957.3360260121096
 10
2097.936147193383
 20
1955.0333221546878
 10
2091.4987335009087
 20
1953.493328868555
 10
2084.92287013955
 20
1952.7384002796878
 10
2074.0519720626116
 20
1952.7080478427556
 10
2057.1350285740014
 20
1951.5267326195876
 10
2039.835650662851
 20
1948.1874664417971
 10
2035.3584394258974
 20
1946.2366302601565
 10
2031.2748226923463
 20
1943.5579498402346
 10
2027.702022532892
 20
1940.2282531849612
 10
2024.7425946993349
 20
1936.3432891957034
 10
2022.481485347223
 20
1932.0144470326175
 10
2020.9836015505311
 20
1927.3660858265628
  0
CIRCLE
  5
2D
330
1F
100
AcDbEntity
  8
11
 62
7
100
AcDbCircle
 10
2452.2799334330075
 20
1665.2655227772464
 30
0.0
 40
14.50000047683716
  0
CIRCLE
  5
2E
330
1F
100
AcDbEntity
  8
11
 62
7
100
AcDbCircle
 10
2454.330943564843
 20
1904.11954957168
 30
0.0
 40
14.50000047683716
  0
POINT
  5
2F
330
1F
100
AcDbEntity
  8
3
 62
7
100
AcDbPoint
 10
2030.1104507250307
 20
1830.583935558008
 30
0.0
  0
POINT
  5
30
330
1F
100
AcDbEntity
  8
3
 62
7
100
AcDbPoint
 10
2030.9746274752138
 20
1826.7808349720706
 30
0.0
  0
POINT
  5
31
330
1F
100
AcDbEntity
  8
3
 62
7
100
AcDbPoint
 10
2031.5784821314332
 20
1822.9278381458987
 30
0.0
  0
POINT
  5
32
330
1F
100
AcDbEntity
  8
3
 62
7
100
AcDbPoint
 10
2031.9192251963136
 20
1819.0427215687503
 30
0.0
  0
POINT
  5
33
330
1F
100
AcDbEntity
  8
3
 62
7
100
AcDbPoint
 10
2031.9952831072328
 20
1815.1434524647464
 30
0.0
  0
POINT
  5
34
330
1F
100
AcDbEntity
  8
3
 62
7
100
AcDbPoint
 10
2031.806300620508
 20
1811.247998058008
 30
0.0
  0
POINT
  5
35
330
1F
100
AcDbEntity
  8
3
 62
7
100
AcDbPoint
 10
2031.353157500696
 20
1807.3744018666018
 30
0.0
  0
POINT
  5
36
330
1F
100
AcDbEntity
  8
3
 62
7
100
AcDbPoint
 10
2029.8575720591066
 20
1799.5870407215823
 30
0.0
  0
POINT
  5
37
330
1F
100
AcDbEntity
  8
3
 62
7
100
AcDbPoint
 10
2028.5867032808778
 20
1795.7629593006839
 30
0.0
  0
POINT
  5
38
330
1F
100
AcDbEntity
  8
3
 62
7
100
AcDbPoint
 10
2026.8454704088686
 20
1792.128811656641
 30
0.0
  0
POINT
  5
39
330
1F
100
AcDbEntity
  8
3
 62
7
100
AcDbPoint
 10
2024.661468009424
 20
1788.742237865137
 30
0.0
  0
POINT
  5
3A
330
1F
100
AcDbEntity
  8
3
 62
7
100
AcDbPoint
 10
2022.0693025393007
 20
1785.6568725697268
 30
0.0
  0
POINT
  5
3B
330
1F
100
AcDbEntity
  8
3
 62
7
100
AcDbPoint
 10
2019.1100535196779
 20
1782.921582042383
 30
0.0
  0
POINT
  5
3C
330
1F
100
AcDbEntity
  8
3
 62
7
100
AcDbPoint
 10
2015.8306107325075
 20
1780.5797775379885
 30
0.0
  0
POINT
  5
3D
330
1F
100
AcDbEntity
  8
3
 62
7
100
AcDbPoint
 10
2000.2303776545045
 20
1771.3062866322268
 30
0.0
  0
POINT
  5
3E
330
1F
100
AcDbEntity
  8
3
 62
7
100
AcDbPoint
 10
1984.9074921411989
 20
1756.6237075916995
 30
0.0
  0
POINT
  5
3F
330
1F
100
AcDbEntity
  8
3
 62
7
100
AcDbPoint
 10
1981.2387785715578
 20
1650.9765442005862
 30
0.0
  0
POINT
  5
40
330
1F
100
AcDbEntity
  8
3
 62
7
100
AcDbPoint
 10
1981.4838537973878
 20
1647.6735885731448
 30
0.0
  0
POINT
  5
41
330
1F
100
AcDbEntity
  8
3
 62
7
100
AcDbPoint
 10
1982.27240417428
 20
1644.4567688099612
 30
0.0
  0
POINT
  5
42
330
1F
100
AcDbEntity
  8
3
 62
7
100
AcDbPoint
 10
1983.5826573175905
 20
1641.4148910633792
 30
0.0
  0
POINT
  5
43
330
1F
100
AcDbEntity
  8
3
 62
7
100
AcDbPoint
 10
1985.378454665613
 20
1638.6319549671878
 30
0.0
  0
POINT
  5
44
330
1F
100
AcDbEntity
  8
3
 62
7
100
AcDbPoint
 10
1987.610219459009
 20
1636.1847122303714
 30
0.0
  0
POINT
  5
45
330
1F
100
AcDbEntity
  8
3
 62
7
100
AcDbPoint
 10
1990.216363410425
 20
1634.1407592884768
 30
0.0
  0
POINT
  5
46
330
1F
100
AcDbEntity
  8
3
 62
7
100
AcDbPoint
 10
1996.2188467783449
 20
1631.400814830469
 30
0.0
  0
POINT
  5
47
330
1F
100
AcDbEntity
  8
3
 62
7
100
AcDbPoint
 10
1999.3781647486207
 20
1630.4382141224612
 30
0.0
  0
POINT
  5
48
330
1F
100
AcDbEntity
  8
3
 62
7
100
AcDbPoint
 10
2002.5908455652711
 20
1629.6723373524417
 30
0.0
  0
POINT
  5
49
330
1F
100
AcDbEntity
  8
3
 62
7
100
AcDbPoint
 10
2009.1272148890016
 20
1628.7417419544925
 30
0.0
  0
POINT
  5
4A
330
1F
100
AcDbEntity
  8
3
 62
7
100
AcDbPoint
 10
2012.4259886545656
 20
1628.5805709950198
 30
0.0
  0
POINT
  5
4B
330
1F
100
AcDbEntity
  8
3
 62
7
100
AcDbPoint
 10
2015.7284292978761
 20
1628.6232193104495
 30
0.0
  0
POINT
  5
4C
330
1F
100
AcDbEntity
  8
3
 62
7
100
AcDbPoint
 10
2033.8861188692567
 20
1630.0469024769534
 30
0.0
  0
POINT
  5
4D
330
1F
100
AcDbEntity
  8
3
 62
7
100
AcDbPoint
 10
2051.100208501291
 20
1628.3636673084964
 30
0.0
  0
POINT
  5
4E
330
1F
100
AcDbEntity
  8
3
 62
7
100
AcDbPoint
 10
2053.3680040044305
 20
1627.3349197499026
 30
0.0
  0
POINT
  5
4F
330
1F
100
AcDbEntity
  8
3
 62
7
100
AcDbPoint
 10
2057.7031234865603
 20
1624.8874481312503
 30
0.0
  0
POINT
  5
50
330
1F
100
AcDbEntity
  8
3
 62
7
100
AcDbPoint
 10
2061.721560995054
 20
1621.9488342396487
 30
0.0
  0
POINT
  5
51
330
1F
100
AcDbEntity
  8
3
 62
7
100
AcDbPoint
 10
2063.5945275825975
 20
1620.3077133290042
 30
0.0
  0
POINT
  5
52
330
1F
100
AcDbEntity
  8
3
 62
7
100
AcDbPoint
 10
2067.0537165207384
 20
1614.4097717396487
 30
0.0
  0
POINT
  5
53
330
1F
100
AcDbEntity
  8
3
 62
7
100
AcDbPoint
 10
2069.0931532186983
 20
1610.4218872181643
 30
0.0
  0
POINT
  5
54
330
1F
100
AcDbEntity
  8
3
 62
7
100
AcDbPoint
 10
2071.4708719057558
 20
1606.6259964100589
 30
0.0
  0
POINT
  5
55
330
1F
100
AcDbEntity
  8
3
 62
7
100
AcDbPoint
 10
2074.168942908716
 20
1603.0507095448245
 30
0.0
  0
POINT
  5
56
330
1F
100
AcDbEntity
  8
3
 62
7
100
AcDbPoint
 10
2077.1670207781312
 20
1599.7229583851565
 30
0.0
  0
POINT
  5
57
330
1F
100
AcDbEntity
  8
3
 62
7
100
AcDbPoint
 10
2080.442498664331
 20
1596.6678436390628
 30
0.0
  0
POINT
  5
58
330
1F
100
AcDbEntity
  8
3
 62
7
100
AcDbPoint
 10
2083.970674018335
 20
1593.9084442250003
 30
0.0
  0
POINT
  5
59
330
1F
100
AcDbEntity
  8
3
 62
7
100
AcDbPoint
 10
2091.4289483828065
 20
1590.577297984766
 30
0.0
  0
POINT
  5
5A
330
1F
100
AcDbEntity
  8
3
 62
7
100
AcDbPoint
 10
2095.1779780191896
 20
1589.9039276234378
 30
0.0
  0
POINT
  5
5B
330
1F
100
AcDbEntity
  8
3
 62
7
100
AcDbPoint
 10
2098.959573249292
 20
1589.4476516834964
 30
0.0
  0
POINT
  5
5C
330
1F
100
AcDbEntity
  8
3
 62
7
100
AcDbPoint
 10
2102.7611717981813
 20
1589.2100341908206
 30
0.0
  0
POINT
  5
5D
330
1F
100
AcDbEntity
  8
3
 62
7
100
AcDbPoint
 10
2106.5701517862794
 20
1589.191799937891
 30
0.0
  0
POINT
  5
5E
330
1F
100
AcDbEntity
  8
3
 62
7
100
AcDbPoint
 10
2110.3738484186647
 20
1589.3930252186526
 30
0.0
  0
POINT
  5
5F
330
1F
100
AcDbEntity
  8
3
 62
7
100
AcDbPoint
 10
2114.1596398157594
 20
1589.8130615345706
 30
0.0
  0
POINT
  5
60
330
1F
100
AcDbEntity
  8
3
 62
7
100
AcDbPoint
 10
2169.9587664408205
 20
1595.3781707875003
 30
0.0
  0
POINT
  5
61
330
1F
100
AcDbEntity
  8
3
 62
7
100
AcDbPoint
 10
2391.1785829191804
 20
1598.5595456427732
 30
0.0
  0
POINT
  5
62
330
1F
100
AcDbEntity
  8
3
 62
7
100
AcDbPoint
 10
2410.61737392373
 20
1596.8227966419925
 30
0.0
  0
POINT
  5
63
330
1F
100
AcDbEntity
  8
3
 62
7
100
AcDbPoint
 10
2425.043582841115
 20
1594.3787003519385
 30
0.0
  0
POINT
  5
64
330
1F
100
AcDbEntity
  8
3
 62
7
100
AcDbPoint
 10
2454.491504172754
 20
1587.8991134754885
 30
0.0
  0
POINT
  5
65
330
1F
100
AcDbEntity
  8
3
 62
7
100
AcDbPoint
 10
2460.1698717875
 20
1587.6875122181643
 30
0.0
  0
POINT
  5
66
330
1F
100
AcDbEntity
  8
3
 62
7
100
AcDbPoint
 10
2465.82001064248
 20
1588.2910354725589
 30
0.0
  0
POINT
  5
67
330
1F
100
AcDbEntity
  8
3
 62
7
100
AcDbPoint
 10
2471.3255724710934
 20
1589.6972854725589
 30
0.0
  0
POINT
  5
68
330
1F
100
AcDbEntity
  8
3
 62
7
100
AcDbPoint
 10
2476.5730700296876
 20
1591.877232371973
 30
0.0
  0
POINT
  5
69
330
1F
100
AcDbEntity
  8
3
 62
7
100
AcDbPoint
 10
2481.454394797754
 20
1594.7860153309573
 30
0.0
  0
POINT
  5
6A
330
1F
100
AcDbEntity
  8
3
 62
7
100
AcDbPoint
 10
2485.8690295023434
 20
1598.3636673084964
 30
0.0
  0
POINT
  5
6B
330
1F
100
AcDbEntity
  8
3
 62
7
100
AcDbPoint
 10
2498.937877158593
 20
1933.0527313343753
 30
0.0
  0
POINT
  5
6C
330
1F
100
AcDbEntity
  8
3
 62
7
100
AcDbPoint
 10
2498.9999422831047
 20
1937.7991302601565
 30
0.0
  0
POINT
  5
6D
330
1F
100
AcDbEntity
  8
3
 62
7
100
AcDbPoint
 10
2498.6215624613274
 20
1942.5308044544925
 30
0.0
  0
POINT
  5
6E
330
1F
100
AcDbEntity
  8
3
 62
7
100
AcDbPoint
 10
2497.8060183329094
 20
1947.2070129505862
 30
0.0
  0
POINT
  5
6F
330
1F
100
AcDbEntity
  8
3
 62
7
100
AcDbPoint
 10
2496.560367087792
 20
1951.7874725453128
 30
0.0
  0
POINT
  5
70
330
1F
100
AcDbEntity
  8
3
 62
7
100
AcDbPoint
 10
2494.895328025292
 20
1956.2326629750003
 30
0.0
  0
POINT
  5
71
330
1F
100
AcDbEntity
  8
3
 62
7
100
AcDbPoint
 10
2492.8252444071286
 20
1960.5042846791018
 30
0.0
  0
POINT
  5
72
330
1F
100
AcDbEntity
  8
3
 62
7
100
AcDbPoint
 10
2485.7616839212883
 20
1968.4773071400393
 30
0.0
  0
POINT
  5
73
330
1F
100
AcDbEntity
  8
3
 62
7
100
AcDbPoint
 10
2480.853923301171
 20
1972.0033844105471
 30
0.0
  0
POINT
  5
74
330
1F
100
AcDbEntity
  8
3
 62
7
100
AcDbPoint
 10
2475.676845054101
 20
1975.1206787220706
 30
0.0
  0
POINT
  5
75
330
1F
100
AcDbEntity
  8
3
 62
7
100
AcDbPoint
 10
2470.264399985742
 20
1977.8086670033206
 30
0.0
  0
POINT
  5
76
330
1F
100
AcDbEntity
  8
3
 62
7
100
AcDbPoint
 10
2464.6521410746086
 20
1980.04972535293
 30
0.0
  0
POINT
  5
77
330
1F
100
AcDbEntity
  8
3
 62
7
100
AcDbPoint
 10
2458.8769182962883
 20
1981.8291290394534
 30
0.0
  0
POINT
  5
78
330
1F
100
AcDbEntity
  8
3
 62
7
100
AcDbPoint
 10
2452.9766115946286
 20
1983.1352813832034
 30
0.0
  0
POINT
  5
79
330
1F
100
AcDbEntity
  8
3
 62
7
100
AcDbPoint
 10
2406.087306479882
 20
1990.4463012806643
 30
0.0
  0
POINT
  5
7A
330
1F
100
AcDbEntity
  8
3
 62
7
100
AcDbPoint
 10
2401.5229212505556
 20
1991.0151265536847
 30
0.0
  0
POINT
  5
7B
330
1F
100
AcDbEntity
  8
3
 62
7
100
AcDbPoint
 10
2162.1478209299553
 20
1998.99992066543
 30
0.0
  0
POINT
  5
7C
330
1F
100
AcDbEntity
  8
3
 62
7
100
AcDbPoint
 10
2159.1690954966057
 20
1998.569012462305
 30
0.0
  0
POINT
  5
7D
330
1F
100
AcDbEntity
  8
3
 62
7
100
AcDbPoint
 10
2156.2213644785393
 20
1997.9611786000003
 30
0.0
  0
POINT
  5
7E
330
1F
100
AcDbEntity
  8
3
 62
7
100
AcDbPoint
 10
2153.3151278299797
 20
1997.17863160293
 30
0.0
  0
POINT
  5
7F
330
1F
100
AcDbEntity
  8
3
 62
7
100
AcDbPoint
 10
2150.460723380517
 20
1996.224270641016
 30
0.0
  0
POINT
  5
80
330
1F
100
AcDbEntity
  8
3
 62
7
100
AcDbPoint
 10
2147.6683077616203
 20
1995.1013000599612
 30
0.0
  0
POINT
  5
81
330
1F
100
AcDbEntity
  8
3
 62
7
100
AcDbPoint
 10
2144.947818259667
 20
1993.813916026758
 30
0.0
  0
POINT
  5
82
330
1F
100
AcDbEntity
  8
3
 62
7
100
AcDbPoint
 10
2133.1700405878532
 20
1983.2667358509768
 30
0.0
  0
POINT
  5
83
330
1F
100
AcDbEntity
  8
3
 62
7
100
AcDbPoint
 10
2120.492003898095
 20
1968.4343536488284
 30
0.0
  0
POINT
  5
84
330
1F
100
AcDbEntity
  8
3
 62
7
100
AcDbPoint
 10
2115.5020603937614
 20
1964.0855224720706
 30
0.0
  0
POINT
  5
85
330
1F
100
AcDbEntity
  8
3
 62
7
100
AcDbPoint
 10
2110.025490264367
 20
1960.368099986719
 30
0.0
  0
POINT
  5
86
330
1F
100
AcDbEntity
  8
3
 62
7
100
AcDbPoint
 10
2104.1417393488396
 20
1957.3360260121096
 30
0.0
  0
POINT
  5
87
330
1F
100
AcDbEntity
  8
3
 62
7
100
AcDbPoint
 10
2097.936147193383
 20
1955.0333221546878
 30
0.0
  0
POINT
  5
88
330
1F
100
AcDbEntity
  8
3
 62
7
100
AcDbPoint
 10
2091.4987335009087
 20
1953.493328868555
 30
0.0
  0
POINT
  5
89
330
1F
100
AcDbEntity
  8
3
 62
7
100
AcDbPoint
 10
2084.92287013955
 20
1952.7384002796878
 30
0.0
  0
POINT
  5
8A
330
1F
100
AcDbEntity
  8
3
 62
7
100
AcDbPoint
 10
2061.342301408719
 20
1952.0383270375003
 30
0.0
  0
POINT
  5
8B
330
1F
100
AcDbEntity
  8
3
 62
7
100
AcDbPoint
 10
2039.835650662851
 20
1948.1874664417971
 30
0.0
  0
POINT
  5
8C
330
1F
100
AcDbEntity
  8
3
 62
7
100
AcDbPoint
 10
2035.3584394258974
 20
1946.2366302601565
 30
0.0
  0
POINT
  5
8D
330
1F
100
AcDbEntity
  8
3
 62
7
100
AcDbPoint
 10
2031.2748226923463
 20
1943.5579498402346
 30
0.0
  0
POINT
  5
8E
330
1F
100
AcDbEntity
  8
3
 62
7
100
AcDbPoint
 10
2027.702022532892
 20
1940.2282531849612
 30
0.0
  0
POINT
  5
8F
330
1F
100
AcDbEntity
  8
3
 62
7
100
AcDbPoint
 10
2024.7425946993349
 20
1936.3432891957034
 30
0.0
  0
POINT
  5
90
330
1F
100
AcDbEntity
  8
3
 62
7
100
AcDbPoint
 10
2022.481485347223
 20
1932.0144470326175
 30
0.0
  0
POINT
  5
91
330
1F
100
AcDbEntity
  8
3
 62
7
100
AcDbPoint
 10
2020.9836015505311
 20
1927.3660858265628
 30
0.0
  0
POINT
  5
92
330
1F
100
AcDbEntity
  8
2
 62
7
100
AcDbPoint
 10
2020.2919421000001
 20
1922.5314911000003
 30
0.0
  0
LWPOLYLINE
  5
93
330
1F
100
AcDbEntity
  8
1
 62
7
100
AcDbPolyline
 90
96
 70
1
 10
2000.6747011000004
 20
744.090829297916
 10
2002.9981862890852
 20
733.6250740744504
 10
2004.348178272852
 20
730.302873060123
 10
2007.8047899061528
 20
724.0347151011385
 10
2012.2293046766606
 20
718.4079221934238
 10
2017.5053361708012
 20
713.5704664439121
 10
2026.70465338113
 20
708.0522514769626
 10
2030.0379136854497
 20
706.7486814707677
 10
2036.9647172743169
 20
704.9438337534824
 10
2046.6079667860356
 20
703.8681272715488
 10
2056.3101533705076
 20
703.7352232188144
 10
2065.9792665296877
 20
704.5463422984044
 10
2075.523715382227
 20
706.2938169688144
 10
2099.285998707422
 20
713.3865980357091
 10
2123.3047822767576
 20
719.5553068369785
 10
2147.544131641992
 20
724.7907880991855
 10
2171.967730885156
 20
729.085183545963
 10
2196.5391115003904
 20
732.4320844859044
 10
2221.2214998060545
 20
734.8264555186191
 10
2245.9780458265623
 20
736.264787122623
 10
2270.771670704492
 20
736.7448286265294
 10
2319.4533876234373
 20
736.6286329478183
 10
2386.0574678236326
 20
738.4913877695958
 10
2403.888430958398
 20
740.546479627506
 10
2421.500430470117
 20
744.0082411021153
 10
2438.782687550195
 20
748.854813978092
 10
2448.506656056055
 20
752.9316190928381
 10
2457.702823048242
 20
758.0897001475256
 10
2466.251483326563
 20
764.2618421763342
 10
2474.041324024805
 20
771.3677076548498
 10
2480.970950489649
 20
779.314790174381
 10
2486.950030689844
 20
787.9995969981115
 10
2491.9007448011716
 20
797.3090223521154
 10
2495.758700733789
 20
807.1218351572912
 10
2498.0009684673787
 20
829.8114270572709
 10
2498.999972706445
 20
847.9814008921545
 10
2498.973340186169
 20
861.6267383574675
 10
2496.823077564844
 20
901.7622617930334
 10
2495.409350758203
 20
908.03461591901
 10
2493.344684010156
 20
914.1238645762365
 10
2488.991885548242
 20
919.4124845713537
 10
2484.025683766016
 20
924.1298155039709
 10
2473.5622743421877
 20
931.8861631602209
 10
2463.8707307630857
 20
940.5878690928381
 10
2460.540347462305
 20
947.6745847910803
 10
2457.858310108789
 20
955.0312284678381
 10
2455.846286183008
 20
962.598596021549
 10
2454.520450001367
 20
970.3158048838537
 10
2453.8914827162107
 20
978.1207517832678
 10
2453.964343433984
 20
985.9507230967444
 10
2454.73849809707
 20
993.74262373151
 10
2456.207690601953
 20
1001.4338163584631
 10
2457.444533178286
 20
1011.059031216049
 10
2458.990917447457
 20
1030.3616281357117
 10
2458.926730518945
 20
1049.754815503971
 10
2458.207278614649
 20
1056.7344907969398
 10
2456.555209522852
 20
1063.5539488047523
 10
2454.000506764063
 20
1070.0889829844398
 10
2450.589633350977
 20
1076.220879957096
 10
2446.384692555078
 20
1081.8379453867835
 10
2441.46213090957
 20
1086.8381742686195
 10
2435.9114412123045
 20
1091.1304716319007
 10
2429.83371294082
 20
1094.636865064518
 10
2308.2937196546873
 20
1163.3428434580726
 10
2298.192553883203
 20
1163.434014722721
 10
2288.1202272230466
 20
1162.6663450449867
 10
2278.1495240980466
 20
1161.045327588932
 10
2268.352694874414
 20
1158.5828642100257
 10
2256.5613893324216
 20
1152.4649290293617
 10
2244.2642549330076
 20
1147.4407438486976
 10
2231.5623811537107
 20
1143.5515073985023
 10
2218.5603669935545
 20
1140.829263135807
 10
2205.365176563867
 20
1139.2963651865882
 10
2192.0852998548826
 20
1138.9655546397132
 10
2178.8301423841795
 20
1139.8394254893226
 10
2161.4747497158505
 20
1142.499212536202
 10
2136.0099297660718
 20
1145.2956222952191
 10
2106.40109575332
 20
1146.2649778574867
 10
2098.2027772718748
 20
1145.2056364268226
 10
2090.2379182630857
 20
1142.993340894596
 10
2082.667727833398
 20
1139.67279951276
 10
2076.1789659315427
 20
1132.1090940684242
 10
2071.305423145898
 20
1123.4164671152992
 10
2068.2376817518552
 20
1113.9348081797523
 10
2067.0957139784177
 20
1104.034829542057
 10
2053.9126924330076
 20
959.914803907291
 10
2048.9769700819334
 20
955.4196409434238
 10
2043.5306886488283
 20
951.5588621348301
 10
2033.2849828379728
 20
951.3950624921509
 10
2029.9180177503908
 20
950.7480863779941
 10
2023.4063676649416
 20
948.6455015391269
 10
2017.3397401625002
 20
945.4803709238926
 10
2011.890101795801
 20
941.3422636240879
 10
2005.191171170678
 20
933.5788264373608
 10
2003.4378007704104
 20
930.6408170908848
 10
2000.6747011000004
 20
924.3808225840488
  0
POINT
  5
94
330
1F
100
AcDbEntity
  8
3
 62
7
100
AcDbPoint
 10
2001.9504503065434
 20
737.047372266666
 30
0.0
  0
POINT
  5
95
330
1F
100
AcDbEntity
  8
3
 62
7
100
AcDbPoint
 10
2004.348178272852
 20
730.302873060123
 30
0.0
  0
POINT
  5
96
330
1F
100
AcDbEntity
  8
3
 62
7
100
AcDbPoint
 10
2007.8047899061528
 20
724.0347151011385
 30
0.0
  0
POINT
  5
97
330
1F
100
AcDbEntity
  8
3
 62
7
100
AcDbPoint
 10
2012.2293046766606
 20
718.4079221934238
 30
0.0
  0
POINT
  5
98
330
1F
100
AcDbEntity
  8
3
 62
7
100
AcDbPoint
 10
2017.5053361708012
 20
713.5704664439121
 30
0.0
  0
POINT
  5
99
330
1F
100
AcDbEntity
  8
3
 62
7
100
AcDbPoint
 10
2023.4940675550786
 20
709.6496443003574
 30
0.0
  0
POINT
  5
9A
330
1F
100
AcDbEntity
  8
3
 62
7
100
AcDbPoint
 10
2030.0379136854497
 20
706.7486814707677
 30
0.0
  0
POINT
  5
9B
330
1F
100
AcDbEntity
  8
3
 62
7
100
AcDbPoint
 10
2041.7732576185551
 20
704.288583204166
 30
0.0
  0
POINT
  5
9C
330
1F
100
AcDbEntity
  8
3
 62
7
100
AcDbPoint
 10
2046.6079667860356
 20
703.8681272715488
 30
0.0
  0
POINT
  5
9D
330
1F
100
AcDbEntity
  8
3
 62
7
100
AcDbPoint
 10
2051.4574388319334
 20
703.6835340708652
 30
0.0
  0
POINT
  5
9E
330
1F
100
AcDbEntity
  8
3
 62
7
100
AcDbPoint
 10
2056.3101533705076
 20
703.7352232188144
 30
0.0
  0
POINT
  5
9F
330
1F
100
AcDbEntity
  8
3
 62
7
100
AcDbPoint
 10
2061.1545900160154
 20
704.0230421275058
 30
0.0
  0
POINT
  5
A0
330
1F
100
AcDbEntity
  8
3
 62
7
100
AcDbPoint
 10
2065.9792665296877
 20
704.5463422984044
 30
0.0
  0
POINT
  5
A1
330
1F
100
AcDbEntity
  8
3
 62
7
100
AcDbPoint
 10
2070.7727769666994
 20
705.3038648814121
 30
0.0
  0
POINT
  5
A2
330
1F
100
AcDbEntity
  8
3
 62
7
100
AcDbPoint
 10
2099.285998707422
 20
713.3865980357091
 30
0.0
  0
POINT
  5
A3
330
1F
100
AcDbEntity
  8
3
 62
7
100
AcDbPoint
 10
2123.3047822767576
 20
719.5553068369785
 30
0.0
  0
POINT
  5
A4
330
1F
100
AcDbEntity
  8
3
 62
7
100
AcDbPoint
 10
2147.544131641992
 20
724.7907880991855
 30
0.0
  0
POINT
  5
A5
330
1F
100
AcDbEntity
  8
3
 62
7
100
AcDbPoint
 10
2171.967730885156
 20
729.085183545963
 30
0.0
  0
POINT
  5
A6
330
1F
100
AcDbEntity
  8
3
 62
7
100
AcDbPoint
 10
2196.5391115003904
 20
732.4320844859044
 30
0.0
  0
POINT
  5
A7
330
1F
100
AcDbEntity
  8
3
 62
7
100
AcDbPoint
 10
2221.2214998060545
 20
734.8264555186191
 30
0.0
  0
POINT
  5
A8
330
1F
100
AcDbEntity
  8
3
 62
7
100
AcDbPoint
 10
2245.9780458265623
 20
736.264787122623
 30
0.0
  0
POINT
  5
A9
330
1F
100
AcDbEntity
  8
3
 62
7
100
AcDbPoint
 10
2319.4533876234373
 20
736.6286329478183
 30
0.0
  0
POINT
  5
AA
330
1F
100
AcDbEntity
  8
3
 62
7
100
AcDbPoint
 10
2377.094912891992
 20
737.9957060069006
 30
0.0
  0
POINT
  5
AB
330
1F
100
AcDbEntity
  8
3
 62
7
100
AcDbPoint
 10
2386.0574678236326
 20
738.4913877695958
 30
0.0
  0
POINT
  5
AC
330
1F
100
AcDbEntity
  8
3
 62
7
100
AcDbPoint
 10
2394.993319874414
 20
739.3420652598303
 30
0.0
  0
POINT
  5
AD
330
1F
100
AcDbEntity
  8
3
 62
7
100
AcDbPoint
 10
2403.888430958398
 20
740.546479627506
 30
0.0
  0
POINT
  5
AE
330
1F
100
AcDbEntity
  8
3
 62
7
100
AcDbPoint
 10
2412.728762989648
 20
742.1026853770178
 30
0.0
  0
POINT
  5
AF
330
1F
100
AcDbEntity
  8
3
 62
7
100
AcDbPoint
 10
2421.500430470117
 20
744.0082411021153
 30
0.0
  0
POINT
  5
B0
330
1F
100
AcDbEntity
  8
3
 62
7
100
AcDbPoint
 10
2430.189624195703
 20
746.2601331919592
 30
0.0
  0
POINT
  5
B1
330
1F
100
AcDbEntity
  8
3
 62
7
100
AcDbPoint
 10
2448.506656056055
 20
752.9316190928381
 30
0.0
  0
POINT
  5
B2
330
1F
100
AcDbEntity
  8
3
 62
7
100
AcDbPoint
 10
2457.702823048242
 20
758.0897001475256
 30
0.0
  0
POINT
  5
B3
330
1F
100
AcDbEntity
  8
3
 62
7
100
AcDbPoint
 10
2466.251483326563
 20
764.2618421763342
 30
0.0
  0
POINT
  5
B4
330
1F
100
AcDbEntity
  8
3
 62
7
100
AcDbPoint
 10
2474.041324024805
 20
771.3677076548498
 30
0.0
  0
POINT
  5
B5
330
1F
100
AcDbEntity
  8
3
 62
7
100
AcDbPoint
 10
2480.970950489649
 20
779.314790174381
 30
0.0
  0
POINT
  5
B6
330
1F
100
AcDbEntity
  8
3
 62
7
100
AcDbPoint
 10
2486.950030689844
 20
787.9995969981115
 30
0.0
  0
POINT
  5
B7
330
1F
100
AcDbEntity
  8
3
 62
7
100
AcDbPoint
 10
2491.9007448011716
 20
797.3090223521154
 30
0.0
  0
POINT
  5
B8
330
1F
100
AcDbEntity
  8
3
 62
7
100
AcDbPoint
 10
2497.60928705979
 20
825.2722015119249
 30
0.0
  0
POINT
  5
B9
330
1F
100
AcDbEntity
  8
3
 62
7
100
AcDbPoint
 10
2498.999972706445
 20
847.9814008921545
 30
0.0
  0
POINT
  5
BA
330
1F
100
AcDbEntity
  8
3
 62
7
100
AcDbPoint
 10
2498.973340186169
 20
861.6267383574675
 30
0.0
  0
POINT
  5
BB
330
1F
100
AcDbEntity
  8
3
 62
7
100
AcDbPoint
 10
2497.691073780664
 20
892.1624235361975
 30
0.0
  0
POINT
  5
BC
330
1F
100
AcDbEntity
  8
3
 62
7
100
AcDbPoint
 10
2497.5703004652337
 20
895.3761152476233
 30
0.0
  0
POINT
  5
BD
330
1F
100
AcDbEntity
  8
3
 62
7
100
AcDbPoint
 10
2497.280688648828
 20
898.5790113657873
 30
0.0
  0
POINT
  5
BE
330
1F
100
AcDbEntity
  8
3
 62
7
100
AcDbPoint
 10
2496.823077564844
 20
901.7622617930334
 30
0.0
  0
POINT
  5
BF
330
1F
100
AcDbEntity
  8
3
 62
7
100
AcDbPoint
 10
2496.198687916406
 20
904.917054578678
 30
0.0
  0
POINT
  5
C0
330
1F
100
AcDbEntity
  8
3
 62
7
100
AcDbPoint
 10
2495.409350758203
 20
908.03461591901
 30
0.0
  0
POINT
  5
C1
330
1F
100
AcDbEntity
  8
3
 62
7
100
AcDbPoint
 10
2494.457126026758
 20
911.1063627451819
 30
0.0
  0
POINT
  5
C2
330
1F
100
AcDbEntity
  8
3
 62
7
100
AcDbPoint
 10
2488.991885548242
 20
919.4124845713537
 30
0.0
  0
POINT
  5
C3
330
1F
100
AcDbEntity
  8
3
 62
7
100
AcDbPoint
 10
2473.5622743421877
 20
931.8861631602209
 30
0.0
  0
POINT
  5
C4
330
1F
100
AcDbEntity
  8
3
 62
7
100
AcDbPoint
 10
2460.540347462305
 20
947.6745847910803
 30
0.0
  0
POINT
  5
C5
330
1F
100
AcDbEntity
  8
3
 62
7
100
AcDbPoint
 10
2457.858310108789
 20
955.0312284678381
 30
0.0
  0
POINT
  5
C6
330
1F
100
AcDbEntity
  8
3
 62
7
100
AcDbPoint
 10
2455.846286183008
 20
962.598596021549
 30
0.0
  0
POINT
  5
C7
330
1F
100
AcDbEntity
  8
3
 62
7
100
AcDbPoint
 10
2454.520450001367
 20
970.3158048838537
 30
0.0
  0
POINT
  5
C8
330
1F
100
AcDbEntity
  8
3
 62
7
100
AcDbPoint
 10
2453.8914827162107
 20
978.1207517832678
 30
0.0
  0
POINT
  5
C9
330
1F
100
AcDbEntity
  8
3
 62
7
100
AcDbPoint
 10
2453.964343433984
 20
985.9507230967444
 30
0.0
  0
POINT
  5
CA
330
1F
100
AcDbEntity
  8
3
 62
7
100
AcDbPoint
 10
2454.73849809707
 20
993.74262373151
 30
0.0
  0
POINT
  5
CB
330
1F
100
AcDbEntity
  8
3
 62
7
100
AcDbPoint
 10
2458.787341480859
 20
1025.5256895274085
 30
0.0
  0
POINT
  5
CC
330
1F
100
AcDbEntity
  8
3
 62
7
100
AcDbPoint
 10
2458.990917447457
 20
1030.3616281357117
 30
0.0
  0
POINT
  5
CD
330
1F
100
AcDbEntity
  8
3
 62
7
100
AcDbPoint
 10
2458.207278614649
 20
1056.7344907969398
 30
0.0
  0
POINT
  5
CE
330
1F
100
AcDbEntity
  8
3
 62
7
100
AcDbPoint
 10
2456.555209522852
 20
1063.5539488047523
 30
0.0
  0
POINT
  5
CF
330
1F
100
AcDbEntity
  8
3
 62
7
100
AcDbPoint
 10
2454.000506764063
 20
1070.0889829844398
 30
0.0
  0
POINT
  5
D0
330
1F
100
AcDbEntity
  8
3
 62
7
100
AcDbPoint
 10
2450.589633350977
 20
1076.220879957096
 30
0.0
  0
POINT
  5
D1
330
1F
100
AcDbEntity
  8
3
 62
7
100
AcDbPoint
 10
2446.384692555078
 20
1081.8379453867835
 30
0.0
  0
POINT
  5
D2
330
1F
100
AcDbEntity
  8
3
 62
7
100
AcDbPoint
 10
2441.46213090957
 20
1086.8381742686195
 30
0.0
  0
POINT
  5
D3
330
1F
100
AcDbEntity
  8
3
 62
7
100
AcDbPoint
 10
2435.9114412123045
 20
1091.1304716319007
 30
0.0
  0
POINT
  5
D4
330
1F
100
AcDbEntity
  8
3
 62
7
100
AcDbPoint
 10
2303.244128590234
 20
1163.4958891123695
 30
0.0
  0
POINT
  5
D5
330
1F
100
AcDbEntity
  8
3
 62
7
100
AcDbPoint
 10
2298.192553883203
 20
1163.434014722721
 30
0.0
  0
POINT
  5
D6
330
1F
100
AcDbEntity
  8
3
 62
7
100
AcDbPoint
 10
2293.1482271009763
 20
1163.1572965830726
 30
0.0
  0
POINT
  5
D7
330
1F
100
AcDbEntity
  8
3
 62
7
100
AcDbPoint
 10
2288.1202272230466
 20
1162.6663450449867
 30
0.0
  0
POINT
  5
D8
330
1F
100
AcDbEntity
  8
3
 62
7
100
AcDbPoint
 10
2283.117633228906
 20
1161.9619230479163
 30
0.0
  0
POINT
  5
D9
330
1F
100
AcDbEntity
  8
3
 62
7
100
AcDbPoint
 10
2278.1495240980466
 20
1161.045327588932
 30
0.0
  0
POINT
  5
DA
330
1F
100
AcDbEntity
  8
3
 62
7
100
AcDbPoint
 10
2273.2249025160154
 20
1159.9183134287757
 30
0.0
  0
POINT
  5
DB
330
1F
100
AcDbEntity
  8
3
 62
7
100
AcDbPoint
 10
2256.5613893324216
 20
1152.4649290293617
 30
0.0
  0
POINT
  5
DC
330
1F
100
AcDbEntity
  8
3
 62
7
100
AcDbPoint
 10
2244.2642549330076
 20
1147.4407438486976
 30
0.0
  0
POINT
  5
DD
330
1F
100
AcDbEntity
  8
3
 62
7
100
AcDbPoint
 10
2231.5623811537107
 20
1143.5515073985023
 30
0.0
  0
POINT
  5
DE
330
1F
100
AcDbEntity
  8
3
 62
7
100
AcDbPoint
 10
2218.5603669935545
 20
1140.829263135807
 30
0.0
  0
POINT
  5
DF
330
1F
100
AcDbEntity
  8
3
 62
7
100
AcDbPoint
 10
2205.365176563867
 20
1139.2963651865882
 30
0.0
  0
POINT
  5
E0
330
1F
100
AcDbEntity
  8
3
 62
7
100
AcDbPoint
 10
2192.0852998548826
 20
1138.9655546397132
 30
0.0
  0
POINT
  5
E1
330
1F
100
AcDbEntity
  8
3
 62
7
100
AcDbPoint
 10
2178.8301423841795
 20
1139.8394254893226
 30
0.0
  0
POINT
  5
E2
330
1F
100
AcDbEntity
  8
3
 62
7
100
AcDbPoint
 10
2140.266528492578
 20
1144.9797300547523
 30
0.0
  0
POINT
  5
E3
330
1F
100
AcDbEntity
  8
3
 62
7
100
AcDbPoint
 10
2110.5359224134763
 20
1146.3546232432288
 30
0.0
  0
POINT
  5
E4
330
1F
100
AcDbEntity
  8
3
 62
7
100
AcDbPoint
 10
2106.40109575332
 20
1146.2649778574867
 30
0.0
  0
POINT
  5
E5
330
1F
100
AcDbEntity
  8
3
 62
7
100
AcDbPoint
 10
2102.2830537611326
 20
1145.8813719004554
 30
0.0
  0
POINT
  5
E6
330
1F
100
AcDbEntity
  8
3
 62
7
100
AcDbPoint
 10
2098.2027772718748
 20
1145.2056364268226
 30
0.0
  0
POINT
  5
E7
330
1F
100
AcDbEntity
  8
3
 62
7
100
AcDbPoint
 10
2094.1809419447263
 20
1144.241357252018
 30
0.0
  0
POINT
  5
E8
330
1F
100
AcDbEntity
  8
3
 62
7
100
AcDbPoint
 10
2090.2379182630857
 20
1142.993340894596
 30
0.0
  0
POINT
  5
E9
330
1F
100
AcDbEntity
  8
3
 62
7
100
AcDbPoint
 10
2086.3936952406248
 20
1141.467919752018
 30
0.0
  0
POINT
  5
EA
330
1F
100
AcDbEntity
  8
3
 62
7
100
AcDbPoint
 10
2079.2358735853513
 20
1136.0517362803382
 30
0.0
  0
POINT
  5
EB
330
1F
100
AcDbEntity
  8
3
 62
7
100
AcDbPoint
 10
2076.1789659315427
 20
1132.1090940684242
 30
0.0
  0
POINT
  5
EC
330
1F
100
AcDbEntity
  8
3
 62
7
100
AcDbPoint
 10
2073.526797657617
 20
1127.8835539072913
 30
0.0
  0
POINT
  5
ED
330
1F
100
AcDbEntity
  8
3
 62
7
100
AcDbPoint
 10
2071.305423145898
 20
1123.4164671152992
 30
0.0
  0
POINT
  5
EE
330
1F
100
AcDbEntity
  8
3
 62
7
100
AcDbPoint
 10
2069.536624317773
 20
1118.751626417057
 30
0.0
  0
POINT
  5
EF
330
1F
100
AcDbEntity
  8
3
 62
7
100
AcDbPoint
 10
2068.2376817518552
 20
1113.9348081797523
 30
0.0
  0
POINT
  5
F0
330
1F
100
AcDbEntity
  8
3
 62
7
100
AcDbPoint
 10
2067.421374683984
 20
1109.013085767643
 30
0.0
  0
POINT
  5
F1
330
1F
100
AcDbEntity
  8
3
 62
7
100
AcDbPoint
 10
2048.9769700819334
 20
955.4196409434238
 30
0.0
  0
POINT
  5
F2
330
1F
100
AcDbEntity
  8
3
 62
7
100
AcDbPoint
 10
2036.690135365137
 20
951.7284635752598
 30
0.0
  0
POINT
  5
F3
330
1F
100
AcDbEntity
  8
3
 62
7
100
AcDbPoint
 10
2029.9180177503908
 20
950.7480863779941
 30
0.0
  0
POINT
  5
F4
330
1F
100
AcDbEntity
  8
3
 62
7
100
AcDbPoint
 10
2023.4063676649416
 20
948.6455015391269
 30
0.0
  0
POINT
  5
F5
330
1F
100
AcDbEntity
  8
3
 62
7
100
AcDbPoint
 10
2017.3397401625002
 20
945.4803709238926
 30
0.0
  0
POINT
  5
F6
330
1F
100
AcDbEntity
  8
3
 62
7
100
AcDbPoint
 10
2011.890101795801
 20
941.3422636240879
 30
0.0
  0
POINT
  5
F7
330
1F
100
AcDbEntity
  8
3
 62
7
100
AcDbPoint
 10
2007.2119096571291
 20
936.3485960215488
 30
0.0
  0
POINT
  5
F8
330
1F
100
AcDbEntity
  8
3
 62
7
100
AcDbPoint
 10
2003.4378007704104
 20
930.6408170908848
 30
0.0
  0
POINT
  5
F9
330
1F
100
AcDbEntity
  8
2
 62
7
100
AcDbPoint
 10
2053.9126924330076
 20
959.914803907291
 30
0.0
  0
POINT
  5
FA
330
1F
100
AcDbEntity
  8
2
 62
7
100
AcDbPoint
 10
2043.5306886488283
 20
951.5588621348301
 30
0.0
  0
LWPOLYLINE
  5
FB
330
1F
100
AcDbEntity
  8
1
 62
7
100
AcDbPolyline
 90
95
 70
1
 10
2499.0000001000003
 20
1176.720055138998
 10
2499.0000001000003
 20
1357.010048425131
 10
2494.483530132369
 20
1366.2080570736275
 10
2492.4627915428714
 20
1368.9778266310025
 10
2487.7845994041995
 20
1373.9714942335415
 10
2482.3349610375003
 20
1378.1096015333462
 10
2476.268333535059
 20
1381.2747321485806
 10
2466.389698717686
 20
1384.0242902877528
 10
2462.9845658348636
 20
1384.3576941847134
 10
2456.1439744041995
 20
1384.1880927442837
 10
2450.6977311180667
 20
1388.0488715528775
 10
2445.76197062002
 20
1392.5440345167447
 10
2431.437019448145
 20
1546.564034020834
 10
2428.369239907129
 20
1556.045692956381
 10
2423.4957352684573
 20
1564.738319909506
 10
2417.006935219629
 20
1572.3020253538418
 10
2409.4367447899417
 20
1575.6225667356778
 10
2401.4718857811527
 20
1577.8348622679043
 10
2393.2735672997073
 20
1578.8942036985684
 10
2385.0079575584964
 20
1578.7790761350918
 10
2359.4081345604495
 20
1577.608955895834
 10
2355.1577294462
 20
1577.2183414526212
 10
2307.589363198145
 20
1571.594780480795
 10
2294.3094864891605
 20
1571.92559102767
 10
2281.114296059473
 20
1573.4584889768887
 10
2268.1122818993167
 20
1576.180733239584
 10
2255.41040812002
 20
1580.0699696897793
 10
2243.113273720606
 20
1585.0941548704434
 10
2231.3219681786136
 20
1591.2120900511075
 10
2221.525138954981
 20
1593.6745534300137
 10
2211.554435829981
 20
1595.2955708860684
 10
2201.4821091698245
 20
1596.0632405638028
 10
2191.38094339834
 20
1595.9720692991543
 10
2063.7632218407225
 20
1523.7596974729825
 10
2058.212532143457
 20
1519.4674048780728
 10
2053.28997049795
 20
1514.4671759962368
 10
2049.0850297020506
 20
1508.8501105665493
 10
2045.6741562889652
 20
1502.718213593893
 10
2043.119453530176
 20
1496.1831794142056
 10
2041.467384438379
 20
1489.363721406393
 10
2040.747932534082
 20
1482.3840437292386
 10
2040.59870696384
 20
1472.6808589871027
 10
2041.227552698147
 20
1453.3266564817507
 10
2043.466972451075
 20
1434.0630445837307
 10
2044.936164955957
 20
1426.3718519567776
 10
2045.710319619043
 20
1418.579951322012
 10
2045.7831803368172
 20
1410.7499800085354
 10
2045.1542130516611
 20
1402.9450354933072
 10
2043.82837687002
 20
1395.2278266310025
 10
2041.816352944239
 20
1387.6604590772915
 10
2039.134315590723
 20
1380.3038154005337
 10
2035.8039322899422
 20
1373.2170997022915
 10
2026.1123887108402
 20
1364.5153937696743
 10
2015.648979287012
 20
1356.7590413450528
 10
2010.6827775047861
 20
1352.0417104124356
 10
2006.329979042872
 20
1346.7530904173184
 10
2004.265312294825
 20
1340.6638417600918
 10
2002.8515854881841
 20
1334.3914876341153
 10
2002.104362587793
 20
1328.005341088705
 10
2000.674690346582
 20
1280.6106267332364
 10
2001.3293232940011
 20
1266.980967748157
 10
2003.915962319239
 20
1239.751060998373
 10
2007.773918251856
 20
1229.9382481931973
 10
2012.7246323631841
 20
1220.6288228391934
 10
2018.703712563379
 20
1211.944016015463
 10
2025.633339028223
 20
1203.9969334959317
 10
2033.4231797264652
 20
1196.891068017416
 10
2041.9718400047861
 20
1190.7189259886075
 10
2051.1680069969725
 20
1185.56084493392
 10
2060.891975502832
 20
1181.4840398191739
 10
2078.174232582911
 20
1176.6374669431973
 10
2095.7862320946288
 20
1173.175705468588
 10
2113.617195229395
 20
1171.1206136106778
 10
2131.554969887598
 20
1170.485046899252
 10
2180.22127542959
 20
1169.2578587889004
 10
2228.9029923485355
 20
1169.3740544676114
 10
2253.696617226465
 20
1168.894012963705
 10
2278.453163246973
 20
1167.4556813597012
 10
2303.135551552637
 20
1165.0613103269864
 10
2327.7069321678714
 20
1161.714409387045
 10
2352.1305314110355
 20
1157.4200139402676
 10
2376.36988077627
 20
1152.1845326780606
 10
2400.388664345606
 20
1146.015823876791
 10
2428.901924233301
 20
1137.9330907224942
 10
2438.520073037012
 20
1136.652267968588
 10
2448.2172623680667
 20
1136.3127599119473
 10
2457.901405434473
 20
1136.917809045248
 10
2462.709983925684
 20
1137.5730595945645
 10
2472.9700270386547
 20
1140.681480325549
 10
2476.1805954979495
 20
1142.2788701414395
 10
2482.1693650291995
 20
1146.1996922849942
 10
2487.44539652334
 20
1151.037148034506
 10
2491.869911293848
 20
1156.6639409422207
 10
2496.676514887282
 20
1166.25429995406
 10
2497.7242508934573
 20
1169.676598107748
  0
POINT
  5
FC
330
1F
100
AcDbEntity
  8
3
 62
7
100
AcDbPoint
 10
2496.23690042959
 20
1363.2700477003384
 30
0.0
  0
POINT
  5
FD
330
1F
100
AcDbEntity
  8
3
 62
7
100
AcDbPoint
 10
2492.4627915428714
 20
1368.9778266310025
 30
0.0
  0
POINT
  5
FE
330
1F
100
AcDbEntity
  8
3
 62
7
100
AcDbPoint
 10
2487.7845994041995
 20
1373.9714942335415
 30
0.0
  0
POINT
  5
FF
330
1F
100
AcDbEntity
  8
3
 62
7
100
AcDbPoint
 10
2482.3349610375003
 20
1378.1096015333462
 30
0.0
  0
POINT
  5
100
330
1F
100
AcDbEntity
  8
3
 62
7
100
AcDbPoint
 10
2476.268333535059
 20
1381.2747321485806
 30
0.0
  0
POINT
  5
101
330
1F
100
AcDbEntity
  8
3
 62
7
100
AcDbPoint
 10
2469.756645302637
 20
1383.3773169874478
 30
0.0
  0
POINT
  5
102
330
1F
100
AcDbEntity
  8
3
 62
7
100
AcDbPoint
 10
2462.9845658348636
 20
1384.3576941847134
 30
0.0
  0
POINT
  5
103
330
1F
100
AcDbEntity
  8
3
 62
7
100
AcDbPoint
 10
2450.6977311180667
 20
1388.0488715528775
 30
0.0
  0
POINT
  5
104
330
1F
100
AcDbEntity
  8
3
 62
7
100
AcDbPoint
 10
2432.2532883690433
 20
1541.6423116087246
 30
0.0
  0
POINT
  5
105
330
1F
100
AcDbEntity
  8
3
 62
7
100
AcDbPoint
 10
2431.437019448145
 20
1546.564034020834
 30
0.0
  0
POINT
  5
106
330
1F
100
AcDbEntity
  8
3
 62
7
100
AcDbPoint
 10
2430.138038735254
 20
1551.3808522581387
 30
0.0
  0
POINT
  5
107
330
1F
100
AcDbEntity
  8
3
 62
7
100
AcDbPoint
 10
2428.369239907129
 20
1556.045692956381
 30
0.0
  0
POINT
  5
108
330
1F
100
AcDbEntity
  8
3
 62
7
100
AcDbPoint
 10
2426.1478653954105
 20
1560.512779748373
 30
0.0
  0
POINT
  5
109
330
1F
100
AcDbEntity
  8
3
 62
7
100
AcDbPoint
 10
2423.4957352684573
 20
1564.738319909506
 30
0.0
  0
POINT
  5
10A
330
1F
100
AcDbEntity
  8
3
 62
7
100
AcDbPoint
 10
2420.438789467676
 20
1568.68096212142
 30
0.0
  0
POINT
  5
10B
330
1F
100
AcDbEntity
  8
3
 62
7
100
AcDbPoint
 10
2413.2809678124027
 20
1574.0971455930996
 30
0.0
  0
POINT
  5
10C
330
1F
100
AcDbEntity
  8
3
 62
7
100
AcDbPoint
 10
2409.4367447899417
 20
1575.6225667356778
 30
0.0
  0
POINT
  5
10D
330
1F
100
AcDbEntity
  8
3
 62
7
100
AcDbPoint
 10
2405.493721108301
 20
1576.8705830930996
 30
0.0
  0
POINT
  5
10E
330
1F
100
AcDbEntity
  8
3
 62
7
100
AcDbPoint
 10
2401.4718857811527
 20
1577.8348622679043
 30
0.0
  0
POINT
  5
10F
330
1F
100
AcDbEntity
  8
3
 62
7
100
AcDbPoint
 10
2397.391609291895
 20
1578.5105977415371
 30
0.0
  0
POINT
  5
110
330
1F
100
AcDbEntity
  8
3
 62
7
100
AcDbPoint
 10
2393.2735672997073
 20
1578.8942036985684
 30
0.0
  0
POINT
  5
111
330
1F
100
AcDbEntity
  8
3
 62
7
100
AcDbPoint
 10
2389.138740639551
 20
1578.9838490843106
 30
0.0
  0
POINT
  5
112
330
1F
100
AcDbEntity
  8
3
 62
7
100
AcDbPoint
 10
2359.4081345604495
 20
1577.608955895834
 30
0.0
  0
POINT
  5
113
330
1F
100
AcDbEntity
  8
3
 62
7
100
AcDbPoint
 10
2320.844520668848
 20
1572.4686513304043
 30
0.0
  0
POINT
  5
114
330
1F
100
AcDbEntity
  8
3
 62
7
100
AcDbPoint
 10
2307.589363198145
 20
1571.594780480795
 30
0.0
  0
POINT
  5
115
330
1F
100
AcDbEntity
  8
3
 62
7
100
AcDbPoint
 10
2294.3094864891605
 20
1571.92559102767
 30
0.0
  0
POINT
  5
116
330
1F
100
AcDbEntity
  8
3
 62
7
100
AcDbPoint
 10
2281.114296059473
 20
1573.4584889768887
 30
0.0
  0
POINT
  5
117
330
1F
100
AcDbEntity
  8
3
 62
7
100
AcDbPoint
 10
2268.1122818993167
 20
1576.180733239584
 30
0.0
  0
POINT
  5
118
330
1F
100
AcDbEntity
  8
3
 62
7
100
AcDbPoint
 10
2255.41040812002
 20
1580.0699696897793
 30
0.0
  0
POINT
  5
119
330
1F
100
AcDbEntity
  8
3
 62
7
100
AcDbPoint
 10
2243.113273720606
 20
1585.0941548704434
 30
0.0
  0
POINT
  5
11A
330
1F
100
AcDbEntity
  8
3
 62
7
100
AcDbPoint
 10
2226.449760537012
 20
1592.5475392698575
 30
0.0
  0
POINT
  5
11B
330
1F
100
AcDbEntity
  8
3
 62
7
100
AcDbPoint
 10
2221.525138954981
 20
1593.6745534300137
 30
0.0
  0
POINT
  5
11C
330
1F
100
AcDbEntity
  8
3
 62
7
100
AcDbPoint
 10
2216.5570298241214
 20
1594.591148888998
 30
0.0
  0
POINT
  5
11D
330
1F
100
AcDbEntity
  8
3
 62
7
100
AcDbPoint
 10
2211.554435829981
 20
1595.2955708860684
 30
0.0
  0
POINT
  5
11E
330
1F
100
AcDbEntity
  8
3
 62
7
100
AcDbPoint
 10
2206.526435952051
 20
1595.7865224241543
 30
0.0
  0
POINT
  5
11F
330
1F
100
AcDbEntity
  8
3
 62
7
100
AcDbPoint
 10
2201.4821091698245
 20
1596.0632405638028
 30
0.0
  0
POINT
  5
120
330
1F
100
AcDbEntity
  8
3
 62
7
100
AcDbPoint
 10
2196.4305344627933
 20
1596.1251149534512
 30
0.0
  0
POINT
  5
121
330
1F
100
AcDbEntity
  8
3
 62
7
100
AcDbPoint
 10
2063.7632218407225
 20
1523.7596974729825
 30
0.0
  0
POINT
  5
122
330
1F
100
AcDbEntity
  8
3
 62
7
100
AcDbPoint
 10
2058.212532143457
 20
1519.4674048780728
 30
0.0
  0
POINT
  5
123
330
1F
100
AcDbEntity
  8
3
 62
7
100
AcDbPoint
 10
2053.28997049795
 20
1514.4671759962368
 30
0.0
  0
POINT
  5
124
330
1F
100
AcDbEntity
  8
3
 62
7
100
AcDbPoint
 10
2049.0850297020506
 20
1508.8501105665493
 30
0.0
  0
POINT
  5
125
330
1F
100
AcDbEntity
  8
3
 62
7
100
AcDbPoint
 10
2045.6741562889652
 20
1502.718213593893
 30
0.0
  0
POINT
  5
126
330
1F
100
AcDbEntity
  8
3
 62
7
100
AcDbPoint
 10
2043.119453530176
 20
1496.1831794142056
 30
0.0
  0
POINT
  5
127
330
1F
100
AcDbEntity
  8
3
 62
7
100
AcDbPoint
 10
2041.467384438379
 20
1489.363721406393
 30
0.0
  0
POINT
  5
128
330
1F
100
AcDbEntity
  8
3
 62
7
100
AcDbPoint
 10
2040.887321572168
 20
1458.154917752676
 30
0.0
  0
POINT
  5
129
330
1F
100
AcDbEntity
  8
3
 62
7
100
AcDbPoint
 10
2041.227552698147
 20
1453.3266564817507
 30
0.0
  0
POINT
  5
12A
330
1F
100
AcDbEntity
  8
3
 62
7
100
AcDbPoint
 10
2044.936164955957
 20
1426.3718519567776
 30
0.0
  0
POINT
  5
12B
330
1F
100
AcDbEntity
  8
3
 62
7
100
AcDbPoint
 10
2045.710319619043
 20
1418.579951322012
 30
0.0
  0
POINT
  5
12C
330
1F
100
AcDbEntity
  8
3
 62
7
100
AcDbPoint
 10
2045.7831803368172
 20
1410.7499800085354
 30
0.0
  0
POINT
  5
12D
330
1F
100
AcDbEntity
  8
3
 62
7
100
AcDbPoint
 10
2045.1542130516611
 20
1402.9450354933072
 30
0.0
  0
POINT
  5
12E
330
1F
100
AcDbEntity
  8
3
 62
7
100
AcDbPoint
 10
2043.82837687002
 20
1395.2278266310025
 30
0.0
  0
POINT
  5
12F
330
1F
100
AcDbEntity
  8
3
 62
7
100
AcDbPoint
 10
2041.816352944239
 20
1387.6604590772915
 30
0.0
  0
POINT
  5
130
330
1F
100
AcDbEntity
  8
3
 62
7
100
AcDbPoint
 10
2039.134315590723
 20
1380.3038154005337
 30
0.0
  0
POINT
  5
131
330
1F
100
AcDbEntity
  8
3
 62
7
100
AcDbPoint
 10
2026.1123887108402
 20
1364.5153937696743
 30
0.0
  0
POINT
  5
132
330
1F
100
AcDbEntity
  8
3
 62
7
100
AcDbPoint
 10
2010.6827775047861
 20
1352.0417104124356
 30
0.0
  0
POINT
  5
133
330
1F
100
AcDbEntity
  8
3
 62
7
100
AcDbPoint
 10
2005.21753702627
 20
1343.7355885862637
 30
0.0
  0
POINT
  5
134
330
1F
100
AcDbEntity
  8
3
 62
7
100
AcDbPoint
 10
2004.265312294825
 20
1340.6638417600918
 30
0.0
  0
POINT
  5
135
330
1F
100
AcDbEntity
  8
3
 62
7
100
AcDbPoint
 10
2003.475975136622
 20
1337.5462804197598
 30
0.0
  0
POINT
  5
136
330
1F
100
AcDbEntity
  8
3
 62
7
100
AcDbPoint
 10
2002.8515854881841
 20
1334.3914876341153
 30
0.0
  0
POINT
  5
137
330
1F
100
AcDbEntity
  8
3
 62
7
100
AcDbPoint
 10
2002.3939744042
 20
1331.2082372068692
 30
0.0
  0
POINT
  5
138
330
1F
100
AcDbEntity
  8
3
 62
7
100
AcDbPoint
 10
2002.104362587793
 20
1328.005341088705
 30
0.0
  0
POINT
  5
139
330
1F
100
AcDbEntity
  8
3
 62
7
100
AcDbPoint
 10
2001.983589272364
 20
1324.7916493772793
 30
0.0
  0
POINT
  5
13A
330
1F
100
AcDbEntity
  8
3
 62
7
100
AcDbPoint
 10
2001.018708285306
 20
1303.359754762744
 30
0.0
  0
POINT
  5
13B
330
1F
100
AcDbEntity
  8
3
 62
7
100
AcDbPoint
 10
2000.674690346582
 20
1280.6106267332364
 30
0.0
  0
POINT
  5
13C
330
1F
100
AcDbEntity
  8
3
 62
7
100
AcDbPoint
 10
2001.3293232940011
 20
1266.980967748157
 30
0.0
  0
POINT
  5
13D
330
1F
100
AcDbEntity
  8
3
 62
7
100
AcDbPoint
 10
2007.773918251856
 20
1229.9382481931973
 30
0.0
  0
POINT
  5
13E
330
1F
100
AcDbEntity
  8
3
 62
7
100
AcDbPoint
 10
2012.7246323631841
 20
1220.6288228391934
 30
0.0
  0
POINT
  5
13F
330
1F
100
AcDbEntity
  8
3
 62
7
100
AcDbPoint
 10
2018.703712563379
 20
1211.944016015463
 30
0.0
  0
POINT
  5
140
330
1F
100
AcDbEntity
  8
3
 62
7
100
AcDbPoint
 10
2025.633339028223
 20
1203.9969334959317
 30
0.0
  0
POINT
  5
141
330
1F
100
AcDbEntity
  8
3
 62
7
100
AcDbPoint
 10
2033.4231797264652
 20
1196.891068017416
 30
0.0
  0
POINT
  5
142
330
1F
100
AcDbEntity
  8
3
 62
7
100
AcDbPoint
 10
2041.9718400047861
 20
1190.7189259886075
 30
0.0
  0
POINT
  5
143
330
1F
100
AcDbEntity
  8
3
 62
7
100
AcDbPoint
 10
2051.1680069969725
 20
1185.56084493392
 30
0.0
  0
POINT
  5
144
330
1F
100
AcDbEntity
  8
3
 62
7
100
AcDbPoint
 10
2069.485038857325
 20
1178.889359033041
 30
0.0
  0
POINT
  5
145
330
1F
100
AcDbEntity
  8
3
 62
7
100
AcDbPoint
 10
2078.174232582911
 20
1176.6374669431973
 30
0.0
  0
POINT
  5
146
330
1F
100
AcDbEntity
  8
3
 62
7
100
AcDbPoint
 10
2086.9459000633788
 20
1174.7319112180996
 30
0.0
  0
POINT
  5
147
330
1F
100
AcDbEntity
  8
3
 62
7
100
AcDbPoint
 10
2095.7862320946288
 20
1173.175705468588
 30
0.0
  0
POINT
  5
148
330
1F
100
AcDbEntity
  8
3
 62
7
100
AcDbPoint
 10
2104.681343178614
 20
1171.9712911009121
 30
0.0
  0
POINT
  5
149
330
1F
100
AcDbEntity
  8
3
 62
7
100
AcDbPoint
 10
2113.617195229395
 20
1171.1206136106778
 30
0.0
  0
POINT
  5
14A
330
1F
100
AcDbEntity
  8
3
 62
7
100
AcDbPoint
 10
2122.5797501610355
 20
1170.6249318479825
 30
0.0
  0
POINT
  5
14B
330
1F
100
AcDbEntity
  8
3
 62
7
100
AcDbPoint
 10
2180.22127542959
 20
1169.2578587889004
 30
0.0
  0
POINT
  5
14C
330
1F
100
AcDbEntity
  8
3
 62
7
100
AcDbPoint
 10
2253.696617226465
 20
1168.894012963705
 30
0.0
  0
POINT
  5
14D
330
1F
100
AcDbEntity
  8
3
 62
7
100
AcDbPoint
 10
2278.453163246973
 20
1167.4556813597012
 30
0.0
  0
POINT
  5
14E
330
1F
100
AcDbEntity
  8
3
 62
7
100
AcDbPoint
 10
2303.135551552637
 20
1165.0613103269864
 30
0.0
  0
POINT
  5
14F
330
1F
100
AcDbEntity
  8
3
 62
7
100
AcDbPoint
 10
2327.7069321678714
 20
1161.714409387045
 30
0.0
  0
POINT
  5
150
330
1F
100
AcDbEntity
  8
3
 62
7
100
AcDbPoint
 10
2352.1305314110355
 20
1157.4200139402676
 30
0.0
  0
POINT
  5
151
330
1F
100
AcDbEntity
  8
3
 62
7
100
AcDbPoint
 10
2376.36988077627
 20
1152.1845326780606
 30
0.0
  0
POINT
  5
152
330
1F
100
AcDbEntity
  8
3
 62
7
100
AcDbPoint
 10
2400.388664345606
 20
1146.015823876791
 30
0.0
  0
POINT
  5
153
330
1F
100
AcDbEntity
  8
3
 62
7
100
AcDbPoint
 10
2428.901924233301
 20
1137.9330907224942
 30
0.0
  0
POINT
  5
154
330
1F
100
AcDbEntity
  8
3
 62
7
100
AcDbPoint
 10
2433.69539652334
 20
1137.1755681394864
 30
0.0
  0
POINT
  5
155
330
1F
100
AcDbEntity
  8
3
 62
7
100
AcDbPoint
 10
2438.520073037012
 20
1136.652267968588
 30
0.0
  0
POINT
  5
156
330
1F
100
AcDbEntity
  8
3
 62
7
100
AcDbPoint
 10
2443.36450968252
 20
1136.3644490598965
 30
0.0
  0
POINT
  5
157
330
1F
100
AcDbEntity
  8
3
 62
7
100
AcDbPoint
 10
2448.2172623680667
 20
1136.3127599119473
 30
0.0
  0
POINT
  5
158
330
1F
100
AcDbEntity
  8
3
 62
7
100
AcDbPoint
 10
2453.066734413965
 20
1136.497353112631
 30
0.0
  0
POINT
  5
159
330
1F
100
AcDbEntity
  8
3
 62
7
100
AcDbPoint
 10
2457.901405434473
 20
1136.917809045248
 30
0.0
  0
POINT
  5
15A
330
1F
100
AcDbEntity
  8
3
 62
7
100
AcDbPoint
 10
2469.636787514551
 20
1139.3779073118496
 30
0.0
  0
POINT
  5
15B
330
1F
100
AcDbEntity
  8
3
 62
7
100
AcDbPoint
 10
2476.1805954979495
 20
1142.2788701414395
 30
0.0
  0
POINT
  5
15C
330
1F
100
AcDbEntity
  8
3
 62
7
100
AcDbPoint
 10
2482.1693650291995
 20
1146.1996922849942
 30
0.0
  0
POINT
  5
15D
330
1F
100
AcDbEntity
  8
3
 62
7
100
AcDbPoint
 10
2487.44539652334
 20
1151.037148034506
 30
0.0
  0
POINT
  5
15E
330
1F
100
AcDbEntity
  8
3
 62
7
100
AcDbPoint
 10
2491.869911293848
 20
1156.6639409422207
 30
0.0
  0
POINT
  5
15F
330
1F
100
AcDbEntity
  8
3
 62
7
100
AcDbPoint
 10
2495.3265229271487
 20
1162.932098901205
 30
0.0
  0
POINT
  5
160
330
1F
100
AcDbEntity
  8
3
 62
7
100
AcDbPoint
 10
2497.7242508934573
 20
1169.676598107748
 30
0.0
  0
POINT
  5
161
330
1F
100
AcDbEntity
  8
2
 62
7
100
AcDbPoint
 10
2456.1439744041995
 20
1384.1880927442837
 30
0.0
  0
POINT
  5
162
330
1F
100
AcDbEntity
  8
2
 62
7
100
AcDbPoint
 10
2445.76197062002
 20
1392.5440345167447
 30
0.0
  0
LWPOLYLINE
  5
163
330
1F
100
AcDbEntity
  8
1
 62
7
100
AcDbPolyline
 90
65
 70
1
 10
2373.4139291
 20
42.03759420648042
 10
2381.3525239181154
 20
42.29626882806245
 10
2389.0863267135255
 20
44.1062663866562
 10
2396.315235252344
 20
47.39732015862886
 10
2402.7586594771974
 20
52.04167593255464
 10
2408.166526908838
 20
57.859165556578084
 10
2412.328952903711
 20
64.62392080560151
 10
2415.0844041061036
 20
72.0734523607773
 10
2416.325935478174
 20
79.91860616937103
 10
2417.4499360274904
 20
108.55885732903901
 10
2417.0669404220216
 20
137.2186015917343
 10
2432.550930137598
 20
231.7236064745468
 10
2454.7179452132814
 20
476.8766044451279
 10
2472.024940605127
 20
553.367606289534
 10
2478.4780307355395
 20
576.0281707970978
 10
2488.6181562741126
 20
617.1641333538403
 10
2498.0140153121583
 20
666.3131927324814
 10
2499.0000001144044
 20
678.6234210802597
 10
2498.6767426681154
 20
690.9688400103134
 10
2497.047943229639
 20
703.210604078917
 10
2495.601371879541
 20
708.7018607927841
 10
2493.2274857711427
 20
713.8604568316025
 10
2489.9977723312013
 20
718.5311340166611
 10
2486.0093918990724
 20
722.5733207537216
 10
2481.382392997705
 20
725.8653377367539
 10
2476.256069297754
 20
728.3081077410263
 10
2470.7846871566408
 20
729.8281215502304
 10
2465.1329270553224
 20
730.3796027971787
 10
2188.8986639127443
 20
730.3800834180988
 10
2179.7677237101775
 20
728.5744626771249
 10
2171.020189918581
 20
725.4227813360521
 10
2162.8551575345837
 20
720.9647942617046
 10
2155.4740297930903
 20
715.3104695491
 10
2149.017905390302
 20
708.6057836443005
 10
2146.2200943183534
 20
704.8909591509383
 10
2141.484936828577
 20
696.8856071306747
 10
2124.3385544967286
 20
672.7277587725204
 10
2106.588935012781
 20
649.0096067263167
 10
2076.4422360610597
 20
620.5406974627059
 10
2047.0399323653814
 20
591.3036071135085
 10
2040.6513444137213
 20
578.8683407379668
 10
2035.023826713526
 20
566.0706435514968
 10
2030.1778451156256
 20
552.9570435358565
 10
2026.1310235213873
 20
539.5752190424483
 10
2022.8980675887701
 20
525.9738229586166
 10
2020.4907456588385
 20
512.2023032976668
 10
2018.9177933883307
 20
498.31073034539645
 10
2017.8622735160186
 20
479.38863936973684
 10
2013.1122076208187
 20
400.0120830796511
 10
2011.1291295327735
 20
350.39912726811724
 10
2010.4967168373983
 20
305.7444181779389
 10
2011.0380466235936
 20
266.0484251380785
 10
2012.8672348452103
 20
216.42538433238414
 10
2017.2659341048834
 20
137.02462423577725
 10
2018.8321660726485
 20
119.3352187971373
 10
2020.6952038955328
 20
106.19183767571865
 10
2022.4855351799854
 20
97.52809820712338
 10
2029.3759099197027
 20
72.504055388121
 10
2032.2924367141363
 20
65.54707754388262
 10
2035.9651890945074
 20
58.95795095696868
 10
2040.3485051345465
 20
52.818577177671806
 10
2042.789939994776
 20
49.94160879388274
 10
2046.0953370284674
 20
48.3944057299179
 10
2052.212118263208
 20
44.42567098870696
 10
2054.97193729397
 20
42.0375942064804
  0
CIRCLE
  5
164
330
1F
100
AcDbEntity
  8
11
 62
7
100
AcDbCircle
 10
2353.924926872217
 20
111.76160085931244
 30
0.0
 40
14.50000047683716
  0
CIRCLE
  5
165
330
1F
100
AcDbEntity
  8
11
 62
7
100
AcDbCircle
 10
2101.9529381942384
 20
111.37459982171475
 30
0.0
 40
14.50000047683716
  0
POINT
  5
166
330
1F
100
AcDbEntity
  8
3
 62
7
100
AcDbPoint
 10
2381.3525239181154
 20
42.29626882806245
 30
0.0
  0
POINT
  5
167
330
1F
100
AcDbEntity
  8
3
 62
7
100
AcDbPoint
 10
2389.0863267135255
 20
44.1062663866562
 30
0.0
  0
POINT
  5
168
330
1F
100
AcDbEntity
  8
3
 62
7
100
AcDbPoint
 10
2396.315235252344
 20
47.39732015862886
 30
0.0
  0
POINT
  5
169
330
1F
100
AcDbEntity
  8
3
 62
7
100
AcDbPoint
 10
2402.7586594771974
 20
52.04167593255464
 30
0.0
  0
POINT
  5
16A
330
1F
100
AcDbEntity
  8
3
 62
7
100
AcDbPoint
 10
2408.166526908838
 20
57.859165556578084
 30
0.0
  0
POINT
  5
16B
330
1F
100
AcDbEntity
  8
3
 62
7
100
AcDbPoint
 10
2412.328952903711
 20
64.62392080560151
 30
0.0
  0
POINT
  5
16C
330
1F
100
AcDbEntity
  8
3
 62
7
100
AcDbPoint
 10
2415.0844041061036
 20
72.0734523607773
 30
0.0
  0
POINT
  5
16D
330
1F
100
AcDbEntity
  8
3
 62
7
100
AcDbPoint
 10
2417.4499360274904
 20
108.55885732903901
 30
0.0
  0
POINT
  5
16E
330
1F
100
AcDbEntity
  8
3
 62
7
100
AcDbPoint
 10
2425.045189018213
 20
184.43238485589436
 30
0.0
  0
POINT
  5
16F
330
1F
100
AcDbEntity
  8
3
 62
7
100
AcDbPoint
 10
2463.302597160303
 20
515.1376842333359
 30
0.0
  0
POINT
  5
170
330
1F
100
AcDbEntity
  8
3
 62
7
100
AcDbPoint
 10
2477.2101117391353
 20
571.490720275131
 30
0.0
  0
POINT
  5
171
330
1F
100
AcDbEntity
  8
3
 62
7
100
AcDbPoint
 10
2485.555900688135
 20
603.377418406157
 30
0.0
  0
POINT
  5
172
330
1F
100
AcDbEntity
  8
3
 62
7
100
AcDbPoint
 10
2488.6181562741126
 20
617.1641333538403
 30
0.0
  0
POINT
  5
173
330
1F
100
AcDbEntity
  8
3
 62
7
100
AcDbPoint
 10
2497.0329896163576
 20
660.2145980669541
 30
0.0
  0
POINT
  5
174
330
1F
100
AcDbEntity
  8
3
 62
7
100
AcDbPoint
 10
2498.0140153121583
 20
666.3131927324814
 30
0.0
  0
POINT
  5
175
330
1F
100
AcDbEntity
  8
3
 62
7
100
AcDbPoint
 10
2498.6702958297365
 20
672.4552272631211
 30
0.0
  0
POINT
  5
176
330
1F
100
AcDbEntity
  8
3
 62
7
100
AcDbPoint
 10
2499.0000001144044
 20
678.6234210802597
 30
0.0
  0
POINT
  5
177
330
1F
100
AcDbEntity
  8
3
 62
7
100
AcDbPoint
 10
2499.002136344873
 20
684.8004173113388
 30
0.0
  0
POINT
  5
178
330
1F
100
AcDbEntity
  8
3
 62
7
100
AcDbPoint
 10
2498.6767426681154
 20
690.9688400103134
 30
0.0
  0
POINT
  5
179
330
1F
100
AcDbEntity
  8
3
 62
7
100
AcDbPoint
 10
2498.0247346114747
 20
697.111332304625
 30
0.0
  0
POINT
  5
17A
330
1F
100
AcDbEntity
  8
3
 62
7
100
AcDbPoint
 10
2495.601371879541
 20
708.7018607927841
 30
0.0
  0
POINT
  5
17B
330
1F
100
AcDbEntity
  8
3
 62
7
100
AcDbPoint
 10
2493.2274857711427
 20
713.8604568316025
 30
0.0
  0
POINT
  5
17C
330
1F
100
AcDbEntity
  8
3
 62
7
100
AcDbPoint
 10
2489.9977723312013
 20
718.5311340166611
 30
0.0
  0
POINT
  5
17D
330
1F
100
AcDbEntity
  8
3
 62
7
100
AcDbPoint
 10
2486.0093918990724
 20
722.5733207537216
 30
0.0
  0
POINT
  5
17E
330
1F
100
AcDbEntity
  8
3
 62
7
100
AcDbPoint
 10
2481.382392997705
 20
725.8653377367539
 30
0.0
  0
POINT
  5
17F
330
1F
100
AcDbEntity
  8
3
 62
7
100
AcDbPoint
 10
2476.256069297754
 20
728.3081077410263
 30
0.0
  0
POINT
  5
180
330
1F
100
AcDbEntity
  8
3
 62
7
100
AcDbPoint
 10
2470.7846871566408
 20
729.8281215502304
 30
0.0
  0
POINT
  5
181
330
1F
100
AcDbEntity
  8
3
 62
7
100
AcDbPoint
 10
2193.536411876642
 20
730.7249664141219
 30
0.0
  0
POINT
  5
182
330
1F
100
AcDbEntity
  8
3
 62
7
100
AcDbPoint
 10
2184.2982605647676
 20
729.6460841967147
 30
0.0
  0
POINT
  5
183
330
1F
100
AcDbEntity
  8
3
 62
7
100
AcDbPoint
 10
2175.3334391665094
 20
727.168304808287
 30
0.0
  0
POINT
  5
184
330
1F
100
AcDbEntity
  8
3
 62
7
100
AcDbPoint
 10
2166.8524864863984
 20
723.3498119188827
 30
0.0
  0
POINT
  5
185
330
1F
100
AcDbEntity
  8
3
 62
7
100
AcDbPoint
 10
2159.0545788955324
 20
718.2802890612166
 30
0.0
  0
POINT
  5
186
330
1F
100
AcDbEntity
  8
3
 62
7
100
AcDbPoint
 10
2152.122850770914
 20
712.0787929369491
 30
0.0
  0
POINT
  5
187
330
1F
100
AcDbEntity
  8
3
 62
7
100
AcDbPoint
 10
2146.2200943183534
 20
704.8909591509383
 30
0.0
  0
POINT
  5
188
330
1F
100
AcDbEntity
  8
3
 62
7
100
AcDbPoint
 10
2124.3385544967286
 20
672.7277587725204
 30
0.0
  0
POINT
  5
189
330
1F
100
AcDbEntity
  8
3
 62
7
100
AcDbPoint
 10
2076.4422360610597
 20
620.5406974627059
 30
0.0
  0
POINT
  5
18A
330
1F
100
AcDbEntity
  8
3
 62
7
100
AcDbPoint
 10
2040.6513444137213
 20
578.8683407379668
 30
0.0
  0
POINT
  5
18B
330
1F
100
AcDbEntity
  8
3
 62
7
100
AcDbPoint
 10
2035.023826713526
 20
566.0706435514968
 30
0.0
  0
POINT
  5
18C
330
1F
100
AcDbEntity
  8
3
 62
7
100
AcDbPoint
 10
2030.1778451156256
 20
552.9570435358565
 30
0.0
  0
POINT
  5
18D
330
1F
100
AcDbEntity
  8
3
 62
7
100
AcDbPoint
 10
2026.1310235213873
 20
539.5752190424483
 30
0.0
  0
POINT
  5
18E
330
1F
100
AcDbEntity
  8
3
 62
7
100
AcDbPoint
 10
2022.8980675887701
 20
525.9738229586166
 30
0.0
  0
POINT
  5
18F
330
1F
100
AcDbEntity
  8
3
 62
7
100
AcDbPoint
 10
2020.4907456588385
 20
512.2023032976668
 30
0.0
  0
POINT
  5
190
330
1F
100
AcDbEntity
  8
3
 62
7
100
AcDbPoint
 10
2018.9177933883307
 20
498.31073034539645
 30
0.0
  0
POINT
  5
191
330
1F
100
AcDbEntity
  8
3
 62
7
100
AcDbPoint
 10
2013.8977022458803
 20
414.8954655846001
 30
0.0
  0
POINT
  5
192
330
1F
100
AcDbEntity
  8
3
 62
7
100
AcDbPoint
 10
2011.4327342735887
 20
360.3219645309175
 30
0.0
  0
POINT
  5
193
330
1F
100
AcDbEntity
  8
3
 62
7
100
AcDbPoint
 10
2010.5010834884283
 20
310.70622671380465
 30
0.0
  0
POINT
  5
194
330
1F
100
AcDbEntity
  8
3
 62
7
100
AcDbPoint
 10
2010.9190727740602
 20
271.0105600245723
 30
0.0
  0
POINT
  5
195
330
1F
100
AcDbEntity
  8
3
 62
7
100
AcDbPoint
 10
2012.6395798169015
 20
221.3878067819313
 30
0.0
  0
POINT
  5
196
330
1F
100
AcDbEntity
  8
3
 62
7
100
AcDbPoint
 10
2017.9775317669933
 20
128.16707237800932
 30
0.0
  0
POINT
  5
197
330
1F
100
AcDbEntity
  8
3
 62
7
100
AcDbPoint
 10
2020.6952038955328
 20
106.19183767571865
 30
0.0
  0
POINT
  5
198
330
1F
100
AcDbEntity
  8
3
 62
7
100
AcDbPoint
 10
2022.4855351799854
 20
97.52809820712338
 30
0.0
  0
POINT
  5
199
330
1F
100
AcDbEntity
  8
3
 62
7
100
AcDbPoint
 10
2029.3759099197027
 20
72.504055388121
 30
0.0
  0
POINT
  5
19A
330
1F
100
AcDbEntity
  8
3
 62
7
100
AcDbPoint
 10
2030.7371560287115
 20
68.98488271966399
 30
0.0
  0
POINT
  5
19B
330
1F
100
AcDbEntity
  8
3
 62
7
100
AcDbPoint
 10
2032.2924367141363
 20
65.54707754388262
 30
0.0
  0
POINT
  5
19C
330
1F
100
AcDbEntity
  8
3
 62
7
100
AcDbPoint
 10
2034.0369263839361
 20
62.20128286614837
 30
0.0
  0
POINT
  5
19D
330
1F
100
AcDbEntity
  8
3
 62
7
100
AcDbPoint
 10
2035.9651890945074
 20
58.95795095696868
 30
0.0
  0
POINT
  5
19E
330
1F
100
AcDbEntity
  8
3
 62
7
100
AcDbPoint
 10
2038.0712262344
 20
55.827114470152274
 30
0.0
  0
POINT
  5
19F
330
1F
100
AcDbEntity
  8
3
 62
7
100
AcDbPoint
 10
2040.3485051345465
 20
52.818577177671806
 30
0.0
  0
POINT
  5
1A0
330
1F
100
AcDbEntity
  8
3
 62
7
100
AcDbPoint
 10
2044.4604054641363
 20
49.20594442620696
 30
0.0
  0
POINT
  5
1A1
330
1F
100
AcDbEntity
  8
3
 62
7
100
AcDbPoint
 10
2046.0953370284674
 20
48.3944057299179
 30
0.0
  0
POINT
  5
1A2
330
1F
100
AcDbEntity
  8
3
 62
7
100
AcDbPoint
 10
2049.2449132156007
 20
46.550571806578056
 30
0.0
  0
POINT
  5
1A3
330
1F
100
AcDbEntity
  8
3
 62
7
100
AcDbPoint
 10
2052.212118263208
 20
44.42567098870696
 30
0.0
  0
POINT
  5
1A4
330
1F
100
AcDbEntity
  8
3
 62
7
100
AcDbPoint
 10
2053.6194459151857
 20
43.263332731871024
 30
0.0
  0
POINT
  5
1A5
330
1F
100
AcDbEntity
  8
2
 62
7
100
AcDbPoint
 10
2054.97193729397
 20
42.0375942064804
 30
0.0
  0
LWPOLYLINE
  5
1D2
330
1F
100
AcDbEntity
  8
0
 62
7
100
AcDbPolyline
 90
62
 70
1
 10
1943.9342406952157
 20
504.15100936358107
 10
1880.4668658836224
 20
50.98063183675943
 10
1881.5946086272866
 20
45.31368846529979
 10
1884.0942181844405
 20
40.2949163101887
 10
1888.2605275233093
 20
35.41615351159654
 10
1892.3500863367353
 20
32.60233054982367
 10
1896.8371587187214
 20
30.666544078165504
 10
1902.2088956553187
 20
29.16706218137525
 10
2078.5606369818793
 20
6.23570867107689
 10
2111.5267715915634
 20
3.908978405847492
 10
2171.0993402047698
 20
1.000508294048921
 10
2194.211277009466
 20
1.9629359478600428
 10
2225.0449370112556
 20
4.576456472392068
 10
2275.219238397529
 20
8.656857093735544
 10
2325.553660663003
 20
13.152960642054847
 10
2335.78003132817
 20
13.709297955839657
 10
2351.580048907236
 20
12.918273942190083
 10
2358.7648139751072
 20
12.237385094713277
 10
2403.0540587413852
 20
5.764180184735005
 10
2417.3616614247603
 20
2.549784346562513
 10
2427.164735210532
 20
1.0420565959287524
 10
2433.2201923863477
 20
1.0005102602037512
 10
2437.76190521972
 20
2.381120970048724
 10
2442.857272260746
 20
6.016507167583511
 10
2446.6786995414122
 20
11.370980221452184
 10
2447.67311125819
 20
13.933419935471106
 10
2487.4294295909094
 20
287.42313392091245
 10
2487.109369730676
 20
292.8498415151119
 10
2485.418110875396
 20
297.10695648967373
 10
2483.2815748513603
 20
299.99992849696963
 10
2480.54850740114
 20
302.7170985690963
 10
2477.7530403232972
 20
304.5352236919278
 10
2473.515221219575
 20
306.036668096567
 10
2456.1980718418163
 20
309.4276083785376
 10
2447.3520804588657
 20
312.68987085431246
 10
2445.4291521488567
 20
314.7488807254935
 10
2443.1324756450485
 20
319.0389323407875
 10
2442.3101920110103
 20
323.51149374421
 10
2442.407321473142
 20
335.0916070691535
 10
2442.1726382847773
 20
339.40404401854863
 10
2441.211380574495
 20
342.8845412351007
 10
2437.365707931765
 20
349.18122014518354
 10
2433.5731659967983
 20
352.0468075170886
 10
2425.005030777692
 20
356.2038687827435
 10
2413.0072758436895
 20
359.2851672569805
 10
2339.4574636130724
 20
373.36330217420226
 10
2289.7156749130945
 20
379.7421417716519
 10
2264.004678371224
 20
385.38648536202464
 10
2240.6294250388587
 20
391.4027326729868
 10
2210.855201299129
 20
402.3502607421436
 10
2182.0338923918266
 20
416.7139402217354
 10
2150.310738352029
 20
435.19511142682967
 10
2083.830342940296
 20
484.3608361679345
 10
2045.4171832088712
 20
509.26498774281794
 10
2039.9010070796985
 20
511.65119834118997
 10
2023.595938759964
 20
516.0328206758271
 10
1972.154691771447
 20
523.5617017137172
 10
1965.782317864898
 20
523.7238356064895
 10
1958.5820574121278
 20
521.7072295626641
 10
1952.9048174482177
 20
518.8049895735534
 10
1949.1044664085337
 20
515.1916363313051
 10
1945.6424536975642
 20
510.07428142789144
  0
LWPOLYLINE
  5
1D3
330
1F
100
AcDbEntity
  8
0
 62
7
100
AcDbPolyline
 90
22
 70
1
 10
1987.6481599428141
 20
454.0959545516355
 10
1991.1643509517412
 20
454.1698496542524
 10
1994.4918108991526
 20
455.3483323904037
 10
1996.9916014564799
 20
457.1970021952439
 10
1999.1259752031337
 20
460.05731700054014
 10
2000.2048159519434
 20
463.0041903317533
 10
2000.427752856476
 20
466.5827666893036
 10
1999.722686487864
 20
469.63482456493796
 10
1997.9586358265904
 20
472.726288336331
 10
1995.706971689112
 20
474.8554215195575
 10
1992.5497665888354
 20
476.41721269307476
 10
1989.5098946617209
 20
476.9053048782316
 10
1986.024414852409
 20
476.41035450028704
 10
1983.2215432771472
 20
475.0924437476358
 10
1980.583087450926
 20
472.7084198699515
 10
1978.96225669808
 20
470.02937817503107
 10
1978.0592427718263
 20
466.56012773922265
 10
1978.1660899270305
 20
463.4231268723769
 10
1979.3027715223056
 20
460.0370843356843
 10
1981.1012356318738
 20
457.49875031236917
 10
1983.8954461636363
 20
455.33712541115744
 10
1986.7794287949537
 20
454.2536167698957
  0
LWPOLYLINE
  5
1D4
330
1F
100
AcDbEntity
  8
0
 62
7
100
AcDbPolyline
 90
22
 70
1
 10
1933.3285535519578
 20
73.34077469831273
 10
1936.844744560885
 20
73.41466980092862
 10
1940.1722045082963
 20
74.59315253708066
 10
1942.6719950656236
 20
76.44182234192063
 10
1944.8063688122777
 20
79.30213714721704
 10
1945.885209561087
 20
82.24901047843026
 10
1946.1081464656197
 20
85.82758683598071
 10
1945.4030800970077
 20
88.87964471161514
 10
1943.6390294357338
 20
91.9711084830076
 10
1941.3873652982554
 20
94.10024166623414
 10
1938.230160197979
 20
95.66203283975138
 10
1935.1902882708646
 20
96.15012502490784
 10
1931.7048084615528
 20
95.65517464696394
 10
1928.901936886291
 20
94.33726389431253
 10
1926.26348106007
 20
91.9532400166283
 10
1924.6426503072237
 20
89.27419832170797
 10
1923.73963638097
 20
85.80494788589887
 10
1923.8464835361742
 20
82.66794701905344
 10
1924.9831651314494
 20
79.28190448236133
 10
1926.7816292410173
 20
76.74357045904533
 10
1929.57583977278
 20
74.58194555783406
 10
1932.4598224040974
 20
73.49843691657209
  0
LWPOLYLINE
  5
1D5
330
1F
100
AcDbEntity
  8
0
 62
7
100
AcDbPolyline
 90
65
 70
1
 10
2356.8309126631866
 20
1594.9843184655579
 10
1931.1637153283593
 20
1595.621134941706
 10
1925.9973287829334
 20
1593.970732742831
 10
1920.9820126525535
 20
1590.885189572281
 10
1914.7304067277337
 20
1586.216418423223
 10
1912.2586324476954
 20
1583.4275437313127
 10
1909.7062742082646
 20
1578.9774700132864
 10
1906.9964336332457
 20
1572.9418783436429
 10
1900.4460701348785
 20
1550.0832554522194
 10
1897.7580296733342
 20
1538.344588632646
 10
1896.4015440370765
 20
1526.6030965840482
 10
1896.43760800612
 20
1519.1975406171193
 10
1898.090108333542
 20
1506.6750145643143
 10
1904.8136988788592
 20
1470.042163948594
 10
1909.3339649555057
 20
1440.1747620458648
 10
1912.0387355103705
 20
1363.9574681207584
 10
1915.457835308985
 20
1246.4501848031057
 10
1922.250945470652
 20
1186.8216877785035
 10
1925.982384262282
 20
1160.393811096396
 10
1933.1548826106255
 20
1116.696174561918
 10
1934.2465585104762
 20
1106.8398495164279
 10
1934.2163106683133
 20
1092.590076185382
 10
1933.0997152481846
 20
1082.3407681011347
 10
1929.4559091397646
 20
1064.6775721290749
 10
1923.1203180832927
 20
1044.3612949899268
 10
1915.6871797038289
 20
1025.4507000225267
 10
1910.9289291459572
 20
1015.0811958778445
 10
1895.8366893433124
 20
986.868032418513
 10
1889.1262100642064
 20
972.6755321435725
 10
1885.690393853347
 20
964.6351995090808
 10
1884.106107624659
 20
958.8388732387791
 10
1882.4235815276522
 20
950.324149347013
 10
1880.459676824126
 20
840.0315823611445
 10
1881.3880789084042
 20
835.2126741977889
 10
1886.1220652946226
 20
826.7699161000104
 10
1888.5574142333408
 20
824.4992425224438
 10
1891.4431999722074
 20
822.6681277340232
 10
1894.9082539565306
 20
821.4650891287598
 10
2255.553568913209
 20
817.3022006152764
 10
2259.151727684604
 20
818.3014528544041
 10
2263.652098421022
 20
820.8091268688157
 10
2270.5995720070305
 20
826.5840005448059
 10
2288.42604358464
 20
844.9219147566762
 10
2304.974961736172
 20
865.2284949555676
 10
2308.225231309147
 20
871.7462461690143
 10
2310.27628745493
 20
879.6258466412451
 10
2310.9397294556525
 20
887.2365308484258
 10
2311.506612047181
 20
1072.6694572898598
 10
2314.1430303962857
 20
1114.1891148813504
 10
2315.7347055163577
 20
1132.379195307459
 10
2324.8611871220505
 20
1177.6382778829352
 10
2333.1659722916806
 20
1214.4588463250113
 10
2352.839133406441
 20
1268.7230632578555
 10
2361.7076197126794
 20
1291.441343902614
 10
2372.5154855046644
 20
1324.490554070776
 10
2378.125920331276
 20
1347.9673902493862
 10
2383.6858779651843
 20
1388.8817113131474
 10
2385.3395351614645
 20
1404.0544746291976
 10
2386.08007200472
 20
1427.7295577020245
 10
2386.0032606816712
 20
1572.3579764099607
 10
2384.07333495209
 20
1577.9805219335142
 10
2376.5102950283176
 20
1587.1492124345782
 10
2371.9871939286713
 20
1590.874240277944
 10
2366.814308211877
 20
1593.4225840380554
 10
2363.487150463047
 20
1594.2452280321793
  0
LWPOLYLINE
  5
1D6
330
1F
100
AcDbEntity
  8
0
 62
7
100
AcDbPolyline
 90
22
 70
1
 10
2317.061016676341
 20
1543.8444840629088
 10
2317.614631357023
 20
1540.3713629186373
 10
2319.236689138298
 20
1537.2361213306192
 10
2321.409565818416
 20
1535.012354299019
 10
2324.5346742102975
 20
1533.288797042995
 10
2327.601313329025
 20
1532.6227007233856
 10
2331.176790558589
 20
1532.890790617062
 10
2334.103894958357
 20
1534.0062437506474
 10
2336.9253480906946
 20
1536.1761343486728
 10
2338.726873065866
 20
1538.6975837857537
 10
2339.842653508815
 20
1542.0385671317194
 10
2339.9108348335094
 20
1545.1166195389135
 10
2338.944309425071
 20
1548.5017892558687
 10
2337.255804954713
 20
1551.098312021597
 10
2334.5336489219844
 20
1553.3862992439756
 10
2331.6582784235097
 20
1554.6258964483109
 10
2328.0981838665443
 20
1555.0464430959403
 10
2325.0051991403466
 20
1554.5119936252952
 10
2321.806213096391
 20
1552.9233409257088
 10
2319.537404508701
 20
1550.794932985546
 10
2317.777819910675
 20
1547.7315856739042
 10
2317.0985067991496
 20
1544.7266097189358
  0
LWPOLYLINE
  5
1D7
330
1F
100
AcDbEntity
  8
0
 62
7
100
AcDbPolyline
 90
22
 70
1
 10
1941.2615973577206
 20
1545.6514661159022
 10
1941.8152120384027
 20
1542.1783449716308
 10
1943.4372698196778
 20
1539.0431033836128
 10
1945.6101464997953
 20
1536.8193363520124
 10
1948.7352548916767
 20
1535.0957790959883
 10
1951.8018940104043
 20
1534.4296827763792
 10
1955.3773712399682
 20
1534.6977726700554
 10
1958.3044756397367
 20
1535.8132258036408
 10
1961.125928772074
 20
1537.9831164016662
 10
1962.9274537472459
 20
1540.504565838747
 10
1964.0432341901944
 20
1543.8455491847128
 10
1964.1114155148887
 20
1546.923601591907
 10
1963.1448901064505
 20
1550.308771308862
 10
1961.4563856360921
 20
1552.9052940745903
 10
1958.734229603364
 20
1555.1932812969692
 10
1955.8588591048892
 20
1556.4328785013045
 10
1952.298764547924
 20
1556.8534251489339
 10
1949.2057798217263
 20
1556.3189756782888
 10
1946.0067937777703
 20
1554.7303229787021
 10
1943.7379851900807
 20
1552.6019150385393
 10
1941.9784005920544
 20
1549.538567726898
 10
1941.2990874805294
 20
1546.5335917719292
  0
LWPOLYLINE
  5
1D8
330
1F
100
AcDbEntity
  8
0
 62
7
100
AcDbPolyline
 90
60
 70
1
 10
2050.129476820087
 20
1596.4532413635816
 10
2448.0333131478715
 20
1595.8448770838054
 10
2460.7183408171672
 20
1597.3438519568067
 10
2471.478551422758
 20
1599.7901019309004
 10
2479.5120758857565
 20
1603.656985549878
 10
2485.468818380757
 20
1609.1839569708145
 10
2492.476832955494
 20
1618.4338394137067
 10
2495.5043555388575
 20
1623.903588134361
 10
2497.503141217324
 20
1628.6199421170627
 10
2498.603678930579
 20
1633.7783565653833
 10
2499.0000000253494
 20
1805.0390986947828
 10
2498.3137641468766
 20
1809.2692191976314
 10
2497.1636226745
 20
1812.593936537092
 10
2494.7819887408123
 20
1816.7514593783849
 10
2491.7059246217436
 20
1820.3815600399114
 10
2488.9360105349597
 20
1822.8028675572398
 10
2485.625262186528
 20
1824.394420948537
 10
2480.6957830431697
 20
1825.6866962658178
 10
2453.220228507526
 20
1825.8168782853352
 10
2445.7303172207853
 20
1826.8786221991973
 10
2442.565981519124
 20
1827.9329158185976
 10
2433.299629917678
 20
1833.236796090651
 10
2427.5542110305487
 20
1837.3983638881061
 10
2420.8778233187463
 20
1844.751768394832
 10
2417.189428575193
 20
1852.231132799761
 10
2415.774477889128
 20
1859.225860210226
 10
2415.88441681371
 20
1976.3127561200981
 10
2415.0740807045336
 20
1979.5721251309974
 10
2410.6525716010556
 20
1989.4573308828105
 10
2407.0540765411733
 20
1993.9945323080035
 10
2403.729399225438
 20
1996.44700120543
 10
2400.1254425722805
 20
1997.8125100031345
 10
2394.6717882986654
 20
1998.9999644995444
 10
2104.082534601175
 20
1998.999999546363
 10
2097.8079505691367
 20
1996.9117031919768
 10
2092.5115280142677
 20
1993.3801686885263
 10
2088.8660665965044
 20
1989.4664354314875
 10
2086.2504665697747
 20
1984.15995566737
 10
2085.4721787708595
 20
1981.7839988006078
 10
2085.052915434854
 20
1978.0923218978594
 10
2081.603100170441
 20
1874.3478090959345
 10
2078.1497426295327
 20
1855.7766391187222
 10
2076.2933347578514
 20
1851.7019323420532
 10
2071.9335479903025
 20
1843.7348745559102
 10
2068.504851399282
 20
1839.4816356737888
 10
2044.2466617807906
 20
1815.6076270846
 10
2016.4654696217503
 20
1787.2109811816686
 10
2002.3083296967848
 20
1771.068741204415
 10
1999.1523582739383
 20
1764.0964297715989
 10
1998.0372648972798
 20
1760.92664835416
 10
1997.7512727612373
 20
1755.943035783451
 10
1996.239391610786
 20
1636.0962038504827
 10
1996.8142150498563
 20
1633.2545966986152
 10
1998.2336067248577
 20
1628.8382684934168
 10
2000.5630392455275
 20
1624.7528304610203
 10
2008.109892334918
 20
1615.1862907480565
 10
2015.5444464223613
 20
1607.8752820943573
 10
2019.953637567362
 20
1604.6337528515103
 10
2027.6610978388685
 20
1600.425103963559
 10
2041.1227071578965
 20
1597.1242812913285
  0
LWPOLYLINE
  5
1D9
330
1F
100
AcDbEntity
  8
0
 62
7
100
AcDbPolyline
 90
22
 70
1
 10
2449.0705102167612
 20
1647.7126585201333
 10
2448.5155052704413
 20
1651.1855577710492
 10
2446.8921925642276
 20
1654.3201497889804
 10
2444.7184258717134
 20
1656.5430468276097
 10
2441.592627780526
 20
1658.2653529470126
 10
2438.5257222653886
 20
1658.9302216203068
 10
2434.9503526401977
 20
1658.6607004643975
 10
2432.023694997141
 20
1657.5440756837743
 10
2429.203110710316
 20
1655.373055815994
 10
2427.4025952299266
 20
1652.8508854203228
 10
2426.2881522908647
 20
1649.5094556888362
 10
2426.2212031333825
 20
1646.4313762348938
 10
2427.189083566923
 20
1643.0465936947417
 10
2428.878627304711
 20
1640.4507470549215
 10
2431.6016990135317
 20
1638.1638497102838
 10
2434.4775654993805
 20
1636.9254036323057
 10
2438.0378281183
 20
1636.506282144314
 10
2441.1305986535413
 20
1637.041969711379
 10
2444.3289484945462
 20
1638.6319028558455
 10
2446.5969048867437
 20
1640.7612188423573
 10
2448.355263068571
 20
1643.825270280201
 10
2449.0333732168347
 20
1646.8305179272763
  0
LWPOLYLINE
  5
1DA
330
1F
100
AcDbEntity
  8
0
 62
7
100
AcDbPolyline
 90
22
 70
1
 10
2057.073807533538
 20
1647.9711120424925
 10
2056.518802587218
 20
1651.4440112934083
 10
2054.895489881005
 20
1654.5786033113395
 10
2052.7217231884906
 20
1656.8015003499688
 10
2049.5959250973033
 20
1658.5238064693717
 10
2046.5290195821663
 20
1659.188675142666
 10
2042.9536499569754
 20
1658.9191539867566
 10
2040.0269923139176
 20
1657.8025292061334
 10
2037.2064080270939
 20
1655.631509338353
 10
2035.4058925467039
 20
1653.109338942682
 10
2034.2914496076423
 20
1649.7679092111953
 10
2034.2245004501603
 20
1646.689829757253
 10
2035.1923808837003
 20
1643.3050472171008
 10
2036.881924621488
 20
1640.7092005772806
 10
2039.6049963303085
 20
1638.422303232643
 10
2042.4808628161584
 20
1637.1838571546648
 10
2046.041125435077
 20
1636.764735666673
 10
2049.1338959703185
 20
1637.3004232337378
 10
2052.332245811323
 20
1638.8903563782046
 10
2054.6002022035204
 20
1641.0196723647164
 10
2056.3585603853476
 20
1644.0837238025601
 10
2057.0366705336114
 20
1647.0889714496354
  0
LWPOLYLINE
  5
1DB
330
1F
100
AcDbEntity
  8
0
 62
7
100
AcDbPolyline
 90
56
 70
1
 10
2499.000000820087
 20
422.30661483420045
 10
2499.000001131652
 20
839.653188527756
 10
2497.5817607873337
 20
845.4880245588846
 10
2495.0348628570073
 20
852.1779705719872
 10
2491.5775628566385
 20
859.0168850576136
 10
2487.864771486572
 20
864.2579518031622
 10
2483.7147769021026
 20
868.9789153787675
 10
2475.6416999236194
 20
875.8200601684171
 10
2465.322801111218
 20
880.6398273354916
 10
2460.666488380949
 20
882.1826326282593
 10
2334.9851905834744
 20
881.995097797963
 10
2331.5236710926492
 20
881.0331026267731
 10
2325.481203616416
 20
877.8245017374021
 10
2318.4938904053947
 20
872.1118585120743
 10
2309.7432941583875
 20
862.9322387215827
 10
2253.3093676350577
 20
808.5247783655186
 10
2248.55078190906
 20
805.5982687269302
 10
2236.9949364063223
 20
800.5165488884088
 10
2228.3854959842884
 20
798.9784439862372
 10
2121.870645619689
 20
795.6017898142184
 10
2113.8768400622525
 20
794.5351140956091
 10
2107.8953726802497
 20
792.9837486195988
 10
2104.1971745273104
 20
790.4329053757801
 10
2100.7162288600525
 20
787.2162055640389
 10
2098.733592578879
 20
784.1685017967712
 10
2097.3729280980274
 20
780.3160946680231
 10
2096.1628596008627
 20
775.2307090600286
 10
2096.158838924587
 20
486.51004872884545
 10
2099.402722695008
 20
477.1078489663565
 10
2102.4219138441563
 20
472.9456583461519
 10
2106.196434262953
 20
469.2455468542781
 10
2109.669461127417
 20
467.16375648784754
 10
2115.030650465254
 20
465.77481660181184
 10
2121.3737456362796
 20
464.92493314345836
 10
2226.6030224381557
 20
464.72786081052027
 10
2241.5477589644065
 20
461.81532979691355
 10
2249.9199803751912
 20
458.81635579024606
 10
2255.0298048194472
 20
455.59661205219436
 10
2261.3345154391736
 20
448.71465910200186
 10
2268.5063868522666
 20
433.9540111145392
 10
2269.7005640721472
 20
428.2944633839196
 10
2270.4726852564836
 20
393.73479892092666
 10
2271.9190629623167
 20
390.84462013486797
 10
2274.9387046193397
 20
387.9538826280501
 10
2278.461926010309
 20
385.4482558696296
 10
2286.9562266865814
 20
381.7207866048752
 10
2294.19268980109
 20
380.17706709981496
 10
2300.1709070491193
 20
379.66122996096465
 10
2466.048568766165
 20
381.3823161753659
 10
2469.785927761353
 20
381.92584134440636
 10
2473.310583835392
 20
383.46574918749263
 10
2478.78681280623
 20
387.0598386151193
 10
2485.396815704152
 20
393.5431938897698
 10
2490.8111379988263
 20
400.026972824185
 10
2495.407796592305
 20
407.73112260514057
 10
2498.3680103937236
 20
414.72948872417845
  0
LWPOLYLINE
  5
1DC
330
1F
100
AcDbEntity
  8
0
 62
7
100
AcDbPolyline
 90
22
 70
1
 10
2448.4906417302773
 20
845.396139133544
 10
2445.0185050064956
 20
844.8363835897388
 10
2441.8861367027853
 20
843.2087841086187
 10
2439.6662155765
 20
841.031978405093
 10
2437.9481873322175
 20
837.9038270296559
 10
2437.2875149762294
 20
834.8360148076414
 10
2437.561927181874
 20
831.2610172479762
 10
2438.6825547459152
 20
828.3358899476553
 10
2440.8574312962483
 20
825.5182783746762
 10
2443.3820625357366
 20
823.721215046765
 10
2446.7250137594833
 20
822.6113444099166
 10
2449.80318192312
 20
822.5486062967772
 10
2453.1866371822616
 20
823.5211163929399
 10
2455.780170004324
 20
825.2142098104001
 10
2458.0633398973064
 20
827.9404075721313
 10
2459.2978504731127
 20
830.8179656290116
 10
2459.7121009341595
 20
834.3787982974878
 10
2459.172182788486
 20
837.47083308855
 10
2457.577875613674
 20
840.6670048207433
 10
2455.445458930885
 20
842.9320460694373
 10
2452.3790048298088
 20
844.6862108152189
 10
2449.3728323030928
 20
845.3602089851338
  0
LWPOLYLINE
  5
1DD
330
1F
100
AcDbEntity
  8
0
 62
7
100
AcDbPolyline
 90
22
 70
1
 10
2447.858130611776
 20
453.0131507808339
 10
2444.3859938879946
 20
452.4533952370289
 10
2441.2536255842842
 20
450.82579575590864
 10
2439.0337044579983
 20
448.64899005238294
 10
2437.315676213716
 20
445.52083867694574
 10
2436.6550038577284
 20
442.4530264549312
 10
2436.929416063373
 20
438.8780288952659
 10
2438.0500436274137
 20
435.9529015949452
 10
2440.224920177747
 20
433.13529002196617
 10
2442.7495514172356
 20
431.3382266940548
 10
2446.092502640982
 20
430.22835605720644
 10
2449.170670804619
 20
430.165617944067
 10
2452.55412606376
 20
431.13812804022984
 10
2455.147658885823
 20
432.8312214576899
 10
2457.430828778805
 20
435.55741921942115
 10
2458.665339354611
 20
438.43497727630154
 10
2459.0795898156584
 20
441.9958099447776
 10
2458.539671669985
 20
445.08784473583984
 10
2456.9453644951727
 20
448.2840164680331
 10
2454.8129478123838
 20
450.5490577167273
 10
2451.7464937113073
 20
452.30322246250887
 10
2448.7403211845913
 20
452.9772206324237
  0
LWPOLYLINE
  5
1DE
330
1F
100
AcDbEntity
  8
0
 62
7
100
AcDbPolyline
 90
69
 70
1
 10
1927.8913861000003
 20
598.6215523655493
 10
1928.2296339820005
 20
161.14078835154947
 10
1929.1005059560002
 20
156.81868459914955
 10
1930.5519576892002
 20
153.01265420874944
 10
1932.5194827844002
 20
149.59367738034945
 10
1936.3577681248003
 20
145.62637457514944
 10
1945.6470629536004
 20
140.43340001634948
 10
1952.6328721336004
 20
138.32638058154936
 10
1959.3211639900003
 20
137.32313779554948
 10
2175.3236179888
 20
135.75233165514945
 10
2195.7897941752
 20
137.11674347874944
 10
2219.541680174728
 20
142.10232487197453
 10
2231.3017721720717
 20
145.47128932979166
 10
2262.2714412478863
 20
155.07533304303996
 10
2278.0928788370793
 20
159.31606968494435
 10
2310.7620702522154
 20
167.5770970038937
 10
2398.5510348667826
 20
192.16883250475632
 10
2466.4387912393386
 20
209.19941963394038
 10
2485.3447174468
 20
213.78571462674952
 10
2489.6363713588
 20
215.68073059434963
 10
2492.5346324476
 20
217.63148194794954
 10
2494.4296484152
 20
219.97238450634953
 10
2497.2164363968
 20
225.32301892554952
 10
2498.6098315552
 20
231.23101070754947
 10
2498.9999815924
 20
235.41119384754953
 10
2498.5340076111997
 20
478.50553486434944
 10
2497.5276671824004
 20
482.1438418499496
 10
2493.6571268919997
 20
489.3817510487495
 10
2489.9801139664
 20
492.94264848954947
 10
2487.3481474095997
 20
494.2586317679494
 10
2479.8780060736
 20
495.8455531235495
 10
2472.8813078559997
 20
496.25025612714956
 10
2466.194146743387
 20
495.3920822566173
 10
2445.1329028568443
 20
490.8487332279207
 10
2419.6334014156
 20
486.13702334154965
 10
2396.211976096645
 20
483.5347051254169
 10
2381.6417582296
 20
482.89132769394956
 10
2375.4617751952
 20
483.69392309034953
 10
2371.6093186936
 20
485.21885422674956
 10
2368.9607547028
 20
486.98456316474955
 10
2367.0345264519997
 20
489.6331271555495
 10
2366.1516713992
 20
492.04091217714955
 10
2365.4899224232
 20
542.8790078099495
 10
2363.7804345928
 20
547.9429649039495
 10
2359.6841131551996
 20
553.5552468071495
 10
2355.4910280352
 20
557.6193144623495
 10
2353.200959278
 20
559.1352760955496
 10
2348.6853293284
 20
560.4899641463494
 10
2243.1515593
 20
560.3765750075494
 10
2194.8879819688
 20
557.3254295423493
 10
2159.6523608679095
 20
557.6236572565932
 10
2144.9601437931997
 20
558.0188706851494
 10
2128.8722854611997
 20
559.9605089207494
 10
2100.6228619875997
 20
564.9950284835494
 10
2061.6167390332
 20
575.3485054775493
 10
2042.9965314412002
 20
582.3310827407494
 10
2021.5261480312004
 20
593.3529616955494
 10
2001.2204115525026
 20
606.1935490471424
 10
1984.4462533276005
 20
615.8898332807493
 10
1972.8888826552004
 20
620.6090926703492
 10
1963.1614295800002
 20
623.0168776919495
 10
1949.9667661204003
 20
624.5578609931493
 10
1946.1143096188005
 20
624.5578609931493
 10
1943.5139009548004
 20
623.8836805799494
 10
1941.1061159332003
 20
622.4390090999494
 10
1936.9647251356005
 20
618.9717987155494
 10
1933.4975135836003
 20
614.3488499795494
 10
1930.2229256740004
 20
608.4738545735494
 10
1928.2815373048004
 20
601.4640769007494
  0
LWPOLYLINE
  5
1DF
330
1F
100
AcDbEntity
  8
0
 62
7
100
AcDbPolyline
 90
22
 70
1
 10
1974.8509562260003
 20
559.1262015083494
 10
1978.458897985898
 20
559.6973942637
 10
1981.71391426099
 20
561.3561098771469
 10
1984.020287147118
 20
563.5736938207372
 10
1985.8052599947046
 20
566.7609431129963
 10
1986.4909211714312
 20
569.8861178562978
 10
1986.2043298908209
 20
573.5279025820857
 10
1985.0381821509777
 20
576.5073239511524
 10
1982.7766230430286
 20
579.3761355849927
 10
1980.1517288117775
 20
581.2055569325687
 10
1976.6774847887714
 20
582.3344317111613
 10
1973.4785929555742
 20
582.3972268702771
 10
1969.9626954009434
 20
581.4056653832827
 10
1967.2680269273199
 20
579.6806685689339
 10
1964.8955469966731
 20
576.902887300973
 10
1963.6133689327123
 20
573.971527265045
 10
1963.183976570924
 20
570.3438072762696
 10
1963.74646059248
 20
567.1941311248709
 10
1965.4048860905393
 20
563.9392370176911
 10
1967.6224542343414
 20
561.6328448378486
 10
1970.8097610221444
 20
559.8477443077134
 10
1973.934264773251
 20
559.1624589495428
  0
LWPOLYLINE
  5
1E0
330
1F
100
AcDbEntity
  8
0
 62
7
100
AcDbPolyline
 90
22
 70
1
 10
1974.9433635928003
 20
169.87166913954965
 10
1978.551305352698
 20
170.4428618949
 10
1981.8063216277899
 20
172.10157750834705
 10
1984.112694513918
 20
174.31916145193722
 10
1985.8976673615045
 20
177.5064107441966
 10
1986.5833285382312
 20
180.6315854874982
 10
1986.296737257621
 20
184.2733702132858
 10
1985.1305895177777
 20
187.25279158235261
 10
1982.8690304098286
 20
190.12160321619282
 10
1980.2441361785775
 20
191.9510245637691
 10
1976.7698921555711
 20
193.07989934236159
 10
1973.571000322374
 20
193.14269450147728
 10
1970.0551027677434
 20
192.15113301448292
 10
1967.3604342941196
 20
190.42613620013407
 10
1964.987954363473
 20
187.64835493217328
 10
1963.7057762995123
 20
184.71699489624524
 10
1963.276383937724
 20
181.08927490746981
 10
1963.83886795928
 20
177.93959875607112
 10
1965.4972934573393
 20
174.6847046488911
 10
1967.7148616011411
 20
172.3783124690487
 10
1970.9021683889441
 20
170.5932119389135
 10
1974.026672140051
 20
169.90792658074312
  0
LWPOLYLINE
  5
1E1
330
1F
100
AcDbEntity
  8
0
 62
7
100
AcDbPolyline
 90
76
 70
1
 10
2476.9535891000005
 20
912.6366411678375
 10
2016.6457476884011
 20
912.4107374226375
 10
2009.601364686801
 20
911.0173422642374
 10
2000.5055960552008
 20
908.4627864198375
 10
1993.5773297060011
 20
905.4824710734374
 10
1988.1972799400012
 20
901.8828688602374
 10
1981.1095474532012
 20
894.9716331246374
 10
1977.0983167664272
 20
890.2262556200191
 10
1971.9131445452012
 20
881.9851971138374
 10
1967.3985467540012
 20
871.4511367686374
 10
1965.392058846801
 20
863.7038644050374
 10
1964.8347014840012
 20
858.8548519626374
 10
1963.5370763804012
 20
764.5716937290374
 10
1964.2337739596012
 20
760.2521715402374
 10
1965.6271679504011
 20
756.6293457630375
 10
1971.711656483601
 20
747.2471578458374
 10
1975.1022501236012
 20
743.0205275778374
 10
1997.0823047411754
 20
722.2047756099889
 10
2004.418895025201
 20
715.3395419910374
 10
2009.946026195601
 20
706.9327297506375
 10
2014.6511883991209
 20
695.2753683941221
 10
2016.3091928264012
 20
690.3048902790373
 10
2017.5168018080008
 20
682.9663468038375
 10
2018.602534366401
 20
666.3953577762375
 10
2021.1128743664008
 20
659.8281974142374
 10
2027.197362899601
 20
652.1645287134374
 10
2030.959526558001
 20
650.2137761922374
 10
2032.492260765201
 20
649.9815440550374
 10
2073.9691012136004
 20
649.4021704266374
 10
2077.9202771276005
 20
647.9238393738374
 10
2083.4035415660005
 20
643.7307542538374
 10
2085.8688612452006
 20
640.8256989006375
 10
2087.2622552360003
 20
638.4259644810375
 10
2089.0039980164006
 20
632.2331016510375
 10
2089.1588194412006
 20
626.5047019278375
 10
2088.8491765916006
 20
624.2984948730375
 10
2083.2925051412003
 20
596.9045473998374
 10
2083.1319869960003
 20
586.7918493750374
 10
2083.6938034232003
 20
580.5316066842373
 10
2085.9655934024004
 20
575.1742842522374
 10
2087.7491385980006
 20
573.0563244054374
 10
2093.6013938264005
 20
568.7646704934375
 10
2100.2339514644004
 20
566.2565606094373
 10
2105.1944346788005
 20
565.1975812698373
 10
2382.2827269512004
 20
565.1739548838376
 10
2386.2693827264
 20
565.9867679478376
 10
2392.7718895736007
 20
569.1606106590376
 10
2396.2553751344003
 20
571.3668188814377
 10
2398.2680559920004
 20
573.1859723742376
 10
2400.3581475620003
 20
575.8953496434375
 10
2401.7091214772004
 20
579.4049695950374
 10
2402.3593719284004
 20
583.3529205978376
 10
2402.4522650168005
 20
591.4346076126375
 10
2401.9413536144
 20
596.4972733410376
 10
2398.6956731456003
 20
614.7061506318374
 10
2398.2627924512003
 20
620.3893420506374
 10
2398.7737038536006
 20
629.0283864282376
 10
2400.8637954236005
 20
635.3915542266376
 10
2404.3937269448006
 20
640.7793463482375
 10
2407.2734091824004
 20
643.4267952810375
 10
2414.8906319228004
 20
648.3036748326375
 10
2419.4888322092006
 20
650.1150883050376
 10
2425.3875357332004
 20
651.2298030306375
 10
2484.4158071024003
 20
651.2956463298375
 10
2486.8310238980007
 20
651.9923427414375
 10
2488.6888833308003
 20
653.1535045950376
 10
2491.2434391752004
 20
655.3829363814374
 10
2496.1203187268
 20
662.4892465518375
 10
2498.4890895620006
 20
668.1092708106376
 10
2499.0000009644004
 20
671.3140782738375
 10
2498.6286119240003
 20
899.6703322458376
 10
2497.9319155124003
 20
901.4120761938375
 10
2496.4224048692004
 20
903.5795784762375
 10
2493.0163300208005
 20
906.8308318998376
 10
2487.4427528900005
 20
910.0820853234376
 10
2480.8241293904002
 20
912.1721768934375
  0
LWPOLYLINE
  5
1E2
330
1F
100
AcDbEntity
  8
0
 62
7
100
AcDbPolyline
 90
22
 70
1
 10
2010.8012920280007
 20
853.5713148450375
 10
2011.3724847833514
 20
849.9633730851398
 10
2013.0312003967983
 20
846.7083568100479
 10
2015.2487843403887
 20
844.4019839239197
 10
2018.4360336326476
 20
842.617011076333
 10
2021.5612083759493
 20
841.9313498996067
 10
2025.2029931017373
 20
842.2179411802168
 10
2028.182414470804
 20
843.3840889200599
 10
2031.0512261046442
 20
845.6456480280092
 10
2032.8806474522207
 20
848.2705422592603
 10
2034.0095222308128
 20
851.7447862822665
 10
2034.0723173899287
 20
854.9436781154637
 10
2033.0807559029345
 20
858.4595756700943
 10
2031.3557590885855
 20
861.1542441437181
 10
2028.5779778206247
 20
863.5267240743648
 10
2025.6466177846967
 20
864.8089021383255
 10
2022.0188977959212
 20
865.2382945001139
 10
2018.8692216445224
 20
864.6758104785578
 10
2015.6143275373427
 20
863.0173849804985
 10
2013.3079353575001
 20
860.7998168366964
 10
2011.522834827365
 20
857.6125100488935
 10
2010.8375494691943
 20
854.4880062977868
  0
LWPOLYLINE
  5
1E3
330
1F
100
AcDbEntity
  8
0
 62
7
100
AcDbPolyline
 90
22
 70
1
 10
2428.2087142052005
 20
854.3288315406376
 10
2428.779906960551
 20
850.72088978074
 10
2430.438622573998
 20
847.4658735056481
 10
2432.656206517588
 20
845.1595006195199
 10
2435.843455809847
 20
843.3745277719332
 10
2438.968630553149
 20
842.6888665952068
 10
2442.6104152789367
 20
842.9754578758169
 10
2445.5898366480037
 20
844.1416056156601
 10
2448.458648281844
 20
846.4031647236093
 10
2450.28806962942
 20
849.0280589548604
 10
2451.4169444080126
 20
852.5023029778667
 10
2451.4797395671285
 20
855.7011948110638
 10
2450.488178080134
 20
859.2170923656944
 10
2448.763181265785
 20
861.9117608393182
 10
2445.985399997824
 20
864.284240769965
 10
2443.0540399618963
 20
865.5664188339257
 10
2439.426319973121
 20
865.9958111957139
 10
2436.276643821722
 20
865.433327174158
 10
2433.0217497145422
 20
863.7749016760987
 10
2430.7153575346997
 20
861.5573335322965
 10
2428.9302570045643
 20
858.3700267444935
 10
2428.244971646394
 20
855.2455229933869
  0
LWPOLYLINE
  5
1E4
330
1F
100
AcDbEntity
  8
0
 62
7
100
AcDbPolyline
 90
72
 70
1
 10
2445.8086911
 20
1260.7910573127624
 10
1981.6303093980002
 20
1260.5524956159625
 10
1978.5338773992
 20
1259.8170932643625
 10
1972.6119514788002
 20
1257.2238314799624
 10
1969.4381099352001
 20
1255.2111506223623
 10
1966.0320339192
 20
1251.9598971987623
 10
1963.8258268644001
 20
1248.0506521359623
 10
1963.5548887872003
 20
1246.6185522051624
 10
1963.4544378240003
 20
1019.6943969963622
 10
1964.6620468056003
 20
1014.2601600819622
 10
1966.3341200616003
 20
1010.8695664419622
 10
1971.2109996132003
 20
1003.7632551039621
 10
1975.6234148904002
 20
1000.3726626315622
 10
1978.0386328536003
 20
999.675965052362
 10
2037.0669042228003
 20
999.6101229207623
 10
2042.9656065792003
 20
998.4954070275621
 10
2047.5638080332003
 20
996.6839947227622
 10
2055.181029606
 20
991.8071151711622
 10
2058.0607118436
 20
989.1596650707622
 10
2061.5906445324
 20
983.7718741167622
 10
2062.751806386
 20
981.0779780559621
 10
2063.6807349348
 20
977.4087063183621
 10
2064.1916463372
 20
968.7696619407623
 10
2063.7587656428
 20
963.0864705219622
 10
2060.0021749392
 20
939.8149275027621
 10
2060.09506686
 20
931.7332404879622
 10
2060.7453184788
 20
927.7852894851621
 10
2062.0962912264
 20
924.2756695335621
 10
2066.199063654
 20
919.7471387715623
 10
2072.6628645612
 20
915.7991877687623
 10
2076.185056062
 20
914.3670878379622
 10
2080.1717118372
 20
913.5542747739623
 10
2357.2600041096002
 20
913.5778999923624
 10
2365.7318411616
 20
915.8073317787623
 10
2368.8530449620002
 20
917.1449903835623
 10
2371.8627768228
 20
919.0400063511622
 10
2376.4888453860003
 20
923.5546041423622
 10
2378.7606353652
 20
928.9119265743624
 10
2379.32245296
 20
935.1721680975623
 10
2378.60011722
 20
949.8596595315622
 10
2373.2956193472
 20
974.8850218179622
 10
2373.450440772
 20
980.6134203735622
 10
2375.1921835524
 20
986.8062843711623
 10
2378.0950893540003
 20
991.0638782235623
 10
2381.980681176
 20
994.5839190051623
 10
2386.8457341072
 20
997.3255512243624
 10
2390.5228766364
 20
998.0905428951622
 10
2431.4949122304
 20
998.5940960823624
 10
2435.2570770564
 20
1000.5448486035623
 10
2437.1149353216
 20
1002.3562609083623
 10
2441.3415655896
 20
1008.2085173043623
 10
2443.851904422
 20
1014.7756776663623
 10
2444.9376369804
 20
1031.3466666939623
 10
2447.0368134490677
 20
1041.4009177607525
 10
2450.3718750624002
 20
1050.3432758331624
 10
2454.087593928
 20
1058.4714099759624
 10
2460.1720824612003
 20
1065.9957384603624
 10
2480.4316646712
 20
1084.6661084835625
 10
2487.3521898324
 20
1091.4008474679624
 10
2490.7427823048
 20
1095.6274765683625
 10
2496.827270838
 20
1105.0096656531625
 10
2498.2206648288
 20
1108.6324914303625
 10
2498.917362408
 20
1112.9520136191625
 10
2499.0000004656
 20
1120.7102100483623
 10
2497.0623799416
 20
1212.0841831275625
 10
2495.0558920344
 20
1219.8314566587624
 10
2490.5412942432
 20
1230.3655170039624
 10
2484.243152424
 20
1240.2307492143625
 10
2474.2571588484
 20
1250.2631887503624
 10
2468.8771090824002
 20
1253.8627909635625
 10
2461.9488427332
 20
1256.8431063099624
 10
2452.8530741016
 20
1259.3976621543625
  0
LWPOLYLINE
  5
1E5
330
1F
100
AcDbEntity
  8
0
 62
7
100
AcDbPolyline
 90
22
 70
1
 10
2010.2108315388002
 20
1204.6298335815625
 10
2010.7820242941507
 20
1201.021891821665
 10
2012.4407399075978
 20
1197.766875546573
 10
2014.658323851188
 20
1195.4605026604447
 10
2017.8455731434472
 20
1193.675529812858
 10
2020.9707478867488
 20
1192.9898686361316
 10
2024.6125326125366
 20
1193.2764599167417
 10
2027.5919539816034
 20
1194.4426076565849
 10
2030.4607656154437
 20
1196.7041667645342
 10
2032.2901869630198
 20
1199.3290609957853
 10
2033.4190617416123
 20
1202.8033050187914
 10
2033.4818569007277
 20
1206.0021968519886
 10
2032.4902954137337
 20
1209.5180944066192
 10
2030.7652985993846
 20
1212.212762880243
 10
2027.9875173314242
 20
1214.58524281089
 10
2025.056157295496
 20
1215.8674208748505
 10
2021.4284373067205
 20
1216.2968132366389
 10
2018.278761155322
 20
1215.7343292150829
 10
2015.023867048142
 20
1214.0759037170235
 10
2012.7174748682994
 20
1211.8583355732214
 10
2010.9323743381642
 20
1208.6710287854185
 10
2010.247088979994
 20
1205.5465250343118
  0
LWPOLYLINE
  5
1E6
330
1F
100
AcDbEntity
  8
0
 62
7
100
AcDbPolyline
 90
22
 70
1
 10
2427.6586281564
 20
1203.9941477727623
 10
2428.2298209117507
 20
1200.386206012865
 10
2429.8885365251977
 20
1197.131189737773
 10
2432.1061204687876
 20
1194.8248168516448
 10
2435.293369761047
 20
1193.039844004058
 10
2438.4185445043486
 20
1192.3541828273317
 10
2442.0603292301366
 20
1192.6407741079418
 10
2445.039750599203
 20
1193.806921847785
 10
2447.9085622330435
 20
1196.0684809557342
 10
2449.7379835806196
 20
1198.6933751869853
 10
2450.866858359212
 20
1202.1676192099915
 10
2450.9296535183275
 20
1205.3665110431887
 10
2449.9380920313333
 20
1208.8824085978192
 10
2448.2130952169846
 20
1211.577077071443
 10
2445.435313949024
 20
1213.94955700209
 10
2442.5039539130958
 20
1215.2317350660505
 10
2438.8762339243203
 20
1215.661127427839
 10
2435.7265577729218
 20
1215.0986434062827
 10
2432.4716636657417
 20
1213.4402179082235
 10
2430.165271485899
 20
1211.2226497644215
 10
2428.3801709557642
 20
1208.0353429766185
 10
2427.694885597594
 20
1204.9108392255118
  0
LWPOLYLINE
  5
1E7
330
1F
100
AcDbEntity
  8
0
 62
7
100
AcDbPolyline
 90
62
 70
1
 10
2472.0681341
 20
1998.7963541000004
 10
2024.7279093224008
 20
1998.9999741992003
 10
2014.5999974696008
 20
1996.5808868096003
 10
2010.4069123496008
 20
1994.0005270052002
 10
2007.7942975952005
 20
1991.3234035184003
 10
2004.4839542708007
 20
1984.4888043764004
 10
2004.0380676800007
 20
1981.4233371296002
 10
2012.2194049953894
 20
1789.647013306347
 10
2014.8963521486287
 20
1766.3565354230248
 10
2016.9748738057265
 20
1750.224929276453
 10
2021.641701537358
 20
1718.8516580980645
 10
2024.3525959784008
 20
1691.6576585552002
 10
2026.320472211033
 20
1662.242393502075
 10
2026.9303399455252
 20
1643.485160266222
 10
2028.1250914145742
 20
1593.5546480761275
 10
2028.9293147600008
 20
1575.7141227044003
 10
2028.6211173992008
 20
1565.5166697632003
 10
2026.9690752772822
 20
1549.7731262015648
 10
2011.9583306795173
 20
1456.3602376683127
 10
2004.2953523726198
 20
1414.0846899663404
 10
1988.9719469939891
 20
1321.1940813873616
 10
1984.4704239116006
 20
1295.6174086184008
 10
1984.4831764388007
 20
1287.3908084324007
 10
1985.0962691876007
 20
1282.0959105668007
 10
1987.1584924808005
 20
1275.4076175427997
 10
1991.1157329092007
 20
1270.5586051003997
 10
2000.7990495368006
 20
1265.7090765788007
 10
2002.8310833644007
 20
1265.6445678463997
 10
2295.5452695260005
 20
1261.7138552899996
 10
2300.5382657300006
 20
1262.2170255044007
 10
2311.3370712020005
 20
1265.1586360783997
 10
2315.6720757668004
 20
1267.6357812103997
 10
2321.2069481252006
 20
1271.8159643504007
 10
2333.7464217824245
 20
1285.3603257738237
 10
2403.0163515969307
 20
1366.972767558644
 10
2424.1102531802103
 20
1391.6726929741076
 10
2435.4775863944005
 20
1404.5303963600004
 10
2441.6575682612
 20
1415.1246523232003
 10
2444.4666515648005
 20
1423.3913817536004
 10
2444.9482083356006
 20
1427.7253961936003
 10
2445.3635144841214
 20
1515.6795704362269
 10
2446.759916228492
 20
1570.6069585404632
 10
2448.2215025444
 20
1596.9260718656003
 10
2449.0258948772007
 20
1606.3892456864003
 10
2450.7595006532006
 20
1617.5613702416003
 10
2453.8414660880003
 20
1630.3707887516002
 10
2458.0686990822883
 20
1643.708706457179
 10
2468.226299893065
 20
1667.8089389760191
 10
2486.0094789272002
 20
1707.9977908784003
 10
2489.5730011328005
 20
1718.6883574952003
 10
2494.8701291144007
 20
1739.1063783548002
 10
2497.313637785613
 20
1754.8033535623629
 10
2498.461140406278
 20
1769.4875325759378
 10
2499.0000001890844
 20
1782.327166119462
 10
2497.9411273396536
 20
1888.3701682076319
 10
2496.0684428324
 20
1979.0103632936004
 10
2495.6626866536003
 20
1981.4689797812005
 10
2493.3217840951997
 20
1987.4327069492003
 10
2490.6464668856
 20
1991.2227400520003
 10
2487.135113048
 20
1994.4554146244002
 10
2483.1221384012
 20
1997.1307318340002
 10
2477.256950695264
 20
1998.3886629542153
  0
LWPOLYLINE
  5
1E8
330
1F
100
AcDbEntity
  8
0
 62
7
100
AcDbPolyline
 90
22
 70
1
 10
2439.0187817528
 20
1951.0671919592003
 10
2439.5899745081506
 20
1947.4592501993027
 10
2441.2486901215975
 20
1944.204233924211
 10
2443.4662740651875
 20
1941.8978610380827
 10
2446.653523357447
 20
1940.1128881904958
 10
2449.7786981007484
 20
1939.4272270137697
 10
2453.4204828265365
 20
1939.7138182943797
 10
2456.399904195603
 20
1940.8799660342227
 10
2459.2687158294434
 20
1943.1415251421722
 10
2461.0981371770195
 20
1945.7664193734233
 10
2462.227011955612
 20
1949.2406633964295
 10
2462.289807114728
 20
1952.4395552296266
 10
2461.298245627733
 20
1955.9554527842572
 10
2459.5732488133845
 20
1958.650121257881
 10
2456.795467545424
 20
1961.0226011885277
 10
2453.8641075094956
 20
1962.3047792524885
 10
2450.23638752072
 20
1962.7341716142766
 10
2447.0867113693216
 20
1962.1716875927207
 10
2443.8318172621416
 20
1960.5132620946615
 10
2441.525425082299
 20
1958.2956939508592
 10
2439.740324552164
 20
1955.1083871630565
 10
2439.0550391939937
 20
1951.9838834119496
  0
LWPOLYLINE
  5
1E9
330
1F
100
AcDbEntity
  8
0
 62
7
100
AcDbPolyline
 90
22
 70
1
 10
2051.4590429684
 20
1952.7460513064004
 10
2052.0302357237506
 20
1949.1381095465028
 10
2053.6889513371975
 20
1945.8830932714109
 10
2055.9065352807875
 20
1943.5767203852827
 10
2059.093784573047
 20
1941.791747537696
 10
2062.2189593163484
 20
1941.1060863609696
 10
2065.8607440421365
 20
1941.3926776415797
 10
2068.840165411203
 20
1942.5588253814228
 10
2071.7089770450434
 20
1944.8203844893721
 10
2073.5383983926195
 20
1947.445278720623
 10
2074.667273171212
 20
1950.9195227436294
 10
2074.730068330328
 20
1954.1184145768266
 10
2073.738506843333
 20
1957.6343121314571
 10
2072.0135100289845
 20
1960.328980605081
 10
2069.235728761024
 20
1962.7014605357276
 10
2066.3043687250956
 20
1963.9836385996884
 10
2062.67664873632
 20
1964.4130309614766
 10
2059.5269725849216
 20
1963.8505469399206
 10
2056.2720784777416
 20
1962.1921214418614
 10
2053.965686297899
 20
1959.9745532980594
 10
2052.180585767764
 20
1956.7872465102564
 10
2051.4953004095937
 20
1953.6627427591495
  0
LWPOLYLINE
  5
1EA
330
1F
100
AcDbEntity
  8
0
 62
7
100
AcDbPolyline
 90
68
 70
1
 10
1996.4060661000003
 20
1408.2796231000002
 10
2479.3713981312503
 20
1408.5640804972704
 10
2481.5325919789066
 20
1409.018472193819
 10
2483.809264342188
 20
1410.0282289252336
 10
2487.2738029164066
 20
1412.8723748469408
 10
2489.45147625625
 20
1417.012375110918
 10
2489.9299308460936
 20
1419.0655450560625
 10
2489.6835929554686
 20
1425.0125742690143
 10
2486.385434810129
 20
1457.064534057106
 10
2484.2683707875003
 20
1486.4650538146075
 10
2471.058946785984
 20
1569.5062763823737
 10
2466.315512493726
 20
1617.8290051622532
 10
2464.432570828942
 20
1646.5663410310085
 10
2464.309020201563
 20
1680.7071627661762
 10
2465.413329283594
 20
1720.237500922304
 10
2467.8961173695316
 20
1731.5260928900775
 10
2472.6313743150477
 20
1750.4192408255942
 10
2478.962279478906
 20
1784.5680241370258
 10
2481.4450675648436
 20
1794.0475325110492
 10
2485.701293150781
 20
1804.8295922797258
 10
2492.15655438125
 20
1818.2166925757465
 10
2495.797972838281
 20
1828.848016132265
 10
2497.374388853906
 20
1834.7777209540425
 10
2498.310362975
 20
1839.853160513979
 10
2498.9999992054686
 20
1846.536670920473
 10
2498.882573259206
 20
1871.5865139542173
 10
2497.7290021786416
 20
1899.2619856126255
 10
2495.355414917109
 20
1955.047073999682
 10
2494.1226798695307
 20
1981.7635837775285
 10
2493.2852775257807
 20
1985.532487177187
 10
2491.462584654687
 20
1988.5978303961808
 10
2488.753173033593
 20
1991.9647083014545
 10
2482.7432243031244
 20
1996.18588259955
 10
2476.8318473499994
 20
1998.2964386176166
 10
2473.2357169789057
 20
1998.9999987982806
 10
2112.524657408593
 20
1998.9418461249409
 10
2108.780760924218
 20
1998.338839014345
 10
2099.371764342187
 20
1994.519690210634
 10
2090.504637877343
 20
1989.2432379035051
 10
2086.169615904687
 20
1985.323536029726
 10
2017.3829645601559
 20
1903.2307087340948
 10
2009.2168571156253
 20
1889.7894339209613
 10
2008.0250846546878
 20
1886.5765298499164
 10
2004.7095747612634
 20
1868.248822771078
 10
2000.4685174119325
 20
1840.5327107516014
 10
1998.4959098500003
 20
1830.4239286749896
 10
1997.9075309437503
 20
1823.0714134772356
 10
1999.0842887562503
 20
1784.8082930518206
 10
2001.2953028408333
 20
1763.5434801891793
 10
2001.8790885609378
 20
1754.9480471381244
 10
2001.7523795765628
 20
1735.8123309393939
 10
2001.1395866078128
 20
1728.309733280092
 10
1998.7900993031253
 20
1717.9937043036516
 10
1994.102130025892
 20
1707.675904899666
 10
1989.5895377796878
 20
1698.926351740175
 10
1987.2742301625003
 20
1689.8810271643695
 10
1985.9933463734378
 20
1682.1924530219133
 10
1985.4514762562503
 20
1675.5089737464007
 10
1983.6638786000003
 20
1642.014248010927
 10
1976.5437614125003
 20
1439.09410558539
 10
1976.7802116078128
 20
1427.7572683791216
 10
1977.4895621937503
 20
1423.1742937060412
 10
1978.8491813343753
 20
1419.55615375815
 10
1980.6817008656253
 20
1416.7822471133288
 10
1983.4010612171878
 20
1413.7671337328966
 10
1985.6472770375003
 20
1412.1389717291888
 10
1989.2533561390628
 20
1410.209294496065
 10
1993.2730094593753
 20
1408.701737805849
  0
LWPOLYLINE
  5
1EB
330
1F
100
AcDbEntity
  8
0
 62
7
100
AcDbPolyline
 90
63
 70
1
 10
2004.5618251000003
 20
945.3109978626302
 10
2479.9321406517583
 20
945.4640887020164
 10
2485.6354716454102
 20
946.332440810018
 10
2490.913181606348
 20
949.1980091236167
 10
2493.8925326500494
 20
951.8899027774863
 10
2497.2975047264654
 20
957.9683771656089
 10
2497.9785006676275
 20
960.3997684619956
 10
2498.999992672021
 20
966.044061980062
 10
2495.626743618066
 20
1191.381945471578
 10
2494.2783740196783
 20
1212.1390975711874
 10
2488.7623179588873
 20
1253.2781963871055
 10
2486.160726030839
 20
1263.034102244332
 10
2480.5728800926763
 20
1279.2137869022422
 10
2470.74596243505
 20
1302.086237338826
 10
2464.907642665918
 20
1318.4705709598595
 10
2463.1933329735352
 20
1328.842581763082
 10
2461.301678005273
 20
1344.1593636844689
 10
2459.4516177878522
 20
1355.455841057949
 10
2457.537533107812
 20
1363.6236245487266
 10
2456.169147792871
 20
1365.8221191165978
 10
2453.569225612695
 20
1368.160271582418
 10
2451.037716213281
 20
1369.5212502811485
 10
2446.6931040916993
 20
1370.4983624027304
 10
2443.3405650291993
 20
1370.5332537601523
 10
2304.6556361351563
 20
1371.0427847049764
 10
2298.9084284935548
 20
1372.7876608036092
 10
2293.2296412621095
 20
1376.765953650289
 10
2290.937588039453
 20
1379.4530196903281
 10
2287.7218897972657
 20
1384.9667788456015
 10
2285.840389553125
 20
1392.6092498539022
 10
2284.9167140160157
 20
1397.285493140035
 10
2282.79571181875
 20
1400.6705404422812
 10
2279.169521633203
 20
1404.0904174564414
 10
2274.8248866234376
 20
1406.2540514896446
 10
2269.625057521875
 20
1407.4405425785117
 10
2104.1132167015626
 20
1406.7071151493126
 10
2100.589626613672
 20
1405.1716180179649
 10
2097.0318568382813
 20
1401.9959805057576
 10
2094.774013820703
 20
1397.9827963016562
 10
2094.192440334375
 20
1394.144099707418
 10
2094.437588039453
 20
1291.111554846578
 10
2093.01885635
 20
1282.427983679586
 10
2090.5360682640626
 20
1274.709318823629
 10
2087.935055080469
 20
1269.4026885746055
 10
2083.393123928125
 20
1263.797940649801
 10
2078.631130519922
 20
1260.3640701053673
 10
2073.7049525414063
 20
1258.0608398197226
 10
2068.9840357933595
 20
1256.888280615621
 10
2014.8420985375003
 20
1257.167750525289
 10
2013.5079310570316
 20
1256.3651260135703
 10
2009.3001063500003
 20
1252.1774541996053
 10
2007.794918361719
 20
1248.5830587528283
 10
2007.3843959007816
 20
1245.1282287357383
 10
2004.5584071312503
 20
1171.213847021871
 10
2002.1307469669175
 20
1133.398506417417
 10
1997.612301174219
 20
1085.142647528463
 10
1988.8936306244996
 20
1004.8705110789479
 10
1984.7340052757816
 20
966.9193280170491
 10
1985.3087123070316
 20
961.7685029361776
 10
1986.4171107445316
 20
958.0833614490559
 10
1989.3317225609378
 20
952.5556511447957
 10
1994.1758387718753
 20
947.9911018131306
 10
1997.2546961937503
 20
946.5254182193806
  0
LWPOLYLINE
  5
1EC
330
1F
100
AcDbEntity
  8
0
 62
7
100
AcDbPolyline
 90
22
 70
1
 10
2046.2015650902347
 20
993.0095447300008
 10
2045.788282315658
 20
995.854043667717
 10
2044.5823329125003
 20
998.4547617862752
 10
2042.6894825663398
 20
1000.5853030970256
 10
2040.2704127464847
 20
1002.0645994327596
 10
2037.5355004970293
 20
1002.763414958339
 10
2034.7191737328128
 20
1002.6223448703817
 10
2032.0637412166209
 20
1001.6529531276854
 10
2029.7996791039066
 20
999.9399870060017
 10
2028.119720444019
 20
997.6290763371337
 10
2027.1702235375003
 20
994.921649679952
 10
2027.0318818036296
 20
992.0490536006963
 10
2027.7169154320316
 20
989.2588239810995
 10
2029.165933772536
 20
986.7925111010328
 10
2031.2556727562503
 20
984.8602089450887
 10
2033.8040456235844
 20
983.6306557164864
 10
2036.5935633812503
 20
983.2084252689413
 10
2039.3831258846837
 20
983.6306570108605
 10
2041.9314845238284
 20
984.8602089450886
 10
2044.0212152673287
 20
986.7925208929666
 10
2045.470211330469
 20
989.2588239810995
 10
2046.1550511322923
 20
992.0485893244096
  0
LWPOLYLINE
  5
1ED
330
1F
100
AcDbEntity
  8
0
 62
7
100
AcDbPolyline
 90
22
 70
1
 10
2452.6977656517583
 20
996.9441463230186
 10
2452.284469201772
 20
999.7886374832841
 10
2451.078525844629
 20
1002.389347967916
 10
2449.185684045346
 20
1004.5198975818179
 10
2446.7665904198243
 20
1005.9992010257773
 10
2444.0316969224623
 20
1006.6979987873589
 10
2441.2153437767583
 20
1006.5569310520225
 10
2438.559928492881
 20
1005.5875537680251
 10
2436.2958872948243
 20
1003.8745808933311
 10
2434.615942741339
 20
1001.5636606330319
 10
2433.6663859520513
 20
998.8562512729698
 10
2433.528049739625
 20
995.9836493138016
 10
2434.2131312523443
 20
993.1934178684287
 10
2435.662145109542
 20
990.7271054818979
 10
2437.7518504295904
 20
988.7948105381064
 10
2440.300231424354
 20
987.5652509325024
 10
2443.089771572168
 20
987.143026861959
 10
2445.879307435097
 20
987.5652510182373
 10
2448.427685085352
 20
988.7948105381064
 10
2450.517412055326
 20
990.7271142748915
 10
2451.966404262598
 20
993.1934178684287
 10
2452.651245195459
 20
995.9831874317987
  0
LWPOLYLINE
  5
1EE
330
1F
100
AcDbEntity
  8
0
 62
3
100
AcDbPolyline
 90
52
 70
1
 10
1906.6014911000004
 20
49.75802476318351
 10
1907.7585191000005
 20
39.11336776318369
 10
1911.5767111000005
 20
29.04722576318356
 10
1918.5188781000004
 20
18.749676763183672
 10
1926.6180731000004
 20
10.7661847631836
 10
1932.6346181000004
 20
8.567831763183603
 10
1940.8495161000003
 20
7.295100763183578
 10
2371.2499151
 20
7.524932763183597
 10
2387.0626291
 20
8.199865763183608
 10
2404.1287901
 20
12.345882763183631
 10
2433.7587321
 20
22.42976676318354
 10
2456.9178021
 20
33.59277176318365
 10
2483.4091131
 20
50.25397276318355
 10
2490.7400421
 20
55.91878176318365
 10
2494.2388941
 20
60.08408176318354
 10
2496.4048500999997
 20
64.9158307631837
 10
2497.7377460999996
 20
70.41402676318371
 10
2498.9040301
 20
77.41173176318371
 10
2498.9999991
 20
350.9660027631837
 10
2494.5014741
 20
363.4619047631837
 10
2491.0026221
 20
370.12638476318364
 10
2486.1708741
 20
375.7911937631836
 10
2480.0062291
 20
379.95649376318363
 10
2473.0085240999997
 20
382.62228576318364
 10
2461.6789071000003
 20
383.78856976318366
 10
2443.5181971
 20
384.7882427631837
 10
2373.8450511
 20
384.0711437631837
 10
2368.0136301000002
 20
385.57065276318366
 10
2358.8499691
 20
390.7356247631836
 10
2348.5200241000002
 20
398.39977776318364
 10
2340.3560361
 20
409.8960067631836
 10
2334.1913911
 20
423.7248037631836
 10
2328.5265831
 20
431.38895676318367
 10
2318.0300261
 20
439.0531097631836
 10
2306.0339601
 20
443.8848577631837
 10
2299.0362561
 20
445.0511417631836
 10
2283.2081141
 20
445.0511417631836
 10
2222.3947281
 20
444.38469376318363
 10
2212.8978431
 20
446.55065076318357
 10
2174.9103041
 20
453.71496676318367
 10
2136.9227641
 20
454.38141476318367
 10
2094.6033121
 20
456.04753476318365
 10
2058.9483401
 20
458.04687976318365
 10
2051.6174121
 20
457.0472077631836
 10
2036.4557181000005
 20
447.3837107631836
 10
2006.9653911000005
 20
414.89436676318365
 10
1967.9781791000005
 20
372.9081387631837
 10
1933.3228801000005
 20
334.7539877631836
 10
1911.9965421000004
 20
308.0960647631836
 10
1906.8315691000005
 20
296.76644776318363
 10
1905.4986731000004
 20
288.43584676318363
 10
1905.9985091000005
 20
254.11377176318356
  0
CIRCLE
  5
1EF
330
1F
100
AcDbEntity
  8
0
 62
3
100
AcDbCircle
 10
1981.6138271000004
 20
285.81227676318366
 30
0.0
 40
11.0
  0
CIRCLE
  5
1F0
330
1F
100
AcDbEntity
  8
0
 62
3
100
AcDbCircle
 10
1954.2228121000003
 20
50.08959576318369
 30
0.0
 40
11.0
  0
LWPOLYLINE
  5
1F1
330
1F
100
AcDbEntity
  8
0
 62
3
100
AcDbPolyline
 90
54
 70
1
 10
1905.4987281200001
 20
1221.9108580417414
 10
1906.54005312
 20
1211.7290130417416
 10
1909.2012171200001
 20
1203.7455200417414
 10
1918.2260351200002
 20
1185.6958850417416
 10
1921.92852412
 20
1181.4148820417415
 10
1931.30045012
 20
1175.2826340417416
 10
1939.6310511200002
 20
1172.6214700417415
 10
1962.5402031200001
 20
1170.3074140417416
 10
2069.66413912
 20
1167.5209210417415
 10
2143.37125912
 20
1166.9618450417415
 10
2149.61921012
 20
1168.4659810417415
 10
2160.37956912
 20
1177.0279880417415
 10
2165.35478912
 20
1183.8544520417415
 10
2172.5283621199997
 20
1198.5487060417415
 10
2179.47052912
 20
1218.3338830417415
 10
2183.05731612
 20
1224.2347260417416
 10
2189.30526612
 20
1228.7471340417414
 10
2199.48711212
 20
1232.7967320417415
 10
2205.73506212
 20
1233.4909490417415
 10
2229.5698371199996
 20
1234.0694630417415
 10
2307.7497491199997
 20
1233.8101030417415
 10
2320.5233371199997
 20
1235.1985370417415
 10
2331.35311812
 20
1240.3357410417416
 10
2348.84737912
 20
1254.2200750417414
 10
2353.98458312
 20
1261.0233990417414
 10
2358.56641412
 20
1268.9374700417416
 10
2360.64906412
 20
1273.6581440417415
 10
2361.4821241199998
 20
1280.4614680417415
 10
2362.45402712
 20
1489.1430180417415
 10
2358.42757012
 20
1503.8604130417414
 10
2345.0986091199998
 20
1535.1001660417414
 10
2334.96304512
 20
1546.4853200417415
 10
2324.41095012
 20
1553.8440180417415
 10
2305.38941212
 20
1563.5630520417415
 10
2281.50835612
 20
1566.6176060417415
 10
2250.96282012
 20
1568.8390990417415
 10
2208.89328612
 20
1571.0605930417414
 10
2119.61701412
 20
1578.1416030417415
 10
2109.89797912
 20
1579.8077240417415
 10
2099.90125812
 20
1582.7234340417415
 10
2092.54256112
 20
1585.7779880417415
 10
2082.26815312
 20
1591.4705650417416
 10
2075.32598612
 20
1596.6077690417417
 10
2071.16068612
 20
1597.9962020417415
 10
2065.74579512
 20
1598.4127320417415
 10
2006.04315612
 20
1598.4127320417415
 10
1937.2990381200002
 20
1601.2007070417415
 10
1929.1072811200002
 20
1598.8403700417414
 10
1923.97007712
 20
1595.2304430417414
 10
1917.4444391200002
 20
1589.3990220417415
 10
1912.8626091200001
 20
1584.5395050417417
 10
1908.8361521200002
 20
1572.8766640417414
 10
1907.4477181200002
 20
1563.0187860417416
 10
1906.7535021200001
 20
1553.8551250417415
  0
LWPOLYLINE
  5
1F2
330
1F
100
AcDbEntity
  8
0
 62
3
100
AcDbPolyline
 90
58
 70
1
 10
2233.7992111000003
 20
1205.5784146519245
 10
2211.9730371000005
 20
1204.0789056519245
 10
2198.3108521000004
 20
1200.5800536519246
 10
2175.8182301000006
 20
1188.2507646519246
 10
2156.4912361000006
 20
1172.5892346519245
 10
2127.3341331
 20
1147.9306566519247
 10
2098.5102541000006
 20
1122.1057936519244
 10
2061.1891621000004
 20
1091.7824066519245
 10
2056.3574141000004
 20
1086.1175986519245
 10
2048.6932611
 20
1074.1215336519247
 10
2046.6939171000006
 20
1067.9568886519244
 10
2046.3606931000006
 20
1058.7932276519246
 10
2048.0974571
 20
988.0191096519243
 10
2051.2164341000002
 20
932.5972886519243
 10
2051.9361971000003
 20
888.9316106519243
 10
2052.4160401000004
 20
800.6405716519242
 10
2049.5369841
 20
709.2305546519243
 10
2046.1780861000007
 20
687.6376376519243
 10
2039.7002111000006
 20
651.4095206519244
 10
2025.3049331000007
 20
580.6327366519242
 10
2023.8654051000008
 20
565.7576156519242
 10
2023.8654051000008
 20
547.0437536519244
 10
2027.2243031000007
 20
526.6504426519243
 10
2031.0630441000008
 20
514.4144566519242
 10
2038.500605100001
 20
498.57965065192445
 10
2049.0571421000004
 20
483.9444506519243
 10
2058.1741511000005
 20
474.3475986519244
 10
2075.6884071000004
 20
464.5108256519244
 10
2086.9647081000003
 20
460.91200565192446
 10
2097.7611661
 20
458.0329496519245
 10
2106.1584121000005
 20
456.5934226519245
 10
2348.9587711000004
 20
454.91397365192455
 10
2376.5497211
 20
459.4724776519244
 10
2390.9449991
 20
466.4301956519245
 10
2402.2213001000005
 20
475.0673626519244
 10
2415.6568931
 20
492.58161765192443
 10
2432.9312271000003
 20
518.2531976519243
 10
2437.4897321000003
 20
535.2876096519243
 10
2444.4474501000004
 20
553.5216286519243
 10
2464.3609181
 20
578.7133656519244
 10
2483.3147011000005
 20
597.6671486519243
 10
2487.8732061000005
 20
606.7841586519245
 10
2490.5123401000005
 20
621.1794366519244
 10
2491.4720251000003
 20
640.3731406519245
 10
2491.9518681000004
 20
727.4357836519245
 10
2496.5122921
 20
804.5484096519244
 10
2498.9997961000004
 20
984.0632866519244
 10
2496.9268761000003
 20
1001.4758156519244
 10
2495.2391101000003
 20
1129.6593696519246
 10
2492.6399621000005
 20
1142.6551066519244
 10
2489.6409461000003
 20
1151.6521556519244
 10
2480.2440281000004
 20
1165.2476966519246
 10
2468.4478971000003
 20
1180.6426466519245
 10
2457.4515041000004
 20
1188.4400886519245
 10
2443.0562261000005
 20
1197.2372036519246
 10
2427.0614731000005
 20
1202.2355636519244
 10
2411.8664571000004
 20
1203.6351046519246
 10
2387.8743261000004
 20
1204.6347766519245
  0
LWPOLYLINE
  5
1F3
330
1F
100
AcDbEntity
  8
0
 62
3
100
AcDbPolyline
 90
50
 70
1
 10
2043.7491511000003
 20
1710.9303131000004
 10
2044.1490201000004
 20
1705.7320181000005
 10
2048.3476431
 20
1693.1361491000005
 10
2055.3453471000003
 20
1679.5406091000004
 10
2062.9428551
 20
1668.5442161000003
 10
2075.9385931
 20
1658.7474291000003
 10
2084.7357071
 20
1655.3485441000005
 10
2091.7334121
 20
1654.9486751000004
 10
2176.7055401000002
 20
1653.9490031000005
 10
2191.7006221
 20
1652.5494621000005
 10
2203.8966211
 20
1649.9503151000004
 10
2216.6924241
 20
1645.1518891000005
 10
2226.4892111
 20
1639.3537911000003
 10
2235.4862591
 20
1627.9575291000003
 10
2246.6825871
 20
1597.1676281000005
 10
2257.6789801
 20
1577.5740551000004
 10
2262.6773401
 20
1573.1754981000004
 10
2270.6747171
 20
1569.5766781000004
 10
2276.8726841000002
 20
1567.9772031000005
 10
2287.2692741
 20
1567.1774651000003
 10
2314.6602901
 20
1566.1777931000004
 10
2380.4387141
 20
1568.5770061000005
 10
2468.4098581
 20
1572.3757601000004
 10
2475.8074321
 20
1574.3751041000005
 10
2481.6055301
 20
1578.3737931000005
 10
2491.0024471
 20
1586.5711041000004
 10
2497.2004141
 20
1598.1673001000004
 10
2497.4003491
 20
1609.9634311000004
 10
2498.9998240999994
 20
1959.2488621000005
 10
2497.0004800999995
 20
1971.4448611000005
 10
2493.4016610999997
 20
1980.6418451000004
 10
2487.2036940999997
 20
1988.2393521000004
 10
2476.4072350999995
 20
1995.4369921000005
 10
2469.6094650999994
 20
1998.2360731000003
 10
2337.1129250999998
 20
1998.9998231000004
 10
2330.1152200999995
 20
1996.8338671000004
 10
2318.1191550999997
 20
1991.1690581000005
 10
2296.7928170999994
 20
1978.3399331000003
 10
2283.6304680999997
 20
1975.0076931000006
 10
2270.4681180999996
 20
1973.1749601000004
 10
2227.1489940999995
 20
1970.0093321000004
 10
2188.3283940999995
 20
1968.5098241000003
 10
2110.6871950999994
 20
1963.8446881000004
 10
2091.3602010999994
 20
1957.1802071000004
 10
2076.6983430999994
 20
1949.1828301000003
 10
2064.5356660999996
 20
1938.0198251000004
 10
2054.3723330999997
 20
1924.8574761000004
 10
2047.7078531000002
 20
1910.1956181000003
 10
2044.3756121000004
 20
1899.1992251000004
 10
2042.7094921000003
 20
1883.5376961000004
  0
ENDSEC
  0
SECTION
  2
OBJECTS
  0
DICTIONARY
  5
C
330
0
100
AcDbDictionary
281
1
  3
ACAD_SCALELIST
350
1AB
  3
ACAD_COLOR
350
1BD
  3
ACAD_FIELDLIST
350
1BE
  3
ACAD_GROUP
350
D
  3
ACAD_IMAGE_DICT
350
1BF
  3
ACAD_LAYOUT
350
1A
  3
ACAD_MATERIAL
350
1C0
  3
ACAD_MLEADERSTYLE
350
1C1
  3
ACAD_MLINESTYLE
350
17
  3
ACAD_PLOTSETTINGS
350
19
  3
ACAD_PLOTSTYLENAME
350
E
  3
ACAD_TABLESTYLE
350
1C3
  3
ACDB_RECOMPOSE_DATA
350
1C7
  3
AcDbVariableDictionary
350
1C8
  3
ACAD_VISUALSTYLE
350
1CB
  3
DWGPROPS
350
1CC
  3
EZDXF_META
350
1F6
  0
DICTIONARY
  5
1C5
330
1C4
100
AcDbDictionary
281
1
  3
ACAD_ROUNDTRIP_2008_TABLESTYLE_CELLSTYLEMAP
360
1C6
  0
DICTIONARY
  5
1AB
102
{ACAD_REACTORS
330
C
102
}
330
C
100
AcDbDictionary
281
1
  0
DICTIONARY
  5
1BD
102
{ACAD_REACTORS
330
C
102
}
330
C
100
AcDbDictionary
281
1
  0
FIELDLIST
  5
1BE
102
{ACAD_REACTORS
330
C
102
}
330
C
100
AcDbIdSet
 90
0
100
AcDbFieldList
  0
DICTIONARY
  5
D
102
{ACAD_REACTORS
330
C
102
}
330
C
100
AcDbDictionary
281
1
  0
DICTIONARY
  5
1BF
102
{ACAD_REACTORS
330
C
102
}
330
C
100
AcDbDictionary
281
1
  0
DICTIONARY
  5
1A
102
{ACAD_REACTORS
330
C
102
}
330
C
100
AcDbDictionary
281
1
  3
Layout1
350
1E
  3
Model
350
22
  0
DICTIONARY
  5
1C0
102
{ACAD_REACTORS
330
C
102
}
330
C
100
AcDbDictionary
281
1
  3
ByBlock
350
1CF
  3
ByLayer
350
1D0
  3
Global
350
1D1
  0
DICTIONARY
  5
1C1
102
{ACAD_REACTORS
330
C
102
}
330
C
100
AcDbDictionary
281
1
  3
Standard
350
1C2
  0
DICTIONARY
  5
17
102
{ACAD_REACTORS
330
C
102
}
330
C
100
AcDbDictionary
281
1
  3
STANDARD
350
18
  0
DICTIONARY
  5
19
102
{ACAD_REACTORS
330
C
102
}
330
C
100
AcDbDictionary
281
1
  0
ACDBDICTIONARYWDFLT
  5
E
102
{ACAD_REACTORS
330
C
102
}
330
C
100
AcDbDictionary
281
1
  3
Normal
350
F
100
AcDbDictionaryWithDefault
340
F
  0
ACDBPLACEHOLDER
  5
F
102
{ACAD_REACTORS
330
E
102
}
330
E
  0
DICTIONARY
  5
1C3
102
{ACAD_REACTORS
330
C
102
}
330
C
100
AcDbDictionary
281
1
  3
Standard
350
1C4
  0
XRECORD
  5
1C7
102
{ACAD_REACTORS
330
C
102
}
330
C
100
AcDbXrecord
280
1
 90
1
330
1C4
  0
DICTIONARY
  5
1C8
102
{ACAD_REACTORS
330
C
102
}
330
C
100
AcDbDictionary
281
1
  3
DIMASSOC
350
1C9
  3
HIDETEXT
350
1CA
  0
DICTIONARY
  5
1CB
102
{ACAD_REACTORS
330
C
102
}
330
C
100
AcDbDictionary
281
1
  0
XRECORD
  5
1CC
102
{ACAD_REACTORS
330
C
102
}
330
C
100
AcDbXrecord
280
0
  1
DWGPROPS COOKIE
  2

  3

  4

  6

  7

  8

  9

300
=
301
=
302
=
303
=
304
=
305
=
306
=
307
=
308
=
309
=
 40
0.0
 41
2460962.9612866202
 42
2460962.9612866202
  1

 90
0
  0
CELLSTYLEMAP
  5
1C6
102
{ACAD_REACTORS
330
1C5
102
}
330
1C5
100
AcDbCellStyleMap
 90
3
300
CELLSTYLE
  1
TABLEFORMAT_BEGIN
 90
5
170
0
309
TABLEFORMAT_END
  1
CELLSTYLE_BEGIN
 90
3
 91
2
300
_DATA
309
CELLSTYLE_END
300
CELLSTYLE
  1
TABLEFORMAT_BEGIN
 90
5
170
0
309
TABLEFORMAT_END
  1
CELLSTYLE_BEGIN
 90
1
 91
2
300
_TITLE
309
CELLSTYLE_END
300
CELLSTYLE
  1
TABLEFORMAT_BEGIN
 90
5
170
0
309
TABLEFORMAT_END
  1
CELLSTYLE_BEGIN
 90
2
 91
2
300
_HEADER
309
CELLSTYLE_END
  0
LAYOUT
  5
1E
102
{ACAD_REACTORS
330
1A
102
}
330
1A
100
AcDbPlotSettings
  1

  2
C:\Program Files\AutoCAD 2002\plotters\DWF ePlot (optimized for plotting).pc3
  4

  6

 40
0.0
 41
0.0
 42
0.0
 43
0.0
 44
0.0
 45
0.0
 46
0.0
 47
0.0
 48
0.0
 49
0.0
140
0.0
141
0.0
142
1.0
143
1.0
 70
688
 72
1
 73
1
 74
1
  7
acad.stb
 75
16
 76
0
 77
0
 78
0
147
1.0
148
0.0
149
0.0
100
AcDbLayout
  1
Layout1
 70
1
 71
1
 10
0.0
 20
0.0
 11
420.0
 21
297.0
 12
0.0
 22
0.0
 32
0.0
 14
0.0
 24
0.0
 34
0.0
 15
0.0
 25
0.0
 35
0.0
146
0.0
 13
0.0
 23
0.0
 33
0.0
 16
1.0
 26
0.0
 36
0.0
 17
0.0
 27
1.0
 37
0.0
 76
0
330
1A6
  0
LAYOUT
  5
22
102
{ACAD_REACTORS
330
1A
102
}
330
1A
100
AcDbPlotSettings
  1

  2
C:\Program Files\AutoCAD 2002\plotters\DWF ePlot (optimized for plotting).pc3
  4

  6

 40
0.0
 41
0.0
 42
0.0
 43
0.0
 44
0.0
 45
0.0
 46
0.0
 47
0.0
 48
0.0
 49
0.0
140
0.0
141
0.0
142
1.0
143
1.0
 70
1712
 72
1
 73
1
 74
0
  7
acad.stb
 75
0
 76
0
 77
0
 78
0
147
1.0
148
0.0
149
0.0
100
AcDbLayout
  1
Model
 70
1
 71
0
 10
0.0
 20
0.0
 11
12.0
 21
9.0
 12
0.0
 22
0.0
 32
0.0
 14
0.0
 24
0.0
 34
0.0
 15
0.0
 25
0.0
 35
0.0
146
0.0
 13
0.0
 23
0.0
 33
0.0
 16
1.0
 26
0.0
 36
0.0
 17
0.0
 27
1.0
 37
0.0
 76
0
330
1F
  0
MLEADERSTYLE
  5
1C2
102
{ACAD_REACTORS
330
1C1
102
}
330
1C1
100
AcDbMLeaderStyle
179
2
170
2
171
1
172
0
 90
2
 40
0.0
 41
0.0
173
1
 91
0
340
0
 92
-2
290
1
 42
0.09
291
1
 43
0.36
  3
Standard
341
0
 44
0.18
300

342
0
174
1
175
1
176
0
178
1
 93
0
 45
0.18
292
0
297
0
 46
0.0
293
1
343
0
 94
0
 47
1.0
 49
1.0
140
1.0
294
1
141
0.0
177
0
142
1.0
295
0
296
0
143
0.125
271
0
272
9
273
9
  0
MLINESTYLE
  5
18
102
{ACAD_REACTORS
330
17
102
}
330
17
100
AcDbMlineStyle
  2
STANDARD
 70
0
  3

 62
256
 51
90.0
 52
90.0
 71
2
 49
0.5
 62
0
  6
ByLayer
 49
-0.5
 62
0
  6
ByLayer
  0
TABLESTYLE
  5
1C4
102
{ACAD_XDICTIONARY
360
1C5
102
}
102
{ACAD_REACTORS
330
1C3
102
}
330
1C3
100
AcDbTableStyle
  3

 70
0
 71
0
 40
0.06
 41
0.06
280
0
281
0
  7
Standard
140
0.18
170
1
 62
0
283
0
 90
512
 91
0
274
-2
284
1
 64
0
275
-2
285
1
 65
0
276
-2
286
1
 66
0
277
-2
287
1
 67
0
278
-2
288
1
 68
0
279
-2
289
1
 69
0
  7
Standard
140
0.18
170
1
 62
0
283
0
 90
512
 91
0
274
-2
284
1
 64
0
275
-2
285
1
 65
0
276
-2
286
1
 66
0
277
-2
287
1
 67
0
278
-2
288
1
 68
0
279
-2
289
1
 69
0
  7
Standard
140
0.18
170
1
 62
0
283
0
 90
512
 91
0
274
-2
284
1
 64
0
275
-2
285
1
 65
0
276
-2
286
1
 66
0
277
-2
287
1
 67
0
278
-2
288
1
 68
0
279
-2
289
1
 69
0
  0
DICTIONARYVAR
  5
1C9
102
{ACAD_REACTORS
330
1C8
102
}
330
1C8
100
DictionaryVariables
280
0
  1
1
  0
DICTIONARYVAR
  5
1CA
102
{ACAD_REACTORS
330
1C8
102
}
330
1C8
100
DictionaryVariables
280
0
  1
2
  0
MATERIAL
  5
1CF
102
{ACAD_REACTORS
330
1C0
102
}
330
1C0
100
AcDbMaterial
  1
ByBlock
  2

 70
0
 40
1.0
 71
1
 41
1.0
 91
-1023410177
 42
1.0
 72
1
  3

 73
1
 74
1
 75
1
 44
0.5
 73
0
 45
1.0
 46
1.0
 77
1
  4

 78
1
 79
1
170
1
 48
1.0
171
1
  6

172
1
173
1
174
1
140
1.0
141
1.0
175
1
  7

176
1
177
1
178
1
143
1.0
179
1
  8

270
1
271
1
272
1
145
1.0
146
1.0
273
1
  9

274
1
275
1
276
1
 42
1.0
 72
1
  3

 73
1
 74
1
 75
1
 94
63
  0
MATERIAL
  5
1D0
102
{ACAD_REACTORS
330
1C0
102
}
330
1C0
100
AcDbMaterial
  1
ByLayer
  2

 70
0
 40
1.0
 71
1
 41
1.0
 91
-1023410177
 42
1.0
 72
1
  3

 73
1
 74
1
 75
1
 44
0.5
 73
0
 45
1.0
 46
1.0
 77
1
  4

 78
1
 79
1
170
1
 48
1.0
171
1
  6

172
1
173
1
174
1
140
1.0
141
1.0
175
1
  7

176
1
177
1
178
1
143
1.0
179
1
  8

270
1
271
1
272
1
145
1.0
146
1.0
273
1
  9

274
1
275
1
276
1
 42
1.0
 72
1
  3

 73
1
 74
1
 75
1
 94
63
  0
MATERIAL
  5
1D1
102
{ACAD_REACTORS
330
1C0
102
}
330
1C0
100
AcDbMaterial
  1
Global
  2

 70
0
 40
1.0
 71
1
 41
1.0
 91
-1023410177
 42
1.0
 72
1
  3

 73
1
 74
1
 75
1
 44
0.5
 73
0
 45
1.0
 46
1.0
 77
1
  4

 78
1
 79
1
170
1
 48
1.0
171
1
  6

172
1
173
1
174
1
140
1.0
141
1.0
175
1
  7

176
1
177
1
178
1
143
1.0
179
1
  8

270
1
271
1
272
1
145
1.0
146
1.0
273
1
  9

274
1
275
1
276
1
 42
1.0
 72
1
  3

 73
1
 74
1
 75
1
 94
63
  0
DICTIONARY
  5
1F6
330
C
100
AcDbDictionary
280
1
281
1
  3
WRITTEN_BY_EZDXF
350
1F7
  0
DICTIONARYVAR
  5
1F7
330
1F6
100
DictionaryVariables
280
0
  1
1.4.2 @ 2025-10-23T07:56:12.882576+00:00
  0
ENDSEC
  0
EOF
