  0
SECTION
  2
HEADER
  9
$ACADVER
  1
AC1027
  9
$ACADMAINTVER
 70
105
  9
$DWGCODEPAGE
  3
ANSI_1252
  9
$LASTSAVEDBY
  1
ezdxf
  9
$REQUIREDVERSIONS
160
0
  9
$INSBASE
 10
0.0
 20
0.0
 30
0.0
  9
$EXTMIN
 10
1e+20
 20
1e+20
 30
1e+20
  9
$EXTMAX
 10
-1e+20
 20
-1e+20
 30
-1e+20
  9
$LIMMIN
 10
0.0
 20
0.0
  9
$LIMMAX
 10
420.0
 20
297.0
  9
$ORTHOMODE
 70
0
  9
$REGENMODE
 70
1
  9
$FILLMODE
 70
1
  9
$QTEXTMODE
 70
0
  9
$MIRRTEXT
 70
1
  9
$LTSCALE
 40
1.0
  9
$ATTMODE
 70
1
  9
$TEXTSIZE
 40
2.5
  9
$TRACEWID
 40
1.0
  9
$TEXTSTYLE
  7
Standard
  9
$CLAYER
  8
0
  9
$CELTYPE
  6
ByLayer
  9
$CECOLOR
 62
256
  9
$CELTSCALE
 40
1.0
  9
$DISPSILH
 70
0
  9
$DIMSCALE
 40
1.0
  9
$DIMASZ
 40
2.5
  9
$DIMEXO
 40
0.625
  9
$DIMDLI
 40
3.75
  9
$DIMRND
 40
0.0
  9
$DIMDLE
 40
0.0
  9
$DIMEXE
 40
1.25
  9
$DIMTP
 40
0.0
  9
$DIMTM
 40
0.0
  9
$DIMTXT
 40
2.5
  9
$DIMCEN
 40
2.5
  9
$DIMTSZ
 40
0.0
  9
$DIMTOL
 70
0
  9
$DIMLIM
 70
0
  9
$DIMTIH
 70
0
  9
$DIMTOH
 70
0
  9
$DIMSE1
 70
0
  9
$DIMSE2
 70
0
  9
$DIMTAD
 70
1
  9
$DIMZIN
 70
8
  9
$DIMBLK
  1

  9
$DIMASO
 70
1
  9
$DIMSHO
 70
1
  9
$DIMPOST
  1

  9
$DIMAPOST
  1

  9
$DIMALT
 70
0
  9
$DIMALTD
 70
3
  9
$DIMALTF
 40
0.03937007874
  9
$DIMLFAC
 40
1.0
  9
$DIMTOFL
 70
1
  9
$DIMTVP
 40
0.0
  9
$DIMTIX
 70
0
  9
$DIMSOXD
 70
0
  9
$DIMSAH
 70
0
  9
$DIMBLK1
  1

  9
$DIMBLK2
  1

  9
$DIMSTYLE
  2
ISO-25
  9
$DIMCLRD
 70
0
  9
$DIMCLRE
 70
0
  9
$DIMCLRT
 70
0
  9
$DIMTFAC
 40
1.0
  9
$DIMGAP
 40
0.625
  9
$DIMJUST
 70
0
  9
$DIMSD1
 70
0
  9
$DIMSD2
 70
0
  9
$DIMTOLJ
 70
0
  9
$DIMTZIN
 70
8
  9
$DIMALTZ
 70
0
  9
$DIMALTTZ
 70
0
  9
$DIMUPT
 70
0
  9
$DIMDEC
 70
2
  9
$DIMTDEC
 70
2
  9
$DIMALTU
 70
2
  9
$DIMALTTD
 70
3
  9
$DIMTXSTY
  7
Standard
  9
$DIMAUNIT
 70
0
  9
$DIMADEC
 70
0
  9
$DIMALTRND
 40
0.0
  9
$DIMAZIN
 70
0
  9
$DIMDSEP
 70
44
  9
$DIMATFIT
 70
3
  9
$DIMFRAC
 70
0
  9
$DIMLDRBLK
  1

  9
$DIMLUNIT
 70
2
  9
$DIMLWD
 70
-2
  9
$DIMLWE
 70
-2
  9
$DIMTMOVE
 70
0
  9
$DIMFXL
 40
1.0
  9
$DIMFXLON
 70
0
  9
$DIMJOGANG
 40
0.785398163397
  9
$DIMTFILL
 70
0
  9
$DIMTFILLCLR
 70
0
  9
$DIMARCSYM
 70
0
  9
$DIMLTYPE
  6

  9
$DIMLTEX1
  6

  9
$DIMLTEX2
  6

  9
$DIMTXTDIRECTION
 70
0
  9
$LUNITS
 70
2
  9
$LUPREC
 70
4
  9
$SKETCHINC
 40
1.0
  9
$FILLETRAD
 40
10.0
  9
$AUNITS
 70
0
  9
$AUPREC
 70
2
  9
$MENU
  1
.
  9
$ELEVATION
 40
0.0
  9
$PELEVATION
 40
0.0
  9
$THICKNESS
 40
0.0
  9
$LIMCHECK
 70
0
  9
$CHAMFERA
 40
0.0
  9
$CHAMFERB
 40
0.0
  9
$CHAMFERC
 40
0.0
  9
$CHAMFERD
 40
0.0
  9
$SKPOLY
 70
0
  9
$TDCREATE
 40
2460972.6295949076
  9
$TDUCREATE
 40
2458532.153996898
  9
$TDUPDATE
 40
2460972.6295949076
  9
$TDUUPDATE
 40
2458532.1544311
  9
$TDINDWG
 40
0.0
  9
$TDUSRTIMER
 40
0.0
  9
$USRTIMER
 70
1
  9
$ANGBASE
 50
0.0
  9
$ANGDIR
 70
0
  9
$PDMODE
 70
0
  9
$PDSIZE
 40
0.0
  9
$PLINEWID
 40
0.0
  9
$SPLFRAME
 70
0
  9
$SPLINETYPE
 70
6
  9
$SPLINESEGS
 70
8
  9
$HANDSEED
  5
46
  9
$SURFTAB1
 70
6
  9
$SURFTAB2
 70
6
  9
$SURFTYPE
 70
6
  9
$SURFU
 70
6
  9
$SURFV
 70
6
  9
$UCSBASE
  2

  9
$UCSNAME
  2

  9
$UCSORG
 10
0.0
 20
0.0
 30
0.0
  9
$UCSXDIR
 10
1.0
 20
0.0
 30
0.0
  9
$UCSYDIR
 10
0.0
 20
1.0
 30
0.0
  9
$UCSORTHOREF
  2

  9
$UCSORTHOVIEW
 70
0
  9
$UCSORGTOP
 10
0.0
 20
0.0
 30
0.0
  9
$UCSORGBOTTOM
 10
0.0
 20
0.0
 30
0.0
  9
$UCSORGLEFT
 10
0.0
 20
0.0
 30
0.0
  9
$UCSORGRIGHT
 10
0.0
 20
0.0
 30
0.0
  9
$UCSORGFRONT
 10
0.0
 20
0.0
 30
0.0
  9
$UCSORGBACK
 10
0.0
 20
0.0
 30
0.0
  9
$PUCSBASE
  2

  9
$PUCSNAME
  2

  9
$PUCSORG
 10
0.0
 20
0.0
 30
0.0
  9
$PUCSXDIR
 10
1.0
 20
0.0
 30
0.0
  9
$PUCSYDIR
 10
0.0
 20
1.0
 30
0.0
  9
$PUCSORTHOREF
  2

  9
$PUCSORTHOVIEW
 70
0
  9
$PUCSORGTOP
 10
0.0
 20
0.0
 30
0.0
  9
$PUCSORGBOTTOM
 10
0.0
 20
0.0
 30
0.0
  9
$PUCSORGLEFT
 10
0.0
 20
0.0
 30
0.0
  9
$PUCSORGRIGHT
 10
0.0
 20
0.0
 30
0.0
  9
$PUCSORGFRONT
 10
0.0
 20
0.0
 30
0.0
  9
$PUCSORGBACK
 10
0.0
 20
0.0
 30
0.0
  9
$USERI1
 70
0
  9
$USERI2
 70
0
  9
$USERI3
 70
0
  9
$USERI4
 70
0
  9
$USERI5
 70
0
  9
$USERR1
 40
0.0
  9
$USERR2
 40
0.0
  9
$USERR3
 40
0.0
  9
$USERR4
 40
0.0
  9
$USERR5
 40
0.0
  9
$WORLDVIEW
 70
1
  9
$SHADEDGE
 70
3
  9
$SHADEDIF
 70
70
  9
$TILEMODE
 70
1
  9
$MAXACTVP
 70
64
  9
$PINSBASE
 10
0.0
 20
0.0
 30
0.0
  9
$PLIMCHECK
 70
0
  9
$PEXTMIN
 10
1e+20
 20
1e+20
 30
1e+20
  9
$PEXTMAX
 10
-1e+20
 20
-1e+20
 30
-1e+20
  9
$PLIMMIN
 10
0.0
 20
0.0
  9
$PLIMMAX
 10
420.0
 20
297.0
  9
$UNITMODE
 70
0
  9
$VISRETAIN
 70
1
  9
$PLINEGEN
 70
0
  9
$PSLTSCALE
 70
1
  9
$TREEDEPTH
 70
3020
  9
$CMLSTYLE
  2
Standard
  9
$CMLJUST
 70
0
  9
$CMLSCALE
 40
20.0
  9
$PROXYGRAPHICS
 70
1
  9
$MEASUREMENT
 70
1
  9
$CELWEIGHT
370
-1
  9
$ENDCAPS
280
0
  9
$JOINSTYLE
280
0
  9
$LWDISPLAY
290
0
  9
$INSUNITS
 70
6
  9
$HYPERLINKBASE
  1

  9
$STYLESHEET
  1

  9
$XEDIT
290
1
  9
$CEPSNTYPE
380
0
  9
$PSTYLEMODE
290
1
  9
$FINGERPRINTGUID
  2
{4008AF73-7440-4EFB-982E-ECB1DDF0A3B8}
  9
$VERSIONGUID
  2
{5FB11452-76EE-4F9F-B8EE-DC7C37536CED}
  9
$EXTNAMES
290
1
  9
$PSVPSCALE
 40
0.0
  9
$OLESTARTUP
290
0
  9
$SORTENTS
280
127
  9
$INDEXCTL
280
0
  9
$HIDETEXT
280
1
  9
$XCLIPFRAME
280
1
  9
$HALOGAP
280
0
  9
$OBSCOLOR
 70
257
  9
$OBSLTYPE
280
0
  9
$INTERSECTIONDISPLAY
280
0
  9
$INTERSECTIONCOLOR
 70
257
  9
$DIMASSOC
280
2
  9
$PROJECTNAME
  1

  9
$CAMERADISPLAY
290
0
  9
$LENSLENGTH
 40
50.0
  9
$CAMERAHEIGHT
 40
0.0
  9
$STEPSPERSEC
 40
24.0
  9
$STEPSIZE
 40
100.0
  9
$3DDWFPREC
 40
2.0
  9
$PSOLWIDTH
 40
0.005
  9
$PSOLHEIGHT
 40
0.08
  9
$LOFTANG1
 40
1.570796326795
  9
$LOFTANG2
 40
1.570796326795
  9
$LOFTMAG1
 40
0.0
  9
$LOFTMAG2
 40
0.0
  9
$LOFTPARAM
 70
7
  9
$LOFTNORMALS
280
1
  9
$LATITUDE
 40
37.795
  9
$LONGITUDE
 40
-122.394
  9
$NORTHDIRECTION
 40
0.0
  9
$TIMEZONE
 70
-8000
  9
$LIGHTGLYPHDISPLAY
280
1
  9
$TILEMODELIGHTSYNCH
280
1
  9
$CMATERIAL
347
20
  9
$SOLIDHIST
280
0
  9
$SHOWHIST
280
1
  9
$DWFFRAME
280
2
  9
$DGNFRAME
280
2
  9
$REALWORLDSCALE
290
1
  9
$INTERFERECOLOR
 62
256
  9
$CSHADOW
280
0
  9
$SHADOWPLANELOCATION
 40
0.0
  0
ENDSEC
  0
SECTION
  2
CLASSES
  0
CLASS
  1
ACDBDICTIONARYWDFLT
  2
AcDbDictionaryWithDefault
  3
ObjectDBX Classes
 90
0
 91
0
280
0
281
0
  0
CLASS
  1
SUN
  2
AcDbSun
  3
SCENEOE
 90
1153
 91
0
280
0
281
0
  0
CLASS
  1
VISUALSTYLE
  2
AcDbVisualStyle
  3
ObjectDBX Classes
 90
4095
 91
0
280
0
281
0
  0
CLASS
  1
MATERIAL
  2
AcDbMaterial
  3
ObjectDBX Classes
 90
1153
 91
0
280
0
281
0
  0
CLASS
  1
SCALE
  2
AcDbScale
  3
ObjectDBX Classes
 90
1153
 91
0
280
0
281
0
  0
CLASS
  1
TABLESTYLE
  2
AcDbTableStyle
  3
ObjectDBX Classes
 90
4095
 91
0
280
0
281
0
  0
CLASS
  1
MLEADERSTYLE
  2
AcDbMLeaderStyle
  3
ACDB_MLEADERSTYLE_CLASS
 90
4095
 91
0
280
0
281
0
  0
CLASS
  1
DICTIONARYVAR
  2
AcDbDictionaryVar
  3
ObjectDBX Classes
 90
0
 91
0
280
0
281
0
  0
CLASS
  1
CELLSTYLEMAP
  2
AcDbCellStyleMap
  3
ObjectDBX Classes
 90
1152
 91
0
280
0
281
0
  0
CLASS
  1
MENTALRAYRENDERSETTINGS
  2
AcDbMentalRayRenderSettings
  3
SCENEOE
 90
1024
 91
0
280
0
281
0
  0
CLASS
  1
ACDBDETAILVIEWSTYLE
  2
AcDbDetailViewStyle
  3
ObjectDBX Classes
 90
1025
 91
0
280
0
281
0
  0
CLASS
  1
ACDBSECTIONVIEWSTYLE
  2
AcDbSectionViewStyle
  3
ObjectDBX Classes
 90
1025
 91
0
280
0
281
0
  0
CLASS
  1
RASTERVARIABLES
  2
AcDbRasterVariables
  3
ISM
 90
0
 91
0
280
0
281
0
  0
CLASS
  1
ACDBPLACEHOLDER
  2
AcDbPlaceHolder
  3
ObjectDBX Classes
 90
0
 91
0
280
0
281
0
  0
CLASS
  1
LAYOUT
  2
AcDbLayout
  3
ObjectDBX Classes
 90
0
 91
0
280
0
281
0
  0
ENDSEC
  0
SECTION
  2
TABLES
  0
TABLE
  2
VPORT
  5
8
330
0
100
AcDbSymbolTable
 70
1
  0
VPORT
  5
23
330
8
100
AcDbSymbolTableRecord
100
AcDbViewportTableRecord
  2
*Active
 70
0
 10
0.0
 20
0.0
 11
1.0
 21
1.0
 12
0.0
 22
0.0
 13
0.0
 23
0.0
 14
0.5
 24
0.5
 15
0.5
 25
0.5
 16
0.0
 26
0.0
 36
1.0
 17
0.0
 27
0.0
 37
0.0
 40
1000.0
 41
1.34
 42
50.0
 43
0.0
 44
0.0
 50
0.0
 51
0.0
 71
0
 72
1000
 73
1
 74
3
 75
0
 76
0
 77
0
 78
0
281
0
 65
0
146
0.0
  0
ENDTAB
  0
TABLE
  2
LTYPE
  5
2
330
0
100
AcDbSymbolTable
 70
3
  0
LTYPE
  5
24
330
2
100
AcDbSymbolTableRecord
100
AcDbLinetypeTableRecord
  2
ByBlock
 70
0
  3

 72
65
 73
0
 40
0.0
  0
LTYPE
  5
25
330
2
100
AcDbSymbolTableRecord
100
AcDbLinetypeTableRecord
  2
ByLayer
 70
0
  3

 72
65
 73
0
 40
0.0
  0
LTYPE
  5
26
330
2
100
AcDbSymbolTableRecord
100
AcDbLinetypeTableRecord
  2
Continuous
 70
0
  3

 72
65
 73
0
 40
0.0
  0
ENDTAB
  0
TABLE
  2
LAYER
  5
1
330
0
100
AcDbSymbolTable
 70
2
  0
LAYER
  5
27
330
1
100
AcDbSymbolTableRecord
100
AcDbLayerTableRecord
  2
0
 70
0
 62
7
  6
Continuous
370
-3
390
13
347
21
  0
LAYER
  5
28
330
1
100
AcDbSymbolTableRecord
100
AcDbLayerTableRecord
  2
Defpoints
 70
0
 62
7
  6
Continuous
290
0
370
-3
390
13
347
21
  0
ENDTAB
  0
TABLE
  2
STYLE
  5
5
330
0
100
AcDbSymbolTable
 70
1
  0
STYLE
  5
29
330
5
100
AcDbSymbolTableRecord
100
AcDbTextStyleTableRecord
  2
Standard
 70
0
 40
0.0
 41
1.0
 50
0.0
 71
0
 42
2.5
  3
txt
  4

  0
ENDTAB
  0
TABLE
  2
VIEW
  5
7
330
0
100
AcDbSymbolTable
 70
0
  0
ENDTAB
  0
TABLE
  2
UCS
  5
6
330
0
100
AcDbSymbolTable
 70
0
  0
ENDTAB
  0
TABLE
  2
APPID
  5
3
330
0
100
AcDbSymbolTable
 70
3
  0
APPID
  5
2A
330
3
100
AcDbSymbolTableRecord
100
AcDbRegAppTableRecord
  2
ACAD
 70
0
  0
APPID
  5
43
330
3
100
AcDbSymbolTableRecord
100
AcDbRegAppTableRecord
  2
HATCHBACKGROUNDCOLOR
 70
0
  0
APPID
  5
44
330
3
100
AcDbSymbolTableRecord
100
AcDbRegAppTableRecord
  2
EZDXF
 70
0
  0
ENDTAB
  0
TABLE
  2
DIMSTYLE
  5
4
330
0
100
AcDbSymbolTable
 70
1
100
AcDbDimStyleTable
  0
DIMSTYLE
105
2B
330
4
100
AcDbSymbolTableRecord
100
AcDbDimStyleTableRecord
  2
Standard
 70
0
 40
1.0
 41
2.5
 42
0.625
 43
3.75
 44
1.25
 45
0.0
 46
0.0
 47
0.0
 48
0.0
 49
2.5
140
2.5
141
2.5
142
0.0
143
0.03937007874
144
1.0
145
0.0
146
1.0
147
0.625
148
0.0
 69
0
 70
0
 71
0
 72
0
 73
0
 74
0
 75
0
 76
0
 77
1
 78
8
 79
3
170
0
171
3
172
1
173
0
174
0
175
0
176
0
177
0
178
0
179
2
271
2
272
2
273
2
274
3
275
0
276
0
277
2
278
44
279
0
280
0
281
0
282
0
283
0
284
8
285
0
286
0
288
0
289
3
290
0
371
-2
372
-2
  0
ENDTAB
  0
TABLE
  2
BLOCK_RECORD
  5
9
330
0
100
AcDbSymbolTable
 70
2
  0
BLOCK_RECORD
  5
17
330
9
100
AcDbSymbolTableRecord
100
AcDbBlockTableRecord
  2
*Model_Space
340
1A
 70
0
280
1
281
0
  0
BLOCK_RECORD
  5
1B
330
9
100
AcDbSymbolTableRecord
100
AcDbBlockTableRecord
  2
*Paper_Space
340
1E
 70
0
280
1
281
0
  0
ENDTAB
  0
ENDSEC
  0
SECTION
  2
BLOCKS
  0
BLOCK
  5
18
330
17
100
AcDbEntity
  8
0
100
AcDbBlockBegin
  2
*Model_Space
 70
0
 10
0.0
 20
0.0
 30
0.0
  3
*Model_Space
  1

  0
ENDBLK
  5
19
330
17
100
AcDbEntity
  8
0
100
AcDbBlockEnd
  0
BLOCK
  5
1C
330
1B
100
AcDbEntity
  8
0
100
AcDbBlockBegin
  2
*Paper_Space
 70
0
 10
0.0
 20
0.0
 30
0.0
  3
*Paper_Space
  1

  0
ENDBLK
  5
1D
330
1B
100
AcDbEntity
  8
0
100
AcDbBlockEnd
  0
ENDSEC
  0
SECTION
  2
ENTITIES
  0
LWPOLYLINE
  5
2F
330
17
100
AcDbEntity
  8
0
100
AcDbPolyline
 90
92
 70
0
 10
38.808088302612305
 20
1922.5314911000003
 10
47.50608682632446
 20
1834.319516002344
 10
49.49077367782593
 20
1826.7808349720706
 10
50.43537139892578
 20
1819.0427215687503
 10
50.32244682312012
 20
1811.247998058008
 10
49.154088497161865
 20
1803.5405166737307
 10
48.37371826171875
 20
1799.5870407215823
 10
47.10284948348999
 20
1795.7629593006839
 10
45.36161661148071
 20
1792.128811656641
 10
43.17761421203613
 20
1788.742237865137
 10
40.58544874191284
 20
1785.6568725697268
 10
37.62619972229004
 20
1782.921582042383
 10
34.34675693511963
 20
1780.5797775379885
 10
26.71163231953551
 20
1776.3151600354438
 10
14.956293565230453
 20
1768.5249116516784
 10
7.638087272644043
 20
1762.5845153919925
 10
3.423638343811035
 20
1756.6237075916995
 10
0.06008625030517578
 20
1750.1445205799807
 10
0.0
 20
1647.6735885731448
 10
0.7885503768920898
 20
1644.4567688099612
 10
2.0988035202026367
 20
1641.4148910633792
 10
3.8946008682250977
 20
1638.6319549671878
 10
6.126365661621094
 20
1636.1847122303714
 10
8.73250961303711
 20
1634.1407592884768
 10
14.734992980957031
 20
1631.400814830469
 10
21.1069917678833
 20
1629.6723373524417
 10
30.942134857177734
 20
1628.5805709950198
 10
37.538087368011475
 20
1628.869534312891
 10
52.4022650718689
 20
1630.0469024769534
 10
57.36316460859598
 20
1629.9658832321645
 10
67.29208767414093
 20
1629.2575271717776
 10
71.8841502070427
 20
1627.3349197499026
 10
76.2192696891725
 20
1624.8874481312503
 10
82.11067378520966
 20
1620.3077133290042
 10
83.88408780097961
 20
1618.5595138661135
 10
87.60929942131042
 20
1610.4218872181643
 10
92.68508911132812
 20
1603.0507095448245
 10
98.95864486694336
 20
1596.6678436390628
 10
106.24108791351318
 20
1591.465512096094
 10
113.69412422180176
 20
1589.9039276234378
 10
121.27731800079346
 20
1589.2100341908206
 10
128.88999462127686
 20
1589.3930252186526
 10
136.4310884475708
 20
1590.4505355946292
 10
188.47491264343262
 20
1595.3781707875003
 10
240.60608863830566
 20
1599.2745025746096
 10
390.1190853118892
 20
1599.2745025746096
 10
414.57260263614126
 20
1598.2610651517346
 10
429.1335201263423
 20
1596.8227966419925
 10
443.5597290437272
 20
1594.3787003519385
 10
473.0076503753662
 20
1587.8991134754885
 10
478.6860179901123
 20
1587.6875122181643
 10
484.3361568450923
 20
1588.2910354725589
 10
489.8417186737056
 20
1589.6972854725589
 10
495.0892162322998
 20
1591.877232371973
 10
499.9705410003662
 20
1594.7860153309573
 10
504.3851757049556
 20
1598.3636673084964
 10
508.24210166931107
 20
1602.536526500391
 10
516.9520854949947
 20
1623.0835159413089
 10
516.9520854949942
 20
1928.3325012318362
 10
517.5160884857169
 20
1937.7991302601565
 10
516.3221645355216
 20
1947.2070129505862
 10
513.4114742279044
 20
1956.2326629750003
 10
508.88407707214265
 20
1964.5654876820315
 10
499.37006950378327
 20
1972.0033844105471
 10
488.78054618835404
 20
1977.8086670033206
 10
477.39306449890046
 20
1981.8291290394534
 10
465.50608634948685
 20
1983.9594848744143
 10
451.89444633921266
 20
1986.2963176927285
 10
415.4696663926993
 20
1991.5451605155777
 10
383.39608192443757
 20
1994.5765503041018
 10
180.66396713256745
 20
1998.99992066543
 10
174.73751068115143
 20
1997.9611786000003
 10
168.97686958312897
 20
1996.224270641016
 10
163.46396446227936
 20
1993.813916026758
 10
160.8250904083243
 20
1992.3665435902346
 10
151.6861867904654
 20
1983.2667358509768
 10
139.0081501007071
 20
1968.4343536488284
 10
134.0182065963736
 20
1964.0855224720706
 10
128.54163646697907
 20
1960.368099986719
 10
122.65788555145173
 20
1957.3360260121096
 10
116.45229339599518
 20
1955.0333221546878
 10
110.01487970352082
 20
1953.493328868555
 10
103.43901634216218
 20
1952.7384002796878
 10
92.5681182652238
 20
1952.7080478427556
 10
75.65117477661352
 20
1951.5267326195876
 10
58.35179686546326
 20
1948.1874664417971
 10
53.87458562850952
 20
1946.2366302601565
 10
49.790968894958496
 20
1943.5579498402346
 10
46.21816873550415
 20
1940.2282531849612
 10
43.25874090194702
 20
1936.3432891957034
 10
40.997631549835205
 20
1932.0144470326175
 10
39.49974775314331
 20
1927.3660858265628
  0
LWPOLYLINE
  5
30
330
17
100
AcDbEntity
  8
0
100
AcDbPolyline
 90
95
 70
0
 10
517.5161463026125
 20
1176.720055138998
 10
517.5161463026125
 20
1357.010048425131
 10
512.9996763349814
 20
1366.2080570736275
 10
510.97893774548356
 20
1368.9778266310025
 10
506.3007456068117
 20
1373.9714942335415
 10
500.85110724011247
 20
1378.1096015333462
 10
494.78447973767106
 20
1381.2747321485806
 10
484.905844920298
 20
1384.0242902877528
 10
481.50071203747575
 20
1384.3576941847134
 10
474.6601206068117
 20
1384.1880927442837
 10
469.2138773206789
 20
1388.0488715528775
 10
464.278116822632
 20
1392.5440345167447
 10
449.953165650757
 20
1546.564034020834
 10
446.8853861097414
 20
1556.045692956381
 10
442.0118814710695
 20
1564.738319909506
 10
435.5230814222414
 20
1572.3020253538418
 10
427.9528909925539
 20
1575.6225667356778
 10
419.9880319837648
 20
1577.8348622679043
 10
411.7897135023195
 20
1578.8942036985684
 10
403.52410376110856
 20
1578.7790761350918
 10
377.9242807630617
 20
1577.608955895834
 10
373.6738756488121
 20
1577.2183414526212
 10
326.105509400757
 20
1571.594780480795
 10
312.8256326917726
 20
1571.92559102767
 10
299.6304422620851
 20
1573.4584889768887
 10
286.6284281019289
 20
1576.180733239584
 10
273.926554322632
 20
1580.0699696897793
 10
261.62941992321794
 20
1585.0941548704434
 10
249.83811438122575
 20
1591.2120900511075
 10
240.04128515759294
 20
1593.6745534300137
 10
230.07058203259294
 20
1595.2955708860684
 10
219.9982553724367
 20
1596.0632405638028
 10
209.8970896009523
 20
1595.9720692991543
 10
82.27936804333467
 20
1523.7596974729825
 10
76.72867834606905
 20
1519.4674048780728
 10
71.80611670056214
 20
1514.4671759962368
 10
67.6011759046628
 20
1508.8501105665493
 10
64.19030249157731
 20
1502.718213593893
 10
61.63559973278825
 20
1496.1831794142056
 10
59.98353064099115
 20
1489.363721406393
 10
59.26407873669427
 20
1482.3840437292386
 10
59.11485316645212
 20
1472.6808589871027
 10
59.74369890075923
 20
1453.3266564817507
 10
61.98311865368714
 20
1434.0630445837307
 10
63.45231115856927
 20
1426.3718519567776
 10
64.22646582165521
 20
1418.579951322012
 10
64.29932653942933
 20
1410.7499800085354
 10
63.67035925427331
 20
1402.9450354933072
 10
62.34452307263223
 20
1395.2278266310025
 10
60.332499146851205
 20
1387.6604590772915
 10
57.650461793335126
 20
1380.3038154005337
 10
54.32007849255433
 20
1373.2170997022915
 10
44.62853491345231
 20
1364.5153937696743
 10
34.16512548962419
 20
1356.7590413450528
 10
29.198923707398308
 20
1352.0417104124356
 10
24.846125245484245
 20
1346.7530904173184
 10
22.781458497437143
 20
1340.6638417600918
 10
21.36773169079629
 20
1334.3914876341153
 10
20.62050879040521
 20
1328.005341088705
 10
19.190836549194273
 20
1280.6106267332364
 10
19.845469496613305
 20
1266.980967748157
 10
22.432108521851205
 20
1239.751060998373
 10
26.290064454468165
 20
1229.9382481931973
 10
31.24077856579629
 20
1220.6288228391934
 10
37.21985876599115
 20
1211.944016015463
 10
44.149485230835126
 20
1203.9969334959317
 10
51.93932592907731
 20
1196.891068017416
 10
60.48798620739831
 20
1190.7189259886075
 10
69.68415319958467
 20
1185.56084493392
 10
79.40812170544405
 20
1181.4840398191739
 10
96.69037878552308
 20
1176.6374669431973
 10
114.30237829724092
 20
1173.175705468588
 10
132.133341432007
 20
1171.1206136106778
 10
150.07111609021013
 20
1170.485046899252
 10
198.7374216322023
 20
1169.2578587889004
 10
247.41913855114763
 20
1169.3740544676114
 10
272.2127634290773
 20
1168.894012963705
 10
296.9693094495851
 20
1167.4556813597012
 10
321.6516977552492
 20
1165.0613103269864
 10
346.22307837048356
 20
1161.714409387045
 10
370.6466776136476
 20
1157.4200139402676
 10
394.886026978882
 20
1152.1845326780606
 10
418.90481054821794
 20
1146.015823876791
 10
447.41807043591325
 20
1137.9330907224942
 10
457.0362192396242
 20
1136.652267968588
 10
466.7334085706789
 20
1136.3127599119473
 10
476.4175516370851
 20
1136.917809045248
 10
481.22613012829606
 20
1137.5730595945645
 10
491.4861732412669
 20
1140.681480325549
 10
494.6967417005617
 20
1142.2788701414395
 10
500.6855112318117
 20
1146.1996922849942
 10
505.9615427259523
 20
1151.037148034506
 10
510.3860574964601
 20
1156.6639409422207
 10
515.192661089894
 20
1166.25429995406
 10
516.2403970960695
 20
1169.676598107748
  0
LWPOLYLINE
  5
31
330
17
100
AcDbEntity
  8
0
100
AcDbPolyline
 90
96
 70
0
 10
19.19084730261261
 20
744.090829297916
 10
21.51433249169736
 20
733.6250740744504
 10
22.864324475464173
 20
730.302873060123
 10
26.320936108764954
 20
724.0347151011385
 10
30.745450879272767
 20
718.4079221934238
 10
36.02148237341339
 20
713.5704664439121
 10
45.220799583742064
 20
708.0522514769626
 10
48.55405988806183
 20
706.7486814707677
 10
55.48086347692902
 20
704.9438337534824
 10
65.12411298864777
 20
703.8681272715488
 10
74.82629957311974
 20
703.7352232188144
 10
84.49541273229988
 20
704.5463422984044
 10
94.03986158483895
 20
706.2938169688144
 10
117.80214491003426
 20
713.3865980357091
 10
141.82092847936974
 20
719.5553068369785
 10
166.06027784460412
 20
724.7907880991855
 10
190.48387708776818
 20
729.085183545963
 10
215.05525770300255
 20
732.4320844859044
 10
239.73764600866662
 20
734.8264555186191
 10
264.4941920291744
 20
736.264787122623
 10
289.2878169071041
 20
736.7448286265294
 10
337.9695338260494
 20
736.6286329478183
 10
404.57361402624474
 20
738.4913877695958
 10
422.40457716101037
 20
740.546479627506
 10
440.0165766727291
 20
744.0082411021153
 10
457.29883375280724
 20
748.854813978092
 10
467.02280225866707
 20
752.9316190928381
 10
476.2189692508541
 20
758.0897001475256
 10
484.76762952917534
 20
764.2618421763342
 10
492.55747022741707
 20
771.3677076548498
 10
499.4870966922613
 20
779.314790174381
 10
505.46617689245613
 20
787.9995969981115
 10
510.4168910037838
 20
797.3090223521154
 10
514.274846936401
 20
807.1218351572912
 10
516.5171146699909
 20
829.8114270572709
 10
517.5161189090572
 20
847.9814008921545
 10
517.4894863887812
 20
861.6267383574675
 10
515.3392237674561
 20
901.7622617930334
 10
513.925496960815
 20
908.03461591901
 10
511.8608302127682
 20
914.1238645762365
 10
507.5080317508541
 20
919.4124845713537
 10
502.541829968628
 20
924.1298155039709
 10
492.0784205447999
 20
931.8861631602209
 10
482.38687696569787
 20
940.5878690928381
 10
479.05649366491707
 20
947.6745847910803
 10
476.374456311401
 20
955.0312284678381
 10
474.3624323856202
 20
962.598596021549
 10
473.0365962039791
 20
970.3158048838537
 10
472.40762891882287
 20
978.1207517832678
 10
472.4804896365963
 20
985.9507230967444
 10
473.25464429968224
 20
993.74262373151
 10
474.72383680456505
 20
1001.4338163584631
 10
475.960679380898
 20
1011.059031216049
 10
477.5070636500691
 20
1030.3616281357117
 10
477.44287672155724
 20
1049.754815503971
 10
476.7234248172613
 20
1056.7344907969398
 10
475.07135572546395
 20
1063.5539488047523
 10
472.51665296667534
 20
1070.0889829844398
 10
469.10577955358895
 20
1076.220879957096
 10
464.90083875769005
 20
1081.8379453867835
 10
459.97827711218224
 20
1086.8381742686195
 10
454.4275874149166
 20
1091.1304716319007
 10
448.34985914343224
 20
1094.636865064518
 10
326.8098658572994
 20
1163.3428434580726
 10
316.70870008581505
 20
1163.434014722721
 10
306.6363734256588
 20
1162.6663450449867
 10
296.6656703006588
 20
1161.045327588932
 10
286.868841077026
 20
1158.5828642100257
 10
275.0775355350338
 20
1152.4649290293617
 10
262.78040113561974
 20
1147.4407438486976
 10
250.07852735632287
 20
1143.5515073985023
 10
237.07651319616662
 20
1140.829263135807
 10
223.88132276647912
 20
1139.2963651865882
 10
210.60144605749474
 20
1138.9655546397132
 10
197.34628858679162
 20
1139.8394254893226
 10
179.99089591846268
 20
1142.499212536202
 10
154.52607596868393
 20
1145.2956222952191
 10
124.91724195593224
 20
1146.2649778574867
 10
116.71892347448693
 20
1145.2056364268226
 10
108.75406446569787
 20
1142.993340894596
 10
101.18387403601037
 20
1139.67279951276
 10
94.6951121341549
 20
1132.1090940684242
 10
89.82156934851037
 20
1123.4164671152992
 10
86.7538279544674
 20
1113.9348081797523
 10
85.6118601810299
 20
1104.034829542057
 10
72.42883863561974
 20
959.914803907291
 10
67.49311628454552
 20
955.4196409434238
 10
62.04683485144051
 20
951.5588621348301
 10
51.80112904058501
 20
951.3950624921509
 10
48.43416395300301
 20
950.7480863779941
 10
41.92251386755379
 20
948.6455015391269
 10
35.85588636511238
 20
945.4803709238926
 10
30.406247998413164
 20
941.3422636240879
 10
23.707317373290152
 20
933.5788264373608
 10
21.95394697302254
 20
930.6408170908848
 10
19.19084730261261
 20
924.3808225840488
  0
LWPOLYLINE
  5
32
330
17
100
AcDbEntity
  8
0
100
AcDbPolyline
 90
65
 70
0
 10
391.9300753026123
 20
42.03759420648042
 10
399.86867012072753
 20
42.29626882806245
 10
407.6024729161377
 20
44.1062663866562
 10
414.83138145495604
 20
47.39732015862886
 10
421.27480567980956
 20
52.04167593255464
 10
426.6826731114502
 20
57.859165556578084
 10
430.84509910632323
 20
64.62392080560151
 10
433.6005503087158
 20
72.0734523607773
 10
434.8420816807861
 20
79.91860616937103
 10
435.96608223010253
 20
108.55885732903901
 10
435.5830866246338
 20
137.2186015917343
 10
451.06707634020995
 20
231.7236064745468
 10
473.23409141589354
 20
476.8766044451279
 10
490.54108680773925
 20
553.367606289534
 10
496.99417693815167
 20
576.0281707970978
 10
507.13430247672477
 20
617.1641333538403
 10
516.5301615147705
 20
666.3131927324814
 10
517.5161463170166
 20
678.6234210802597
 10
517.1928888707275
 20
690.9688400103134
 10
515.564089432251
 20
703.210604078917
 10
514.1175180821533
 20
708.7018607927841
 10
511.7436319737549
 20
713.8604568316025
 10
508.51391853381347
 20
718.5311340166611
 10
504.52553810168456
 20
722.5733207537216
 10
499.8985392003174
 20
725.8653377367539
 10
494.7722155003662
 20
728.3081077410263
 10
489.3008333592529
 20
729.8281215502304
 10
483.64907325793456
 20
730.3796027971787
 10
207.41481011535643
 20
730.3800834180988
 10
198.28386991278967
 20
728.5744626771249
 10
189.53633612119302
 20
725.4227813360521
 10
181.37130373719583
 20
720.9647942617046
 10
173.99017599570243
 20
715.3104695491
 10
167.53405159291424
 20
708.6057836443005
 10
164.73624052096557
 20
704.8909591509383
 10
160.00108303118895
 20
696.8856071306747
 10
142.8547006993408
 20
672.7277587725204
 10
125.10508121539306
 20
649.0096067263167
 10
94.95838226367187
 20
620.5406974627059
 10
65.55607856799361
 20
591.3036071135085
 10
59.16749061633345
 20
578.8683407379668
 10
53.53997291613814
 20
566.0706435514968
 10
48.69399131823775
 20
552.9570435358565
 10
44.64716972399947
 20
539.5752190424483
 10
41.41421379138228
 20
525.9738229586166
 10
39.00689186145064
 20
512.2023032976668
 10
37.43393959094283
 20
498.31073034539645
 10
36.37841971863077
 20
479.38863936973684
 10
31.62835382343087
 20
400.0120830796511
 10
29.645275735385667
 20
350.39912726811724
 10
29.012863040010416
 20
305.7444181779389
 10
29.554192826205735
 20
266.0484251380785
 10
31.383381047822468
 20
216.42538433238414
 10
35.78208030749556
 20
137.02462423577725
 10
37.348312275260696
 20
119.3352187971373
 10
39.211350098144976
 20
106.19183767571865
 10
41.00168138259755
 20
97.52809820712338
 10
47.8920561223149
 20
72.504055388121
 10
50.80858291674849
 20
65.54707754388262
 10
54.481335297119585
 20
58.95795095696868
 10
58.86465133715865
 20
52.818577177671806
 10
61.30608619738814
 20
49.94160879388274
 10
64.61148323107955
 20
48.3944057299179
 10
70.7282644658203
 20
44.42567098870696
 10
73.48808349658202
 20
42.0375942064804
  0
CIRCLE
  5
33
330
17
100
AcDbEntity
  8
0
100
AcDbCircle
 10
120.46908439685058
 20
111.37459982171475
 30
0.0
 40
14.50000047683716
  0
CIRCLE
  5
34
330
17
100
AcDbEntity
  8
0
100
AcDbCircle
 10
582.0161467938537
 20
111.76160085931244
 30
0.0
 40
14.50000047683716
  0
CIRCLE
  5
35
330
17
100
AcDbEntity
  8
0
100
AcDbCircle
 10
661.0161477475281
 20
1665.2655227772464
 30
0.0
 40
14.50000047683716
  0
CIRCLE
  5
36
330
17
100
AcDbEntity
  8
0
100
AcDbCircle
 10
663.0671578793635
 20
1904.11954957168
 30
0.0
 40
14.50000047683716
  0
LWPOLYLINE
  5
37
330
17
100
AcDbEntity
  8
0
100
AcDbPolyline
 90
65
 70
0
 10
1203.9383941952613
 20
1594.9843184655579
 10
778.271196860434
 20
1595.621134941706
 10
773.1048103150081
 20
1593.970732742831
 10
768.0894941846282
 20
1590.885189572281
 10
761.8378882598083
 20
1586.216418423223
 10
759.36611397977
 20
1583.4275437313127
 10
756.8137557403393
 20
1578.9774700132864
 10
754.1039151653204
 20
1572.9418783436429
 10
747.5535516669531
 20
1550.0832554522194
 10
744.8655112054089
 20
1538.344588632646
 10
743.5090255691512
 20
1526.6030965840482
 10
743.5450895381946
 20
1519.1975406171193
 10
745.1975898656167
 20
1506.6750145643143
 10
751.9211804109339
 20
1470.042163948594
 10
756.4414464875804
 20
1440.1747620458648
 10
759.1462170424452
 20
1363.9574681207584
 10
762.5653168410597
 20
1246.4501848031057
 10
769.3584270027266
 20
1186.8216877785035
 10
773.0898657943567
 20
1160.393811096396
 10
780.2623641427001
 20
1116.696174561918
 10
781.3540400425509
 20
1106.8398495164279
 10
781.323792200388
 20
1092.590076185382
 10
780.2071967802592
 20
1082.3407681011347
 10
776.5633906718392
 20
1064.6775721290749
 10
770.2277996153673
 20
1044.3612949899268
 10
762.7946612359035
 20
1025.4507000225267
 10
758.0364106780319
 20
1015.0811958778445
 10
742.944170875387
 20
986.868032418513
 10
736.233691596281
 20
972.6755321435725
 10
732.7978753854215
 20
964.6351995090808
 10
731.2135891567336
 20
958.8388732387791
 10
729.5310630597269
 20
950.324149347013
 10
727.5671583562007
 20
840.0315823611445
 10
728.4955604404788
 20
835.2126741977889
 10
733.2295468266973
 20
826.7699161000104
 10
735.6648957654154
 20
824.4992425224438
 10
738.550681504282
 20
822.6681277340232
 10
742.0157354886053
 20
821.4650891287598
 10
1102.6610504452835
 20
817.3022006152764
 10
1106.2592092166785
 20
818.3014528544041
 10
1110.7595799530966
 20
820.8091268688157
 10
1117.7070535391051
 20
826.5840005448059
 10
1135.5335251167146
 20
844.9219147566762
 10
1152.0824432682468
 20
865.2284949555676
 10
1155.3327128412218
 20
871.7462461690143
 10
1157.3837689870045
 20
879.6258466412451
 10
1158.047210987727
 20
887.2365308484258
 10
1158.6140935792557
 20
1072.6694572898598
 10
1161.2505119283603
 20
1114.1891148813504
 10
1162.8421870484324
 20
1132.379195307459
 10
1171.9686686541252
 20
1177.6382778829352
 10
1180.2734538237553
 20
1214.4588463250113
 10
1199.9466149385155
 20
1268.7230632578555
 10
1208.815101244754
 20
1291.441343902614
 10
1219.622967036739
 20
1324.490554070776
 10
1225.2334018633508
 20
1347.9673902493862
 10
1230.793359497259
 20
1388.8817113131474
 10
1232.4470166935391
 20
1404.0544746291976
 10
1233.1875535367947
 20
1427.7295577020245
 10
1233.1107422137459
 20
1572.3579764099607
 10
1231.1808164841648
 20
1577.9805219335142
 10
1223.6177765603923
 20
1587.1492124345782
 10
1219.094675460746
 20
1590.874240277944
 10
1213.9217897439514
 20
1593.4225840380554
 10
1210.5946319951215
 20
1594.2452280321793
  0
LWPOLYLINE
  5
38
330
17
100
AcDbEntity
  8
0
100
AcDbPolyline
 90
62
 70
0
 10
791.0417222272904
 20
504.15100936358107
 10
727.574347415697
 20
50.98063183675943
 10
728.7020901593612
 20
45.31368846529979
 10
731.2016997165151
 20
40.2949163101887
 10
735.3680090553839
 20
35.41615351159654
 10
739.45756786881
 20
32.60233054982367
 10
743.944640250796
 20
30.666544078165504
 10
749.3163771873933
 20
29.16706218137525
 10
925.6681185139539
 20
6.23570867107689
 10
958.634253123638
 20
3.908978405847492
 10
1018.2068217368444
 20
1.000508294048921
 10
1041.3187585415405
 20
1.9629359478600428
 10
1072.1524185433302
 20
4.576456472392068
 10
1122.3267199296035
 20
8.656857093735544
 10
1172.6611421950777
 20
13.152960642054847
 10
1182.8875128602447
 20
13.709297955839657
 10
1198.6875304393104
 20
12.918273942190083
 10
1205.872295507182
 20
12.237385094713277
 10
1250.1615402734599
 20
5.764180184735005
 10
1264.469142956835
 20
2.549784346562513
 10
1274.2722167426066
 20
1.0420565959287524
 10
1280.3276739184223
 20
1.0005102602037512
 10
1284.8693867517948
 20
2.381120970048724
 10
1289.9647537928206
 20
6.016507167583511
 10
1293.786181073487
 20
11.370980221452184
 10
1294.7805927902648
 20
13.933419935471106
 10
1334.536911122984
 20
287.42313392091245
 10
1334.2168512627507
 20
292.8498415151119
 10
1332.5255924074706
 20
297.10695648967373
 10
1330.389056383435
 20
299.99992849696963
 10
1327.6559889332145
 20
302.7170985690963
 10
1324.8605218553719
 20
304.5352236919278
 10
1320.6227027516495
 20
306.036668096567
 10
1303.305553373891
 20
309.4276083785376
 10
1294.4595619909403
 20
312.68987085431246
 10
1292.5366336809313
 20
314.7488807254935
 10
1290.2399571771232
 20
319.0389323407875
 10
1289.417673543085
 20
323.51149374421
 10
1289.5148030052167
 20
335.0916070691535
 10
1289.280119816852
 20
339.40404401854863
 10
1288.3188621065694
 20
342.8845412351007
 10
1284.4731894638396
 20
349.18122014518354
 10
1280.680647528873
 20
352.0468075170886
 10
1272.1125123097665
 20
356.2038687827435
 10
1260.1147573757642
 20
359.2851672569805
 10
1186.564945145147
 20
373.36330217420226
 10
1136.8231564451692
 20
379.7421417716519
 10
1111.1121599032988
 20
385.38648536202464
 10
1087.7369065709333
 20
391.4027326729868
 10
1057.9626828312037
 20
402.3502607421436
 10
1029.1413739239013
 20
416.7139402217354
 10
997.4182198841038
 20
435.19511142682967
 10
930.9378244723705
 20
484.3608361679345
 10
892.5246647409458
 20
509.26498774281794
 10
887.0084886117731
 20
511.65119834118997
 10
870.7034202920386
 20
516.0328206758271
 10
819.2621733035216
 20
523.5617017137172
 10
812.8897993969726
 20
523.7238356064895
 10
805.6895389442025
 20
521.7072295626641
 10
800.0122989802924
 20
518.8049895735534
 10
796.2119479406083
 20
515.1916363313051
 10
792.7499352296388
 20
510.07428142789144
  0
LWPOLYLINE
  5
39
330
17
100
AcDbEntity
  8
0
100
AcDbPolyline
 90
22
 70
0
 10
780.4360350840325
 20
73.34077469831273
 10
783.9522260929596
 20
73.41466980092862
 10
787.279686040371
 20
74.59315253708066
 10
789.7794765976982
 20
76.44182234192063
 10
791.9138503443523
 20
79.30213714721704
 10
792.9926910931617
 20
82.24901047843026
 10
793.2156279976944
 20
85.82758683598071
 10
792.5105616290823
 20
88.87964471161514
 10
790.7465109678085
 20
91.9711084830076
 10
788.4948468303301
 20
94.10024166623414
 10
785.3376417300537
 20
95.66203283975138
 10
782.2977698029392
 20
96.15012502490784
 10
778.8122899936275
 20
95.65517464696394
 10
776.0094184183656
 20
94.33726389431253
 10
773.3709625921447
 20
91.9532400166283
 10
771.7501318392983
 20
89.27419832170797
 10
770.8471179130447
 20
85.80494788589887
 10
770.9539650682489
 20
82.66794701905344
 10
772.090646663524
 20
79.28190448236133
 10
773.8891107730919
 20
76.74357045904533
 10
776.6833213048546
 20
74.58194555783406
 10
779.567303936172
 20
73.49843691657209
  0
LWPOLYLINE
  5
3A
330
17
100
AcDbEntity
  8
0
100
AcDbPolyline
 90
22
 70
0
 10
788.3690788897952
 20
1545.6514661159022
 10
788.9226935704773
 20
1542.1783449716308
 10
790.5447513517524
 20
1539.0431033836128
 10
792.7176280318699
 20
1536.8193363520124
 10
795.8427364237514
 20
1535.0957790959883
 10
798.909375542479
 20
1534.4296827763792
 10
802.4848527720428
 20
1534.6977726700554
 10
805.4119571718113
 20
1535.8132258036408
 10
808.2334103041487
 20
1537.9831164016662
 10
810.0349352793205
 20
1540.504565838747
 10
811.1507157222691
 20
1543.8455491847128
 10
811.2188970469633
 20
1546.923601591907
 10
810.2523716385251
 20
1550.308771308862
 10
808.5638671681668
 20
1552.9052940745903
 10
805.8417111354386
 20
1555.1932812969692
 10
802.9663406369639
 20
1556.4328785013045
 10
799.4062460799987
 20
1556.8534251489339
 10
796.313261353801
 20
1556.3189756782888
 10
793.114275309845
 20
1554.7303229787021
 10
790.8454667221554
 20
1552.6019150385393
 10
789.0858821241291
 20
1549.538567726898
 10
788.406569012604
 20
1546.5335917719292
  0
LWPOLYLINE
  5
3B
330
17
100
AcDbEntity
  8
0
100
AcDbPolyline
 90
22
 70
0
 10
834.7556414748888
 20
454.0959545516355
 10
838.2718324838158
 20
454.1698496542524
 10
841.5992924312272
 20
455.3483323904037
 10
844.0990829885545
 20
457.1970021952439
 10
846.2334567352084
 20
460.05731700054014
 10
847.312297484018
 20
463.0041903317533
 10
847.5352343885506
 20
466.5827666893036
 10
846.8301680199386
 20
469.63482456493796
 10
845.066117358665
 20
472.726288336331
 10
842.8144532211866
 20
474.8554215195575
 10
839.65724812091
 20
476.41721269307476
 10
836.6173761937955
 20
476.9053048782316
 10
833.1318963844838
 20
476.41035450028704
 10
830.3290248092219
 20
475.0924437476358
 10
827.6905689830007
 20
472.7084198699515
 10
826.0697382301546
 20
470.02937817503107
 10
825.166724303901
 20
466.56012773922265
 10
825.2735714591051
 20
463.4231268723769
 10
826.4102530543803
 20
460.0370843356843
 10
828.2087171639484
 20
457.49875031236917
 10
831.0029276957109
 20
455.33712541115744
 10
833.8869103270283
 20
454.2536167698957
  0
LWPOLYLINE
  5
3C
330
17
100
AcDbEntity
  8
0
100
AcDbPolyline
 90
60
 70
0
 10
897.2369583521615
 20
1596.4532413635816
 10
1295.140794679946
 20
1595.8448770838054
 10
1307.825822349242
 20
1597.3438519568067
 10
1318.5860329548325
 20
1599.7901019309004
 10
1326.6195574178312
 20
1603.656985549878
 10
1332.5762999128317
 20
1609.1839569708145
 10
1339.5843144875687
 20
1618.4338394137067
 10
1342.611837070932
 20
1623.903588134361
 10
1344.6106227493985
 20
1628.6199421170627
 10
1345.7111604626537
 20
1633.7783565653833
 10
1346.107481557424
 20
1805.0390986947828
 10
1345.4212456789512
 20
1809.2692191976314
 10
1344.2711042065746
 20
1812.593936537092
 10
1341.889470272887
 20
1816.7514593783849
 10
1338.8134061538183
 20
1820.3815600399114
 10
1336.0434920670343
 20
1822.8028675572398
 10
1332.7327437186025
 20
1824.394420948537
 10
1327.8032645752444
 20
1825.6866962658178
 10
1300.3277100396006
 20
1825.8168782853352
 10
1292.83779875286
 20
1826.8786221991973
 10
1289.6734630511985
 20
1827.9329158185976
 10
1280.4071114497526
 20
1833.236796090651
 10
1274.6616925626233
 20
1837.3983638881061
 10
1267.985304850821
 20
1844.751768394832
 10
1264.2969101072674
 20
1852.231132799761
 10
1262.8819594212025
 20
1859.225860210226
 10
1262.9918983457844
 20
1976.3127561200981
 10
1262.1815622366082
 20
1979.5721251309974
 10
1257.7600531331302
 20
1989.4573308828105
 10
1254.161558073248
 20
1993.9945323080035
 10
1250.8368807575127
 20
1996.44700120543
 10
1247.232924104355
 20
1997.8125100031345
 10
1241.77926983074
 20
1998.9999644995444
 10
951.1900161332499
 20
1998.999999546363
 10
944.9154321012113
 20
1996.9117031919768
 10
939.6190095463423
 20
1993.3801686885263
 10
935.9735481285791
 20
1989.4664354314875
 10
933.3579481018494
 20
1984.15995566737
 10
932.5796603029341
 20
1981.7839988006078
 10
932.1603969669288
 20
1978.0923218978594
 10
928.7105817025156
 20
1874.3478090959345
 10
925.2572241616074
 20
1855.7766391187222
 10
923.4008162899261
 20
1851.7019323420532
 10
919.0410295223771
 20
1843.7348745559102
 10
915.6123329313566
 20
1839.4816356737888
 10
891.3541433128653
 20
1815.6076270846
 10
863.572951153825
 20
1787.2109811816686
 10
849.4158112288594
 20
1771.068741204415
 10
846.2598398060129
 20
1764.0964297715989
 10
845.1447464293544
 20
1760.92664835416
 10
844.8587542933119
 20
1755.943035783451
 10
843.3468731428607
 20
1636.0962038504827
 10
843.921696581931
 20
1633.2545966986152
 10
845.3410882569324
 20
1628.8382684934168
 10
847.6705207776022
 20
1624.7528304610203
 10
855.2173738669926
 20
1615.1862907480565
 10
862.6519279544359
 20
1607.8752820943573
 10
867.0611190994366
 20
1604.6337528515103
 10
874.7685793709431
 20
1600.425103963559
 10
888.2301886899711
 20
1597.1242812913285
  0
LWPOLYLINE
  5
3D
330
17
100
AcDbEntity
  8
0
100
AcDbPolyline
 90
22
 70
0
 10
904.1812890656126
 20
1647.9711120424925
 10
903.6262841192927
 20
1651.4440112934083
 10
902.0029714130794
 20
1654.5786033113395
 10
899.8292047205653
 20
1656.8015003499688
 10
896.7034066293779
 20
1658.5238064693717
 10
893.6365011142409
 20
1659.188675142666
 10
890.06113148905
 20
1658.9191539867566
 10
887.1344738459923
 20
1657.8025292061334
 10
884.3138895591685
 20
1655.631509338353
 10
882.5133740787785
 20
1653.109338942682
 10
881.398931139717
 20
1649.7679092111953
 10
881.331981982235
 20
1646.689829757253
 10
882.2998624157749
 20
1643.3050472171008
 10
883.9894061535626
 20
1640.7092005772806
 10
886.7124778623831
 20
1638.422303232643
 10
889.588344348233
 20
1637.1838571546648
 10
893.1486069671516
 20
1636.764735666673
 10
896.2413775023931
 20
1637.3004232337378
 10
899.4397273433976
 20
1638.8903563782046
 10
901.7076837355951
 20
1641.0196723647164
 10
903.4660419174222
 20
1644.0837238025601
 10
904.1441520656861
 20
1647.0889714496354
  0
LWPOLYLINE
  5
3E
330
17
100
AcDbEntity
  8
0
100
AcDbPolyline
 90
56
 70
0
 10
1346.1074823521615
 20
422.30661483420045
 10
1346.1074826637266
 20
839.653188527756
 10
1344.6892423194083
 20
845.4880245588846
 10
1342.142344389082
 20
852.1779705719872
 10
1338.685044388713
 20
859.0168850576136
 10
1334.9722530186466
 20
864.2579518031622
 10
1330.8222584341772
 20
868.9789153787675
 10
1322.749181455694
 20
875.8200601684171
 10
1312.4302826432925
 20
880.6398273354916
 10
1307.7739699130236
 20
882.1826326282593
 10
1182.092672115549
 20
881.995097797963
 10
1178.6311526247239
 20
881.0331026267731
 10
1172.5886851484909
 20
877.8245017374021
 10
1165.6013719374694
 20
872.1118585120743
 10
1156.8507756904621
 20
862.9322387215827
 10
1100.4168491671323
 20
808.5247783655186
 10
1095.6582634411345
 20
805.5982687269302
 10
1084.102417938397
 20
800.5165488884088
 10
1075.492977516363
 20
798.9784439862372
 10
968.9781271517638
 20
795.6017898142184
 10
960.9843215943272
 20
794.5351140956091
 10
955.0028542123243
 20
792.9837486195988
 10
951.304656059385
 20
790.4329053757801
 10
947.8237103921272
 20
787.2162055640389
 10
945.8410741109535
 20
784.1685017967712
 10
944.480409630102
 20
780.3160946680231
 10
943.2703411329373
 20
775.2307090600286
 10
943.2663204566618
 20
486.51004872884545
 10
946.5102042270826
 20
477.1078489663565
 10
949.5293953762309
 20
472.9456583461519
 10
953.3039157950277
 20
469.2455468542781
 10
956.7769426594916
 20
467.16375648784754
 10
962.1381319973286
 20
465.77481660181184
 10
968.4812271683543
 20
464.92493314345836
 10
1073.7105039702303
 20
464.72786081052027
 10
1088.6552404964812
 20
461.81532979691355
 10
1097.027461907266
 20
458.81635579024606
 10
1102.1372863515219
 20
455.59661205219436
 10
1108.4419969712483
 20
448.71465910200186
 10
1115.6138683843412
 20
433.9540111145392
 10
1116.808045604222
 20
428.2944633839196
 10
1117.5801667885582
 20
393.73479892092666
 10
1119.0265444943914
 20
390.84462013486797
 10
1122.0461861514143
 20
387.9538826280501
 10
1125.5694075423837
 20
385.4482558696296
 10
1134.063708218656
 20
381.7207866048752
 10
1141.3001713331648
 20
380.17706709981496
 10
1147.278388581194
 20
379.66122996096465
 10
1313.1560502982395
 20
381.3823161753659
 10
1316.8934092934276
 20
381.92584134440636
 10
1320.4180653674669
 20
383.46574918749263
 10
1325.8942943383047
 20
387.0598386151193
 10
1332.5042972362264
 20
393.5431938897698
 10
1337.918619530901
 20
400.026972824185
 10
1342.5152781243798
 20
407.73112260514057
 10
1345.4754919257982
 20
414.72948872417845
  0
LWPOLYLINE
  5
3F
330
17
100
AcDbEntity
  8
0
100
AcDbPolyline
 90
22
 70
0
 10
1164.1684982084155
 20
1543.8444840629088
 10
1164.7221128890976
 20
1540.3713629186373
 10
1166.3441706703727
 20
1537.2361213306192
 10
1168.5170473504907
 20
1535.012354299019
 10
1171.642155742372
 20
1533.288797042995
 10
1174.7087948610995
 20
1532.6227007233856
 10
1178.2842720906635
 20
1532.890790617062
 10
1181.2113764904318
 20
1534.0062437506474
 10
1184.0328296227692
 20
1536.1761343486728
 10
1185.8343545979408
 20
1538.6975837857537
 10
1186.9501350408898
 20
1542.0385671317194
 10
1187.018316365584
 20
1545.1166195389135
 10
1186.0517909571456
 20
1548.5017892558687
 10
1184.3632864867875
 20
1551.098312021597
 10
1181.641130454059
 20
1553.3862992439756
 10
1178.7657599555844
 20
1554.6258964483109
 10
1175.205665398619
 20
1555.0464430959403
 10
1172.1126806724212
 20
1554.5119936252952
 10
1168.9136946284655
 20
1552.9233409257088
 10
1166.6448860407756
 20
1550.794932985546
 10
1164.8853014427498
 20
1547.7315856739042
 10
1164.2059883312243
 20
1544.7266097189358
  0
LWPOLYLINE
  5
40
330
17
100
AcDbEntity
  8
0
100
AcDbPolyline
 90
22
 70
0
 10
1418.9567897471054
 20
1647.7126585201333
 10
1418.4017848007854
 20
1651.1855577710492
 10
1416.7784720945717
 20
1654.3201497889804
 10
1414.6047054020576
 20
1656.5430468276097
 10
1411.4789073108702
 20
1658.2653529470126
 10
1408.4120017957327
 20
1658.9302216203068
 10
1404.8366321705419
 20
1658.6607004643975
 10
1401.909974527485
 20
1657.5440756837743
 10
1399.0893902406604
 20
1655.373055815994
 10
1397.2888747602708
 20
1652.8508854203228
 10
1396.1744318212088
 20
1649.5094556888362
 10
1396.1074826637266
 20
1646.4313762348938
 10
1397.075363097267
 20
1643.0465936947417
 10
1398.764906835055
 20
1640.4507470549215
 10
1401.487978543876
 20
1638.1638497102838
 10
1404.3638450297246
 20
1636.9254036323057
 10
1407.924107648644
 20
1636.506282144314
 10
1411.0168781838854
 20
1637.041969711379
 10
1414.2152280248904
 20
1638.6319028558455
 10
1416.4831844170878
 20
1640.7612188423573
 10
1418.241542598915
 20
1643.825270280201
 10
1418.9196527471788
 20
1646.8305179272763
  0
LWPOLYLINE
  5
41
330
17
100
AcDbEntity
  8
0
100
AcDbPolyline
 90
22
 70
0
 10
1417.74441014212
 20
453.0131507808339
 10
1414.2722734183387
 20
452.4533952370289
 10
1411.1399051146284
 20
450.82579575590864
 10
1408.9199839883424
 20
448.64899005238294
 10
1407.2019557440601
 20
445.52083867694574
 10
1406.5412833880725
 20
442.4530264549312
 10
1406.8156955937172
 20
438.8780288952659
 10
1407.936323157758
 20
435.9529015949452
 10
1410.1111997080914
 20
433.13529002196617
 10
1412.6358309475797
 20
431.3382266940548
 10
1415.978782171326
 20
430.22835605720644
 10
1419.0569503349632
 20
430.165617944067
 10
1422.4404055941043
 20
431.13812804022984
 10
1425.0339384161673
 20
432.8312214576899
 10
1427.317108309149
 20
435.55741921942115
 10
1428.5516188849554
 20
438.43497727630154
 10
1428.9658693460026
 20
441.9958099447776
 10
1428.4259512003293
 20
445.08784473583984
 10
1426.8316440255169
 20
448.2840164680331
 10
1424.699227342728
 20
450.5490577167273
 10
1421.6327732416514
 20
452.30322246250887
 10
1418.6266007149354
 20
452.9772206324237
  0
LWPOLYLINE
  5
42
330
17
100
AcDbEntity
  8
0
100
AcDbPolyline
 90
22
 70
0
 10
1418.3769212606214
 20
845.396139133544
 10
1414.9047845368398
 20
844.8363835897388
 10
1411.7724162331294
 20
843.2087841086187
 10
1409.552495106844
 20
841.031978405093
 10
1407.8344668625616
 20
837.9038270296559
 10
1407.1737945065736
 20
834.8360148076414
 10
1407.4482067122183
 20
831.2610172479762
 10
1408.5688342762594
 20
828.3358899476553
 10
1410.7437108265924
 20
825.5182783746762
 10
1413.2683420660808
 20
823.721215046765
 10
1416.6112932898275
 20
822.6113444099166
 10
1419.6894614534642
 20
822.5486062967772
 10
1423.0729167126058
 20
823.5211163929399
 10
1425.6664495346683
 20
825.2142098104001
 10
1427.9496194276505
 20
827.9404075721313
 10
1429.1841300034569
 20
830.8179656290116
 10
1429.5983804645036
 20
834.3787982974878
 10
1429.0584623188304
 20
837.47083308855
 10
1427.4641551440184
 20
840.6670048207433
 10
1425.331738461229
 20
842.9320460694373
 10
1422.265284360153
 20
844.6862108152189
 10
1419.259111833437
 20
845.3602089851338
  0
ENDSEC
  0
SECTION
  2
OBJECTS
  0
DICTIONARY
  5
A
330
0
100
AcDbDictionary
281
1
  3
ACAD_COLOR
350
B
  3
ACAD_GROUP
350
C
  3
ACAD_LAYOUT
350
D
  3
ACAD_MATERIAL
350
E
  3
ACAD_MLEADERSTYLE
350
F
  3
ACAD_MLINESTYLE
350
10
  3
ACAD_PLOTSETTINGS
350
11
  3
ACAD_PLOTSTYLENAME
350
12
  3
ACAD_SCALELIST
350
14
  3
ACAD_TABLESTYLE
350
15
  3
ACAD_VISUALSTYLE
350
16
  3
EZDXF_META
350
2D
  0
DICTIONARY
  5
B
330
A
100
AcDbDictionary
281
1
  0
DICTIONARY
  5
C
330
A
100
AcDbDictionary
281
1
  0
DICTIONARY
  5
D
330
A
100
AcDbDictionary
281
1
  3
Model
350
1A
  3
Layout1
350
1E
  0
DICTIONARY
  5
E
330
A
100
AcDbDictionary
281
1
  3
ByBlock
350
1F
  3
ByLayer
350
20
  3
Global
350
21
  0
DICTIONARY
  5
F
330
A
100
AcDbDictionary
281
1
  3
Standard
350
2C
  0
DICTIONARY
  5
10
330
A
100
AcDbDictionary
281
1
  3
Standard
350
22
  0
DICTIONARY
  5
11
330
A
100
AcDbDictionary
281
1
  0
ACDBDICTIONARYWDFLT
  5
12
330
A
100
AcDbDictionary
281
1
  3
Normal
350
13
100
AcDbDictionaryWithDefault
340
13
  0
ACDBPLACEHOLDER
  5
13
330
12
  0
DICTIONARY
  5
14
330
A
100
AcDbDictionary
281
1
  0
DICTIONARY
  5
15
330
A
100
AcDbDictionary
281
1
  0
DICTIONARY
  5
16
330
A
100
AcDbDictionary
281
1
  0
LAYOUT
  5
1A
330
D
100
AcDbPlotSettings
  1

  4
A3
  6

 40
7.5
 41
20.0
 42
7.5
 43
20.0
 44
420.0
 45
297.0
 46
0.0
 47
0.0
 48
0.0
 49
0.0
140
0.0
141
0.0
142
1.0
143
1.0
 70
1024
 72
1
 73
0
 74
5
  7

 75
16
 76
0
 77
2
 78
300
147
1.0
148
0.0
149
0.0
100
AcDbLayout
  1
Model
 70
1
 71
0
 10
0.0
 20
0.0
 11
420.0
 21
297.0
 12
0.0
 22
0.0
 32
0.0
 14
1e+20
 24
1e+20
 34
1e+20
 15
-1e+20
 25
-1e+20
 35
-1e+20
146
0.0
 13
0.0
 23
0.0
 33
0.0
 16
1.0
 26
0.0
 36
0.0
 17
0.0
 27
1.0
 37
0.0
 76
1
330
17
  0
LAYOUT
  5
1E
330
D
100
AcDbPlotSettings
  1

  4
A3
  6

 40
7.5
 41
20.0
 42
7.5
 43
20.0
 44
420.0
 45
297.0
 46
0.0
 47
0.0
 48
0.0
 49
0.0
140
0.0
141
0.0
142
1.0
143
1.0
 70
0
 72
1
 73
0
 74
5
  7

 75
16
 76
0
 77
2
 78
300
147
1.0
148
0.0
149
0.0
100
AcDbLayout
  1
Layout1
 70
1
 71
1
 10
0.0
 20
0.0
 11
420.0
 21
297.0
 12
0.0
 22
0.0
 32
0.0
 14
1e+20
 24
1e+20
 34
1e+20
 15
-1e+20
 25
-1e+20
 35
-1e+20
146
0.0
 13
0.0
 23
0.0
 33
0.0
 16
1.0
 26
0.0
 36
0.0
 17
0.0
 27
1.0
 37
0.0
 76
1
330
1B
  0
MATERIAL
  5
1F
102
{ACAD_REACTORS
330
E
102
}
330
E
100
AcDbMaterial
  1
ByBlock
  2

 70
0
 40
1.0
 71
1
 41
1.0
 91
-1023410177
 42
1.0
 72
1
  3

 73
1
 74
1
 75
1
 44
0.5
 73
0
 45
1.0
 46
1.0
 77
1
  4

 78
1
 79
1
170
1
 48
1.0
171
1
  6

172
1
173
1
174
1
140
1.0
141
1.0
175
1
  7

176
1
177
1
178
1
143
1.0
179
1
  8

270
1
271
1
272
1
145
1.0
146
1.0
273
1
  9

274
1
275
1
276
1
 42
1.0
 72
1
  3

 73
1
 74
1
 75
1
 94
63
  0
MATERIAL
  5
20
102
{ACAD_REACTORS
330
E
102
}
330
E
100
AcDbMaterial
  1
ByLayer
  2

 70
0
 40
1.0
 71
1
 41
1.0
 91
-1023410177
 42
1.0
 72
1
  3

 73
1
 74
1
 75
1
 44
0.5
 73
0
 45
1.0
 46
1.0
 77
1
  4

 78
1
 79
1
170
1
 48
1.0
171
1
  6

172
1
173
1
174
1
140
1.0
141
1.0
175
1
  7

176
1
177
1
178
1
143
1.0
179
1
  8

270
1
271
1
272
1
145
1.0
146
1.0
273
1
  9

274
1
275
1
276
1
 42
1.0
 72
1
  3

 73
1
 74
1
 75
1
 94
63
  0
MATERIAL
  5
21
102
{ACAD_REACTORS
330
E
102
}
330
E
100
AcDbMaterial
  1
Global
  2

 70
0
 40
1.0
 71
1
 41
1.0
 91
-1023410177
 42
1.0
 72
1
  3

 73
1
 74
1
 75
1
 44
0.5
 73
0
 45
1.0
 46
1.0
 77
1
  4

 78
1
 79
1
170
1
 48
1.0
171
1
  6

172
1
173
1
174
1
140
1.0
141
1.0
175
1
  7

176
1
177
1
178
1
143
1.0
179
1
  8

270
1
271
1
272
1
145
1.0
146
1.0
273
1
  9

274
1
275
1
276
1
 42
1.0
 72
1
  3

 73
1
 74
1
 75
1
 94
63
  0
MLINESTYLE
  5
22
102
{ACAD_REACTORS
330
10
102
}
330
10
100
AcDbMlineStyle
  2
Standard
 70
0
  3

 62
256
 51
90.0
 52
90.0
 71
2
 49
0.5
 62
256
  6
BYLAYER
 49
-0.5
 62
256
  6
BYLAYER
  0
MLEADERSTYLE
  5
2C
102
{ACAD_REACTORS
330
F
102
}
330
F
100
AcDbMLeaderStyle
179
2
170
2
171
1
172
0
 90
2
 40
0.0
 41
0.0
173
1
 91
-1056964608
 92
-2
290
1
 42
2.0
291
1
 43
8.0
  3
Standard
 44
4.0
300

342
29
174
1
175
1
176
0
178
1
 93
-1056964608
 45
4.0
292
0
297
0
 46
4.0
 94
-1056964608
 47
1.0
 49
1.0
140
1.0
294
1
141
0.0
177
0
142
1.0
295
0
296
0
143
3.75
271
0
272
9
273
9
  0
DICTIONARY
  5
2D
330
A
100
AcDbDictionary
280
1
281
1
  3
CREATED_BY_EZDXF
350
2E
  3
WRITTEN_BY_EZDXF
350
45
  0
DICTIONARYVAR
  5
2E
330
2D
100
DictionaryVariables
280
0
  1
1.4.2 @ 2025-10-23T10:06:37.828522+00:00
  0
DICTIONARYVAR
  5
45
330
2D
100
DictionaryVariables
280
0
  1
1.4.2 @ 2025-10-23T10:06:37.984553+00:00
  0
ENDSEC
  0
EOF
