  0
SECTION
  2
HEADER
  9
$ACADVER
  1
AC1027
  9
$ACADMAINTVER
 70
105
  9
$DWGCODEPAGE
  3
ANSI_1252
  9
$LASTSAVEDBY
  1
ezdxf
  9
$REQUIREDVERSIONS
160
0
  9
$INSBASE
 10
0.0
 20
0.0
 30
0.0
  9
$EXTMIN
 10
1e+20
 20
1e+20
 30
1e+20
  9
$EXTMAX
 10
-1e+20
 20
-1e+20
 30
-1e+20
  9
$LIMMIN
 10
0.0
 20
0.0
  9
$LIMMAX
 10
420.0
 20
297.0
  9
$ORTHOMODE
 70
0
  9
$REGENMODE
 70
1
  9
$FILLMODE
 70
1
  9
$QTEXTMODE
 70
0
  9
$MIRRTEXT
 70
1
  9
$LTSCALE
 40
1.0
  9
$ATTMODE
 70
1
  9
$TEXTSIZE
 40
2.5
  9
$TRACEWID
 40
1.0
  9
$TEXTSTYLE
  7
Standard
  9
$CLAYER
  8
0
  9
$CELTYPE
  6
ByLayer
  9
$CECOLOR
 62
256
  9
$CELTSCALE
 40
1.0
  9
$DISPSILH
 70
0
  9
$DIMSCALE
 40
1.0
  9
$DIMASZ
 40
2.5
  9
$DIMEXO
 40
0.625
  9
$DIMDLI
 40
3.75
  9
$DIMRND
 40
0.0
  9
$DIMDLE
 40
0.0
  9
$DIMEXE
 40
1.25
  9
$DIMTP
 40
0.0
  9
$DIMTM
 40
0.0
  9
$DIMTXT
 40
2.5
  9
$DIMCEN
 40
2.5
  9
$DIMTSZ
 40
0.0
  9
$DIMTOL
 70
0
  9
$DIMLIM
 70
0
  9
$DIMTIH
 70
0
  9
$DIMTOH
 70
0
  9
$DIMSE1
 70
0
  9
$DIMSE2
 70
0
  9
$DIMTAD
 70
1
  9
$DIMZIN
 70
8
  9
$DIMBLK
  1

  9
$DIMASO
 70
1
  9
$DIMSHO
 70
1
  9
$DIMPOST
  1

  9
$DIMAPOST
  1

  9
$DIMALT
 70
0
  9
$DIMALTD
 70
3
  9
$DIMALTF
 40
0.03937007874
  9
$DIMLFAC
 40
1.0
  9
$DIMTOFL
 70
1
  9
$DIMTVP
 40
0.0
  9
$DIMTIX
 70
0
  9
$DIMSOXD
 70
0
  9
$DIMSAH
 70
0
  9
$DIMBLK1
  1

  9
$DIMBLK2
  1

  9
$DIMSTYLE
  2
ISO-25
  9
$DIMCLRD
 70
0
  9
$DIMCLRE
 70
0
  9
$DIMCLRT
 70
0
  9
$DIMTFAC
 40
1.0
  9
$DIMGAP
 40
0.625
  9
$DIMJUST
 70
0
  9
$DIMSD1
 70
0
  9
$DIMSD2
 70
0
  9
$DIMTOLJ
 70
0
  9
$DIMTZIN
 70
8
  9
$DIMALTZ
 70
0
  9
$DIMALTTZ
 70
0
  9
$DIMUPT
 70
0
  9
$DIMDEC
 70
2
  9
$DIMTDEC
 70
2
  9
$DIMALTU
 70
2
  9
$DIMALTTD
 70
3
  9
$DIMTXSTY
  7
Standard
  9
$DIMAUNIT
 70
0
  9
$DIMADEC
 70
0
  9
$DIMALTRND
 40
0.0
  9
$DIMAZIN
 70
0
  9
$DIMDSEP
 70
44
  9
$DIMATFIT
 70
3
  9
$DIMFRAC
 70
0
  9
$DIMLDRBLK
  1

  9
$DIMLUNIT
 70
2
  9
$DIMLWD
 70
-2
  9
$DIMLWE
 70
-2
  9
$DIMTMOVE
 70
0
  9
$DIMFXL
 40
1.0
  9
$DIMFXLON
 70
0
  9
$DIMJOGANG
 40
0.785398163397
  9
$DIMTFILL
 70
0
  9
$DIMTFILLCLR
 70
0
  9
$DIMARCSYM
 70
0
  9
$DIMLTYPE
  6

  9
$DIMLTEX1
  6

  9
$DIMLTEX2
  6

  9
$DIMTXTDIRECTION
 70
0
  9
$LUNITS
 70
2
  9
$LUPREC
 70
4
  9
$SKETCHINC
 40
1.0
  9
$FILLETRAD
 40
10.0
  9
$AUNITS
 70
0
  9
$AUPREC
 70
2
  9
$MENU
  1
.
  9
$ELEVATION
 40
0.0
  9
$PELEVATION
 40
0.0
  9
$THICKNESS
 40
0.0
  9
$LIMCHECK
 70
0
  9
$CHAMFERA
 40
0.0
  9
$CHAMFERB
 40
0.0
  9
$CHAMFERC
 40
0.0
  9
$CHAMFERD
 40
0.0
  9
$SKPOLY
 70
0
  9
$TDCREATE
 40
2460972.6271296297
  9
$TDUCREATE
 40
2458532.153996898
  9
$TDUPDATE
 40
2460972.6271296297
  9
$TDUUPDATE
 40
2458532.1544311
  9
$TDINDWG
 40
0.0
  9
$TDUSRTIMER
 40
0.0
  9
$USRTIMER
 70
1
  9
$ANGBASE
 50
0.0
  9
$ANGDIR
 70
0
  9
$PDMODE
 70
0
  9
$PDSIZE
 40
0.0
  9
$PLINEWID
 40
0.0
  9
$SPLFRAME
 70
0
  9
$SPLINETYPE
 70
6
  9
$SPLINESEGS
 70
8
  9
$HANDSEED
  5
46
  9
$SURFTAB1
 70
6
  9
$SURFTAB2
 70
6
  9
$SURFTYPE
 70
6
  9
$SURFU
 70
6
  9
$SURFV
 70
6
  9
$UCSBASE
  2

  9
$UCSNAME
  2

  9
$UCSORG
 10
0.0
 20
0.0
 30
0.0
  9
$UCSXDIR
 10
1.0
 20
0.0
 30
0.0
  9
$UCSYDIR
 10
0.0
 20
1.0
 30
0.0
  9
$UCSORTHOREF
  2

  9
$UCSORTHOVIEW
 70
0
  9
$UCSORGTOP
 10
0.0
 20
0.0
 30
0.0
  9
$UCSORGBOTTOM
 10
0.0
 20
0.0
 30
0.0
  9
$UCSORGLEFT
 10
0.0
 20
0.0
 30
0.0
  9
$UCSORGRIGHT
 10
0.0
 20
0.0
 30
0.0
  9
$UCSORGFRONT
 10
0.0
 20
0.0
 30
0.0
  9
$UCSORGBACK
 10
0.0
 20
0.0
 30
0.0
  9
$PUCSBASE
  2

  9
$PUCSNAME
  2

  9
$PUCSORG
 10
0.0
 20
0.0
 30
0.0
  9
$PUCSXDIR
 10
1.0
 20
0.0
 30
0.0
  9
$PUCSYDIR
 10
0.0
 20
1.0
 30
0.0
  9
$PUCSORTHOREF
  2

  9
$PUCSORTHOVIEW
 70
0
  9
$PUCSORGTOP
 10
0.0
 20
0.0
 30
0.0
  9
$PUCSORGBOTTOM
 10
0.0
 20
0.0
 30
0.0
  9
$PUCSORGLEFT
 10
0.0
 20
0.0
 30
0.0
  9
$PUCSORGRIGHT
 10
0.0
 20
0.0
 30
0.0
  9
$PUCSORGFRONT
 10
0.0
 20
0.0
 30
0.0
  9
$PUCSORGBACK
 10
0.0
 20
0.0
 30
0.0
  9
$USERI1
 70
0
  9
$USERI2
 70
0
  9
$USERI3
 70
0
  9
$USERI4
 70
0
  9
$USERI5
 70
0
  9
$USERR1
 40
0.0
  9
$USERR2
 40
0.0
  9
$USERR3
 40
0.0
  9
$USERR4
 40
0.0
  9
$USERR5
 40
0.0
  9
$WORLDVIEW
 70
1
  9
$SHADEDGE
 70
3
  9
$SHADEDIF
 70
70
  9
$TILEMODE
 70
1
  9
$MAXACTVP
 70
64
  9
$PINSBASE
 10
0.0
 20
0.0
 30
0.0
  9
$PLIMCHECK
 70
0
  9
$PEXTMIN
 10
1e+20
 20
1e+20
 30
1e+20
  9
$PEXTMAX
 10
-1e+20
 20
-1e+20
 30
-1e+20
  9
$PLIMMIN
 10
0.0
 20
0.0
  9
$PLIMMAX
 10
420.0
 20
297.0
  9
$UNITMODE
 70
0
  9
$VISRETAIN
 70
1
  9
$PLINEGEN
 70
0
  9
$PSLTSCALE
 70
1
  9
$TREEDEPTH
 70
3020
  9
$CMLSTYLE
  2
Standard
  9
$CMLJUST
 70
0
  9
$CMLSCALE
 40
20.0
  9
$PROXYGRAPHICS
 70
1
  9
$MEASUREMENT
 70
1
  9
$CELWEIGHT
370
-1
  9
$ENDCAPS
280
0
  9
$JOINSTYLE
280
0
  9
$LWDISPLAY
290
0
  9
$INSUNITS
 70
6
  9
$HYPERLINKBASE
  1

  9
$STYLESHEET
  1

  9
$XEDIT
290
1
  9
$CEPSNTYPE
380
0
  9
$PSTYLEMODE
290
1
  9
$FINGERPRINTGUID
  2
{0B75CAC1-C782-44CE-8212-A90E15C977EC}
  9
$VERSIONGUID
  2
{B50AD39C-77D3-42C5-B161-3C00D4F159FC}
  9
$EXTNAMES
290
1
  9
$PSVPSCALE
 40
0.0
  9
$OLESTARTUP
290
0
  9
$SORTENTS
280
127
  9
$INDEXCTL
280
0
  9
$HIDETEXT
280
1
  9
$XCLIPFRAME
280
1
  9
$HALOGAP
280
0
  9
$OBSCOLOR
 70
257
  9
$OBSLTYPE
280
0
  9
$INTERSECTIONDISPLAY
280
0
  9
$INTERSECTIONCOLOR
 70
257
  9
$DIMASSOC
280
2
  9
$PROJECTNAME
  1

  9
$CAMERADISPLAY
290
0
  9
$LENSLENGTH
 40
50.0
  9
$CAMERAHEIGHT
 40
0.0
  9
$STEPSPERSEC
 40
24.0
  9
$STEPSIZE
 40
100.0
  9
$3DDWFPREC
 40
2.0
  9
$PSOLWIDTH
 40
0.005
  9
$PSOLHEIGHT
 40
0.08
  9
$LOFTANG1
 40
1.570796326795
  9
$LOFTANG2
 40
1.570796326795
  9
$LOFTMAG1
 40
0.0
  9
$LOFTMAG2
 40
0.0
  9
$LOFTPARAM
 70
7
  9
$LOFTNORMALS
280
1
  9
$LATITUDE
 40
37.795
  9
$LONGITUDE
 40
-122.394
  9
$NORTHDIRECTION
 40
0.0
  9
$TIMEZONE
 70
-8000
  9
$LIGHTGLYPHDISPLAY
280
1
  9
$TILEMODELIGHTSYNCH
280
1
  9
$CMATERIAL
347
20
  9
$SOLIDHIST
280
0
  9
$SHOWHIST
280
1
  9
$DWFFRAME
280
2
  9
$DGNFRAME
280
2
  9
$REALWORLDSCALE
290
1
  9
$INTERFERECOLOR
 62
256
  9
$CSHADOW
280
0
  9
$SHADOWPLANELOCATION
 40
0.0
  0
ENDSEC
  0
SECTION
  2
CLASSES
  0
CLASS
  1
ACDBDICTIONARYWDFLT
  2
AcDbDictionaryWithDefault
  3
ObjectDBX Classes
 90
0
 91
0
280
0
281
0
  0
CLASS
  1
SUN
  2
AcDbSun
  3
SCENEOE
 90
1153
 91
0
280
0
281
0
  0
CLASS
  1
VISUALSTYLE
  2
AcDbVisualStyle
  3
ObjectDBX Classes
 90
4095
 91
0
280
0
281
0
  0
CLASS
  1
MATERIAL
  2
AcDbMaterial
  3
ObjectDBX Classes
 90
1153
 91
0
280
0
281
0
  0
CLASS
  1
SCALE
  2
AcDbScale
  3
ObjectDBX Classes
 90
1153
 91
0
280
0
281
0
  0
CLASS
  1
TABLESTYLE
  2
AcDbTableStyle
  3
ObjectDBX Classes
 90
4095
 91
0
280
0
281
0
  0
CLASS
  1
MLEADERSTYLE
  2
AcDbMLeaderStyle
  3
ACDB_MLEADERSTYLE_CLASS
 90
4095
 91
0
280
0
281
0
  0
CLASS
  1
DICTIONARYVAR
  2
AcDbDictionaryVar
  3
ObjectDBX Classes
 90
0
 91
0
280
0
281
0
  0
CLASS
  1
CELLSTYLEMAP
  2
AcDbCellStyleMap
  3
ObjectDBX Classes
 90
1152
 91
0
280
0
281
0
  0
CLASS
  1
MENTALRAYRENDERSETTINGS
  2
AcDbMentalRayRenderSettings
  3
SCENEOE
 90
1024
 91
0
280
0
281
0
  0
CLASS
  1
ACDBDETAILVIEWSTYLE
  2
AcDbDetailViewStyle
  3
ObjectDBX Classes
 90
1025
 91
0
280
0
281
0
  0
CLASS
  1
ACDBSECTIONVIEWSTYLE
  2
AcDbSectionViewStyle
  3
ObjectDBX Classes
 90
1025
 91
0
280
0
281
0
  0
CLASS
  1
RASTERVARIABLES
  2
AcDbRasterVariables
  3
ISM
 90
0
 91
0
280
0
281
0
  0
CLASS
  1
ACDBPLACEHOLDER
  2
AcDbPlaceHolder
  3
ObjectDBX Classes
 90
0
 91
0
280
0
281
0
  0
CLASS
  1
LAYOUT
  2
AcDbLayout
  3
ObjectDBX Classes
 90
0
 91
0
280
0
281
0
  0
ENDSEC
  0
SECTION
  2
TABLES
  0
TABLE
  2
VPORT
  5
8
330
0
100
AcDbSymbolTable
 70
1
  0
VPORT
  5
23
330
8
100
AcDbSymbolTableRecord
100
AcDbViewportTableRecord
  2
*Active
 70
0
 10
0.0
 20
0.0
 11
1.0
 21
1.0
 12
0.0
 22
0.0
 13
0.0
 23
0.0
 14
0.5
 24
0.5
 15
0.5
 25
0.5
 16
0.0
 26
0.0
 36
1.0
 17
0.0
 27
0.0
 37
0.0
 40
1000.0
 41
1.34
 42
50.0
 43
0.0
 44
0.0
 50
0.0
 51
0.0
 71
0
 72
1000
 73
1
 74
3
 75
0
 76
0
 77
0
 78
0
281
0
 65
0
146
0.0
  0
ENDTAB
  0
TABLE
  2
LTYPE
  5
2
330
0
100
AcDbSymbolTable
 70
3
  0
LTYPE
  5
24
330
2
100
AcDbSymbolTableRecord
100
AcDbLinetypeTableRecord
  2
ByBlock
 70
0
  3

 72
65
 73
0
 40
0.0
  0
LTYPE
  5
25
330
2
100
AcDbSymbolTableRecord
100
AcDbLinetypeTableRecord
  2
ByLayer
 70
0
  3

 72
65
 73
0
 40
0.0
  0
LTYPE
  5
26
330
2
100
AcDbSymbolTableRecord
100
AcDbLinetypeTableRecord
  2
Continuous
 70
0
  3

 72
65
 73
0
 40
0.0
  0
ENDTAB
  0
TABLE
  2
LAYER
  5
1
330
0
100
AcDbSymbolTable
 70
2
  0
LAYER
  5
27
330
1
100
AcDbSymbolTableRecord
100
AcDbLayerTableRecord
  2
0
 70
0
 62
7
  6
Continuous
370
-3
390
13
347
21
  0
LAYER
  5
28
330
1
100
AcDbSymbolTableRecord
100
AcDbLayerTableRecord
  2
Defpoints
 70
0
 62
7
  6
Continuous
290
0
370
-3
390
13
347
21
  0
ENDTAB
  0
TABLE
  2
STYLE
  5
5
330
0
100
AcDbSymbolTable
 70
1
  0
STYLE
  5
29
330
5
100
AcDbSymbolTableRecord
100
AcDbTextStyleTableRecord
  2
Standard
 70
0
 40
0.0
 41
1.0
 50
0.0
 71
0
 42
2.5
  3
txt
  4

  0
ENDTAB
  0
TABLE
  2
VIEW
  5
7
330
0
100
AcDbSymbolTable
 70
0
  0
ENDTAB
  0
TABLE
  2
UCS
  5
6
330
0
100
AcDbSymbolTable
 70
0
  0
ENDTAB
  0
TABLE
  2
APPID
  5
3
330
0
100
AcDbSymbolTable
 70
3
  0
APPID
  5
2A
330
3
100
AcDbSymbolTableRecord
100
AcDbRegAppTableRecord
  2
ACAD
 70
0
  0
APPID
  5
43
330
3
100
AcDbSymbolTableRecord
100
AcDbRegAppTableRecord
  2
HATCHBACKGROUNDCOLOR
 70
0
  0
APPID
  5
44
330
3
100
AcDbSymbolTableRecord
100
AcDbRegAppTableRecord
  2
EZDXF
 70
0
  0
ENDTAB
  0
TABLE
  2
DIMSTYLE
  5
4
330
0
100
AcDbSymbolTable
 70
1
100
AcDbDimStyleTable
  0
DIMSTYLE
105
2B
330
4
100
AcDbSymbolTableRecord
100
AcDbDimStyleTableRecord
  2
Standard
 70
0
 40
1.0
 41
2.5
 42
0.625
 43
3.75
 44
1.25
 45
0.0
 46
0.0
 47
0.0
 48
0.0
 49
2.5
140
2.5
141
2.5
142
0.0
143
0.03937007874
144
1.0
145
0.0
146
1.0
147
0.625
148
0.0
 69
0
 70
0
 71
0
 72
0
 73
0
 74
0
 75
0
 76
0
 77
1
 78
8
 79
3
170
0
171
3
172
1
173
0
174
0
175
0
176
0
177
0
178
0
179
2
271
2
272
2
273
2
274
3
275
0
276
0
277
2
278
44
279
0
280
0
281
0
282
0
283
0
284
8
285
0
286
0
288
0
289
3
290
0
371
-2
372
-2
  0
ENDTAB
  0
TABLE
  2
BLOCK_RECORD
  5
9
330
0
100
AcDbSymbolTable
 70
2
  0
BLOCK_RECORD
  5
17
330
9
100
AcDbSymbolTableRecord
100
AcDbBlockTableRecord
  2
*Model_Space
340
1A
 70
0
280
1
281
0
  0
BLOCK_RECORD
  5
1B
330
9
100
AcDbSymbolTableRecord
100
AcDbBlockTableRecord
  2
*Paper_Space
340
1E
 70
0
280
1
281
0
  0
ENDTAB
  0
ENDSEC
  0
SECTION
  2
BLOCKS
  0
BLOCK
  5
18
330
17
100
AcDbEntity
  8
0
100
AcDbBlockBegin
  2
*Model_Space
 70
0
 10
0.0
 20
0.0
 30
0.0
  3
*Model_Space
  1

  0
ENDBLK
  5
19
330
17
100
AcDbEntity
  8
0
100
AcDbBlockEnd
  0
BLOCK
  5
1C
330
1B
100
AcDbEntity
  8
0
100
AcDbBlockBegin
  2
*Paper_Space
 70
0
 10
0.0
 20
0.0
 30
0.0
  3
*Paper_Space
  1

  0
ENDBLK
  5
1D
330
1B
100
AcDbEntity
  8
0
100
AcDbBlockEnd
  0
ENDSEC
  0
SECTION
  2
ENTITIES
  0
LWPOLYLINE
  5
2F
330
17
100
AcDbEntity
  8
0
100
AcDbPolyline
 90
92
 70
0
 10
38.808088302612305
 20
1922.5314911000003
 10
47.50608682632446
 20
1834.319516002344
 10
49.49077367782593
 20
1826.7808349720706
 10
50.43537139892578
 20
1819.0427215687503
 10
50.32244682312012
 20
1811.247998058008
 10
49.154088497161865
 20
1803.5405166737307
 10
48.37371826171875
 20
1799.5870407215823
 10
47.10284948348999
 20
1795.7629593006839
 10
45.36161661148071
 20
1792.128811656641
 10
43.17761421203613
 20
1788.742237865137
 10
40.58544874191284
 20
1785.6568725697268
 10
37.62619972229004
 20
1782.921582042383
 10
34.34675693511963
 20
1780.5797775379885
 10
26.71163231953551
 20
1776.3151600354438
 10
14.956293565230453
 20
1768.5249116516784
 10
7.638087272644043
 20
1762.5845153919925
 10
3.423638343811035
 20
1756.6237075916995
 10
0.06008625030517578
 20
1750.1445205799807
 10
0.0
 20
1647.6735885731448
 10
0.7885503768920898
 20
1644.4567688099612
 10
2.0988035202026367
 20
1641.4148910633792
 10
3.8946008682250977
 20
1638.6319549671878
 10
6.126365661621094
 20
1636.1847122303714
 10
8.73250961303711
 20
1634.1407592884768
 10
14.734992980957031
 20
1631.400814830469
 10
21.1069917678833
 20
1629.6723373524417
 10
30.942134857177734
 20
1628.5805709950198
 10
37.538087368011475
 20
1628.869534312891
 10
52.4022650718689
 20
1630.0469024769534
 10
57.36316460859598
 20
1629.9658832321645
 10
67.29208767414093
 20
1629.2575271717776
 10
71.8841502070427
 20
1627.3349197499026
 10
76.2192696891725
 20
1624.8874481312503
 10
82.11067378520966
 20
1620.3077133290042
 10
83.88408780097961
 20
1618.5595138661135
 10
87.60929942131042
 20
1610.4218872181643
 10
92.68508911132812
 20
1603.0507095448245
 10
98.95864486694336
 20
1596.6678436390628
 10
106.24108791351318
 20
1591.465512096094
 10
113.69412422180176
 20
1589.9039276234378
 10
121.27731800079346
 20
1589.2100341908206
 10
128.88999462127686
 20
1589.3930252186526
 10
136.4310884475708
 20
1590.4505355946292
 10
188.47491264343262
 20
1595.3781707875003
 10
240.60608863830566
 20
1599.2745025746096
 10
390.1190853118892
 20
1599.2745025746096
 10
414.57260263614126
 20
1598.2610651517346
 10
429.1335201263423
 20
1596.8227966419925
 10
443.5597290437272
 20
1594.3787003519385
 10
473.0076503753662
 20
1587.8991134754885
 10
478.6860179901123
 20
1587.6875122181643
 10
484.3361568450923
 20
1588.2910354725589
 10
489.8417186737056
 20
1589.6972854725589
 10
495.0892162322998
 20
1591.877232371973
 10
499.9705410003662
 20
1594.7860153309573
 10
504.3851757049556
 20
1598.3636673084964
 10
508.24210166931107
 20
1602.536526500391
 10
516.9520854949947
 20
1623.0835159413089
 10
516.9520854949942
 20
1928.3325012318362
 10
517.5160884857169
 20
1937.7991302601565
 10
516.3221645355216
 20
1947.2070129505862
 10
513.4114742279044
 20
1956.2326629750003
 10
508.88407707214265
 20
1964.5654876820315
 10
499.37006950378327
 20
1972.0033844105471
 10
488.78054618835404
 20
1977.8086670033206
 10
477.39306449890046
 20
1981.8291290394534
 10
465.50608634948685
 20
1983.9594848744143
 10
451.89444633921266
 20
1986.2963176927285
 10
415.4696663926993
 20
1991.5451605155777
 10
383.39608192443757
 20
1994.5765503041018
 10
180.66396713256745
 20
1998.99992066543
 10
174.73751068115143
 20
1997.9611786000003
 10
168.97686958312897
 20
1996.224270641016
 10
163.46396446227936
 20
1993.813916026758
 10
160.8250904083243
 20
1992.3665435902346
 10
151.6861867904654
 20
1983.2667358509768
 10
139.0081501007071
 20
1968.4343536488284
 10
134.0182065963736
 20
1964.0855224720706
 10
128.54163646697907
 20
1960.368099986719
 10
122.65788555145173
 20
1957.3360260121096
 10
116.45229339599518
 20
1955.0333221546878
 10
110.01487970352082
 20
1953.493328868555
 10
103.43901634216218
 20
1952.7384002796878
 10
92.5681182652238
 20
1952.7080478427556
 10
75.65117477661352
 20
1951.5267326195876
 10
58.35179686546326
 20
1948.1874664417971
 10
53.87458562850952
 20
1946.2366302601565
 10
49.790968894958496
 20
1943.5579498402346
 10
46.21816873550415
 20
1940.2282531849612
 10
43.25874090194702
 20
1936.3432891957034
 10
40.997631549835205
 20
1932.0144470326175
 10
39.49974775314331
 20
1927.3660858265628
  0
LWPOLYLINE
  5
30
330
17
100
AcDbEntity
  8
0
100
AcDbPolyline
 90
95
 70
0
 10
517.5161463026125
 20
1176.720055138998
 10
517.5161463026125
 20
1357.010048425131
 10
512.9996763349814
 20
1366.2080570736275
 10
510.97893774548356
 20
1368.9778266310025
 10
506.3007456068117
 20
1373.9714942335415
 10
500.85110724011247
 20
1378.1096015333462
 10
494.78447973767106
 20
1381.2747321485806
 10
484.905844920298
 20
1384.0242902877528
 10
481.50071203747575
 20
1384.3576941847134
 10
474.6601206068117
 20
1384.1880927442837
 10
469.2138773206789
 20
1388.0488715528775
 10
464.278116822632
 20
1392.5440345167447
 10
449.953165650757
 20
1546.564034020834
 10
446.8853861097414
 20
1556.045692956381
 10
442.0118814710695
 20
1564.738319909506
 10
435.5230814222414
 20
1572.3020253538418
 10
427.9528909925539
 20
1575.6225667356778
 10
419.9880319837648
 20
1577.8348622679043
 10
411.7897135023195
 20
1578.8942036985684
 10
403.52410376110856
 20
1578.7790761350918
 10
377.9242807630617
 20
1577.608955895834
 10
373.6738756488121
 20
1577.2183414526212
 10
326.105509400757
 20
1571.594780480795
 10
312.8256326917726
 20
1571.92559102767
 10
299.6304422620851
 20
1573.4584889768887
 10
286.6284281019289
 20
1576.180733239584
 10
273.926554322632
 20
1580.0699696897793
 10
261.62941992321794
 20
1585.0941548704434
 10
249.83811438122575
 20
1591.2120900511075
 10
240.04128515759294
 20
1593.6745534300137
 10
230.07058203259294
 20
1595.2955708860684
 10
219.9982553724367
 20
1596.0632405638028
 10
209.8970896009523
 20
1595.9720692991543
 10
82.27936804333467
 20
1523.7596974729825
 10
76.72867834606905
 20
1519.4674048780728
 10
71.80611670056214
 20
1514.4671759962368
 10
67.6011759046628
 20
1508.8501105665493
 10
64.19030249157731
 20
1502.718213593893
 10
61.63559973278825
 20
1496.1831794142056
 10
59.98353064099115
 20
1489.363721406393
 10
59.26407873669427
 20
1482.3840437292386
 10
59.11485316645212
 20
1472.6808589871027
 10
59.74369890075923
 20
1453.3266564817507
 10
61.98311865368714
 20
1434.0630445837307
 10
63.45231115856927
 20
1426.3718519567776
 10
64.22646582165521
 20
1418.579951322012
 10
64.29932653942933
 20
1410.7499800085354
 10
63.67035925427331
 20
1402.9450354933072
 10
62.34452307263223
 20
1395.2278266310025
 10
60.332499146851205
 20
1387.6604590772915
 10
57.650461793335126
 20
1380.3038154005337
 10
54.32007849255433
 20
1373.2170997022915
 10
44.62853491345231
 20
1364.5153937696743
 10
34.16512548962419
 20
1356.7590413450528
 10
29.198923707398308
 20
1352.0417104124356
 10
24.846125245484245
 20
1346.7530904173184
 10
22.781458497437143
 20
1340.6638417600918
 10
21.36773169079629
 20
1334.3914876341153
 10
20.62050879040521
 20
1328.005341088705
 10
19.190836549194273
 20
1280.6106267332364
 10
19.845469496613305
 20
1266.980967748157
 10
22.432108521851205
 20
1239.751060998373
 10
26.290064454468165
 20
1229.9382481931973
 10
31.24077856579629
 20
1220.6288228391934
 10
37.21985876599115
 20
1211.944016015463
 10
44.149485230835126
 20
1203.9969334959317
 10
51.93932592907731
 20
1196.891068017416
 10
60.48798620739831
 20
1190.7189259886075
 10
69.68415319958467
 20
1185.56084493392
 10
79.40812170544405
 20
1181.4840398191739
 10
96.69037878552308
 20
1176.6374669431973
 10
114.30237829724092
 20
1173.175705468588
 10
132.133341432007
 20
1171.1206136106778
 10
150.07111609021013
 20
1170.485046899252
 10
198.7374216322023
 20
1169.2578587889004
 10
247.41913855114763
 20
1169.3740544676114
 10
272.2127634290773
 20
1168.894012963705
 10
296.9693094495851
 20
1167.4556813597012
 10
321.6516977552492
 20
1165.0613103269864
 10
346.22307837048356
 20
1161.714409387045
 10
370.6466776136476
 20
1157.4200139402676
 10
394.886026978882
 20
1152.1845326780606
 10
418.90481054821794
 20
1146.015823876791
 10
447.41807043591325
 20
1137.9330907224942
 10
457.0362192396242
 20
1136.652267968588
 10
466.7334085706789
 20
1136.3127599119473
 10
476.4175516370851
 20
1136.917809045248
 10
481.22613012829606
 20
1137.5730595945645
 10
491.4861732412669
 20
1140.681480325549
 10
494.6967417005617
 20
1142.2788701414395
 10
500.6855112318117
 20
1146.1996922849942
 10
505.9615427259523
 20
1151.037148034506
 10
510.3860574964601
 20
1156.6639409422207
 10
515.192661089894
 20
1166.25429995406
 10
516.2403970960695
 20
1169.676598107748
  0
LWPOLYLINE
  5
31
330
17
100
AcDbEntity
  8
0
100
AcDbPolyline
 90
96
 70
0
 10
19.19084730261261
 20
744.090829297916
 10
21.51433249169736
 20
733.6250740744504
 10
22.864324475464173
 20
730.302873060123
 10
26.320936108764954
 20
724.0347151011385
 10
30.745450879272767
 20
718.4079221934238
 10
36.02148237341339
 20
713.5704664439121
 10
45.220799583742064
 20
708.0522514769626
 10
48.55405988806183
 20
706.7486814707677
 10
55.48086347692902
 20
704.9438337534824
 10
65.12411298864777
 20
703.8681272715488
 10
74.82629957311974
 20
703.7352232188144
 10
84.49541273229988
 20
704.5463422984044
 10
94.03986158483895
 20
706.2938169688144
 10
117.80214491003426
 20
713.3865980357091
 10
141.82092847936974
 20
719.5553068369785
 10
166.06027784460412
 20
724.7907880991855
 10
190.48387708776818
 20
729.085183545963
 10
215.05525770300255
 20
732.4320844859044
 10
239.73764600866662
 20
734.8264555186191
 10
264.4941920291744
 20
736.264787122623
 10
289.2878169071041
 20
736.7448286265294
 10
337.9695338260494
 20
736.6286329478183
 10
404.57361402624474
 20
738.4913877695958
 10
422.40457716101037
 20
740.546479627506
 10
440.0165766727291
 20
744.0082411021153
 10
457.29883375280724
 20
748.854813978092
 10
467.02280225866707
 20
752.9316190928381
 10
476.2189692508541
 20
758.0897001475256
 10
484.76762952917534
 20
764.2618421763342
 10
492.55747022741707
 20
771.3677076548498
 10
499.4870966922613
 20
779.314790174381
 10
505.46617689245613
 20
787.9995969981115
 10
510.4168910037838
 20
797.3090223521154
 10
514.274846936401
 20
807.1218351572912
 10
516.5171146699909
 20
829.8114270572709
 10
517.5161189090572
 20
847.9814008921545
 10
517.4894863887812
 20
861.6267383574675
 10
515.3392237674561
 20
901.7622617930334
 10
513.925496960815
 20
908.03461591901
 10
511.8608302127682
 20
914.1238645762365
 10
507.5080317508541
 20
919.4124845713537
 10
502.541829968628
 20
924.1298155039709
 10
492.0784205447999
 20
931.8861631602209
 10
482.38687696569787
 20
940.5878690928381
 10
479.05649366491707
 20
947.6745847910803
 10
476.374456311401
 20
955.0312284678381
 10
474.3624323856202
 20
962.598596021549
 10
473.0365962039791
 20
970.3158048838537
 10
472.40762891882287
 20
978.1207517832678
 10
472.4804896365963
 20
985.9507230967444
 10
473.25464429968224
 20
993.74262373151
 10
474.72383680456505
 20
1001.4338163584631
 10
475.960679380898
 20
1011.059031216049
 10
477.5070636500691
 20
1030.3616281357117
 10
477.44287672155724
 20
1049.754815503971
 10
476.7234248172613
 20
1056.7344907969398
 10
475.07135572546395
 20
1063.5539488047523
 10
472.51665296667534
 20
1070.0889829844398
 10
469.10577955358895
 20
1076.220879957096
 10
464.90083875769005
 20
1081.8379453867835
 10
459.97827711218224
 20
1086.8381742686195
 10
454.4275874149166
 20
1091.1304716319007
 10
448.34985914343224
 20
1094.636865064518
 10
326.8098658572994
 20
1163.3428434580726
 10
316.70870008581505
 20
1163.434014722721
 10
306.6363734256588
 20
1162.6663450449867
 10
296.6656703006588
 20
1161.045327588932
 10
286.868841077026
 20
1158.5828642100257
 10
275.0775355350338
 20
1152.4649290293617
 10
262.78040113561974
 20
1147.4407438486976
 10
250.07852735632287
 20
1143.5515073985023
 10
237.07651319616662
 20
1140.829263135807
 10
223.88132276647912
 20
1139.2963651865882
 10
210.60144605749474
 20
1138.9655546397132
 10
197.34628858679162
 20
1139.8394254893226
 10
179.99089591846268
 20
1142.499212536202
 10
154.52607596868393
 20
1145.2956222952191
 10
124.91724195593224
 20
1146.2649778574867
 10
116.71892347448693
 20
1145.2056364268226
 10
108.75406446569787
 20
1142.993340894596
 10
101.18387403601037
 20
1139.67279951276
 10
94.6951121341549
 20
1132.1090940684242
 10
89.82156934851037
 20
1123.4164671152992
 10
86.7538279544674
 20
1113.9348081797523
 10
85.6118601810299
 20
1104.034829542057
 10
72.42883863561974
 20
959.914803907291
 10
67.49311628454552
 20
955.4196409434238
 10
62.04683485144051
 20
951.5588621348301
 10
51.80112904058501
 20
951.3950624921509
 10
48.43416395300301
 20
950.7480863779941
 10
41.92251386755379
 20
948.6455015391269
 10
35.85588636511238
 20
945.4803709238926
 10
30.406247998413164
 20
941.3422636240879
 10
23.707317373290152
 20
933.5788264373608
 10
21.95394697302254
 20
930.6408170908848
 10
19.19084730261261
 20
924.3808225840488
  0
LWPOLYLINE
  5
32
330
17
100
AcDbEntity
  8
0
100
AcDbPolyline
 90
65
 70
0
 10
391.9300753026123
 20
42.03759420648042
 10
399.86867012072753
 20
42.29626882806245
 10
407.6024729161377
 20
44.1062663866562
 10
414.83138145495604
 20
47.39732015862886
 10
421.27480567980956
 20
52.04167593255464
 10
426.6826731114502
 20
57.859165556578084
 10
430.84509910632323
 20
64.62392080560151
 10
433.6005503087158
 20
72.0734523607773
 10
434.8420816807861
 20
79.91860616937103
 10
435.96608223010253
 20
108.55885732903901
 10
435.5830866246338
 20
137.2186015917343
 10
451.06707634020995
 20
231.7236064745468
 10
473.23409141589354
 20
476.8766044451279
 10
490.54108680773925
 20
553.367606289534
 10
496.99417693815167
 20
576.0281707970978
 10
507.13430247672477
 20
617.1641333538403
 10
516.5301615147705
 20
666.3131927324814
 10
517.5161463170166
 20
678.6234210802597
 10
517.1928888707275
 20
690.9688400103134
 10
515.564089432251
 20
703.210604078917
 10
514.1175180821533
 20
708.7018607927841
 10
511.7436319737549
 20
713.8604568316025
 10
508.51391853381347
 20
718.5311340166611
 10
504.52553810168456
 20
722.5733207537216
 10
499.8985392003174
 20
725.8653377367539
 10
494.7722155003662
 20
728.3081077410263
 10
489.3008333592529
 20
729.8281215502304
 10
483.64907325793456
 20
730.3796027971787
 10
207.41481011535643
 20
730.3800834180988
 10
198.28386991278967
 20
728.5744626771249
 10
189.53633612119302
 20
725.4227813360521
 10
181.37130373719583
 20
720.9647942617046
 10
173.99017599570243
 20
715.3104695491
 10
167.53405159291424
 20
708.6057836443005
 10
164.73624052096557
 20
704.8909591509383
 10
160.00108303118895
 20
696.8856071306747
 10
142.8547006993408
 20
672.7277587725204
 10
125.10508121539306
 20
649.0096067263167
 10
94.95838226367187
 20
620.5406974627059
 10
65.55607856799361
 20
591.3036071135085
 10
59.16749061633345
 20
578.8683407379668
 10
53.53997291613814
 20
566.0706435514968
 10
48.69399131823775
 20
552.9570435358565
 10
44.64716972399947
 20
539.5752190424483
 10
41.41421379138228
 20
525.9738229586166
 10
39.00689186145064
 20
512.2023032976668
 10
37.43393959094283
 20
498.31073034539645
 10
36.37841971863077
 20
479.38863936973684
 10
31.62835382343087
 20
400.0120830796511
 10
29.645275735385667
 20
350.39912726811724
 10
29.012863040010416
 20
305.7444181779389
 10
29.554192826205735
 20
266.0484251380785
 10
31.383381047822468
 20
216.42538433238414
 10
35.78208030749556
 20
137.02462423577725
 10
37.348312275260696
 20
119.3352187971373
 10
39.211350098144976
 20
106.19183767571865
 10
41.00168138259755
 20
97.52809820712338
 10
47.8920561223149
 20
72.504055388121
 10
50.80858291674849
 20
65.54707754388262
 10
54.481335297119585
 20
58.95795095696868
 10
58.86465133715865
 20
52.818577177671806
 10
61.30608619738814
 20
49.94160879388274
 10
64.61148323107955
 20
48.3944057299179
 10
70.7282644658203
 20
44.42567098870696
 10
73.48808349658202
 20
42.0375942064804
  0
CIRCLE
  5
33
330
17
100
AcDbEntity
  8
0
100
AcDbCircle
 10
120.46908439685058
 20
111.37459982171475
 30
0.0
 40
14.50000047683716
  0
CIRCLE
  5
34
330
17
100
AcDbEntity
  8
0
100
AcDbCircle
 10
732.0161467938537
 20
111.76160085931244
 30
0.0
 40
14.50000047683716
  0
CIRCLE
  5
35
330
17
100
AcDbEntity
  8
0
100
AcDbCircle
 10
830.3711533546443
 20
1665.2655227772464
 30
0.0
 40
14.50000047683716
  0
CIRCLE
  5
36
330
17
100
AcDbEntity
  8
0
100
AcDbCircle
 10
832.4221634864798
 20
1904.11954957168
 30
0.0
 40
14.50000047683716
  0
LWPOLYLINE
  5
37
330
17
100
AcDbEntity
  8
0
100
AcDbPolyline
 90
65
 70
0
 10
1523.2933998023775
 20
1594.9843184655579
 10
1097.6262024675502
 20
1595.621134941706
 10
1092.4598159221243
 20
1593.970732742831
 10
1087.4444997917444
 20
1590.885189572281
 10
1081.1928938669246
 20
1586.216418423223
 10
1078.7211195868863
 20
1583.4275437313127
 10
1076.1687613474555
 20
1578.9774700132864
 10
1073.4589207724366
 20
1572.9418783436429
 10
1066.9085572740694
 20
1550.0832554522194
 10
1064.2205168125251
 20
1538.344588632646
 10
1062.8640311762674
 20
1526.6030965840482
 10
1062.9000951453108
 20
1519.1975406171193
 10
1064.552595472733
 20
1506.6750145643143
 10
1071.27618601805
 20
1470.042163948594
 10
1075.7964520946966
 20
1440.1747620458648
 10
1078.5012226495614
 20
1363.9574681207584
 10
1081.920322448176
 20
1246.4501848031057
 10
1088.7134326098428
 20
1186.8216877785035
 10
1092.444871401473
 20
1160.393811096396
 10
1099.6173697498164
 20
1116.696174561918
 10
1100.7090456496671
 20
1106.8398495164279
 10
1100.6787978075042
 20
1092.590076185382
 10
1099.5622023873755
 20
1082.3407681011347
 10
1095.9183962789555
 20
1064.6775721290749
 10
1089.5828052224836
 20
1044.3612949899268
 10
1082.1496668430198
 20
1025.4507000225267
 10
1077.3914162851481
 20
1015.0811958778445
 10
1062.2991764825033
 20
986.868032418513
 10
1055.5886972033973
 20
972.6755321435725
 10
1052.1528809925378
 20
964.6351995090808
 10
1050.56859476385
 20
958.8388732387791
 10
1048.8860686668431
 20
950.324149347013
 10
1046.922163963317
 20
840.0315823611445
 10
1047.850566047595
 20
835.2126741977889
 10
1052.5845524338135
 20
826.7699161000104
 10
1055.0199013725316
 20
824.4992425224438
 10
1057.9056871113983
 20
822.6681277340232
 10
1061.3707410957215
 20
821.4650891287598
 10
1422.0160560523998
 20
817.3022006152764
 10
1425.6142148237948
 20
818.3014528544041
 10
1430.1145855602128
 20
820.8091268688157
 10
1437.0620591462214
 20
826.5840005448059
 10
1454.8885307238309
 20
844.9219147566762
 10
1471.437448875363
 20
865.2284949555676
 10
1474.687718448338
 20
871.7462461690143
 10
1476.7387745941207
 20
879.6258466412451
 10
1477.4022165948434
 20
887.2365308484258
 10
1477.969099186372
 20
1072.6694572898598
 10
1480.6055175354766
 20
1114.1891148813504
 10
1482.1971926555486
 20
1132.379195307459
 10
1491.3236742612414
 20
1177.6382778829352
 10
1499.6284594308715
 20
1214.4588463250113
 10
1519.3016205456317
 20
1268.7230632578555
 10
1528.1701068518703
 20
1291.441343902614
 10
1538.9779726438553
 20
1324.490554070776
 10
1544.588407470467
 20
1347.9673902493862
 10
1550.1483651043752
 20
1388.8817113131474
 10
1551.8020223006554
 20
1404.0544746291976
 10
1552.542559143911
 20
1427.7295577020245
 10
1552.4657478208621
 20
1572.3579764099607
 10
1550.535822091281
 20
1577.9805219335142
 10
1542.9727821675085
 20
1587.1492124345782
 10
1538.4496810678622
 20
1590.874240277944
 10
1533.2767953510677
 20
1593.4225840380554
 10
1529.9496376022378
 20
1594.2452280321793
  0
LWPOLYLINE
  5
38
330
17
100
AcDbEntity
  8
0
100
AcDbPolyline
 90
62
 70
0
 10
1110.3967278344066
 20
504.15100936358107
 10
1046.9293530228133
 20
50.98063183675943
 10
1048.0570957664775
 20
45.31368846529979
 10
1050.5567053236314
 20
40.2949163101887
 10
1054.7230146625002
 20
35.41615351159654
 10
1058.8125734759262
 20
32.60233054982367
 10
1063.2996458579123
 20
30.666544078165504
 10
1068.6713827945096
 20
29.16706218137525
 10
1245.0231241210702
 20
6.23570867107689
 10
1277.9892587307543
 20
3.908978405847492
 10
1337.5618273439607
 20
1.000508294048921
 10
1360.6737641486568
 20
1.9629359478600428
 10
1391.5074241504465
 20
4.576456472392068
 10
1441.6817255367198
 20
8.656857093735544
 10
1492.016147802194
 20
13.152960642054847
 10
1502.242518467361
 20
13.709297955839657
 10
1518.0425360464267
 20
12.918273942190083
 10
1525.2273011142981
 20
12.237385094713277
 10
1569.5165458805761
 20
5.764180184735005
 10
1583.8241485639512
 20
2.549784346562513
 10
1593.6272223497228
 20
1.0420565959287524
 10
1599.6826795255386
 20
1.0005102602037512
 10
1604.224392358911
 20
2.381120970048724
 10
1609.3197593999369
 20
6.016507167583511
 10
1613.1411866806031
 20
11.370980221452184
 10
1614.135598397381
 20
13.933419935471106
 10
1653.8919167301003
 20
287.42313392091245
 10
1653.571856869867
 20
292.8498415151119
 10
1651.880598014587
 20
297.10695648967373
 10
1649.7440619905512
 20
299.99992849696963
 10
1647.0109945403308
 20
302.7170985690963
 10
1644.2155274624881
 20
304.5352236919278
 10
1639.9777083587658
 20
306.036668096567
 10
1622.6605589810072
 20
309.4276083785376
 10
1613.8145675980566
 20
312.68987085431246
 10
1611.8916392880476
 20
314.7488807254935
 10
1609.5949627842394
 20
319.0389323407875
 10
1608.7726791502012
 20
323.51149374421
 10
1608.869808612333
 20
335.0916070691535
 10
1608.6351254239682
 20
339.40404401854863
 10
1607.6738677136857
 20
342.8845412351007
 10
1603.8281950709559
 20
349.18122014518354
 10
1600.0356531359892
 20
352.0468075170886
 10
1591.4675179168828
 20
356.2038687827435
 10
1579.4697629828804
 20
359.2851672569805
 10
1505.9199507522633
 20
373.36330217420226
 10
1456.1781620522854
 20
379.7421417716519
 10
1430.467165510415
 20
385.38648536202464
 10
1407.0919121780496
 20
391.4027326729868
 10
1377.31768843832
 20
402.3502607421436
 10
1348.4963795310175
 20
416.7139402217354
 10
1316.77322549122
 20
435.19511142682967
 10
1250.2928300794867
 20
484.3608361679345
 10
1211.879670348062
 20
509.26498774281794
 10
1206.3634942188894
 20
511.65119834118997
 10
1190.0584258991548
 20
516.0328206758271
 10
1138.617178910638
 20
523.5617017137172
 10
1132.244805004089
 20
523.7238356064895
 10
1125.0445445513187
 20
521.7072295626641
 10
1119.3673045874086
 20
518.8049895735534
 10
1115.5669535477246
 20
515.1916363313051
 10
1112.104940836755
 20
510.07428142789144
  0
LWPOLYLINE
  5
39
330
17
100
AcDbEntity
  8
0
100
AcDbPolyline
 90
22
 70
0
 10
1099.7910406911487
 20
73.34077469831273
 10
1103.3072317000758
 20
73.41466980092862
 10
1106.6346916474872
 20
74.59315253708066
 10
1109.1344822048145
 20
76.44182234192063
 10
1111.2688559514686
 20
79.30213714721704
 10
1112.347696700278
 20
82.24901047843026
 10
1112.5706336048106
 20
85.82758683598071
 10
1111.8655672361986
 20
88.87964471161514
 10
1110.1015165749247
 20
91.9711084830076
 10
1107.8498524374463
 20
94.10024166623414
 10
1104.69264733717
 20
95.66203283975138
 10
1101.6527754100555
 20
96.15012502490784
 10
1098.1672956007437
 20
95.65517464696394
 10
1095.3644240254819
 20
94.33726389431253
 10
1092.725968199261
 20
91.9532400166283
 10
1091.1051374464146
 20
89.27419832170797
 10
1090.202123520161
 20
85.80494788589887
 10
1090.3089706753651
 20
82.66794701905344
 10
1091.4456522706403
 20
79.28190448236133
 10
1093.2441163802082
 20
76.74357045904533
 10
1096.038326911971
 20
74.58194555783406
 10
1098.9223095432883
 20
73.49843691657209
  0
LWPOLYLINE
  5
3A
330
17
100
AcDbEntity
  8
0
100
AcDbPolyline
 90
22
 70
0
 10
1107.7240844969115
 20
1545.6514661159022
 10
1108.2776991775936
 20
1542.1783449716308
 10
1109.8997569588687
 20
1539.0431033836128
 10
1112.0726336389862
 20
1536.8193363520124
 10
1115.1977420308676
 20
1535.0957790959883
 10
1118.2643811495952
 20
1534.4296827763792
 10
1121.839858379159
 20
1534.6977726700554
 10
1124.7669627789276
 20
1535.8132258036408
 10
1127.588415911265
 20
1537.9831164016662
 10
1129.3899408864368
 20
1540.504565838747
 10
1130.5057213293853
 20
1543.8455491847128
 10
1130.5739026540796
 20
1546.923601591907
 10
1129.6073772456414
 20
1550.308771308862
 10
1127.918872775283
 20
1552.9052940745903
 10
1125.1967167425548
 20
1555.1932812969692
 10
1122.3213462440801
 20
1556.4328785013045
 10
1118.761251687115
 20
1556.8534251489339
 10
1115.6682669609172
 20
1556.3189756782888
 10
1112.4692809169612
 20
1554.7303229787021
 10
1110.2004723292716
 20
1552.6019150385393
 10
1108.4408877312453
 20
1549.538567726898
 10
1107.7615746197202
 20
1546.5335917719292
  0
LWPOLYLINE
  5
3B
330
17
100
AcDbEntity
  8
0
100
AcDbPolyline
 90
22
 70
0
 10
1154.110647082005
 20
454.0959545516355
 10
1157.626838090932
 20
454.1698496542524
 10
1160.9542980383435
 20
455.3483323904037
 10
1163.4540885956708
 20
457.1970021952439
 10
1165.5884623423246
 20
460.05731700054014
 10
1166.6673030911343
 20
463.0041903317533
 10
1166.890239995667
 20
466.5827666893036
 10
1166.1851736270548
 20
469.63482456493796
 10
1164.4211229657813
 20
472.726288336331
 10
1162.1694588283028
 20
474.8554215195575
 10
1159.0122537280263
 20
476.41721269307476
 10
1155.9723818009118
 20
476.9053048782316
 10
1152.4869019916
 20
476.41035450028704
 10
1149.6840304163381
 20
475.0924437476358
 10
1147.045574590117
 20
472.7084198699515
 10
1145.4247438372709
 20
470.02937817503107
 10
1144.5217299110172
 20
466.56012773922265
 10
1144.6285770662214
 20
463.4231268723769
 10
1145.7652586614965
 20
460.0370843356843
 10
1147.5637227710647
 20
457.49875031236917
 10
1150.3579333028272
 20
455.33712541115744
 10
1153.2419159341446
 20
454.2536167698957
  0
LWPOLYLINE
  5
3C
330
17
100
AcDbEntity
  8
0
100
AcDbPolyline
 90
60
 70
0
 10
1216.5919639592778
 20
1596.4532413635816
 10
1614.4958002870624
 20
1595.8448770838054
 10
1627.1808279563581
 20
1597.3438519568067
 10
1637.9410385619487
 20
1599.7901019309004
 10
1645.9745630249474
 20
1603.656985549878
 10
1651.931305519948
 20
1609.1839569708145
 10
1658.939320094685
 20
1618.4338394137067
 10
1661.9668426780484
 20
1623.903588134361
 10
1663.9656283565148
 20
1628.6199421170627
 10
1665.06616606977
 20
1633.7783565653833
 10
1665.4624871645403
 20
1805.0390986947828
 10
1664.7762512860675
 20
1809.2692191976314
 10
1663.6261098136908
 20
1812.593936537092
 10
1661.2444758800032
 20
1816.7514593783849
 10
1658.1684117609345
 20
1820.3815600399114
 10
1655.3984976741506
 20
1822.8028675572398
 10
1652.0877493257187
 20
1824.394420948537
 10
1647.1582701823606
 20
1825.6866962658178
 10
1619.6827156467168
 20
1825.8168782853352
 10
1612.1928043599762
 20
1826.8786221991973
 10
1609.0284686583148
 20
1827.9329158185976
 10
1599.7621170568689
 20
1833.236796090651
 10
1594.0166981697396
 20
1837.3983638881061
 10
1587.3403104579372
 20
1844.751768394832
 10
1583.6519157143837
 20
1852.231132799761
 10
1582.2369650283188
 20
1859.225860210226
 10
1582.3469039529007
 20
1976.3127561200981
 10
1581.5365678437245
 20
1979.5721251309974
 10
1577.1150587402465
 20
1989.4573308828105
 10
1573.5165636803642
 20
1993.9945323080035
 10
1570.191886364629
 20
1996.44700120543
 10
1566.5879297114714
 20
1997.8125100031345
 10
1561.1342754378563
 20
1998.9999644995444
 10
1270.545021740366
 20
1998.999999546363
 10
1264.2704377083276
 20
1996.9117031919768
 10
1258.9740151534586
 20
1993.3801686885263
 10
1255.3285537356953
 20
1989.4664354314875
 10
1252.7129537089656
 20
1984.15995566737
 10
1251.9346659100504
 20
1981.7839988006078
 10
1251.515402574045
 20
1978.0923218978594
 10
1248.0655873096318
 20
1874.3478090959345
 10
1244.6122297687236
 20
1855.7766391187222
 10
1242.7558218970423
 20
1851.7019323420532
 10
1238.3960351294934
 20
1843.7348745559102
 10
1234.9673385384729
 20
1839.4816356737888
 10
1210.7091489199815
 20
1815.6076270846
 10
1182.9279567609412
 20
1787.2109811816686
 10
1168.7708168359757
 20
1771.068741204415
 10
1165.6148454131292
 20
1764.0964297715989
 10
1164.4997520364707
 20
1760.92664835416
 10
1164.2137599004282
 20
1755.943035783451
 10
1162.701878749977
 20
1636.0962038504827
 10
1163.2767021890472
 20
1633.2545966986152
 10
1164.6960938640486
 20
1628.8382684934168
 10
1167.0255263847184
 20
1624.7528304610203
 10
1174.5723794741089
 20
1615.1862907480565
 10
1182.0069335615522
 20
1607.8752820943573
 10
1186.4161247065529
 20
1604.6337528515103
 10
1194.1235849780594
 20
1600.425103963559
 10
1207.5851942970874
 20
1597.1242812913285
  0
LWPOLYLINE
  5
3D
330
17
100
AcDbEntity
  8
0
100
AcDbPolyline
 90
22
 70
0
 10
1223.536294672729
 20
1647.9711120424925
 10
1222.981289726409
 20
1651.4440112934083
 10
1221.3579770201957
 20
1654.5786033113395
 10
1219.1842103276815
 20
1656.8015003499688
 10
1216.0584122364942
 20
1658.5238064693717
 10
1212.9915067213572
 20
1659.188675142666
 10
1209.4161370961663
 20
1658.9191539867566
 10
1206.4894794531085
 20
1657.8025292061334
 10
1203.6688951662848
 20
1655.631509338353
 10
1201.8683796858948
 20
1653.109338942682
 10
1200.7539367468332
 20
1649.7679092111953
 10
1200.6869875893512
 20
1646.689829757253
 10
1201.6548680228912
 20
1643.3050472171008
 10
1203.344411760679
 20
1640.7092005772806
 10
1206.0674834694994
 20
1638.422303232643
 10
1208.9433499553493
 20
1637.1838571546648
 10
1212.503612574268
 20
1636.764735666673
 10
1215.5963831095094
 20
1637.3004232337378
 10
1218.794732950514
 20
1638.8903563782046
 10
1221.0626893427113
 20
1641.0196723647164
 10
1222.8210475245385
 20
1644.0837238025601
 10
1223.4991576728023
 20
1647.0889714496354
  0
LWPOLYLINE
  5
3E
330
17
100
AcDbEntity
  8
0
100
AcDbPolyline
 90
56
 70
0
 10
1665.4624879592777
 20
422.30661483420045
 10
1665.4624882708429
 20
839.653188527756
 10
1664.0442479265246
 20
845.4880245588846
 10
1661.4973499961982
 20
852.1779705719872
 10
1658.0400499958293
 20
859.0168850576136
 10
1654.3272586257629
 20
864.2579518031622
 10
1650.1772640412935
 20
868.9789153787675
 10
1642.1041870628103
 20
875.8200601684171
 10
1631.7852882504087
 20
880.6398273354916
 10
1627.1289755201399
 20
882.1826326282593
 10
1501.4476777226653
 20
881.995097797963
 10
1497.9861582318401
 20
881.0331026267731
 10
1491.9436907556071
 20
877.8245017374021
 10
1484.9563775445856
 20
872.1118585120743
 10
1476.2057812975784
 20
862.9322387215827
 10
1419.7718547742486
 20
808.5247783655186
 10
1415.0132690482508
 20
805.5982687269302
 10
1403.4574235455132
 20
800.5165488884088
 10
1394.8479831234793
 20
798.9784439862372
 10
1288.33313275888
 20
795.6017898142184
 10
1280.3393272014434
 20
794.5351140956091
 10
1274.3578598194406
 20
792.9837486195988
 10
1270.6596616665013
 20
790.4329053757801
 10
1267.1787159992434
 20
787.2162055640389
 10
1265.1960797180698
 20
784.1685017967712
 10
1263.8354152372183
 20
780.3160946680231
 10
1262.6253467400536
 20
775.2307090600286
 10
1262.621326063778
 20
486.51004872884545
 10
1265.8652098341988
 20
477.1078489663565
 10
1268.8844009833472
 20
472.9456583461519
 10
1272.658921402144
 20
469.2455468542781
 10
1276.1319482666079
 20
467.16375648784754
 10
1281.4931376044449
 20
465.77481660181184
 10
1287.8362327754705
 20
464.92493314345836
 10
1393.0655095773466
 20
464.72786081052027
 10
1408.0102461035974
 20
461.81532979691355
 10
1416.3824675143821
 20
458.81635579024606
 10
1421.4922919586381
 20
455.59661205219436
 10
1427.7970025783645
 20
448.71465910200186
 10
1434.9688739914575
 20
433.9540111145392
 10
1436.1630512113381
 20
428.2944633839196
 10
1436.9351723956745
 20
393.73479892092666
 10
1438.3815501015076
 20
390.84462013486797
 10
1441.4011917585306
 20
387.9538826280501
 10
1444.9244131495
 20
385.4482558696296
 10
1453.4187138257723
 20
381.7207866048752
 10
1460.655176940281
 20
380.17706709981496
 10
1466.6333941883101
 20
379.66122996096465
 10
1632.5110559053558
 20
381.3823161753659
 10
1636.2484149005438
 20
381.92584134440636
 10
1639.773070974583
 20
383.46574918749263
 10
1645.249299945421
 20
387.0598386151193
 10
1651.8593028433427
 20
393.5431938897698
 10
1657.2736251380172
 20
400.026972824185
 10
1661.870283731496
 20
407.73112260514057
 10
1664.8304975329145
 20
414.72948872417845
  0
LWPOLYLINE
  5
3F
330
17
100
AcDbEntity
  8
0
100
AcDbPolyline
 90
22
 70
0
 10
1483.5235038155317
 20
1543.8444840629088
 10
1484.0771184962139
 20
1540.3713629186373
 10
1485.699176277489
 20
1537.2361213306192
 10
1487.872052957607
 20
1535.012354299019
 10
1490.9971613494884
 20
1533.288797042995
 10
1494.0638004682157
 20
1532.6227007233856
 10
1497.6392776977798
 20
1532.890790617062
 10
1500.566382097548
 20
1534.0062437506474
 10
1503.3878352298855
 20
1536.1761343486728
 10
1505.189360205057
 20
1538.6975837857537
 10
1506.305140648006
 20
1542.0385671317194
 10
1506.3733219727003
 20
1545.1166195389135
 10
1505.4067965642619
 20
1548.5017892558687
 10
1503.7182920939038
 20
1551.098312021597
 10
1500.9961360611753
 20
1553.3862992439756
 10
1498.1207655627006
 20
1554.6258964483109
 10
1494.5606710057352
 20
1555.0464430959403
 10
1491.4676862795375
 20
1554.5119936252952
 10
1488.2687002355817
 20
1552.9233409257088
 10
1485.999891647892
 20
1550.794932985546
 10
1484.240307049866
 20
1547.7315856739042
 10
1483.5609939383405
 20
1544.7266097189358
  0
LWPOLYLINE
  5
40
330
17
100
AcDbEntity
  8
0
100
AcDbPolyline
 90
22
 70
0
 10
1615.5329973559521
 20
1647.7126585201333
 10
1614.9779924096322
 20
1651.1855577710492
 10
1613.3546797034185
 20
1654.3201497889804
 10
1611.1809130109043
 20
1656.5430468276097
 10
1608.055114919717
 20
1658.2653529470126
 10
1604.9882094045795
 20
1658.9302216203068
 10
1601.4128397793886
 20
1658.6607004643975
 10
1598.4861821363318
 20
1657.5440756837743
 10
1595.665597849507
 20
1655.373055815994
 10
1593.8650823691175
 20
1652.8508854203228
 10
1592.7506394300556
 20
1649.5094556888362
 10
1592.6836902725734
 20
1646.4313762348938
 10
1593.6515707061137
 20
1643.0465936947417
 10
1595.3411144439017
 20
1640.4507470549215
 10
1598.0641861527226
 20
1638.1638497102838
 10
1600.9400526385714
 20
1636.9254036323057
 10
1604.5003152574907
 20
1636.506282144314
 10
1607.5930857927322
 20
1637.041969711379
 10
1610.7914356337371
 20
1638.6319028558455
 10
1613.0593920259346
 20
1640.7612188423573
 10
1614.8177502077617
 20
1643.825270280201
 10
1615.4958603560256
 20
1646.8305179272763
  0
LWPOLYLINE
  5
41
330
17
100
AcDbEntity
  8
0
100
AcDbPolyline
 90
22
 70
0
 10
1614.3206177509667
 20
453.0131507808339
 10
1610.8484810271855
 20
452.4533952370289
 10
1607.7161127234751
 20
450.82579575590864
 10
1605.4961915971892
 20
448.64899005238294
 10
1603.7781633529069
 20
445.52083867694574
 10
1603.1174909969193
 20
442.4530264549312
 10
1603.391903202564
 20
438.8780288952659
 10
1604.5125307666046
 20
435.9529015949452
 10
1606.687407316938
 20
433.13529002196617
 10
1609.2120385564265
 20
431.3382266940548
 10
1612.5549897801727
 20
430.22835605720644
 10
1615.63315794381
 20
430.165617944067
 10
1619.016613202951
 20
431.13812804022984
 10
1621.610146025014
 20
432.8312214576899
 10
1623.8933159179958
 20
435.55741921942115
 10
1625.127826493802
 20
438.43497727630154
 10
1625.5420769548493
 20
441.9958099447776
 10
1625.002158809176
 20
445.08784473583984
 10
1623.4078516343636
 20
448.2840164680331
 10
1621.2754349515747
 20
450.5490577167273
 10
1618.2089808504982
 20
452.30322246250887
 10
1615.2028083237822
 20
452.9772206324237
  0
LWPOLYLINE
  5
42
330
17
100
AcDbEntity
  8
0
100
AcDbPolyline
 90
22
 70
0
 10
1614.9531288694682
 20
845.396139133544
 10
1611.4809921456865
 20
844.8363835897388
 10
1608.3486238419762
 20
843.2087841086187
 10
1606.1287027156907
 20
841.031978405093
 10
1604.4106744714084
 20
837.9038270296559
 10
1603.7500021154203
 20
834.8360148076414
 10
1604.024414321065
 20
831.2610172479762
 10
1605.1450418851061
 20
828.3358899476553
 10
1607.3199184354391
 20
825.5182783746762
 10
1609.8445496749275
 20
823.721215046765
 10
1613.1875008986742
 20
822.6113444099166
 10
1616.265669062311
 20
822.5486062967772
 10
1619.6491243214525
 20
823.5211163929399
 10
1622.242657143515
 20
825.2142098104001
 10
1624.5258270364973
 20
827.9404075721313
 10
1625.7603376123036
 20
830.8179656290116
 10
1626.1745880733504
 20
834.3787982974878
 10
1625.6346699276771
 20
837.47083308855
 10
1624.0403627528651
 20
840.6670048207433
 10
1621.9079460700757
 20
842.9320460694373
 10
1618.8414919689997
 20
844.6862108152189
 10
1615.8353194422837
 20
845.3602089851338
  0
ENDSEC
  0
SECTION
  2
OBJECTS
  0
DICTIONARY
  5
A
330
0
100
AcDbDictionary
281
1
  3
ACAD_COLOR
350
B
  3
ACAD_GROUP
350
C
  3
ACAD_LAYOUT
350
D
  3
ACAD_MATERIAL
350
E
  3
ACAD_MLEADERSTYLE
350
F
  3
ACAD_MLINESTYLE
350
10
  3
ACAD_PLOTSETTINGS
350
11
  3
ACAD_PLOTSTYLENAME
350
12
  3
ACAD_SCALELIST
350
14
  3
ACAD_TABLESTYLE
350
15
  3
ACAD_VISUALSTYLE
350
16
  3
EZDXF_META
350
2D
  0
DICTIONARY
  5
B
330
A
100
AcDbDictionary
281
1
  0
DICTIONARY
  5
C
330
A
100
AcDbDictionary
281
1
  0
DICTIONARY
  5
D
330
A
100
AcDbDictionary
281
1
  3
Model
350
1A
  3
Layout1
350
1E
  0
DICTIONARY
  5
E
330
A
100
AcDbDictionary
281
1
  3
ByBlock
350
1F
  3
ByLayer
350
20
  3
Global
350
21
  0
DICTIONARY
  5
F
330
A
100
AcDbDictionary
281
1
  3
Standard
350
2C
  0
DICTIONARY
  5
10
330
A
100
AcDbDictionary
281
1
  3
Standard
350
22
  0
DICTIONARY
  5
11
330
A
100
AcDbDictionary
281
1
  0
ACDBDICTIONARYWDFLT
  5
12
330
A
100
AcDbDictionary
281
1
  3
Normal
350
13
100
AcDbDictionaryWithDefault
340
13
  0
ACDBPLACEHOLDER
  5
13
330
12
  0
DICTIONARY
  5
14
330
A
100
AcDbDictionary
281
1
  0
DICTIONARY
  5
15
330
A
100
AcDbDictionary
281
1
  0
DICTIONARY
  5
16
330
A
100
AcDbDictionary
281
1
  0
LAYOUT
  5
1A
330
D
100
AcDbPlotSettings
  1

  4
A3
  6

 40
7.5
 41
20.0
 42
7.5
 43
20.0
 44
420.0
 45
297.0
 46
0.0
 47
0.0
 48
0.0
 49
0.0
140
0.0
141
0.0
142
1.0
143
1.0
 70
1024
 72
1
 73
0
 74
5
  7

 75
16
 76
0
 77
2
 78
300
147
1.0
148
0.0
149
0.0
100
AcDbLayout
  1
Model
 70
1
 71
0
 10
0.0
 20
0.0
 11
420.0
 21
297.0
 12
0.0
 22
0.0
 32
0.0
 14
1e+20
 24
1e+20
 34
1e+20
 15
-1e+20
 25
-1e+20
 35
-1e+20
146
0.0
 13
0.0
 23
0.0
 33
0.0
 16
1.0
 26
0.0
 36
0.0
 17
0.0
 27
1.0
 37
0.0
 76
1
330
17
  0
LAYOUT
  5
1E
330
D
100
AcDbPlotSettings
  1

  4
A3
  6

 40
7.5
 41
20.0
 42
7.5
 43
20.0
 44
420.0
 45
297.0
 46
0.0
 47
0.0
 48
0.0
 49
0.0
140
0.0
141
0.0
142
1.0
143
1.0
 70
0
 72
1
 73
0
 74
5
  7

 75
16
 76
0
 77
2
 78
300
147
1.0
148
0.0
149
0.0
100
AcDbLayout
  1
Layout1
 70
1
 71
1
 10
0.0
 20
0.0
 11
420.0
 21
297.0
 12
0.0
 22
0.0
 32
0.0
 14
1e+20
 24
1e+20
 34
1e+20
 15
-1e+20
 25
-1e+20
 35
-1e+20
146
0.0
 13
0.0
 23
0.0
 33
0.0
 16
1.0
 26
0.0
 36
0.0
 17
0.0
 27
1.0
 37
0.0
 76
1
330
1B
  0
MATERIAL
  5
1F
102
{ACAD_REACTORS
330
E
102
}
330
E
100
AcDbMaterial
  1
ByBlock
  2

 70
0
 40
1.0
 71
1
 41
1.0
 91
-1023410177
 42
1.0
 72
1
  3

 73
1
 74
1
 75
1
 44
0.5
 73
0
 45
1.0
 46
1.0
 77
1
  4

 78
1
 79
1
170
1
 48
1.0
171
1
  6

172
1
173
1
174
1
140
1.0
141
1.0
175
1
  7

176
1
177
1
178
1
143
1.0
179
1
  8

270
1
271
1
272
1
145
1.0
146
1.0
273
1
  9

274
1
275
1
276
1
 42
1.0
 72
1
  3

 73
1
 74
1
 75
1
 94
63
  0
MATERIAL
  5
20
102
{ACAD_REACTORS
330
E
102
}
330
E
100
AcDbMaterial
  1
ByLayer
  2

 70
0
 40
1.0
 71
1
 41
1.0
 91
-1023410177
 42
1.0
 72
1
  3

 73
1
 74
1
 75
1
 44
0.5
 73
0
 45
1.0
 46
1.0
 77
1
  4

 78
1
 79
1
170
1
 48
1.0
171
1
  6

172
1
173
1
174
1
140
1.0
141
1.0
175
1
  7

176
1
177
1
178
1
143
1.0
179
1
  8

270
1
271
1
272
1
145
1.0
146
1.0
273
1
  9

274
1
275
1
276
1
 42
1.0
 72
1
  3

 73
1
 74
1
 75
1
 94
63
  0
MATERIAL
  5
21
102
{ACAD_REACTORS
330
E
102
}
330
E
100
AcDbMaterial
  1
Global
  2

 70
0
 40
1.0
 71
1
 41
1.0
 91
-1023410177
 42
1.0
 72
1
  3

 73
1
 74
1
 75
1
 44
0.5
 73
0
 45
1.0
 46
1.0
 77
1
  4

 78
1
 79
1
170
1
 48
1.0
171
1
  6

172
1
173
1
174
1
140
1.0
141
1.0
175
1
  7

176
1
177
1
178
1
143
1.0
179
1
  8

270
1
271
1
272
1
145
1.0
146
1.0
273
1
  9

274
1
275
1
276
1
 42
1.0
 72
1
  3

 73
1
 74
1
 75
1
 94
63
  0
MLINESTYLE
  5
22
102
{ACAD_REACTORS
330
10
102
}
330
10
100
AcDbMlineStyle
  2
Standard
 70
0
  3

 62
256
 51
90.0
 52
90.0
 71
2
 49
0.5
 62
256
  6
BYLAYER
 49
-0.5
 62
256
  6
BYLAYER
  0
MLEADERSTYLE
  5
2C
102
{ACAD_REACTORS
330
F
102
}
330
F
100
AcDbMLeaderStyle
179
2
170
2
171
1
172
0
 90
2
 40
0.0
 41
0.0
173
1
 91
-1056964608
 92
-2
290
1
 42
2.0
291
1
 43
8.0
  3
Standard
 44
4.0
300

342
29
174
1
175
1
176
0
178
1
 93
-1056964608
 45
4.0
292
0
297
0
 46
4.0
 94
-1056964608
 47
1.0
 49
1.0
140
1.0
294
1
141
0.0
177
0
142
1.0
295
0
296
0
143
3.75
271
0
272
9
273
9
  0
DICTIONARY
  5
2D
330
A
100
AcDbDictionary
280
1
281
1
  3
CREATED_BY_EZDXF
350
2E
  3
WRITTEN_BY_EZDXF
350
45
  0
DICTIONARYVAR
  5
2E
330
2D
100
DictionaryVariables
280
0
  1
1.4.2 @ 2025-10-23T10:03:04.029722+00:00
  0
DICTIONARYVAR
  5
45
330
2D
100
DictionaryVariables
280
0
  1
1.4.2 @ 2025-10-23T10:03:04.224655+00:00
  0
ENDSEC
  0
EOF
