  0
SECTION
  2
HEADER
  9
$ACADVER
  1
AC1027
  9
$ACADMAINTVER
 70
105
  9
$DWGCODEPAGE
  3
ANSI_1252
  9
$LASTSAVEDBY
  1
ezdxf
  9
$REQUIREDVERSIONS
160
0
  9
$INSBASE
 10
0.0
 20
0.0
 30
0.0
  9
$EXTMIN
 10
1e+20
 20
1e+20
 30
1e+20
  9
$EXTMAX
 10
-1e+20
 20
-1e+20
 30
-1e+20
  9
$LIMMIN
 10
0.0
 20
0.0
  9
$LIMMAX
 10
420.0
 20
297.0
  9
$ORTHOMODE
 70
0
  9
$REGENMODE
 70
1
  9
$FILLMODE
 70
1
  9
$QTEXTMODE
 70
0
  9
$MIRRTEXT
 70
1
  9
$LTSCALE
 40
1.0
  9
$ATTMODE
 70
1
  9
$TEXTSIZE
 40
2.5
  9
$TRACEWID
 40
1.0
  9
$TEXTSTYLE
  7
Standard
  9
$CLAYER
  8
0
  9
$CELTYPE
  6
ByLayer
  9
$CECOLOR
 62
256
  9
$CELTSCALE
 40
1.0
  9
$DISPSILH
 70
0
  9
$DIMSCALE
 40
1.0
  9
$DIMASZ
 40
2.5
  9
$DIMEXO
 40
0.625
  9
$DIMDLI
 40
3.75
  9
$DIMRND
 40
0.0
  9
$DIMDLE
 40
0.0
  9
$DIMEXE
 40
1.25
  9
$DIMTP
 40
0.0
  9
$DIMTM
 40
0.0
  9
$DIMTXT
 40
2.5
  9
$DIMCEN
 40
2.5
  9
$DIMTSZ
 40
0.0
  9
$DIMTOL
 70
0
  9
$DIMLIM
 70
0
  9
$DIMTIH
 70
0
  9
$DIMTOH
 70
0
  9
$DIMSE1
 70
0
  9
$DIMSE2
 70
0
  9
$DIMTAD
 70
1
  9
$DIMZIN
 70
8
  9
$DIMBLK
  1

  9
$DIMASO
 70
1
  9
$DIMSHO
 70
1
  9
$DIMPOST
  1

  9
$DIMAPOST
  1

  9
$DIMALT
 70
0
  9
$DIMALTD
 70
3
  9
$DIMALTF
 40
0.03937007874
  9
$DIMLFAC
 40
1.0
  9
$DIMTOFL
 70
1
  9
$DIMTVP
 40
0.0
  9
$DIMTIX
 70
0
  9
$DIMSOXD
 70
0
  9
$DIMSAH
 70
0
  9
$DIMBLK1
  1

  9
$DIMBLK2
  1

  9
$DIMSTYLE
  2
ISO-25
  9
$DIMCLRD
 70
0
  9
$DIMCLRE
 70
0
  9
$DIMCLRT
 70
0
  9
$DIMTFAC
 40
1.0
  9
$DIMGAP
 40
0.625
  9
$DIMJUST
 70
0
  9
$DIMSD1
 70
0
  9
$DIMSD2
 70
0
  9
$DIMTOLJ
 70
0
  9
$DIMTZIN
 70
8
  9
$DIMALTZ
 70
0
  9
$DIMALTTZ
 70
0
  9
$DIMUPT
 70
0
  9
$DIMDEC
 70
2
  9
$DIMTDEC
 70
2
  9
$DIMALTU
 70
2
  9
$DIMALTTD
 70
3
  9
$DIMTXSTY
  7
Standard
  9
$DIMAUNIT
 70
0
  9
$DIMADEC
 70
0
  9
$DIMALTRND
 40
0.0
  9
$DIMAZIN
 70
0
  9
$DIMDSEP
 70
44
  9
$DIMATFIT
 70
3
  9
$DIMFRAC
 70
0
  9
$DIMLDRBLK
  1

  9
$DIMLUNIT
 70
2
  9
$DIMLWD
 70
-2
  9
$DIMLWE
 70
-2
  9
$DIMTMOVE
 70
0
  9
$DIMFXL
 40
1.0
  9
$DIMFXLON
 70
0
  9
$DIMJOGANG
 40
0.785398163397
  9
$DIMTFILL
 70
0
  9
$DIMTFILLCLR
 70
0
  9
$DIMARCSYM
 70
0
  9
$DIMLTYPE
  6

  9
$DIMLTEX1
  6

  9
$DIMLTEX2
  6

  9
$DIMTXTDIRECTION
 70
0
  9
$LUNITS
 70
2
  9
$LUPREC
 70
4
  9
$SKETCHINC
 40
1.0
  9
$FILLETRAD
 40
10.0
  9
$AUNITS
 70
0
  9
$AUPREC
 70
2
  9
$MENU
  1
.
  9
$ELEVATION
 40
0.0
  9
$PELEVATION
 40
0.0
  9
$THICKNESS
 40
0.0
  9
$LIMCHECK
 70
0
  9
$CHAMFERA
 40
0.0
  9
$CHAMFERB
 40
0.0
  9
$CHAMFERC
 40
0.0
  9
$CHAMFERD
 40
0.0
  9
$SKPOLY
 70
0
  9
$TDCREATE
 40
2460972.630115741
  9
$TDUCREATE
 40
2458532.153996898
  9
$TDUPDATE
 40
2460972.630115741
  9
$TDUUPDATE
 40
2458532.1544311
  9
$TDINDWG
 40
0.0
  9
$TDUSRTIMER
 40
0.0
  9
$USRTIMER
 70
1
  9
$ANGBASE
 50
0.0
  9
$ANGDIR
 70
0
  9
$PDMODE
 70
0
  9
$PDSIZE
 40
0.0
  9
$PLINEWID
 40
0.0
  9
$SPLFRAME
 70
0
  9
$SPLINETYPE
 70
6
  9
$SPLINESEGS
 70
8
  9
$HANDSEED
  5
62
  9
$SURFTAB1
 70
6
  9
$SURFTAB2
 70
6
  9
$SURFTYPE
 70
6
  9
$SURFU
 70
6
  9
$SURFV
 70
6
  9
$UCSBASE
  2

  9
$UCSNAME
  2

  9
$UCSORG
 10
0.0
 20
0.0
 30
0.0
  9
$UCSXDIR
 10
1.0
 20
0.0
 30
0.0
  9
$UCSYDIR
 10
0.0
 20
1.0
 30
0.0
  9
$UCSORTHOREF
  2

  9
$UCSORTHOVIEW
 70
0
  9
$UCSORGTOP
 10
0.0
 20
0.0
 30
0.0
  9
$UCSORGBOTTOM
 10
0.0
 20
0.0
 30
0.0
  9
$UCSORGLEFT
 10
0.0
 20
0.0
 30
0.0
  9
$UCSORGRIGHT
 10
0.0
 20
0.0
 30
0.0
  9
$UCSORGFRONT
 10
0.0
 20
0.0
 30
0.0
  9
$UCSORGBACK
 10
0.0
 20
0.0
 30
0.0
  9
$PUCSBASE
  2

  9
$PUCSNAME
  2

  9
$PUCSORG
 10
0.0
 20
0.0
 30
0.0
  9
$PUCSXDIR
 10
1.0
 20
0.0
 30
0.0
  9
$PUCSYDIR
 10
0.0
 20
1.0
 30
0.0
  9
$PUCSORTHOREF
  2

  9
$PUCSORTHOVIEW
 70
0
  9
$PUCSORGTOP
 10
0.0
 20
0.0
 30
0.0
  9
$PUCSORGBOTTOM
 10
0.0
 20
0.0
 30
0.0
  9
$PUCSORGLEFT
 10
0.0
 20
0.0
 30
0.0
  9
$PUCSORGRIGHT
 10
0.0
 20
0.0
 30
0.0
  9
$PUCSORGFRONT
 10
0.0
 20
0.0
 30
0.0
  9
$PUCSORGBACK
 10
0.0
 20
0.0
 30
0.0
  9
$USERI1
 70
0
  9
$USERI2
 70
0
  9
$USERI3
 70
0
  9
$USERI4
 70
0
  9
$USERI5
 70
0
  9
$USERR1
 40
0.0
  9
$USERR2
 40
0.0
  9
$USERR3
 40
0.0
  9
$USERR4
 40
0.0
  9
$USERR5
 40
0.0
  9
$WORLDVIEW
 70
1
  9
$SHADEDGE
 70
3
  9
$SHADEDIF
 70
70
  9
$TILEMODE
 70
1
  9
$MAXACTVP
 70
64
  9
$PINSBASE
 10
0.0
 20
0.0
 30
0.0
  9
$PLIMCHECK
 70
0
  9
$PEXTMIN
 10
1e+20
 20
1e+20
 30
1e+20
  9
$PEXTMAX
 10
-1e+20
 20
-1e+20
 30
-1e+20
  9
$PLIMMIN
 10
0.0
 20
0.0
  9
$PLIMMAX
 10
420.0
 20
297.0
  9
$UNITMODE
 70
0
  9
$VISRETAIN
 70
1
  9
$PLINEGEN
 70
0
  9
$PSLTSCALE
 70
1
  9
$TREEDEPTH
 70
3020
  9
$CMLSTYLE
  2
Standard
  9
$CMLJUST
 70
0
  9
$CMLSCALE
 40
20.0
  9
$PROXYGRAPHICS
 70
1
  9
$MEASUREMENT
 70
1
  9
$CELWEIGHT
370
-1
  9
$ENDCAPS
280
0
  9
$JOINSTYLE
280
0
  9
$LWDISPLAY
290
0
  9
$INSUNITS
 70
6
  9
$HYPERLINKBASE
  1

  9
$STYLESHEET
  1

  9
$XEDIT
290
1
  9
$CEPSNTYPE
380
0
  9
$PSTYLEMODE
290
1
  9
$FINGERPRINTGUID
  2
{3B69AE37-FDF4-4FED-B99B-9E773B0A87E3}
  9
$VERSIONGUID
  2
{1805E0EC-B94F-4A53-A6EB-3D5A62B2649F}
  9
$EXTNAMES
290
1
  9
$PSVPSCALE
 40
0.0
  9
$OLESTARTUP
290
0
  9
$SORTENTS
280
127
  9
$INDEXCTL
280
0
  9
$HIDETEXT
280
1
  9
$XCLIPFRAME
280
1
  9
$HALOGAP
280
0
  9
$OBSCOLOR
 70
257
  9
$OBSLTYPE
280
0
  9
$INTERSECTIONDISPLAY
280
0
  9
$INTERSECTIONCOLOR
 70
257
  9
$DIMASSOC
280
2
  9
$PROJECTNAME
  1

  9
$CAMERADISPLAY
290
0
  9
$LENSLENGTH
 40
50.0
  9
$CAMERAHEIGHT
 40
0.0
  9
$STEPSPERSEC
 40
24.0
  9
$STEPSIZE
 40
100.0
  9
$3DDWFPREC
 40
2.0
  9
$PSOLWIDTH
 40
0.005
  9
$PSOLHEIGHT
 40
0.08
  9
$LOFTANG1
 40
1.570796326795
  9
$LOFTANG2
 40
1.570796326795
  9
$LOFTMAG1
 40
0.0
  9
$LOFTMAG2
 40
0.0
  9
$LOFTPARAM
 70
7
  9
$LOFTNORMALS
280
1
  9
$LATITUDE
 40
37.795
  9
$LONGITUDE
 40
-122.394
  9
$NORTHDIRECTION
 40
0.0
  9
$TIMEZONE
 70
-8000
  9
$LIGHTGLYPHDISPLAY
280
1
  9
$TILEMODELIGHTSYNCH
280
1
  9
$CMATERIAL
347
20
  9
$SOLIDHIST
280
0
  9
$SHOWHIST
280
1
  9
$DWFFRAME
280
2
  9
$DGNFRAME
280
2
  9
$REALWORLDSCALE
290
1
  9
$INTERFERECOLOR
 62
256
  9
$CSHADOW
280
0
  9
$SHADOWPLANELOCATION
 40
0.0
  0
ENDSEC
  0
SECTION
  2
CLASSES
  0
CLASS
  1
ACDBDICTIONARYWDFLT
  2
AcDbDictionaryWithDefault
  3
ObjectDBX Classes
 90
0
 91
0
280
0
281
0
  0
CLASS
  1
SUN
  2
AcDbSun
  3
SCENEOE
 90
1153
 91
0
280
0
281
0
  0
CLASS
  1
VISUALSTYLE
  2
AcDbVisualStyle
  3
ObjectDBX Classes
 90
4095
 91
0
280
0
281
0
  0
CLASS
  1
MATERIAL
  2
AcDbMaterial
  3
ObjectDBX Classes
 90
1153
 91
0
280
0
281
0
  0
CLASS
  1
SCALE
  2
AcDbScale
  3
ObjectDBX Classes
 90
1153
 91
0
280
0
281
0
  0
CLASS
  1
TABLESTYLE
  2
AcDbTableStyle
  3
ObjectDBX Classes
 90
4095
 91
0
280
0
281
0
  0
CLASS
  1
MLEADERSTYLE
  2
AcDbMLeaderStyle
  3
ACDB_MLEADERSTYLE_CLASS
 90
4095
 91
0
280
0
281
0
  0
CLASS
  1
DICTIONARYVAR
  2
AcDbDictionaryVar
  3
ObjectDBX Classes
 90
0
 91
0
280
0
281
0
  0
CLASS
  1
CELLSTYLEMAP
  2
AcDbCellStyleMap
  3
ObjectDBX Classes
 90
1152
 91
0
280
0
281
0
  0
CLASS
  1
MENTALRAYRENDERSETTINGS
  2
AcDbMentalRayRenderSettings
  3
SCENEOE
 90
1024
 91
0
280
0
281
0
  0
CLASS
  1
ACDBDETAILVIEWSTYLE
  2
AcDbDetailViewStyle
  3
ObjectDBX Classes
 90
1025
 91
0
280
0
281
0
  0
CLASS
  1
ACDBSECTIONVIEWSTYLE
  2
AcDbSectionViewStyle
  3
ObjectDBX Classes
 90
1025
 91
0
280
0
281
0
  0
CLASS
  1
RASTERVARIABLES
  2
AcDbRasterVariables
  3
ISM
 90
0
 91
0
280
0
281
0
  0
CLASS
  1
ACDBPLACEHOLDER
  2
AcDbPlaceHolder
  3
ObjectDBX Classes
 90
0
 91
0
280
0
281
0
  0
CLASS
  1
LAYOUT
  2
AcDbLayout
  3
ObjectDBX Classes
 90
0
 91
0
280
0
281
0
  0
ENDSEC
  0
SECTION
  2
TABLES
  0
TABLE
  2
VPORT
  5
8
330
0
100
AcDbSymbolTable
 70
1
  0
VPORT
  5
23
330
8
100
AcDbSymbolTableRecord
100
AcDbViewportTableRecord
  2
*Active
 70
0
 10
0.0
 20
0.0
 11
1.0
 21
1.0
 12
0.0
 22
0.0
 13
0.0
 23
0.0
 14
0.5
 24
0.5
 15
0.5
 25
0.5
 16
0.0
 26
0.0
 36
1.0
 17
0.0
 27
0.0
 37
0.0
 40
1000.0
 41
1.34
 42
50.0
 43
0.0
 44
0.0
 50
0.0
 51
0.0
 71
0
 72
1000
 73
1
 74
3
 75
0
 76
0
 77
0
 78
0
281
0
 65
0
146
0.0
  0
ENDTAB
  0
TABLE
  2
LTYPE
  5
2
330
0
100
AcDbSymbolTable
 70
3
  0
LTYPE
  5
24
330
2
100
AcDbSymbolTableRecord
100
AcDbLinetypeTableRecord
  2
ByBlock
 70
0
  3

 72
65
 73
0
 40
0.0
  0
LTYPE
  5
25
330
2
100
AcDbSymbolTableRecord
100
AcDbLinetypeTableRecord
  2
ByLayer
 70
0
  3

 72
65
 73
0
 40
0.0
  0
LTYPE
  5
26
330
2
100
AcDbSymbolTableRecord
100
AcDbLinetypeTableRecord
  2
Continuous
 70
0
  3

 72
65
 73
0
 40
0.0
  0
ENDTAB
  0
TABLE
  2
LAYER
  5
1
330
0
100
AcDbSymbolTable
 70
2
  0
LAYER
  5
27
330
1
100
AcDbSymbolTableRecord
100
AcDbLayerTableRecord
  2
0
 70
0
 62
7
  6
Continuous
370
-3
390
13
347
21
  0
LAYER
  5
28
330
1
100
AcDbSymbolTableRecord
100
AcDbLayerTableRecord
  2
Defpoints
 70
0
 62
7
  6
Continuous
290
0
370
-3
390
13
347
21
  0
ENDTAB
  0
TABLE
  2
STYLE
  5
5
330
0
100
AcDbSymbolTable
 70
1
  0
STYLE
  5
29
330
5
100
AcDbSymbolTableRecord
100
AcDbTextStyleTableRecord
  2
Standard
 70
0
 40
0.0
 41
1.0
 50
0.0
 71
0
 42
2.5
  3
txt
  4

  0
ENDTAB
  0
TABLE
  2
VIEW
  5
7
330
0
100
AcDbSymbolTable
 70
0
  0
ENDTAB
  0
TABLE
  2
UCS
  5
6
330
0
100
AcDbSymbolTable
 70
0
  0
ENDTAB
  0
TABLE
  2
APPID
  5
3
330
0
100
AcDbSymbolTable
 70
3
  0
APPID
  5
2A
330
3
100
AcDbSymbolTableRecord
100
AcDbRegAppTableRecord
  2
ACAD
 70
0
  0
APPID
  5
5F
330
3
100
AcDbSymbolTableRecord
100
AcDbRegAppTableRecord
  2
HATCHBACKGROUNDCOLOR
 70
0
  0
APPID
  5
60
330
3
100
AcDbSymbolTableRecord
100
AcDbRegAppTableRecord
  2
EZDXF
 70
0
  0
ENDTAB
  0
TABLE
  2
DIMSTYLE
  5
4
330
0
100
AcDbSymbolTable
 70
1
100
AcDbDimStyleTable
  0
DIMSTYLE
105
2B
330
4
100
AcDbSymbolTableRecord
100
AcDbDimStyleTableRecord
  2
Standard
 70
0
 40
1.0
 41
2.5
 42
0.625
 43
3.75
 44
1.25
 45
0.0
 46
0.0
 47
0.0
 48
0.0
 49
2.5
140
2.5
141
2.5
142
0.0
143
0.03937007874
144
1.0
145
0.0
146
1.0
147
0.625
148
0.0
 69
0
 70
0
 71
0
 72
0
 73
0
 74
0
 75
0
 76
0
 77
1
 78
8
 79
3
170
0
171
3
172
1
173
0
174
0
175
0
176
0
177
0
178
0
179
2
271
2
272
2
273
2
274
3
275
0
276
0
277
2
278
44
279
0
280
0
281
0
282
0
283
0
284
8
285
0
286
0
288
0
289
3
290
0
371
-2
372
-2
  0
ENDTAB
  0
TABLE
  2
BLOCK_RECORD
  5
9
330
0
100
AcDbSymbolTable
 70
2
  0
BLOCK_RECORD
  5
17
330
9
100
AcDbSymbolTableRecord
100
AcDbBlockTableRecord
  2
*Model_Space
340
1A
 70
0
280
1
281
0
  0
BLOCK_RECORD
  5
1B
330
9
100
AcDbSymbolTableRecord
100
AcDbBlockTableRecord
  2
*Paper_Space
340
1E
 70
0
280
1
281
0
  0
ENDTAB
  0
ENDSEC
  0
SECTION
  2
BLOCKS
  0
BLOCK
  5
18
330
17
100
AcDbEntity
  8
0
100
AcDbBlockBegin
  2
*Model_Space
 70
0
 10
0.0
 20
0.0
 30
0.0
  3
*Model_Space
  1

  0
ENDBLK
  5
19
330
17
100
AcDbEntity
  8
0
100
AcDbBlockEnd
  0
BLOCK
  5
1C
330
1B
100
AcDbEntity
  8
0
100
AcDbBlockBegin
  2
*Paper_Space
 70
0
 10
0.0
 20
0.0
 30
0.0
  3
*Paper_Space
  1

  0
ENDBLK
  5
1D
330
1B
100
AcDbEntity
  8
0
100
AcDbBlockEnd
  0
ENDSEC
  0
SECTION
  2
ENTITIES
  0
LWPOLYLINE
  5
2F
330
17
100
AcDbEntity
  8
0
100
AcDbPolyline
 90
92
 70
0
 10
38.808088302612305
 20
1922.5314911000003
 10
47.50608682632446
 20
1834.319516002344
 10
49.49077367782593
 20
1826.7808349720706
 10
50.43537139892578
 20
1819.0427215687503
 10
50.32244682312012
 20
1811.247998058008
 10
49.154088497161865
 20
1803.5405166737307
 10
48.37371826171875
 20
1799.5870407215823
 10
47.10284948348999
 20
1795.7629593006839
 10
45.36161661148071
 20
1792.128811656641
 10
43.17761421203613
 20
1788.742237865137
 10
40.58544874191284
 20
1785.6568725697268
 10
37.62619972229004
 20
1782.921582042383
 10
34.34675693511963
 20
1780.5797775379885
 10
26.71163231953551
 20
1776.3151600354438
 10
14.956293565230453
 20
1768.5249116516784
 10
7.638087272644043
 20
1762.5845153919925
 10
3.423638343811035
 20
1756.6237075916995
 10
0.06008625030517578
 20
1750.1445205799807
 10
0.0
 20
1647.6735885731448
 10
0.7885503768920898
 20
1644.4567688099612
 10
2.0988035202026367
 20
1641.4148910633792
 10
3.8946008682250977
 20
1638.6319549671878
 10
6.126365661621094
 20
1636.1847122303714
 10
8.73250961303711
 20
1634.1407592884768
 10
14.734992980957031
 20
1631.400814830469
 10
21.1069917678833
 20
1629.6723373524417
 10
30.942134857177734
 20
1628.5805709950198
 10
37.538087368011475
 20
1628.869534312891
 10
52.4022650718689
 20
1630.0469024769534
 10
57.36316460859598
 20
1629.9658832321645
 10
67.29208767414093
 20
1629.2575271717776
 10
71.8841502070427
 20
1627.3349197499026
 10
76.2192696891725
 20
1624.8874481312503
 10
82.11067378520966
 20
1620.3077133290042
 10
83.88408780097961
 20
1618.5595138661135
 10
87.60929942131042
 20
1610.4218872181643
 10
92.68508911132812
 20
1603.0507095448245
 10
98.95864486694336
 20
1596.6678436390628
 10
106.24108791351318
 20
1591.465512096094
 10
113.69412422180176
 20
1589.9039276234378
 10
121.27731800079346
 20
1589.2100341908206
 10
128.88999462127686
 20
1589.3930252186526
 10
136.4310884475708
 20
1590.4505355946292
 10
188.47491264343262
 20
1595.3781707875003
 10
240.60608863830566
 20
1599.2745025746096
 10
390.1190853118892
 20
1599.2745025746096
 10
414.57260263614126
 20
1598.2610651517346
 10
429.1335201263423
 20
1596.8227966419925
 10
443.5597290437272
 20
1594.3787003519385
 10
473.0076503753662
 20
1587.8991134754885
 10
478.6860179901123
 20
1587.6875122181643
 10
484.3361568450923
 20
1588.2910354725589
 10
489.8417186737056
 20
1589.6972854725589
 10
495.0892162322998
 20
1591.877232371973
 10
499.9705410003662
 20
1594.7860153309573
 10
504.3851757049556
 20
1598.3636673084964
 10
508.24210166931107
 20
1602.536526500391
 10
516.9520854949947
 20
1623.0835159413089
 10
516.9520854949942
 20
1928.3325012318362
 10
517.5160884857169
 20
1937.7991302601565
 10
516.3221645355216
 20
1947.2070129505862
 10
513.4114742279044
 20
1956.2326629750003
 10
508.88407707214265
 20
1964.5654876820315
 10
499.37006950378327
 20
1972.0033844105471
 10
488.78054618835404
 20
1977.8086670033206
 10
477.39306449890046
 20
1981.8291290394534
 10
465.50608634948685
 20
1983.9594848744143
 10
451.89444633921266
 20
1986.2963176927285
 10
415.4696663926993
 20
1991.5451605155777
 10
383.39608192443757
 20
1994.5765503041018
 10
180.66396713256745
 20
1998.99992066543
 10
174.73751068115143
 20
1997.9611786000003
 10
168.97686958312897
 20
1996.224270641016
 10
163.46396446227936
 20
1993.813916026758
 10
160.8250904083243
 20
1992.3665435902346
 10
151.6861867904654
 20
1983.2667358509768
 10
139.0081501007071
 20
1968.4343536488284
 10
134.0182065963736
 20
1964.0855224720706
 10
128.54163646697907
 20
1960.368099986719
 10
122.65788555145173
 20
1957.3360260121096
 10
116.45229339599518
 20
1955.0333221546878
 10
110.01487970352082
 20
1953.493328868555
 10
103.43901634216218
 20
1952.7384002796878
 10
92.5681182652238
 20
1952.7080478427556
 10
75.65117477661352
 20
1951.5267326195876
 10
58.35179686546326
 20
1948.1874664417971
 10
53.87458562850952
 20
1946.2366302601565
 10
49.790968894958496
 20
1943.5579498402346
 10
46.21816873550415
 20
1940.2282531849612
 10
43.25874090194702
 20
1936.3432891957034
 10
40.997631549835205
 20
1932.0144470326175
 10
39.49974775314331
 20
1927.3660858265628
  0
LWPOLYLINE
  5
30
330
17
100
AcDbEntity
  8
0
100
AcDbPolyline
 90
95
 70
0
 10
517.5161463026125
 20
1176.720055138998
 10
517.5161463026125
 20
1357.010048425131
 10
512.9996763349814
 20
1366.2080570736275
 10
510.97893774548356
 20
1368.9778266310025
 10
506.3007456068117
 20
1373.9714942335415
 10
500.85110724011247
 20
1378.1096015333462
 10
494.78447973767106
 20
1381.2747321485806
 10
484.905844920298
 20
1384.0242902877528
 10
481.50071203747575
 20
1384.3576941847134
 10
474.6601206068117
 20
1384.1880927442837
 10
469.2138773206789
 20
1388.0488715528775
 10
464.278116822632
 20
1392.5440345167447
 10
449.953165650757
 20
1546.564034020834
 10
446.8853861097414
 20
1556.045692956381
 10
442.0118814710695
 20
1564.738319909506
 10
435.5230814222414
 20
1572.3020253538418
 10
427.9528909925539
 20
1575.6225667356778
 10
419.9880319837648
 20
1577.8348622679043
 10
411.7897135023195
 20
1578.8942036985684
 10
403.52410376110856
 20
1578.7790761350918
 10
377.9242807630617
 20
1577.608955895834
 10
373.6738756488121
 20
1577.2183414526212
 10
326.105509400757
 20
1571.594780480795
 10
312.8256326917726
 20
1571.92559102767
 10
299.6304422620851
 20
1573.4584889768887
 10
286.6284281019289
 20
1576.180733239584
 10
273.926554322632
 20
1580.0699696897793
 10
261.62941992321794
 20
1585.0941548704434
 10
249.83811438122575
 20
1591.2120900511075
 10
240.04128515759294
 20
1593.6745534300137
 10
230.07058203259294
 20
1595.2955708860684
 10
219.9982553724367
 20
1596.0632405638028
 10
209.8970896009523
 20
1595.9720692991543
 10
82.27936804333467
 20
1523.7596974729825
 10
76.72867834606905
 20
1519.4674048780728
 10
71.80611670056214
 20
1514.4671759962368
 10
67.6011759046628
 20
1508.8501105665493
 10
64.19030249157731
 20
1502.718213593893
 10
61.63559973278825
 20
1496.1831794142056
 10
59.98353064099115
 20
1489.363721406393
 10
59.26407873669427
 20
1482.3840437292386
 10
59.11485316645212
 20
1472.6808589871027
 10
59.74369890075923
 20
1453.3266564817507
 10
61.98311865368714
 20
1434.0630445837307
 10
63.45231115856927
 20
1426.3718519567776
 10
64.22646582165521
 20
1418.579951322012
 10
64.29932653942933
 20
1410.7499800085354
 10
63.67035925427331
 20
1402.9450354933072
 10
62.34452307263223
 20
1395.2278266310025
 10
60.332499146851205
 20
1387.6604590772915
 10
57.650461793335126
 20
1380.3038154005337
 10
54.32007849255433
 20
1373.2170997022915
 10
44.62853491345231
 20
1364.5153937696743
 10
34.16512548962419
 20
1356.7590413450528
 10
29.198923707398308
 20
1352.0417104124356
 10
24.846125245484245
 20
1346.7530904173184
 10
22.781458497437143
 20
1340.6638417600918
 10
21.36773169079629
 20
1334.3914876341153
 10
20.62050879040521
 20
1328.005341088705
 10
19.190836549194273
 20
1280.6106267332364
 10
19.845469496613305
 20
1266.980967748157
 10
22.432108521851205
 20
1239.751060998373
 10
26.290064454468165
 20
1229.9382481931973
 10
31.24077856579629
 20
1220.6288228391934
 10
37.21985876599115
 20
1211.944016015463
 10
44.149485230835126
 20
1203.9969334959317
 10
51.93932592907731
 20
1196.891068017416
 10
60.48798620739831
 20
1190.7189259886075
 10
69.68415319958467
 20
1185.56084493392
 10
79.40812170544405
 20
1181.4840398191739
 10
96.69037878552308
 20
1176.6374669431973
 10
114.30237829724092
 20
1173.175705468588
 10
132.133341432007
 20
1171.1206136106778
 10
150.07111609021013
 20
1170.485046899252
 10
198.7374216322023
 20
1169.2578587889004
 10
247.41913855114763
 20
1169.3740544676114
 10
272.2127634290773
 20
1168.894012963705
 10
296.9693094495851
 20
1167.4556813597012
 10
321.6516977552492
 20
1165.0613103269864
 10
346.22307837048356
 20
1161.714409387045
 10
370.6466776136476
 20
1157.4200139402676
 10
394.886026978882
 20
1152.1845326780606
 10
418.90481054821794
 20
1146.015823876791
 10
447.41807043591325
 20
1137.9330907224942
 10
457.0362192396242
 20
1136.652267968588
 10
466.7334085706789
 20
1136.3127599119473
 10
476.4175516370851
 20
1136.917809045248
 10
481.22613012829606
 20
1137.5730595945645
 10
491.4861732412669
 20
1140.681480325549
 10
494.6967417005617
 20
1142.2788701414395
 10
500.6855112318117
 20
1146.1996922849942
 10
505.9615427259523
 20
1151.037148034506
 10
510.3860574964601
 20
1156.6639409422207
 10
515.192661089894
 20
1166.25429995406
 10
516.2403970960695
 20
1169.676598107748
  0
LWPOLYLINE
  5
31
330
17
100
AcDbEntity
  8
0
100
AcDbPolyline
 90
96
 70
0
 10
19.19084730261261
 20
744.090829297916
 10
21.51433249169736
 20
733.6250740744504
 10
22.864324475464173
 20
730.302873060123
 10
26.320936108764954
 20
724.0347151011385
 10
30.745450879272767
 20
718.4079221934238
 10
36.02148237341339
 20
713.5704664439121
 10
45.220799583742064
 20
708.0522514769626
 10
48.55405988806183
 20
706.7486814707677
 10
55.48086347692902
 20
704.9438337534824
 10
65.12411298864777
 20
703.8681272715488
 10
74.82629957311974
 20
703.7352232188144
 10
84.49541273229988
 20
704.5463422984044
 10
94.03986158483895
 20
706.2938169688144
 10
117.80214491003426
 20
713.3865980357091
 10
141.82092847936974
 20
719.5553068369785
 10
166.06027784460412
 20
724.7907880991855
 10
190.48387708776818
 20
729.085183545963
 10
215.05525770300255
 20
732.4320844859044
 10
239.73764600866662
 20
734.8264555186191
 10
264.4941920291744
 20
736.264787122623
 10
289.2878169071041
 20
736.7448286265294
 10
337.9695338260494
 20
736.6286329478183
 10
404.57361402624474
 20
738.4913877695958
 10
422.40457716101037
 20
740.546479627506
 10
440.0165766727291
 20
744.0082411021153
 10
457.29883375280724
 20
748.854813978092
 10
467.02280225866707
 20
752.9316190928381
 10
476.2189692508541
 20
758.0897001475256
 10
484.76762952917534
 20
764.2618421763342
 10
492.55747022741707
 20
771.3677076548498
 10
499.4870966922613
 20
779.314790174381
 10
505.46617689245613
 20
787.9995969981115
 10
510.4168910037838
 20
797.3090223521154
 10
514.274846936401
 20
807.1218351572912
 10
516.5171146699909
 20
829.8114270572709
 10
517.5161189090572
 20
847.9814008921545
 10
517.4894863887812
 20
861.6267383574675
 10
515.3392237674561
 20
901.7622617930334
 10
513.925496960815
 20
908.03461591901
 10
511.8608302127682
 20
914.1238645762365
 10
507.5080317508541
 20
919.4124845713537
 10
502.541829968628
 20
924.1298155039709
 10
492.0784205447999
 20
931.8861631602209
 10
482.38687696569787
 20
940.5878690928381
 10
479.05649366491707
 20
947.6745847910803
 10
476.374456311401
 20
955.0312284678381
 10
474.3624323856202
 20
962.598596021549
 10
473.0365962039791
 20
970.3158048838537
 10
472.40762891882287
 20
978.1207517832678
 10
472.4804896365963
 20
985.9507230967444
 10
473.25464429968224
 20
993.74262373151
 10
474.72383680456505
 20
1001.4338163584631
 10
475.960679380898
 20
1011.059031216049
 10
477.5070636500691
 20
1030.3616281357117
 10
477.44287672155724
 20
1049.754815503971
 10
476.7234248172613
 20
1056.7344907969398
 10
475.07135572546395
 20
1063.5539488047523
 10
472.51665296667534
 20
1070.0889829844398
 10
469.10577955358895
 20
1076.220879957096
 10
464.90083875769005
 20
1081.8379453867835
 10
459.97827711218224
 20
1086.8381742686195
 10
454.4275874149166
 20
1091.1304716319007
 10
448.34985914343224
 20
1094.636865064518
 10
326.8098658572994
 20
1163.3428434580726
 10
316.70870008581505
 20
1163.434014722721
 10
306.6363734256588
 20
1162.6663450449867
 10
296.6656703006588
 20
1161.045327588932
 10
286.868841077026
 20
1158.5828642100257
 10
275.0775355350338
 20
1152.4649290293617
 10
262.78040113561974
 20
1147.4407438486976
 10
250.07852735632287
 20
1143.5515073985023
 10
237.07651319616662
 20
1140.829263135807
 10
223.88132276647912
 20
1139.2963651865882
 10
210.60144605749474
 20
1138.9655546397132
 10
197.34628858679162
 20
1139.8394254893226
 10
179.99089591846268
 20
1142.499212536202
 10
154.52607596868393
 20
1145.2956222952191
 10
124.91724195593224
 20
1146.2649778574867
 10
116.71892347448693
 20
1145.2056364268226
 10
108.75406446569787
 20
1142.993340894596
 10
101.18387403601037
 20
1139.67279951276
 10
94.6951121341549
 20
1132.1090940684242
 10
89.82156934851037
 20
1123.4164671152992
 10
86.7538279544674
 20
1113.9348081797523
 10
85.6118601810299
 20
1104.034829542057
 10
72.42883863561974
 20
959.914803907291
 10
67.49311628454552
 20
955.4196409434238
 10
62.04683485144051
 20
951.5588621348301
 10
51.80112904058501
 20
951.3950624921509
 10
48.43416395300301
 20
950.7480863779941
 10
41.92251386755379
 20
948.6455015391269
 10
35.85588636511238
 20
945.4803709238926
 10
30.406247998413164
 20
941.3422636240879
 10
23.707317373290152
 20
933.5788264373608
 10
21.95394697302254
 20
930.6408170908848
 10
19.19084730261261
 20
924.3808225840488
  0
LWPOLYLINE
  5
32
330
17
100
AcDbEntity
  8
0
100
AcDbPolyline
 90
65
 70
0
 10
391.9300753026123
 20
42.03759420648042
 10
399.86867012072753
 20
42.29626882806245
 10
407.6024729161377
 20
44.1062663866562
 10
414.83138145495604
 20
47.39732015862886
 10
421.27480567980956
 20
52.04167593255464
 10
426.6826731114502
 20
57.859165556578084
 10
430.84509910632323
 20
64.62392080560151
 10
433.6005503087158
 20
72.0734523607773
 10
434.8420816807861
 20
79.91860616937103
 10
435.96608223010253
 20
108.55885732903901
 10
435.5830866246338
 20
137.2186015917343
 10
451.06707634020995
 20
231.7236064745468
 10
473.23409141589354
 20
476.8766044451279
 10
490.54108680773925
 20
553.367606289534
 10
496.99417693815167
 20
576.0281707970978
 10
507.13430247672477
 20
617.1641333538403
 10
516.5301615147705
 20
666.3131927324814
 10
517.5161463170166
 20
678.6234210802597
 10
517.1928888707275
 20
690.9688400103134
 10
515.564089432251
 20
703.210604078917
 10
514.1175180821533
 20
708.7018607927841
 10
511.7436319737549
 20
713.8604568316025
 10
508.51391853381347
 20
718.5311340166611
 10
504.52553810168456
 20
722.5733207537216
 10
499.8985392003174
 20
725.8653377367539
 10
494.7722155003662
 20
728.3081077410263
 10
489.3008333592529
 20
729.8281215502304
 10
483.64907325793456
 20
730.3796027971787
 10
207.41481011535643
 20
730.3800834180988
 10
198.28386991278967
 20
728.5744626771249
 10
189.53633612119302
 20
725.4227813360521
 10
181.37130373719583
 20
720.9647942617046
 10
173.99017599570243
 20
715.3104695491
 10
167.53405159291424
 20
708.6057836443005
 10
164.73624052096557
 20
704.8909591509383
 10
160.00108303118895
 20
696.8856071306747
 10
142.8547006993408
 20
672.7277587725204
 10
125.10508121539306
 20
649.0096067263167
 10
94.95838226367187
 20
620.5406974627059
 10
65.55607856799361
 20
591.3036071135085
 10
59.16749061633345
 20
578.8683407379668
 10
53.53997291613814
 20
566.0706435514968
 10
48.69399131823775
 20
552.9570435358565
 10
44.64716972399947
 20
539.5752190424483
 10
41.41421379138228
 20
525.9738229586166
 10
39.00689186145064
 20
512.2023032976668
 10
37.43393959094283
 20
498.31073034539645
 10
36.37841971863077
 20
479.38863936973684
 10
31.62835382343087
 20
400.0120830796511
 10
29.645275735385667
 20
350.39912726811724
 10
29.012863040010416
 20
305.7444181779389
 10
29.554192826205735
 20
266.0484251380785
 10
31.383381047822468
 20
216.42538433238414
 10
35.78208030749556
 20
137.02462423577725
 10
37.348312275260696
 20
119.3352187971373
 10
39.211350098144976
 20
106.19183767571865
 10
41.00168138259755
 20
97.52809820712338
 10
47.8920561223149
 20
72.504055388121
 10
50.80858291674849
 20
65.54707754388262
 10
54.481335297119585
 20
58.95795095696868
 10
58.86465133715865
 20
52.818577177671806
 10
61.30608619738814
 20
49.94160879388274
 10
64.61148323107955
 20
48.3944057299179
 10
70.7282644658203
 20
44.42567098870696
 10
73.48808349658202
 20
42.0375942064804
  0
CIRCLE
  5
33
330
17
100
AcDbEntity
  8
0
100
AcDbCircle
 10
120.46908439685058
 20
111.37459982171475
 30
0.0
 40
14.50000047683716
  0
CIRCLE
  5
34
330
17
100
AcDbEntity
  8
0
100
AcDbCircle
 10
582.0161467938537
 20
111.76160085931244
 30
0.0
 40
14.50000047683716
  0
CIRCLE
  5
35
330
17
100
AcDbEntity
  8
0
100
AcDbCircle
 10
661.0161477475281
 20
1665.2655227772464
 30
0.0
 40
14.50000047683716
  0
CIRCLE
  5
36
330
17
100
AcDbEntity
  8
0
100
AcDbCircle
 10
663.0671578793635
 20
1904.11954957168
 30
0.0
 40
14.50000047683716
  0
LWPOLYLINE
  5
37
330
17
100
AcDbEntity
  8
0
100
AcDbPolyline
 90
65
 70
0
 10
1203.9383941952613
 20
1594.9843184655579
 10
778.271196860434
 20
1595.621134941706
 10
773.1048103150081
 20
1593.970732742831
 10
768.0894941846282
 20
1590.885189572281
 10
761.8378882598083
 20
1586.216418423223
 10
759.36611397977
 20
1583.4275437313127
 10
756.8137557403393
 20
1578.9774700132864
 10
754.1039151653204
 20
1572.9418783436429
 10
747.5535516669531
 20
1550.0832554522194
 10
744.8655112054089
 20
1538.344588632646
 10
743.5090255691512
 20
1526.6030965840482
 10
743.5450895381946
 20
1519.1975406171193
 10
745.1975898656167
 20
1506.6750145643143
 10
751.9211804109339
 20
1470.042163948594
 10
756.4414464875804
 20
1440.1747620458648
 10
759.1462170424452
 20
1363.9574681207584
 10
762.5653168410597
 20
1246.4501848031057
 10
769.3584270027266
 20
1186.8216877785035
 10
773.0898657943567
 20
1160.393811096396
 10
780.2623641427001
 20
1116.696174561918
 10
781.3540400425509
 20
1106.8398495164279
 10
781.323792200388
 20
1092.590076185382
 10
780.2071967802592
 20
1082.3407681011347
 10
776.5633906718392
 20
1064.6775721290749
 10
770.2277996153673
 20
1044.3612949899268
 10
762.7946612359035
 20
1025.4507000225267
 10
758.0364106780319
 20
1015.0811958778445
 10
742.944170875387
 20
986.868032418513
 10
736.233691596281
 20
972.6755321435725
 10
732.7978753854215
 20
964.6351995090808
 10
731.2135891567336
 20
958.8388732387791
 10
729.5310630597269
 20
950.324149347013
 10
727.5671583562007
 20
840.0315823611445
 10
728.4955604404788
 20
835.2126741977889
 10
733.2295468266973
 20
826.7699161000104
 10
735.6648957654154
 20
824.4992425224438
 10
738.550681504282
 20
822.6681277340232
 10
742.0157354886053
 20
821.4650891287598
 10
1102.6610504452835
 20
817.3022006152764
 10
1106.2592092166785
 20
818.3014528544041
 10
1110.7595799530966
 20
820.8091268688157
 10
1117.7070535391051
 20
826.5840005448059
 10
1135.5335251167146
 20
844.9219147566762
 10
1152.0824432682468
 20
865.2284949555676
 10
1155.3327128412218
 20
871.7462461690143
 10
1157.3837689870045
 20
879.6258466412451
 10
1158.047210987727
 20
887.2365308484258
 10
1158.6140935792557
 20
1072.6694572898598
 10
1161.2505119283603
 20
1114.1891148813504
 10
1162.8421870484324
 20
1132.379195307459
 10
1171.9686686541252
 20
1177.6382778829352
 10
1180.2734538237553
 20
1214.4588463250113
 10
1199.9466149385155
 20
1268.7230632578555
 10
1208.815101244754
 20
1291.441343902614
 10
1219.622967036739
 20
1324.490554070776
 10
1225.2334018633508
 20
1347.9673902493862
 10
1230.793359497259
 20
1388.8817113131474
 10
1232.4470166935391
 20
1404.0544746291976
 10
1233.1875535367947
 20
1427.7295577020245
 10
1233.1107422137459
 20
1572.3579764099607
 10
1231.1808164841648
 20
1577.9805219335142
 10
1223.6177765603923
 20
1587.1492124345782
 10
1219.094675460746
 20
1590.874240277944
 10
1213.9217897439514
 20
1593.4225840380554
 10
1210.5946319951215
 20
1594.2452280321793
  0
LWPOLYLINE
  5
38
330
17
100
AcDbEntity
  8
0
100
AcDbPolyline
 90
62
 70
0
 10
791.0417222272904
 20
504.15100936358107
 10
727.574347415697
 20
50.98063183675943
 10
728.7020901593612
 20
45.31368846529979
 10
731.2016997165151
 20
40.2949163101887
 10
735.3680090553839
 20
35.41615351159654
 10
739.45756786881
 20
32.60233054982367
 10
743.944640250796
 20
30.666544078165504
 10
749.3163771873933
 20
29.16706218137525
 10
925.6681185139539
 20
6.23570867107689
 10
958.634253123638
 20
3.908978405847492
 10
1018.2068217368444
 20
1.000508294048921
 10
1041.3187585415405
 20
1.9629359478600428
 10
1072.1524185433302
 20
4.576456472392068
 10
1122.3267199296035
 20
8.656857093735544
 10
1172.6611421950777
 20
13.152960642054847
 10
1182.8875128602447
 20
13.709297955839657
 10
1198.6875304393104
 20
12.918273942190083
 10
1205.872295507182
 20
12.237385094713277
 10
1250.1615402734599
 20
5.764180184735005
 10
1264.469142956835
 20
2.549784346562513
 10
1274.2722167426066
 20
1.0420565959287524
 10
1280.3276739184223
 20
1.0005102602037512
 10
1284.8693867517948
 20
2.381120970048724
 10
1289.9647537928206
 20
6.016507167583511
 10
1293.786181073487
 20
11.370980221452184
 10
1294.7805927902648
 20
13.933419935471106
 10
1334.536911122984
 20
287.42313392091245
 10
1334.2168512627507
 20
292.8498415151119
 10
1332.5255924074706
 20
297.10695648967373
 10
1330.389056383435
 20
299.99992849696963
 10
1327.6559889332145
 20
302.7170985690963
 10
1324.8605218553719
 20
304.5352236919278
 10
1320.6227027516495
 20
306.036668096567
 10
1303.305553373891
 20
309.4276083785376
 10
1294.4595619909403
 20
312.68987085431246
 10
1292.5366336809313
 20
314.7488807254935
 10
1290.2399571771232
 20
319.0389323407875
 10
1289.417673543085
 20
323.51149374421
 10
1289.5148030052167
 20
335.0916070691535
 10
1289.280119816852
 20
339.40404401854863
 10
1288.3188621065694
 20
342.8845412351007
 10
1284.4731894638396
 20
349.18122014518354
 10
1280.680647528873
 20
352.0468075170886
 10
1272.1125123097665
 20
356.2038687827435
 10
1260.1147573757642
 20
359.2851672569805
 10
1186.564945145147
 20
373.36330217420226
 10
1136.8231564451692
 20
379.7421417716519
 10
1111.1121599032988
 20
385.38648536202464
 10
1087.7369065709333
 20
391.4027326729868
 10
1057.9626828312037
 20
402.3502607421436
 10
1029.1413739239013
 20
416.7139402217354
 10
997.4182198841038
 20
435.19511142682967
 10
930.9378244723705
 20
484.3608361679345
 10
892.5246647409458
 20
509.26498774281794
 10
887.0084886117731
 20
511.65119834118997
 10
870.7034202920386
 20
516.0328206758271
 10
819.2621733035216
 20
523.5617017137172
 10
812.8897993969726
 20
523.7238356064895
 10
805.6895389442025
 20
521.7072295626641
 10
800.0122989802924
 20
518.8049895735534
 10
796.2119479406083
 20
515.1916363313051
 10
792.7499352296388
 20
510.07428142789144
  0
LWPOLYLINE
  5
39
330
17
100
AcDbEntity
  8
0
100
AcDbPolyline
 90
22
 70
0
 10
780.4360350840325
 20
73.34077469831273
 10
783.9522260929596
 20
73.41466980092862
 10
787.279686040371
 20
74.59315253708066
 10
789.7794765976982
 20
76.44182234192063
 10
791.9138503443523
 20
79.30213714721704
 10
792.9926910931617
 20
82.24901047843026
 10
793.2156279976944
 20
85.82758683598071
 10
792.5105616290823
 20
88.87964471161514
 10
790.7465109678085
 20
91.9711084830076
 10
788.4948468303301
 20
94.10024166623414
 10
785.3376417300537
 20
95.66203283975138
 10
782.2977698029392
 20
96.15012502490784
 10
778.8122899936275
 20
95.65517464696394
 10
776.0094184183656
 20
94.33726389431253
 10
773.3709625921447
 20
91.9532400166283
 10
771.7501318392983
 20
89.27419832170797
 10
770.8471179130447
 20
85.80494788589887
 10
770.9539650682489
 20
82.66794701905344
 10
772.090646663524
 20
79.28190448236133
 10
773.8891107730919
 20
76.74357045904533
 10
776.6833213048546
 20
74.58194555783406
 10
779.567303936172
 20
73.49843691657209
  0
LWPOLYLINE
  5
3A
330
17
100
AcDbEntity
  8
0
100
AcDbPolyline
 90
22
 70
0
 10
788.3690788897952
 20
1545.6514661159022
 10
788.9226935704773
 20
1542.1783449716308
 10
790.5447513517524
 20
1539.0431033836128
 10
792.7176280318699
 20
1536.8193363520124
 10
795.8427364237514
 20
1535.0957790959883
 10
798.909375542479
 20
1534.4296827763792
 10
802.4848527720428
 20
1534.6977726700554
 10
805.4119571718113
 20
1535.8132258036408
 10
808.2334103041487
 20
1537.9831164016662
 10
810.0349352793205
 20
1540.504565838747
 10
811.1507157222691
 20
1543.8455491847128
 10
811.2188970469633
 20
1546.923601591907
 10
810.2523716385251
 20
1550.308771308862
 10
808.5638671681668
 20
1552.9052940745903
 10
805.8417111354386
 20
1555.1932812969692
 10
802.9663406369639
 20
1556.4328785013045
 10
799.4062460799987
 20
1556.8534251489339
 10
796.313261353801
 20
1556.3189756782888
 10
793.114275309845
 20
1554.7303229787021
 10
790.8454667221554
 20
1552.6019150385393
 10
789.0858821241291
 20
1549.538567726898
 10
788.406569012604
 20
1546.5335917719292
  0
LWPOLYLINE
  5
3B
330
17
100
AcDbEntity
  8
0
100
AcDbPolyline
 90
22
 70
0
 10
834.7556414748888
 20
454.0959545516355
 10
838.2718324838158
 20
454.1698496542524
 10
841.5992924312272
 20
455.3483323904037
 10
844.0990829885545
 20
457.1970021952439
 10
846.2334567352084
 20
460.05731700054014
 10
847.312297484018
 20
463.0041903317533
 10
847.5352343885506
 20
466.5827666893036
 10
846.8301680199386
 20
469.63482456493796
 10
845.066117358665
 20
472.726288336331
 10
842.8144532211866
 20
474.8554215195575
 10
839.65724812091
 20
476.41721269307476
 10
836.6173761937955
 20
476.9053048782316
 10
833.1318963844838
 20
476.41035450028704
 10
830.3290248092219
 20
475.0924437476358
 10
827.6905689830007
 20
472.7084198699515
 10
826.0697382301546
 20
470.02937817503107
 10
825.166724303901
 20
466.56012773922265
 10
825.2735714591051
 20
463.4231268723769
 10
826.4102530543803
 20
460.0370843356843
 10
828.2087171639484
 20
457.49875031236917
 10
831.0029276957109
 20
455.33712541115744
 10
833.8869103270283
 20
454.2536167698957
  0
LWPOLYLINE
  5
3C
330
17
100
AcDbEntity
  8
0
100
AcDbPolyline
 90
60
 70
0
 10
897.2369583521615
 20
1596.4532413635816
 10
1295.140794679946
 20
1595.8448770838054
 10
1307.825822349242
 20
1597.3438519568067
 10
1318.5860329548325
 20
1599.7901019309004
 10
1326.6195574178312
 20
1603.656985549878
 10
1332.5762999128317
 20
1609.1839569708145
 10
1339.5843144875687
 20
1618.4338394137067
 10
1342.611837070932
 20
1623.903588134361
 10
1344.6106227493985
 20
1628.6199421170627
 10
1345.7111604626537
 20
1633.7783565653833
 10
1346.107481557424
 20
1805.0390986947828
 10
1345.4212456789512
 20
1809.2692191976314
 10
1344.2711042065746
 20
1812.593936537092
 10
1341.889470272887
 20
1816.7514593783849
 10
1338.8134061538183
 20
1820.3815600399114
 10
1336.0434920670343
 20
1822.8028675572398
 10
1332.7327437186025
 20
1824.394420948537
 10
1327.8032645752444
 20
1825.6866962658178
 10
1300.3277100396006
 20
1825.8168782853352
 10
1292.83779875286
 20
1826.8786221991973
 10
1289.6734630511985
 20
1827.9329158185976
 10
1280.4071114497526
 20
1833.236796090651
 10
1274.6616925626233
 20
1837.3983638881061
 10
1267.985304850821
 20
1844.751768394832
 10
1264.2969101072674
 20
1852.231132799761
 10
1262.8819594212025
 20
1859.225860210226
 10
1262.9918983457844
 20
1976.3127561200981
 10
1262.1815622366082
 20
1979.5721251309974
 10
1257.7600531331302
 20
1989.4573308828105
 10
1254.161558073248
 20
1993.9945323080035
 10
1250.8368807575127
 20
1996.44700120543
 10
1247.232924104355
 20
1997.8125100031345
 10
1241.77926983074
 20
1998.9999644995444
 10
951.1900161332499
 20
1998.999999546363
 10
944.9154321012113
 20
1996.9117031919768
 10
939.6190095463423
 20
1993.3801686885263
 10
935.9735481285791
 20
1989.4664354314875
 10
933.3579481018494
 20
1984.15995566737
 10
932.5796603029341
 20
1981.7839988006078
 10
932.1603969669288
 20
1978.0923218978594
 10
928.7105817025156
 20
1874.3478090959345
 10
925.2572241616074
 20
1855.7766391187222
 10
923.4008162899261
 20
1851.7019323420532
 10
919.0410295223771
 20
1843.7348745559102
 10
915.6123329313566
 20
1839.4816356737888
 10
891.3541433128653
 20
1815.6076270846
 10
863.572951153825
 20
1787.2109811816686
 10
849.4158112288594
 20
1771.068741204415
 10
846.2598398060129
 20
1764.0964297715989
 10
845.1447464293544
 20
1760.92664835416
 10
844.8587542933119
 20
1755.943035783451
 10
843.3468731428607
 20
1636.0962038504827
 10
843.921696581931
 20
1633.2545966986152
 10
845.3410882569324
 20
1628.8382684934168
 10
847.6705207776022
 20
1624.7528304610203
 10
855.2173738669926
 20
1615.1862907480565
 10
862.6519279544359
 20
1607.8752820943573
 10
867.0611190994366
 20
1604.6337528515103
 10
874.7685793709431
 20
1600.425103963559
 10
888.2301886899711
 20
1597.1242812913285
  0
LWPOLYLINE
  5
3D
330
17
100
AcDbEntity
  8
0
100
AcDbPolyline
 90
22
 70
0
 10
904.1812890656126
 20
1647.9711120424925
 10
903.6262841192927
 20
1651.4440112934083
 10
902.0029714130794
 20
1654.5786033113395
 10
899.8292047205653
 20
1656.8015003499688
 10
896.7034066293779
 20
1658.5238064693717
 10
893.6365011142409
 20
1659.188675142666
 10
890.06113148905
 20
1658.9191539867566
 10
887.1344738459923
 20
1657.8025292061334
 10
884.3138895591685
 20
1655.631509338353
 10
882.5133740787785
 20
1653.109338942682
 10
881.398931139717
 20
1649.7679092111953
 10
881.331981982235
 20
1646.689829757253
 10
882.2998624157749
 20
1643.3050472171008
 10
883.9894061535626
 20
1640.7092005772806
 10
886.7124778623831
 20
1638.422303232643
 10
889.588344348233
 20
1637.1838571546648
 10
893.1486069671516
 20
1636.764735666673
 10
896.2413775023931
 20
1637.3004232337378
 10
899.4397273433976
 20
1638.8903563782046
 10
901.7076837355951
 20
1641.0196723647164
 10
903.4660419174222
 20
1644.0837238025601
 10
904.1441520656861
 20
1647.0889714496354
  0
LWPOLYLINE
  5
3E
330
17
100
AcDbEntity
  8
0
100
AcDbPolyline
 90
56
 70
0
 10
1346.1074823521615
 20
422.30661483420045
 10
1346.1074826637266
 20
839.653188527756
 10
1344.6892423194083
 20
845.4880245588846
 10
1342.142344389082
 20
852.1779705719872
 10
1338.685044388713
 20
859.0168850576136
 10
1334.9722530186466
 20
864.2579518031622
 10
1330.8222584341772
 20
868.9789153787675
 10
1322.749181455694
 20
875.8200601684171
 10
1312.4302826432925
 20
880.6398273354916
 10
1307.7739699130236
 20
882.1826326282593
 10
1182.092672115549
 20
881.995097797963
 10
1178.6311526247239
 20
881.0331026267731
 10
1172.5886851484909
 20
877.8245017374021
 10
1165.6013719374694
 20
872.1118585120743
 10
1156.8507756904621
 20
862.9322387215827
 10
1100.4168491671323
 20
808.5247783655186
 10
1095.6582634411345
 20
805.5982687269302
 10
1084.102417938397
 20
800.5165488884088
 10
1075.492977516363
 20
798.9784439862372
 10
968.9781271517638
 20
795.6017898142184
 10
960.9843215943272
 20
794.5351140956091
 10
955.0028542123243
 20
792.9837486195988
 10
951.304656059385
 20
790.4329053757801
 10
947.8237103921272
 20
787.2162055640389
 10
945.8410741109535
 20
784.1685017967712
 10
944.480409630102
 20
780.3160946680231
 10
943.2703411329373
 20
775.2307090600286
 10
943.2663204566618
 20
486.51004872884545
 10
946.5102042270826
 20
477.1078489663565
 10
949.5293953762309
 20
472.9456583461519
 10
953.3039157950277
 20
469.2455468542781
 10
956.7769426594916
 20
467.16375648784754
 10
962.1381319973286
 20
465.77481660181184
 10
968.4812271683543
 20
464.92493314345836
 10
1073.7105039702303
 20
464.72786081052027
 10
1088.6552404964812
 20
461.81532979691355
 10
1097.027461907266
 20
458.81635579024606
 10
1102.1372863515219
 20
455.59661205219436
 10
1108.4419969712483
 20
448.71465910200186
 10
1115.6138683843412
 20
433.9540111145392
 10
1116.808045604222
 20
428.2944633839196
 10
1117.5801667885582
 20
393.73479892092666
 10
1119.0265444943914
 20
390.84462013486797
 10
1122.0461861514143
 20
387.9538826280501
 10
1125.5694075423837
 20
385.4482558696296
 10
1134.063708218656
 20
381.7207866048752
 10
1141.3001713331648
 20
380.17706709981496
 10
1147.278388581194
 20
379.66122996096465
 10
1313.1560502982395
 20
381.3823161753659
 10
1316.8934092934276
 20
381.92584134440636
 10
1320.4180653674669
 20
383.46574918749263
 10
1325.8942943383047
 20
387.0598386151193
 10
1332.5042972362264
 20
393.5431938897698
 10
1337.918619530901
 20
400.026972824185
 10
1342.5152781243798
 20
407.73112260514057
 10
1345.4754919257982
 20
414.72948872417845
  0
LWPOLYLINE
  5
3F
330
17
100
AcDbEntity
  8
0
100
AcDbPolyline
 90
22
 70
0
 10
1164.1684982084155
 20
1543.8444840629088
 10
1164.7221128890976
 20
1540.3713629186373
 10
1166.3441706703727
 20
1537.2361213306192
 10
1168.5170473504907
 20
1535.012354299019
 10
1171.642155742372
 20
1533.288797042995
 10
1174.7087948610995
 20
1532.6227007233856
 10
1178.2842720906635
 20
1532.890790617062
 10
1181.2113764904318
 20
1534.0062437506474
 10
1184.0328296227692
 20
1536.1761343486728
 10
1185.8343545979408
 20
1538.6975837857537
 10
1186.9501350408898
 20
1542.0385671317194
 10
1187.018316365584
 20
1545.1166195389135
 10
1186.0517909571456
 20
1548.5017892558687
 10
1184.3632864867875
 20
1551.098312021597
 10
1181.641130454059
 20
1553.3862992439756
 10
1178.7657599555844
 20
1554.6258964483109
 10
1175.205665398619
 20
1555.0464430959403
 10
1172.1126806724212
 20
1554.5119936252952
 10
1168.9136946284655
 20
1552.9233409257088
 10
1166.6448860407756
 20
1550.794932985546
 10
1164.8853014427498
 20
1547.7315856739042
 10
1164.2059883312243
 20
1544.7266097189358
  0
LWPOLYLINE
  5
40
330
17
100
AcDbEntity
  8
0
100
AcDbPolyline
 90
22
 70
0
 10
1418.9567897471054
 20
1647.7126585201333
 10
1418.4017848007854
 20
1651.1855577710492
 10
1416.7784720945717
 20
1654.3201497889804
 10
1414.6047054020576
 20
1656.5430468276097
 10
1411.4789073108702
 20
1658.2653529470126
 10
1408.4120017957327
 20
1658.9302216203068
 10
1404.8366321705419
 20
1658.6607004643975
 10
1401.909974527485
 20
1657.5440756837743
 10
1399.0893902406604
 20
1655.373055815994
 10
1397.2888747602708
 20
1652.8508854203228
 10
1396.1744318212088
 20
1649.5094556888362
 10
1396.1074826637266
 20
1646.4313762348938
 10
1397.075363097267
 20
1643.0465936947417
 10
1398.764906835055
 20
1640.4507470549215
 10
1401.487978543876
 20
1638.1638497102838
 10
1404.3638450297246
 20
1636.9254036323057
 10
1407.924107648644
 20
1636.506282144314
 10
1411.0168781838854
 20
1637.041969711379
 10
1414.2152280248904
 20
1638.6319028558455
 10
1416.4831844170878
 20
1640.7612188423573
 10
1418.241542598915
 20
1643.825270280201
 10
1418.9196527471788
 20
1646.8305179272763
  0
LWPOLYLINE
  5
41
330
17
100
AcDbEntity
  8
0
100
AcDbPolyline
 90
22
 70
0
 10
1417.74441014212
 20
453.0131507808339
 10
1414.2722734183387
 20
452.4533952370289
 10
1411.1399051146284
 20
450.82579575590864
 10
1408.9199839883424
 20
448.64899005238294
 10
1407.2019557440601
 20
445.52083867694574
 10
1406.5412833880725
 20
442.4530264549312
 10
1406.8156955937172
 20
438.8780288952659
 10
1407.936323157758
 20
435.9529015949452
 10
1410.1111997080914
 20
433.13529002196617
 10
1412.6358309475797
 20
431.3382266940548
 10
1415.978782171326
 20
430.22835605720644
 10
1419.0569503349632
 20
430.165617944067
 10
1422.4404055941043
 20
431.13812804022984
 10
1425.0339384161673
 20
432.8312214576899
 10
1427.317108309149
 20
435.55741921942115
 10
1428.5516188849554
 20
438.43497727630154
 10
1428.9658693460026
 20
441.9958099447776
 10
1428.4259512003293
 20
445.08784473583984
 10
1426.8316440255169
 20
448.2840164680331
 10
1424.699227342728
 20
450.5490577167273
 10
1421.6327732416514
 20
452.30322246250887
 10
1418.6266007149354
 20
452.9772206324237
  0
LWPOLYLINE
  5
42
330
17
100
AcDbEntity
  8
0
100
AcDbPolyline
 90
22
 70
0
 10
1418.3769212606214
 20
845.396139133544
 10
1414.9047845368398
 20
844.8363835897388
 10
1411.7724162331294
 20
843.2087841086187
 10
1409.552495106844
 20
841.031978405093
 10
1407.8344668625616
 20
837.9038270296559
 10
1407.1737945065736
 20
834.8360148076414
 10
1407.4482067122183
 20
831.2610172479762
 10
1408.5688342762594
 20
828.3358899476553
 10
1410.7437108265924
 20
825.5182783746762
 10
1413.2683420660808
 20
823.721215046765
 10
1416.6112932898275
 20
822.6113444099166
 10
1419.6894614534642
 20
822.5486062967772
 10
1423.0729167126058
 20
823.5211163929399
 10
1425.6664495346683
 20
825.2142098104001
 10
1427.9496194276505
 20
827.9404075721313
 10
1429.1841300034569
 20
830.8179656290116
 10
1429.5983804645036
 20
834.3787982974878
 10
1429.0584623188304
 20
837.47083308855
 10
1427.4641551440184
 20
840.6670048207433
 10
1425.331738461229
 20
842.9320460694373
 10
1422.265284360153
 20
844.6862108152189
 10
1419.259111833437
 20
845.3602089851338
  0
LWPOLYLINE
  5
43
330
17
100
AcDbEntity
  8
0
100
AcDbPolyline
 90
69
 70
0
 10
1479.5983804645036
 20
598.6215523655493
 10
1479.9366283465038
 20
161.14078835154947
 10
1480.8075003205036
 20
156.81868459914955
 10
1482.2589520537035
 20
153.01265420874944
 10
1484.2264771489035
 20
149.59367738034945
 10
1488.0647624893036
 20
145.62637457514944
 10
1497.3540573181037
 20
140.43340001634948
 10
1504.3398664981037
 20
138.32638058154936
 10
1511.0281583545036
 20
137.32313779554948
 10
1727.0306123533032
 20
135.75233165514945
 10
1747.4967885397032
 20
137.11674347874944
 10
1771.2486745392312
 20
142.10232487197453
 10
1783.008766536575
 20
145.47128932979166
 10
1813.9784356123896
 20
155.07533304303996
 10
1829.7998732015826
 20
159.31606968494435
 10
1862.4690646167187
 20
167.5770970038937
 10
1950.258029231286
 20
192.16883250475632
 10
2018.145785603842
 20
209.19941963394038
 10
2037.0517118113034
 20
213.78571462674952
 10
2041.3433657233031
 20
215.68073059434963
 10
2044.2416268121033
 20
217.63148194794954
 10
2046.1366427797034
 20
219.97238450634953
 10
2048.9234307613033
 20
225.32301892554952
 10
2050.316825919703
 20
231.23101070754947
 10
2050.7069759569035
 20
235.41119384754953
 10
2050.241001975703
 20
478.50553486434944
 10
2049.2346615469037
 20
482.1438418499496
 10
2045.364121256503
 20
489.3817510487495
 10
2041.6871083309034
 20
492.94264848954947
 10
2039.055141774103
 20
494.2586317679494
 10
2031.5850004381032
 20
495.8455531235495
 10
2024.588302220503
 20
496.25025612714956
 10
2017.9011411078905
 20
495.3920822566173
 10
1996.8398972213477
 20
490.8487332279207
 10
1971.3403957801033
 20
486.13702334154965
 10
1947.918970461148
 20
483.5347051254169
 10
1933.3487525941032
 20
482.89132769394956
 10
1927.1687695597034
 20
483.69392309034953
 10
1923.3163130581033
 20
485.21885422674956
 10
1920.6677490673032
 20
486.98456316474955
 10
1918.741520816503
 20
489.6331271555495
 10
1917.8586657637034
 20
492.04091217714955
 10
1917.1969167877032
 20
542.8790078099495
 10
1915.487428957303
 20
547.9429649039495
 10
1911.391107519703
 20
553.5552468071495
 10
1907.1980223997034
 20
557.6193144623495
 10
1904.9079536425033
 20
559.1352760955496
 10
1900.3923236929031
 20
560.4899641463494
 10
1794.8585536645032
 20
560.3765750075494
 10
1746.5949763333033
 20
557.3254295423493
 10
1711.3593552324128
 20
557.6236572565932
 10
1696.667138157703
 20
558.0188706851494
 10
1680.579279825703
 20
559.9605089207494
 10
1652.329856352103
 20
564.9950284835494
 10
1613.323733397703
 20
575.3485054775493
 10
1594.7035258057035
 20
582.3310827407494
 10
1573.2331423957037
 20
593.3529616955494
 10
1552.927405917006
 20
606.1935490471424
 10
1536.1532476921038
 20
615.8898332807493
 10
1524.5958770197037
 20
620.6090926703492
 10
1514.8684239445035
 20
623.0168776919495
 10
1501.6737604849036
 20
624.5578609931493
 10
1497.8213039833038
 20
624.5578609931493
 10
1495.2208953193037
 20
623.8836805799494
 10
1492.8131102977036
 20
622.4390090999494
 10
1488.6717195001038
 20
618.9717987155494
 10
1485.2045079481036
 20
614.3488499795494
 10
1481.9299200385037
 20
608.4738545735494
 10
1479.9885316693037
 20
601.4640769007494
  0
LWPOLYLINE
  5
44
330
17
100
AcDbEntity
  8
0
100
AcDbPolyline
 90
22
 70
0
 10
1526.5579505905037
 20
559.1262015083494
 10
1530.1658923504012
 20
559.6973942637
 10
1533.4209086254932
 20
561.3561098771469
 10
1535.7272815116214
 20
563.5736938207372
 10
1537.5122543592079
 20
566.7609431129963
 10
1538.1979155359345
 20
569.8861178562978
 10
1537.9113242553242
 20
573.5279025820857
 10
1536.745176515481
 20
576.5073239511524
 10
1534.483617407532
 20
579.3761355849927
 10
1531.8587231762808
 20
581.2055569325687
 10
1528.3844791532747
 20
582.3344317111613
 10
1525.1855873200775
 20
582.3972268702771
 10
1521.6696897654467
 20
581.4056653832827
 10
1518.9750212918232
 20
579.6806685689339
 10
1516.6025413611765
 20
576.902887300973
 10
1515.3203632972156
 20
573.971527265045
 10
1514.8909709354273
 20
570.3438072762696
 10
1515.4534549569833
 20
567.1941311248709
 10
1517.1118804550426
 20
563.9392370176911
 10
1519.3294485988447
 20
561.6328448378486
 10
1522.5167553866477
 20
559.8477443077134
 10
1525.6412591377543
 20
559.1624589495428
  0
LWPOLYLINE
  5
45
330
17
100
AcDbEntity
  8
0
100
AcDbPolyline
 90
22
 70
0
 10
1526.6503579573036
 20
169.87166913954965
 10
1530.2582997172012
 20
170.4428618949
 10
1533.5133159922932
 20
172.10157750834705
 10
1535.8196888784214
 20
174.31916145193722
 10
1537.6046617260079
 20
177.5064107441966
 10
1538.2903229027345
 20
180.6315854874982
 10
1538.0037316221244
 20
184.2733702132858
 10
1536.837583882281
 20
187.25279158235261
 10
1534.576024774332
 20
190.12160321619282
 10
1531.9511305430808
 20
191.9510245637691
 10
1528.4768865200745
 20
193.07989934236159
 10
1525.2779946868773
 20
193.14269450147728
 10
1521.7620971322467
 20
192.15113301448292
 10
1519.067428658623
 20
190.42613620013407
 10
1516.6949487279762
 20
187.64835493217328
 10
1515.4127706640156
 20
184.71699489624524
 10
1514.9833783022273
 20
181.08927490746981
 10
1515.5458623237832
 20
177.93959875607112
 10
1517.2042878218426
 20
174.6847046488911
 10
1519.4218559656445
 20
172.3783124690487
 10
1522.6091627534474
 20
170.5932119389135
 10
1525.7336665045543
 20
169.90792658074312
  0
LWPOLYLINE
  5
46
330
17
100
AcDbEntity
  8
0
100
AcDbPolyline
 90
72
 70
0
 10
1997.5156854645033
 20
1260.7910573127624
 10
1533.3373037625036
 20
1260.5524956159625
 10
1530.2408717637034
 20
1259.8170932643625
 10
1524.3189458433035
 20
1257.2238314799624
 10
1521.1451042997035
 20
1255.2111506223623
 10
1517.7390282837034
 20
1251.9598971987623
 10
1515.5328212289035
 20
1248.0506521359623
 10
1515.2618831517036
 20
1246.6185522051624
 10
1515.1614321885036
 20
1019.6943969963622
 10
1516.3690411701036
 20
1014.2601600819622
 10
1518.0411144261036
 20
1010.8695664419622
 10
1522.9179939777036
 20
1003.7632551039621
 10
1527.3304092549035
 20
1000.3726626315622
 10
1529.7456272181037
 20
999.675965052362
 10
1588.7738985873036
 20
999.6101229207623
 10
1594.6726009437036
 20
998.4954070275621
 10
1599.2708023977036
 20
996.6839947227622
 10
1606.8880239705031
 20
991.8071151711622
 10
1609.7677062081034
 20
989.1596650707622
 10
1613.2976388969032
 20
983.7718741167622
 10
1614.4588007505035
 20
981.0779780559621
 10
1615.3877292993034
 20
977.4087063183621
 10
1615.8986407017032
 20
968.7696619407623
 10
1615.4657600073033
 20
963.0864705219622
 10
1611.7091693037032
 20
939.8149275027621
 10
1611.8020612245032
 20
931.7332404879622
 10
1612.4523128433034
 20
927.7852894851621
 10
1613.8032855909032
 20
924.2756695335621
 10
1617.9060580185032
 20
919.7471387715623
 10
1624.3698589257033
 20
915.7991877687623
 10
1627.8920504265034
 20
914.3670878379622
 10
1631.8787062017032
 20
913.5542747739623
 10
1908.9669984741035
 20
913.5778999923624
 10
1917.4388355261035
 20
915.8073317787623
 10
1920.5600393265036
 20
917.1449903835623
 10
1923.569771187303
 20
919.0400063511622
 10
1928.1958397505036
 20
923.5546041423622
 10
1930.4676297297033
 20
928.9119265743624
 10
1931.0294473245035
 20
935.1721680975623
 10
1930.3071115845032
 20
949.8596595315622
 10
1925.0026137117034
 20
974.8850218179622
 10
1925.1574351365034
 20
980.6134203735622
 10
1926.8991779169032
 20
986.8062843711623
 10
1929.8020837185036
 20
991.0638782235623
 10
1933.6876755405033
 20
994.5839190051623
 10
1938.5527284717032
 20
997.3255512243624
 10
1942.2298710009031
 20
998.0905428951622
 10
1983.2019065949034
 20
998.5940960823624
 10
1986.964071420903
 20
1000.5448486035623
 10
1988.8219296861034
 20
1002.3562609083623
 10
1993.0485599541034
 20
1008.2085173043623
 10
1995.5588987865035
 20
1014.7756776663623
 10
1996.6446313449032
 20
1031.3466666939623
 10
1998.743807813571
 20
1041.4009177607525
 10
2002.0788694269036
 20
1050.3432758331624
 10
2005.7945882925032
 20
1058.4714099759624
 10
2011.8790768257036
 20
1065.9957384603624
 10
2032.1386590357033
 20
1084.6661084835625
 10
2039.0591841969035
 20
1091.4008474679624
 10
2042.4497766693034
 20
1095.6274765683625
 10
2048.5342652025033
 20
1105.0096656531625
 10
2049.9276591933035
 20
1108.6324914303625
 10
2050.6243567725032
 20
1112.9520136191625
 10
2050.706994830103
 20
1120.7102100483623
 10
2048.769374306103
 20
1212.0841831275625
 10
2046.7628863989034
 20
1219.8314566587624
 10
2042.2482886077032
 20
1230.3655170039624
 10
2035.9501467885034
 20
1240.2307492143625
 10
2025.9641532129035
 20
1250.2631887503624
 10
2020.5841034469036
 20
1253.8627909635625
 10
2013.6558370977032
 20
1256.8431063099624
 10
2004.5600684661035
 20
1259.3976621543625
  0
LWPOLYLINE
  5
47
330
17
100
AcDbEntity
  8
0
100
AcDbPolyline
 90
76
 70
0
 10
2028.6605834645038
 20
912.6366411678375
 10
1568.3527420529044
 20
912.4107374226375
 10
1561.3083590513043
 20
911.0173422642374
 10
1552.2125904197042
 20
908.4627864198375
 10
1545.2843240705045
 20
905.4824710734374
 10
1539.9042743045045
 20
901.8828688602374
 10
1532.8165418177045
 20
894.9716331246374
 10
1528.8053111309305
 20
890.2262556200191
 10
1523.6201389097046
 20
881.9851971138374
 10
1519.1055411185046
 20
871.4511367686374
 10
1517.0990532113044
 20
863.7038644050374
 10
1516.5416958485046
 20
858.8548519626374
 10
1515.2440707449045
 20
764.5716937290374
 10
1515.9407683241045
 20
760.2521715402374
 10
1517.3341623149045
 20
756.6293457630375
 10
1523.4186508481043
 20
747.2471578458374
 10
1526.8092444881045
 20
743.0205275778374
 10
1548.7892991056788
 20
722.2047756099889
 10
1556.1258893897043
 20
715.3395419910374
 10
1561.6530205601043
 20
706.9327297506375
 10
1566.3581827636242
 20
695.2753683941221
 10
1568.0161871909045
 20
690.3048902790373
 10
1569.223796172504
 20
682.9663468038375
 10
1570.3095287309043
 20
666.3953577762375
 10
1572.819868730904
 20
659.8281974142374
 10
1578.9043572641044
 20
652.1645287134374
 10
1582.6665209225043
 20
650.2137761922374
 10
1584.1992551297044
 20
649.9815440550374
 10
1625.6760955781037
 20
649.4021704266374
 10
1629.6272714921038
 20
647.9238393738374
 10
1635.1105359305038
 20
643.7307542538374
 10
1637.575855609704
 20
640.8256989006375
 10
1638.9692496005036
 20
638.4259644810375
 10
1640.710992380904
 20
632.2331016510375
 10
1640.865813805704
 20
626.5047019278375
 10
1640.5561709561039
 20
624.2984948730375
 10
1634.9994995057036
 20
596.9045473998374
 10
1634.8389813605036
 20
586.7918493750374
 10
1635.4007977877036
 20
580.5316066842373
 10
1637.6725877669037
 20
575.1742842522374
 10
1639.456132962504
 20
573.0563244054374
 10
1645.3083881909038
 20
568.7646704934375
 10
1651.9409458289038
 20
566.2565606094373
 10
1656.9014290433038
 20
565.1975812698373
 10
1933.9897213157037
 20
565.1739548838376
 10
1937.9763770909035
 20
565.9867679478376
 10
1944.478883938104
 20
569.1606106590376
 10
1947.9623694989036
 20
571.3668188814377
 10
1949.9750503565037
 20
573.1859723742376
 10
1952.0651419265037
 20
575.8953496434375
 10
1953.4161158417037
 20
579.4049695950374
 10
1954.0663662929037
 20
583.3529205978376
 10
1954.1592593813039
 20
591.4346076126375
 10
1953.6483479789035
 20
596.4972733410376
 10
1950.4026675101036
 20
614.7061506318374
 10
1949.9697868157036
 20
620.3893420506374
 10
1950.480698218104
 20
629.0283864282376
 10
1952.5707897881039
 20
635.3915542266376
 10
1956.100721309304
 20
640.7793463482375
 10
1958.9804035469037
 20
643.4267952810375
 10
1966.5976262873037
 20
648.3036748326375
 10
1971.195826573704
 20
650.1150883050376
 10
1977.0945300977037
 20
651.2298030306375
 10
2036.1228014669036
 20
651.2956463298375
 10
2038.538018262504
 20
651.9923427414375
 10
2040.3958776953036
 20
653.1535045950376
 10
2042.9504335397037
 20
655.3829363814374
 10
2047.8273130913035
 20
662.4892465518375
 10
2050.196083926504
 20
668.1092708106376
 10
2050.7069953289038
 20
671.3140782738375
 10
2050.3356062885036
 20
899.6703322458376
 10
2049.6389098769037
 20
901.4120761938375
 10
2048.1293992337037
 20
903.5795784762375
 10
2044.7233243853038
 20
906.8308318998376
 10
2039.1497472545038
 20
910.0820853234376
 10
2032.5311237549035
 20
912.1721768934375
  0
LWPOLYLINE
  5
48
330
17
100
AcDbEntity
  8
0
100
AcDbPolyline
 90
62
 70
0
 10
2023.7751284645033
 20
1998.7963541000004
 10
1576.4349036869041
 20
1998.9999741992003
 10
1566.306991834104
 20
1996.5808868096003
 10
1562.1139067141041
 20
1994.0005270052002
 10
1559.5012919597038
 20
1991.3234035184003
 10
1556.190948635304
 20
1984.4888043764004
 10
1555.745062044504
 20
1981.4233371296002
 10
1563.9263993598927
 20
1789.647013306347
 10
1566.603346513132
 20
1766.3565354230248
 10
1568.6818681702298
 20
1750.224929276453
 10
1573.3486959018612
 20
1718.8516580980645
 10
1576.0595903429041
 20
1691.6576585552002
 10
1578.0274665755362
 20
1662.242393502075
 10
1578.6373343100286
 20
1643.485160266222
 10
1579.8320857790775
 20
1593.5546480761275
 10
1580.6363091245041
 20
1575.7141227044003
 10
1580.328111763704
 20
1565.5166697632003
 10
1578.6760696417855
 20
1549.7731262015648
 10
1563.6653250440206
 20
1456.3602376683127
 10
1556.0023467371232
 20
1414.0846899663404
 10
1540.6789413584925
 20
1321.1940813873616
 10
1536.177418276104
 20
1295.6174086184008
 10
1536.190170803304
 20
1287.3908084324007
 10
1536.803263552104
 20
1282.0959105668007
 10
1538.8654868453038
 20
1275.4076175427997
 10
1542.822727273704
 20
1270.5586051003997
 10
1552.5060439013039
 20
1265.7090765788007
 10
1554.538077728904
 20
1265.6445678463997
 10
1847.2522638905039
 20
1261.7138552899996
 10
1852.245260094504
 20
1262.2170255044007
 10
1863.0440655665038
 20
1265.1586360783997
 10
1867.3790701313037
 20
1267.6357812103997
 10
1872.913942489704
 20
1271.8159643504007
 10
1885.4534161469278
 20
1285.3603257738237
 10
1954.723345961434
 20
1366.972767558644
 10
1975.8172475447136
 20
1391.6726929741076
 10
1987.1845807589038
 20
1404.5303963600004
 10
1993.3645626257035
 20
1415.1246523232003
 10
1996.1736459293038
 20
1423.3913817536004
 10
1996.655202700104
 20
1427.7253961936003
 10
1997.0705088486247
 20
1515.6795704362269
 10
1998.4669105929952
 20
1570.6069585404632
 10
1999.9284969089035
 20
1596.9260718656003
 10
2000.732889241704
 20
1606.3892456864003
 10
2002.466495017704
 20
1617.5613702416003
 10
2005.5484604525036
 20
1630.3707887516002
 10
2009.7756934467916
 20
1643.708706457179
 10
2019.9332942575684
 20
1667.8089389760191
 10
2037.7164732917036
 20
1707.9977908784003
 10
2041.2799954973038
 20
1718.6883574952003
 10
2046.577123478904
 20
1739.1063783548002
 10
2049.0206321501164
 20
1754.8033535623629
 10
2050.1681347707813
 20
1769.4875325759378
 10
2050.7069945535877
 20
1782.327166119462
 10
2049.648121704157
 20
1888.3701682076319
 10
2047.775437196903
 20
1979.0103632936004
 10
2047.3696810181036
 20
1981.4689797812005
 10
2045.028778459703
 20
1987.4327069492003
 10
2042.3534612501035
 20
1991.2227400520003
 10
2038.8421074125035
 20
1994.4554146244002
 10
2034.8291327657034
 20
1997.1307318340002
 10
2028.9639450597674
 20
1998.3886629542153
  0
LWPOLYLINE
  5
49
330
17
100
AcDbEntity
  8
0
100
AcDbPolyline
 90
22
 70
0
 10
1561.9178259033035
 20
1204.6298335815625
 10
1562.489018658654
 20
1201.021891821665
 10
1564.1477342721012
 20
1197.766875546573
 10
1566.3653182156913
 20
1195.4605026604447
 10
1569.5525675079505
 20
1193.675529812858
 10
1572.677742251252
 20
1192.9898686361316
 10
1576.31952697704
 20
1193.2764599167417
 10
1579.2989483461067
 20
1194.4426076565849
 10
1582.167759979947
 20
1196.7041667645342
 10
1583.997181327523
 20
1199.3290609957853
 10
1585.1260561061156
 20
1202.8033050187914
 10
1585.188851265231
 20
1206.0021968519886
 10
1584.197289778237
 20
1209.5180944066192
 10
1582.4722929638879
 20
1212.212762880243
 10
1579.6945116959275
 20
1214.58524281089
 10
1576.7631516599993
 20
1215.8674208748505
 10
1573.1354316712238
 20
1216.2968132366389
 10
1569.9857555198253
 20
1215.7343292150829
 10
1566.7308614126453
 20
1214.0759037170235
 10
1564.4244692328027
 20
1211.8583355732214
 10
1562.6393687026675
 20
1208.6710287854185
 10
1561.9540833444973
 20
1205.5465250343118
  0
LWPOLYLINE
  5
4A
330
17
100
AcDbEntity
  8
0
100
AcDbPolyline
 90
22
 70
0
 10
1562.508286392504
 20
853.5713148450375
 10
1563.0794791478547
 20
849.9633730851398
 10
1564.7381947613017
 20
846.7083568100479
 10
1566.955778704892
 20
844.4019839239197
 10
1570.143027997151
 20
842.617011076333
 10
1573.2682027404526
 20
841.9313498996067
 10
1576.9099874662406
 20
842.2179411802168
 10
1579.8894088353072
 20
843.3840889200599
 10
1582.7582204691475
 20
845.6456480280092
 10
1584.587641816724
 20
848.2705422592603
 10
1585.716516595316
 20
851.7447862822665
 10
1585.779311754432
 20
854.9436781154637
 10
1584.7877502674378
 20
858.4595756700943
 10
1583.0627534530888
 20
861.1542441437181
 10
1580.284972185128
 20
863.5267240743648
 10
1577.3536121492
 20
864.8089021383255
 10
1573.7258921604246
 20
865.2382945001139
 10
1570.5762160090258
 20
864.6758104785578
 10
1567.321321901846
 20
863.0173849804985
 10
1565.0149297220034
 20
860.7998168366964
 10
1563.2298291918682
 20
857.6125100488935
 10
1562.5445438336976
 20
854.4880062977868
  0
LWPOLYLINE
  5
4B
330
17
100
AcDbEntity
  8
0
100
AcDbPolyline
 90
22
 70
0
 10
1603.1660373329032
 20
1952.7460513064004
 10
1603.737230088254
 20
1949.1381095465028
 10
1605.3959457017008
 20
1945.8830932714109
 10
1607.6135296452908
 20
1943.5767203852827
 10
1610.8007789375501
 20
1941.791747537696
 10
1613.9259536808518
 20
1941.1060863609696
 10
1617.5677384066398
 20
1941.3926776415797
 10
1620.5471597757064
 20
1942.5588253814228
 10
1623.4159714095467
 20
1944.8203844893721
 10
1625.2453927571228
 20
1947.445278720623
 10
1626.3742675357153
 20
1950.9195227436294
 10
1626.4370626948312
 20
1954.1184145768266
 10
1625.4455012078365
 20
1957.6343121314571
 10
1623.7205043934878
 20
1960.328980605081
 10
1620.9427231255272
 20
1962.7014605357276
 10
1618.011363089599
 20
1963.9836385996884
 10
1614.3836431008235
 20
1964.4130309614766
 10
1611.233966949425
 20
1963.8505469399206
 10
1607.979072842245
 20
1962.1921214418614
 10
1605.6726806624024
 20
1959.9745532980594
 10
1603.8875801322674
 20
1956.7872465102564
 10
1603.202294774097
 20
1953.6627427591495
  0
LWPOLYLINE
  5
4C
330
17
100
AcDbEntity
  8
0
100
AcDbPolyline
 90
22
 70
0
 10
2100.7069953289038
 20
1203.9941477727623
 10
2101.2781880842545
 20
1200.386206012865
 10
2102.9369036977014
 20
1197.131189737773
 10
2105.1544876412913
 20
1194.8248168516448
 10
2108.3417369335507
 20
1193.039844004058
 10
2111.4669116768523
 20
1192.3541828273317
 10
2115.1086964026404
 20
1192.6407741079418
 10
2118.088117771707
 20
1193.806921847785
 10
2120.9569294055473
 20
1196.0684809557342
 10
2122.7863507531233
 20
1198.6933751869853
 10
2123.915225531716
 20
1202.1676192099915
 10
2123.9780206908313
 20
1205.3665110431887
 10
2122.986459203837
 20
1208.8824085978192
 10
2121.2614623894883
 20
1211.577077071443
 10
2118.4836811215278
 20
1213.94955700209
 10
2115.5523210855995
 20
1215.2317350660505
 10
2111.924601096824
 20
1215.661127427839
 10
2108.7749249454255
 20
1215.0986434062827
 10
2105.5200308382455
 20
1213.4402179082235
 10
2103.213638658403
 20
1211.2226497644215
 10
2101.428538128268
 20
1208.0353429766185
 10
2100.7432527700976
 20
1204.9108392255118
  0
LWPOLYLINE
  5
4D
330
17
100
AcDbEntity
  8
0
100
AcDbPolyline
 90
22
 70
0
 10
2101.2570813777043
 20
854.3288315406376
 10
2101.828274133055
 20
850.72088978074
 10
2103.486989746502
 20
847.4658735056481
 10
2105.704573690092
 20
845.1595006195199
 10
2108.8918229823507
 20
843.3745277719332
 10
2112.016997725653
 20
842.6888665952068
 10
2115.6587824514404
 20
842.9754578758169
 10
2118.6382038205074
 20
844.1416056156601
 10
2121.5070154543478
 20
846.4031647236093
 10
2123.336436801924
 20
849.0280589548604
 10
2124.4653115805163
 20
852.5023029778667
 10
2124.528106739632
 20
855.7011948110638
 10
2123.5365452526376
 20
859.2170923656944
 10
2121.811548438289
 20
861.9117608393182
 10
2119.033767170328
 20
864.284240769965
 10
2116.1024071344
 20
865.5664188339257
 10
2112.4746871456246
 20
865.9958111957139
 10
2109.3250109942255
 20
865.433327174158
 10
2106.070116887046
 20
863.7749016760987
 10
2103.7637247072034
 20
861.5573335322965
 10
2101.978624177068
 20
858.3700267444935
 10
2101.2933388188976
 20
855.2455229933869
  0
LWPOLYLINE
  5
4E
330
17
100
AcDbEntity
  8
0
100
AcDbPolyline
 90
22
 70
0
 10
2112.0671489253036
 20
1951.0671919592003
 10
2112.6383416806543
 20
1947.4592501993027
 10
2114.2970572941013
 20
1944.204233924211
 10
2116.514641237691
 20
1941.8978610380827
 10
2119.7018905299506
 20
1940.1128881904958
 10
2122.827065273252
 20
1939.4272270137697
 10
2126.4688499990402
 20
1939.7138182943797
 10
2129.448271368107
 20
1940.8799660342227
 10
2132.317083001947
 20
1943.1415251421722
 10
2134.146504349523
 20
1945.7664193734233
 10
2135.2753791281157
 20
1949.2406633964295
 10
2135.3381742872316
 20
1952.4395552296266
 10
2134.346612800237
 20
1955.9554527842572
 10
2132.621615985888
 20
1958.650121257881
 10
2129.8438347179276
 20
1961.0226011885277
 10
2126.9124746819994
 20
1962.3047792524885
 10
2123.284754693224
 20
1962.7341716142766
 10
2120.1350785418254
 20
1962.1716875927207
 10
2116.8801844346453
 20
1960.5132620946615
 10
2114.573792254803
 20
1958.2956939508592
 10
2112.788691724668
 20
1955.1083871630565
 10
2112.1034063664974
 20
1951.9838834119496
  0
LWPOLYLINE
  5
4F
330
17
100
AcDbEntity
  8
0
100
AcDbPolyline
 90
68
 70
0
 10
4181.744240387232
 20
1408.2796231000002
 10
4664.709572418482
 20
1408.5640804972704
 10
4666.870766266138
 20
1409.018472193819
 10
4669.147438629419
 20
1410.0282289252336
 10
4672.611977203638
 20
1412.8723748469408
 10
4674.789650543482
 20
1417.012375110918
 10
4675.268105133326
 20
1419.0655450560625
 10
4675.021767242701
 20
1425.0125742690143
 10
4671.72360909736
 20
1457.064534057106
 10
4669.606545074732
 20
1486.4650538146075
 10
4656.397121073216
 20
1569.5062763823737
 10
4651.653686780957
 20
1617.8290051622532
 10
4649.770745116173
 20
1646.5663410310085
 10
4649.647194488794
 20
1680.7071627661762
 10
4650.751503570826
 20
1720.237500922304
 10
4653.234291656763
 20
1731.5260928900775
 10
4657.969548602279
 20
1750.4192408255942
 10
4664.300453766138
 20
1784.5680241370258
 10
4666.783241852076
 20
1794.0475325110492
 10
4671.039467438013
 20
1804.8295922797258
 10
4677.494728668482
 20
1818.2166925757465
 10
4681.136147125513
 20
1828.848016132265
 10
4682.712563141138
 20
1834.7777209540425
 10
4683.648537262232
 20
1839.853160513979
 10
4684.338173492701
 20
1846.536670920473
 10
4684.220747546437
 20
1871.5865139542173
 10
4683.067176465873
 20
1899.2619856126255
 10
4680.69358920434
 20
1955.047073999682
 10
4679.460854156762
 20
1981.7635837775285
 10
4678.623451813012
 20
1985.532487177187
 10
4676.8007589419185
 20
1988.5978303961808
 10
4674.091347320825
 20
1991.9647083014545
 10
4668.081398590356
 20
1996.18588259955
 10
4662.170021637231
 20
1998.2964386176166
 10
4658.573891266137
 20
1998.9999987982806
 10
4297.862831695825
 20
1998.9418461249409
 10
4294.11893521145
 20
1998.338839014345
 10
4284.7099386294185
 20
1994.519690210634
 10
4275.842812164575
 20
1989.2432379035051
 10
4271.5077901919185
 20
1985.323536029726
 10
4202.721138847388
 20
1903.2307087340948
 10
4194.555031402857
 20
1889.7894339209613
 10
4193.363258941919
 20
1886.5765298499164
 10
4190.0477490484955
 20
1868.248822771078
 10
4185.806691699164
 20
1840.5327107516014
 10
4183.834084137232
 20
1830.4239286749896
 10
4183.245705230982
 20
1823.0714134772356
 10
4184.422463043482
 20
1784.8082930518206
 10
4186.633477128065
 20
1763.5434801891793
 10
4187.217262848169
 20
1754.9480471381244
 10
4187.090553863794
 20
1735.8123309393939
 10
4186.477760895044
 20
1728.309733280092
 10
4184.128273590357
 20
1717.9937043036516
 10
4179.440304313123
 20
1707.675904899666
 10
4174.927712066919
 20
1698.926351740175
 10
4172.612404449732
 20
1689.8810271643695
 10
4171.331520660669
 20
1682.1924530219133
 10
4170.789650543482
 20
1675.5089737464007
 10
4169.002052887232
 20
1642.014248010927
 10
4161.881935699732
 20
1439.09410558539
 10
4162.118385895044
 20
1427.7572683791216
 10
4162.827736480982
 20
1423.1742937060412
 10
4164.187355621607
 20
1419.55615375815
 10
4166.019875152857
 20
1416.7822471133288
 10
4168.739235504419
 20
1413.7671337328966
 10
4170.985451324732
 20
1412.1389717291888
 10
4174.591530426294
 20
1410.209294496065
 10
4178.611183746607
 20
1408.701737805849
  0
LWPOLYLINE
  5
50
330
17
100
AcDbEntity
  8
0
100
AcDbPolyline
 90
63
 70
0
 10
4189.899999387232
 20
945.3109978626302
 10
4665.27031493899
 20
945.4640887020164
 10
4670.973645932641
 20
946.332440810018
 10
4676.25135589358
 20
949.1980091236167
 10
4679.230706937281
 20
951.8899027774863
 10
4682.635679013697
 20
957.9683771656089
 10
4683.316674954859
 20
960.3997684619956
 10
4684.338166959253
 20
966.044061980062
 10
4680.964917905298
 20
1191.381945471578
 10
4679.61654830691
 20
1212.1390975711874
 10
4674.100492246119
 20
1253.2781963871055
 10
4671.498900318071
 20
1263.034102244332
 10
4665.911054379908
 20
1279.2137869022422
 10
4656.084136722282
 20
1302.086237338826
 10
4650.245816953149
 20
1318.4705709598595
 10
4648.531507260766
 20
1328.842581763082
 10
4646.639852292505
 20
1344.1593636844689
 10
4644.789792075084
 20
1355.455841057949
 10
4642.875707395044
 20
1363.6236245487266
 10
4641.507322080102
 20
1365.8221191165978
 10
4638.9073998999265
 20
1368.160271582418
 10
4636.3758905005125
 20
1369.5212502811485
 10
4632.03127837893
 20
1370.4983624027304
 10
4628.67873931643
 20
1370.5332537601523
 10
4489.9938104223875
 20
1371.0427847049764
 10
4484.246602780786
 20
1372.7876608036092
 10
4478.567815549341
 20
1376.765953650289
 10
4476.275762326684
 20
1379.4530196903281
 10
4473.060064084497
 20
1384.9667788456015
 10
4471.178563840356
 20
1392.6092498539022
 10
4470.254888303247
 20
1397.285493140035
 10
4468.133886105981
 20
1400.6705404422812
 10
4464.507695920434
 20
1404.0904174564414
 10
4460.163060910669
 20
1406.2540514896446
 10
4454.963231809106
 20
1407.4405425785117
 10
4289.451390988794
 20
1406.7071151493126
 10
4285.927800900903
 20
1405.1716180179649
 10
4282.3700311255125
 20
1401.9959805057576
 10
4280.112188107934
 20
1397.9827963016562
 10
4279.530614621606
 20
1394.144099707418
 10
4279.775762326684
 20
1291.111554846578
 10
4278.357030637231
 20
1282.427983679586
 10
4275.874242551294
 20
1274.709318823629
 10
4273.2732293677
 20
1269.4026885746055
 10
4268.731298215356
 20
1263.797940649801
 10
4263.969304807153
 20
1260.3640701053673
 10
4259.0431268286375
 20
1258.0608398197226
 10
4254.322210080591
 20
1256.888280615621
 10
4200.180272824732
 20
1257.167750525289
 10
4198.846105344263
 20
1256.3651260135703
 10
4194.638280637232
 20
1252.1774541996053
 10
4193.133092648951
 20
1248.5830587528283
 10
4192.722570188013
 20
1245.1282287357383
 10
4189.896581418482
 20
1171.213847021871
 10
4187.468921254149
 20
1133.398506417417
 10
4182.950475461451
 20
1085.142647528463
 10
4174.231804911731
 20
1004.8705110789479
 10
4170.072179563013
 20
966.9193280170491
 10
4170.646886594263
 20
961.7685029361776
 10
4171.755285031763
 20
958.0833614490559
 10
4174.66989684817
 20
952.5556511447957
 10
4179.514013059107
 20
947.9911018131306
 10
4182.592870480982
 20
946.5254182193806
  0
LWPOLYLINE
  5
51
330
17
100
AcDbEntity
  8
0
100
AcDbPolyline
 90
22
 70
0
 10
4231.5397393774665
 20
993.0095447300008
 10
4231.126456602889
 20
995.854043667717
 10
4229.920507199732
 20
998.4547617862752
 10
4228.027656853572
 20
1000.5853030970256
 10
4225.6085870337165
 20
1002.0645994327596
 10
4222.873674784261
 20
1002.763414958339
 10
4220.057348020045
 20
1002.6223448703817
 10
4217.401915503852
 20
1001.6529531276854
 10
4215.137853391138
 20
999.9399870060017
 10
4213.457894731251
 20
997.6290763371337
 10
4212.508397824732
 20
994.921649679952
 10
4212.370056090861
 20
992.0490536006963
 10
4213.055089719263
 20
989.2588239810995
 10
4214.5041080597675
 20
986.7925111010328
 10
4216.593847043482
 20
984.8602089450887
 10
4219.1422199108165
 20
983.6306557164864
 10
4221.931737668482
 20
983.2084252689413
 10
4224.721300171916
 20
983.6306570108605
 10
4227.26965881106
 20
984.8602089450886
 10
4229.35938955456
 20
986.7925208929666
 10
4230.808385617701
 20
989.2588239810995
 10
4231.493225419524
 20
992.0485893244096
  0
LWPOLYLINE
  5
52
330
17
100
AcDbEntity
  8
0
100
AcDbPolyline
 90
22
 70
0
 10
4638.03593993899
 20
996.9441463230186
 10
4637.622643489003
 20
999.7886374832841
 10
4636.41670013186
 20
1002.389347967916
 10
4634.523858332577
 20
1004.5198975818179
 10
4632.104764707055
 20
1005.9992010257773
 10
4629.369871209694
 20
1006.6979987873589
 10
4626.55351806399
 20
1006.5569310520225
 10
4623.898102780113
 20
1005.5875537680251
 10
4621.634061582055
 20
1003.8745808933311
 10
4619.95411702857
 20
1001.5636606330319
 10
4619.004560239283
 20
998.8562512729698
 10
4618.866224026857
 20
995.9836493138016
 10
4619.551305539576
 20
993.1934178684287
 10
4621.000319396773
 20
990.7271054818979
 10
4623.090024716822
 20
988.7948105381064
 10
4625.638405711586
 20
987.5652509325024
 10
4628.427945859399
 20
987.143026861959
 10
4631.217481722329
 20
987.5652510182373
 10
4633.765859372584
 20
988.7948105381064
 10
4635.855586342557
 20
990.7271142748915
 10
4637.30457854983
 20
993.1934178684287
 10
4637.98941948269
 20
995.9831874317987
  0
LWPOLYLINE
  5
53
330
17
100
AcDbEntity
  8
0
100
AcDbPolyline
 90
52
 70
0
 10
3236.440992287232
 20
49.75802476318351
 10
3237.5980202872315
 20
39.11336776318369
 10
3241.4162122872317
 20
29.04722576318356
 10
3248.3583792872314
 20
18.749676763183672
 10
3256.4575742872316
 20
10.7661847631836
 10
3262.4741192872316
 20
8.567831763183603
 10
3270.6890172872318
 20
7.295100763183578
 10
3701.0894162872314
 20
7.524932763183597
 10
3716.902130287231
 20
8.199865763183608
 10
3733.9682912872313
 20
12.345882763183631
 10
3763.5982332872313
 20
22.42976676318354
 10
3786.757303287231
 20
33.59277176318365
 10
3813.2486142872312
 20
50.25397276318355
 10
3820.5795432872314
 20
55.91878176318365
 10
3824.078395287231
 20
60.08408176318354
 10
3826.244351287231
 20
64.9158307631837
 10
3827.577247287231
 20
70.41402676318371
 10
3828.7435312872312
 20
77.41173176318371
 10
3828.839500287231
 20
350.9660027631837
 10
3824.3409752872312
 20
363.4619047631837
 10
3820.842123287231
 20
370.12638476318364
 10
3816.0103752872315
 20
375.7911937631836
 10
3809.845730287231
 20
379.95649376318363
 10
3802.848025287231
 20
382.62228576318364
 10
3791.5184082872315
 20
383.78856976318366
 10
3773.3576982872314
 20
384.7882427631837
 10
3703.6845522872313
 20
384.0711437631837
 10
3697.8531312872315
 20
385.57065276318366
 10
3688.6894702872314
 20
390.7356247631836
 10
3678.3595252872315
 20
398.39977776318364
 10
3670.195537287231
 20
409.8960067631836
 10
3664.0308922872314
 20
423.7248037631836
 10
3658.3660842872314
 20
431.38895676318367
 10
3647.8695272872314
 20
439.0531097631836
 10
3635.8734612872313
 20
443.8848577631837
 10
3628.8757572872314
 20
445.0511417631836
 10
3613.047615287231
 20
445.0511417631836
 10
3552.2342292872313
 20
444.38469376318363
 10
3542.7373442872313
 20
446.55065076318357
 10
3504.749805287231
 20
453.71496676318367
 10
3466.7622652872315
 20
454.38141476318367
 10
3424.4428132872313
 20
456.04753476318365
 10
3388.7878412872315
 20
458.04687976318365
 10
3381.456913287231
 20
457.0472077631836
 10
3366.2952192872317
 20
447.3837107631836
 10
3336.8048922872317
 20
414.89436676318365
 10
3297.8176802872317
 20
372.9081387631837
 10
3263.1623812872317
 20
334.7539877631836
 10
3241.8360432872314
 20
308.0960647631836
 10
3236.6710702872315
 20
296.76644776318363
 10
3235.3381742872316
 20
288.43584676318363
 10
3235.8380102872316
 20
254.11377176318356
  0
LWPOLYLINE
  5
54
330
17
100
AcDbEntity
  8
0
100
AcDbPolyline
 90
54
 70
0
 10
3235.3382293072314
 20
1221.9108580417414
 10
3236.379554307231
 20
1211.7290130417416
 10
3239.040718307231
 20
1203.7455200417414
 10
3248.0655363072315
 20
1185.6958850417416
 10
3251.7680253072313
 20
1181.4148820417415
 10
3261.139951307231
 20
1175.2826340417416
 10
3269.4705523072316
 20
1172.6214700417415
 10
3292.3797043072313
 20
1170.3074140417416
 10
3399.5036403072313
 20
1167.5209210417415
 10
3473.2107603072313
 20
1166.9618450417415
 10
3479.458711307231
 20
1168.4659810417415
 10
3490.219070307231
 20
1177.0279880417415
 10
3495.1942903072313
 20
1183.8544520417415
 10
3502.367863307231
 20
1198.5487060417415
 10
3509.310030307231
 20
1218.3338830417415
 10
3512.8968173072312
 20
1224.2347260417416
 10
3519.144767307231
 20
1228.7471340417414
 10
3529.326613307231
 20
1232.7967320417415
 10
3535.574563307231
 20
1233.4909490417415
 10
3559.409338307231
 20
1234.0694630417415
 10
3637.589250307231
 20
1233.8101030417415
 10
3650.362838307231
 20
1235.1985370417415
 10
3661.1926193072313
 20
1240.3357410417416
 10
3678.686880307231
 20
1254.2200750417414
 10
3683.8240843072313
 20
1261.0233990417414
 10
3688.405915307231
 20
1268.9374700417416
 10
3690.488565307231
 20
1273.6581440417415
 10
3691.321625307231
 20
1280.4614680417415
 10
3692.293528307231
 20
1489.1430180417415
 10
3688.267071307231
 20
1503.8604130417414
 10
3674.938110307231
 20
1535.1001660417414
 10
3664.8025463072313
 20
1546.4853200417415
 10
3654.2504513072313
 20
1553.8440180417415
 10
3635.2289133072313
 20
1563.5630520417415
 10
3611.347857307231
 20
1566.6176060417415
 10
3580.802321307231
 20
1568.8390990417415
 10
3538.7327873072313
 20
1571.0605930417414
 10
3449.4565153072313
 20
1578.1416030417415
 10
3439.737480307231
 20
1579.8077240417415
 10
3429.740759307231
 20
1582.7234340417415
 10
3422.382062307231
 20
1585.7779880417415
 10
3412.1076543072313
 20
1591.4705650417416
 10
3405.165487307231
 20
1596.6077690417417
 10
3401.000187307231
 20
1597.9962020417415
 10
3395.585296307231
 20
1598.4127320417415
 10
3335.882657307231
 20
1598.4127320417415
 10
3267.1385393072314
 20
1601.2007070417415
 10
3258.9467823072314
 20
1598.8403700417414
 10
3253.8095783072313
 20
1595.2304430417414
 10
3247.283940307231
 20
1589.3990220417415
 10
3242.702110307231
 20
1584.5395050417417
 10
3238.675653307231
 20
1572.8766640417414
 10
3237.2872193072317
 20
1563.0187860417416
 10
3236.5930033072314
 20
1553.8551250417415
  0
CIRCLE
  5
55
330
17
100
AcDbEntity
  8
0
100
AcDbCircle
 10
3284.0623132872315
 20
50.08959576318369
 30
0.0
 40
11.0
  0
CIRCLE
  5
56
330
17
100
AcDbEntity
  8
0
100
AcDbCircle
 10
3311.4533282872317
 20
285.81227676318366
 30
0.0
 40
11.0
  0
LWPOLYLINE
  5
57
330
17
100
AcDbEntity
  8
0
100
AcDbPolyline
 90
58
 70
0
 10
3563.6387122872316
 20
1205.5784146519245
 10
3541.8125382872317
 20
1204.0789056519245
 10
3528.1503532872316
 20
1200.5800536519246
 10
3505.657731287232
 20
1188.2507646519246
 10
3486.330737287232
 20
1172.5892346519245
 10
3457.1736342872314
 20
1147.9306566519247
 10
3428.349755287232
 20
1122.1057936519244
 10
3391.0286632872317
 20
1091.7824066519245
 10
3386.1969152872316
 20
1086.1175986519245
 10
3378.5327622872314
 20
1074.1215336519247
 10
3376.533418287232
 20
1067.9568886519244
 10
3376.200194287232
 20
1058.7932276519246
 10
3377.9369582872314
 20
988.0191096519243
 10
3381.0559352872315
 20
932.5972886519243
 10
3381.7756982872315
 20
888.9316106519243
 10
3382.2555412872316
 20
800.6405716519242
 10
3379.3764852872314
 20
709.2305546519243
 10
3376.017587287232
 20
687.6376376519243
 10
3369.539712287232
 20
651.4095206519244
 10
3355.144434287232
 20
580.6327366519242
 10
3353.704906287232
 20
565.7576156519242
 10
3353.704906287232
 20
547.0437536519244
 10
3357.063804287232
 20
526.6504426519243
 10
3360.902545287232
 20
514.4144566519242
 10
3368.340106287232
 20
498.57965065192445
 10
3378.8966432872317
 20
483.9444506519243
 10
3388.0136522872317
 20
474.3475986519244
 10
3405.5279082872316
 20
464.5108256519244
 10
3416.8042092872315
 20
460.91200565192446
 10
3427.6006672872313
 20
458.0329496519245
 10
3435.9979132872318
 20
456.5934226519245
 10
3678.7982722872316
 20
454.91397365192455
 10
3706.3892222872314
 20
459.4724776519244
 10
3720.7845002872314
 20
466.4301956519245
 10
3732.0608012872317
 20
475.0673626519244
 10
3745.4963942872314
 20
492.58161765192443
 10
3762.7707282872316
 20
518.2531976519243
 10
3767.3292332872315
 20
535.2876096519243
 10
3774.2869512872317
 20
553.5216286519243
 10
3794.2004192872314
 20
578.7133656519244
 10
3813.154202287232
 20
597.6671486519243
 10
3817.7127072872318
 20
606.7841586519245
 10
3820.3518412872318
 20
621.1794366519244
 10
3821.3115262872316
 20
640.3731406519245
 10
3821.7913692872316
 20
727.4357836519245
 10
3826.3517932872314
 20
804.5484096519244
 10
3828.8392972872316
 20
984.0632866519244
 10
3826.7663772872315
 20
1001.4758156519244
 10
3825.0786112872315
 20
1129.6593696519246
 10
3822.4794632872317
 20
1142.6551066519244
 10
3819.4804472872315
 20
1151.6521556519244
 10
3810.0835292872316
 20
1165.2476966519246
 10
3798.2873982872316
 20
1180.6426466519245
 10
3787.2910052872317
 20
1188.4400886519245
 10
3772.8957272872317
 20
1197.2372036519246
 10
3756.9009742872317
 20
1202.2355636519244
 10
3741.7059582872316
 20
1203.6351046519246
 10
3717.7138272872317
 20
1204.6347766519245
  0
LWPOLYLINE
  5
58
330
17
100
AcDbEntity
  8
0
100
AcDbPolyline
 90
50
 70
0
 10
3373.5886522872315
 20
1710.9303131000004
 10
3373.9885212872314
 20
1705.7320181000005
 10
3378.187144287231
 20
1693.1361491000005
 10
3385.1848482872315
 20
1679.5406091000004
 10
3392.7823562872313
 20
1668.5442161000003
 10
3405.7780942872314
 20
1658.7474291000003
 10
3414.5752082872314
 20
1655.3485441000005
 10
3421.572913287231
 20
1654.9486751000004
 10
3506.5450412872315
 20
1653.9490031000005
 10
3521.5401232872314
 20
1652.5494621000005
 10
3533.7361222872314
 20
1649.9503151000004
 10
3546.5319252872314
 20
1645.1518891000005
 10
3556.328712287231
 20
1639.3537911000003
 10
3565.3257602872313
 20
1627.9575291000003
 10
3576.5220882872313
 20
1597.1676281000005
 10
3587.518481287231
 20
1577.5740551000004
 10
3592.5168412872313
 20
1573.1754981000004
 10
3600.5142182872314
 20
1569.5766781000004
 10
3606.7121852872315
 20
1567.9772031000005
 10
3617.1087752872313
 20
1567.1774651000003
 10
3644.4997912872313
 20
1566.1777931000004
 10
3710.2782152872314
 20
1568.5770061000005
 10
3798.249359287231
 20
1572.3757601000004
 10
3805.646933287231
 20
1574.3751041000005
 10
3811.4450312872314
 20
1578.3737931000005
 10
3820.8419482872314
 20
1586.5711041000004
 10
3827.0399152872315
 20
1598.1673001000004
 10
3827.239850287231
 20
1609.9634311000004
 10
3828.8393252872306
 20
1959.2488621000005
 10
3826.839981287231
 20
1971.4448611000005
 10
3823.241162287231
 20
1980.6418451000004
 10
3817.043195287231
 20
1988.2393521000004
 10
3806.2467362872308
 20
1995.4369921000005
 10
3799.4489662872306
 20
1998.2360731000003
 10
3666.952426287231
 20
1998.9998231000004
 10
3659.9547212872308
 20
1996.8338671000004
 10
3647.958656287231
 20
1991.1690581000005
 10
3626.6323182872306
 20
1978.3399331000003
 10
3613.469969287231
 20
1975.0076931000006
 10
3600.307619287231
 20
1973.1749601000004
 10
3556.9884952872308
 20
1970.0093321000004
 10
3518.1678952872307
 20
1968.5098241000003
 10
3440.5266962872306
 20
1963.8446881000004
 10
3421.1997022872306
 20
1957.1802071000004
 10
3406.5378442872307
 20
1949.1828301000003
 10
3394.375167287231
 20
1938.0198251000004
 10
3384.211834287231
 20
1924.8574761000004
 10
3377.5473542872314
 20
1910.1956181000003
 10
3374.2151132872314
 20
1899.1992251000004
 10
3372.5489932872315
 20
1883.5376961000004
  0
LWPOLYLINE
  5
59
330
17
100
AcDbEntity
  8
0
100
AcDbPolyline
 90
68
 70
0
 10
4351.533515790161
 20
1101.9450472810527
 10
4360.169494488891
 20
1102.4530123689437
 10
4366.519515851196
 20
1103.9770602205058
 10
4370.329482892212
 20
1105.7550143220687
 10
4375.4095152408445
 20
1109.8190402009745
 10
4379.219482281859
 20
1114.8989962556614
 10
4386.331489422973
 20
1127.5990389802714
 10
4387.855499127563
 20
1133.6950777986308
 10
4388.617484906372
 20
1142.3309420564435
 10
4390.141494610962
 20
1343.7530611970694
 10
4388.87150559729
 20
1350.1030062654274
 10
4384.299514630493
 20
1361.533059976364
 10
4378.4574965030515
 20
1370.9309481599582
 10
4373.377502301391
 20
1373.9790438630832
 10
4369.82151780432
 20
1375.249032876755
 10
4366.011512616333
 20
1375.7569979646462
 10
4332.229507306274
 20
1376.2649630525364
 10
4327.657516339477
 20
1377.026986978318
 10
4323.59349046057
 20
1378.55103482988
 10
4320.545509198364
 20
1380.3289889314444
 10
4317.751510480102
 20
1382.6150607087864
 10
4314.195487836059
 20
1387.1870516755832
 10
4309.369514325317
 20
1396.3310336091774
 10
4299.463508465941
 20
1429.6049593904274
 10
4295.399482587036
 20
1464.402933023239
 10
4295.907485821899
 20
1536.793069741989
 10
4295.145500043091
 20
1545.9370516755832
 10
4293.875511029419
 20
1551.7790316560524
 10
4290.573509076293
 20
1555.8430575349582
 10
4286.255500653442
 20
1558.3830355623024
 10
4279.651496747192
 20
1560.160989663864
 10
4273.047492840941
 20
1560.9230135896462
 10
3975.8674982578123
 20
1562.1930026033192
 10
3971.549499371704
 20
1561.1770724275361
 10
3967.7395037204587
 20
1559.1450594880841
 10
3964.6915033847654
 20
1556.858987710739
 10
3962.151496747192
 20
1553.049020669724
 10
3960.881498196777
 20
1548.7309359529272
 10
3958.8495043308103
 20
1530.189065835739
 10
3956.8175009281003
 20
1467.196969888474
 10
3950.467498639282
 20
1427.0649813630832
 10
3948.9434984714353
 20
1421.223001382614
 10
3943.8634995014036
 20
1406.9990633943341
 10
3937.767498830017
 20
1393.5369967439442
 10
3930.401499608215
 20
1384.647073648239
 10
3926.3375023395383
 20
1382.106943033005
 10
3916.431501248535
 20
1379.0589999177712
 10
3902.207501271423
 20
1376.0110568025361
 10
3891.0315004379117
 20
1371.94703092363
 10
3888.237500527557
 20
1370.1690768220692
 10
3883.411500194725
 20
1365.34302701738
 10
3882.6495004088247
 20
1363.8189791658192
 10
3880.871500262674
 20
1358.231058023239
 10
3879.6015002966487
 20
1351.8809603669902
 10
3878.839500287231
 20
1345.276956460739
 10
3879.0935002841616
 20
1156.5550326326143
 10
3879.6015002966487
 20
1151.9830416658183
 10
3880.61750028437
 20
1147.9190157869116
 10
3883.6655003220403
 20
1141.3150118806616
 10
3886.9675001890027
 20
1136.4889620759748
 10
3890.0154999286497
 20
1133.4410189607395
 10
3893.3175006896818
 20
1130.9010409333964
 10
3908.049500325378
 20
1124.0429781892553
 10
3924.0515020877683
 20
1118.2009982087868
 10
3941.3235024005735
 20
1113.8830660798808
 10
3978.9878175838044
 20
1107.8969147747937
 10
4002.283504346069
 20
1105.2470492341774
 10
4054.607494214233
 20
1101.9450472810527
  0
LWPOLYLINE
  5
5A
330
17
100
AcDbEntity
  8
0
100
AcDbPolyline
 90
69
 70
0
 10
4054.674307675793
 20
1100.9450472810527
 10
4002.3502987341435
 20
1097.8971041658183
 10
3997.6820491049816
 20
1097.4551378076244
 10
3974.4102924780395
 20
1094.595102212693
 10
3941.390301557019
 20
1089.2610873201156
 10
3924.1182964758427
 20
1084.9430026033183
 10
3908.1162994818237
 20
1079.1010226228495
 10
3893.3843010382207
 20
1072.2431124665998
 10
3890.082299085095
 20
1069.7031344392556
 10
3887.034298749402
 20
1066.6550387361308
 10
3883.732296796277
 20
1061.5750826814433
 10
3880.6842964605835
 20
1055.2249850251937
 10
3879.160296292737
 20
1046.5891207673806
 10
3878.9062946753056
 20
857.612985513474
 10
3880.9382980780156
 20
844.6590365388656
 10
3883.4782951788457
 20
837.8010500886694
 10
3885.7643001989873
 20
835.0070895173801
 10
3891.098296018079
 20
831.1970461824194
 10
3902.274300427869
 20
827.1330965974591
 10
3922.086302609876
 20
822.561029336716
 10
3926.4043014959843
 20
820.7830752351545
 10
3930.468298764661
 20
818.2430972078103
 10
3933.008295865491
 20
815.7030428865214
 10
3937.834297986463
 20
809.6070803621071
 10
3943.9302986578496
 20
796.1450900056624
 10
3950.5342930273564
 20
776.079095742966
 10
3951.550299497083
 20
770.2370394685523
 10
3956.8842953161748
 20
735.9470309236302
 10
3959.6782940344365
 20
663.8110293367163
 10
3960.9483021215947
 20
654.1590823152325
 10
3962.2182911352666
 20
649.8410738923803
 10
3964.758307309583
 20
646.0310305574193
 10
3967.8063076452763
 20
643.7450350740213
 10
3971.6162937597783
 20
641.9670809724594
 10
3975.93430218263
 20
640.6970919587875
 10
4273.114306302502
 20
642.2210635164043
 10
4279.718310208752
 20
642.9830874421855
 10
4286.322314115003
 20
644.7610415437485
 10
4290.640284390881
 20
647.3010958650374
 10
4293.942286344007
 20
651.3650454499985
 10
4295.21231350465
 20
656.9530428865215
 10
4295.97429928346
 20
666.3510836580055
 10
4295.466296048596
 20
738.4870852449192
 10
4299.530283780529
 20
773.5390414216773
 10
4309.436289639904
 20
806.8130434968733
 10
4314.26230129762
 20
815.9570254304665
 10
4317.81828579469
 20
820.5290926912093
 10
4320.612284512952
 20
822.8150881746074
 10
4323.660303922132
 20
824.5930422761695
 10
4327.7242916540645
 20
826.1170901277324
 10
4332.296282620862
 20
826.8790377595682
 10
4366.078287930921
 20
827.1330965974593
 10
4369.888293118908
 20
827.8950442292946
 10
4373.444315762951
 20
829.1650332429665
 10
4378.524309964612
 20
832.2130526521465
 10
4381.318308682873
 20
836.2770785310521
 10
4384.36628994508
 20
841.6110934236303
 10
4386.6522854284785
 20
846.6910494783184
 10
4388.938280911878
 20
853.0410708406235
 10
4390.2083080725215
 20
859.3910922029276
 10
4388.684298367932
 20
1060.8130587556623
 10
4387.41430935426
 20
1072.4970187165998
 10
4384.874293179943
 20
1078.5930575349596
 10
4379.286295743421
 20
1087.9910983064435
 10
4373.952280850842
 20
1094.5951022126933
 10
4370.396296353772
 20
1097.3889864900373
 10
4366.586291165784
 20
1099.1670931794906
 10
4360.236307950451
 20
1100.4370821931623
 10
4355.9182995276
 20
1100.9450472810527
  0
LWPOLYLINE
  5
5B
330
17
100
AcDbEntity
  8
0
100
AcDbPolyline
 90
57
 70
0
 10
4383.568064490617
 20
44.94200009999985
 10
4391.1880748665935
 20
55.86399812398678
 10
4394.490076819719
 20
64.24599904714312
 10
4396.014086524308
 20
72.37399835286827
 10
4396.886242451076
 20
103.18033673597192
 10
4396.522089759172
 20
126.22199792562252
 10
4394.998080054582
 20
158.2260014504029
 10
4395.252062598527
 20
174.73600167928439
 10
4396.268069068254
 20
191.2459923714234
 10
4404.904085913957
 20
227.05999154744882
 10
4412.778078833879
 20
257.5399949043825
 10
4421.414095679582
 20
287.7659966438838
 10
4429.288088599505
 20
340.8520104378297
 10
4432.462024250477
 20
401.02900105699405
 10
4437.924067298235
 20
437.3720147102907
 10
4448.592058936418
 20
495.7920052498413
 10
4453.361744492849
 20
528.0052337886477
 10
4457.387550690595
 20
563.490241426302
 10
4460.276095191301
 20
603.741986939294
 10
4460.022074500383
 20
608.0599953621461
 10
4457.482096473039
 20
617.204015442712
 10
4454.180094519914
 20
623.8079812019893
 10
4447.322069922746
 20
632.9520012825558
 10
4441.480089942277
 20
637.0159890144894
 10
4436.908060828508
 20
639.0480019539427
 10
4432.082087317766
 20
640.3179909676145
 10
4097.056071082414
 20
640.3179909676143
 10
4078.006073752702
 20
637.0159890144892
 10
4074.70408133632
 20
635.4920174568724
 10
4070.3860729134685
 20
632.4439980476927
 10
4066.06807402736
 20
626.0940148323604
 10
4062.5120799935466
 20
617.4579979866573
 10
4043.716074744523
 20
464.29599542318124
 10
4040.1600807107097
 20
447.02399987874753
 10
4036.3500755227215
 20
437.37201471029067
 10
4031.52407340175
 20
428.7359978645869
 10
4019.078079978288
 20
413.49601525960657
 10
3966.75407580501
 20
367.26798791585657
 10
3953.546077529253
 20
353.55201501546617
 10
3949.7360771096364
 20
347.20199365316125
 10
3946.688076773943
 20
338.3119942635128
 10
3929.9240773118154
 20
282.9400040596556
 10
3925.0980775005237
 20
255.2539994209835
 10
3924.336077491106
 20
231.37799997030018
 10
3926.114077488245
 20
38.59200019536717
 10
3927.1300774014608
 20
32.495999523980224
 10
3928.6540775693074
 20
26.654000470025036
 10
3930.940077225031
 20
20.05000014005395
 10
3934.4960778153554
 20
14.207999894006196
 10
3937.7980773842946
 20
10.14400024114354
 10
3946.688076773943
 20
4.556000122411206
 10
3953.800076762499
 20
1.7619999885389392
 10
3961.4200776017324
 20
0.9999999977479712
 10
4331.244074622454
 20
0.9999999977480662
 10
4339.118067542375
 20
1.5080000102352404
 10
4343.9440792000905
 20
3.2860000818801445
 10
4349.532076636613
 20
7.095999905450284
  0
LWPOLYLINE
  5
5C
330
17
100
AcDbEntity
  8
0
100
AcDbPolyline
 90
80
 70
0
 10
4039.398104490617
 20
1998.4919971000004
 10
4031.524111570696
 20
1997.2220080863285
 10
4023.9041011947184
 20
1994.9360126029303
 10
4017.0460765975504
 20
1992.1419757376962
 10
4010.442110838273
 20
1988.8400500785165
 10
4005.6160991805596
 20
1984.5220416556645
 10
4001.2980907577075
 20
1979.695991850977
 10
4000.536104978899
 20
1977.9180377494147
 10
3997.9960888045825
 20
1970.298027373438
 10
3997.2341030257744
 20
1962.1699756156254
 10
3998.758112730364
 20
1747.0320361625006
 10
3999.7740810531177
 20
1734.3319934378912
 10
4001.2980907577075
 20
1723.4099811087892
 10
4006.378084959368
 20
1707.915977812891
 10
4079.022089781145
 20
1582.1859973441408
 10
4080.546099485735
 20
1580.6620257865238
 10
4084.6100872176685
 20
1577.8679889212897
 10
4088.6741130965747
 20
1576.0900348197267
 10
4094.262110533098
 20
1574.8200458060555
 10
4278.158098997454
 20
1573.8040393363285
 10
4282.476088346819
 20
1573.0420154105477
 10
4290.85810357509
 20
1569.4860309134767
 10
4294.668089689592
 20
1566.945976592188
 10
4298.732096495012
 20
1562.8820270072267
 10
4301.018091978411
 20
1559.0719836722658
 10
4302.034098448137
 20
1553.230003691798
 10
4302.288090528826
 20
1547.3880237113287
 10
4302.034098448137
 20
1541.5460437308595
 10
4298.732096495012
 20
1444.5179980765627
 10
4299.748102964739
 20
1439.6920245658205
 10
4302.542092146257
 20
1435.6279986869147
 10
4305.844094099382
 20
1433.5959857474616
 10
4312.702099623064
 20
1431.5640491019533
 10
4316.004092039446
 20
1431.3099902640627
 10
4411.762096227983
 20
1431.5640491019533
 10
4417.6040952819385
 20
1432.8340381156256
 10
4422.1760957854785
 20
1435.3740161429698
 10
4424.462096037249
 20
1437.9139941703127
 10
4427.510096372942
 20
1444.2640155326178
 10
4428.2720940726795
 20
1448.0739825736339
 10
4420.652095617632
 20
1587.2660296927736
 10
4421.922094168047
 20
1590.5680316458986
 10
4423.700095953325
 20
1593.3619922171877
 10
4426.240095438341
 20
1595.3940051566408
 10
4429.288095774034
 20
1597.1720355521488
 10
4444.020095409731
 20
1600.2199786673839
 10
4450.116094889025
 20
1603.267998076563
 10
4454.942095221857
 20
1607.0780414115236
 10
4457.736095132212
 20
1611.6500323783207
 10
4459.2600952255525
 20
1615.9680408011727
 10
4460.022095216344
 20
1620.5400317679698
 10
4460.276095213274
 20
1629.4300311576178
 10
4460.022095216344
 20
1638.066048003321
 10
4458.498095216135
 20
1649.496025420313
 10
4455.958095135073
 20
1664.2280047904303
 10
4452.656094970087
 20
1677.4360126029303
 10
4445.5440955775775
 20
1699.534019805079
 10
4427.002095522264
 20
1749.8259967337892
 10
4424.462096037249
 20
1758.9699786673834
 10
4422.68409425197
 20
1768.1140368949225
 10
4421.414095701555
 20
1777.5120013724613
 10
4419.382097067217
 20
1803.4199756156256
 10
4418.366095365862
 20
1827.8039783011725
 10
4417.85809689937
 20
1852.4420398246098
 10
4418.112093748429
 20
1876.8260425101566
 10
4419.128095449785
 20
1901.2100451957042
 10
4420.644502292128
 20
1915.720769832232
 10
4424.7160952704935
 20
1943.8820117484377
 10
4428.018094839433
 20
1959.3760150443368
 10
4430.050095857957
 20
1969.789985991602
 10
4430.050095857957
 20
1973.8540118705087
 10
4428.272094072679
 20
1981.4740222464848
 10
4425.732094587663
 20
1986.0460132132819
 10
4422.4300950187235
 20
1989.8559802542973
 10
4417.350093664506
 20
1993.1579822074225
 10
4411.25409299312
 20
1995.4439776908207
 10
4401.094095053056
 20
1996.9680255423837
 10
4380.520097555497
 20
1998.4919971000004
 10
4355.374094786027
 20
1999.000000334864
 10
4055.4001110213785
 20
1999.000000334864
  0
LWPOLYLINE
  5
5D
330
17
100
AcDbEntity
  8
0
100
AcDbPolyline
 90
24
 70
0
 10
4078.0060833114176
 20
1934.2299884330084
 10
4077.4980800765543
 20
1938.0400317679696
 10
4075.974108518938
 20
1941.5960162650397
 10
4073.6881130355387
 20
1944.6440356742194
 10
4070.640093626359
 20
1946.930031157618
 10
4067.0841091292887
 20
1948.20002017129
 10
4063.5280864852457
 20
1948.7079852591803
 10
4059.7180812972574
 20
1948.2000201712895
 10
4056.162096800187
 20
1946.930031157618
 10
4053.1140773910074
 20
1944.6440356742194
 10
4050.828081907609
 20
1941.5960162650397
 10
4049.304110349992
 20
1938.0400317679696
 10
4048.7961071151294
 20
1934.2299884330084
 10
4049.304110349992
 20
1930.6740039359377
 10
4050.828081907609
 20
1927.1180194388678
 10
4053.1140773910074
 20
1924.070000029688
 10
4056.162096800187
 20
1921.7840045462897
 10
4059.7180812972574
 20
1920.2600329886725
 10
4063.5280864852457
 20
1919.7519916068366
 10
4067.0841091292887
 20
1920.2600329886725
 10
4070.640093626359
 20
1921.7840045462897
 10
4073.6881130355387
 20
1924.070000029688
 10
4075.974108518938
 20
1927.1180194388678
 10
4077.4980800765543
 20
1930.6740039359383
  0
LWPOLYLINE
  5
5E
330
17
100
AcDbEntity
  8
0
100
AcDbPolyline
 90
24
 70
0
 10
4539.232098402361
 20
1933.213981963282
 10
4538.724095167498
 20
1937.0240252982426
 10
4537.200094999651
 20
1940.5800097953133
 10
4534.9140995162525
 20
1943.628029204493
 10
4531.866099180559
 20
1945.9140246878912
 10
4528.3100956100025
 20
1947.4379962455087
 10
4524.754092039446
 20
1947.6919787894542
 10
4520.944096388201
 20
1947.4379962455087
 10
4517.388092817644
 20
1945.9140246878912
 10
4514.340092481951
 20
1943.628029204493
 10
4512.054096998552
 20
1940.5800097953133
 10
4510.784098448137
 20
1937.0240252982426
 10
4510.276095213274
 20
1933.213981963282
 10
4510.784098448137
 20
1929.6579974662113
 10
4512.054096998552
 20
1926.1020129691415
 10
4514.340092481951
 20
1923.0539935599616
 10
4517.388092817644
 20
1920.767998076563
 10
4520.944096388201
 20
1919.2440265189462
 10
4524.754092039446
 20
1918.7359851371102
 10
4528.3100956100025
 20
1919.2440265189462
 10
4531.866099180559
 20
1920.767998076563
 10
4534.9140995162525
 20
1923.0539935599616
 10
4537.200094999651
 20
1926.1020129691415
 10
4538.724095167498
 20
1929.6579974662113
  0
ENDSEC
  0
SECTION
  2
OBJECTS
  0
DICTIONARY
  5
A
330
0
100
AcDbDictionary
281
1
  3
ACAD_COLOR
350
B
  3
ACAD_GROUP
350
C
  3
ACAD_LAYOUT
350
D
  3
ACAD_MATERIAL
350
E
  3
ACAD_MLEADERSTYLE
350
F
  3
ACAD_MLINESTYLE
350
10
  3
ACAD_PLOTSETTINGS
350
11
  3
ACAD_PLOTSTYLENAME
350
12
  3
ACAD_SCALELIST
350
14
  3
ACAD_TABLESTYLE
350
15
  3
ACAD_VISUALSTYLE
350
16
  3
EZDXF_META
350
2D
  0
DICTIONARY
  5
B
330
A
100
AcDbDictionary
281
1
  0
DICTIONARY
  5
C
330
A
100
AcDbDictionary
281
1
  0
DICTIONARY
  5
D
330
A
100
AcDbDictionary
281
1
  3
Model
350
1A
  3
Layout1
350
1E
  0
DICTIONARY
  5
E
330
A
100
AcDbDictionary
281
1
  3
ByBlock
350
1F
  3
ByLayer
350
20
  3
Global
350
21
  0
DICTIONARY
  5
F
330
A
100
AcDbDictionary
281
1
  3
Standard
350
2C
  0
DICTIONARY
  5
10
330
A
100
AcDbDictionary
281
1
  3
Standard
350
22
  0
DICTIONARY
  5
11
330
A
100
AcDbDictionary
281
1
  0
ACDBDICTIONARYWDFLT
  5
12
330
A
100
AcDbDictionary
281
1
  3
Normal
350
13
100
AcDbDictionaryWithDefault
340
13
  0
ACDBPLACEHOLDER
  5
13
330
12
  0
DICTIONARY
  5
14
330
A
100
AcDbDictionary
281
1
  0
DICTIONARY
  5
15
330
A
100
AcDbDictionary
281
1
  0
DICTIONARY
  5
16
330
A
100
AcDbDictionary
281
1
  0
LAYOUT
  5
1A
330
D
100
AcDbPlotSettings
  1

  4
A3
  6

 40
7.5
 41
20.0
 42
7.5
 43
20.0
 44
420.0
 45
297.0
 46
0.0
 47
0.0
 48
0.0
 49
0.0
140
0.0
141
0.0
142
1.0
143
1.0
 70
1024
 72
1
 73
0
 74
5
  7

 75
16
 76
0
 77
2
 78
300
147
1.0
148
0.0
149
0.0
100
AcDbLayout
  1
Model
 70
1
 71
0
 10
0.0
 20
0.0
 11
420.0
 21
297.0
 12
0.0
 22
0.0
 32
0.0
 14
1e+20
 24
1e+20
 34
1e+20
 15
-1e+20
 25
-1e+20
 35
-1e+20
146
0.0
 13
0.0
 23
0.0
 33
0.0
 16
1.0
 26
0.0
 36
0.0
 17
0.0
 27
1.0
 37
0.0
 76
1
330
17
  0
LAYOUT
  5
1E
330
D
100
AcDbPlotSettings
  1

  4
A3
  6

 40
7.5
 41
20.0
 42
7.5
 43
20.0
 44
420.0
 45
297.0
 46
0.0
 47
0.0
 48
0.0
 49
0.0
140
0.0
141
0.0
142
1.0
143
1.0
 70
0
 72
1
 73
0
 74
5
  7

 75
16
 76
0
 77
2
 78
300
147
1.0
148
0.0
149
0.0
100
AcDbLayout
  1
Layout1
 70
1
 71
1
 10
0.0
 20
0.0
 11
420.0
 21
297.0
 12
0.0
 22
0.0
 32
0.0
 14
1e+20
 24
1e+20
 34
1e+20
 15
-1e+20
 25
-1e+20
 35
-1e+20
146
0.0
 13
0.0
 23
0.0
 33
0.0
 16
1.0
 26
0.0
 36
0.0
 17
0.0
 27
1.0
 37
0.0
 76
1
330
1B
  0
MATERIAL
  5
1F
102
{ACAD_REACTORS
330
E
102
}
330
E
100
AcDbMaterial
  1
ByBlock
  2

 70
0
 40
1.0
 71
1
 41
1.0
 91
-1023410177
 42
1.0
 72
1
  3

 73
1
 74
1
 75
1
 44
0.5
 73
0
 45
1.0
 46
1.0
 77
1
  4

 78
1
 79
1
170
1
 48
1.0
171
1
  6

172
1
173
1
174
1
140
1.0
141
1.0
175
1
  7

176
1
177
1
178
1
143
1.0
179
1
  8

270
1
271
1
272
1
145
1.0
146
1.0
273
1
  9

274
1
275
1
276
1
 42
1.0
 72
1
  3

 73
1
 74
1
 75
1
 94
63
  0
MATERIAL
  5
20
102
{ACAD_REACTORS
330
E
102
}
330
E
100
AcDbMaterial
  1
ByLayer
  2

 70
0
 40
1.0
 71
1
 41
1.0
 91
-1023410177
 42
1.0
 72
1
  3

 73
1
 74
1
 75
1
 44
0.5
 73
0
 45
1.0
 46
1.0
 77
1
  4

 78
1
 79
1
170
1
 48
1.0
171
1
  6

172
1
173
1
174
1
140
1.0
141
1.0
175
1
  7

176
1
177
1
178
1
143
1.0
179
1
  8

270
1
271
1
272
1
145
1.0
146
1.0
273
1
  9

274
1
275
1
276
1
 42
1.0
 72
1
  3

 73
1
 74
1
 75
1
 94
63
  0
MATERIAL
  5
21
102
{ACAD_REACTORS
330
E
102
}
330
E
100
AcDbMaterial
  1
Global
  2

 70
0
 40
1.0
 71
1
 41
1.0
 91
-1023410177
 42
1.0
 72
1
  3

 73
1
 74
1
 75
1
 44
0.5
 73
0
 45
1.0
 46
1.0
 77
1
  4

 78
1
 79
1
170
1
 48
1.0
171
1
  6

172
1
173
1
174
1
140
1.0
141
1.0
175
1
  7

176
1
177
1
178
1
143
1.0
179
1
  8

270
1
271
1
272
1
145
1.0
146
1.0
273
1
  9

274
1
275
1
276
1
 42
1.0
 72
1
  3

 73
1
 74
1
 75
1
 94
63
  0
MLINESTYLE
  5
22
102
{ACAD_REACTORS
330
10
102
}
330
10
100
AcDbMlineStyle
  2
Standard
 70
0
  3

 62
256
 51
90.0
 52
90.0
 71
2
 49
0.5
 62
256
  6
BYLAYER
 49
-0.5
 62
256
  6
BYLAYER
  0
MLEADERSTYLE
  5
2C
102
{ACAD_REACTORS
330
F
102
}
330
F
100
AcDbMLeaderStyle
179
2
170
2
171
1
172
0
 90
2
 40
0.0
 41
0.0
173
1
 91
-1056964608
 92
-2
290
1
 42
2.0
291
1
 43
8.0
  3
Standard
 44
4.0
300

342
29
174
1
175
1
176
0
178
1
 93
-1056964608
 45
4.0
292
0
297
0
 46
4.0
 94
-1056964608
 47
1.0
 49
1.0
140
1.0
294
1
141
0.0
177
0
142
1.0
295
0
296
0
143
3.75
271
0
272
9
273
9
  0
DICTIONARY
  5
2D
330
A
100
AcDbDictionary
280
1
281
1
  3
CREATED_BY_EZDXF
350
2E
  3
WRITTEN_BY_EZDXF
350
61
  0
DICTIONARYVAR
  5
2E
330
2D
100
DictionaryVariables
280
0
  1
1.4.2 @ 2025-10-23T10:07:22.029479+00:00
  0
DICTIONARYVAR
  5
61
330
2D
100
DictionaryVariables
280
0
  1
1.4.2 @ 2025-10-23T10:07:22.392872+00:00
  0
ENDSEC
  0
EOF
