  0
SECTION
  2
HEADER
  9
$ACADVER
  1
AC1015
  9
$DWGCODEPAGE
  3
ansi_1252
  9
$INSBASE
 10
0
 20
0
 30
0
  9
$EXTMIN
 10
1859.2295539018003
 20
1.000025099999845
 30
0
  9
$EXTMAX
 10
2499.0000001751996
 20
1998.9999993032004
 30
0
  9
$LIMMIN
 10
0
 20
0
  9
$LIMMAX
 10
12
 20
9
  9
$SNAPMODE
 70
0
  9
$SNAPUNIT
 10
1
 20
1
  9
$SNAPBASE
 10
0
 20
0
  9
$SNAPANG
 50
0
  9
$SNAPSTYLE
 70
0
  9
$SNAPISOPAIR
 70
0
  9
$ORTHOMODE
 70
0
  9
$REGENMODE
 70
1
  9
$FILLMODE
 70
1
  9
$QTEXTMODE
 70
0
  9
$MIRRTEXT
 70
1
  9
$LTSCALE
 40
1
  9
$OSMODE
 70
0
  9
$ATTMODE
 70
1
  9
$TEXTSIZE
 40
0.2
  9
$TRACEWID
 40
0.05
  9
$TEXTSTYLE
  7
Standard
  9
$CLAYER
  8
0
  9
$CELTYPE
  6
ByLayer
  9
$CECOLOR
 62
256
  9
$CELTSCALE
 40
1
  9
$DISPSILH
 70
0
  9
$DIMSCALE
 40
1
  9
$DIMASZ
 40
0.18
  9
$DIMEXO
 40
0.0625
  9
$DIMDLI
 40
0.38
  9
$DIMRND
 40
0
  9
$DIMDLE
 40
0
  9
$DIMEXE
 40
0.18
  9
$DIMTP
 40
0
  9
$DIMTM
 40
0
  9
$DIMTXT
 40
0.18
  9
$DIMCEN
 40
0.09
  9
$DIMTSZ
 40
0
  9
$DIMTOL
 70
0
  9
$DIMLIM
 70
0
  9
$DIMTIH
 70
1
  9
$DIMTOH
 70
1
  9
$DIMSE1
 70
0
  9
$DIMSE2
 70
0
  9
$DIMTAD
 70
0
  9
$DIMZIN
 70
0
  9
$DIMBLK
  1

  9
$DIMASO
 70
1
  9
$DIMSHO
 70
1
  9
$DIMPOST
  1

  9
$DIMAPOST
  1

  9
$DIMALT
 70
0
  9
$DIMALTD
 70
2
  9
$DIMALTF
 40
0.03937007874015748
  9
$DIMLFAC
 40
1
  9
$DIMTOFL
 70
0
  9
$DIMTVP
 40
0
  9
$DIMTIX
 70
0
  9
$DIMSOXD
 70
0
  9
$DIMSAH
 70
0
  9
$DIMBLK1
  1

  9
$DIMBLK2
  1

  9
$DIMSTYLE
  2
Standard
  9
$DIMCLRD
 70
0
  9
$DIMCLRE
 70
0
  9
$DIMCLRT
 70
0
  9
$DIMTFAC
 40
1
  9
$DIMGAP
 40
0.09
  9
$DIMJUST
 70
0
  9
$DIMSD1
 70
0
  9
$DIMSD2
 70
0
  9
$DIMTOLJ
 70
1
  9
$DIMTZIN
 70
0
  9
$DIMALTZ
 70
0
  9
$DIMALTTZ
 70
0
  9
$DIMUPT
 70
0
  9
$DIMDEC
 70
4
  9
$DIMTDEC
 70
4
  9
$DIMALTU
 70
2
  9
$DIMALTTD
 70
0
  9
$DIMTXSTY
  7
Standard
  9
$DIMAUNIT
 70
0
  9
$DIMADEC
 70
0
  9
$DIMALTRND
 40
0
  9
$DIMAZIN
 70
0
  9
$DIMDSEP
 70
46
  9
$DIMATFIT
 70
0
  9
$DIMFRAC
 70
0
  9
$DIMLDRBLK
  1

  9
$DIMLUNIT
 70
2
  9
$DIMLWD
 70
-2
  9
$DIMLWE
 70
-2
  9
$LUNITS
 70
2
  9
$LUPREC
 70
4
  9
$SKETCHINC
 40
0.1
  9
$FILLETRAD
 40
0
  9
$AUNITS
 70
0
  9
$AUPREC
 70
0
  9
$MENU
  1
.
  9
$ELEVATION
 40
0
  9
$PELEVATION
 40
0
  9
$THICKNESS
 40
0
  9
$LIMCHECK
 70
0
  9
$CHAMFERA
 40
0.5
  9
$CHAMFERB
 40
0.5
  9
$CHAMFERC
 40
0
  9
$CHAMFERD
 40
0
  9
$SKPOLY
 70
0
  9
$TDCREATE
 40
2460962.9821715858
  9
$TDUCREATE
 40
2460962.9405049188
  9
$TDUPDATE
 40
2460962.9821715858
  9
$TDUUPDATE
 40
2460962.9405049188
  9
$TDINDWG
 40
0
  9
$TDUSRTIMER
 40
1.1574074074074074E-08
  9
$USRTIMER
 70
1
  9
$ANGBASE
 50
0
  9
$ANGDIR
 70
1
  9
$PDMODE
 70
0
  9
$PDSIZE
 40
0
  9
$PLINEWID
 40
0
  9
$SPLFRAME
 70
0
  9
$SPLINETYPE
 70
6
  9
$SPLINESEGS
 70
8
  9
$HANDSEED
  5
58
  9
$SURFTAB1
 70
6
  9
$SURFTAB2
 70
6
  9
$SURFTYPE
 70
6
  9
$SURFU
 70
6
  9
$SURFV
 70
6
  9
$UCSORG
 10
0
 20
0
 30
0
  9
$UCSXDIR
 10
1
 20
0
 30
0
  9
$UCSYDIR
 10
0
 20
1
 30
0
  9
$UCSORTHOREF
  2

  9
$UCSORTHOVIEW
 70
0
  9
$UCSORGTOP
 10
0
 20
0
 30
0
  9
$UCSORGBOTTOM
 10
0
 20
0
 30
0
  9
$UCSORGLEFT
 10
0
 20
0
 30
0
  9
$UCSORGRIGHT
 10
0
 20
0
 30
0
  9
$UCSORGFRONT
 10
0
 20
0
 30
0
  9
$UCSORGBACK
 10
0
 20
0
 30
0
  9
$PUCSORG
 10
0
 20
0
 30
0
  9
$PUCSXDIR
 10
1
 20
0
 30
0
  9
$PUCSYDIR
 10
0
 20
1
 30
0
  9
$PUCSORTHOREF
  2

  9
$PUCSORTHOVIEW
 70
0
  9
$PUCSORGTOP
 10
0
 20
0
 30
0
  9
$PUCSORGBOTTOM
 10
0
 20
0
 30
0
  9
$PUCSORGLEFT
 10
0
 20
0
 30
0
  9
$PUCSORGRIGHT
 10
0
 20
0
 30
0
  9
$PUCSORGFRONT
 10
0
 20
0
 30
0
  9
$PUCSORGBACK
 10
0
 20
0
 30
0
  9
$USERI1
 70
0
  9
$USERI2
 70
0
  9
$USERI3
 70
0
  9
$USERI4
 70
0
  9
$USERI5
 70
0
  9
$USERR1
 40
0
  9
$USERR2
 40
0
  9
$USERR3
 40
0
  9
$USERR4
 40
0
  9
$USERR5
 40
0
  9
$WORLDVIEW
 70
1
  9
$SHADEDGE
 70
3
  9
$SHADEDIF
 70
70
  9
$TILEMODE
 70
1
  9
$MAXACTVP
 70
48
  9
$PINSBASE
 10
0
 20
0
 30
0
  9
$PLIMCHECK
 70
0
  9
$PEXTMIN
 10
1E+20
 20
1E+20
 30
1E+20
  9
$PEXTMAX
 10
-1E+20
 20
-1E+20
 30
-1E+20
  9
$PLIMMAX
 10
0
 20
0
  9
$PLIMMIN
 10
0
 20
0
  9
$UNITMODE
 70
0
  9
$VISRETAIN
 70
1
  9
$PLINEGEN
 70
1
  9
$PSLTSCALE
 70
1
  9
$TREEDEPTH
 70
3020
  9
$CMLSTYLE
  2
STANDARD
  9
$CMLJUST
 70
0
  9
$CMLSCALE
 40
1
  9
$PROXYGRAPHICS
 70
1
  9
$MEASUREMENT
 70
1
  9
$CELWEIGHT
370
-1
  9
$ENDCAPS
280
0
  9
$JOINSTYLE
280
0
  9
$LWDISPLAY
290
1
  9
$INSUNITS
 70
4
  9
$HYPERLINKBASE
  1

  9
$XEDIT
290
1
  9
$CEPSNTYPE
380
0
  9
$PSTYLEMODE
290
0
  9
$FINGERPRINTGUID
  2

  9
$VERSIONGUID
  2

  9
$EXTNAMES
290
1
  9
$PSVPSCALE
 40
0
  9
$CSHADOW
280
0
  9
$SHADOWPLANELOCATION
 40
0
  0
ENDSEC
  0
SECTION
  2
CLASSES
  0
CLASS
  1
RASTERVARIABLES
  2
AcDbRasterVariables
  3
ISM
 90
0
280
0
281
0
  0
CLASS
  1
IMAGEDEF
  2
AcDbRasterImageDef
  3
ISM
 90
0
280
0
281
0
  0
CLASS
  1
IMAGEDEF_REACTOR
  2
AcDbRasterImageDefReactor
  3
ISM
 90
1
280
0
281
0
  0
CLASS
  1
IMAGE
  2
AcDbRasterImage
  3
ISM
 90
127
280
0
281
1
  0
CLASS
  1
ACAD_EVALUATION_GRAPH
  2
AcDbEvalGraph
  3
ObjectDBX Classes
 90
1153
280
0
281
0
  0
CLASS
  1
BLOCKPOINTPARAMETER
  2
AcDbBlockPointParameter
  3
ObjectDBX Classes
 90
1153
280
0
281
0
  0
CLASS
  1
BLOCKBASEPOINTPARAMETER
  2
AcDbBlockBasepointParameter
  3
ObjectDBX Classes
 90
1153
280
0
281
0
  0
CLASS
  1
BLOCKLOOKUPPARAMETER
  2
AcDbBlockLookupParameter
  3
ObjectDBX Classes
 90
1153
280
0
281
0
  0
CLASS
  1
BLOCKVISIBILITYPARAMETER
  2
AcDbBlockVisibilityParameter
  3
ObjectDBX Classes
 90
1153
280
0
281
0
  0
CLASS
  1
BLOCKPROPERTIESTABLE
  2
AcDbBlockPropertiesTable
  3
ObjectDBX Classes
 90
1153
280
0
281
0
  0
CLASS
  1
BLOCKPOLARPARAMETER
  2
AcDbBlockPolarParameter
  3
ObjectDBX Classes
 90
1153
280
0
281
0
  0
CLASS
  1
BLOCKROTATIONPARAMETER
  2
AcDbBlockRotationParameter
  3
ObjectDBX Classes
 90
1153
280
0
281
0
  0
CLASS
  1
BLOCKLINEARPARAMETER
  2
AcDbBlockLinearParameter
  3
ObjectDBX Classes
 90
1153
280
0
281
0
  0
CLASS
  1
BLOCKXYPARAMETER
  2
AcDbBlockXYParameter
  3
ObjectDBX Classes
 90
1153
280
0
281
0
  0
CLASS
  1
BLOCKFLIPPARAMETER
  2
AcDbBlockFlipParameter
  3
ObjectDBX Classes
 90
1153
280
0
281
0
  0
CLASS
  1
BLOCKALIGNMENTPARAMETER
  2
AcDbBlockAlignmentParameter
  3
ObjectDBX Classes
 90
1153
280
0
281
0
  0
CLASS
  1
BLOCKROTATEACTION
  2
AcDbBlockRotateAction
  3
ObjectDBX Classes
 90
1153
280
0
281
0
  0
CLASS
  1
BLOCKSCALEACTION
  2
AcDbBlockScaleAction
  3
ObjectDBX Classes
 90
1153
280
0
281
0
  0
CLASS
  1
BLOCKARRAYACTION
  2
AcDbBlockArrayAction
  3
ObjectDBX Classes
 90
1153
280
0
281
0
  0
CLASS
  1
BLOCKFLIPACTION
  2
AcDbBlockFlipAction
  3
ObjectDBX Classes
 90
1153
280
0
281
0
  0
CLASS
  1
BLOCKLOOKUPACTION
  2
AcDbBlockLookupAction
  3
ObjectDBX Classes
 90
1153
280
0
281
0
  0
CLASS
  1
BLOCKMOVEACTION
  2
AcDbBlockMoveAction
  3
ObjectDBX Classes
 90
1153
280
0
281
0
  0
CLASS
  1
BLOCKPOLARSTRETCHACTION
  2
AcDbBlockPolarStretchAction
  3
ObjectDBX Classes
 90
1153
280
0
281
0
  0
CLASS
  1
BLOCKSTRETCHACTION
  2
AcDbBlockStretchAction
  3
ObjectDBX Classes
 90
1153
280
0
281
0
  0
CLASS
  1
BLOCKALIGNMENTGRIP
  2
AcDbBlockAlignmentGrip
  3
ObjectDBX Classes
 90
1153
280
0
281
0
  0
CLASS
  1
BLOCKFLIPGRIP
  2
AcDbBlockFlipGrip
  3
ObjectDBX Classes
 90
1153
280
0
281
0
  0
CLASS
  1
ACDB_BLOCKREPRESENTATION_DATA
  2
AcDbBlockRepresentationData
  3
ObjectDBX Classes
 90
1153
280
0
281
0
  0
CLASS
  1
ACDB_DYNAMICBLOCKPURGEPREVENTER_VERSION
  2
AcDbDynamicBlockPurgePreventer
  3
ObjectDBX Classes
 90
1153
280
0
281
0
  0
CLASS
  1
BLOCKLINEARGRIP
  2
AcDbBlockLinearGrip
  3
ObjectDBX Classes
 90
1153
280
0
281
0
  0
CLASS
  1
BLOCKLOOKUPGRIP
  2
AcDbBlockLookupGrip
  3
ObjectDBX Classes
 90
1153
280
0
281
0
  0
CLASS
  1
BLOCKPOLARGRIP
  2
AcDbBlockPolarGrip
  3
ObjectDBX Classes
 90
1153
280
0
281
0
  0
CLASS
  1
BLOCKPROPERTIESTABLEGRIP
  2
AcDbBlockPropertiesTableGrip
  3
ObjectDBX Classes
 90
1153
280
0
281
0
  0
CLASS
  1
BLOCKROTATIONGRIP
  2
AcDbBlockRotationGrip
  3
ObjectDBX Classes
 90
1153
280
0
281
0
  0
CLASS
  1
BLOCKVISIBILITYGRIP
  2
AcDbBlockVisibilityGrip
  3
ObjectDBX Classes
 90
1153
280
0
281
0
  0
CLASS
  1
BLOCKXYGRIP
  2
AcDbBlockXYGrip
  3
ObjectDBX Classes
 90
1153
280
0
281
0
  0
CLASS
  1
BLOCKGRIPLOCATIONCOMPONENT
  2
AcDbBlockGripExpr
  3
ObjectDBX Classes
 90
1153
280
0
281
0
  0
CLASS
  1
ACDB_DYNAMICBLOCKPROXYNODE
  2
AcDbDynamicBlockProxyNode
  3
ObjectDBX Classes
 90
1153
280
0
281
0
  0
CLASS
  1
BLOCKLINEARCONSTRAINTPARAMETER
  2
AcDbBlockLinearConstraintParameter
  3
ObjectDBX Classes
 90
1153
280
0
281
0
  0
CLASS
  1
BLOCKHORIZONTALCONSTRAINTPARAMETER
  2
AcDbBlockHorizontalConstraintParameter
  3
ObjectDBX Classes
 90
1153
280
0
281
0
  0
CLASS
  1
BLOCKVERTICALCONSTRAINTPARAMETER
  2
AcDbBlockVerticalConstraintParameter
  3
ObjectDBX Classes
 90
1153
280
0
281
0
  0
CLASS
  1
BLOCKALIGNEDCONSTRAINTPARAMETER
  2
AcDbBlockAlignedConstraintParameter
  3
ObjectDBX Classes
 90
1153
280
0
281
0
  0
CLASS
  1
BLOCKANGULARCONSTRAINTPARAMETER
  2
AcDbBlockAngularConstraintParameter
  3
ObjectDBX Classes
 90
1153
280
0
281
0
  0
CLASS
  1
BLOCKDIAMETRICCONSTRAINTPARAMETER
  2
AcDbBlockDiametricConstraintParameter
  3
ObjectDBX Classes
 90
1153
280
0
281
0
  0
CLASS
  1
BLOCKRADIALCONSTRAINTPARAMETER
  2
AcDbBlockRadialConstraintParameter
  3
ObjectDBX Classes
 90
1153
280
0
281
0
  0
ENDSEC
  0
SECTION
  2
TABLES
  0
TABLE
  2
VPORT
  5
8
330
0
100
AcDbSymbolTable
 70
1
  0
VPORT
  5
33
330
8
100
AcDbSymbolTableRecord
100
AcDbViewportTableRecord
  2
*Active
 70
64
 10
0
 20
0
 11
1
 21
1
 12
2179.1147770385
 22
1000.0000122016002
 13
0
 23
0
 14
1
 24
1
 15
0
 25
0
 16
0
 26
0
 36
1
 17
0
 27
0
 37
0
 40
1997.9999742032005
 41
0.32020543269953688
 42
50
 43
0
 44
0
 50
0
 51
0
 71
0
 72
20000
 73
20000
 74
1
 75
0
 76
0
 77
0
 78
0
281
0
 65
1
110
0
120
0
130
0
111
1
121
0
131
0
112
0
122
1
132
0
 79
0
146
0
  0
ENDTAB
  0
TABLE
  2
LTYPE
  5
5
100
AcDbSymbolTable
 70
3
  0
LTYPE
  5
16
330
5
100
AcDbSymbolTableRecord
100
AcDbLinetypeTableRecord
  2
Continuous
  3
Solid line
 70
64
 72
65
 73
0
 40
0
  0
LTYPE
  5
14
330
5
100
AcDbSymbolTableRecord
100
AcDbLinetypeTableRecord
  2
ByBlock
  3

 70
64
 72
65
 73
0
 40
0
  0
LTYPE
  5
15
330
5
100
AcDbSymbolTableRecord
100
AcDbLinetypeTableRecord
  2
ByLayer
  3

 70
64
 72
65
 73
0
 40
0
  0
ENDTAB
  0
TABLE
  2
LAYER
  5
2
100
AcDbSymbolTable
 70
2
  0
LAYER
  5
10
330
2
100
AcDbSymbolTableRecord
100
AcDbLayerTableRecord
 70
64
  2
0
 62
7
  6
Continuous
370
-3
390
F
  0
LAYER
  5
27
330
2
100
AcDbSymbolTableRecord
100
AcDbLayerTableRecord
 70
64
  2
DEFPOINTS
 62
7
  6
Continuous
290
0
370
-3
390
F
  0
ENDTAB
  0
TABLE
  2
STYLE
  5
3
100
AcDbSymbolTable
 70
1
  0
STYLE
  5
11
330
3
100
AcDbSymbolTableRecord
100
AcDbTextStyleTableRecord
  2
Standard
 70
64
 40
0
 41
1
 50
0
 71
0
 42
0.2
  3
txt.shx
  0
ENDTAB
  0
TABLE
  2
VIEW
  5
6
100
AcDbSymbolTable
 70
0
  0
ENDTAB
  0
TABLE
  2
UCS
  5
7
100
AcDbSymbolTable
 70
0
  0
ENDTAB
  0
TABLE
  2
APPID
  5
9
330
0
100
AcDbSymbolTable
 70
2
  0
APPID
  5
12
330
0
100
AcDbSymbolTableRecord
100
AcDbRegAppTableRecord
  2
ACAD
 70
64
  0
APPID
  5
56
330
0
100
AcDbSymbolTableRecord
100
AcDbRegAppTableRecord
  2
ACAD_MLEADERVER
 70
64
  0
ENDTAB
  0
TABLE
  2
DIMSTYLE
  5
A
330
0
100
AcDbSymbolTable
 70
1
100
AcDbDimStyleTable
 71
0
  0
DIMSTYLE
105
32
330
A
100
AcDbSymbolTableRecord
100
AcDbDimStyleTableRecord
  2
Standard
 70
64
  3

  4

 40
1
 41
0.18
 42
0.0625
 43
0.38
 44
0.18
 45
0
 46
0
 47
0
 48
0
140
0.18
141
0.09
142
0
143
1
144
1
145
0
146
1
147
0.09
148
0
 71
0
 72
0
 73
1
 74
1
 75
0
 76
0
 77
0
 78
0
 79
0
170
0
171
2
172
0
173
0
174
0
175
0
179
0
271
4
272
4
273
2
274
0
275
0
276
0
277
2
278
46
279
0
280
0
281
0
282
0
283
1
284
0
285
0
286
0
288
0
289
0
340
11
371
-2
372
-2
  0
ENDTAB
  0
TABLE
  2
BLOCK_RECORD
  5
1
330
0
100
AcDbSymbolTable
 70
3
  0
BLOCK_RECORD
  5
1F
330
1
100
AcDbSymbolTableRecord
100
AcDbBlockTableRecord
  2
*Model_Space
340
22
  0
BLOCK_RECORD
  5
2F
330
1
100
AcDbSymbolTableRecord
100
AcDbBlockTableRecord
  2
*Paper_Space
340
1E
  0
ENDTAB
  0
ENDSEC
  0
SECTION
  2
BLOCKS
  0
BLOCK
  5
20
330
1F
100
AcDbEntity
  8
0
100
AcDbBlockBegin
  2
*Model_Space
 70
64
 10
0
 20
0
 30
0
  3
*Model_Space
  0
ENDBLK
  5
21
330
1F
100
AcDbEntity
  8
0
100
AcDbBlockEnd
  0
BLOCK
  5
30
330
2F
100
AcDbEntity
  8
0
 67
1
100
AcDbBlockBegin
  2
*Paper_Space
 70
64
 10
0
 20
0
 30
0
  3
*Paper_Space
  0
ENDBLK
  5
31
330
2F
100
AcDbEntity
  8
0
100
AcDbBlockEnd
  0
ENDSEC
  0
SECTION
  2
ENTITIES
  0
LWPOLYLINE
  5
28
330
1F
100
AcDbEntity
  8
0
 62
7
100
AcDbPolyline
 90
85
 70
1
 10
2497.4997901
 20
1534.9709971000002
 10
2499.0000001751996
 20
1883.1118828157003
 10
2498.3405583545996
 20
1889.7795651897002
 10
2497.2414898444995
 20
1895.0550938000003
 10
2494.4571835079996
 20
1903.4812865047002
 10
2491.3797907269995
 20
1909.9291549385002
 10
2488.6687557038995
 20
1913.1530903463001
 10
2478.3375112326
 20
1920.1871280964003
 10
2471.376743605
 20
1923.0447069372
 10
2466.2477564305996
 20
1924.2903180741002
 10
2459.2137174895997
 20
1924.8764873904004
 10
2412.8953971308997
 20
1922.7858743494003
 10
2406.8812949676994
 20
1924.1575112879002
 10
2398.4404482385
 20
1927.5338497414002
 10
2392.1098131915996
 20
1931.8597844642002
 10
2388.1004113524996
 20
1936.7132712144003
 10
2385.1461147590994
 20
1943.0439062613002
 10
2382.3821335128996
 20
1953.6196317845004
 10
2381.3428041194998
 20
1967.9798886452004
 10
2380.3320813349997
 20
1973.0897702109003
 10
2377.104647063
 20
1978.9342643961004
 10
2372.2708756622997
 20
1984.5884432341004
 10
2363.0894737225995
 20
1992.9858959491003
 10
2359.0800718835
 20
1995.3071291569004
 10
2353.9100522495996
 20
1997.4173408392003
 10
2345.9967587386996
 20
1998.9999993032004
 10
2026.8062804622002
 20
1998.4758532498004
 10
2022.9281551028
 20
1997.8236973554003
 10
2016.9146638713003
 20
1995.1319501487003
 10
2013.6886944063
 20
1992.5572803210005
 10
2010.5339598157004
 20
1988.3848907170004
 10
2008.1424682715003
 20
1983.9580867642003
 10
2003.1571429368003
 20
1970.2374444300003
 10
2001.2259735423002
 20
1960.4466649148003
 10
2000.8788867217274
 20
1936.7549482095535
 10
2001.9304885461004
 20
1902.3015952555002
 10
2001.0653008870001
 20
1892.5102131449003
 10
1997.4779409080004
 20
1880.1654747439002
 10
1994.5236455055003
 20
1872.9907547859002
 10
1990.5142436664003
 20
1865.499504326
 10
1985.5552455580003
 20
1860.7515277431
 10
1979.6466535621
 20
1856.2145726857002
 10
1969.0787129522
 20
1851.8337731999002
 10
1928.3488219666813
 20
1837.8233903407863
 10
1893.8538888737
 20
1824.9100048446003
 10
1885.9439715643
 20
1820.7807424932003
 10
1878.2205968309001
 20
1815.1464778850002
 10
1871.9954719513
 20
1809.1112729738002
 10
1864.9262633515002
 20
1796.9986576554002
 10
1862.6050301437
 20
1790.1404693902
 10
1862.4561342985
 20
1775.3502499935
 10
1859.2295539018003
 20
1602.1554836465002
 10
1860.6466201026003
 20
1592.0074174587
 10
1863.8844728347974
 20
1582.1970475164953
 10
1868.6453964155
 20
1572.1631232612
 10
1872.8584921724002
 20
1566.4846024272001
 10
1877.1326477541004
 20
1561.9051501033002
 10
1883.2996436138003
 20
1557.6309945216
 10
1889.1613427313002
 20
1556.1655694445
 10
2019.7438647560004
 20
1559.8375595411
 10
2027.7157755558003
 20
1558.1142200601
 10
2034.0786494566003
 20
1555.8105716817001
 10
2038.2697647722002
 20
1553.1053982684002
 10
2044.5271285057004
 20
1547.3697261434002
 10
2049.2809655075
 20
1539.2835115707
 10
2053.9703248015003
 20
1519.3537357621
 10
2056.9744462691
 20
1515.3970884112002
 10
2065.1075537202
 20
1507.7036088405002
 10
2069.7236417008003
 20
1504.6994873729002
 10
2075.0724416245002
 20
1502.4280790393002
 10
2089.4583017723871
 20
1500.4175391915487
 10
2109.5934368447811
 20
1501.1269826027624
 10
2136.0371097313227
 20
1502.8038958478171
 10
2199.9288976280654
 20
1507.0775097083567
 10
2247.3196386140003
 20
1509.3334888713002
 10
2373.4165905345
 20
1507.5842449335
 10
2414.4601211576073
 20
1503.5750811657388
 10
2442.0981253167
 20
1500.0229755081002
 10
2469.8227810674002
 20
1500.3380281031002
 10
2478.2040149153004
 20
1501.5452446240001
 10
2483.9775540876003
 20
1504.1281435707
 10
2488.839481937
 20
1509.9016827430003
 10
2492.3339922066
 20
1515.2194168493004
 10
2494.9168911533
 20
1520.0813435078
 10
2496.7401137991
 20
1527.6781053259003
  0
LWPOLYLINE
  5
29
330
1F
100
AcDbEntity
  8
0
 62
7
100
AcDbPolyline
 90
16
 70
1
 10
2446.4135301017
 20
1737.8836880727001
 10
2443.6791039040786
 20
1737.3397768843063
 10
2441.36096930741
 20
1735.7908488669907
 10
2439.8120412900939
 20
1733.4727142703216
 10
2439.2681301017
 20
1730.7382880727002
 10
2439.8120412900939
 20
1728.0038618750789
 10
2441.36096930741
 20
1725.6857272784098
 10
2443.6791039040786
 20
1724.1367992610942
 10
2446.4135301017
 20
1723.5928880727004
 10
2449.1479562993218
 20
1724.1367992610942
 10
2451.4660908959904
 20
1725.6857272784098
 10
2453.0150189133064
 20
1728.0038618750789
 10
2453.5589301017
 20
1730.7382880727002
 10
2453.0150189133064
 20
1733.4727142703216
 10
2451.4660908959904
 20
1735.7908488669907
 10
2449.1479562993218
 20
1737.3397768843063
  0
LWPOLYLINE
  5
2A
330
1F
100
AcDbEntity
  8
0
 62
7
100
AcDbPolyline
 90
16
 70
1
 10
2445.6368370306996
 20
1882.7107888866
 10
2442.9024108330782
 20
1882.1668776982062
 10
2440.5842762364096
 20
1880.6179496808907
 10
2439.0353482190935
 20
1878.2998150842216
 10
2438.4914370306997
 20
1875.5653888866002
 10
2439.0353482190935
 20
1872.8309626889788
 10
2440.5842762364096
 20
1870.5128280923097
 10
2442.9024108330782
 20
1868.9639000749942
 10
2445.6368370306996
 20
1868.4199888866003
 10
2448.3712632283214
 20
1868.9639000749942
 10
2450.68939782499
 20
1870.5128280923097
 10
2452.238325842306
 20
1872.8309626889788
 10
2452.7822370306994
 20
1875.5653888866002
 10
2452.238325842306
 20
1878.2998150842216
 10
2450.68939782499
 20
1880.6179496808907
 10
2448.3712632283214
 20
1882.1668776982062
  0
LWPOLYLINE
  5
2B
330
1F
100
AcDbEntity
  8
0
 62
7
100
AcDbPolyline
 90
66
 70
1
 10
2229.6969564144133
 20
739.7037130270536
 10
2424.1023210472135
 20
742.26592961345375
 10
2433.6886408959135
 20
744.40300680885366
 10
2436.9858476171134
 20
745.37995686025374
 10
2444.3129706208133
 20
748.98245913275366
 10
2449.9914914548135
 20
753.25661471445369
 10
2452.3117481246131
 20
756.43170178605374
 10
2454.4488253200134
 20
760.40056062555368
 10
2455.8531905723135
 20
764.06412272285377
 10
2456.3709736470132
 20
767.47025868525373
 10
2455.0127069428136
 20
966.29325138635375
 10
2454.3796435572131
 20
973.38356273415354
 10
2453.240129701313
 20
978.19484517925378
 10
2450.4546503283132
 20
984.65209314145375
 10
2448.8086848112134
 20
987.05773376855382
 10
2444.4270513238257
 20
991.68661164806508
 10
2433.6710803962337
 20
1000.591175675654
 10
2428.5506528993133
 20
1004.3530279878538
 10
2422.4479203854135
 20
1009.7973750094537
 10
2416.4971240844134
 20
1016.7610734419537
 10
2414.5979339276132
 20
1023.0917072979538
 10
2413.3318071564131
 20
1036.1328161376539
 10
2414.0157529354133
 20
1077.156436777854
 10
2413.0489791245136
 20
1082.7535453060539
 10
2411.3189646490132
 20
1087.5874119787538
 10
2408.9783554982132
 20
1091.5053884248539
 10
2406.3833319986134
 20
1094.7618878022538
 10
2400.6844586836132
 20
1099.4431049129539
 10
2394.7311698289136
 20
1102.6487218969539
 10
2389.6937723917135
 20
1104.378737563354
 10
2384.0457814701131
 20
1105.0402134411538
 10
2111.9745026114133
 20
1103.9095277269537
 10
2101.4234441999133
 20
1099.4253283486537
 10
2092.5429707812132
 20
1093.3584693154537
 10
2088.0587714029134
 20
1089.1380459508537
 10
2085.7727078539133
 20
1085.7089530091537
 10
2084.8889981271132
 20
1081.5763370833538
 10
2085.8642213735129
 20
1029.1082698605537
 10
2084.3255249830131
 20
1022.5871301133536
 10
2080.3688788230133
 20
1016.3590744288535
 10
2076.7053167257136
 20
1013.1351402119535
 10
2062.7024251370135
 20
1005.2906509485533
 10
2057.2607921765134
 20
1003.3472105204535
 10
2052.1725123459132
 20
1002.6051702576535
 10
2015.9681889078136
 20
1003.4947546941535
 10
2005.8567571858134
 20
1001.4724683497536
 10
1992.9317110783136
 20
996.37279041525358
 10
1987.9199584817136
 20
993.4712495009536
 10
1983.6995351171136
 20
990.04215536835363
 10
1980.6221435270136
 20
985.64588132795359
 10
1977.1051240565134
 20
979.22732094315359
 10
1976.0500188108135
 20
975.53444960595357
 10
1979.3932240445138
 20
723.15730912735353
 10
1982.0520905022138
 20
716.19361069485353
 10
1984.5843440446138
 20
712.01539163535358
 10
1987.8762738879136
 20
707.71055966055349
 10
1997.8786775240137
 20
701.50653752895357
 10
2004.5891501259136
 20
699.73396028745356
 10
2013.4520399061137
 20
698.84767107125356
 10
2030.0383032288137
 20
698.84767107125356
 10
2036.2423253604138
 20
699.98718492715352
 10
2086.0371745896132
 20
711.20952746885359
 10
2116.9898002576047
 20
717.00736708855027
 10
2137.6879747784133
 20
720.56199385725358
 10
2197.5186716884136
 20
734.94108361055362
 10
2217.1797876024134
 20
738.54358588305354
  0
LWPOLYLINE
  5
2C
330
1F
100
AcDbEntity
  8
0
 62
7
100
AcDbPolyline
 90
53
 70
1
 10
2034.9646331000004
 20
1.000025099999845
 10
2472.0660120046
 20
1.4446142697999489
 10
2476.0518316418998
 20
2.2502593106999531
 10
2481.9033545189
 20
4.1583645448999347
 10
2487.1188415239
 20
6.9145156235999226
 10
2490.6806376434997
 20
9.4586555389000164
 10
2493.7760082509
 20
12.978049664000022
 10
2496.3625501607
 20
17.939123511100036
 10
2498.4402657547
 20
24.494524260399942
 10
2498.9999756548
 20
30.803992250699991
 10
2498.6689755005509
 20
82.227578088929761
 10
2497.1219195588051
 20
128.85776648299458
 10
2491.4690695291083
 20
259.60896047533589
 10
2486.5472685372383
 20
414.41920220669982
 10
2484.6996969746078
 20
525.67378506992475
 10
2482.4189992437359
 20
591.28564575093958
 10
2479.9692436013997
 20
640.12293259830074
 10
2476.4444082542
 20
647.8481627538996
 10
2472.0481342138
 20
654.50363363930057
 10
2465.3926633284
 20
660.60957086510064
 10
2460.6300327209997
 20
663.84571657060076
 10
2446.7875327352
 20
671.68329623220063
 10
2410.1964633312
 20
701.81711886490064
 10
2402.7263144283997
 20
706.62840130999973
 10
2391.2045581905
 20
712.95903635690058
 10
2374.8715206983998
 20
718.6566080182007
 10
2360.9441238334
 20
722.45498833180056
 10
2333.3423619151254
 20
727.66955706904366
 10
2303.871271325851
 20
732.20805939944853
 10
2282.1910250885
 20
734.73642087060057
 10
2207.8271669285996
 20
734.69069983780048
 10
2197.8915870733
 20
733.72351873910054
 10
2187.9560072179997
 20
731.61330705680041
 10
2180.2185643829
 20
728.36006479090054
 10
2163.5127216002998
 20
717.28145316109942
 10
2153.6826749729739
 20
708.43053887032841
 10
2141.2465277369133
 20
695.90368223365851
 10
2095.8764333938648
 20
648.46405237429337
 10
2031.0962385845003
 20
581.63423588940043
 10
2025.1707643902002
 20
573.27779777039939
 10
2021.2204478637004
 20
565.52909973940052
 10
2014.9911024345004
 20
554.89363390860046
 10
2008.4528292415109
 20
537.26141495507534
 10
2006.1788592495004
 20
530.28012461760034
 10
2004.5075716257004
 20
514.63079472450033
 10
2005.0455440281003
 20
33.1172511920999
 10
2006.0835539043003
 20
26.156483564499858
 10
2008.7701659502004
 20
19.378894220399893
 10
2012.9222018823002
 20
13.334016819399887
 10
2016.3415270622004
 20
9.9757514642998828
 10
2022.5695815558004
 20
5.0910023981999162
 10
2027.2100937045004
 20
2.5875686357998657
 10
2031.4231894614004
 20
1.3663816669998694
  0
LWPOLYLINE
  5
2D
330
1F
100
AcDbEntity
  8
0
 62
7
100
AcDbPolyline
 90
16
 70
1
 10
2229.0343937765
 20
53.648215947799933
 10
2228.4904825881058
 20
56.382642145421407
 10
2226.9415545707902
 20
58.700776742090277
 10
2224.6234199741211
 20
60.249704759406079
 10
2221.8889937765
 20
60.793615947799921
 10
2219.1545675788784
 20
60.249704759406072
 10
2216.8364329822098
 20
58.70077674209027
 10
2215.2875049648937
 20
56.3826421454214
 10
2214.7435937765
 20
53.648215947799926
 10
2215.2875049648937
 20
50.913789750178452
 10
2216.8364329822098
 20
48.595655153509583
 10
2219.1545675788784
 20
47.04672713619378
 10
2221.8889937765002
 20
46.502815947799931
 10
2224.6234199741211
 20
47.046727136193788
 10
2226.9415545707902
 20
48.59565515350959
 10
2228.4904825881058
 20
50.913789750178459
  0
LWPOLYLINE
  5
2E
330
1F
100
AcDbEntity
  8
0
 62
7
100
AcDbPolyline
 90
66
 70
1
 10
2050.9475181000003
 20
1136.6963287106873
 10
2245.3528827328
 20
1134.1341121242874
 10
2257.8700515448004
 20
1132.9739849802875
 10
2277.5311674588
 20
1129.3714815168873
 10
2337.3618643688005
 20
1114.9923929544873
 10
2379.2303955468028
 20
1107.5713957626551
 10
2405.4843020357534
 20
1102.1302131676593
 10
2445.0115359184
 20
1093.2780701684874
 10
2461.5977992411003
 20
1093.2780701684874
 10
2470.4606890213004
 20
1094.1643593846875
 10
2477.1711616232
 20
1095.9369366261874
 10
2487.1735652593
 20
1102.1409587577873
 10
2490.4654951026005
 20
1106.4457907325873
 10
2492.9977486450002
 20
1110.6240097920875
 10
2495.6566151027
 20
1117.5877082245875
 10
2496.1630667639
 20
1124.4247937417874
 10
2498.9998215273
 20
1369.9648487031875
 10
2497.9447150907004
 20
1373.6577188494873
 10
2494.4276956202
 20
1380.0762792342873
 10
2491.3503040301002
 20
1384.4725544655873
 10
2487.1298806655004
 20
1387.9016474072873
 10
2478.9212967859571
 20
1392.1975937166055
 10
2469.1930819614004
 20
1395.9028674469873
 10
2459.0816502394
 20
1397.9251537913874
 10
2422.8773279922
 20
1397.0355681639874
 10
2417.7890469707004
 20
1397.7776096176874
 10
2409.3802428500258
 20
1401.2565349865554
 10
2398.3445224215
 20
1407.5655393091872
 10
2394.6809603242004
 20
1410.7894735260872
 10
2390.7243141642
 20
1417.0175280196875
 10
2389.1856177737004
 20
1423.5386689577874
 10
2390.1608410201006
 20
1476.0067361805875
 10
2389.2771312933
 20
1480.1393509154873
 10
2386.9910677443004
 20
1483.5684450480874
 10
2382.506868366
 20
1487.7888684126874
 10
2373.6263949473005
 20
1493.8557274458874
 10
2363.0753365358005
 20
1498.3399268241874
 10
2358.4885566042003
 20
1498.7942087290874
 10
2091.0040576771003
 20
1499.4706125383873
 10
2085.3560667555003
 20
1498.8091366605875
 10
2080.3186693183
 20
1497.0791209941874
 10
2074.3653804636
 20
1493.8735040101874
 10
2068.6665071486004
 20
1489.1922868994873
 10
2066.071483649
 20
1485.9357863311873
 10
2063.7308744982
 20
1482.0178110759873
 10
2062.0008600227
 20
1477.1839444032873
 10
2061.0340862118
 20
1471.5868358750874
 10
2061.7180331817003
 20
1430.5632152348874
 10
2060.4519052196
 20
1417.5221063951874
 10
2058.5527150628004
 20
1411.1914713482872
 10
2052.6019187618003
 20
1404.2277729157875
 10
2043.3406768468387
 20
1396.4783906265068
 10
2033.214968053021
 20
1388.4332973802955
 10
2029.1532466243004
 20
1384.7800627090876
 10
2024.5951900098005
 20
1379.0824910477875
 10
2021.8097106368004
 20
1372.6252442764874
 10
2020.6701955900005
 20
1367.8139618313874
 10
2020.0371322044005
 20
1360.7236504835873
 10
2018.6788655002006
 20
1161.9006565915874
 10
2019.1966485749003
 20
1158.4945218200874
 10
2020.6010138272006
 20
1154.8309597227874
 10
2022.7380922135005
 20
1150.8621008832874
 10
2025.0583476924005
 20
1147.6870138116874
 10
2030.7368685264005
 20
1143.4128582299873
 10
2038.0639927210007
 20
1139.8103559574874
 10
2046.4901842348006
 20
1137.4901004785872
  0
ENDSEC
  0
SECTION
  2
OBJECTS
  0
DICTIONARY
  5
C
330
0
100
AcDbDictionary
280
0
281
1
  3
ACAD_SCALELIST
350
34
  3
ACAD_COLOR
350
46
  3
ACAD_FIELDLIST
350
47
  3
ACAD_GROUP
350
D
  3
ACAD_IMAGE_DICT
350
48
  3
ACAD_LAYOUT
350
1A
  3
ACAD_MATERIAL
350
49
  3
ACAD_MLEADERSTYLE
350
4A
  3
ACAD_MLINESTYLE
350
17
  3
ACAD_PLOTSETTINGS
350
19
  3
ACAD_PLOTSTYLENAME
350
E
  3
ACAD_TABLESTYLE
350
4C
  3
ACDB_RECOMPOSE_DATA
350
50
  3
AcDbVariableDictionary
350
51
  3
ACAD_VISUALSTYLE
350
54
  3
DWGPROPS
350
55
  0
DICTIONARY
  5
4E
330
4D
100
AcDbDictionary
280
0
281
1
  3
ACAD_ROUNDTRIP_2008_TABLESTYLE_CELLSTYLEMAP
360
4F
  0
DICTIONARY
  5
34
102
{ACAD_REACTORS
330
C
102
}
330
C
100
AcDbDictionary
280
0
281
1
  0
DICTIONARY
  5
46
102
{ACAD_REACTORS
330
C
102
}
330
C
100
AcDbDictionary
280
0
281
1
  0
FIELDLIST
  5
47
102
{ACAD_REACTORS
330
C
102
}
330
C
100
AcDbIdSet
100
AcDbFieldList
  0
DICTIONARY
  5
D
102
{ACAD_REACTORS
330
C
102
}
330
C
100
AcDbDictionary
280
0
281
1
  0
DICTIONARY
  5
48
102
{ACAD_REACTORS
330
C
102
}
330
C
100
AcDbDictionary
280
0
281
1
  0
DICTIONARY
  5
1A
102
{ACAD_REACTORS
330
C
102
}
330
C
100
AcDbDictionary
280
0
281
1
  3
Layout1
350
1E
  3
Model
350
22
  0
DICTIONARY
  5
49
102
{ACAD_REACTORS
330
C
102
}
330
C
100
AcDbDictionary
280
0
281
1
  0
DICTIONARY
  5
4A
102
{ACAD_REACTORS
330
C
102
}
330
C
100
AcDbDictionary
280
0
281
1
  3
Standard
350
4B
  0
DICTIONARY
  5
17
102
{ACAD_REACTORS
330
C
102
}
330
C
100
AcDbDictionary
280
0
281
1
  3
STANDARD
350
18
  0
DICTIONARY
  5
19
102
{ACAD_REACTORS
330
C
102
}
330
C
100
AcDbDictionary
280
0
281
1
  0
ACDBDICTIONARYWDFLT
  5
E
102
{ACAD_REACTORS
330
C
102
}
330
C
100
AcDbDictionary
280
0
281
1
  3
Normal
350
F
100
AcDbDictionaryWithDefault
340
F
  0
ACDBPLACEHOLDER
  5
F
102
{ACAD_REACTORS
330
E
102
}
330
E
  0
DICTIONARY
  5
4C
102
{ACAD_REACTORS
330
C
102
}
330
C
100
AcDbDictionary
280
0
281
1
  3
Standard
350
4D
  0
XRECORD
  5
50
102
{ACAD_REACTORS
330
C
102
}
330
C
100
AcDbXrecord
280
1
 90
1
330
4D
  0
DICTIONARY
  5
51
102
{ACAD_REACTORS
330
C
102
}
330
C
100
AcDbDictionary
280
0
281
1
  3
DIMASSOC
350
52
  3
HIDETEXT
350
53
  0
DICTIONARY
  5
54
102
{ACAD_REACTORS
330
C
102
}
330
C
100
AcDbDictionary
280
0
281
1
  0
XRECORD
  5
55
102
{ACAD_REACTORS
330
C
102
}
330
C
100
AcDbXrecord
280
0
  1
DWGPROPS COOKIE
  2

  3

  4

  6

  7

  8

  9

300
=
301
=
302
=
303
=
304
=
305
=
306
=
307
=
308
=
309
=
 40
0
 41
2460962.9821715741
 42
2460962.9821715741
  1

 90
0
  0
CELLSTYLEMAP
  5
4F
102
{ACAD_REACTORS
330
4E
102
}
330
4E
100
AcDbCellStyleMap
 90
3
300
CELLSTYLE
  1
TABLEFORMAT_BEGIN
 90
5
170
0
309
TABLEFORMAT_END
  1
CELLSTYLE_BEGIN
 90
3
 91
2
300
_DATA
309
CELLSTYLE_END
300
CELLSTYLE
  1
TABLEFORMAT_BEGIN
 90
5
170
0
309
TABLEFORMAT_END
  1
CELLSTYLE_BEGIN
 90
1
 91
2
300
_TITLE
309
CELLSTYLE_END
300
CELLSTYLE
  1
TABLEFORMAT_BEGIN
 90
5
170
0
309
TABLEFORMAT_END
  1
CELLSTYLE_BEGIN
 90
2
 91
2
300
_HEADER
309
CELLSTYLE_END
  0
LAYOUT
  5
1E
102
{ACAD_REACTORS
330
1A
102
}
330
1A
100
AcDbPlotSettings
  1

  2
C:\Program Files\AutoCAD 2002\plotters\DWF ePlot (optimized for plotting).pc3
  4

  6

 40
0
 41
0
 42
0
 43
0
 44
0
 45
0
 46
0
 47
0
 48
0
 49
0
140
0
141
0
142
1
143
1
 70
688
 72
1
 73
1
 74
1
  7
acad.stb
 75
16
 76
0
 77
0
 78
0
147
1
148
0
149
0
100
AcDbLayout
  1
Layout1
 70
1
 71
1
 10
0
 20
0
 11
420
 21
297
 12
0
 22
0
 32
0
 14
0
 24
0
 34
0
 15
0
 25
0
 35
0
146
0
 13
0
 23
0
 33
0
 16
1
 26
0
 36
0
 17
0
 27
1
 37
0
 76
0
330
2F
  0
LAYOUT
  5
22
102
{ACAD_REACTORS
330
1A
102
}
330
1A
100
AcDbPlotSettings
  1

  2
C:\Program Files\AutoCAD 2002\plotters\DWF ePlot (optimized for plotting).pc3
  4

  6

 40
0
 41
0
 42
0
 43
0
 44
0
 45
0
 46
0
 47
0
 48
0
 49
0
140
0
141
0
142
1
143
1
 70
1712
 72
1
 73
1
 74
0
  7
acad.stb
 75
0
 76
0
 77
0
 78
0
147
1
148
0
149
0
100
AcDbLayout
  1
Model
 70
1
 71
0
 10
0
 20
0
 11
12
 21
9
 12
0
 22
0
 32
0
 14
0
 24
0
 34
0
 15
0
 25
0
 35
0
146
0
 13
0
 23
0
 33
0
 16
1
 26
0
 36
0
 17
0
 27
1
 37
0
 76
0
330
1F
  0
MLEADERSTYLE
  5
4B
102
{ACAD_REACTORS
330
4A
102
}
330
4A
100
AcDbMLeaderStyle
170
2
171
1
172
0
 90
2
 40
0
 41
0
173
1
 91
0
340
0
 92
-2
290
1
 42
0.09
292
1
 43
0.36
  3
Standard
341
0
 44
0.18
300

342
0
174
1
178
1
175
1
176
0
 93
0
 45
0.18
292
0
297
0
 46
0
343
0
 94
0
 47
1
 49
1
140
1
293
1
141
0
294
1
177
0
142
1
295
0
296
0
143
0.125
  0
MLINESTYLE
  5
18
102
{ACAD_REACTORS
330
17
102
}
330
17
100
AcDbMlineStyle
  2
STANDARD
 70
0
  3

 51
90
 52
90
 71
2
 49
0.5
 62
0
  6
ByLayer
 49
-0.5
 62
0
  6
ByLayer
  0
TABLESTYLE
  5
4D
102
{ACAD_XDICTIONARY
360
4E
102
}
102
{ACAD_REACTORS
330
4C
102
}
330
4C
100
AcDbTableStyle
  3

 70
0
 71
0
 40
0.06
 41
0.06
280
0
281
0
  7
Standard
140
0.18
170
1
 62
0
283
0
 90
512
 91
0
274
-2
284
1
 64
0
275
-2
285
1
 65
0
276
-2
286
1
 66
0
277
-2
287
1
 67
0
278
-2
288
1
 68
0
279
-2
289
1
 69
0
  7
Standard
140
0.18
170
1
 62
0
283
0
 90
512
 91
0
274
-2
284
1
 64
0
275
-2
285
1
 65
0
276
-2
286
1
 66
0
277
-2
287
1
 67
0
278
-2
288
1
 68
0
279
-2
289
1
 69
0
  7
Standard
140
0.18
170
1
 62
0
283
0
 90
512
 91
0
274
-2
284
1
 64
0
275
-2
285
1
 65
0
276
-2
286
1
 66
0
277
-2
287
1
 67
0
278
-2
288
1
 68
0
279
-2
289
1
 69
0
  0
DICTIONARYVAR
  5
52
102
{ACAD_REACTORS
330
51
102
}
330
51
100
DictionaryVariables
280
0
  1
1
  0
DICTIONARYVAR
  5
53
102
{ACAD_REACTORS
330
51
102
}
330
51
100
DictionaryVariables
280
0
  1
2
  0
ENDSEC
999
Created By CadLib version 4.0.38.30
999
CadLib website: www.woutware.com
  0
EOF
