  0
SECTION
  2
HEADER
  9
$ACADVER
  1
AC1015
  9
$DWGCODEPAGE
  3
ansi_1252
  9
$INSBASE
 10
0
 20
0
 30
0
  9
$EXTMIN
 10
2062.1200410970705
 20
184.17885265523881
 30
0
  9
$EXTMAX
 10
2499.0000003294927
 20
1998.9999771000003
 30
0
  9
$LIMMIN
 10
0
 20
0
  9
$LIMMAX
 10
12
 20
9
  9
$SNAPMODE
 70
0
  9
$SNAPUNIT
 10
1
 20
1
  9
$SNAPBASE
 10
0
 20
0
  9
$SNAPANG
 50
0
  9
$SNAPSTYLE
 70
0
  9
$SNAPISOPAIR
 70
0
  9
$ORTHOMODE
 70
0
  9
$REGENMODE
 70
1
  9
$FILLMODE
 70
1
  9
$QTEXTMODE
 70
0
  9
$MIRRTEXT
 70
1
  9
$LTSCALE
 40
1
  9
$OSMODE
 70
0
  9
$ATTMODE
 70
1
  9
$TEXTSIZE
 40
0.2
  9
$TRACEWID
 40
0.05
  9
$TEXTSTYLE
  7
Standard
  9
$CLAYER
  8
0
  9
$CELTYPE
  6
ByLayer
  9
$CECOLOR
 62
256
  9
$CELTSCALE
 40
1
  9
$DISPSILH
 70
0
  9
$DIMSCALE
 40
1
  9
$DIMASZ
 40
0.18
  9
$DIMEXO
 40
0.0625
  9
$DIMDLI
 40
0.38
  9
$DIMRND
 40
0
  9
$DIMDLE
 40
0
  9
$DIMEXE
 40
0.18
  9
$DIMTP
 40
0
  9
$DIMTM
 40
0
  9
$DIMTXT
 40
0.18
  9
$DIMCEN
 40
0.09
  9
$DIMTSZ
 40
0
  9
$DIMTOL
 70
0
  9
$DIMLIM
 70
0
  9
$DIMTIH
 70
1
  9
$DIMTOH
 70
1
  9
$DIMSE1
 70
0
  9
$DIMSE2
 70
0
  9
$DIMTAD
 70
0
  9
$DIMZIN
 70
0
  9
$DIMBLK
  1

  9
$DIMASO
 70
1
  9
$DIMSHO
 70
1
  9
$DIMPOST
  1

  9
$DIMAPOST
  1

  9
$DIMALT
 70
0
  9
$DIMALTD
 70
2
  9
$DIMALTF
 40
0.03937007874015748
  9
$DIMLFAC
 40
1
  9
$DIMTOFL
 70
0
  9
$DIMTVP
 40
0
  9
$DIMTIX
 70
0
  9
$DIMSOXD
 70
0
  9
$DIMSAH
 70
0
  9
$DIMBLK1
  1

  9
$DIMBLK2
  1

  9
$DIMSTYLE
  2
Standard
  9
$DIMCLRD
 70
0
  9
$DIMCLRE
 70
0
  9
$DIMCLRT
 70
0
  9
$DIMTFAC
 40
1
  9
$DIMGAP
 40
0.09
  9
$DIMJUST
 70
0
  9
$DIMSD1
 70
0
  9
$DIMSD2
 70
0
  9
$DIMTOLJ
 70
1
  9
$DIMTZIN
 70
0
  9
$DIMALTZ
 70
0
  9
$DIMALTTZ
 70
0
  9
$DIMUPT
 70
0
  9
$DIMDEC
 70
4
  9
$DIMTDEC
 70
4
  9
$DIMALTU
 70
2
  9
$DIMALTTD
 70
0
  9
$DIMTXSTY
  7
Standard
  9
$DIMAUNIT
 70
0
  9
$DIMADEC
 70
0
  9
$DIMALTRND
 40
0
  9
$DIMAZIN
 70
0
  9
$DIMDSEP
 70
46
  9
$DIMATFIT
 70
0
  9
$DIMFRAC
 70
0
  9
$DIMLDRBLK
  1

  9
$DIMLUNIT
 70
2
  9
$DIMLWD
 70
-2
  9
$DIMLWE
 70
-2
  9
$LUNITS
 70
2
  9
$LUPREC
 70
4
  9
$SKETCHINC
 40
0.1
  9
$FILLETRAD
 40
0
  9
$AUNITS
 70
0
  9
$AUPREC
 70
0
  9
$MENU
  1
.
  9
$ELEVATION
 40
0
  9
$PELEVATION
 40
0
  9
$THICKNESS
 40
0
  9
$LIMCHECK
 70
0
  9
$CHAMFERA
 40
0.5
  9
$CHAMFERB
 40
0.5
  9
$CHAMFERC
 40
0
  9
$CHAMFERD
 40
0
  9
$SKPOLY
 70
0
  9
$TDCREATE
 40
2460962.9531394327
  9
$TDUCREATE
 40
2460962.9114727662
  9
$TDUPDATE
 40
2460962.9531394327
  9
$TDUUPDATE
 40
2460962.9114727662
  9
$TDINDWG
 40
0
  9
$TDUSRTIMER
 40
1.1574074074074074E-08
  9
$USRTIMER
 70
1
  9
$ANGBASE
 50
0
  9
$ANGDIR
 70
1
  9
$PDMODE
 70
0
  9
$PDSIZE
 40
0
  9
$PLINEWID
 40
0
  9
$SPLFRAME
 70
0
  9
$SPLINETYPE
 70
6
  9
$SPLINESEGS
 70
8
  9
$HANDSEED
  5
8D
  9
$SURFTAB1
 70
6
  9
$SURFTAB2
 70
6
  9
$SURFTYPE
 70
6
  9
$SURFU
 70
6
  9
$SURFV
 70
6
  9
$UCSORG
 10
0
 20
0
 30
0
  9
$UCSXDIR
 10
1
 20
0
 30
0
  9
$UCSYDIR
 10
0
 20
1
 30
0
  9
$UCSORTHOREF
  2

  9
$UCSORTHOVIEW
 70
0
  9
$UCSORGTOP
 10
0
 20
0
 30
0
  9
$UCSORGBOTTOM
 10
0
 20
0
 30
0
  9
$UCSORGLEFT
 10
0
 20
0
 30
0
  9
$UCSORGRIGHT
 10
0
 20
0
 30
0
  9
$UCSORGFRONT
 10
0
 20
0
 30
0
  9
$UCSORGBACK
 10
0
 20
0
 30
0
  9
$PUCSORG
 10
0
 20
0
 30
0
  9
$PUCSXDIR
 10
1
 20
0
 30
0
  9
$PUCSYDIR
 10
0
 20
1
 30
0
  9
$PUCSORTHOREF
  2

  9
$PUCSORTHOVIEW
 70
0
  9
$PUCSORGTOP
 10
0
 20
0
 30
0
  9
$PUCSORGBOTTOM
 10
0
 20
0
 30
0
  9
$PUCSORGLEFT
 10
0
 20
0
 30
0
  9
$PUCSORGRIGHT
 10
0
 20
0
 30
0
  9
$PUCSORGFRONT
 10
0
 20
0
 30
0
  9
$PUCSORGBACK
 10
0
 20
0
 30
0
  9
$USERI1
 70
0
  9
$USERI2
 70
0
  9
$USERI3
 70
0
  9
$USERI4
 70
0
  9
$USERI5
 70
0
  9
$USERR1
 40
0
  9
$USERR2
 40
0
  9
$USERR3
 40
0
  9
$USERR4
 40
0
  9
$USERR5
 40
0
  9
$WORLDVIEW
 70
1
  9
$SHADEDGE
 70
3
  9
$SHADEDIF
 70
70
  9
$TILEMODE
 70
1
  9
$MAXACTVP
 70
48
  9
$PINSBASE
 10
0
 20
0
 30
0
  9
$PLIMCHECK
 70
0
  9
$PEXTMIN
 10
1E+20
 20
1E+20
 30
1E+20
  9
$PEXTMAX
 10
-1E+20
 20
-1E+20
 30
-1E+20
  9
$PLIMMAX
 10
0
 20
0
  9
$PLIMMIN
 10
0
 20
0
  9
$UNITMODE
 70
0
  9
$VISRETAIN
 70
1
  9
$PLINEGEN
 70
1
  9
$PSLTSCALE
 70
1
  9
$TREEDEPTH
 70
3020
  9
$CMLSTYLE
  2
STANDARD
  9
$CMLJUST
 70
0
  9
$CMLSCALE
 40
1
  9
$PROXYGRAPHICS
 70
1
  9
$MEASUREMENT
 70
1
  9
$CELWEIGHT
370
-1
  9
$ENDCAPS
280
0
  9
$JOINSTYLE
280
0
  9
$LWDISPLAY
290
1
  9
$INSUNITS
 70
4
  9
$HYPERLINKBASE
  1

  9
$XEDIT
290
1
  9
$CEPSNTYPE
380
0
  9
$PSTYLEMODE
290
0
  9
$FINGERPRINTGUID
  2

  9
$VERSIONGUID
  2

  9
$EXTNAMES
290
1
  9
$PSVPSCALE
 40
0
  9
$CSHADOW
280
0
  9
$SHADOWPLANELOCATION
 40
0
  0
ENDSEC
  0
SECTION
  2
CLASSES
  0
CLASS
  1
RASTERVARIABLES
  2
AcDbRasterVariables
  3
ISM
 90
0
280
0
281
0
  0
CLASS
  1
IMAGEDEF
  2
AcDbRasterImageDef
  3
ISM
 90
0
280
0
281
0
  0
CLASS
  1
IMAGEDEF_REACTOR
  2
AcDbRasterImageDefReactor
  3
ISM
 90
1
280
0
281
0
  0
CLASS
  1
IMAGE
  2
AcDbRasterImage
  3
ISM
 90
127
280
0
281
1
  0
CLASS
  1
ACAD_EVALUATION_GRAPH
  2
AcDbEvalGraph
  3
ObjectDBX Classes
 90
1153
280
0
281
0
  0
CLASS
  1
BLOCKPOINTPARAMETER
  2
AcDbBlockPointParameter
  3
ObjectDBX Classes
 90
1153
280
0
281
0
  0
CLASS
  1
BLOCKBASEPOINTPARAMETER
  2
AcDbBlockBasepointParameter
  3
ObjectDBX Classes
 90
1153
280
0
281
0
  0
CLASS
  1
BLOCKLOOKUPPARAMETER
  2
AcDbBlockLookupParameter
  3
ObjectDBX Classes
 90
1153
280
0
281
0
  0
CLASS
  1
BLOCKVISIBILITYPARAMETER
  2
AcDbBlockVisibilityParameter
  3
ObjectDBX Classes
 90
1153
280
0
281
0
  0
CLASS
  1
BLOCKPROPERTIESTABLE
  2
AcDbBlockPropertiesTable
  3
ObjectDBX Classes
 90
1153
280
0
281
0
  0
CLASS
  1
BLOCKPOLARPARAMETER
  2
AcDbBlockPolarParameter
  3
ObjectDBX Classes
 90
1153
280
0
281
0
  0
CLASS
  1
BLOCKROTATIONPARAMETER
  2
AcDbBlockRotationParameter
  3
ObjectDBX Classes
 90
1153
280
0
281
0
  0
CLASS
  1
BLOCKLINEARPARAMETER
  2
AcDbBlockLinearParameter
  3
ObjectDBX Classes
 90
1153
280
0
281
0
  0
CLASS
  1
BLOCKXYPARAMETER
  2
AcDbBlockXYParameter
  3
ObjectDBX Classes
 90
1153
280
0
281
0
  0
CLASS
  1
BLOCKFLIPPARAMETER
  2
AcDbBlockFlipParameter
  3
ObjectDBX Classes
 90
1153
280
0
281
0
  0
CLASS
  1
BLOCKALIGNMENTPARAMETER
  2
AcDbBlockAlignmentParameter
  3
ObjectDBX Classes
 90
1153
280
0
281
0
  0
CLASS
  1
BLOCKROTATEACTION
  2
AcDbBlockRotateAction
  3
ObjectDBX Classes
 90
1153
280
0
281
0
  0
CLASS
  1
BLOCKSCALEACTION
  2
AcDbBlockScaleAction
  3
ObjectDBX Classes
 90
1153
280
0
281
0
  0
CLASS
  1
BLOCKARRAYACTION
  2
AcDbBlockArrayAction
  3
ObjectDBX Classes
 90
1153
280
0
281
0
  0
CLASS
  1
BLOCKFLIPACTION
  2
AcDbBlockFlipAction
  3
ObjectDBX Classes
 90
1153
280
0
281
0
  0
CLASS
  1
BLOCKLOOKUPACTION
  2
AcDbBlockLookupAction
  3
ObjectDBX Classes
 90
1153
280
0
281
0
  0
CLASS
  1
BLOCKMOVEACTION
  2
AcDbBlockMoveAction
  3
ObjectDBX Classes
 90
1153
280
0
281
0
  0
CLASS
  1
BLOCKPOLARSTRETCHACTION
  2
AcDbBlockPolarStretchAction
  3
ObjectDBX Classes
 90
1153
280
0
281
0
  0
CLASS
  1
BLOCKSTRETCHACTION
  2
AcDbBlockStretchAction
  3
ObjectDBX Classes
 90
1153
280
0
281
0
  0
CLASS
  1
BLOCKALIGNMENTGRIP
  2
AcDbBlockAlignmentGrip
  3
ObjectDBX Classes
 90
1153
280
0
281
0
  0
CLASS
  1
BLOCKFLIPGRIP
  2
AcDbBlockFlipGrip
  3
ObjectDBX Classes
 90
1153
280
0
281
0
  0
CLASS
  1
ACDB_BLOCKREPRESENTATION_DATA
  2
AcDbBlockRepresentationData
  3
ObjectDBX Classes
 90
1153
280
0
281
0
  0
CLASS
  1
ACDB_DYNAMICBLOCKPURGEPREVENTER_VERSION
  2
AcDbDynamicBlockPurgePreventer
  3
ObjectDBX Classes
 90
1153
280
0
281
0
  0
CLASS
  1
BLOCKLINEARGRIP
  2
AcDbBlockLinearGrip
  3
ObjectDBX Classes
 90
1153
280
0
281
0
  0
CLASS
  1
BLOCKLOOKUPGRIP
  2
AcDbBlockLookupGrip
  3
ObjectDBX Classes
 90
1153
280
0
281
0
  0
CLASS
  1
BLOCKPOLARGRIP
  2
AcDbBlockPolarGrip
  3
ObjectDBX Classes
 90
1153
280
0
281
0
  0
CLASS
  1
BLOCKPROPERTIESTABLEGRIP
  2
AcDbBlockPropertiesTableGrip
  3
ObjectDBX Classes
 90
1153
280
0
281
0
  0
CLASS
  1
BLOCKROTATIONGRIP
  2
AcDbBlockRotationGrip
  3
ObjectDBX Classes
 90
1153
280
0
281
0
  0
CLASS
  1
BLOCKVISIBILITYGRIP
  2
AcDbBlockVisibilityGrip
  3
ObjectDBX Classes
 90
1153
280
0
281
0
  0
CLASS
  1
BLOCKXYGRIP
  2
AcDbBlockXYGrip
  3
ObjectDBX Classes
 90
1153
280
0
281
0
  0
CLASS
  1
BLOCKGRIPLOCATIONCOMPONENT
  2
AcDbBlockGripExpr
  3
ObjectDBX Classes
 90
1153
280
0
281
0
  0
CLASS
  1
ACDB_DYNAMICBLOCKPROXYNODE
  2
AcDbDynamicBlockProxyNode
  3
ObjectDBX Classes
 90
1153
280
0
281
0
  0
CLASS
  1
BLOCKLINEARCONSTRAINTPARAMETER
  2
AcDbBlockLinearConstraintParameter
  3
ObjectDBX Classes
 90
1153
280
0
281
0
  0
CLASS
  1
BLOCKHORIZONTALCONSTRAINTPARAMETER
  2
AcDbBlockHorizontalConstraintParameter
  3
ObjectDBX Classes
 90
1153
280
0
281
0
  0
CLASS
  1
BLOCKVERTICALCONSTRAINTPARAMETER
  2
AcDbBlockVerticalConstraintParameter
  3
ObjectDBX Classes
 90
1153
280
0
281
0
  0
CLASS
  1
BLOCKALIGNEDCONSTRAINTPARAMETER
  2
AcDbBlockAlignedConstraintParameter
  3
ObjectDBX Classes
 90
1153
280
0
281
0
  0
CLASS
  1
BLOCKANGULARCONSTRAINTPARAMETER
  2
AcDbBlockAngularConstraintParameter
  3
ObjectDBX Classes
 90
1153
280
0
281
0
  0
CLASS
  1
BLOCKDIAMETRICCONSTRAINTPARAMETER
  2
AcDbBlockDiametricConstraintParameter
  3
ObjectDBX Classes
 90
1153
280
0
281
0
  0
CLASS
  1
BLOCKRADIALCONSTRAINTPARAMETER
  2
AcDbBlockRadialConstraintParameter
  3
ObjectDBX Classes
 90
1153
280
0
281
0
  0
ENDSEC
  0
SECTION
  2
TABLES
  0
TABLE
  2
VPORT
  5
8
330
0
100
AcDbSymbolTable
 70
1
  0
VPORT
  5
68
330
8
100
AcDbSymbolTableRecord
100
AcDbViewportTableRecord
  2
*Active
 70
64
 10
0
 20
0
 11
1
 21
1
 12
2280.5600207132816
 22
1091.5894148776194
 13
0
 23
0
 14
1
 24
1
 15
0
 25
0
 16
0
 26
0
 36
1
 17
0
 27
0
 37
0
 40
1814.8211244447614
 41
0.24072893650391256
 42
50
 43
0
 44
0
 50
0
 51
0
 71
0
 72
20000
 73
20000
 74
1
 75
0
 76
0
 77
0
 78
0
281
0
 65
1
110
0
120
0
130
0
111
1
121
0
131
0
112
0
122
1
132
0
 79
0
146
0
  0
ENDTAB
  0
TABLE
  2
LTYPE
  5
5
100
AcDbSymbolTable
 70
3
  0
LTYPE
  5
16
330
5
100
AcDbSymbolTableRecord
100
AcDbLinetypeTableRecord
  2
Continuous
  3
Solid line
 70
64
 72
65
 73
0
 40
0
  0
LTYPE
  5
14
330
5
100
AcDbSymbolTableRecord
100
AcDbLinetypeTableRecord
  2
ByBlock
  3

 70
64
 72
65
 73
0
 40
0
  0
LTYPE
  5
15
330
5
100
AcDbSymbolTableRecord
100
AcDbLinetypeTableRecord
  2
ByLayer
  3

 70
64
 72
65
 73
0
 40
0
  0
ENDTAB
  0
TABLE
  2
LAYER
  5
2
100
AcDbSymbolTable
 70
6
  0
LAYER
  5
10
330
2
100
AcDbSymbolTableRecord
100
AcDbLayerTableRecord
 70
64
  2
0
 62
7
  6
Continuous
370
-3
390
F
  0
LAYER
  5
27
330
2
100
AcDbSymbolTableRecord
100
AcDbLayerTableRecord
 70
64
  2
1
 62
7
  6
Continuous
370
-3
390
F
  0
LAYER
  5
28
330
2
100
AcDbSymbolTableRecord
100
AcDbLayerTableRecord
 70
64
  2
11
 62
7
  6
Continuous
370
-3
390
F
  0
LAYER
  5
29
330
2
100
AcDbSymbolTableRecord
100
AcDbLayerTableRecord
 70
64
  2
2
 62
7
  6
Continuous
370
-3
390
F
  0
LAYER
  5
2A
330
2
100
AcDbSymbolTableRecord
100
AcDbLayerTableRecord
 70
64
  2
3
 62
7
  6
Continuous
370
-3
390
F
  0
LAYER
  5
2B
330
2
100
AcDbSymbolTableRecord
100
AcDbLayerTableRecord
 70
64
  2
DEFPOINTS
 62
7
  6
Continuous
290
0
370
-3
390
F
  0
ENDTAB
  0
TABLE
  2
STYLE
  5
3
100
AcDbSymbolTable
 70
1
  0
STYLE
  5
11
330
3
100
AcDbSymbolTableRecord
100
AcDbTextStyleTableRecord
  2
Standard
 70
64
 40
0
 41
1
 50
0
 71
0
 42
0.2
  3
txt.shx
  0
ENDTAB
  0
TABLE
  2
VIEW
  5
6
100
AcDbSymbolTable
 70
0
  0
ENDTAB
  0
TABLE
  2
UCS
  5
7
100
AcDbSymbolTable
 70
0
  0
ENDTAB
  0
TABLE
  2
APPID
  5
9
330
0
100
AcDbSymbolTable
 70
2
  0
APPID
  5
12
330
0
100
AcDbSymbolTableRecord
100
AcDbRegAppTableRecord
  2
ACAD
 70
64
  0
APPID
  5
8B
330
0
100
AcDbSymbolTableRecord
100
AcDbRegAppTableRecord
  2
ACAD_MLEADERVER
 70
64
  0
ENDTAB
  0
TABLE
  2
DIMSTYLE
  5
A
330
0
100
AcDbSymbolTable
 70
1
100
AcDbDimStyleTable
 71
0
  0
DIMSTYLE
105
67
330
A
100
AcDbSymbolTableRecord
100
AcDbDimStyleTableRecord
  2
Standard
 70
64
  3

  4

 40
1
 41
0.18
 42
0.0625
 43
0.38
 44
0.18
 45
0
 46
0
 47
0
 48
0
140
0.18
141
0.09
142
0
143
1
144
1
145
0
146
1
147
0.09
148
0
 71
0
 72
0
 73
1
 74
1
 75
0
 76
0
 77
0
 78
0
 79
0
170
0
171
2
172
0
173
0
174
0
175
0
179
0
271
4
272
4
273
2
274
0
275
0
276
0
277
2
278
46
279
0
280
0
281
0
282
0
283
1
284
0
285
0
286
0
288
0
289
0
340
11
371
-2
372
-2
  0
ENDTAB
  0
TABLE
  2
BLOCK_RECORD
  5
1
330
0
100
AcDbSymbolTable
 70
3
  0
BLOCK_RECORD
  5
1F
330
1
100
AcDbSymbolTableRecord
100
AcDbBlockTableRecord
  2
*Model_Space
340
22
  0
BLOCK_RECORD
  5
64
330
1
100
AcDbSymbolTableRecord
100
AcDbBlockTableRecord
  2
*Paper_Space
340
1E
  0
ENDTAB
  0
ENDSEC
  0
SECTION
  2
BLOCKS
  0
BLOCK
  5
20
330
1F
100
AcDbEntity
  8
0
100
AcDbBlockBegin
  2
*Model_Space
 70
64
 10
0
 20
0
 30
0
  3
*Model_Space
  0
ENDBLK
  5
21
330
1F
100
AcDbEntity
  8
0
100
AcDbBlockEnd
  0
BLOCK
  5
65
330
64
100
AcDbEntity
  8
0
 67
1
100
AcDbBlockBegin
  2
*Paper_Space
 70
64
 10
0
 20
0
 30
0
  3
*Paper_Space
  0
ENDBLK
  5
66
330
64
100
AcDbEntity
  8
0
100
AcDbBlockEnd
  0
ENDSEC
  0
SECTION
  2
ENTITIES
  0
LWPOLYLINE
  5
2C
330
1F
100
AcDbEntity
  8
1
 62
7
100
AcDbPolyline
 90
54
 70
1
 10
2111.6499940999997
 20
1998.9999771000003
 10
2103.7760011800779
 20
1997.9839706302737
 10
2100.2200166830075
 20
1996.7139816166018
 10
2097.1719972738279
 20
1994.935951221094
 10
2093.6160127767575
 20
1991.8879318119143
 10
2090.3140108236325
 20
1987.5699233890628
 10
2087.7740327962888
 20
1982.4899673343753
 10
2086.2499849447263
 20
1976.6479873539065
 10
2081.4240114339846
 20
1764.3039703250979
 10
2074.1542310398954
 20
1675.3645231303244
 10
2071.0100404867189
 20
1645.9399413944338
 10
2064.6600191244142
 20
1598.69594572793
 10
2063.1359712728517
 20
1576.3439559818362
 10
2062.1200410970705
 20
1557.8019714237307
 10
2062.3740236410158
 20
1550.6899642826174
 10
2063.3900301107424
 20
1543.3239555240725
 10
2065.9300081380861
 20
1537.4819564701174
 10
2071.7719881185549
 20
1528.8459586979006
 10
2078.8840334066408
 20
1522.7499580265139
 10
2087.012008870508
 20
1518.9399528385256
 10
2091.5839998373049
 20
1517.6699447513674
 10
2096.4099733480471
 20
1516.9079589725588
 10
2371.491989339258
 20
1516.1459541202639
 10
2377.5879900106447
 20
1516.9079589725588
 10
2383.1759874471682
 20
1518.9399528385256
 10
2386.2240068563478
 20
1520.7179450870608
 10
2389.0180055746096
 20
1523.5119628788088
 10
2396.1300127157228
 20
1532.6559448124026
 10
2399.4320146688478
 20
1538.497962939844
 10
2401.9719926961916
 20
1545.6099700809573
 10
2403.4960024007814
 20
1552.2139358402346
 10
2406.2900011190432
 20
1570.5019378543948
 10
2407.814010823633
 20
1577.1059417606448
 10
2410.1000063070314
 20
1583.9639663578128
 10
2416.9579927572267
 20
1596.9179534793948
 10
2426.1020128377932
 20
1610.37994383584
 10
2439.9232175351517
 20
1627.3530882505977
 10
2459.3760149129885
 20
1649.4959640384768
 10
2465.2179948934572
 20
1655.3379440189456
 10
2483.5059969076174
 20
1672.8639602542971
 10
2488.5859911092775
 20
1678.9599609256838
 10
2492.1420137533205
 20
1685.0559615970706
 10
2496.4600221761721
 20
1697.7559661747073
 10
2497.9839937337892
 20
1704.6139526249026
 10
2499.0000002035158
 20
1711.7259597660159
 10
2498.4919969686525
 20
1763.2879638553713
 10
2497.4759904989255
 20
1971.0599899173831
 10
2495.444015706445
 20
1977.9179763675784
 10
2493.4120027669919
 20
1981.727943408594
 10
2490.3640215047849
 20
1985.5379867435549
 10
2486.5540163167966
 20
1989.0939712406253
 10
2477.6640169271482
 20
1994.935951221094
 10
2472.8380052694333
 20
1996.7139816166018
 10
2462.1700136312497
 20
1998.7459182621096
  0
LWPOLYLINE
  5
2D
330
1F
100
AcDbEntity
  8
11
 62
7
100
AcDbPolyline
 90
24
 70
1
 10
2455.0580064901364
 20
1942.61196135293
 10
2451.5020219930661
 20
1942.103919971094
 10
2448.2000200399411
 20
1940.5799484134768
 10
2445.1520006307614
 20
1938.5479354740237
 10
2442.866005147363
 20
1935.499916064844
 10
2441.5960161336911
 20
1932.1979904056643
 10
2441.0880128988279
 20
1928.6419296146487
 10
2441.5960161336911
 20
1924.8319625736331
 10
2442.866005147363
 20
1921.5299606205081
 10
2445.1520006307614
 20
1918.7359237552737
 10
2448.2000200399411
 20
1916.4499282718753
 10
2451.5020219930661
 20
1914.9259567142581
 10
2455.0580064901364
 20
1914.4179916263674
 10
2458.6139909872068
 20
1914.9259567142581
 10
2462.1700136312497
 20
1916.4499282718753
 10
2464.9640123495114
 20
1918.7359237552737
 10
2467.25000783291
 20
1921.5299606205081
 10
2468.5199968465818
 20
1924.8319625736331
 10
2469.028000081445
 20
1928.6419296146487
 10
2468.5199968465818
 20
1932.1979904056643
 10
2467.25000783291
 20
1935.499916064844
 10
2464.9640123495114
 20
1938.5479354740237
 10
2462.1700136312497
 20
1940.5799484134768
 10
2458.6139909872068
 20
1942.103919971094
  0
LWPOLYLINE
  5
2E
330
1F
100
AcDbEntity
  8
11
 62
7
100
AcDbPolyline
 90
23
 70
1
 10
2139.8440401205075
 20
1944.8979568363284
 10
2136.0339967855466
 20
1944.3899917484378
 10
2132.7319948324216
 20
1942.8659438968753
 10
2129.9380342611325
 20
1940.8339309574221
 10
2127.6520387777341
 20
1937.7859878421878
 10
2126.1279909261716
 20
1934.4839858890628
 10
2125.620025838281
 20
1930.9279250980471
 10
2126.1279909261716
 20
1927.1179580570315
 10
2127.6520387777341
 20
1923.8159561039065
 10
2129.9380342611325
 20
1921.0219192386721
 10
2132.7319948324216
 20
1918.7359237552737
 10
2136.0339967855466
 20
1917.2119521976565
 10
2143.4000246175779
 20
1917.2119521976565
 10
2146.7020265707029
 20
1918.7359237552737
 10
2149.4959871419919
 20
1921.0219192386721
 10
2151.7819826253904
 20
1923.8159561039065
 10
2153.3060304769529
 20
1927.1179580570315
 10
2153.8139955648435
 20
1930.9279250980471
 10
2153.3060304769529
 20
1934.4839858890628
 10
2151.7819826253904
 20
1937.7859878421878
 10
2149.4959871419919
 20
1940.8339309574221
 10
2146.7020265707029
 20
1942.8659438968753
 10
2143.4000246175779
 20
1944.3899917484378
  0
POINT
  5
2F
330
1F
100
AcDbEntity
  8
2
 62
7
100
AcDbPoint
 10
2455.0580064901364
 20
1942.61196135293
 30
0
 50
0
  0
POINT
  5
30
330
1F
100
AcDbEntity
  8
2
 62
7
100
AcDbPoint
 10
2139.8440401205075
 20
1944.8979568363284
 30
0
 50
0
  0
POINT
  5
31
330
1F
100
AcDbEntity
  8
2
 62
7
100
AcDbPoint
 10
2111.6499940999997
 20
1998.9999771000003
 30
0
 50
0
  0
POINT
  5
32
330
1F
100
AcDbEntity
  8
3
 62
7
100
AcDbPoint
 10
2076.5980379232424
 20
1704.8679351688479
 30
0
 50
0
  0
POINT
  5
33
330
1F
100
AcDbEntity
  8
3
 62
7
100
AcDbPoint
 10
2074.5894242613667
 20
1680.2788821771335
 30
0
 50
0
  0
POINT
  5
34
330
1F
100
AcDbEntity
  8
3
 62
7
100
AcDbPoint
 10
2071.0100404867189
 20
1645.9399413944338
 30
0
 50
0
  0
POINT
  5
35
330
1F
100
AcDbEntity
  8
3
 62
7
100
AcDbPoint
 10
2064.6600191244142
 20
1598.69594572793
 30
0
 50
0
  0
POINT
  5
36
330
1F
100
AcDbEntity
  8
3
 62
7
100
AcDbPoint
 10
2063.6440126546877
 20
1587.0119476200198
 30
0
 50
0
  0
POINT
  5
37
330
1F
100
AcDbEntity
  8
3
 62
7
100
AcDbPoint
 10
2063.1359712728517
 20
1576.3439559818362
 30
0
 50
0
  0
POINT
  5
38
330
1F
100
AcDbEntity
  8
3
 62
7
100
AcDbPoint
 10
2171.5939943441408
 20
1516.6539573551272
 30
0
 50
0
  0
POINT
  5
39
330
1F
100
AcDbEntity
  8
3
 62
7
100
AcDbPoint
 10
2436.7700044759767
 20
1623.58795164834
 30
0
 50
0
  0
POINT
  5
3A
330
1F
100
AcDbEntity
  8
3
 62
7
100
AcDbPoint
 10
2465.2179948934572
 20
1655.3379440189456
 30
0
 50
0
  0
POINT
  5
3B
330
1F
100
AcDbEntity
  8
3
 62
7
100
AcDbPoint
 10
2494.4280092367189
 20
1691.4059448124026
 30
0
 50
0
  0
POINT
  5
3C
330
1F
100
AcDbEntity
  8
3
 62
7
100
AcDbPoint
 10
2498.4919969686525
 20
1763.2879638553713
 30
0
 50
0
  0
POINT
  5
3D
330
1F
100
AcDbEntity
  8
3
 62
7
100
AcDbPoint
 10
2282.3380128988279
 20
1998.7459182621096
 30
0
 50
0
  0
LWPOLYLINE
  5
3E
330
1F
100
AcDbEntity
  8
1
 62
7
100
AcDbPolyline
 90
78
 70
1
 10
2076.0898451000003
 20
867.01729049198786
 10
2076.0898451000003
 20
746.36726607792536
 10
2074.8197797923822
 20
607.68326034062068
 10
2077.6138166576175
 20
596.76124801151911
 10
2081.6778425365233
 20
586.34727706425349
 10
2087.5198225169925
 20
575.42526473515193
 10
2094.6317915111322
 20
565.51925887577693
 10
2102.5057844310541
 20
557.13730086796443
 10
2111.1418012767572
 20
550.27931441776911
 10
2118.2537702708983
 20
545.96130599491755
 10
2126.127839484765
 20
542.65930404179255
 10
2134.5097974925784
 20
539.86526717655818
 10
2143.1458143382815
 20
537.833254237105
 10
2256.6837934642572
 20
537.57927169315974
 10
2271.9238142162103
 20
539.10331954472224
 10
2287.4178175121092
 20
541.643297572066
 10
2299.1017774730467
 20
544.437258143355
 10
2309.2618421703123
 20
548.247301478316
 10
2317.89778272207
 20
553.07327498905818
 10
2326.2798170238279
 20
558.66127242558173
 10
2331.8678144603514
 20
563.48732223026923
 10
2336.1858228832029
 20
568.31329574101142
 10
2339.2338422923826
 20
573.1392692517536
 10
2340.75781385
 20
576.94931258671454
 10
2341.5198377757811
 20
581.52130355351142
 10
2342.5358442455076
 20
598.539278407027
 10
2343.2977918773436
 20
622.16125716679267
 10
2344.5677808910154
 20
628.00331344120673
 10
2346.3458112865233
 20
632.82928695194892
 10
2350.91780225332
 20
640.44929732792548
 10
2355.9978346019529
 20
646.03729476444892
 10
2362.3477796703123
 20
650.10132064335517
 10
2369.7138075023436
 20
653.14926375858954
 10
2443.3737806468748
 20
651.11725081913642
 10
2452.5178388744139
 20
652.133257288863
 10
2460.8997968822264
 20
654.41925277226142
 10
2468.5198072582029
 20
657.72125472538642
 10
2475.6317762523436
 20
662.2933219861286
 10
2481.9817976146483
 20
667.881319422652
 10
2487.823777595117
 20
674.73930587284735
 10
2492.3958448558592
 20
681.851274866988
 10
2496.45979444082
 20
691.24931563847235
 10
2498.9997724681639
 20
701.663286585738
 10
2497.9838422923826
 20
947.02728499882392
 10
2496.45979444082
 20
953.63128890507392
 10
2494.1737989574217
 20
959.72728957646052
 10
2491.125779548242
 20
965.31528701298407
 10
2487.823777595117
 20
970.14129867069892
 10
2482.7438215404295
 20
974.71328963749579
 10
2476.9018415599608
 20
979.03129806034747
 10
2470.04377881582
 20
982.33330001347247
 10
2462.6778272777342
 20
984.8732780408161
 10
2342.7898267894529
 20
984.11129226200751
 10
2326.7877821117186
 20
993.25527419560137
 10
2311.29377881582
 20
1003.415300745894
 10
2292.4977735667967
 20
1018.4013008069293
 10
2284.1158155589842
 20
1023.7352775525349
 10
2279.2898420482425
 20
1025.767290491988
 10
2268.6218122630853
 20
1028.3072685193317
 10
2262.5257734447259
 20
1028.815271754195
 10
2252.6198438792962
 20
1029.069292445113
 10
2226.2038282542962
 20
1027.7993034314411
 10
2217.0597700267572
 20
1028.0532859753864
 10
2167.0217756419925
 20
1032.371294398238
 10
2153.3058027416009
 20
1032.6252769421833
 10
2141.1138013988284
 20
1031.6092704724567
 10
2118.2537702708983
 20
1028.3072685193317
 10
2111.1418012767572
 20
1026.2752937268515
 10
2104.7917799144534
 20
1023.4812950085893
 10
2094.6317915111322
 20
1015.8612846326129
 10
2090.0598005443353
 20
1011.0352729748979
 10
2085.7417921214842
 20
1005.4472755383746
 10
2077.8677992015623
 20
991.731302637984
 10
2071.2637952953123
 20
975.47527541630427
 10
2068.9777998119143
 20
965.315287012984
 10
2067.9617933421873
 20
953.885271449019
 10
2068.2157758861322
 20
941.69327010624568
 10
2072.2798017650393
 20
892.16327895634333
  0
LWPOLYLINE
  5
3F
330
1F
100
AcDbEntity
  8
11
 62
7
100
AcDbPolyline
 90
24
 70
1
 10
2148.7338117748041
 20
942.70927657597235
 10
2148.2257703929681
 20
946.26529922001509
 10
2146.9557813792962
 20
949.56730117314009
 10
2144.6697858958983
 20
952.36129989140181
 10
2141.6218427806643
 20
954.64729537480036
 10
2138.3198408275393
 20
956.17126693241755
 10
2134.7637800365233
 20
956.679270167281
 10
2131.2077955394534
 20
956.17126693241755
 10
2127.6518110423822
 20
954.64729537480036
 10
2124.8577741771483
 20
952.36129989140181
 10
2122.5717786937503
 20
949.56730117314009
 10
2121.3017896800784
 20
946.26529922001509
 10
2120.7938245921873
 20
942.70927657597235
 10
2121.3017896800784
 20
938.899271387984
 10
2122.5717786937503
 20
935.597269434859
 10
2124.8577741771483
 20
932.80327071659735
 10
2127.6518110423822
 20
930.5172752331988
 10
2131.2077955394534
 20
928.99330367558161
 10
2134.7637800365233
 20
928.48530044071833
 10
2138.3198408275393
 20
928.99330367558161
 10
2141.6218427806643
 20
930.5172752331988
 10
2144.6697858958983
 20
932.80327071659735
 10
2146.9557813792962
 20
935.597269434859
 10
2148.2257703929681
 20
938.899271387984
  0
LWPOLYLINE
  5
40
330
1F
100
AcDbEntity
  8
11
 62
7
100
AcDbPolyline
 90
24
 70
1
 10
2146.1938337474603
 20
628.25729598515193
 10
2145.6857923656253
 20
631.81328048222224
 10
2144.1618208080072
 20
635.11528243534724
 10
2141.8758253246092
 20
638.16330184452693
 10
2139.0817884593753
 20
640.19531478398
 10
2135.7797865062503
 20
641.71928634159724
 10
2132.2238020091791
 20
642.22725142948786
 10
2128.4138349681643
 20
641.71928634159724
 10
2125.1118330150393
 20
640.19531478398
 10
2122.3177961498041
 20
638.16330184452693
 10
2120.0318006664065
 20
635.11528243534724
 10
2118.5078291087893
 20
631.81328048222224
 10
2117.9997877269534
 20
628.25729598515193
 10
2118.5078291087893
 20
624.447252650191
 10
2120.0318006664065
 20
621.145250697066
 10
2122.3177961498041
 20
618.35129012577693
 10
2125.1118330150393
 20
616.06529464237849
 10
2128.4138349681643
 20
614.5413230847613
 10
2132.2238020091791
 20
614.03328170292536
 10
2135.7797865062503
 20
614.5413230847613
 10
2139.0817884593753
 20
616.06529464237849
 10
2141.8758253246092
 20
618.35129012577693
 10
2144.1618208080072
 20
621.145250697066
 10
2145.6857923656253
 20
624.447252650191
  0
POINT
  5
41
330
1F
100
AcDbEntity
  8
2
 62
7
100
AcDbPoint
 10
2148.7338117748041
 20
942.70927657597235
 30
0
 50
0
  0
POINT
  5
42
330
1F
100
AcDbEntity
  8
2
 62
7
100
AcDbPoint
 10
2146.1938337474603
 20
628.25729598515193
 30
0
 50
0
  0
POINT
  5
43
330
1F
100
AcDbEntity
  8
2
 62
7
100
AcDbPoint
 10
2076.0898451000003
 20
867.01729049198786
 30
0
 50
0
  0
POINT
  5
44
330
1F
100
AcDbEntity
  8
3
 62
7
100
AcDbPoint
 10
2076.0898451000003
 20
746.36726607792536
 30
0
 50
0
  0
POINT
  5
45
330
1F
100
AcDbEntity
  8
3
 62
7
100
AcDbPoint
 10
2342.5358442455076
 20
598.539278407027
 30
0
 50
0
  0
POINT
  5
46
330
1F
100
AcDbEntity
  8
3
 62
7
100
AcDbPoint
 10
2498.7457899242186
 20
747.12929000370673
 30
0
 50
0
  0
POINT
  5
47
330
1F
100
AcDbEntity
  8
3
 62
7
100
AcDbPoint
 10
2274.2098096996092
 20
1027.03727950566
 30
0
 50
0
  0
POINT
  5
48
330
1F
100
AcDbEntity
  8
3
 62
7
100
AcDbPoint
 10
2126.3818220287103
 20
1029.5772956799765
 30
0
 50
0
  0
POINT
  5
49
330
1F
100
AcDbEntity
  8
3
 62
7
100
AcDbPoint
 10
2074.5657972484373
 20
983.85727157108931
 30
0
 50
0
  0
POINT
  5
4A
330
1F
100
AcDbEntity
  8
3
 62
7
100
AcDbPoint
 10
2069.99380628164
 20
917.56328811161677
 30
0
 50
0
  0
LWPOLYLINE
  5
4B
330
1F
100
AcDbEntity
  8
1
 62
7
100
AcDbPolyline
 90
78
 70
1
 10
2224.1718761
 20
1469.4570706225668
 10
2104.2838756117189
 20
1469.9650357104567
 10
2096.917924073633
 20
1467.4250576831137
 10
2090.0599376234377
 20
1464.1230557299887
 10
2084.2178813490236
 20
1460.0590298510817
 10
2079.1379252943361
 20
1455.2329800463947
 10
2072.7879039320314
 20
1445.0730679370197
 10
2070.501908448633
 20
1438.9770291186596
 10
2068.9779368910158
 20
1432.3730252124096
 10
2067.9619304212893
 20
1187.0090267993237
 10
2070.501908448633
 20
1176.5950558520587
 10
2074.5659343275393
 20
1167.1970150805737
 10
2079.1379252943361
 20
1159.8310635424887
 10
2084.9799052748049
 20
1153.2270596362387
 10
2091.3299266371096
 20
1147.6390621997148
 10
2098.44189563125
 20
1143.0670712329177
 10
2106.0619060072268
 20
1139.7650692797927
 10
2114.4439403089846
 20
1137.4790737963947
 10
2123.5879222425783
 20
1136.2090847827228
 10
2132.9858867201174
 20
1136.2090847827228
 10
2197.2478953871096
 20
1138.2410214282306
 10
2204.6139232191408
 20
1135.4470608569418
 10
2210.9639445814455
 20
1131.1290524340898
 10
2216.043900636133
 20
1125.7950375415119
 10
2220.61589160293
 20
1117.9210446215895
 10
2222.3939219984377
 20
1113.0950711108478
 10
2223.4099284681643
 20
1107.2530148364337
 10
2225.4419414076174
 20
1066.6130612231523
 10
2226.2038890394533
 20
1062.2950528003007
 10
2227.7279368910158
 20
1058.4850857592851
 10
2230.77588000625
 20
1053.4050534106523
 10
2235.0938884291018
 20
1048.57907989991
 10
2240.6818858656252
 20
1044.0070126391679
 10
2249.063920167383
 20
1038.1650326586991
 10
2257.6999370130861
 20
1033.339059147957
 10
2267.6059428724611
 20
1029.7830746508866
 10
2279.5438853773439
 20
1026.735055241707
 10
2295.0378886732424
 20
1024.1950772143632
 10
2310.2779094251955
 20
1022.9250119067458
 10
2423.8158885511725
 20
1022.9250119067459
 10
2432.4519053968756
 20
1024.9570248461991
 10
2440.8339396986335
 20
1027.7510617114335
 10
2448.4538737806647
 20
1031.3070462085038
 10
2455.5659190687506
 20
1035.37107208741
 10
2464.4559184583986
 20
1042.4830410815507
 10
2472.3299113783205
 20
1050.8650753833085
 10
2479.4418803724616
 20
1060.7710812426835
 10
2485.2839366468756
 20
1071.6930172778398
 10
2489.3478862318366
 20
1081.8530819751054
 10
2492.1419230970705
 20
1093.0290768481523
 10
2490.8719340833986
 20
1231.7130825854567
 10
2490.8719340833986
 20
1352.3630307055737
 10
2494.6819011244143
 20
1377.5090573169027
 10
2498.7459270033205
 20
1427.0390103198317
 10
2498.9999095472654
 20
1438.9770291186596
 10
2497.9839030775393
 20
1450.6609890795978
 10
2495.4439250501955
 20
1460.8210537768637
 10
2489.0939036878904
 20
1477.0770047045978
 10
2485.2839366468752
 20
1484.1889736987387
 10
2481.2199107679694
 20
1490.5390713549887
 10
2476.9019023451174
 20
1496.1269924975668
 10
2472.3299113783205
 20
1501.2071011401447
 10
2467.2498790296877
 20
1505.2709744311596
 10
2462.169922975
 20
1508.5729763842846
 10
2455.8199016126955
 20
1511.3670132495197
 10
2448.4538737806643
 20
1513.3990261889728
 10
2440.5798808607424
 20
1514.9230740405346
 10
2413.4019176039064
 20
1517.7171109057697
 10
2399.6859447035154
 20
1517.7171109057697
 10
2349.6478740248044
 20
1513.1451199389728
 10
2340.7578746351564
 20
1513.1451199389728
 10
2304.4359294447263
 20
1514.1610501147536
 10
2292.7518931898444
 20
1512.3830960131918
 10
2287.6719371351564
 20
1510.8590481616286
 10
2282.8458873304689
 20
1508.8270352221757
 10
2274.2099467787111
 20
1503.4930203295978
 10
2255.667924073633
 20
1488.5070584155346
 10
2240.1739207777346
 20
1478.6010525561596
  0
LWPOLYLINE
  5
4C
330
1F
100
AcDbEntity
  8
11
 62
7
100
AcDbPolyline
 90
24
 70
1
 10
2418.2278911146486
 20
1427.8010342456137
 10
2418.7359324964846
 20
1424.2449734545978
 10
2420.0059215101564
 20
1420.6890652514728
 10
2422.2919169935544
 20
1417.8950283862387
 10
2425.3399364027346
 20
1415.6091091967846
 10
2428.6419383558596
 20
1414.3391201831137
 10
2432.1979228529294
 20
1413.8310025073317
 10
2435.75390735
 20
1414.3391201831137
 10
2439.3098918470705
 20
1415.6091091967846
 10
2442.1039287123044
 20
1417.8950283862387
 10
2444.3899241957033
 20
1420.6890652514728
 10
2445.6599132093752
 20
1424.2449734545978
 10
2446.1678782972654
 20
1427.8010342456137
 10
2445.6599132093752
 20
1431.3570950366286
 10
2444.3899241957033
 20
1434.9130032397536
 10
2442.1039287123044
 20
1437.7070401049887
 10
2439.3098918470705
 20
1439.9931118823317
 10
2435.75390735
 20
1441.2631008960036
 10
2432.1979228529294
 20
1441.7710659838947
 10
2428.6419383558596
 20
1441.2631008960036
 10
2425.3399364027346
 20
1439.9931118823317
 10
2422.2919169935544
 20
1437.7070401049887
 10
2420.0059215101564
 20
1434.9130032397536
 10
2418.7359324964846
 20
1431.3570950366286
  0
LWPOLYLINE
  5
4D
330
1F
100
AcDbEntity
  8
11
 62
7
100
AcDbPolyline
 90
24
 70
1
 10
2420.7679454359377
 20
1113.3490536547927
 10
2421.2759105238288
 20
1109.7930691577228
 10
2422.7998820814455
 20
1106.4910672045978
 10
2424.8318950208986
 20
1103.4430477954177
 10
2427.8799144300788
 20
1101.1570523120195
 10
2431.1819163832038
 20
1099.8870632983476
 10
2434.7379008802736
 20
1099.3790219165116
 10
2438.5479442152346
 20
1099.8870632983476
 10
2441.8499461683596
 20
1101.1570523120195
 10
2444.6439067396486
 20
1103.4430477954177
 10
2446.9299022230475
 20
1106.4910672045978
 10
2448.4538737806647
 20
1109.7930691577228
 10
2448.7079326185544
 20
1113.3490536547927
 10
2448.4538737806647
 20
1116.9050381518637
 10
2446.9299022230475
 20
1120.4610226489337
 10
2444.6439067396486
 20
1123.2550595141677
 10
2441.8499461683596
 20
1125.5410549975668
 10
2438.5479442152346
 20
1126.8110440112387
 10
2434.7379008802736
 20
1127.3190853930737
 10
2431.1819163832038
 20
1126.8110440112387
 10
2427.8799144300788
 20
1125.5410549975668
 10
2424.8318950208986
 20
1123.2550595141677
 10
2422.7998820814455
 20
1120.4610226489337
 10
2421.2759105238288
 20
1116.9050381518637
  0
POINT
  5
4E
330
1F
100
AcDbEntity
  8
2
 62
7
100
AcDbPoint
 10
2418.2278911146486
 20
1427.8010342456137
 30
0
 50
0
  0
POINT
  5
4F
330
1F
100
AcDbEntity
  8
2
 62
7
100
AcDbPoint
 10
2420.7679454359377
 20
1113.3490536547927
 30
0
 50
0
  0
POINT
  5
50
330
1F
100
AcDbEntity
  8
2
 62
7
100
AcDbPoint
 10
2224.1718761
 20
1469.4570706225668
 30
0
 50
0
  0
POINT
  5
51
330
1F
100
AcDbEntity
  8
3
 62
7
100
AcDbPoint
 10
2068.7238780531252
 20
1386.9070217944418
 30
0
 50
0
  0
POINT
  5
52
330
1F
100
AcDbEntity
  8
3
 62
7
100
AcDbPoint
 10
2224.4259349378908
 20
1083.8850186206132
 30
0
 50
0
  0
POINT
  5
53
330
1F
100
AcDbEntity
  8
3
 62
7
100
AcDbPoint
 10
2490.8719340833986
 20
1231.7130825854567
 30
0
 50
0
  0
POINT
  5
54
330
1F
100
AcDbEntity
  8
3
 62
7
100
AcDbPoint
 10
2496.9678966078127
 20
1402.6550076342846
 30
0
 50
0
  0
POINT
  5
55
330
1F
100
AcDbEntity
  8
3
 62
7
100
AcDbPoint
 10
2498.7459270033205
 20
1427.0390103198317
 30
0
 50
0
  0
POINT
  5
56
330
1F
100
AcDbEntity
  8
3
 62
7
100
AcDbPoint
 10
2492.3959056410154
 20
1469.2030117846757
 30
0
 50
0
  0
POINT
  5
57
330
1F
100
AcDbEntity
  8
3
 62
7
100
AcDbPoint
 10
2425.8479014906252
 20
1516.7010281420978
 30
0
 50
0
  0
POINT
  5
58
330
1F
100
AcDbEntity
  8
3
 62
7
100
AcDbPoint
 10
2340.7578746351564
 20
1513.1451199389728
 30
0
 50
0
  0
POINT
  5
59
330
1F
100
AcDbEntity
  8
3
 62
7
100
AcDbPoint
 10
2314.3419353041013
 20
1514.1610501147536
 30
0
 50
0
  0
POINT
  5
5A
330
1F
100
AcDbEntity
  8
3
 62
7
100
AcDbPoint
 10
2240.1739207777346
 20
1478.6010525561596
 30
0
 50
0
  0
LWPOLYLINE
  5
5B
330
1F
100
AcDbEntity
  8
1
 62
7
100
AcDbPolyline
 90
53
 70
1
 10
2156.8620151000005
 20
184.17885265523881
 10
2417.4660342650395
 20
184.17885265523887
 10
2425.0860446410161
 20
185.44884166891075
 10
2431.6900485472661
 20
188.24284038717246
 10
2435.753998132227
 20
191.03683910543413
 10
2439.3100589232427
 20
194.59286174947718
 10
2442.6120608763677
 20
198.91083202535609
 10
2445.1520389037114
 20
203.736843683071
 10
2446.168045373438
 20
207.038845636196
 10
2446.6760104613286
 20
210.5948682802389
 10
2446.4220279173833
 20
223.04085216695771
 10
2446.9299930052739
 20
227.86686382467249
 10
2448.962005944727
 20
242.0908399599264
 10
2450.2319949583989
 20
246.15486583883271
 10
2452.264007897852
 20
249.71085033590296
 10
2454.8040622191411
 20
252.50484905416468
 10
2458.6140292601567
 20
255.04486522848109
 10
2474.1080325560552
 20
262.15683422262168
 10
2488.3320468382817
 20
267.74486980611783
 10
2491.6340487914067
 20
270.03086528951633
 10
2493.9200442748052
 20
272.31686077291471
 10
2495.9520572142583
 20
275.36484203512168
 10
2497.4760287718755
 20
278.92086467916471
 10
2498.492035241602
 20
282.730869867153
 10
2499.0000003294927
 20
287.0488401430319
 10
2499.0000003294927
 20
303.30486736471158
 10
2497.22204622793
 20
503.20286235982877
 10
2495.9520572142583
 20
510.3148313539694
 10
2493.66606173086
 20
516.91883526021934
 10
2490.61804232168
 20
522.50683269674278
 10
2486.5540164427739
 20
527.33288250143028
 10
2482.4899905638677
 20
530.63488445455528
 10
2477.6640170531255
 20
533.174862481899
 10
2471.8220370726567
 20
535.46085796529746
 10
2465.7259982542973
 20
536.73084697896934
 10
2115.4599612669922
 20
536.47686443502391
 10
2109.8720401244145
 20
534.6988340395161
 10
2104.5380252318364
 20
532.15885601217235
 10
2099.7119754271494
 20
529.11083660299266
 10
2095.6481021361333
 20
525.55485210592235
 10
2092.6000064330083
 20
521.74488506490673
 10
2090.0600284056645
 20
517.68085918600048
 10
2085.9960025267583
 20
508.0288358705709
 10
2086.25006136465
 20
261.394848443813
 10
2091.3300174193364
 20
248.69484386617631
 10
2098.1880801634775
 20
237.51884899312938
 10
2100.9819644408208
 20
234.72485027486772
 10
2104.5380252318364
 20
231.930851556606
 10
2124.8580020384775
 20
217.70683727437938
 10
2128.4140628294922
 20
213.6428495424459
 10
2138.8280337767583
 20
198.40286693746538
 10
2144.1620486693364
 20
192.81486950094188
 10
2150.2580111937505
 20
188.24284038717241
  0
LWPOLYLINE
  5
5C
330
1F
100
AcDbEntity
  8
11
 62
7
100
AcDbPolyline
 90
24
 70
1
 10
2130.1920169310556
 20
481.61282024557096
 10
2126.6360324339853
 20
481.10485515768033
 10
2123.3340304808603
 20
479.58088360006315
 10
2120.2860110716806
 20
477.29488811666471
 10
2118.2539981322275
 20
474.50085125143033
 10
2116.7301028685556
 20
471.19884929830533
 10
2116.2219851927744
 20
467.38888225728971
 10
2116.7301028685556
 20
463.83282146627408
 10
2118.2539981322275
 20
460.53081951314908
 10
2120.2860110716806
 20
457.73685894186
 10
2123.3340304808603
 20
455.45086345846158
 10
2126.6360324339853
 20
453.92681560689908
 10
2130.1920169310556
 20
453.41885051900846
 10
2134.0020602660165
 20
453.92681560689908
 10
2137.3040622191415
 20
455.45086345846158
 10
2140.0980227904306
 20
457.73685894186
 10
2142.3840182738286
 20
460.53081951314908
 10
2143.9079898314453
 20
463.83282146627408
 10
2144.1620486693364
 20
467.38888225728971
 10
2143.9079898314453
 20
471.19884929830533
 10
2142.3840182738286
 20
474.50085125143033
 10
2140.0980227904306
 20
477.29488811666471
 10
2137.3040622191415
 20
479.58088360006315
 10
2134.0020602660165
 20
481.10485515768033
  0
LWPOLYLINE
  5
5D
330
1F
100
AcDbEntity
  8
11
 62
7
100
AcDbPolyline
 90
24
 70
1
 10
2444.39001497793
 20
455.95882854635221
 10
2447.9459994750005
 20
456.46686992818815
 10
2451.2480014281255
 20
457.73685894186
 10
2454.2960208373052
 20
460.02285442525846
 10
2456.3280337767583
 20
462.81681499654752
 10
2457.8520053343755
 20
466.37287578756315
 10
2458.3600467162114
 20
469.92886028463346
 10
2457.8520053343755
 20
473.48484478170377
 10
2456.3280337767583
 20
476.78684673482877
 10
2454.2960208373052
 20
479.83486614400846
 10
2451.2480014281255
 20
481.86687908346158
 10
2447.9459994750005
 20
483.39085064107877
 10
2444.39001497793
 20
483.8988157289694
 10
2440.5800479369145
 20
483.39085064107877
 10
2437.2780459837895
 20
481.86687908346158
 10
2434.4840091185552
 20
479.83486614400846
 10
2432.1980136351567
 20
476.78684673482877
 10
2430.9280246214848
 20
473.48484478170377
 10
2430.4200595335942
 20
469.92886028463346
 10
2430.9280246214848
 20
466.37287578756315
 10
2432.1980136351567
 20
462.81681499654752
 10
2434.4840091185552
 20
460.02285442525846
 10
2437.2780459837895
 20
457.73685894186
 10
2440.5800479369145
 20
456.46686992818815
  0
POINT
  5
5E
330
1F
100
AcDbEntity
  8
2
 62
7
100
AcDbPoint
 10
2130.1920169310556
 20
481.61282024557096
 30
0
 50
0
  0
POINT
  5
5F
330
1F
100
AcDbEntity
  8
2
 62
7
100
AcDbPoint
 10
2444.39001497793
 20
455.95882854635221
 30
0
 50
0
  0
POINT
  5
60
330
1F
100
AcDbEntity
  8
2
 62
7
100
AcDbPoint
 10
2156.8620151000005
 20
184.17885265523881
 30
0
 50
0
  0
POINT
  5
61
330
1F
100
AcDbEntity
  8
3
 62
7
100
AcDbPoint
 10
2446.9299930052739
 20
227.86686382467249
 30
0
 50
0
  0
POINT
  5
62
330
1F
100
AcDbEntity
  8
3
 62
7
100
AcDbPoint
 10
2292.2440188841806
 20
536.47686443502391
 30
0
 50
0
  0
POINT
  5
63
330
1F
100
AcDbEntity
  8
3
 62
7
100
AcDbPoint
 10
2085.9960025267583
 20
461.54682598287559
 30
0
 50
0
  0
ENDSEC
  0
SECTION
  2
OBJECTS
  0
DICTIONARY
  5
C
330
0
100
AcDbDictionary
280
0
281
1
  3
ACAD_SCALELIST
350
69
  3
ACAD_COLOR
350
7B
  3
ACAD_FIELDLIST
350
7C
  3
ACAD_GROUP
350
D
  3
ACAD_IMAGE_DICT
350
7D
  3
ACAD_LAYOUT
350
1A
  3
ACAD_MATERIAL
350
7E
  3
ACAD_MLEADERSTYLE
350
7F
  3
ACAD_MLINESTYLE
350
17
  3
ACAD_PLOTSETTINGS
350
19
  3
ACAD_PLOTSTYLENAME
350
E
  3
ACAD_TABLESTYLE
350
81
  3
ACDB_RECOMPOSE_DATA
350
85
  3
AcDbVariableDictionary
350
86
  3
ACAD_VISUALSTYLE
350
89
  3
DWGPROPS
350
8A
  0
DICTIONARY
  5
83
330
82
100
AcDbDictionary
280
0
281
1
  3
ACAD_ROUNDTRIP_2008_TABLESTYLE_CELLSTYLEMAP
360
84
  0
DICTIONARY
  5
69
102
{ACAD_REACTORS
330
C
102
}
330
C
100
AcDbDictionary
280
0
281
1
  0
DICTIONARY
  5
7B
102
{ACAD_REACTORS
330
C
102
}
330
C
100
AcDbDictionary
280
0
281
1
  0
FIELDLIST
  5
7C
102
{ACAD_REACTORS
330
C
102
}
330
C
100
AcDbIdSet
100
AcDbFieldList
  0
DICTIONARY
  5
D
102
{ACAD_REACTORS
330
C
102
}
330
C
100
AcDbDictionary
280
0
281
1
  0
DICTIONARY
  5
7D
102
{ACAD_REACTORS
330
C
102
}
330
C
100
AcDbDictionary
280
0
281
1
  0
DICTIONARY
  5
1A
102
{ACAD_REACTORS
330
C
102
}
330
C
100
AcDbDictionary
280
0
281
1
  3
Layout1
350
1E
  3
Model
350
22
  0
DICTIONARY
  5
7E
102
{ACAD_REACTORS
330
C
102
}
330
C
100
AcDbDictionary
280
0
281
1
  0
DICTIONARY
  5
7F
102
{ACAD_REACTORS
330
C
102
}
330
C
100
AcDbDictionary
280
0
281
1
  3
Standard
350
80
  0
DICTIONARY
  5
17
102
{ACAD_REACTORS
330
C
102
}
330
C
100
AcDbDictionary
280
0
281
1
  3
STANDARD
350
18
  0
DICTIONARY
  5
19
102
{ACAD_REACTORS
330
C
102
}
330
C
100
AcDbDictionary
280
0
281
1
  0
ACDBDICTIONARYWDFLT
  5
E
102
{ACAD_REACTORS
330
C
102
}
330
C
100
AcDbDictionary
280
0
281
1
  3
Normal
350
F
100
AcDbDictionaryWithDefault
340
F
  0
ACDBPLACEHOLDER
  5
F
102
{ACAD_REACTORS
330
E
102
}
330
E
  0
DICTIONARY
  5
81
102
{ACAD_REACTORS
330
C
102
}
330
C
100
AcDbDictionary
280
0
281
1
  3
Standard
350
82
  0
XRECORD
  5
85
102
{ACAD_REACTORS
330
C
102
}
330
C
100
AcDbXrecord
280
1
 90
1
330
82
  0
DICTIONARY
  5
86
102
{ACAD_REACTORS
330
C
102
}
330
C
100
AcDbDictionary
280
0
281
1
  3
DIMASSOC
350
87
  3
HIDETEXT
350
88
  0
DICTIONARY
  5
89
102
{ACAD_REACTORS
330
C
102
}
330
C
100
AcDbDictionary
280
0
281
1
  0
XRECORD
  5
8A
102
{ACAD_REACTORS
330
C
102
}
330
C
100
AcDbXrecord
280
0
  1
DWGPROPS COOKIE
  2

  3

  4

  6

  7

  8

  9

300
=
301
=
302
=
303
=
304
=
305
=
306
=
307
=
308
=
309
=
 40
0
 41
2460962.9531394211
 42
2460962.9531394211
  1

 90
0
  0
CELLSTYLEMAP
  5
84
102
{ACAD_REACTORS
330
83
102
}
330
83
100
AcDbCellStyleMap
 90
3
300
CELLSTYLE
  1
TABLEFORMAT_BEGIN
 90
5
170
0
309
TABLEFORMAT_END
  1
CELLSTYLE_BEGIN
 90
3
 91
2
300
_DATA
309
CELLSTYLE_END
300
CELLSTYLE
  1
TABLEFORMAT_BEGIN
 90
5
170
0
309
TABLEFORMAT_END
  1
CELLSTYLE_BEGIN
 90
1
 91
2
300
_TITLE
309
CELLSTYLE_END
300
CELLSTYLE
  1
TABLEFORMAT_BEGIN
 90
5
170
0
309
TABLEFORMAT_END
  1
CELLSTYLE_BEGIN
 90
2
 91
2
300
_HEADER
309
CELLSTYLE_END
  0
LAYOUT
  5
1E
102
{ACAD_REACTORS
330
1A
102
}
330
1A
100
AcDbPlotSettings
  1

  2
C:\Program Files\AutoCAD 2002\plotters\DWF ePlot (optimized for plotting).pc3
  4

  6

 40
0
 41
0
 42
0
 43
0
 44
0
 45
0
 46
0
 47
0
 48
0
 49
0
140
0
141
0
142
1
143
1
 70
688
 72
1
 73
1
 74
1
  7
acad.stb
 75
16
 76
0
 77
0
 78
0
147
1
148
0
149
0
100
AcDbLayout
  1
Layout1
 70
1
 71
1
 10
0
 20
0
 11
420
 21
297
 12
0
 22
0
 32
0
 14
0
 24
0
 34
0
 15
0
 25
0
 35
0
146
0
 13
0
 23
0
 33
0
 16
1
 26
0
 36
0
 17
0
 27
1
 37
0
 76
0
330
64
  0
LAYOUT
  5
22
102
{ACAD_REACTORS
330
1A
102
}
330
1A
100
AcDbPlotSettings
  1

  2
C:\Program Files\AutoCAD 2002\plotters\DWF ePlot (optimized for plotting).pc3
  4

  6

 40
0
 41
0
 42
0
 43
0
 44
0
 45
0
 46
0
 47
0
 48
0
 49
0
140
0
141
0
142
1
143
1
 70
1712
 72
1
 73
1
 74
0
  7
acad.stb
 75
0
 76
0
 77
0
 78
0
147
1
148
0
149
0
100
AcDbLayout
  1
Model
 70
1
 71
0
 10
0
 20
0
 11
12
 21
9
 12
0
 22
0
 32
0
 14
0
 24
0
 34
0
 15
0
 25
0
 35
0
146
0
 13
0
 23
0
 33
0
 16
1
 26
0
 36
0
 17
0
 27
1
 37
0
 76
0
330
1F
  0
MLEADERSTYLE
  5
80
102
{ACAD_REACTORS
330
7F
102
}
330
7F
100
AcDbMLeaderStyle
170
2
171
1
172
0
 90
2
 40
0
 41
0
173
1
 91
0
340
0
 92
-2
290
1
 42
0.09
292
1
 43
0.36
  3
Standard
341
0
 44
0.18
300

342
0
174
1
178
1
175
1
176
0
 93
0
 45
0.18
292
0
297
0
 46
0
343
0
 94
0
 47
1
 49
1
140
1
293
1
141
0
294
1
177
0
142
1
295
0
296
0
143
0.125
  0
MLINESTYLE
  5
18
102
{ACAD_REACTORS
330
17
102
}
330
17
100
AcDbMlineStyle
  2
STANDARD
 70
0
  3

 51
90
 52
90
 71
2
 49
0.5
 62
0
  6
ByLayer
 49
-0.5
 62
0
  6
ByLayer
  0
TABLESTYLE
  5
82
102
{ACAD_XDICTIONARY
360
83
102
}
102
{ACAD_REACTORS
330
81
102
}
330
81
100
AcDbTableStyle
  3

 70
0
 71
0
 40
0.06
 41
0.06
280
0
281
0
  7
Standard
140
0.18
170
1
 62
0
283
0
 90
512
 91
0
274
-2
284
1
 64
0
275
-2
285
1
 65
0
276
-2
286
1
 66
0
277
-2
287
1
 67
0
278
-2
288
1
 68
0
279
-2
289
1
 69
0
  7
Standard
140
0.18
170
1
 62
0
283
0
 90
512
 91
0
274
-2
284
1
 64
0
275
-2
285
1
 65
0
276
-2
286
1
 66
0
277
-2
287
1
 67
0
278
-2
288
1
 68
0
279
-2
289
1
 69
0
  7
Standard
140
0.18
170
1
 62
0
283
0
 90
512
 91
0
274
-2
284
1
 64
0
275
-2
285
1
 65
0
276
-2
286
1
 66
0
277
-2
287
1
 67
0
278
-2
288
1
 68
0
279
-2
289
1
 69
0
  0
DICTIONARYVAR
  5
87
102
{ACAD_REACTORS
330
86
102
}
330
86
100
DictionaryVariables
280
0
  1
1
  0
DICTIONARYVAR
  5
88
102
{ACAD_REACTORS
330
86
102
}
330
86
100
DictionaryVariables
280
0
  1
2
  0
ENDSEC
999
Created By CadLib version 4.0.38.30
999
CadLib website: www.woutware.com
  0
EOF
