  0
SECTION
  2
HEADER
  9
$ACADVER
  1
AC1015
  9
$DWGCODEPAGE
  3
ansi_1252
  9
$INSBASE
 10
0
 20
0
 30
0
  9
$EXTMIN
 10
1917.5634048966142
 20
0.99999999774797121
 30
0
  9
$EXTMAX
 10
2498.9999998226567
 20
1999.0000003348639
 30
0
  9
$LIMMIN
 10
0
 20
0
  9
$LIMMAX
 10
12
 20
9
  9
$SNAPMODE
 70
0
  9
$SNAPUNIT
 10
1
 20
1
  9
$SNAPBASE
 10
0
 20
0
  9
$SNAPANG
 50
0
  9
$SNAPSTYLE
 70
0
  9
$SNAPISOPAIR
 70
0
  9
$ORTHOMODE
 70
0
  9
$REGENMODE
 70
1
  9
$FILLMODE
 70
1
  9
$QTEXTMODE
 70
0
  9
$MIRRTEXT
 70
1
  9
$LTSCALE
 40
1
  9
$OSMODE
 70
0
  9
$ATTMODE
 70
1
  9
$TEXTSIZE
 40
0.2
  9
$TRACEWID
 40
0.05
  9
$TEXTSTYLE
  7
Standard
  9
$CLAYER
  8
0
  9
$CELTYPE
  6
ByLayer
  9
$CECOLOR
 62
256
  9
$CELTSCALE
 40
1
  9
$DISPSILH
 70
0
  9
$DIMSCALE
 40
1
  9
$DIMASZ
 40
0.18
  9
$DIMEXO
 40
0.0625
  9
$DIMDLI
 40
0.38
  9
$DIMRND
 40
0
  9
$DIMDLE
 40
0
  9
$DIMEXE
 40
0.18
  9
$DIMTP
 40
0
  9
$DIMTM
 40
0
  9
$DIMTXT
 40
0.18
  9
$DIMCEN
 40
0.09
  9
$DIMTSZ
 40
0
  9
$DIMTOL
 70
0
  9
$DIMLIM
 70
0
  9
$DIMTIH
 70
1
  9
$DIMTOH
 70
1
  9
$DIMSE1
 70
0
  9
$DIMSE2
 70
0
  9
$DIMTAD
 70
0
  9
$DIMZIN
 70
0
  9
$DIMBLK
  1

  9
$DIMASO
 70
1
  9
$DIMSHO
 70
1
  9
$DIMPOST
  1

  9
$DIMAPOST
  1

  9
$DIMALT
 70
0
  9
$DIMALTD
 70
2
  9
$DIMALTF
 40
0.03937007874015748
  9
$DIMLFAC
 40
1
  9
$DIMTOFL
 70
0
  9
$DIMTVP
 40
0
  9
$DIMTIX
 70
0
  9
$DIMSOXD
 70
0
  9
$DIMSAH
 70
0
  9
$DIMBLK1
  1

  9
$DIMBLK2
  1

  9
$DIMSTYLE
  2
Standard
  9
$DIMCLRD
 70
0
  9
$DIMCLRE
 70
0
  9
$DIMCLRT
 70
0
  9
$DIMTFAC
 40
1
  9
$DIMGAP
 40
0.09
  9
$DIMJUST
 70
0
  9
$DIMSD1
 70
0
  9
$DIMSD2
 70
0
  9
$DIMTOLJ
 70
1
  9
$DIMTZIN
 70
0
  9
$DIMALTZ
 70
0
  9
$DIMALTTZ
 70
0
  9
$DIMUPT
 70
0
  9
$DIMDEC
 70
4
  9
$DIMTDEC
 70
4
  9
$DIMALTU
 70
2
  9
$DIMALTTD
 70
0
  9
$DIMTXSTY
  7
Standard
  9
$DIMAUNIT
 70
0
  9
$DIMADEC
 70
0
  9
$DIMALTRND
 40
0
  9
$DIMAZIN
 70
0
  9
$DIMDSEP
 70
46
  9
$DIMATFIT
 70
0
  9
$DIMFRAC
 70
0
  9
$DIMLDRBLK
  1

  9
$DIMLUNIT
 70
2
  9
$DIMLWD
 70
-2
  9
$DIMLWE
 70
-2
  9
$LUNITS
 70
2
  9
$LUPREC
 70
4
  9
$SKETCHINC
 40
0.1
  9
$FILLETRAD
 40
0
  9
$AUNITS
 70
0
  9
$AUPREC
 70
0
  9
$MENU
  1
.
  9
$ELEVATION
 40
0
  9
$PELEVATION
 40
0
  9
$THICKNESS
 40
0
  9
$LIMCHECK
 70
0
  9
$CHAMFERA
 40
0.5
  9
$CHAMFERB
 40
0.5
  9
$CHAMFERC
 40
0
  9
$CHAMFERD
 40
0
  9
$SKPOLY
 70
0
  9
$TDCREATE
 40
2460962.9265243751
  9
$TDUCREATE
 40
2460962.8848577081
  9
$TDUPDATE
 40
2460962.9265243751
  9
$TDUUPDATE
 40
2460962.8848577081
  9
$TDINDWG
 40
0
  9
$TDUSRTIMER
 40
1.1574074074074074E-08
  9
$USRTIMER
 70
1
  9
$ANGBASE
 50
0
  9
$ANGDIR
 70
1
  9
$PDMODE
 70
0
  9
$PDSIZE
 40
0
  9
$PLINEWID
 40
0
  9
$SPLFRAME
 70
0
  9
$SPLINETYPE
 70
6
  9
$SPLINESEGS
 70
8
  9
$HANDSEED
  5
59
  9
$SURFTAB1
 70
6
  9
$SURFTAB2
 70
6
  9
$SURFTYPE
 70
6
  9
$SURFU
 70
6
  9
$SURFV
 70
6
  9
$UCSORG
 10
0
 20
0
 30
0
  9
$UCSXDIR
 10
1
 20
0
 30
0
  9
$UCSYDIR
 10
0
 20
1
 30
0
  9
$UCSORTHOREF
  2

  9
$UCSORTHOVIEW
 70
0
  9
$UCSORGTOP
 10
0
 20
0
 30
0
  9
$UCSORGBOTTOM
 10
0
 20
0
 30
0
  9
$UCSORGLEFT
 10
0
 20
0
 30
0
  9
$UCSORGRIGHT
 10
0
 20
0
 30
0
  9
$UCSORGFRONT
 10
0
 20
0
 30
0
  9
$UCSORGBACK
 10
0
 20
0
 30
0
  9
$PUCSORG
 10
0
 20
0
 30
0
  9
$PUCSXDIR
 10
1
 20
0
 30
0
  9
$PUCSYDIR
 10
0
 20
1
 30
0
  9
$PUCSORTHOREF
  2

  9
$PUCSORTHOVIEW
 70
0
  9
$PUCSORGTOP
 10
0
 20
0
 30
0
  9
$PUCSORGBOTTOM
 10
0
 20
0
 30
0
  9
$PUCSORGLEFT
 10
0
 20
0
 30
0
  9
$PUCSORGRIGHT
 10
0
 20
0
 30
0
  9
$PUCSORGFRONT
 10
0
 20
0
 30
0
  9
$PUCSORGBACK
 10
0
 20
0
 30
0
  9
$USERI1
 70
0
  9
$USERI2
 70
0
  9
$USERI3
 70
0
  9
$USERI4
 70
0
  9
$USERI5
 70
0
  9
$USERR1
 40
0
  9
$USERR2
 40
0
  9
$USERR3
 40
0
  9
$USERR4
 40
0
  9
$USERR5
 40
0
  9
$WORLDVIEW
 70
1
  9
$SHADEDGE
 70
3
  9
$SHADEDIF
 70
70
  9
$TILEMODE
 70
1
  9
$MAXACTVP
 70
48
  9
$PINSBASE
 10
0
 20
0
 30
0
  9
$PLIMCHECK
 70
0
  9
$PEXTMIN
 10
1E+20
 20
1E+20
 30
1E+20
  9
$PEXTMAX
 10
-1E+20
 20
-1E+20
 30
-1E+20
  9
$PLIMMAX
 10
0
 20
0
  9
$PLIMMIN
 10
0
 20
0
  9
$UNITMODE
 70
0
  9
$VISRETAIN
 70
1
  9
$PLINEGEN
 70
1
  9
$PSLTSCALE
 70
1
  9
$TREEDEPTH
 70
3020
  9
$CMLSTYLE
  2
STANDARD
  9
$CMLJUST
 70
0
  9
$CMLSCALE
 40
1
  9
$PROXYGRAPHICS
 70
1
  9
$MEASUREMENT
 70
1
  9
$CELWEIGHT
370
-1
  9
$ENDCAPS
280
0
  9
$JOINSTYLE
280
0
  9
$LWDISPLAY
290
1
  9
$INSUNITS
 70
4
  9
$HYPERLINKBASE
  1

  9
$XEDIT
290
1
  9
$CEPSNTYPE
380
0
  9
$PSTYLEMODE
290
0
  9
$FINGERPRINTGUID
  2

  9
$VERSIONGUID
  2

  9
$EXTNAMES
290
1
  9
$PSVPSCALE
 40
0
  9
$CSHADOW
280
0
  9
$SHADOWPLANELOCATION
 40
0
  0
ENDSEC
  0
SECTION
  2
CLASSES
  0
CLASS
  1
RASTERVARIABLES
  2
AcDbRasterVariables
  3
ISM
 90
0
280
0
281
0
  0
CLASS
  1
IMAGEDEF
  2
AcDbRasterImageDef
  3
ISM
 90
0
280
0
281
0
  0
CLASS
  1
IMAGEDEF_REACTOR
  2
AcDbRasterImageDefReactor
  3
ISM
 90
1
280
0
281
0
  0
CLASS
  1
IMAGE
  2
AcDbRasterImage
  3
ISM
 90
127
280
0
281
1
  0
CLASS
  1
ACAD_EVALUATION_GRAPH
  2
AcDbEvalGraph
  3
ObjectDBX Classes
 90
1153
280
0
281
0
  0
CLASS
  1
BLOCKPOINTPARAMETER
  2
AcDbBlockPointParameter
  3
ObjectDBX Classes
 90
1153
280
0
281
0
  0
CLASS
  1
BLOCKBASEPOINTPARAMETER
  2
AcDbBlockBasepointParameter
  3
ObjectDBX Classes
 90
1153
280
0
281
0
  0
CLASS
  1
BLOCKLOOKUPPARAMETER
  2
AcDbBlockLookupParameter
  3
ObjectDBX Classes
 90
1153
280
0
281
0
  0
CLASS
  1
BLOCKVISIBILITYPARAMETER
  2
AcDbBlockVisibilityParameter
  3
ObjectDBX Classes
 90
1153
280
0
281
0
  0
CLASS
  1
BLOCKPROPERTIESTABLE
  2
AcDbBlockPropertiesTable
  3
ObjectDBX Classes
 90
1153
280
0
281
0
  0
CLASS
  1
BLOCKPOLARPARAMETER
  2
AcDbBlockPolarParameter
  3
ObjectDBX Classes
 90
1153
280
0
281
0
  0
CLASS
  1
BLOCKROTATIONPARAMETER
  2
AcDbBlockRotationParameter
  3
ObjectDBX Classes
 90
1153
280
0
281
0
  0
CLASS
  1
BLOCKLINEARPARAMETER
  2
AcDbBlockLinearParameter
  3
ObjectDBX Classes
 90
1153
280
0
281
0
  0
CLASS
  1
BLOCKXYPARAMETER
  2
AcDbBlockXYParameter
  3
ObjectDBX Classes
 90
1153
280
0
281
0
  0
CLASS
  1
BLOCKFLIPPARAMETER
  2
AcDbBlockFlipParameter
  3
ObjectDBX Classes
 90
1153
280
0
281
0
  0
CLASS
  1
BLOCKALIGNMENTPARAMETER
  2
AcDbBlockAlignmentParameter
  3
ObjectDBX Classes
 90
1153
280
0
281
0
  0
CLASS
  1
BLOCKROTATEACTION
  2
AcDbBlockRotateAction
  3
ObjectDBX Classes
 90
1153
280
0
281
0
  0
CLASS
  1
BLOCKSCALEACTION
  2
AcDbBlockScaleAction
  3
ObjectDBX Classes
 90
1153
280
0
281
0
  0
CLASS
  1
BLOCKARRAYACTION
  2
AcDbBlockArrayAction
  3
ObjectDBX Classes
 90
1153
280
0
281
0
  0
CLASS
  1
BLOCKFLIPACTION
  2
AcDbBlockFlipAction
  3
ObjectDBX Classes
 90
1153
280
0
281
0
  0
CLASS
  1
BLOCKLOOKUPACTION
  2
AcDbBlockLookupAction
  3
ObjectDBX Classes
 90
1153
280
0
281
0
  0
CLASS
  1
BLOCKMOVEACTION
  2
AcDbBlockMoveAction
  3
ObjectDBX Classes
 90
1153
280
0
281
0
  0
CLASS
  1
BLOCKPOLARSTRETCHACTION
  2
AcDbBlockPolarStretchAction
  3
ObjectDBX Classes
 90
1153
280
0
281
0
  0
CLASS
  1
BLOCKSTRETCHACTION
  2
AcDbBlockStretchAction
  3
ObjectDBX Classes
 90
1153
280
0
281
0
  0
CLASS
  1
BLOCKALIGNMENTGRIP
  2
AcDbBlockAlignmentGrip
  3
ObjectDBX Classes
 90
1153
280
0
281
0
  0
CLASS
  1
BLOCKFLIPGRIP
  2
AcDbBlockFlipGrip
  3
ObjectDBX Classes
 90
1153
280
0
281
0
  0
CLASS
  1
ACDB_BLOCKREPRESENTATION_DATA
  2
AcDbBlockRepresentationData
  3
ObjectDBX Classes
 90
1153
280
0
281
0
  0
CLASS
  1
ACDB_DYNAMICBLOCKPURGEPREVENTER_VERSION
  2
AcDbDynamicBlockPurgePreventer
  3
ObjectDBX Classes
 90
1153
280
0
281
0
  0
CLASS
  1
BLOCKLINEARGRIP
  2
AcDbBlockLinearGrip
  3
ObjectDBX Classes
 90
1153
280
0
281
0
  0
CLASS
  1
BLOCKLOOKUPGRIP
  2
AcDbBlockLookupGrip
  3
ObjectDBX Classes
 90
1153
280
0
281
0
  0
CLASS
  1
BLOCKPOLARGRIP
  2
AcDbBlockPolarGrip
  3
ObjectDBX Classes
 90
1153
280
0
281
0
  0
CLASS
  1
BLOCKPROPERTIESTABLEGRIP
  2
AcDbBlockPropertiesTableGrip
  3
ObjectDBX Classes
 90
1153
280
0
281
0
  0
CLASS
  1
BLOCKROTATIONGRIP
  2
AcDbBlockRotationGrip
  3
ObjectDBX Classes
 90
1153
280
0
281
0
  0
CLASS
  1
BLOCKVISIBILITYGRIP
  2
AcDbBlockVisibilityGrip
  3
ObjectDBX Classes
 90
1153
280
0
281
0
  0
CLASS
  1
BLOCKXYGRIP
  2
AcDbBlockXYGrip
  3
ObjectDBX Classes
 90
1153
280
0
281
0
  0
CLASS
  1
BLOCKGRIPLOCATIONCOMPONENT
  2
AcDbBlockGripExpr
  3
ObjectDBX Classes
 90
1153
280
0
281
0
  0
CLASS
  1
ACDB_DYNAMICBLOCKPROXYNODE
  2
AcDbDynamicBlockProxyNode
  3
ObjectDBX Classes
 90
1153
280
0
281
0
  0
CLASS
  1
BLOCKLINEARCONSTRAINTPARAMETER
  2
AcDbBlockLinearConstraintParameter
  3
ObjectDBX Classes
 90
1153
280
0
281
0
  0
CLASS
  1
BLOCKHORIZONTALCONSTRAINTPARAMETER
  2
AcDbBlockHorizontalConstraintParameter
  3
ObjectDBX Classes
 90
1153
280
0
281
0
  0
CLASS
  1
BLOCKVERTICALCONSTRAINTPARAMETER
  2
AcDbBlockVerticalConstraintParameter
  3
ObjectDBX Classes
 90
1153
280
0
281
0
  0
CLASS
  1
BLOCKALIGNEDCONSTRAINTPARAMETER
  2
AcDbBlockAlignedConstraintParameter
  3
ObjectDBX Classes
 90
1153
280
0
281
0
  0
CLASS
  1
BLOCKANGULARCONSTRAINTPARAMETER
  2
AcDbBlockAngularConstraintParameter
  3
ObjectDBX Classes
 90
1153
280
0
281
0
  0
CLASS
  1
BLOCKDIAMETRICCONSTRAINTPARAMETER
  2
AcDbBlockDiametricConstraintParameter
  3
ObjectDBX Classes
 90
1153
280
0
281
0
  0
CLASS
  1
BLOCKRADIALCONSTRAINTPARAMETER
  2
AcDbBlockRadialConstraintParameter
  3
ObjectDBX Classes
 90
1153
280
0
281
0
  0
ENDSEC
  0
SECTION
  2
TABLES
  0
TABLE
  2
VPORT
  5
8
330
0
100
AcDbSymbolTable
 70
1
  0
VPORT
  5
34
330
8
100
AcDbSymbolTableRecord
100
AcDbViewportTableRecord
  2
*Active
 70
64
 10
0
 20
0
 11
1
 21
1
 12
2208.2817023596353
 22
1000.0000001663059
 13
0
 23
0
 14
1
 24
1
 15
0
 25
0
 16
0
 26
0
 36
1
 17
0
 27
0
 37
0
 40
1998.000000337116
 41
0.29100930672069
 42
50
 43
0
 44
0
 50
0
 51
0
 71
0
 72
20000
 73
20000
 74
1
 75
0
 76
0
 77
0
 78
0
281
0
 65
1
110
0
120
0
130
0
111
1
121
0
131
0
112
0
122
1
132
0
 79
0
146
0
  0
ENDTAB
  0
TABLE
  2
LTYPE
  5
5
100
AcDbSymbolTable
 70
3
  0
LTYPE
  5
16
330
5
100
AcDbSymbolTableRecord
100
AcDbLinetypeTableRecord
  2
Continuous
  3
Solid line
 70
64
 72
65
 73
0
 40
0
  0
LTYPE
  5
14
330
5
100
AcDbSymbolTableRecord
100
AcDbLinetypeTableRecord
  2
ByBlock
  3

 70
64
 72
65
 73
0
 40
0
  0
LTYPE
  5
15
330
5
100
AcDbSymbolTableRecord
100
AcDbLinetypeTableRecord
  2
ByLayer
  3

 70
64
 72
65
 73
0
 40
0
  0
ENDTAB
  0
TABLE
  2
LAYER
  5
2
100
AcDbSymbolTable
 70
4
  0
LAYER
  5
10
330
2
100
AcDbSymbolTableRecord
100
AcDbLayerTableRecord
 70
64
  2
0
 62
7
  6
Continuous
370
-3
390
F
  0
LAYER
  5
27
330
2
100
AcDbSymbolTableRecord
100
AcDbLayerTableRecord
 70
64
  2
1
 62
7
  6
Continuous
370
-3
390
F
  0
LAYER
  5
28
330
2
100
AcDbSymbolTableRecord
100
AcDbLayerTableRecord
 70
64
  2
11
 62
7
  6
Continuous
370
-3
390
F
  0
LAYER
  5
29
330
2
100
AcDbSymbolTableRecord
100
AcDbLayerTableRecord
 70
64
  2
DEFPOINTS
 62
7
  6
Continuous
290
0
370
-3
390
F
  0
ENDTAB
  0
TABLE
  2
STYLE
  5
3
100
AcDbSymbolTable
 70
1
  0
STYLE
  5
11
330
3
100
AcDbSymbolTableRecord
100
AcDbTextStyleTableRecord
  2
Standard
 70
64
 40
0
 41
1
 50
0
 71
0
 42
0.2
  3
txt.shx
  0
ENDTAB
  0
TABLE
  2
VIEW
  5
6
100
AcDbSymbolTable
 70
0
  0
ENDTAB
  0
TABLE
  2
UCS
  5
7
100
AcDbSymbolTable
 70
0
  0
ENDTAB
  0
TABLE
  2
APPID
  5
9
330
0
100
AcDbSymbolTable
 70
2
  0
APPID
  5
12
330
0
100
AcDbSymbolTableRecord
100
AcDbRegAppTableRecord
  2
ACAD
 70
64
  0
APPID
  5
57
330
0
100
AcDbSymbolTableRecord
100
AcDbRegAppTableRecord
  2
ACAD_MLEADERVER
 70
64
  0
ENDTAB
  0
TABLE
  2
DIMSTYLE
  5
A
330
0
100
AcDbSymbolTable
 70
1
100
AcDbDimStyleTable
 71
0
  0
DIMSTYLE
105
33
330
A
100
AcDbSymbolTableRecord
100
AcDbDimStyleTableRecord
  2
Standard
 70
64
  3

  4

 40
1
 41
0.18
 42
0.0625
 43
0.38
 44
0.18
 45
0
 46
0
 47
0
 48
0
140
0.18
141
0.09
142
0
143
1
144
1
145
0
146
1
147
0.09
148
0
 71
0
 72
0
 73
1
 74
1
 75
0
 76
0
 77
0
 78
0
 79
0
170
0
171
2
172
0
173
0
174
0
175
0
179
0
271
4
272
4
273
2
274
0
275
0
276
0
277
2
278
46
279
0
280
0
281
0
282
0
283
1
284
0
285
0
286
0
288
0
289
0
340
11
371
-2
372
-2
  0
ENDTAB
  0
TABLE
  2
BLOCK_RECORD
  5
1
330
0
100
AcDbSymbolTable
 70
3
  0
BLOCK_RECORD
  5
1F
330
1
100
AcDbSymbolTableRecord
100
AcDbBlockTableRecord
  2
*Model_Space
340
22
  0
BLOCK_RECORD
  5
30
330
1
100
AcDbSymbolTableRecord
100
AcDbBlockTableRecord
  2
*Paper_Space
340
1E
  0
ENDTAB
  0
ENDSEC
  0
SECTION
  2
BLOCKS
  0
BLOCK
  5
20
330
1F
100
AcDbEntity
  8
0
100
AcDbBlockBegin
  2
*Model_Space
 70
64
 10
0
 20
0
 30
0
  3
*Model_Space
  0
ENDBLK
  5
21
330
1F
100
AcDbEntity
  8
0
100
AcDbBlockEnd
  0
BLOCK
  5
31
330
30
100
AcDbEntity
  8
0
 67
1
100
AcDbBlockBegin
  2
*Paper_Space
 70
64
 10
0
 20
0
 30
0
  3
*Paper_Space
  0
ENDBLK
  5
32
330
30
100
AcDbEntity
  8
0
100
AcDbBlockEnd
  0
ENDSEC
  0
SECTION
  2
ENTITIES
  0
LWPOLYLINE
  5
2A
330
1F
100
AcDbEntity
  8
1
 62
18
100
AcDbPolyline
 90
68
 70
1
 10
2390.2574203995437
 20
1101.9450472810527
 10
2398.8933990982741
 20
1102.4530123689437
 10
2405.2434204605788
 20
1103.9770602205058
 10
2409.0533875015944
 20
1105.7550143220687
 10
2414.1334198502273
 20
1109.8190402009745
 10
2417.9433868912424
 20
1114.8989962556614
 10
2425.0553940323562
 20
1127.5990389802714
 10
2426.579403736946
 20
1133.6950777986308
 10
2427.3413895157546
 20
1142.3309420564435
 10
2428.8653992203444
 20
1343.7530611970694
 10
2427.5954102066726
 20
1350.1030062654274
 10
2423.0234192398757
 20
1361.533059976364
 10
2417.1814011124343
 20
1370.9309481599582
 10
2412.1014069107741
 20
1373.9790438630832
 10
2408.5454224137034
 20
1375.2490328767551
 10
2404.7354172257155
 20
1375.7569979646462
 10
2370.9534119156574
 20
1376.2649630525364
 10
2366.38142094886
 20
1377.0269869783181
 10
2362.3173950699534
 20
1378.55103482988
 10
2359.2694138077468
 20
1380.3289889314444
 10
2356.4754150894855
 20
1382.6150607087864
 10
2352.9193924454421
 20
1387.1870516755832
 10
2348.0934189347
 20
1396.3310336091774
 10
2338.1874130753245
 20
1429.6049593904274
 10
2334.1233871964187
 20
1464.402933023239
 10
2334.6313904312824
 20
1536.793069741989
 10
2333.8694046524733
 20
1545.9370516755832
 10
2332.5994156388015
 20
1551.7790316560524
 10
2329.297413685676
 20
1555.8430575349582
 10
2324.9794052628254
 20
1558.3830355623024
 10
2318.3754013565749
 20
1560.160989663864
 10
2311.7713974503245
 20
1560.9230135896462
 10
2014.5914028671953
 20
1562.1930026033192
 10
2010.2734039810866
 20
1561.1770724275361
 10
2006.4634083298417
 20
1559.1450594880841
 10
2003.4154079941482
 20
1556.858987710739
 10
2000.8754013565751
 20
1553.0490206697241
 10
1999.60540280616
 20
1548.7309359529272
 10
1997.5734089401931
 20
1530.189065835739
 10
1995.5414055374833
 20
1467.1969698884741
 10
1989.191403248665
 20
1427.0649813630832
 10
1987.6674030808183
 20
1421.223001382614
 10
1982.5874041107866
 20
1406.9990633943341
 10
1976.4914034393998
 20
1393.5369967439442
 10
1969.1254042175981
 20
1384.647073648239
 10
1965.0614069489213
 20
1382.1069430330051
 10
1955.1554058579181
 20
1379.0589999177712
 10
1940.9314058808061
 20
1376.0110568025361
 10
1929.7554050472947
 20
1371.94703092363
 10
1926.9614051369401
 20
1370.1690768220692
 10
1922.1354048041078
 20
1365.34302701738
 10
1921.3734050182077
 20
1363.8189791658192
 10
1919.5954048720571
 20
1358.231058023239
 10
1918.3254049060317
 20
1351.8809603669902
 10
1917.5634048966142
 20
1345.276956460739
 10
1917.8174048935446
 20
1156.5550326326143
 10
1918.3254049060317
 20
1151.9830416658183
 10
1919.3414048937532
 20
1147.9190157869116
 10
1922.3894049314233
 20
1141.3150118806616
 10
1925.6914047983857
 20
1136.4889620759748
 10
1928.7394045380327
 20
1133.4410189607395
 10
1932.0414052990648
 20
1130.9010409333964
 10
1946.7734049347612
 20
1124.0429781892553
 10
1962.7754066971513
 20
1118.2009982087868
 10
1980.0474070099565
 20
1113.8830660798808
 10
2017.7117221931874
 20
1107.8969147747937
 10
2041.0074089554521
 20
1105.2470492341774
 10
2093.3313988236159
 20
1101.9450472810527
  0
LWPOLYLINE
  5
2B
330
1F
100
AcDbEntity
  8
1
 62
18
100
AcDbPolyline
 90
80
 70
1
 10
2078.1220091
 20
1998.4919971000004
 10
2070.2480161800786
 20
1997.2220080863285
 10
2062.6280058041016
 20
1994.9360126029303
 10
2055.7699812069336
 20
1992.1419757376962
 10
2049.1660154476563
 20
1988.8400500785165
 10
2044.3400037899426
 20
1984.5220416556645
 10
2040.0219953670903
 20
1979.695991850977
 10
2039.2600095882819
 20
1977.9180377494147
 10
2036.7199934139658
 20
1970.2980273734379
 10
2035.9580076351574
 20
1962.1699756156254
 10
2037.4820173397466
 20
1747.0320361625006
 10
2038.4979856625005
 20
1734.3319934378912
 10
2040.0219953670903
 20
1723.4099811087892
 10
2045.1019895687512
 20
1707.915977812891
 10
2117.7459943905278
 20
1582.1859973441408
 10
2119.2700040951177
 20
1580.6620257865238
 10
2123.3339918270512
 20
1577.8679889212897
 10
2127.3980177059575
 20
1576.0900348197267
 10
2132.9860151424809
 20
1574.8200458060555
 10
2316.8820036068364
 20
1573.8040393363285
 10
2321.1999929562021
 20
1573.0420154105477
 10
2329.5820081844731
 20
1569.4860309134767
 10
2333.3919942989755
 20
1566.9459765921879
 10
2337.456001104395
 20
1562.8820270072267
 10
2339.7419965877934
 20
1559.0719836722658
 10
2340.7580030575205
 20
1553.2300036917979
 10
2341.0119951382085
 20
1547.3880237113287
 10
2340.7580030575205
 20
1541.5460437308595
 10
2337.456001104395
 20
1444.5179980765627
 10
2338.4720075741216
 20
1439.6920245658205
 10
2341.2659967556406
 20
1435.6279986869147
 10
2344.5679987087651
 20
1433.5959857474616
 10
2351.4260042324468
 20
1431.5640491019533
 10
2354.7279966488286
 20
1431.3099902640627
 10
2450.4860008373662
 20
1431.5640491019533
 10
2456.3279998913213
 20
1432.8340381156256
 10
2460.9000003948613
 20
1435.3740161429698
 10
2463.1860006466313
 20
1437.9139941703127
 10
2466.2340009823247
 20
1444.2640155326178
 10
2466.9959986820622
 20
1448.0739825736339
 10
2459.3760002270146
 20
1587.2660296927736
 10
2460.6459987774297
 20
1590.5680316458986
 10
2462.424000562708
 20
1593.3619922171877
 10
2464.9640000477239
 20
1595.3940051566408
 10
2468.0120003834172
 20
1597.1720355521488
 10
2482.7440000191136
 20
1600.2199786673839
 10
2488.8399994984075
 20
1603.2679980765629
 10
2493.66599983124
 20
1607.0780414115236
 10
2496.4599997415944
 20
1611.6500323783207
 10
2497.9839998349353
 20
1615.9680408011727
 10
2498.7459998257264
 20
1620.5400317679698
 10
2498.9999998226567
 20
1629.4300311576178
 10
2498.7459998257264
 20
1638.0660480033209
 10
2497.2219998255177
 20
1649.4960254203129
 10
2494.6819997444554
 20
1664.2280047904303
 10
2491.3799995794698
 20
1677.4360126029303
 10
2484.2680001869603
 20
1699.534019805079
 10
2465.7260001316472
 20
1749.8259967337892
 10
2463.1860006466313
 20
1758.9699786673834
 10
2461.4079988613535
 20
1768.1140368949225
 10
2460.138000310938
 20
1777.5120013724613
 10
2458.1060016765996
 20
1803.4199756156256
 10
2457.0899999752446
 20
1827.8039783011725
 10
2456.5820015087529
 20
1852.4420398246098
 10
2456.8359983578125
 20
1876.8260425101566
 10
2457.8520000591679
 20
1901.2100451957042
 10
2459.3684069015112
 20
1915.720769832232
 10
2463.4399998798767
 20
1943.8820117484377
 10
2466.7419994488159
 20
1959.3760150443368
 10
2468.77400046734
 20
1969.789985991602
 10
2468.77400046734
 20
1973.8540118705087
 10
2466.9959986820618
 20
1981.4740222464848
 10
2464.4559991970459
 20
1986.0460132132819
 10
2461.1539996281067
 20
1989.8559802542973
 10
2456.0739982738892
 20
1993.1579822074225
 10
2449.9779976025029
 20
1995.4439776908207
 10
2439.817999662439
 20
1996.9680255423837
 10
2419.2440021648804
 20
1998.4919971000004
 10
2394.09799939541
 20
1999.0000003348639
 10
2094.1240156307617
 20
1999.0000003348639
  0
LWPOLYLINE
  5
2C
330
1F
100
AcDbEntity
  8
11
 62
18
100
AcDbPolyline
 90
24
 70
1
 10
2415.4340017452637
 20
1933.2139819632821
 10
2414.9259985104004
 20
1937.0240252982426
 10
2413.4019983425537
 20
1940.5800097953133
 10
2411.1160028591553
 20
1943.628029204493
 10
2408.0680025234619
 20
1945.9140246878912
 10
2404.5119989529053
 20
1947.4379962455087
 10
2400.9559953823486
 20
1947.6919787894542
 10
2397.1459997311035
 20
1947.4379962455087
 10
2393.5899961605469
 20
1945.9140246878912
 10
2390.5419958248535
 20
1943.628029204493
 10
2388.2560003414551
 20
1940.5800097953133
 10
2386.98600179104
 20
1937.0240252982426
 10
2386.4779985561768
 20
1933.2139819632821
 10
2386.98600179104
 20
1929.6579974662113
 10
2388.2560003414551
 20
1926.1020129691415
 10
2390.5419958248535
 20
1923.0539935599616
 10
2393.5899961605469
 20
1920.7679980765629
 10
2397.1459997311035
 20
1919.2440265189462
 10
2400.9559953823486
 20
1918.7359851371102
 10
2404.5119989529053
 20
1919.2440265189462
 10
2408.0680025234619
 20
1920.7679980765629
 10
2411.1160028591553
 20
1923.0539935599616
 10
2413.4019983425537
 20
1926.1020129691415
 10
2414.9259985104004
 20
1929.6579974662113
  0
LWPOLYLINE
  5
2D
330
1F
100
AcDbEntity
  8
11
 62
18
100
AcDbPolyline
 90
24
 70
1
 10
2116.7299879208008
 20
1934.2299884330084
 10
2116.2219846859375
 20
1938.0400317679696
 10
2114.6980131283208
 20
1941.5960162650397
 10
2112.4120176449219
 20
1944.6440356742194
 10
2109.3639982357422
 20
1946.930031157618
 10
2105.8080137386719
 20
1948.20002017129
 10
2102.2519910946289
 20
1948.7079852591803
 10
2098.4419859066406
 20
1948.2000201712895
 10
2094.8860014095703
 20
1946.930031157618
 10
2091.8379820003906
 20
1944.6440356742194
 10
2089.5519865169922
 20
1941.5960162650397
 10
2088.028014959375
 20
1938.0400317679696
 10
2087.5200117245122
 20
1934.2299884330084
 10
2088.028014959375
 20
1930.6740039359377
 10
2089.5519865169922
 20
1927.1180194388678
 10
2091.8379820003906
 20
1924.0700000296879
 10
2094.8860014095703
 20
1921.7840045462897
 10
2098.4419859066406
 20
1920.2600329886725
 10
2102.2519910946289
 20
1919.7519916068366
 10
2105.8080137386719
 20
1920.2600329886725
 10
2109.3639982357422
 20
1921.7840045462897
 10
2112.4120176449219
 20
1924.0700000296879
 10
2114.6980131283208
 20
1927.1180194388678
 10
2116.2219846859375
 20
1930.6740039359383
  0
LWPOLYLINE
  5
2E
330
1F
100
AcDbEntity
  8
1
 62
18
100
AcDbPolyline
 90
69
 70
1
 10
2093.3982122851762
 20
1100.9450472810527
 10
2041.0742033435263
 20
1097.8971041658183
 10
2036.4059537143646
 20
1097.4551378076244
 10
2013.1341970874225
 20
1094.5951022126931
 10
1980.114206166402
 20
1089.2610873201156
 10
1962.8422010852255
 20
1084.9430026033183
 10
1946.8402040912067
 20
1079.1010226228495
 10
1932.1082056476034
 20
1072.2431124665998
 10
1928.8062036944782
 20
1069.7031344392556
 10
1925.7582033587848
 20
1066.6550387361308
 10
1922.4562014056598
 20
1061.5750826814433
 10
1919.4082010699665
 20
1055.2249850251937
 10
1917.8842009021198
 20
1046.5891207673806
 10
1917.6301992846886
 20
857.612985513474
 10
1919.6622026873986
 20
844.65903653886562
 10
1922.2021997882284
 20
837.8010500886694
 10
1924.48820480837
 20
835.00708951738011
 10
1929.8222006274621
 20
831.1970461824194
 10
1940.9982050372519
 20
827.13309659745914
 10
1960.8102072192589
 20
822.561029336716
 10
1965.1282061053673
 20
820.78307523515446
 10
1969.1922033740441
 20
818.24309720781025
 10
1971.7322004748739
 20
815.70304288652142
 10
1976.5582025958458
 20
809.60708036210713
 10
1982.6542032672323
 20
796.14509000566238
 10
1989.2581976367392
 20
776.079095742966
 10
1990.274204106466
 20
770.23703946855233
 10
1995.6081999255578
 20
735.94703092363022
 10
1998.4021986438192
 20
663.81102933671627
 10
1999.6722067309777
 20
654.15908231523247
 10
2000.9421957446496
 20
649.84107389238034
 10
2003.4822119189657
 20
646.03103055741929
 10
2006.5302122546591
 20
643.7450350740213
 10
2010.340198369161
 20
641.96708097245937
 10
2014.6582067920126
 20
640.6970919587875
 10
2311.8382109118847
 20
642.22106351640434
 10
2318.4422148181352
 20
642.98308744218548
 10
2325.0462187243857
 20
644.76104154374855
 10
2329.3641890002641
 20
647.30109586503738
 10
2332.6661909533896
 20
651.36504544999855
 10
2333.9362181140336
 20
656.95304288652153
 10
2334.6982038928427
 20
666.35108365800545
 10
2334.1902006579789
 20
738.48708524491917
 10
2338.2541883899125
 20
773.53904142167733
 10
2348.1601942492875
 20
806.81304349687332
 10
2352.9862059070028
 20
815.9570254304665
 10
2356.5421904040732
 20
820.52909269120926
 10
2359.3361891223349
 20
822.81508817460735
 10
2362.3842085315146
 20
824.59304227616951
 10
2366.4481962634472
 20
826.11709012773235
 10
2371.020187230245
 20
826.87903775956818
 10
2404.8021925403036
 20
827.13309659745926
 10
2408.6121977282914
 20
827.89504422929463
 10
2412.1682203723344
 20
829.1650332429665
 10
2417.248214573995
 20
832.21305265214653
 10
2420.0422132922558
 20
836.2770785310521
 10
2423.0901945544633
 20
841.61109342363034
 10
2425.3761900378618
 20
846.6910494783184
 10
2427.6621855212607
 20
853.04107084062355
 10
2428.9322126819047
 20
859.39109220292755
 10
2427.4082029773149
 20
1060.8130587556623
 10
2426.138213963643
 20
1072.4970187165998
 10
2423.5981977893262
 20
1078.5930575349596
 10
2418.0102003528036
 20
1087.9910983064435
 10
2412.676185460225
 20
1094.5951022126933
 10
2409.1202009631552
 20
1097.3889864900373
 10
2405.3101957751669
 20
1099.1670931794906
 10
2398.9602125598344
 20
1100.4370821931623
 10
2394.6422041369829
 20
1100.9450472810527
  0
LWPOLYLINE
  5
2F
330
1F
100
AcDbEntity
  8
1
 62
18
100
AcDbPolyline
 90
57
 70
1
 10
2422.2919691
 20
44.942000099999852
 10
2429.9119794759768
 20
55.863998123986782
 10
2433.2139814291022
 20
64.245999047143115
 10
2434.7379911336916
 20
72.37399835286827
 10
2435.610147060459
 20
103.18033673597192
 10
2435.2459943685549
 20
126.22199792562252
 10
2433.721984663965
 20
158.22600145040289
 10
2433.9759672079103
 20
174.73600167928439
 10
2434.9919736776369
 20
191.2459923714234
 10
2443.6279905233396
 20
227.05999154744882
 10
2451.5019834432619
 20
257.53999490438252
 10
2460.138000288965
 20
287.7659966438838
 10
2468.0119932088874
 20
340.85201043782968
 10
2471.1859288598603
 20
401.02900105699405
 10
2476.6479719076178
 20
437.37201471029073
 10
2487.315963545801
 20
495.79200524984128
 10
2492.0856491022319
 20
528.00523378864773
 10
2496.1114552999779
 20
563.490241426302
 10
2498.9999998006838
 20
603.741986939294
 10
2498.7459791097658
 20
608.05999536214608
 10
2496.2060010824221
 20
617.204015442712
 10
2492.9039991292971
 20
623.80798120198926
 10
2486.0459745321291
 20
632.95200128255578
 10
2480.2039945516603
 20
637.01598901448938
 10
2475.6319654378908
 20
639.04800195394273
 10
2470.8059919271491
 20
640.31799096761449
 10
2135.7799756917971
 20
640.31799096761426
 10
2116.7299783620851
 20
637.01598901448915
 10
2113.4279859457033
 20
635.49201745687242
 10
2109.1099775228513
 20
632.44399804769273
 10
2104.7919786367429
 20
626.09401483236036
 10
2101.23598460293
 20
617.45799798665735
 10
2082.4399793539064
 20
464.29599542318124
 10
2078.8839853200925
 20
447.02399987874753
 10
2075.0739801321047
 20
437.37201471029067
 10
2070.2479780111325
 20
428.73599786458692
 10
2057.8019845876711
 20
413.49601525960657
 10
2005.477980414393
 20
367.26798791585657
 10
1992.2699821386359
 20
353.55201501546617
 10
1988.4599817190192
 20
347.20199365316125
 10
1985.4119813833261
 20
338.31199426351282
 10
1968.6479819211984
 20
282.94000405965562
 10
1963.8219821099067
 20
255.25399942098349
 10
1963.0599821004889
 20
231.37799997030018
 10
1964.8379820976279
 20
38.59200019536717
 10
1965.8539820108438
 20
32.495999523980224
 10
1967.3779821786902
 20
26.654000470025036
 10
1969.6639818344138
 20
20.05000014005395
 10
1973.2199824247382
 20
14.207999894006196
 10
1976.5219819936774
 20
10.144000241143541
 10
1985.4119813833261
 20
4.5560001224112057
 10
1992.5239813718817
 20
1.7619999885389392
 10
2000.1439822111154
 20
0.99999999774797121
 10
2369.9679792318366
 20
0.99999999774806625
 10
2377.841972151758
 20
1.5080000102352404
 10
2382.6679838094733
 20
3.2860000818801445
 10
2388.2559812459963
 20
7.0959999054502836
  0
ENDSEC
  0
SECTION
  2
OBJECTS
  0
DICTIONARY
  5
C
330
0
100
AcDbDictionary
280
0
281
1
  3
ACAD_SCALELIST
350
35
  3
ACAD_COLOR
350
47
  3
ACAD_FIELDLIST
350
48
  3
ACAD_GROUP
350
D
  3
ACAD_IMAGE_DICT
350
49
  3
ACAD_LAYOUT
350
1A
  3
ACAD_MATERIAL
350
4A
  3
ACAD_MLEADERSTYLE
350
4B
  3
ACAD_MLINESTYLE
350
17
  3
ACAD_PLOTSETTINGS
350
19
  3
ACAD_PLOTSTYLENAME
350
E
  3
ACAD_TABLESTYLE
350
4D
  3
ACDB_RECOMPOSE_DATA
350
51
  3
AcDbVariableDictionary
350
52
  3
ACAD_VISUALSTYLE
350
55
  3
DWGPROPS
350
56
  0
DICTIONARY
  5
4F
330
4E
100
AcDbDictionary
280
0
281
1
  3
ACAD_ROUNDTRIP_2008_TABLESTYLE_CELLSTYLEMAP
360
50
  0
DICTIONARY
  5
35
102
{ACAD_REACTORS
330
C
102
}
330
C
100
AcDbDictionary
280
0
281
1
  0
DICTIONARY
  5
47
102
{ACAD_REACTORS
330
C
102
}
330
C
100
AcDbDictionary
280
0
281
1
  0
FIELDLIST
  5
48
102
{ACAD_REACTORS
330
C
102
}
330
C
100
AcDbIdSet
100
AcDbFieldList
  0
DICTIONARY
  5
D
102
{ACAD_REACTORS
330
C
102
}
330
C
100
AcDbDictionary
280
0
281
1
  0
DICTIONARY
  5
49
102
{ACAD_REACTORS
330
C
102
}
330
C
100
AcDbDictionary
280
0
281
1
  0
DICTIONARY
  5
1A
102
{ACAD_REACTORS
330
C
102
}
330
C
100
AcDbDictionary
280
0
281
1
  3
Layout1
350
1E
  3
Model
350
22
  0
DICTIONARY
  5
4A
102
{ACAD_REACTORS
330
C
102
}
330
C
100
AcDbDictionary
280
0
281
1
  0
DICTIONARY
  5
4B
102
{ACAD_REACTORS
330
C
102
}
330
C
100
AcDbDictionary
280
0
281
1
  3
Standard
350
4C
  0
DICTIONARY
  5
17
102
{ACAD_REACTORS
330
C
102
}
330
C
100
AcDbDictionary
280
0
281
1
  3
STANDARD
350
18
  0
DICTIONARY
  5
19
102
{ACAD_REACTORS
330
C
102
}
330
C
100
AcDbDictionary
280
0
281
1
  0
ACDBDICTIONARYWDFLT
  5
E
102
{ACAD_REACTORS
330
C
102
}
330
C
100
AcDbDictionary
280
0
281
1
  3
Normal
350
F
100
AcDbDictionaryWithDefault
340
F
  0
ACDBPLACEHOLDER
  5
F
102
{ACAD_REACTORS
330
E
102
}
330
E
  0
DICTIONARY
  5
4D
102
{ACAD_REACTORS
330
C
102
}
330
C
100
AcDbDictionary
280
0
281
1
  3
Standard
350
4E
  0
XRECORD
  5
51
102
{ACAD_REACTORS
330
C
102
}
330
C
100
AcDbXrecord
280
1
 90
1
330
4E
  0
DICTIONARY
  5
52
102
{ACAD_REACTORS
330
C
102
}
330
C
100
AcDbDictionary
280
0
281
1
  3
DIMASSOC
350
53
  3
HIDETEXT
350
54
  0
DICTIONARY
  5
55
102
{ACAD_REACTORS
330
C
102
}
330
C
100
AcDbDictionary
280
0
281
1
  0
XRECORD
  5
56
102
{ACAD_REACTORS
330
C
102
}
330
C
100
AcDbXrecord
280
0
  1
DWGPROPS COOKIE
  2

  3

  4

  6

  7

  8

  9

300
=
301
=
302
=
303
=
304
=
305
=
306
=
307
=
308
=
309
=
 40
0
 41
2460962.9265243635
 42
2460962.9265243635
  1

 90
0
  0
CELLSTYLEMAP
  5
50
102
{ACAD_REACTORS
330
4F
102
}
330
4F
100
AcDbCellStyleMap
 90
3
300
CELLSTYLE
  1
TABLEFORMAT_BEGIN
 90
5
170
0
309
TABLEFORMAT_END
  1
CELLSTYLE_BEGIN
 90
3
 91
2
300
_DATA
309
CELLSTYLE_END
300
CELLSTYLE
  1
TABLEFORMAT_BEGIN
 90
5
170
0
309
TABLEFORMAT_END
  1
CELLSTYLE_BEGIN
 90
1
 91
2
300
_TITLE
309
CELLSTYLE_END
300
CELLSTYLE
  1
TABLEFORMAT_BEGIN
 90
5
170
0
309
TABLEFORMAT_END
  1
CELLSTYLE_BEGIN
 90
2
 91
2
300
_HEADER
309
CELLSTYLE_END
  0
LAYOUT
  5
1E
102
{ACAD_REACTORS
330
1A
102
}
330
1A
100
AcDbPlotSettings
  1

  2
C:\Program Files\AutoCAD 2002\plotters\DWF ePlot (optimized for plotting).pc3
  4

  6

 40
0
 41
0
 42
0
 43
0
 44
0
 45
0
 46
0
 47
0
 48
0
 49
0
140
0
141
0
142
1
143
1
 70
688
 72
1
 73
1
 74
1
  7
acad.stb
 75
16
 76
0
 77
0
 78
0
147
1
148
0
149
0
100
AcDbLayout
  1
Layout1
 70
1
 71
1
 10
0
 20
0
 11
420
 21
297
 12
0
 22
0
 32
0
 14
0
 24
0
 34
0
 15
0
 25
0
 35
0
146
0
 13
0
 23
0
 33
0
 16
1
 26
0
 36
0
 17
0
 27
1
 37
0
 76
0
330
30
  0
LAYOUT
  5
22
102
{ACAD_REACTORS
330
1A
102
}
330
1A
100
AcDbPlotSettings
  1

  2
C:\Program Files\AutoCAD 2002\plotters\DWF ePlot (optimized for plotting).pc3
  4

  6

 40
0
 41
0
 42
0
 43
0
 44
0
 45
0
 46
0
 47
0
 48
0
 49
0
140
0
141
0
142
1
143
1
 70
1712
 72
1
 73
1
 74
0
  7
acad.stb
 75
0
 76
0
 77
0
 78
0
147
1
148
0
149
0
100
AcDbLayout
  1
Model
 70
1
 71
0
 10
0
 20
0
 11
12
 21
9
 12
0
 22
0
 32
0
 14
0
 24
0
 34
0
 15
0
 25
0
 35
0
146
0
 13
0
 23
0
 33
0
 16
1
 26
0
 36
0
 17
0
 27
1
 37
0
 76
0
330
1F
  0
MLEADERSTYLE
  5
4C
102
{ACAD_REACTORS
330
4B
102
}
330
4B
100
AcDbMLeaderStyle
170
2
171
1
172
0
 90
2
 40
0
 41
0
173
1
 91
0
340
0
 92
-2
290
1
 42
0.09
292
1
 43
0.36
  3
Standard
341
0
 44
0.18
300

342
0
174
1
178
1
175
1
176
0
 93
0
 45
0.18
292
0
297
0
 46
0
343
0
 94
0
 47
1
 49
1
140
1
293
1
141
0
294
1
177
0
142
1
295
0
296
0
143
0.125
  0
MLINESTYLE
  5
18
102
{ACAD_REACTORS
330
17
102
}
330
17
100
AcDbMlineStyle
  2
STANDARD
 70
0
  3

 51
90
 52
90
 71
2
 49
0.5
 62
0
  6
ByLayer
 49
-0.5
 62
0
  6
ByLayer
  0
TABLESTYLE
  5
4E
102
{ACAD_XDICTIONARY
360
4F
102
}
102
{ACAD_REACTORS
330
4D
102
}
330
4D
100
AcDbTableStyle
  3

 70
0
 71
0
 40
0.06
 41
0.06
280
0
281
0
  7
Standard
140
0.18
170
1
 62
0
283
0
 90
512
 91
0
274
-2
284
1
 64
0
275
-2
285
1
 65
0
276
-2
286
1
 66
0
277
-2
287
1
 67
0
278
-2
288
1
 68
0
279
-2
289
1
 69
0
  7
Standard
140
0.18
170
1
 62
0
283
0
 90
512
 91
0
274
-2
284
1
 64
0
275
-2
285
1
 65
0
276
-2
286
1
 66
0
277
-2
287
1
 67
0
278
-2
288
1
 68
0
279
-2
289
1
 69
0
  7
Standard
140
0.18
170
1
 62
0
283
0
 90
512
 91
0
274
-2
284
1
 64
0
275
-2
285
1
 65
0
276
-2
286
1
 66
0
277
-2
287
1
 67
0
278
-2
288
1
 68
0
279
-2
289
1
 69
0
  0
DICTIONARYVAR
  5
53
102
{ACAD_REACTORS
330
52
102
}
330
52
100
DictionaryVariables
280
0
  1
1
  0
DICTIONARYVAR
  5
54
102
{ACAD_REACTORS
330
52
102
}
330
52
100
DictionaryVariables
280
0
  1
2
  0
ENDSEC
999
Created By CadLib version 4.0.38.30
999
CadLib website: www.woutware.com
  0
EOF
