  0
SECTION
  2
HEADER
  9
$ACADVER
  1
AC1015
  9
$DWGCODEPAGE
  3
ansi_1252
  9
$INSBASE
 10
0
 20
0
 30
0
  9
$EXTMIN
 10
1907.4338208290044
 20
32.908778621027238
 30
0
  9
$EXTMAX
 10
2498.9998989476567
 20
1998.9999751874025
 30
0
  9
$LIMMIN
 10
0
 20
0
  9
$LIMMAX
 10
12
 20
9
  9
$SNAPMODE
 70
0
  9
$SNAPUNIT
 10
1
 20
1
  9
$SNAPBASE
 10
0
 20
0
  9
$SNAPANG
 50
0
  9
$SNAPSTYLE
 70
0
  9
$SNAPISOPAIR
 70
0
  9
$ORTHOMODE
 70
0
  9
$REGENMODE
 70
1
  9
$FILLMODE
 70
1
  9
$QTEXTMODE
 70
0
  9
$MIRRTEXT
 70
1
  9
$LTSCALE
 40
1
  9
$OSMODE
 70
0
  9
$ATTMODE
 70
1
  9
$TEXTSIZE
 40
0.2
  9
$TRACEWID
 40
0.05
  9
$TEXTSTYLE
  7
Standard
  9
$CLAYER
  8
0
  9
$CELTYPE
  6
ByLayer
  9
$CECOLOR
 62
256
  9
$CELTSCALE
 40
1
  9
$DISPSILH
 70
0
  9
$DIMSCALE
 40
1
  9
$DIMASZ
 40
0.18
  9
$DIMEXO
 40
0.0625
  9
$DIMDLI
 40
0.38
  9
$DIMRND
 40
0
  9
$DIMDLE
 40
0
  9
$DIMEXE
 40
0.18
  9
$DIMTP
 40
0
  9
$DIMTM
 40
0
  9
$DIMTXT
 40
0.18
  9
$DIMCEN
 40
0.09
  9
$DIMTSZ
 40
0
  9
$DIMTOL
 70
0
  9
$DIMLIM
 70
0
  9
$DIMTIH
 70
1
  9
$DIMTOH
 70
1
  9
$DIMSE1
 70
0
  9
$DIMSE2
 70
0
  9
$DIMTAD
 70
0
  9
$DIMZIN
 70
0
  9
$DIMBLK
  1

  9
$DIMASO
 70
1
  9
$DIMSHO
 70
1
  9
$DIMPOST
  1

  9
$DIMAPOST
  1

  9
$DIMALT
 70
0
  9
$DIMALTD
 70
2
  9
$DIMALTF
 40
0.03937007874015748
  9
$DIMLFAC
 40
1
  9
$DIMTOFL
 70
0
  9
$DIMTVP
 40
0
  9
$DIMTIX
 70
0
  9
$DIMSOXD
 70
0
  9
$DIMSAH
 70
0
  9
$DIMBLK1
  1

  9
$DIMBLK2
  1

  9
$DIMSTYLE
  2
Standard
  9
$DIMCLRD
 70
0
  9
$DIMCLRE
 70
0
  9
$DIMCLRT
 70
0
  9
$DIMTFAC
 40
1
  9
$DIMGAP
 40
0.09
  9
$DIMJUST
 70
0
  9
$DIMSD1
 70
0
  9
$DIMSD2
 70
0
  9
$DIMTOLJ
 70
1
  9
$DIMTZIN
 70
0
  9
$DIMALTZ
 70
0
  9
$DIMALTTZ
 70
0
  9
$DIMUPT
 70
0
  9
$DIMDEC
 70
4
  9
$DIMTDEC
 70
4
  9
$DIMALTU
 70
2
  9
$DIMALTTD
 70
0
  9
$DIMTXSTY
  7
Standard
  9
$DIMAUNIT
 70
0
  9
$DIMADEC
 70
0
  9
$DIMALTRND
 40
0
  9
$DIMAZIN
 70
0
  9
$DIMDSEP
 70
46
  9
$DIMATFIT
 70
0
  9
$DIMFRAC
 70
0
  9
$DIMLDRBLK
  1

  9
$DIMLUNIT
 70
2
  9
$DIMLWD
 70
-2
  9
$DIMLWE
 70
-2
  9
$LUNITS
 70
2
  9
$LUPREC
 70
4
  9
$SKETCHINC
 40
0.1
  9
$FILLETRAD
 40
0
  9
$AUNITS
 70
0
  9
$AUPREC
 70
0
  9
$MENU
  1
.
  9
$ELEVATION
 40
0
  9
$PELEVATION
 40
0
  9
$THICKNESS
 40
0
  9
$LIMCHECK
 70
0
  9
$CHAMFERA
 40
0.5
  9
$CHAMFERB
 40
0.5
  9
$CHAMFERC
 40
0
  9
$CHAMFERD
 40
0
  9
$SKPOLY
 70
0
  9
$TDCREATE
 40
2460962.9115971411
  9
$TDUCREATE
 40
2460962.8699304746
  9
$TDUPDATE
 40
2460962.9115971411
  9
$TDUUPDATE
 40
2460962.8699304746
  9
$TDINDWG
 40
0
  9
$TDUSRTIMER
 40
1.1574074074074074E-08
  9
$USRTIMER
 70
1
  9
$ANGBASE
 50
0
  9
$ANGDIR
 70
1
  9
$PDMODE
 70
0
  9
$PDSIZE
 40
0
  9
$PLINEWID
 40
0
  9
$SPLFRAME
 70
0
  9
$SPLINETYPE
 70
6
  9
$SPLINESEGS
 70
8
  9
$HANDSEED
  5
57
  9
$SURFTAB1
 70
6
  9
$SURFTAB2
 70
6
  9
$SURFTYPE
 70
6
  9
$SURFU
 70
6
  9
$SURFV
 70
6
  9
$UCSORG
 10
0
 20
0
 30
0
  9
$UCSXDIR
 10
1
 20
0
 30
0
  9
$UCSYDIR
 10
0
 20
1
 30
0
  9
$UCSORTHOREF
  2

  9
$UCSORTHOVIEW
 70
0
  9
$UCSORGTOP
 10
0
 20
0
 30
0
  9
$UCSORGBOTTOM
 10
0
 20
0
 30
0
  9
$UCSORGLEFT
 10
0
 20
0
 30
0
  9
$UCSORGRIGHT
 10
0
 20
0
 30
0
  9
$UCSORGFRONT
 10
0
 20
0
 30
0
  9
$UCSORGBACK
 10
0
 20
0
 30
0
  9
$PUCSORG
 10
0
 20
0
 30
0
  9
$PUCSXDIR
 10
1
 20
0
 30
0
  9
$PUCSYDIR
 10
0
 20
1
 30
0
  9
$PUCSORTHOREF
  2

  9
$PUCSORTHOVIEW
 70
0
  9
$PUCSORGTOP
 10
0
 20
0
 30
0
  9
$PUCSORGBOTTOM
 10
0
 20
0
 30
0
  9
$PUCSORGLEFT
 10
0
 20
0
 30
0
  9
$PUCSORGRIGHT
 10
0
 20
0
 30
0
  9
$PUCSORGFRONT
 10
0
 20
0
 30
0
  9
$PUCSORGBACK
 10
0
 20
0
 30
0
  9
$USERI1
 70
0
  9
$USERI2
 70
0
  9
$USERI3
 70
0
  9
$USERI4
 70
0
  9
$USERI5
 70
0
  9
$USERR1
 40
0
  9
$USERR2
 40
0
  9
$USERR3
 40
0
  9
$USERR4
 40
0
  9
$USERR5
 40
0
  9
$WORLDVIEW
 70
1
  9
$SHADEDGE
 70
3
  9
$SHADEDIF
 70
70
  9
$TILEMODE
 70
1
  9
$MAXACTVP
 70
48
  9
$PINSBASE
 10
0
 20
0
 30
0
  9
$PLIMCHECK
 70
0
  9
$PEXTMIN
 10
1E+20
 20
1E+20
 30
1E+20
  9
$PEXTMAX
 10
-1E+20
 20
-1E+20
 30
-1E+20
  9
$PLIMMAX
 10
0
 20
0
  9
$PLIMMIN
 10
0
 20
0
  9
$UNITMODE
 70
0
  9
$VISRETAIN
 70
1
  9
$PLINEGEN
 70
1
  9
$PSLTSCALE
 70
1
  9
$TREEDEPTH
 70
3020
  9
$CMLSTYLE
  2
STANDARD
  9
$CMLJUST
 70
0
  9
$CMLSCALE
 40
1
  9
$PROXYGRAPHICS
 70
1
  9
$MEASUREMENT
 70
1
  9
$CELWEIGHT
370
-1
  9
$ENDCAPS
280
0
  9
$JOINSTYLE
280
0
  9
$LWDISPLAY
290
1
  9
$INSUNITS
 70
4
  9
$HYPERLINKBASE
  1

  9
$XEDIT
290
1
  9
$CEPSNTYPE
380
0
  9
$PSTYLEMODE
290
0
  9
$FINGERPRINTGUID
  2

  9
$VERSIONGUID
  2

  9
$EXTNAMES
290
1
  9
$PSVPSCALE
 40
0
  9
$CSHADOW
280
0
  9
$SHADOWPLANELOCATION
 40
0
  0
ENDSEC
  0
SECTION
  2
CLASSES
  0
CLASS
  1
RASTERVARIABLES
  2
AcDbRasterVariables
  3
ISM
 90
0
280
0
281
0
  0
CLASS
  1
IMAGEDEF
  2
AcDbRasterImageDef
  3
ISM
 90
0
280
0
281
0
  0
CLASS
  1
IMAGEDEF_REACTOR
  2
AcDbRasterImageDefReactor
  3
ISM
 90
1
280
0
281
0
  0
CLASS
  1
IMAGE
  2
AcDbRasterImage
  3
ISM
 90
127
280
0
281
1
  0
CLASS
  1
ACAD_EVALUATION_GRAPH
  2
AcDbEvalGraph
  3
ObjectDBX Classes
 90
1153
280
0
281
0
  0
CLASS
  1
BLOCKPOINTPARAMETER
  2
AcDbBlockPointParameter
  3
ObjectDBX Classes
 90
1153
280
0
281
0
  0
CLASS
  1
BLOCKBASEPOINTPARAMETER
  2
AcDbBlockBasepointParameter
  3
ObjectDBX Classes
 90
1153
280
0
281
0
  0
CLASS
  1
BLOCKLOOKUPPARAMETER
  2
AcDbBlockLookupParameter
  3
ObjectDBX Classes
 90
1153
280
0
281
0
  0
CLASS
  1
BLOCKVISIBILITYPARAMETER
  2
AcDbBlockVisibilityParameter
  3
ObjectDBX Classes
 90
1153
280
0
281
0
  0
CLASS
  1
BLOCKPROPERTIESTABLE
  2
AcDbBlockPropertiesTable
  3
ObjectDBX Classes
 90
1153
280
0
281
0
  0
CLASS
  1
BLOCKPOLARPARAMETER
  2
AcDbBlockPolarParameter
  3
ObjectDBX Classes
 90
1153
280
0
281
0
  0
CLASS
  1
BLOCKROTATIONPARAMETER
  2
AcDbBlockRotationParameter
  3
ObjectDBX Classes
 90
1153
280
0
281
0
  0
CLASS
  1
BLOCKLINEARPARAMETER
  2
AcDbBlockLinearParameter
  3
ObjectDBX Classes
 90
1153
280
0
281
0
  0
CLASS
  1
BLOCKXYPARAMETER
  2
AcDbBlockXYParameter
  3
ObjectDBX Classes
 90
1153
280
0
281
0
  0
CLASS
  1
BLOCKFLIPPARAMETER
  2
AcDbBlockFlipParameter
  3
ObjectDBX Classes
 90
1153
280
0
281
0
  0
CLASS
  1
BLOCKALIGNMENTPARAMETER
  2
AcDbBlockAlignmentParameter
  3
ObjectDBX Classes
 90
1153
280
0
281
0
  0
CLASS
  1
BLOCKROTATEACTION
  2
AcDbBlockRotateAction
  3
ObjectDBX Classes
 90
1153
280
0
281
0
  0
CLASS
  1
BLOCKSCALEACTION
  2
AcDbBlockScaleAction
  3
ObjectDBX Classes
 90
1153
280
0
281
0
  0
CLASS
  1
BLOCKARRAYACTION
  2
AcDbBlockArrayAction
  3
ObjectDBX Classes
 90
1153
280
0
281
0
  0
CLASS
  1
BLOCKFLIPACTION
  2
AcDbBlockFlipAction
  3
ObjectDBX Classes
 90
1153
280
0
281
0
  0
CLASS
  1
BLOCKLOOKUPACTION
  2
AcDbBlockLookupAction
  3
ObjectDBX Classes
 90
1153
280
0
281
0
  0
CLASS
  1
BLOCKMOVEACTION
  2
AcDbBlockMoveAction
  3
ObjectDBX Classes
 90
1153
280
0
281
0
  0
CLASS
  1
BLOCKPOLARSTRETCHACTION
  2
AcDbBlockPolarStretchAction
  3
ObjectDBX Classes
 90
1153
280
0
281
0
  0
CLASS
  1
BLOCKSTRETCHACTION
  2
AcDbBlockStretchAction
  3
ObjectDBX Classes
 90
1153
280
0
281
0
  0
CLASS
  1
BLOCKALIGNMENTGRIP
  2
AcDbBlockAlignmentGrip
  3
ObjectDBX Classes
 90
1153
280
0
281
0
  0
CLASS
  1
BLOCKFLIPGRIP
  2
AcDbBlockFlipGrip
  3
ObjectDBX Classes
 90
1153
280
0
281
0
  0
CLASS
  1
ACDB_BLOCKREPRESENTATION_DATA
  2
AcDbBlockRepresentationData
  3
ObjectDBX Classes
 90
1153
280
0
281
0
  0
CLASS
  1
ACDB_DYNAMICBLOCKPURGEPREVENTER_VERSION
  2
AcDbDynamicBlockPurgePreventer
  3
ObjectDBX Classes
 90
1153
280
0
281
0
  0
CLASS
  1
BLOCKLINEARGRIP
  2
AcDbBlockLinearGrip
  3
ObjectDBX Classes
 90
1153
280
0
281
0
  0
CLASS
  1
BLOCKLOOKUPGRIP
  2
AcDbBlockLookupGrip
  3
ObjectDBX Classes
 90
1153
280
0
281
0
  0
CLASS
  1
BLOCKPOLARGRIP
  2
AcDbBlockPolarGrip
  3
ObjectDBX Classes
 90
1153
280
0
281
0
  0
CLASS
  1
BLOCKPROPERTIESTABLEGRIP
  2
AcDbBlockPropertiesTableGrip
  3
ObjectDBX Classes
 90
1153
280
0
281
0
  0
CLASS
  1
BLOCKROTATIONGRIP
  2
AcDbBlockRotationGrip
  3
ObjectDBX Classes
 90
1153
280
0
281
0
  0
CLASS
  1
BLOCKVISIBILITYGRIP
  2
AcDbBlockVisibilityGrip
  3
ObjectDBX Classes
 90
1153
280
0
281
0
  0
CLASS
  1
BLOCKXYGRIP
  2
AcDbBlockXYGrip
  3
ObjectDBX Classes
 90
1153
280
0
281
0
  0
CLASS
  1
BLOCKGRIPLOCATIONCOMPONENT
  2
AcDbBlockGripExpr
  3
ObjectDBX Classes
 90
1153
280
0
281
0
  0
CLASS
  1
ACDB_DYNAMICBLOCKPROXYNODE
  2
AcDbDynamicBlockProxyNode
  3
ObjectDBX Classes
 90
1153
280
0
281
0
  0
CLASS
  1
BLOCKLINEARCONSTRAINTPARAMETER
  2
AcDbBlockLinearConstraintParameter
  3
ObjectDBX Classes
 90
1153
280
0
281
0
  0
CLASS
  1
BLOCKHORIZONTALCONSTRAINTPARAMETER
  2
AcDbBlockHorizontalConstraintParameter
  3
ObjectDBX Classes
 90
1153
280
0
281
0
  0
CLASS
  1
BLOCKVERTICALCONSTRAINTPARAMETER
  2
AcDbBlockVerticalConstraintParameter
  3
ObjectDBX Classes
 90
1153
280
0
281
0
  0
CLASS
  1
BLOCKALIGNEDCONSTRAINTPARAMETER
  2
AcDbBlockAlignedConstraintParameter
  3
ObjectDBX Classes
 90
1153
280
0
281
0
  0
CLASS
  1
BLOCKANGULARCONSTRAINTPARAMETER
  2
AcDbBlockAngularConstraintParameter
  3
ObjectDBX Classes
 90
1153
280
0
281
0
  0
CLASS
  1
BLOCKDIAMETRICCONSTRAINTPARAMETER
  2
AcDbBlockDiametricConstraintParameter
  3
ObjectDBX Classes
 90
1153
280
0
281
0
  0
CLASS
  1
BLOCKRADIALCONSTRAINTPARAMETER
  2
AcDbBlockRadialConstraintParameter
  3
ObjectDBX Classes
 90
1153
280
0
281
0
  0
ENDSEC
  0
SECTION
  2
TABLES
  0
TABLE
  2
VPORT
  5
8
330
0
100
AcDbSymbolTable
 70
1
  0
VPORT
  5
32
330
8
100
AcDbSymbolTableRecord
100
AcDbViewportTableRecord
  2
*Active
 70
64
 10
0
 20
0
 11
1
 21
1
 12
2203.2168598883304
 22
1015.9543769042149
 13
0
 23
0
 14
1
 24
1
 15
0
 25
0
 16
0
 26
0
 36
1
 17
0
 27
0
 37
0
 40
1966.0911965663752
 41
0.3008843532547098
 42
50
 43
0
 44
0
 50
0
 51
0
 71
0
 72
20000
 73
20000
 74
1
 75
0
 76
0
 77
0
 78
0
281
0
 65
1
110
0
120
0
130
0
111
1
121
0
131
0
112
0
122
1
132
0
 79
0
146
0
  0
ENDTAB
  0
TABLE
  2
LTYPE
  5
5
100
AcDbSymbolTable
 70
3
  0
LTYPE
  5
16
330
5
100
AcDbSymbolTableRecord
100
AcDbLinetypeTableRecord
  2
Continuous
  3
Solid line
 70
64
 72
65
 73
0
 40
0
  0
LTYPE
  5
14
330
5
100
AcDbSymbolTableRecord
100
AcDbLinetypeTableRecord
  2
ByBlock
  3

 70
64
 72
65
 73
0
 40
0
  0
LTYPE
  5
15
330
5
100
AcDbSymbolTableRecord
100
AcDbLinetypeTableRecord
  2
ByLayer
  3

 70
64
 72
65
 73
0
 40
0
  0
ENDTAB
  0
TABLE
  2
LAYER
  5
2
100
AcDbSymbolTable
 70
2
  0
LAYER
  5
10
330
2
100
AcDbSymbolTableRecord
100
AcDbLayerTableRecord
 70
64
  2
0
 62
7
  6
Continuous
370
-3
390
F
  0
LAYER
  5
27
330
2
100
AcDbSymbolTableRecord
100
AcDbLayerTableRecord
 70
64
  2
DEFPOINTS
 62
7
  6
Continuous
290
0
370
-3
390
F
  0
ENDTAB
  0
TABLE
  2
STYLE
  5
3
100
AcDbSymbolTable
 70
1
  0
STYLE
  5
11
330
3
100
AcDbSymbolTableRecord
100
AcDbTextStyleTableRecord
  2
Standard
 70
64
 40
0
 41
1
 50
0
 71
0
 42
0.2
  3
txt.shx
  0
ENDTAB
  0
TABLE
  2
VIEW
  5
6
100
AcDbSymbolTable
 70
0
  0
ENDTAB
  0
TABLE
  2
UCS
  5
7
100
AcDbSymbolTable
 70
0
  0
ENDTAB
  0
TABLE
  2
APPID
  5
9
330
0
100
AcDbSymbolTable
 70
2
  0
APPID
  5
12
330
0
100
AcDbSymbolTableRecord
100
AcDbRegAppTableRecord
  2
ACAD
 70
64
  0
APPID
  5
55
330
0
100
AcDbSymbolTableRecord
100
AcDbRegAppTableRecord
  2
ACAD_MLEADERVER
 70
64
  0
ENDTAB
  0
TABLE
  2
DIMSTYLE
  5
A
330
0
100
AcDbSymbolTable
 70
1
100
AcDbDimStyleTable
 71
0
  0
DIMSTYLE
105
31
330
A
100
AcDbSymbolTableRecord
100
AcDbDimStyleTableRecord
  2
Standard
 70
64
  3

  4

 40
1
 41
0.18
 42
0.0625
 43
0.38
 44
0.18
 45
0
 46
0
 47
0
 48
0
140
0.18
141
0.09
142
0
143
1
144
1
145
0
146
1
147
0.09
148
0
 71
0
 72
0
 73
1
 74
1
 75
0
 76
0
 77
0
 78
0
 79
0
170
0
171
2
172
0
173
0
174
0
175
0
179
0
271
4
272
4
273
2
274
0
275
0
276
0
277
2
278
46
279
0
280
0
281
0
282
0
283
1
284
0
285
0
286
0
288
0
289
0
340
11
371
-2
372
-2
  0
ENDTAB
  0
TABLE
  2
BLOCK_RECORD
  5
1
330
0
100
AcDbSymbolTable
 70
3
  0
BLOCK_RECORD
  5
1F
330
1
100
AcDbSymbolTableRecord
100
AcDbBlockTableRecord
  2
*Model_Space
340
22
  0
BLOCK_RECORD
  5
2E
330
1
100
AcDbSymbolTableRecord
100
AcDbBlockTableRecord
  2
*Paper_Space
340
1E
  0
ENDTAB
  0
ENDSEC
  0
SECTION
  2
BLOCKS
  0
BLOCK
  5
20
330
1F
100
AcDbEntity
  8
0
100
AcDbBlockBegin
  2
*Model_Space
 70
64
 10
0
 20
0
 30
0
  3
*Model_Space
  0
ENDBLK
  5
21
330
1F
100
AcDbEntity
  8
0
100
AcDbBlockEnd
  0
BLOCK
  5
2F
330
2E
100
AcDbEntity
  8
0
 67
1
100
AcDbBlockBegin
  2
*Paper_Space
 70
64
 10
0
 20
0
 30
0
  3
*Paper_Space
  0
ENDBLK
  5
30
330
2E
100
AcDbEntity
  8
0
100
AcDbBlockEnd
  0
ENDSEC
  0
SECTION
  2
ENTITIES
  0
LWPOLYLINE
  5
28
330
1F
100
AcDbEntity
  8
0
 62
18
100
AcDbPolyline
 90
93
 70
1
 10
2386.8841611000003
 20
1584.8212594156844
 10
2326.5592251869143
 20
1583.3988350992786
 10
2318.5327969642581
 20
1584.7958535318958
 10
2315.1037655921878
 20
1586.2436837320913
 10
2311.2938748451179
 20
1588.7582558756458
 10
2308.3220730873049
 20
1592.6698464518174
 10
2305.9851895423831
 20
1596.8354195719351
 10
2302.5308285804695
 20
1604.6078652506455
 10
2295.9267865272463
 20
1615.1742715006458
 10
2286.2494336219729
 20
1622.2100228434192
 10
2280.9154568763674
 20
1623.9626473551384
 10
2272.4572049232429
 20
1624.7246712809197
 10
2258.4110318275393
 20
1623.5816353922476
 10
2019.9050198646489
 20
1601.2804574137317
 10
1984.9292050453132
 20
1599.756485856115
 10
1979.7476254554692
 20
1598.7912911539659
 10
1975.3788243385259
 20
1597.2926491861929
 10
1972.2038327308599
 20
1595.4129952555286
 10
1967.1746312232915
 20
1590.8664864664665
 10
1962.6026021095222
 20
1584.0084237223257
 10
1961.0024129005374
 20
1580.0715035563096
 10
1959.6562253089853
 20
1574.7628182535757
 10
1959.2752133460945
 20
1571.2069100504505
 10
1961.1294232459966
 20
1441.4891213541612
 10
1959.3514119239755
 20
1434.2755288248645
 10
1956.2525998207036
 20
1427.4428719645125
 10
1952.544218167872
 20
1422.5660103922478
 10
1949.5978222938481
 20
1420.7878274088484
 10
1942.4858151527351
 20
1418.4507912760364
 10
1926.9664059730474
 20
1415.9617776041616
 10
1919.7528134437509
 20
1412.5079506998648
 10
1917.6700268836919
 20
1411.1618966227165
 10
1913.8346348854009
 20
1406.4879006510366
 10
1909.7452221961919
 20
1398.7408608561148
 10
1907.9926167579595
 20
1392.4927682047478
 10
1907.4338208290044
 20
1387.2088784342398
 10
1907.5354062171884
 20
1374.4327706461538
 10
1909.8976193519538
 20
1177.5577706461538
 10
1910.4818211646977
 20
1172.6297921305288
 10
1912.9710064979497
 20
1166.1019295817007
 10
1914.6728192420903
 20
1162.9778451090444
 10
1916.8825970741218
 20
1160.1587838297476
 10
1922.0388280006352
 20
1156.4249581461538
 10
1927.5506268592783
 20
1153.6817330484978
 10
1936.0342084022466
 20
1151.2938851481067
 10
1939.0060101600591
 20
1150.9130257731067
 10
1943.5780011268562
 20
1150.9130257731067
 10
2331.7916165443362
 20
1154.2408150797476
 10
2336.871648892969
 20
1155.0528878336547
 10
2345.0250302406253
 20
1158.4569710856065
 10
2347.4633847328128
 20
1160.3368538981065
 10
2354.2960415931643
 20
1169.9378365641226
 10
2356.4550076576174
 20
1176.0588997965458
 10
2356.7598019691409
 20
1178.8018197184194
 10
2356.7598019691409
 20
1181.8497628336536
 10
2355.6422482582034
 20
1209.2818612223252
 10
2353.8134060951174
 20
1214.1077584391226
 10
2349.6732388587889
 20
1220.0008553629505
 10
2344.1613827796878
 20
1225.4107064371694
 10
2339.1068326087893
 20
1228.1798714762313
 10
2336.3636075111331
 20
1229.246918595373
 10
2332.4774228187503
 20
1230.186860001623
 10
2302.50542269668
 20
1231.7359322672476
 10
2299.4828091712893
 20
1232.9297799234976
 10
2292.1676312538088
 20
1237.1969002848252
 10
2289.2466031166018
 20
1239.86383143717
 10
2287.1892605873049
 20
1243.4197396402944
 10
2284.9540005775393
 20
1250.5567330484976
 10
2284.9540005775393
 20
1331.1258858805286
 10
2285.5636273475588
 20
1334.5548409586536
 10
2287.0876370521487
 20
1338.6698311930284
 10
2291.2786160560549
 20
1344.8419350748648
 10
2294.0726147743167
 20
1347.3057717447866
 10
2299.2541943641604
 20
1349.7437447672478
 10
2305.02007113418
 20
1350.8868569498648
 10
2311.4208279701174
 20
1351.2178963785752
 10
2475.7334195228518
 20
1351.7757577067002
 10
2480.2800046058596
 20
1352.8428811197866
 10
2485.6285153480471
 20
1355.9185189371694
 10
2490.3235684486331
 20
1359.9213570719348
 10
2494.2063199134768
 20
1364.7162026529898
 10
2497.1455441566409
 20
1370.1408547525984
 10
2498.6950741859378
 20
1375.2208108072866
 10
2498.9997922035159
 20
1378.1917733317005
 10
2498.8728390785159
 20
1393.8387459879502
 10
2498.1869565101565
 20
1537.9328316813094
 10
2494.029852017969
 20
1569.6376198893176
 10
2492.1925412269534
 20
1573.3404702311148
 10
2488.6068783851565
 20
1576.9716805582627
 10
2484.3227444740237
 20
1579.7445840006453
 10
2479.5415555091804
 20
1581.5288704996697
 10
2474.4882260414065
 20
1582.2404641275982
 10
2420.336004361719
 20
1582.8908700113877
  0
CIRCLE
  5
29
330
1F
100
AcDbEntity
  8
0
 62
18
100
AcDbCircle
 10
1967.8449498268071
 20
1369.3888253336536
 30
0
 40
12.00000047683727
  0
CIRCLE
  5
2A
330
1F
100
AcDbEntity
  8
0
 62
18
100
AcDbCircle
 10
1967.8260861488286
 20
1185.8080453043567
 30
0
 40
12.00000047683727
  0
LWPOLYLINE
  5
2B
330
1F
100
AcDbEntity
  8
0
 62
18
100
AcDbPolyline
 90
89
 70
1
 10
1972.4764441000004
 20
788.66634197406472
 10
1971.7667578207036
 20
773.62895794086114
 10
1972.5766561971686
 20
767.01827831439675
 10
1974.3697546468754
 20
760.91878719501187
 10
1977.5692556844733
 20
754.729898645207
 10
1981.4196966634772
 20
750.54036922626165
 10
1986.1902807699223
 20
747.43886776141835
 10
1992.5512121664067
 20
745.095403863713
 10
1999.0162085042973
 20
743.982008172795
 10
2008.5845373617194
 20
743.88721294574407
 10
2018.31369385586
 20
744.863203241154
 10
2031.5937612997077
 20
747.39629573993341
 10
2047.3942373739264
 20
751.70270748309736
 10
2089.9338720785158
 20
764.14411373309747
 10
2121.1566351400393
 20
773.13646145038308
 10
2134.9416159139651
 20
775.99489040546109
 10
2145.781802986719
 20
777.50436611346868
 10
2158.2576940999998
 20
778.33545513324407
 10
2185.9720419393557
 20
778.20215053729657
 10
2259.6343039022458
 20
777.34895534686711
 10
2471.7438314901369
 20
774.28571529559792
 10
2478.2597921834963
 20
775.7004720705
 10
2484.3678091512697
 20
778.37455578021672
 10
2487.6152609334958
 20
780.60455150775579
 10
2490.4129599081057
 20
783.3778936403246
 10
2492.671336983301
 20
786.60569973163319
 10
2494.3179129110354
 20
790.18447704486539
 10
2496.33802399502
 20
797.98576183490468
 10
2496.924266670801
 20
805.78674144916249
 10
2498.9998434530271
 20
1023.6326486604663
 10
2496.9673727499021
 20
1030.1315528886764
 10
2493.6962698446291
 20
1036.1036569612475
 10
2491.5558432088874
 20
1038.7883550661061
 10
2486.225643013574
 20
1043.0888063447919
 10
2483.1490896688479
 20
1044.6131736772506
 10
2476.7889212118166
 20
1046.5035373704879
 10
2470.1821707235354
 20
1047.1168643968556
 10
2452.1191977010744
 20
1047.199805452153
 10
2445.1540945516604
 20
1048.6276752489064
 10
2438.7286947713865
 20
1051.2556821840258
 10
2436.2220571981447
 20
1052.9378301637621
 10
2434.0584372030271
 20
1055.0429327028246
 10
2431.6064260946291
 20
1058.840578271672
 10
2429.9209402547849
 20
1063.9937479036305
 10
2429.2788504110349
 20
1067.857778741643
 10
2428.9743612752927
 20
1077.40834064655
 10
2429.2618368612307
 20
1096.6145498292897
 10
2429.7511862264651
 20
1112.4505025880785
 10
2429.7799490438479
 20
1121.5387804048505
 10
2428.5768698202146
 20
1128.3408433931322
 10
2426.1805532918943
 20
1134.8194868104906
 10
2423.0229757772458
 20
1139.9971944826098
 10
2420.3960226522463
 20
1142.7004606264088
 10
2417.3312948690432
 20
1144.8949987428639
 10
2413.9259909139646
 20
1146.5112287538498
 10
2407.8851126180666
 20
1148.1411726015065
 10
2401.0996817098635
 20
1148.7324125307057
 10
2351.7195700155276
 20
1148.5115606325121
 10
2119.4466207967771
 20
1151.4202863710377
 10
2112.529735420801
 20
1150.5352956788986
 10
2106.4386557088869
 20
1148.5572416322675
 10
2100.9213446126955
 20
1145.3055936830492
 10
2097.6930044637697
 20
1142.5044042604413
 10
2094.3747519002932
 20
1138.2319814699142
 10
2092.1960638509768
 20
1133.2804853456469
 10
2090.8878134237307
 20
1126.4381296174975
 10
2090.5842398153322
 20
1114.8614866273851
 10
2090.7105062948244
 20
1100.991905404851
 10
2090.392284248926
 20
1081.0507661836591
 10
2091.2439535604494
 20
1065.1867372529953
 10
2090.3547857748049
 20
1058.7251550691576
 10
2088.4795187459958
 20
1052.8404886262863
 10
2085.4924200521482
 20
1048.0668766038864
 10
2081.2778280721677
 20
1044.6394712465258
 10
2077.0719336019533
 20
1042.9349357622114
 10
2071.7370794759763
 20
1041.8108732240646
 10
2064.1218374715822
 20
1041.3094741838422
 10
2039.0672873006838
 20
1041.5664131181686
 10
2001.6710089193361
 20
1041.7623598115895
 10
1995.5087851034182
 20
1040.4735881822555
 10
1990.5779837118168
 20
1038.215749933049
 10
1986.454982613184
 20
1035.1269800203293
 10
1983.0056189046879
 20
1031.30051441364
 10
1980.3597067342778
 20
1026.88024349384
 10
1978.6166571126955
 20
1022.0323974626509
 10
1977.4868582235354
 20
1014.9152166383709
 10
1977.4506567464846
 20
1005.7305247323958
 10
1977.6827429281254
 20
989.62862081699063
 10
1973.0427359090827
 20
801.69917888812677
  0
LWPOLYLINE
  5
2C
330
1F
100
AcDbEntity
  8
0
 62
18
100
AcDbPolyline
 90
88
 70
1
 10
2498.3074551000004
 20
1635.3537731000004
 10
2497.8039150609384
 20
1648.3859424420411
 10
2496.0012417210942
 20
1730.6658820935306
 10
2494.1038113011714
 20
1845.6637029477172
 10
2494.3874721898437
 20
1861.6241745778138
 10
2493.2918911351558
 20
1868.7467651196537
 10
2491.5722256078129
 20
1873.6029510327392
 10
2488.9475613011718
 20
1878.0359153576903
 10
2485.5167751683589
 20
1881.8789653607425
 10
2481.4086513890629
 20
1884.9875812359867
 10
2476.488760031641
 20
1887.2691325970704
 10
2470.3329067601558
 20
1888.5875825711303
 10
2465.853994406641
 20
1888.90339658938
 10
2450.3515224828129
 20
1888.8106756039676
 10
2404.0662746800776
 20
1888.5919503994999
 10
2396.6929226292968
 20
1889.6424274273927
 10
2391.9527798070308
 20
1891.2222461529789
 10
2388.4962063207026
 20
1893.3947305508673
 10
2384.9361782445308
 20
1897.4980144330077
 10
2382.5545864476558
 20
1902.8189735241945
 10
2381.1704616917959
 20
1909.1928844281251
 10
2380.8443813695308
 20
1915.7071952649171
 10
2381.865652121483
 20
1938.76028822146
 10
2381.6004543675776
 20
1952.8715877362308
 10
2381.5249233617187
 20
1973.6922530957279
 10
2380.2498989476558
 20
1980.5408267804205
 10
2378.0944424046879
 20
1985.5041484662111
 10
2374.795644797266
 20
1989.79339407168
 10
2369.828603781641
 20
1993.8344173260743
 10
2364.1038113011718
 20
1996.7027072735843
 10
2359.9996548070308
 20
1997.8935031720218
 10
2353.087118185937
 20
1998.8118152447757
 10
2338.860433615625
 20
1998.9999751874025
 10
2064.6361141576172
 20
1996.9227580853517
 10
2058.5874538792973
 20
1995.321958524805
 10
2055.1771908177725
 20
1993.7237338849125
 10
2052.1042232884774
 20
1991.5464000531254
 10
2049.4657497777339
 20
1988.858869535547
 10
2047.3453884496096
 20
1985.7462673016603
 10
2045.3432064427741
 20
1981.5919475384769
 10
2043.8509731664067
 20
1977.2283916302736
 10
2042.6134090794928
 20
1970.4277400799806
 10
2042.4554806126957
 20
1964.2366771527345
 10
2043.0112820042975
 20
1945.4996280499511
 10
2042.5841884984386
 20
1914.8029308148439
 10
2041.0696773900402
 20
1909.1306857892091
 10
2039.7749691380866
 20
1906.4000778027587
 10
2038.0104427708991
 20
1903.94676969729
 10
2034.6120815648451
 20
1900.9585695096068
 10
2030.1742153539067
 20
1898.7047557660155
 10
2023.4276943578136
 20
1896.7646484204347
 10
2016.3723354710949
 20
1895.8864097424564
 10
2004.656408347071
 20
1896.1433820553834
 10
1998.5214596166027
 20
1896.07015894137
 10
1991.9978695287116
 20
1894.8402623959596
 10
1985.7770138158205
 20
1892.2412423916871
 10
1980.4315548314455
 20
1887.9666690655763
 10
1978.2806759251951
 20
1885.29321954928
 10
1974.9843197240236
 20
1879.339898092371
 10
1972.8362636937507
 20
1872.1669034787233
 10
1972.4916439427736
 20
1849.0426997967775
 10
1972.8103237523449
 20
1761.4099387951908
 10
1974.1455440892585
 20
1649.863927824121
 10
1975.6657009496096
 20
1641.9499950238285
 10
1978.1086330785167
 20
1635.8000736065919
 10
1980.3513698949225
 20
1632.5614528485355
 10
1983.1357174291029
 20
1629.7746829815919
 10
1986.3724117650397
 20
1627.529104215723
 10
1992.4673824681647
 20
1624.8255710431151
 10
1998.97624782461
 20
1623.3794002362308
 10
2006.3443355931647
 20
1623.0090694256837
 10
2039.4553738011725
 20
1623.7563876935058
 10
2306.2261562718754
 20
1626.0099773236332
 10
2318.7227993382817
 20
1625.59058950625
 10
2331.1519985570317
 20
1624.228914243799
 10
2344.9865322484384
 20
1621.6208057232914
 10
2358.5238247289062
 20
1618.1082515545902
 10
2443.3872585667973
 20
1593.3682231732421
 10
2456.7281704320317
 20
1591.1782817669925
 10
2467.2552090062504
 20
1590.6024150677733
 10
2475.8134060277343
 20
1591.3915996380858
 10
2482.3229580296884
 20
1593.2837467022948
 10
2487.6732998265634
 20
1596.1128024884276
 10
2491.8789272679696
 20
1599.9456195660648
 10
2495.0004177464843
 20
1604.7031383343754
 10
2497.3168545140634
 20
1610.6237201520021
 10
2498.6330776585946
 20
1616.8435268231444
 10
2498.9998989476567
 20
1623.7964610882816
  0
LWPOLYLINE
  5
2D
330
1F
100
AcDbEntity
  8
0
 62
18
100
AcDbPolyline
 90
92
 70
1
 10
1982.6465971000005
 20
69.0305666459298
 10
1983.7414152152351
 20
60.825438929865356
 10
1985.3983289725588
 20
55.310759974787061
 10
1988.9942533500005
 20
48.535304499933716
 10
1992.4149305350591
 20
44.493079615900456
 10
1996.6650373465825
 20
41.33449120647623
 10
2001.7666227347661
 20
39.240050746271159
 10
2009.0436155326179
 20
37.914309932062231
 10
2019.1538602835942
 20
37.719836665460676
 10
2048.400686455469
 20
37.498546077081777
 10
2119.3526060111326
 20
36.377654506037388
 10
2189.336355400781
 20
35.181212855646372
 10
2204.7454435355467
 20
34.68116326458221
 10
2212.9342252738279
 20
34.12635369426971
 10
2218.2298643119138
 20
34.6310190690254
 10
2223.3586484916018
 20
36.042991114924007
 10
2228.8021451957029
 20
38.835502101252189
 10
2232.0352537162107
 20
41.333823634454973
 10
2234.7910673148435
 20
44.354205561945726
 10
2237.1401578910154
 20
48.090568019220491
 10
2238.9977628714842
 20
52.449546290704809
 10
2240.6005460746092
 20
59.359393550226692
 10
2243.07872600625
 20
76.09971566326378
 10
2246.069982720117
 20
82.033534480402054
 10
2249.6319181449221
 20
86.0990480912423
 10
2251.6782743460935
 20
87.6840548051096
 10
2256.3640958792971
 20
89.849887324640676
 10
2258.8973600394534
 20
90.38161797649586
 10
2267.1875364310549
 20
90.8201555741523
 10
2405.6562406546873
 20
89.247489405939447
 10
2410.8565885550779
 20
87.64386696941601
 10
2415.521887016992
 20
84.842124415705356
 10
2417.49393291543
 20
83.022361232111152
 10
2420.5642301566409
 20
78.637328578302444
 10
2422.1277982718748
 20
74.168754054376834
 10
2422.7844602591795
 20
68.027911616633034
 10
2423.5737211234377
 20
59.390635920832324
 10
2425.2324277884768
 20
52.855143977472665
 10
2427.987859917383
 20
46.701178981134547
 10
2430.6776792533205
 20
42.609725428888623
 10
2434.3447477347654
 20
38.789039088556933
 10
2438.834875298242
 20
35.799346400568368
 10
2443.9461118705076
 20
33.787017299006038
 10
2449.2785245902342
 20
32.908778621027238
 10
2470.8333951957034
 20
33.08814568645694
 10
2478.82221050332
 20
34.430537654230541
 10
2482.6739103324221
 20
35.697093440363069
 10
2486.3128263480467
 20
37.485557032892487
 10
2491.2195951468752
 20
41.06862588054873
 10
2494.4432432181643
 20
44.562392665216642
 10
2497.1361906058596
 20
49.301486445734561
 10
2498.558157158594
 20
54.254737330744391
 10
2498.999822808008
 20
59.089694453546841
 10
2498.1729490287112
 20
69.204669429133048
 10
2465.2771360404295
 20
386.06841607219945
 10
2464.7978574759768
 20
402.3193315995432
 10
2464.673498345117
 20
434.84473748333204
 10
2466.2424070365237
 20
554.11052270061691
 10
2467.8712827689455
 20
636.40513939983589
 10
2471.98985881875
 20
673.10565514690643
 10
2475.339773369531
 20
694.12631554729683
 10
2475.4782468802732
 20
701.63669152385933
 10
2474.2166502005862
 20
710.66752953655441
 10
2471.3857633597654
 20
720.61503930217964
 10
2456.6606504447263
 20
757.79849572307785
 10
2452.4748594291013
 20
763.46049828655487
 10
2447.3283750541018
 20
768.26610131389793
 10
2442.8484708792967
 20
771.059985591242
 10
2437.8953916556638
 20
772.88836999065609
 10
2432.2996885306638
 20
773.855243159601
 10
2329.2831785208987
 20
774.540210200617
 10
2210.0784666068357
 20
775.16253991253086
 10
2206.9980222708982
 20
774.53876061565586
 10
2201.2157041556643
 20
772.10872216350788
 10
2197.243078423242
 20
769.22275109417171
 10
2193.6099607474607
 20
765.70872826702282
 10
2185.2606184012693
 20
755.70659203655475
 10
2172.993963433008
 20
741.03572411663242
 10
2072.7428800589842
 20
623.78673119671078
 10
2062.8133375174802
 20
614.6927980912418
 10
2052.3701078421877
 20
606.19372887737484
 10
2039.0160352713872
 20
597.06645531780453
 10
2024.9487668998052
 20
589.08237023479671
 10
2011.8997556693364
 20
582.88356347210117
 10
2004.5496351249028
 20
579.48627038128109
 10
1999.5069486625005
 20
576.128802729914
 10
1996.4708692557622
 20
572.913089228937
 10
1993.7317258841802
 20
567.70305199749191
 10
1992.0005018241216
 20
560.48953576214024
 10
1991.480520439844
 20
553.50383324749214
 10
1991.1966688163088
 20
489.19566674358566
 10
1982.9708463675784
 20
112.15114159710161
  0
ENDSEC
  0
SECTION
  2
OBJECTS
  0
DICTIONARY
  5
C
330
0
100
AcDbDictionary
280
0
281
1
  3
ACAD_SCALELIST
350
33
  3
ACAD_COLOR
350
45
  3
ACAD_FIELDLIST
350
46
  3
ACAD_GROUP
350
D
  3
ACAD_IMAGE_DICT
350
47
  3
ACAD_LAYOUT
350
1A
  3
ACAD_MATERIAL
350
48
  3
ACAD_MLEADERSTYLE
350
49
  3
ACAD_MLINESTYLE
350
17
  3
ACAD_PLOTSETTINGS
350
19
  3
ACAD_PLOTSTYLENAME
350
E
  3
ACAD_TABLESTYLE
350
4B
  3
ACDB_RECOMPOSE_DATA
350
4F
  3
AcDbVariableDictionary
350
50
  3
ACAD_VISUALSTYLE
350
53
  3
DWGPROPS
350
54
  0
DICTIONARY
  5
4D
330
4C
100
AcDbDictionary
280
0
281
1
  3
ACAD_ROUNDTRIP_2008_TABLESTYLE_CELLSTYLEMAP
360
4E
  0
DICTIONARY
  5
33
102
{ACAD_REACTORS
330
C
102
}
330
C
100
AcDbDictionary
280
0
281
1
  0
DICTIONARY
  5
45
102
{ACAD_REACTORS
330
C
102
}
330
C
100
AcDbDictionary
280
0
281
1
  0
FIELDLIST
  5
46
102
{ACAD_REACTORS
330
C
102
}
330
C
100
AcDbIdSet
100
AcDbFieldList
  0
DICTIONARY
  5
D
102
{ACAD_REACTORS
330
C
102
}
330
C
100
AcDbDictionary
280
0
281
1
  0
DICTIONARY
  5
47
102
{ACAD_REACTORS
330
C
102
}
330
C
100
AcDbDictionary
280
0
281
1
  0
DICTIONARY
  5
1A
102
{ACAD_REACTORS
330
C
102
}
330
C
100
AcDbDictionary
280
0
281
1
  3
Layout1
350
1E
  3
Model
350
22
  0
DICTIONARY
  5
48
102
{ACAD_REACTORS
330
C
102
}
330
C
100
AcDbDictionary
280
0
281
1
  0
DICTIONARY
  5
49
102
{ACAD_REACTORS
330
C
102
}
330
C
100
AcDbDictionary
280
0
281
1
  3
Standard
350
4A
  0
DICTIONARY
  5
17
102
{ACAD_REACTORS
330
C
102
}
330
C
100
AcDbDictionary
280
0
281
1
  3
STANDARD
350
18
  0
DICTIONARY
  5
19
102
{ACAD_REACTORS
330
C
102
}
330
C
100
AcDbDictionary
280
0
281
1
  0
ACDBDICTIONARYWDFLT
  5
E
102
{ACAD_REACTORS
330
C
102
}
330
C
100
AcDbDictionary
280
0
281
1
  3
Normal
350
F
100
AcDbDictionaryWithDefault
340
F
  0
ACDBPLACEHOLDER
  5
F
102
{ACAD_REACTORS
330
E
102
}
330
E
  0
DICTIONARY
  5
4B
102
{ACAD_REACTORS
330
C
102
}
330
C
100
AcDbDictionary
280
0
281
1
  3
Standard
350
4C
  0
XRECORD
  5
4F
102
{ACAD_REACTORS
330
C
102
}
330
C
100
AcDbXrecord
280
1
 90
1
330
4C
  0
DICTIONARY
  5
50
102
{ACAD_REACTORS
330
C
102
}
330
C
100
AcDbDictionary
280
0
281
1
  3
DIMASSOC
350
51
  3
HIDETEXT
350
52
  0
DICTIONARY
  5
53
102
{ACAD_REACTORS
330
C
102
}
330
C
100
AcDbDictionary
280
0
281
1
  0
XRECORD
  5
54
102
{ACAD_REACTORS
330
C
102
}
330
C
100
AcDbXrecord
280
0
  1
DWGPROPS COOKIE
  2

  3

  4

  6

  7

  8

  9

300
=
301
=
302
=
303
=
304
=
305
=
306
=
307
=
308
=
309
=
 40
0
 41
2460962.9115971294
 42
2460962.9115971294
  1

 90
0
  0
CELLSTYLEMAP
  5
4E
102
{ACAD_REACTORS
330
4D
102
}
330
4D
100
AcDbCellStyleMap
 90
3
300
CELLSTYLE
  1
TABLEFORMAT_BEGIN
 90
5
170
0
309
TABLEFORMAT_END
  1
CELLSTYLE_BEGIN
 90
3
 91
2
300
_DATA
309
CELLSTYLE_END
300
CELLSTYLE
  1
TABLEFORMAT_BEGIN
 90
5
170
0
309
TABLEFORMAT_END
  1
CELLSTYLE_BEGIN
 90
1
 91
2
300
_TITLE
309
CELLSTYLE_END
300
CELLSTYLE
  1
TABLEFORMAT_BEGIN
 90
5
170
0
309
TABLEFORMAT_END
  1
CELLSTYLE_BEGIN
 90
2
 91
2
300
_HEADER
309
CELLSTYLE_END
  0
LAYOUT
  5
1E
102
{ACAD_REACTORS
330
1A
102
}
330
1A
100
AcDbPlotSettings
  1

  2
C:\Program Files\AutoCAD 2002\plotters\DWF ePlot (optimized for plotting).pc3
  4

  6

 40
0
 41
0
 42
0
 43
0
 44
0
 45
0
 46
0
 47
0
 48
0
 49
0
140
0
141
0
142
1
143
1
 70
688
 72
1
 73
1
 74
1
  7
acad.stb
 75
16
 76
0
 77
0
 78
0
147
1
148
0
149
0
100
AcDbLayout
  1
Layout1
 70
1
 71
1
 10
0
 20
0
 11
420
 21
297
 12
0
 22
0
 32
0
 14
0
 24
0
 34
0
 15
0
 25
0
 35
0
146
0
 13
0
 23
0
 33
0
 16
1
 26
0
 36
0
 17
0
 27
1
 37
0
 76
0
330
2E
  0
LAYOUT
  5
22
102
{ACAD_REACTORS
330
1A
102
}
330
1A
100
AcDbPlotSettings
  1

  2
C:\Program Files\AutoCAD 2002\plotters\DWF ePlot (optimized for plotting).pc3
  4

  6

 40
0
 41
0
 42
0
 43
0
 44
0
 45
0
 46
0
 47
0
 48
0
 49
0
140
0
141
0
142
1
143
1
 70
1712
 72
1
 73
1
 74
0
  7
acad.stb
 75
0
 76
0
 77
0
 78
0
147
1
148
0
149
0
100
AcDbLayout
  1
Model
 70
1
 71
0
 10
0
 20
0
 11
12
 21
9
 12
0
 22
0
 32
0
 14
0
 24
0
 34
0
 15
0
 25
0
 35
0
146
0
 13
0
 23
0
 33
0
 16
1
 26
0
 36
0
 17
0
 27
1
 37
0
 76
0
330
1F
  0
MLEADERSTYLE
  5
4A
102
{ACAD_REACTORS
330
49
102
}
330
49
100
AcDbMLeaderStyle
170
2
171
1
172
0
 90
2
 40
0
 41
0
173
1
 91
0
340
0
 92
-2
290
1
 42
0.09
292
1
 43
0.36
  3
Standard
341
0
 44
0.18
300

342
0
174
1
178
1
175
1
176
0
 93
0
 45
0.18
292
0
297
0
 46
0
343
0
 94
0
 47
1
 49
1
140
1
293
1
141
0
294
1
177
0
142
1
295
0
296
0
143
0.125
  0
MLINESTYLE
  5
18
102
{ACAD_REACTORS
330
17
102
}
330
17
100
AcDbMlineStyle
  2
STANDARD
 70
0
  3

 51
90
 52
90
 71
2
 49
0.5
 62
0
  6
ByLayer
 49
-0.5
 62
0
  6
ByLayer
  0
TABLESTYLE
  5
4C
102
{ACAD_XDICTIONARY
360
4D
102
}
102
{ACAD_REACTORS
330
4B
102
}
330
4B
100
AcDbTableStyle
  3

 70
0
 71
0
 40
0.06
 41
0.06
280
0
281
0
  7
Standard
140
0.18
170
1
 62
0
283
0
 90
512
 91
0
274
-2
284
1
 64
0
275
-2
285
1
 65
0
276
-2
286
1
 66
0
277
-2
287
1
 67
0
278
-2
288
1
 68
0
279
-2
289
1
 69
0
  7
Standard
140
0.18
170
1
 62
0
283
0
 90
512
 91
0
274
-2
284
1
 64
0
275
-2
285
1
 65
0
276
-2
286
1
 66
0
277
-2
287
1
 67
0
278
-2
288
1
 68
0
279
-2
289
1
 69
0
  7
Standard
140
0.18
170
1
 62
0
283
0
 90
512
 91
0
274
-2
284
1
 64
0
275
-2
285
1
 65
0
276
-2
286
1
 66
0
277
-2
287
1
 67
0
278
-2
288
1
 68
0
279
-2
289
1
 69
0
  0
DICTIONARYVAR
  5
51
102
{ACAD_REACTORS
330
50
102
}
330
50
100
DictionaryVariables
280
0
  1
1
  0
DICTIONARYVAR
  5
52
102
{ACAD_REACTORS
330
50
102
}
330
50
100
DictionaryVariables
280
0
  1
2
  0
ENDSEC
999
Created By CadLib version 4.0.38.30
999
CadLib website: www.woutware.com
  0
EOF
