  0
SECTION
  2
HEADER
  9
$ACADVER
  1
AC1015
  9
$DWGCODEPAGE
  3
ansi_1252
  9
$INSBASE
 10
0
 20
0
 30
0
  9
$EXTMIN
 10
1880.4596768241261
 20
1.0005082940489209
 30
0
  9
$EXTMAX
 10
2499.000001131652
 20
1998.9999995463629
 30
0
  9
$LIMMIN
 10
0
 20
0
  9
$LIMMAX
 10
12
 20
9
  9
$SNAPMODE
 70
0
  9
$SNAPUNIT
 10
1
 20
1
  9
$SNAPBASE
 10
0
 20
0
  9
$SNAPANG
 50
0
  9
$SNAPSTYLE
 70
0
  9
$SNAPISOPAIR
 70
0
  9
$ORTHOMODE
 70
0
  9
$REGENMODE
 70
1
  9
$FILLMODE
 70
1
  9
$QTEXTMODE
 70
0
  9
$MIRRTEXT
 70
1
  9
$LTSCALE
 40
1
  9
$OSMODE
 70
0
  9
$ATTMODE
 70
1
  9
$TEXTSIZE
 40
0.2
  9
$TRACEWID
 40
0.05
  9
$TEXTSTYLE
  7
Standard
  9
$CLAYER
  8
0
  9
$CELTYPE
  6
ByLayer
  9
$CECOLOR
 62
256
  9
$CELTSCALE
 40
1
  9
$DISPSILH
 70
0
  9
$DIMSCALE
 40
1
  9
$DIMASZ
 40
0.18
  9
$DIMEXO
 40
0.0625
  9
$DIMDLI
 40
0.38
  9
$DIMRND
 40
0
  9
$DIMDLE
 40
0
  9
$DIMEXE
 40
0.18
  9
$DIMTP
 40
0
  9
$DIMTM
 40
0
  9
$DIMTXT
 40
0.18
  9
$DIMCEN
 40
0.09
  9
$DIMTSZ
 40
0
  9
$DIMTOL
 70
0
  9
$DIMLIM
 70
0
  9
$DIMTIH
 70
1
  9
$DIMTOH
 70
1
  9
$DIMSE1
 70
0
  9
$DIMSE2
 70
0
  9
$DIMTAD
 70
0
  9
$DIMZIN
 70
0
  9
$DIMBLK
  1

  9
$DIMASO
 70
1
  9
$DIMSHO
 70
1
  9
$DIMPOST
  1

  9
$DIMAPOST
  1

  9
$DIMALT
 70
0
  9
$DIMALTD
 70
2
  9
$DIMALTF
 40
0.03937007874015748
  9
$DIMLFAC
 40
1
  9
$DIMTOFL
 70
0
  9
$DIMTVP
 40
0
  9
$DIMTIX
 70
0
  9
$DIMSOXD
 70
0
  9
$DIMSAH
 70
0
  9
$DIMBLK1
  1

  9
$DIMBLK2
  1

  9
$DIMSTYLE
  2
Standard
  9
$DIMCLRD
 70
0
  9
$DIMCLRE
 70
0
  9
$DIMCLRT
 70
0
  9
$DIMTFAC
 40
1
  9
$DIMGAP
 40
0.09
  9
$DIMJUST
 70
0
  9
$DIMSD1
 70
0
  9
$DIMSD2
 70
0
  9
$DIMTOLJ
 70
1
  9
$DIMTZIN
 70
0
  9
$DIMALTZ
 70
0
  9
$DIMALTTZ
 70
0
  9
$DIMUPT
 70
0
  9
$DIMDEC
 70
4
  9
$DIMTDEC
 70
4
  9
$DIMALTU
 70
2
  9
$DIMALTTD
 70
0
  9
$DIMTXSTY
  7
Standard
  9
$DIMAUNIT
 70
0
  9
$DIMADEC
 70
0
  9
$DIMALTRND
 40
0
  9
$DIMAZIN
 70
0
  9
$DIMDSEP
 70
46
  9
$DIMATFIT
 70
0
  9
$DIMFRAC
 70
0
  9
$DIMLDRBLK
  1

  9
$DIMLUNIT
 70
2
  9
$DIMLWD
 70
-2
  9
$DIMLWE
 70
-2
  9
$LUNITS
 70
2
  9
$LUPREC
 70
4
  9
$SKETCHINC
 40
0.1
  9
$FILLETRAD
 40
0
  9
$AUNITS
 70
0
  9
$AUPREC
 70
0
  9
$MENU
  1
.
  9
$ELEVATION
 40
0
  9
$PELEVATION
 40
0
  9
$THICKNESS
 40
0
  9
$LIMCHECK
 70
0
  9
$CHAMFERA
 40
0.5
  9
$CHAMFERB
 40
0.5
  9
$CHAMFERC
 40
0
  9
$CHAMFERD
 40
0
  9
$SKPOLY
 70
0
  9
$TDCREATE
 40
2460962.9948908216
  9
$TDUCREATE
 40
2460962.9532241551
  9
$TDUPDATE
 40
2460962.9948908216
  9
$TDUUPDATE
 40
2460962.9532241551
  9
$TDINDWG
 40
0
  9
$TDUSRTIMER
 40
1.1574074074074074E-08
  9
$USRTIMER
 70
1
  9
$ANGBASE
 50
0
  9
$ANGDIR
 70
1
  9
$PDMODE
 70
0
  9
$PDSIZE
 40
0
  9
$PLINEWID
 40
0
  9
$SPLFRAME
 70
0
  9
$SPLINETYPE
 70
6
  9
$SPLINESEGS
 70
8
  9
$HANDSEED
  5
5D
  9
$SURFTAB1
 70
6
  9
$SURFTAB2
 70
6
  9
$SURFTYPE
 70
6
  9
$SURFU
 70
6
  9
$SURFV
 70
6
  9
$UCSORG
 10
0
 20
0
 30
0
  9
$UCSXDIR
 10
1
 20
0
 30
0
  9
$UCSYDIR
 10
0
 20
1
 30
0
  9
$UCSORTHOREF
  2

  9
$UCSORTHOVIEW
 70
0
  9
$UCSORGTOP
 10
0
 20
0
 30
0
  9
$UCSORGBOTTOM
 10
0
 20
0
 30
0
  9
$UCSORGLEFT
 10
0
 20
0
 30
0
  9
$UCSORGRIGHT
 10
0
 20
0
 30
0
  9
$UCSORGFRONT
 10
0
 20
0
 30
0
  9
$UCSORGBACK
 10
0
 20
0
 30
0
  9
$PUCSORG
 10
0
 20
0
 30
0
  9
$PUCSXDIR
 10
1
 20
0
 30
0
  9
$PUCSYDIR
 10
0
 20
1
 30
0
  9
$PUCSORTHOREF
  2

  9
$PUCSORTHOVIEW
 70
0
  9
$PUCSORGTOP
 10
0
 20
0
 30
0
  9
$PUCSORGBOTTOM
 10
0
 20
0
 30
0
  9
$PUCSORGLEFT
 10
0
 20
0
 30
0
  9
$PUCSORGRIGHT
 10
0
 20
0
 30
0
  9
$PUCSORGFRONT
 10
0
 20
0
 30
0
  9
$PUCSORGBACK
 10
0
 20
0
 30
0
  9
$USERI1
 70
0
  9
$USERI2
 70
0
  9
$USERI3
 70
0
  9
$USERI4
 70
0
  9
$USERI5
 70
0
  9
$USERR1
 40
0
  9
$USERR2
 40
0
  9
$USERR3
 40
0
  9
$USERR4
 40
0
  9
$USERR5
 40
0
  9
$WORLDVIEW
 70
1
  9
$SHADEDGE
 70
3
  9
$SHADEDIF
 70
70
  9
$TILEMODE
 70
1
  9
$MAXACTVP
 70
48
  9
$PINSBASE
 10
0
 20
0
 30
0
  9
$PLIMCHECK
 70
0
  9
$PEXTMIN
 10
1E+20
 20
1E+20
 30
1E+20
  9
$PEXTMAX
 10
-1E+20
 20
-1E+20
 30
-1E+20
  9
$PLIMMAX
 10
0
 20
0
  9
$PLIMMIN
 10
0
 20
0
  9
$UNITMODE
 70
0
  9
$VISRETAIN
 70
1
  9
$PLINEGEN
 70
1
  9
$PSLTSCALE
 70
1
  9
$TREEDEPTH
 70
3020
  9
$CMLSTYLE
  2
STANDARD
  9
$CMLJUST
 70
0
  9
$CMLSCALE
 40
1
  9
$PROXYGRAPHICS
 70
1
  9
$MEASUREMENT
 70
1
  9
$CELWEIGHT
370
-1
  9
$ENDCAPS
280
0
  9
$JOINSTYLE
280
0
  9
$LWDISPLAY
290
1
  9
$INSUNITS
 70
4
  9
$HYPERLINKBASE
  1

  9
$XEDIT
290
1
  9
$CEPSNTYPE
380
0
  9
$PSTYLEMODE
290
0
  9
$FINGERPRINTGUID
  2

  9
$VERSIONGUID
  2

  9
$EXTNAMES
290
1
  9
$PSVPSCALE
 40
0
  9
$CSHADOW
280
0
  9
$SHADOWPLANELOCATION
 40
0
  0
ENDSEC
  0
SECTION
  2
CLASSES
  0
CLASS
  1
RASTERVARIABLES
  2
AcDbRasterVariables
  3
ISM
 90
0
280
0
281
0
  0
CLASS
  1
IMAGEDEF
  2
AcDbRasterImageDef
  3
ISM
 90
0
280
0
281
0
  0
CLASS
  1
IMAGEDEF_REACTOR
  2
AcDbRasterImageDefReactor
  3
ISM
 90
1
280
0
281
0
  0
CLASS
  1
IMAGE
  2
AcDbRasterImage
  3
ISM
 90
127
280
0
281
1
  0
CLASS
  1
ACAD_EVALUATION_GRAPH
  2
AcDbEvalGraph
  3
ObjectDBX Classes
 90
1153
280
0
281
0
  0
CLASS
  1
BLOCKPOINTPARAMETER
  2
AcDbBlockPointParameter
  3
ObjectDBX Classes
 90
1153
280
0
281
0
  0
CLASS
  1
BLOCKBASEPOINTPARAMETER
  2
AcDbBlockBasepointParameter
  3
ObjectDBX Classes
 90
1153
280
0
281
0
  0
CLASS
  1
BLOCKLOOKUPPARAMETER
  2
AcDbBlockLookupParameter
  3
ObjectDBX Classes
 90
1153
280
0
281
0
  0
CLASS
  1
BLOCKVISIBILITYPARAMETER
  2
AcDbBlockVisibilityParameter
  3
ObjectDBX Classes
 90
1153
280
0
281
0
  0
CLASS
  1
BLOCKPROPERTIESTABLE
  2
AcDbBlockPropertiesTable
  3
ObjectDBX Classes
 90
1153
280
0
281
0
  0
CLASS
  1
BLOCKPOLARPARAMETER
  2
AcDbBlockPolarParameter
  3
ObjectDBX Classes
 90
1153
280
0
281
0
  0
CLASS
  1
BLOCKROTATIONPARAMETER
  2
AcDbBlockRotationParameter
  3
ObjectDBX Classes
 90
1153
280
0
281
0
  0
CLASS
  1
BLOCKLINEARPARAMETER
  2
AcDbBlockLinearParameter
  3
ObjectDBX Classes
 90
1153
280
0
281
0
  0
CLASS
  1
BLOCKXYPARAMETER
  2
AcDbBlockXYParameter
  3
ObjectDBX Classes
 90
1153
280
0
281
0
  0
CLASS
  1
BLOCKFLIPPARAMETER
  2
AcDbBlockFlipParameter
  3
ObjectDBX Classes
 90
1153
280
0
281
0
  0
CLASS
  1
BLOCKALIGNMENTPARAMETER
  2
AcDbBlockAlignmentParameter
  3
ObjectDBX Classes
 90
1153
280
0
281
0
  0
CLASS
  1
BLOCKROTATEACTION
  2
AcDbBlockRotateAction
  3
ObjectDBX Classes
 90
1153
280
0
281
0
  0
CLASS
  1
BLOCKSCALEACTION
  2
AcDbBlockScaleAction
  3
ObjectDBX Classes
 90
1153
280
0
281
0
  0
CLASS
  1
BLOCKARRAYACTION
  2
AcDbBlockArrayAction
  3
ObjectDBX Classes
 90
1153
280
0
281
0
  0
CLASS
  1
BLOCKFLIPACTION
  2
AcDbBlockFlipAction
  3
ObjectDBX Classes
 90
1153
280
0
281
0
  0
CLASS
  1
BLOCKLOOKUPACTION
  2
AcDbBlockLookupAction
  3
ObjectDBX Classes
 90
1153
280
0
281
0
  0
CLASS
  1
BLOCKMOVEACTION
  2
AcDbBlockMoveAction
  3
ObjectDBX Classes
 90
1153
280
0
281
0
  0
CLASS
  1
BLOCKPOLARSTRETCHACTION
  2
AcDbBlockPolarStretchAction
  3
ObjectDBX Classes
 90
1153
280
0
281
0
  0
CLASS
  1
BLOCKSTRETCHACTION
  2
AcDbBlockStretchAction
  3
ObjectDBX Classes
 90
1153
280
0
281
0
  0
CLASS
  1
BLOCKALIGNMENTGRIP
  2
AcDbBlockAlignmentGrip
  3
ObjectDBX Classes
 90
1153
280
0
281
0
  0
CLASS
  1
BLOCKFLIPGRIP
  2
AcDbBlockFlipGrip
  3
ObjectDBX Classes
 90
1153
280
0
281
0
  0
CLASS
  1
ACDB_BLOCKREPRESENTATION_DATA
  2
AcDbBlockRepresentationData
  3
ObjectDBX Classes
 90
1153
280
0
281
0
  0
CLASS
  1
ACDB_DYNAMICBLOCKPURGEPREVENTER_VERSION
  2
AcDbDynamicBlockPurgePreventer
  3
ObjectDBX Classes
 90
1153
280
0
281
0
  0
CLASS
  1
BLOCKLINEARGRIP
  2
AcDbBlockLinearGrip
  3
ObjectDBX Classes
 90
1153
280
0
281
0
  0
CLASS
  1
BLOCKLOOKUPGRIP
  2
AcDbBlockLookupGrip
  3
ObjectDBX Classes
 90
1153
280
0
281
0
  0
CLASS
  1
BLOCKPOLARGRIP
  2
AcDbBlockPolarGrip
  3
ObjectDBX Classes
 90
1153
280
0
281
0
  0
CLASS
  1
BLOCKPROPERTIESTABLEGRIP
  2
AcDbBlockPropertiesTableGrip
  3
ObjectDBX Classes
 90
1153
280
0
281
0
  0
CLASS
  1
BLOCKROTATIONGRIP
  2
AcDbBlockRotationGrip
  3
ObjectDBX Classes
 90
1153
280
0
281
0
  0
CLASS
  1
BLOCKVISIBILITYGRIP
  2
AcDbBlockVisibilityGrip
  3
ObjectDBX Classes
 90
1153
280
0
281
0
  0
CLASS
  1
BLOCKXYGRIP
  2
AcDbBlockXYGrip
  3
ObjectDBX Classes
 90
1153
280
0
281
0
  0
CLASS
  1
BLOCKGRIPLOCATIONCOMPONENT
  2
AcDbBlockGripExpr
  3
ObjectDBX Classes
 90
1153
280
0
281
0
  0
CLASS
  1
ACDB_DYNAMICBLOCKPROXYNODE
  2
AcDbDynamicBlockProxyNode
  3
ObjectDBX Classes
 90
1153
280
0
281
0
  0
CLASS
  1
BLOCKLINEARCONSTRAINTPARAMETER
  2
AcDbBlockLinearConstraintParameter
  3
ObjectDBX Classes
 90
1153
280
0
281
0
  0
CLASS
  1
BLOCKHORIZONTALCONSTRAINTPARAMETER
  2
AcDbBlockHorizontalConstraintParameter
  3
ObjectDBX Classes
 90
1153
280
0
281
0
  0
CLASS
  1
BLOCKVERTICALCONSTRAINTPARAMETER
  2
AcDbBlockVerticalConstraintParameter
  3
ObjectDBX Classes
 90
1153
280
0
281
0
  0
CLASS
  1
BLOCKALIGNEDCONSTRAINTPARAMETER
  2
AcDbBlockAlignedConstraintParameter
  3
ObjectDBX Classes
 90
1153
280
0
281
0
  0
CLASS
  1
BLOCKANGULARCONSTRAINTPARAMETER
  2
AcDbBlockAngularConstraintParameter
  3
ObjectDBX Classes
 90
1153
280
0
281
0
  0
CLASS
  1
BLOCKDIAMETRICCONSTRAINTPARAMETER
  2
AcDbBlockDiametricConstraintParameter
  3
ObjectDBX Classes
 90
1153
280
0
281
0
  0
CLASS
  1
BLOCKRADIALCONSTRAINTPARAMETER
  2
AcDbBlockRadialConstraintParameter
  3
ObjectDBX Classes
 90
1153
280
0
281
0
  0
ENDSEC
  0
SECTION
  2
TABLES
  0
TABLE
  2
VPORT
  5
8
330
0
100
AcDbSymbolTable
 70
1
  0
VPORT
  5
38
330
8
100
AcDbSymbolTableRecord
100
AcDbViewportTableRecord
  2
*Active
 70
64
 10
0
 20
0
 11
1
 21
1
 12
2189.7298389778889
 22
1000.0002539202059
 13
0
 23
0
 14
1
 24
1
 15
0
 25
0
 16
0
 26
0
 36
1
 17
0
 27
0
 37
0
 40
1997.9994912523141
 41
0.30957982072349516
 42
50
 43
0
 44
0
 50
0
 51
0
 71
0
 72
20000
 73
20000
 74
1
 75
0
 76
0
 77
0
 78
0
281
0
 65
1
110
0
120
0
130
0
111
1
121
0
131
0
112
0
122
1
132
0
 79
0
146
0
  0
ENDTAB
  0
TABLE
  2
LTYPE
  5
5
100
AcDbSymbolTable
 70
3
  0
LTYPE
  5
16
330
5
100
AcDbSymbolTableRecord
100
AcDbLinetypeTableRecord
  2
Continuous
  3
Solid line
 70
64
 72
65
 73
0
 40
0
  0
LTYPE
  5
14
330
5
100
AcDbSymbolTableRecord
100
AcDbLinetypeTableRecord
  2
ByBlock
  3

 70
64
 72
65
 73
0
 40
0
  0
LTYPE
  5
15
330
5
100
AcDbSymbolTableRecord
100
AcDbLinetypeTableRecord
  2
ByLayer
  3

 70
64
 72
65
 73
0
 40
0
  0
ENDTAB
  0
TABLE
  2
LAYER
  5
2
100
AcDbSymbolTable
 70
2
  0
LAYER
  5
10
330
2
100
AcDbSymbolTableRecord
100
AcDbLayerTableRecord
 70
64
  2
0
 62
7
  6
Continuous
370
-3
390
F
  0
LAYER
  5
27
330
2
100
AcDbSymbolTableRecord
100
AcDbLayerTableRecord
 70
64
  2
DEFPOINTS
 62
7
  6
Continuous
290
0
370
-3
390
F
  0
ENDTAB
  0
TABLE
  2
STYLE
  5
3
100
AcDbSymbolTable
 70
1
  0
STYLE
  5
11
330
3
100
AcDbSymbolTableRecord
100
AcDbTextStyleTableRecord
  2
Standard
 70
64
 40
0
 41
1
 50
0
 71
0
 42
0.2
  3
txt.shx
  0
ENDTAB
  0
TABLE
  2
VIEW
  5
6
100
AcDbSymbolTable
 70
0
  0
ENDTAB
  0
TABLE
  2
UCS
  5
7
100
AcDbSymbolTable
 70
0
  0
ENDTAB
  0
TABLE
  2
APPID
  5
9
330
0
100
AcDbSymbolTable
 70
2
  0
APPID
  5
12
330
0
100
AcDbSymbolTableRecord
100
AcDbRegAppTableRecord
  2
ACAD
 70
64
  0
APPID
  5
5B
330
0
100
AcDbSymbolTableRecord
100
AcDbRegAppTableRecord
  2
ACAD_MLEADERVER
 70
64
  0
ENDTAB
  0
TABLE
  2
DIMSTYLE
  5
A
330
0
100
AcDbSymbolTable
 70
1
100
AcDbDimStyleTable
 71
0
  0
DIMSTYLE
105
37
330
A
100
AcDbSymbolTableRecord
100
AcDbDimStyleTableRecord
  2
Standard
 70
64
  3

  4

 40
1
 41
0.18
 42
0.0625
 43
0.38
 44
0.18
 45
0
 46
0
 47
0
 48
0
140
0.18
141
0.09
142
0
143
1
144
1
145
0
146
1
147
0.09
148
0
 71
0
 72
0
 73
1
 74
1
 75
0
 76
0
 77
0
 78
0
 79
0
170
0
171
2
172
0
173
0
174
0
175
0
179
0
271
4
272
4
273
2
274
0
275
0
276
0
277
2
278
46
279
0
280
0
281
0
282
0
283
1
284
0
285
0
286
0
288
0
289
0
340
11
371
-2
372
-2
  0
ENDTAB
  0
TABLE
  2
BLOCK_RECORD
  5
1
330
0
100
AcDbSymbolTable
 70
3
  0
BLOCK_RECORD
  5
1F
330
1
100
AcDbSymbolTableRecord
100
AcDbBlockTableRecord
  2
*Model_Space
340
22
  0
BLOCK_RECORD
  5
34
330
1
100
AcDbSymbolTableRecord
100
AcDbBlockTableRecord
  2
*Paper_Space
340
1E
  0
ENDTAB
  0
ENDSEC
  0
SECTION
  2
BLOCKS
  0
BLOCK
  5
20
330
1F
100
AcDbEntity
  8
0
100
AcDbBlockBegin
  2
*Model_Space
 70
64
 10
0
 20
0
 30
0
  3
*Model_Space
  0
ENDBLK
  5
21
330
1F
100
AcDbEntity
  8
0
100
AcDbBlockEnd
  0
BLOCK
  5
35
330
34
100
AcDbEntity
  8
0
 67
1
100
AcDbBlockBegin
  2
*Paper_Space
 70
64
 10
0
 20
0
 30
0
  3
*Paper_Space
  0
ENDBLK
  5
36
330
34
100
AcDbEntity
  8
0
100
AcDbBlockEnd
  0
ENDSEC
  0
SECTION
  2
ENTITIES
  0
LWPOLYLINE
  5
28
330
1F
100
AcDbEntity
  8
0
 62
7
100
AcDbPolyline
 90
62
 70
1
 10
1943.9342406952157
 20
504.15100936358107
 10
1880.4668658836224
 20
50.980631836759429
 10
1881.5946086272866
 20
45.313688465299791
 10
1884.0942181844405
 20
40.2949163101887
 10
1888.2605275233093
 20
35.416153511596541
 10
1892.3500863367353
 20
32.60233054982367
 10
1896.8371587187214
 20
30.666544078165504
 10
1902.2088956553187
 20
29.16706218137525
 10
2078.5606369818793
 20
6.23570867107689
 10
2111.5267715915634
 20
3.9089784058474919
 10
2171.0993402047698
 20
1.0005082940489209
 10
2194.2112770094659
 20
1.9629359478600428
 10
2225.0449370112556
 20
4.576456472392068
 10
2275.2192383975289
 20
8.6568570937355442
 10
2325.553660663003
 20
13.152960642054847
 10
2335.78003132817
 20
13.709297955839657
 10
2351.5800489072358
 20
12.918273942190083
 10
2358.7648139751072
 20
12.237385094713277
 10
2403.0540587413852
 20
5.7641801847350047
 10
2417.3616614247603
 20
2.5497843465625132
 10
2427.1647352105319
 20
1.0420565959287524
 10
2433.2201923863477
 20
1.0005102602037512
 10
2437.76190521972
 20
2.3811209700487241
 10
2442.857272260746
 20
6.0165071675835113
 10
2446.6786995414122
 20
11.370980221452184
 10
2447.67311125819
 20
13.933419935471106
 10
2487.4294295909094
 20
287.42313392091245
 10
2487.109369730676
 20
292.8498415151119
 10
2485.418110875396
 20
297.10695648967373
 10
2483.2815748513603
 20
299.99992849696963
 10
2480.54850740114
 20
302.71709856909632
 10
2477.7530403232972
 20
304.5352236919278
 10
2473.5152212195749
 20
306.036668096567
 10
2456.1980718418163
 20
309.42760837853763
 10
2447.3520804588657
 20
312.68987085431246
 10
2445.4291521488567
 20
314.74888072549351
 10
2443.1324756450485
 20
319.03893234078748
 10
2442.3101920110103
 20
323.51149374421
 10
2442.407321473142
 20
335.0916070691535
 10
2442.1726382847773
 20
339.40404401854863
 10
2441.2113805744948
 20
342.8845412351007
 10
2437.365707931765
 20
349.18122014518354
 10
2433.5731659967983
 20
352.04680751708861
 10
2425.0050307776919
 20
356.20386878274348
 10
2413.0072758436895
 20
359.28516725698051
 10
2339.4574636130724
 20
373.36330217420226
 10
2289.7156749130945
 20
379.74214177165192
 10
2264.0046783712241
 20
385.38648536202464
 10
2240.6294250388587
 20
391.40273267298682
 10
2210.855201299129
 20
402.35026074214358
 10
2182.0338923918266
 20
416.71394022173541
 10
2150.3107383520291
 20
435.19511142682967
 10
2083.8303429402958
 20
484.36083616793451
 10
2045.4171832088712
 20
509.26498774281794
 10
2039.9010070796985
 20
511.65119834118997
 10
2023.5959387599639
 20
516.03282067582711
 10
1972.154691771447
 20
523.56170171371718
 10
1965.782317864898
 20
523.7238356064895
 10
1958.5820574121278
 20
521.70722956266411
 10
1952.9048174482177
 20
518.80498957355337
 10
1949.1044664085337
 20
515.19163633130506
 10
1945.6424536975642
 20
510.07428142789144
  0
LWPOLYLINE
  5
29
330
1F
100
AcDbEntity
  8
0
 62
7
100
AcDbPolyline
 90
22
 70
1
 10
1987.6481599428141
 20
454.09595455163549
 10
1991.1643509517412
 20
454.1698496542524
 10
1994.4918108991526
 20
455.3483323904037
 10
1996.9916014564799
 20
457.1970021952439
 10
1999.1259752031337
 20
460.05731700054014
 10
2000.2048159519434
 20
463.00419033175331
 10
2000.427752856476
 20
466.58276668930358
 10
1999.7226864878639
 20
469.63482456493796
 10
1997.9586358265904
 20
472.726288336331
 10
1995.7069716891119
 20
474.85542151955752
 10
1992.5497665888354
 20
476.41721269307476
 10
1989.5098946617209
 20
476.90530487823162
 10
1986.0244148524091
 20
476.41035450028704
 10
1983.2215432771472
 20
475.0924437476358
 10
1980.5830874509261
 20
472.70841986995151
 10
1978.96225669808
 20
470.02937817503107
 10
1978.0592427718263
 20
466.56012773922265
 10
1978.1660899270305
 20
463.42312687237688
 10
1979.3027715223056
 20
460.03708433568431
 10
1981.1012356318738
 20
457.49875031236917
 10
1983.8954461636363
 20
455.33712541115744
 10
1986.7794287949537
 20
454.2536167698957
  0
LWPOLYLINE
  5
2A
330
1F
100
AcDbEntity
  8
0
 62
7
100
AcDbPolyline
 90
22
 70
1
 10
1933.3285535519578
 20
73.340774698312728
 10
1936.8447445608849
 20
73.414669800928621
 10
1940.1722045082963
 20
74.593152537080655
 10
1942.6719950656236
 20
76.441822341920627
 10
1944.8063688122777
 20
79.302137147217039
 10
1945.8852095610871
 20
82.249010478430264
 10
1946.1081464656197
 20
85.827586835980711
 10
1945.4030800970077
 20
88.879644711615143
 10
1943.6390294357338
 20
91.9711084830076
 10
1941.3873652982554
 20
94.10024166623414
 10
1938.2301601979791
 20
95.662032839751376
 10
1935.1902882708646
 20
96.150125024907837
 10
1931.7048084615528
 20
95.655174646963943
 10
1928.901936886291
 20
94.337263894312528
 10
1926.26348106007
 20
91.9532400166283
 10
1924.6426503072237
 20
89.274198321707971
 10
1923.73963638097
 20
85.804947885898869
 10
1923.8464835361742
 20
82.667947019053443
 10
1924.9831651314494
 20
79.281904482361327
 10
1926.7816292410173
 20
76.74357045904533
 10
1929.57583977278
 20
74.581945557834061
 10
1932.4598224040974
 20
73.498436916572089
  0
LWPOLYLINE
  5
2B
330
1F
100
AcDbEntity
  8
0
 62
7
100
AcDbPolyline
 90
65
 70
1
 10
2356.8309126631866
 20
1594.9843184655579
 10
1931.1637153283593
 20
1595.621134941706
 10
1925.9973287829334
 20
1593.9707327428309
 10
1920.9820126525535
 20
1590.885189572281
 10
1914.7304067277337
 20
1586.2164184232231
 10
1912.2586324476954
 20
1583.4275437313127
 10
1909.7062742082646
 20
1578.9774700132864
 10
1906.9964336332457
 20
1572.9418783436429
 10
1900.4460701348785
 20
1550.0832554522194
 10
1897.7580296733342
 20
1538.344588632646
 10
1896.4015440370765
 20
1526.6030965840482
 10
1896.43760800612
 20
1519.1975406171193
 10
1898.090108333542
 20
1506.6750145643143
 10
1904.8136988788592
 20
1470.042163948594
 10
1909.3339649555057
 20
1440.1747620458648
 10
1912.0387355103705
 20
1363.9574681207584
 10
1915.4578353089851
 20
1246.4501848031057
 10
1922.2509454706519
 20
1186.8216877785035
 10
1925.982384262282
 20
1160.3938110963959
 10
1933.1548826106255
 20
1116.696174561918
 10
1934.2465585104762
 20
1106.8398495164279
 10
1934.2163106683133
 20
1092.590076185382
 10
1933.0997152481846
 20
1082.3407681011347
 10
1929.4559091397646
 20
1064.6775721290749
 10
1923.1203180832927
 20
1044.3612949899268
 10
1915.6871797038289
 20
1025.4507000225267
 10
1910.9289291459572
 20
1015.0811958778445
 10
1895.8366893433124
 20
986.868032418513
 10
1889.1262100642064
 20
972.67553214357247
 10
1885.6903938533469
 20
964.63519950908085
 10
1884.106107624659
 20
958.83887323877912
 10
1882.4235815276522
 20
950.324149347013
 10
1880.4596768241261
 20
840.0315823611445
 10
1881.3880789084042
 20
835.21267419778894
 10
1886.1220652946226
 20
826.76991610001039
 10
1888.5574142333408
 20
824.49924252244375
 10
1891.4431999722074
 20
822.66812773402319
 10
1894.9082539565306
 20
821.46508912875981
 10
2255.5535689132089
 20
817.30220061527643
 10
2259.1517276846039
 20
818.30145285440415
 10
2263.6520984210219
 20
820.80912686881572
 10
2270.5995720070305
 20
826.58400054480592
 10
2288.42604358464
 20
844.92191475667619
 10
2304.9749617361722
 20
865.22849495556761
 10
2308.2252313091471
 20
871.74624616901428
 10
2310.27628745493
 20
879.62584664124506
 10
2310.9397294556525
 20
887.23653084842579
 10
2311.5066120471811
 20
1072.6694572898598
 10
2314.1430303962857
 20
1114.1891148813504
 10
2315.7347055163577
 20
1132.379195307459
 10
2324.8611871220505
 20
1177.6382778829352
 10
2333.1659722916806
 20
1214.4588463250113
 10
2352.8391334064409
 20
1268.7230632578555
 10
2361.7076197126794
 20
1291.4413439026141
 10
2372.5154855046644
 20
1324.4905540707759
 10
2378.1259203312761
 20
1347.9673902493862
 10
2383.6858779651843
 20
1388.8817113131474
 10
2385.3395351614645
 20
1404.0544746291976
 10
2386.08007200472
 20
1427.7295577020245
 10
2386.0032606816712
 20
1572.3579764099607
 10
2384.07333495209
 20
1577.9805219335142
 10
2376.5102950283176
 20
1587.1492124345782
 10
2371.9871939286713
 20
1590.874240277944
 10
2366.8143082118768
 20
1593.4225840380554
 10
2363.4871504630469
 20
1594.2452280321793
  0
LWPOLYLINE
  5
2C
330
1F
100
AcDbEntity
  8
0
 62
7
100
AcDbPolyline
 90
22
 70
1
 10
2317.0610166763408
 20
1543.8444840629088
 10
2317.614631357023
 20
1540.3713629186373
 10
2319.2366891382981
 20
1537.2361213306192
 10
2321.409565818416
 20
1535.0123542990191
 10
2324.5346742102975
 20
1533.2887970429949
 10
2327.6013133290248
 20
1532.6227007233856
 10
2331.1767905585889
 20
1532.8907906170621
 10
2334.1038949583572
 20
1534.0062437506474
 10
2336.9253480906946
 20
1536.1761343486728
 10
2338.7268730658661
 20
1538.6975837857537
 10
2339.8426535088151
 20
1542.0385671317194
 10
2339.9108348335094
 20
1545.1166195389135
 10
2338.944309425071
 20
1548.5017892558687
 10
2337.2558049547129
 20
1551.0983120215969
 10
2334.5336489219844
 20
1553.3862992439756
 10
2331.6582784235097
 20
1554.6258964483109
 10
2328.0981838665443
 20
1555.0464430959403
 10
2325.0051991403466
 20
1554.5119936252952
 10
2321.8062130963908
 20
1552.9233409257088
 10
2319.537404508701
 20
1550.794932985546
 10
2317.7778199106751
 20
1547.7315856739042
 10
2317.0985067991496
 20
1544.7266097189358
  0
LWPOLYLINE
  5
2D
330
1F
100
AcDbEntity
  8
0
 62
7
100
AcDbPolyline
 90
22
 70
1
 10
1941.2615973577206
 20
1545.6514661159022
 10
1941.8152120384027
 20
1542.1783449716308
 10
1943.4372698196778
 20
1539.0431033836128
 10
1945.6101464997953
 20
1536.8193363520124
 10
1948.7352548916767
 20
1535.0957790959883
 10
1951.8018940104043
 20
1534.4296827763792
 10
1955.3773712399682
 20
1534.6977726700554
 10
1958.3044756397367
 20
1535.8132258036408
 10
1961.1259287720741
 20
1537.9831164016662
 10
1962.9274537472459
 20
1540.5045658387471
 10
1964.0432341901944
 20
1543.8455491847128
 10
1964.1114155148887
 20
1546.9236015919071
 10
1963.1448901064505
 20
1550.3087713088621
 10
1961.4563856360921
 20
1552.9052940745903
 10
1958.7342296033639
 20
1555.1932812969692
 10
1955.8588591048892
 20
1556.4328785013045
 10
1952.2987645479241
 20
1556.8534251489339
 10
1949.2057798217263
 20
1556.3189756782888
 10
1946.0067937777703
 20
1554.7303229787021
 10
1943.7379851900807
 20
1552.6019150385393
 10
1941.9784005920544
 20
1549.538567726898
 10
1941.2990874805294
 20
1546.5335917719292
  0
LWPOLYLINE
  5
2E
330
1F
100
AcDbEntity
  8
0
 62
7
100
AcDbPolyline
 90
60
 70
1
 10
2050.1294768200869
 20
1596.4532413635816
 10
2448.0333131478715
 20
1595.8448770838054
 10
2460.7183408171672
 20
1597.3438519568067
 10
2471.4785514227578
 20
1599.7901019309004
 10
2479.5120758857565
 20
1603.6569855498781
 10
2485.4688183807571
 20
1609.1839569708145
 10
2492.476832955494
 20
1618.4338394137067
 10
2495.5043555388575
 20
1623.9035881343609
 10
2497.5031412173239
 20
1628.6199421170627
 10
2498.603678930579
 20
1633.7783565653833
 10
2499.0000000253494
 20
1805.0390986947828
 10
2498.3137641468766
 20
1809.2692191976314
 10
2497.1636226745
 20
1812.5939365370921
 10
2494.7819887408123
 20
1816.7514593783849
 10
2491.7059246217436
 20
1820.3815600399114
 10
2488.9360105349597
 20
1822.8028675572398
 10
2485.6252621865278
 20
1824.3944209485369
 10
2480.6957830431697
 20
1825.6866962658178
 10
2453.2202285075259
 20
1825.8168782853352
 10
2445.7303172207853
 20
1826.8786221991973
 10
2442.5659815191239
 20
1827.9329158185976
 10
2433.299629917678
 20
1833.2367960906511
 10
2427.5542110305487
 20
1837.3983638881061
 10
2420.8778233187463
 20
1844.751768394832
 10
2417.1894285751928
 20
1852.2311327997611
 10
2415.7744778891279
 20
1859.2258602102261
 10
2415.88441681371
 20
1976.3127561200981
 10
2415.0740807045336
 20
1979.5721251309974
 10
2410.6525716010556
 20
1989.4573308828105
 10
2407.0540765411733
 20
1993.9945323080035
 10
2403.7293992254381
 20
1996.44700120543
 10
2400.1254425722805
 20
1997.8125100031345
 10
2394.6717882986654
 20
1998.9999644995444
 10
2104.0825346011752
 20
1998.9999995463629
 10
2097.8079505691367
 20
1996.9117031919768
 10
2092.5115280142677
 20
1993.3801686885263
 10
2088.8660665965044
 20
1989.4664354314875
 10
2086.2504665697747
 20
1984.15995566737
 10
2085.4721787708595
 20
1981.7839988006078
 10
2085.0529154348542
 20
1978.0923218978594
 10
2081.6031001704409
 20
1874.3478090959345
 10
2078.1497426295327
 20
1855.7766391187222
 10
2076.2933347578514
 20
1851.7019323420532
 10
2071.9335479903025
 20
1843.7348745559102
 10
2068.504851399282
 20
1839.4816356737888
 10
2044.2466617807906
 20
1815.6076270846
 10
2016.4654696217503
 20
1787.2109811816686
 10
2002.3083296967848
 20
1771.0687412044149
 10
1999.1523582739383
 20
1764.0964297715989
 10
1998.0372648972798
 20
1760.92664835416
 10
1997.7512727612373
 20
1755.943035783451
 10
1996.239391610786
 20
1636.0962038504827
 10
1996.8142150498563
 20
1633.2545966986152
 10
1998.2336067248577
 20
1628.8382684934168
 10
2000.5630392455275
 20
1624.7528304610203
 10
2008.109892334918
 20
1615.1862907480565
 10
2015.5444464223613
 20
1607.8752820943573
 10
2019.953637567362
 20
1604.6337528515103
 10
2027.6610978388685
 20
1600.425103963559
 10
2041.1227071578965
 20
1597.1242812913285
  0
LWPOLYLINE
  5
2F
330
1F
100
AcDbEntity
  8
0
 62
7
100
AcDbPolyline
 90
22
 70
1
 10
2449.0705102167612
 20
1647.7126585201333
 10
2448.5155052704413
 20
1651.1855577710492
 10
2446.8921925642276
 20
1654.3201497889804
 10
2444.7184258717134
 20
1656.5430468276097
 10
2441.5926277805261
 20
1658.2653529470126
 10
2438.5257222653886
 20
1658.9302216203068
 10
2434.9503526401977
 20
1658.6607004643975
 10
2432.0236949971409
 20
1657.5440756837743
 10
2429.2031107103162
 20
1655.3730558159939
 10
2427.4025952299266
 20
1652.8508854203228
 10
2426.2881522908647
 20
1649.5094556888362
 10
2426.2212031333825
 20
1646.4313762348938
 10
2427.1890835669228
 20
1643.0465936947417
 10
2428.8786273047108
 20
1640.4507470549215
 10
2431.6016990135317
 20
1638.1638497102838
 10
2434.4775654993805
 20
1636.9254036323057
 10
2438.0378281183
 20
1636.5062821443139
 10
2441.1305986535413
 20
1637.0419697113789
 10
2444.3289484945462
 20
1638.6319028558455
 10
2446.5969048867437
 20
1640.7612188423573
 10
2448.3552630685708
 20
1643.825270280201
 10
2449.0333732168347
 20
1646.8305179272763
  0
LWPOLYLINE
  5
30
330
1F
100
AcDbEntity
  8
0
 62
7
100
AcDbPolyline
 90
22
 70
1
 10
2057.073807533538
 20
1647.9711120424925
 10
2056.518802587218
 20
1651.4440112934083
 10
2054.8954898810048
 20
1654.5786033113395
 10
2052.7217231884906
 20
1656.8015003499688
 10
2049.5959250973033
 20
1658.5238064693717
 10
2046.5290195821663
 20
1659.1886751426659
 10
2042.9536499569754
 20
1658.9191539867566
 10
2040.0269923139176
 20
1657.8025292061334
 10
2037.2064080270939
 20
1655.631509338353
 10
2035.4058925467039
 20
1653.1093389426819
 10
2034.2914496076423
 20
1649.7679092111953
 10
2034.2245004501603
 20
1646.6898297572529
 10
2035.1923808837003
 20
1643.3050472171008
 10
2036.881924621488
 20
1640.7092005772806
 10
2039.6049963303085
 20
1638.4223032326429
 10
2042.4808628161584
 20
1637.1838571546648
 10
2046.041125435077
 20
1636.764735666673
 10
2049.1338959703185
 20
1637.3004232337378
 10
2052.332245811323
 20
1638.8903563782046
 10
2054.6002022035204
 20
1641.0196723647164
 10
2056.3585603853476
 20
1644.0837238025601
 10
2057.0366705336114
 20
1647.0889714496354
  0
LWPOLYLINE
  5
31
330
1F
100
AcDbEntity
  8
0
 62
7
100
AcDbPolyline
 90
56
 70
1
 10
2499.0000008200868
 20
422.30661483420045
 10
2499.000001131652
 20
839.653188527756
 10
2497.5817607873337
 20
845.4880245588846
 10
2495.0348628570073
 20
852.1779705719872
 10
2491.5775628566385
 20
859.01688505761365
 10
2487.864771486572
 20
864.2579518031622
 10
2483.7147769021026
 20
868.97891537876751
 10
2475.6416999236194
 20
875.82006016841706
 10
2465.3228011112178
 20
880.63982733549165
 10
2460.666488380949
 20
882.18263262825928
 10
2334.9851905834744
 20
881.995097797963
 10
2331.5236710926492
 20
881.03310262677314
 10
2325.4812036164162
 20
877.8245017374021
 10
2318.4938904053947
 20
872.11185851207426
 10
2309.7432941583875
 20
862.93223872158273
 10
2253.3093676350577
 20
808.52477836551861
 10
2248.55078190906
 20
805.5982687269302
 10
2236.9949364063223
 20
800.51654888840881
 10
2228.3854959842884
 20
798.97844398623715
 10
2121.8706456196892
 20
795.60178981421836
 10
2113.8768400622525
 20
794.53511409560906
 10
2107.8953726802497
 20
792.98374861959883
 10
2104.1971745273104
 20
790.43290537578014
 10
2100.7162288600525
 20
787.21620556403889
 10
2098.7335925788789
 20
784.16850179677124
 10
2097.3729280980274
 20
780.31609466802308
 10
2096.1628596008627
 20
775.23070906002863
 10
2096.1588389245871
 20
486.51004872884545
 10
2099.4027226950079
 20
477.10784896635653
 10
2102.4219138441563
 20
472.9456583461519
 10
2106.1964342629531
 20
469.24554685427807
 10
2109.669461127417
 20
467.16375648784754
 10
2115.030650465254
 20
465.77481660181184
 10
2121.3737456362796
 20
464.92493314345836
 10
2226.6030224381557
 20
464.72786081052027
 10
2241.5477589644065
 20
461.81532979691355
 10
2249.9199803751912
 20
458.81635579024606
 10
2255.0298048194472
 20
455.59661205219436
 10
2261.3345154391736
 20
448.71465910200186
 10
2268.5063868522666
 20
433.95401111453918
 10
2269.7005640721472
 20
428.29446338391961
 10
2270.4726852564836
 20
393.73479892092666
 10
2271.9190629623167
 20
390.84462013486797
 10
2274.9387046193397
 20
387.95388262805011
 10
2278.4619260103091
 20
385.44825586962958
 10
2286.9562266865814
 20
381.72078660487517
 10
2294.19268980109
 20
380.17706709981496
 10
2300.1709070491193
 20
379.66122996096465
 10
2466.0485687661649
 20
381.38231617536587
 10
2469.7859277613529
 20
381.92584134440636
 10
2473.3105838353922
 20
383.46574918749263
 10
2478.78681280623
 20
387.0598386151193
 10
2485.3968157041518
 20
393.54319388976978
 10
2490.8111379988263
 20
400.026972824185
 10
2495.4077965923052
 20
407.73112260514057
 10
2498.3680103937236
 20
414.72948872417845
  0
LWPOLYLINE
  5
32
330
1F
100
AcDbEntity
  8
0
 62
7
100
AcDbPolyline
 90
22
 70
1
 10
2448.4906417302773
 20
845.396139133544
 10
2445.0185050064956
 20
844.83638358973883
 10
2441.8861367027853
 20
843.20878410861872
 10
2439.6662155765
 20
841.031978405093
 10
2437.9481873322175
 20
837.90382702965587
 10
2437.2875149762294
 20
834.83601480764139
 10
2437.5619271818741
 20
831.26101724797616
 10
2438.6825547459152
 20
828.33588994765535
 10
2440.8574312962483
 20
825.51827837467624
 10
2443.3820625357366
 20
823.721215046765
 10
2446.7250137594833
 20
822.61134440991657
 10
2449.80318192312
 20
822.54860629677717
 10
2453.1866371822616
 20
823.52111639293992
 10
2455.7801700043242
 20
825.21420981040012
 10
2458.0633398973064
 20
827.94040757213133
 10
2459.2978504731127
 20
830.81796562901161
 10
2459.7121009341595
 20
834.37879829748783
 10
2459.1721827884862
 20
837.47083308855
 10
2457.5778756136742
 20
840.66700482074327
 10
2455.4454589308848
 20
842.93204606943732
 10
2452.3790048298088
 20
844.68621081521894
 10
2449.3728323030928
 20
845.3602089851338
  0
LWPOLYLINE
  5
33
330
1F
100
AcDbEntity
  8
0
 62
7
100
AcDbPolyline
 90
22
 70
1
 10
2447.8581306117758
 20
453.01315078083388
 10
2444.3859938879946
 20
452.45339523702887
 10
2441.2536255842842
 20
450.82579575590864
 10
2439.0337044579983
 20
448.64899005238294
 10
2437.315676213716
 20
445.52083867694574
 10
2436.6550038577284
 20
442.45302645493121
 10
2436.9294160633731
 20
438.87802889526591
 10
2438.0500436274137
 20
435.95290159494522
 10
2440.2249201777472
 20
433.13529002196617
 10
2442.7495514172356
 20
431.33822669405481
 10
2446.0925026409818
 20
430.22835605720644
 10
2449.170670804619
 20
430.165617944067
 10
2452.55412606376
 20
431.13812804022984
 10
2455.1476588858231
 20
432.83122145768988
 10
2457.4308287788049
 20
435.55741921942115
 10
2458.6653393546112
 20
438.43497727630154
 10
2459.0795898156584
 20
441.99580994477759
 10
2458.5396716699852
 20
445.08784473583984
 10
2456.9453644951727
 20
448.28401646803309
 10
2454.8129478123838
 20
450.5490577167273
 10
2451.7464937113073
 20
452.30322246250887
 10
2448.7403211845913
 20
452.97722063242372
  0
ENDSEC
  0
SECTION
  2
OBJECTS
  0
DICTIONARY
  5
C
330
0
100
AcDbDictionary
280
0
281
1
  3
ACAD_SCALELIST
350
39
  3
ACAD_COLOR
350
4B
  3
ACAD_FIELDLIST
350
4C
  3
ACAD_GROUP
350
D
  3
ACAD_IMAGE_DICT
350
4D
  3
ACAD_LAYOUT
350
1A
  3
ACAD_MATERIAL
350
4E
  3
ACAD_MLEADERSTYLE
350
4F
  3
ACAD_MLINESTYLE
350
17
  3
ACAD_PLOTSETTINGS
350
19
  3
ACAD_PLOTSTYLENAME
350
E
  3
ACAD_TABLESTYLE
350
51
  3
ACDB_RECOMPOSE_DATA
350
55
  3
AcDbVariableDictionary
350
56
  3
ACAD_VISUALSTYLE
350
59
  3
DWGPROPS
350
5A
  0
DICTIONARY
  5
53
330
52
100
AcDbDictionary
280
0
281
1
  3
ACAD_ROUNDTRIP_2008_TABLESTYLE_CELLSTYLEMAP
360
54
  0
DICTIONARY
  5
39
102
{ACAD_REACTORS
330
C
102
}
330
C
100
AcDbDictionary
280
0
281
1
  0
DICTIONARY
  5
4B
102
{ACAD_REACTORS
330
C
102
}
330
C
100
AcDbDictionary
280
0
281
1
  0
FIELDLIST
  5
4C
102
{ACAD_REACTORS
330
C
102
}
330
C
100
AcDbIdSet
100
AcDbFieldList
  0
DICTIONARY
  5
D
102
{ACAD_REACTORS
330
C
102
}
330
C
100
AcDbDictionary
280
0
281
1
  0
DICTIONARY
  5
4D
102
{ACAD_REACTORS
330
C
102
}
330
C
100
AcDbDictionary
280
0
281
1
  0
DICTIONARY
  5
1A
102
{ACAD_REACTORS
330
C
102
}
330
C
100
AcDbDictionary
280
0
281
1
  3
Layout1
350
1E
  3
Model
350
22
  0
DICTIONARY
  5
4E
102
{ACAD_REACTORS
330
C
102
}
330
C
100
AcDbDictionary
280
0
281
1
  0
DICTIONARY
  5
4F
102
{ACAD_REACTORS
330
C
102
}
330
C
100
AcDbDictionary
280
0
281
1
  3
Standard
350
50
  0
DICTIONARY
  5
17
102
{ACAD_REACTORS
330
C
102
}
330
C
100
AcDbDictionary
280
0
281
1
  3
STANDARD
350
18
  0
DICTIONARY
  5
19
102
{ACAD_REACTORS
330
C
102
}
330
C
100
AcDbDictionary
280
0
281
1
  0
ACDBDICTIONARYWDFLT
  5
E
102
{ACAD_REACTORS
330
C
102
}
330
C
100
AcDbDictionary
280
0
281
1
  3
Normal
350
F
100
AcDbDictionaryWithDefault
340
F
  0
ACDBPLACEHOLDER
  5
F
102
{ACAD_REACTORS
330
E
102
}
330
E
  0
DICTIONARY
  5
51
102
{ACAD_REACTORS
330
C
102
}
330
C
100
AcDbDictionary
280
0
281
1
  3
Standard
350
52
  0
XRECORD
  5
55
102
{ACAD_REACTORS
330
C
102
}
330
C
100
AcDbXrecord
280
1
 90
1
330
52
  0
DICTIONARY
  5
56
102
{ACAD_REACTORS
330
C
102
}
330
C
100
AcDbDictionary
280
0
281
1
  3
DIMASSOC
350
57
  3
HIDETEXT
350
58
  0
DICTIONARY
  5
59
102
{ACAD_REACTORS
330
C
102
}
330
C
100
AcDbDictionary
280
0
281
1
  0
XRECORD
  5
5A
102
{ACAD_REACTORS
330
C
102
}
330
C
100
AcDbXrecord
280
0
  1
DWGPROPS COOKIE
  2

  3

  4

  6

  7

  8

  9

300
=
301
=
302
=
303
=
304
=
305
=
306
=
307
=
308
=
309
=
 40
0
 41
2460962.99489081
 42
2460962.99489081
  1

 90
0
  0
CELLSTYLEMAP
  5
54
102
{ACAD_REACTORS
330
53
102
}
330
53
100
AcDbCellStyleMap
 90
3
300
CELLSTYLE
  1
TABLEFORMAT_BEGIN
 90
5
170
0
309
TABLEFORMAT_END
  1
CELLSTYLE_BEGIN
 90
3
 91
2
300
_DATA
309
CELLSTYLE_END
300
CELLSTYLE
  1
TABLEFORMAT_BEGIN
 90
5
170
0
309
TABLEFORMAT_END
  1
CELLSTYLE_BEGIN
 90
1
 91
2
300
_TITLE
309
CELLSTYLE_END
300
CELLSTYLE
  1
TABLEFORMAT_BEGIN
 90
5
170
0
309
TABLEFORMAT_END
  1
CELLSTYLE_BEGIN
 90
2
 91
2
300
_HEADER
309
CELLSTYLE_END
  0
LAYOUT
  5
1E
102
{ACAD_REACTORS
330
1A
102
}
330
1A
100
AcDbPlotSettings
  1

  2
C:\Program Files\AutoCAD 2002\plotters\DWF ePlot (optimized for plotting).pc3
  4

  6

 40
0
 41
0
 42
0
 43
0
 44
0
 45
0
 46
0
 47
0
 48
0
 49
0
140
0
141
0
142
1
143
1
 70
688
 72
1
 73
1
 74
1
  7
acad.stb
 75
16
 76
0
 77
0
 78
0
147
1
148
0
149
0
100
AcDbLayout
  1
Layout1
 70
1
 71
1
 10
0
 20
0
 11
420
 21
297
 12
0
 22
0
 32
0
 14
0
 24
0
 34
0
 15
0
 25
0
 35
0
146
0
 13
0
 23
0
 33
0
 16
1
 26
0
 36
0
 17
0
 27
1
 37
0
 76
0
330
34
  0
LAYOUT
  5
22
102
{ACAD_REACTORS
330
1A
102
}
330
1A
100
AcDbPlotSettings
  1

  2
C:\Program Files\AutoCAD 2002\plotters\DWF ePlot (optimized for plotting).pc3
  4

  6

 40
0
 41
0
 42
0
 43
0
 44
0
 45
0
 46
0
 47
0
 48
0
 49
0
140
0
141
0
142
1
143
1
 70
1712
 72
1
 73
1
 74
0
  7
acad.stb
 75
0
 76
0
 77
0
 78
0
147
1
148
0
149
0
100
AcDbLayout
  1
Model
 70
1
 71
0
 10
0
 20
0
 11
12
 21
9
 12
0
 22
0
 32
0
 14
0
 24
0
 34
0
 15
0
 25
0
 35
0
146
0
 13
0
 23
0
 33
0
 16
1
 26
0
 36
0
 17
0
 27
1
 37
0
 76
0
330
1F
  0
MLEADERSTYLE
  5
50
102
{ACAD_REACTORS
330
4F
102
}
330
4F
100
AcDbMLeaderStyle
170
2
171
1
172
0
 90
2
 40
0
 41
0
173
1
 91
0
340
0
 92
-2
290
1
 42
0.09
292
1
 43
0.36
  3
Standard
341
0
 44
0.18
300

342
0
174
1
178
1
175
1
176
0
 93
0
 45
0.18
292
0
297
0
 46
0
343
0
 94
0
 47
1
 49
1
140
1
293
1
141
0
294
1
177
0
142
1
295
0
296
0
143
0.125
  0
MLINESTYLE
  5
18
102
{ACAD_REACTORS
330
17
102
}
330
17
100
AcDbMlineStyle
  2
STANDARD
 70
0
  3

 51
90
 52
90
 71
2
 49
0.5
 62
0
  6
ByLayer
 49
-0.5
 62
0
  6
ByLayer
  0
TABLESTYLE
  5
52
102
{ACAD_XDICTIONARY
360
53
102
}
102
{ACAD_REACTORS
330
51
102
}
330
51
100
AcDbTableStyle
  3

 70
0
 71
0
 40
0.06
 41
0.06
280
0
281
0
  7
Standard
140
0.18
170
1
 62
0
283
0
 90
512
 91
0
274
-2
284
1
 64
0
275
-2
285
1
 65
0
276
-2
286
1
 66
0
277
-2
287
1
 67
0
278
-2
288
1
 68
0
279
-2
289
1
 69
0
  7
Standard
140
0.18
170
1
 62
0
283
0
 90
512
 91
0
274
-2
284
1
 64
0
275
-2
285
1
 65
0
276
-2
286
1
 66
0
277
-2
287
1
 67
0
278
-2
288
1
 68
0
279
-2
289
1
 69
0
  7
Standard
140
0.18
170
1
 62
0
283
0
 90
512
 91
0
274
-2
284
1
 64
0
275
-2
285
1
 65
0
276
-2
286
1
 66
0
277
-2
287
1
 67
0
278
-2
288
1
 68
0
279
-2
289
1
 69
0
  0
DICTIONARYVAR
  5
57
102
{ACAD_REACTORS
330
56
102
}
330
56
100
DictionaryVariables
280
0
  1
1
  0
DICTIONARYVAR
  5
58
102
{ACAD_REACTORS
330
56
102
}
330
56
100
DictionaryVariables
280
0
  1
2
  0
ENDSEC
999
Created By CadLib version 4.0.38.30
999
CadLib website: www.woutware.com
  0
EOF
