  0
SECTION
  2
HEADER
  9
$ACADVER
  1
AC1015
  9
$DWGCODEPAGE
  3
ansi_1252
  9
$INSBASE
 10
0
 20
0
 30
0
  9
$EXTMIN
 10
1897.8707824515627
 20
8.372967271906445
 30
0
  9
$EXTMAX
 10
2499.1263422313477
 20
1999.0000002757818
 30
0
  9
$LIMMIN
 10
0
 20
0
  9
$LIMMAX
 10
12
 20
9
  9
$SNAPMODE
 70
0
  9
$SNAPUNIT
 10
1
 20
1
  9
$SNAPBASE
 10
0
 20
0
  9
$SNAPANG
 50
0
  9
$SNAPSTYLE
 70
0
  9
$SNAPISOPAIR
 70
0
  9
$ORTHOMODE
 70
0
  9
$REGENMODE
 70
1
  9
$FILLMODE
 70
1
  9
$QTEXTMODE
 70
0
  9
$MIRRTEXT
 70
1
  9
$LTSCALE
 40
1
  9
$OSMODE
 70
0
  9
$ATTMODE
 70
1
  9
$TEXTSIZE
 40
0.2
  9
$TRACEWID
 40
0.05
  9
$TEXTSTYLE
  7
Standard
  9
$CLAYER
  8
0
  9
$CELTYPE
  6
ByLayer
  9
$CECOLOR
 62
256
  9
$CELTSCALE
 40
1
  9
$DISPSILH
 70
0
  9
$DIMSCALE
 40
1
  9
$DIMASZ
 40
0.18
  9
$DIMEXO
 40
0.0625
  9
$DIMDLI
 40
0.38
  9
$DIMRND
 40
0
  9
$DIMDLE
 40
0
  9
$DIMEXE
 40
0.18
  9
$DIMTP
 40
0
  9
$DIMTM
 40
0
  9
$DIMTXT
 40
0.18
  9
$DIMCEN
 40
0.09
  9
$DIMTSZ
 40
0
  9
$DIMTOL
 70
0
  9
$DIMLIM
 70
0
  9
$DIMTIH
 70
1
  9
$DIMTOH
 70
1
  9
$DIMSE1
 70
0
  9
$DIMSE2
 70
0
  9
$DIMTAD
 70
0
  9
$DIMZIN
 70
0
  9
$DIMBLK
  1

  9
$DIMASO
 70
1
  9
$DIMSHO
 70
1
  9
$DIMPOST
  1

  9
$DIMAPOST
  1

  9
$DIMALT
 70
0
  9
$DIMALTD
 70
2
  9
$DIMALTF
 40
0.03937007874015748
  9
$DIMLFAC
 40
1
  9
$DIMTOFL
 70
0
  9
$DIMTVP
 40
0
  9
$DIMTIX
 70
0
  9
$DIMSOXD
 70
0
  9
$DIMSAH
 70
0
  9
$DIMBLK1
  1

  9
$DIMBLK2
  1

  9
$DIMSTYLE
  2
Standard
  9
$DIMCLRD
 70
0
  9
$DIMCLRE
 70
0
  9
$DIMCLRT
 70
0
  9
$DIMTFAC
 40
1
  9
$DIMGAP
 40
0.09
  9
$DIMJUST
 70
0
  9
$DIMSD1
 70
0
  9
$DIMSD2
 70
0
  9
$DIMTOLJ
 70
1
  9
$DIMTZIN
 70
0
  9
$DIMALTZ
 70
0
  9
$DIMALTTZ
 70
0
  9
$DIMUPT
 70
0
  9
$DIMDEC
 70
4
  9
$DIMTDEC
 70
4
  9
$DIMALTU
 70
2
  9
$DIMALTTD
 70
0
  9
$DIMTXSTY
  7
Standard
  9
$DIMAUNIT
 70
0
  9
$DIMADEC
 70
0
  9
$DIMALTRND
 40
0
  9
$DIMAZIN
 70
0
  9
$DIMDSEP
 70
46
  9
$DIMATFIT
 70
0
  9
$DIMFRAC
 70
0
  9
$DIMLDRBLK
  1

  9
$DIMLUNIT
 70
2
  9
$DIMLWD
 70
-2
  9
$DIMLWE
 70
-2
  9
$LUNITS
 70
2
  9
$LUPREC
 70
4
  9
$SKETCHINC
 40
0.1
  9
$FILLETRAD
 40
0
  9
$AUNITS
 70
0
  9
$AUPREC
 70
0
  9
$MENU
  1
.
  9
$ELEVATION
 40
0
  9
$PELEVATION
 40
0
  9
$THICKNESS
 40
0
  9
$LIMCHECK
 70
0
  9
$CHAMFERA
 40
0.5
  9
$CHAMFERB
 40
0.5
  9
$CHAMFERC
 40
0
  9
$CHAMFERD
 40
0
  9
$SKPOLY
 70
0
  9
$TDCREATE
 40
2460962.8984674537
  9
$TDUCREATE
 40
2460962.8568007872
  9
$TDUPDATE
 40
2460962.8984674537
  9
$TDUUPDATE
 40
2460962.8568007872
  9
$TDINDWG
 40
0
  9
$TDUSRTIMER
 40
1.1574074074074074E-08
  9
$USRTIMER
 70
1
  9
$ANGBASE
 50
0
  9
$ANGDIR
 70
1
  9
$PDMODE
 70
0
  9
$PDSIZE
 40
0
  9
$PLINEWID
 40
0
  9
$SPLFRAME
 70
0
  9
$SPLINETYPE
 70
6
  9
$SPLINESEGS
 70
8
  9
$HANDSEED
  5
1F8
  9
$SURFTAB1
 70
6
  9
$SURFTAB2
 70
6
  9
$SURFTYPE
 70
6
  9
$SURFU
 70
6
  9
$SURFV
 70
6
  9
$UCSORG
 10
0
 20
0
 30
0
  9
$UCSXDIR
 10
1
 20
0
 30
0
  9
$UCSYDIR
 10
0
 20
1
 30
0
  9
$UCSORTHOREF
  2

  9
$UCSORTHOVIEW
 70
0
  9
$UCSORGTOP
 10
0
 20
0
 30
0
  9
$UCSORGBOTTOM
 10
0
 20
0
 30
0
  9
$UCSORGLEFT
 10
0
 20
0
 30
0
  9
$UCSORGRIGHT
 10
0
 20
0
 30
0
  9
$UCSORGFRONT
 10
0
 20
0
 30
0
  9
$UCSORGBACK
 10
0
 20
0
 30
0
  9
$PUCSORG
 10
0
 20
0
 30
0
  9
$PUCSXDIR
 10
1
 20
0
 30
0
  9
$PUCSYDIR
 10
0
 20
1
 30
0
  9
$PUCSORTHOREF
  2

  9
$PUCSORTHOVIEW
 70
0
  9
$PUCSORGTOP
 10
0
 20
0
 30
0
  9
$PUCSORGBOTTOM
 10
0
 20
0
 30
0
  9
$PUCSORGLEFT
 10
0
 20
0
 30
0
  9
$PUCSORGRIGHT
 10
0
 20
0
 30
0
  9
$PUCSORGFRONT
 10
0
 20
0
 30
0
  9
$PUCSORGBACK
 10
0
 20
0
 30
0
  9
$USERI1
 70
0
  9
$USERI2
 70
0
  9
$USERI3
 70
0
  9
$USERI4
 70
0
  9
$USERI5
 70
0
  9
$USERR1
 40
0
  9
$USERR2
 40
0
  9
$USERR3
 40
0
  9
$USERR4
 40
0
  9
$USERR5
 40
0
  9
$WORLDVIEW
 70
1
  9
$SHADEDGE
 70
3
  9
$SHADEDIF
 70
70
  9
$TILEMODE
 70
1
  9
$MAXACTVP
 70
48
  9
$PINSBASE
 10
0
 20
0
 30
0
  9
$PLIMCHECK
 70
0
  9
$PEXTMIN
 10
1E+20
 20
1E+20
 30
1E+20
  9
$PEXTMAX
 10
-1E+20
 20
-1E+20
 30
-1E+20
  9
$PLIMMAX
 10
0
 20
0
  9
$PLIMMIN
 10
0
 20
0
  9
$UNITMODE
 70
0
  9
$VISRETAIN
 70
1
  9
$PLINEGEN
 70
1
  9
$PSLTSCALE
 70
1
  9
$TREEDEPTH
 70
3020
  9
$CMLSTYLE
  2
STANDARD
  9
$CMLJUST
 70
0
  9
$CMLSCALE
 40
1
  9
$PROXYGRAPHICS
 70
1
  9
$MEASUREMENT
 70
1
  9
$CELWEIGHT
370
-1
  9
$ENDCAPS
280
0
  9
$JOINSTYLE
280
0
  9
$LWDISPLAY
290
1
  9
$INSUNITS
 70
4
  9
$HYPERLINKBASE
  1

  9
$XEDIT
290
1
  9
$CEPSNTYPE
380
0
  9
$PSTYLEMODE
290
0
  9
$FINGERPRINTGUID
  2

  9
$VERSIONGUID
  2

  9
$EXTNAMES
290
1
  9
$PSVPSCALE
 40
0
  9
$CSHADOW
280
0
  9
$SHADOWPLANELOCATION
 40
0
  0
ENDSEC
  0
SECTION
  2
CLASSES
  0
CLASS
  1
RASTERVARIABLES
  2
AcDbRasterVariables
  3
ISM
 90
0
280
0
281
0
  0
CLASS
  1
IMAGEDEF
  2
AcDbRasterImageDef
  3
ISM
 90
0
280
0
281
0
  0
CLASS
  1
IMAGEDEF_REACTOR
  2
AcDbRasterImageDefReactor
  3
ISM
 90
1
280
0
281
0
  0
CLASS
  1
IMAGE
  2
AcDbRasterImage
  3
ISM
 90
127
280
0
281
1
  0
CLASS
  1
ACAD_EVALUATION_GRAPH
  2
AcDbEvalGraph
  3
ObjectDBX Classes
 90
1153
280
0
281
0
  0
CLASS
  1
BLOCKPOINTPARAMETER
  2
AcDbBlockPointParameter
  3
ObjectDBX Classes
 90
1153
280
0
281
0
  0
CLASS
  1
BLOCKBASEPOINTPARAMETER
  2
AcDbBlockBasepointParameter
  3
ObjectDBX Classes
 90
1153
280
0
281
0
  0
CLASS
  1
BLOCKLOOKUPPARAMETER
  2
AcDbBlockLookupParameter
  3
ObjectDBX Classes
 90
1153
280
0
281
0
  0
CLASS
  1
BLOCKVISIBILITYPARAMETER
  2
AcDbBlockVisibilityParameter
  3
ObjectDBX Classes
 90
1153
280
0
281
0
  0
CLASS
  1
BLOCKPROPERTIESTABLE
  2
AcDbBlockPropertiesTable
  3
ObjectDBX Classes
 90
1153
280
0
281
0
  0
CLASS
  1
BLOCKPOLARPARAMETER
  2
AcDbBlockPolarParameter
  3
ObjectDBX Classes
 90
1153
280
0
281
0
  0
CLASS
  1
BLOCKROTATIONPARAMETER
  2
AcDbBlockRotationParameter
  3
ObjectDBX Classes
 90
1153
280
0
281
0
  0
CLASS
  1
BLOCKLINEARPARAMETER
  2
AcDbBlockLinearParameter
  3
ObjectDBX Classes
 90
1153
280
0
281
0
  0
CLASS
  1
BLOCKXYPARAMETER
  2
AcDbBlockXYParameter
  3
ObjectDBX Classes
 90
1153
280
0
281
0
  0
CLASS
  1
BLOCKFLIPPARAMETER
  2
AcDbBlockFlipParameter
  3
ObjectDBX Classes
 90
1153
280
0
281
0
  0
CLASS
  1
BLOCKALIGNMENTPARAMETER
  2
AcDbBlockAlignmentParameter
  3
ObjectDBX Classes
 90
1153
280
0
281
0
  0
CLASS
  1
BLOCKROTATEACTION
  2
AcDbBlockRotateAction
  3
ObjectDBX Classes
 90
1153
280
0
281
0
  0
CLASS
  1
BLOCKSCALEACTION
  2
AcDbBlockScaleAction
  3
ObjectDBX Classes
 90
1153
280
0
281
0
  0
CLASS
  1
BLOCKARRAYACTION
  2
AcDbBlockArrayAction
  3
ObjectDBX Classes
 90
1153
280
0
281
0
  0
CLASS
  1
BLOCKFLIPACTION
  2
AcDbBlockFlipAction
  3
ObjectDBX Classes
 90
1153
280
0
281
0
  0
CLASS
  1
BLOCKLOOKUPACTION
  2
AcDbBlockLookupAction
  3
ObjectDBX Classes
 90
1153
280
0
281
0
  0
CLASS
  1
BLOCKMOVEACTION
  2
AcDbBlockMoveAction
  3
ObjectDBX Classes
 90
1153
280
0
281
0
  0
CLASS
  1
BLOCKPOLARSTRETCHACTION
  2
AcDbBlockPolarStretchAction
  3
ObjectDBX Classes
 90
1153
280
0
281
0
  0
CLASS
  1
BLOCKSTRETCHACTION
  2
AcDbBlockStretchAction
  3
ObjectDBX Classes
 90
1153
280
0
281
0
  0
CLASS
  1
BLOCKALIGNMENTGRIP
  2
AcDbBlockAlignmentGrip
  3
ObjectDBX Classes
 90
1153
280
0
281
0
  0
CLASS
  1
BLOCKFLIPGRIP
  2
AcDbBlockFlipGrip
  3
ObjectDBX Classes
 90
1153
280
0
281
0
  0
CLASS
  1
ACDB_BLOCKREPRESENTATION_DATA
  2
AcDbBlockRepresentationData
  3
ObjectDBX Classes
 90
1153
280
0
281
0
  0
CLASS
  1
ACDB_DYNAMICBLOCKPURGEPREVENTER_VERSION
  2
AcDbDynamicBlockPurgePreventer
  3
ObjectDBX Classes
 90
1153
280
0
281
0
  0
CLASS
  1
BLOCKLINEARGRIP
  2
AcDbBlockLinearGrip
  3
ObjectDBX Classes
 90
1153
280
0
281
0
  0
CLASS
  1
BLOCKLOOKUPGRIP
  2
AcDbBlockLookupGrip
  3
ObjectDBX Classes
 90
1153
280
0
281
0
  0
CLASS
  1
BLOCKPOLARGRIP
  2
AcDbBlockPolarGrip
  3
ObjectDBX Classes
 90
1153
280
0
281
0
  0
CLASS
  1
BLOCKPROPERTIESTABLEGRIP
  2
AcDbBlockPropertiesTableGrip
  3
ObjectDBX Classes
 90
1153
280
0
281
0
  0
CLASS
  1
BLOCKROTATIONGRIP
  2
AcDbBlockRotationGrip
  3
ObjectDBX Classes
 90
1153
280
0
281
0
  0
CLASS
  1
BLOCKVISIBILITYGRIP
  2
AcDbBlockVisibilityGrip
  3
ObjectDBX Classes
 90
1153
280
0
281
0
  0
CLASS
  1
BLOCKXYGRIP
  2
AcDbBlockXYGrip
  3
ObjectDBX Classes
 90
1153
280
0
281
0
  0
CLASS
  1
BLOCKGRIPLOCATIONCOMPONENT
  2
AcDbBlockGripExpr
  3
ObjectDBX Classes
 90
1153
280
0
281
0
  0
CLASS
  1
ACDB_DYNAMICBLOCKPROXYNODE
  2
AcDbDynamicBlockProxyNode
  3
ObjectDBX Classes
 90
1153
280
0
281
0
  0
CLASS
  1
BLOCKLINEARCONSTRAINTPARAMETER
  2
AcDbBlockLinearConstraintParameter
  3
ObjectDBX Classes
 90
1153
280
0
281
0
  0
CLASS
  1
BLOCKHORIZONTALCONSTRAINTPARAMETER
  2
AcDbBlockHorizontalConstraintParameter
  3
ObjectDBX Classes
 90
1153
280
0
281
0
  0
CLASS
  1
BLOCKVERTICALCONSTRAINTPARAMETER
  2
AcDbBlockVerticalConstraintParameter
  3
ObjectDBX Classes
 90
1153
280
0
281
0
  0
CLASS
  1
BLOCKALIGNEDCONSTRAINTPARAMETER
  2
AcDbBlockAlignedConstraintParameter
  3
ObjectDBX Classes
 90
1153
280
0
281
0
  0
CLASS
  1
BLOCKANGULARCONSTRAINTPARAMETER
  2
AcDbBlockAngularConstraintParameter
  3
ObjectDBX Classes
 90
1153
280
0
281
0
  0
CLASS
  1
BLOCKDIAMETRICCONSTRAINTPARAMETER
  2
AcDbBlockDiametricConstraintParameter
  3
ObjectDBX Classes
 90
1153
280
0
281
0
  0
CLASS
  1
BLOCKRADIALCONSTRAINTPARAMETER
  2
AcDbBlockRadialConstraintParameter
  3
ObjectDBX Classes
 90
1153
280
0
281
0
  0
ENDSEC
  0
SECTION
  2
TABLES
  0
TABLE
  2
VPORT
  5
8
330
0
100
AcDbSymbolTable
 70
1
  0
VPORT
  5
1D3
330
8
100
AcDbSymbolTableRecord
100
AcDbViewportTableRecord
  2
*Active
 70
64
 10
0
 20
0
 11
1
 21
1
 12
2198.498562341455
 22
1003.6864837738441
 13
0
 23
0
 14
1
 24
1
 15
0
 25
0
 16
0
 26
0
 36
1
 17
0
 27
0
 37
0
 40
1990.6270330038753
 41
0.30204330083495579
 42
50
 43
0
 44
0
 50
0
 51
0
 71
0
 72
20000
 73
20000
 74
1
 75
0
 76
0
 77
0
 78
0
281
0
 65
1
110
0
120
0
130
0
111
1
121
0
131
0
112
0
122
1
132
0
 79
0
146
0
  0
ENDTAB
  0
TABLE
  2
LTYPE
  5
5
100
AcDbSymbolTable
 70
3
  0
LTYPE
  5
16
330
5
100
AcDbSymbolTableRecord
100
AcDbLinetypeTableRecord
  2
Continuous
  3
Solid line
 70
64
 72
65
 73
0
 40
0
  0
LTYPE
  5
14
330
5
100
AcDbSymbolTableRecord
100
AcDbLinetypeTableRecord
  2
ByBlock
  3

 70
64
 72
65
 73
0
 40
0
  0
LTYPE
  5
15
330
5
100
AcDbSymbolTableRecord
100
AcDbLinetypeTableRecord
  2
ByLayer
  3

 70
64
 72
65
 73
0
 40
0
  0
ENDTAB
  0
TABLE
  2
LAYER
  5
2
100
AcDbSymbolTable
 70
6
  0
LAYER
  5
10
330
2
100
AcDbSymbolTableRecord
100
AcDbLayerTableRecord
 70
64
  2
0
 62
7
  6
Continuous
370
-3
390
F
  0
LAYER
  5
27
330
2
100
AcDbSymbolTableRecord
100
AcDbLayerTableRecord
 70
64
  2
1
 62
7
  6
Continuous
370
-3
390
F
  0
LAYER
  5
28
330
2
100
AcDbSymbolTableRecord
100
AcDbLayerTableRecord
 70
64
  2
11
 62
7
  6
Continuous
370
-3
390
F
  0
LAYER
  5
29
330
2
100
AcDbSymbolTableRecord
100
AcDbLayerTableRecord
 70
64
  2
3
 62
7
  6
Continuous
370
-3
390
F
  0
LAYER
  5
2A
330
2
100
AcDbSymbolTableRecord
100
AcDbLayerTableRecord
 70
64
  2
2
 62
7
  6
Continuous
370
-3
390
F
  0
LAYER
  5
2B
330
2
100
AcDbSymbolTableRecord
100
AcDbLayerTableRecord
 70
64
  2
DEFPOINTS
 62
7
  6
Continuous
290
0
370
-3
390
F
  0
ENDTAB
  0
TABLE
  2
STYLE
  5
3
100
AcDbSymbolTable
 70
1
  0
STYLE
  5
11
330
3
100
AcDbSymbolTableRecord
100
AcDbTextStyleTableRecord
  2
Standard
 70
64
 40
0
 41
1
 50
0
 71
0
 42
0.2
  3
txt.shx
  0
ENDTAB
  0
TABLE
  2
VIEW
  5
6
100
AcDbSymbolTable
 70
0
  0
ENDTAB
  0
TABLE
  2
UCS
  5
7
100
AcDbSymbolTable
 70
0
  0
ENDTAB
  0
TABLE
  2
APPID
  5
9
330
0
100
AcDbSymbolTable
 70
2
  0
APPID
  5
12
330
0
100
AcDbSymbolTableRecord
100
AcDbRegAppTableRecord
  2
ACAD
 70
64
  0
APPID
  5
1F6
330
0
100
AcDbSymbolTableRecord
100
AcDbRegAppTableRecord
  2
ACAD_MLEADERVER
 70
64
  0
ENDTAB
  0
TABLE
  2
DIMSTYLE
  5
A
330
0
100
AcDbSymbolTable
 70
1
100
AcDbDimStyleTable
 71
0
  0
DIMSTYLE
105
1D2
330
A
100
AcDbSymbolTableRecord
100
AcDbDimStyleTableRecord
  2
Standard
 70
64
  3

  4

 40
1
 41
0.18
 42
0.0625
 43
0.38
 44
0.18
 45
0
 46
0
 47
0
 48
0
140
0.18
141
0.09
142
0
143
1
144
1
145
0
146
1
147
0.09
148
0
 71
0
 72
0
 73
1
 74
1
 75
0
 76
0
 77
0
 78
0
 79
0
170
0
171
2
172
0
173
0
174
0
175
0
179
0
271
4
272
4
273
2
274
0
275
0
276
0
277
2
278
46
279
0
280
0
281
0
282
0
283
1
284
0
285
0
286
0
288
0
289
0
340
11
371
-2
372
-2
  0
ENDTAB
  0
TABLE
  2
BLOCK_RECORD
  5
1
330
0
100
AcDbSymbolTable
 70
3
  0
BLOCK_RECORD
  5
1F
330
1
100
AcDbSymbolTableRecord
100
AcDbBlockTableRecord
  2
*Model_Space
340
22
  0
BLOCK_RECORD
  5
1CF
330
1
100
AcDbSymbolTableRecord
100
AcDbBlockTableRecord
  2
*Paper_Space
340
1E
  0
ENDTAB
  0
ENDSEC
  0
SECTION
  2
BLOCKS
  0
BLOCK
  5
20
330
1F
100
AcDbEntity
  8
0
100
AcDbBlockBegin
  2
*Model_Space
 70
64
 10
0
 20
0
 30
0
  3
*Model_Space
  0
ENDBLK
  5
21
330
1F
100
AcDbEntity
  8
0
100
AcDbBlockEnd
  0
BLOCK
  5
1D0
330
1CF
100
AcDbEntity
  8
0
 67
1
100
AcDbBlockBegin
  2
*Paper_Space
 70
64
 10
0
 20
0
 30
0
  3
*Paper_Space
  0
ENDBLK
  5
1D1
330
1CF
100
AcDbEntity
  8
0
100
AcDbBlockEnd
  0
ENDSEC
  0
SECTION
  2
ENTITIES
  0
LWPOLYLINE
  5
2C
330
1F
100
AcDbEntity
  8
1
 62
7
100
AcDbPolyline
 90
104
 70
1
 10
1911.6982971000002
 20
1091.8354163226477
 10
1918.5572753714846
 20
1089.8924002704016
 10
1943.0033955077288
 20
1089.5951223820928
 10
1991.8736651698273
 20
1089.54186637319
 10
2035.801922412759
 20
1090.848628833553
 10
2074.7929708014835
 20
1093.3970454592557
 10
2133.2232986258787
 20
1098.605397706925
 10
2184.2792068290037
 20
1112.0316062030188
 10
2239.8418576524336
 20
1127.2380303951284
 10
2268.2074502339187
 20
1132.7492653001143
 10
2292.0029710267604
 20
1135.83084613599
 10
2311.1848050918006
 20
1136.9011508494882
 10
2354.8267875479978
 20
1137.5689826068274
 10
2364.5731483268064
 20
1138.8313231524817
 10
2374.1829429435056
 20
1140.8897719439856
 10
2382.6377235221189
 20
1143.1690726336828
 10
2386.1305366324705
 20
1144.7698721942295
 10
2389.2838989066404
 20
1146.9650206622473
 10
2391.997731761865
 20
1149.6848235186924
 10
2394.1859184073728
 20
1152.8430113849035
 10
2395.77903135293
 20
1156.3393340167395
 10
2396.7265258597654
 20
1160.062860017716
 10
2396.9982848929685
 20
1163.8954100665442
 10
2396.5457092093748
 20
1195.5816969928137
 10
2396.8852935599607
 20
1227.2694144305578
 10
2395.8572707938474
 20
1237.2210059222571
 10
2395.8859382437986
 20
1247.2255263385166
 10
2396.970990734033
 20
1257.17107153505
 10
2399.1002975272463
 20
1266.946404939591
 10
2400.6438957022947
 20
1270.4575285968176
 10
2402.6775871085447
 20
1273.709443574845
 10
2405.1588569449705
 20
1276.6341719683996
 10
2408.0358444022463
 20
1279.170640474259
 10
2411.2484679984373
 20
1281.265843873917
 10
2414.7295890616697
 20
1282.8759894427649
 10
2418.4064613150881
 20
1283.9674506244055
 10
2422.2022949027346
 20
1284.5174155291907
 10
2482.6072917746824
 20
1298.6954150256506
 10
2486.5378127860349
 20
1300.7154974994055
 10
2490.0779948996824
 20
1303.3606753405918
 10
2493.1293617057127
 20
1306.5573821124426
 10
2495.6070838736814
 20
1310.216725831925
 10
2497.4422298239988
 20
1314.2369303759924
 10
2498.5837875174802
 20
1318.5061965045325
 10
2498.9999995993894
 20
1322.9058108386389
 10
2498.6792884635252
 20
1327.3134074267737
 10
2498.5920940207761
 20
1479.3909368571631
 10
2497.5577197837156
 20
1483.8106999453894
 10
2495.7757411765378
 20
1487.98547602266
 10
2494.6202884482664
 20
1489.9414119777075
 10
2490.895494060449
 20
1492.9637131747595
 10
2486.87537534707
 20
1495.5804143008581
 10
2482.6039348410886
 20
1497.7628836688391
 10
2478.1278835105222
 20
1499.4872460421911
 10
2473.4962020682615
 20
1500.7346329745642
 10
2468.7595687674807
 20
1501.491402154862
 10
2463.9697967337888
 20
1501.7492661532751
 10
2453.1661830710691
 20
1501.3650260028235
 10
2441.1868606375974
 20
1502.3744807299963
 10
2429.4742332267087
 20
1505.0833306369177
 10
2418.2681594657224
 20
1509.4361195620886
 10
2412.9272971915525
 20
1512.2024092730871
 10
2410.2320037650388
 20
1517.8684554156653
 10
2408.6662803458494
 20
1523.9444098529211
 10
2406.5273795890139
 20
1541.7978606280676
 10
2406.1953292655271
 20
1562.781651979386
 10
2406.2098441886228
 20
1568.8390860614172
 10
2405.4103027152346
 20
1574.8435530719153
 10
2403.8111816214846
 20
1580.686114793717
 10
2402.7202926444338
 20
1583.5134158191076
 10
2400.3389869498533
 20
1585.8390364703528
 10
2394.8589263724607
 20
1589.5992884692541
 10
2391.8322883414553
 20
1590.9844145831457
 10
2377.5550054005739
 20
1592.3487867073891
 10
2363.2646499442385
 20
1593.1500468310705
 10
2353.7253215079218
 20
1593.148916296934
 10
2334.627297954492
 20
1592.3124156054846
 10
2289.3032012748045
 20
1585.0961527881018
 10
2284.7891810015467
 20
1584.2721359901091
 10
2244.3003021048826
 20
1576.0914073047034
 10
2224.4410107653066
 20
1575.6119737719309
 10
2189.7103286538818
 20
1575.8889565379459
 10
2155.0162826346682
 20
1577.9374156054846
 10
2116.4815825488263
 20
1578.5222299976942
 10
2092.5196364860317
 20
1580.2302983848431
 10
2073.4506645748224
 20
1582.7015340730125
 10
2040.2042709159182
 20
1588.3914122638098
 10
2007.5634621473926
 20
1594.5691369398639
 10
1984.1439758109377
 20
1598.1802783069006
 10
1965.3044725139664
 20
1600.2732993195198
 10
1927.4492584037112
 20
1603.1094107684485
 10
1922.8876434134768
 20
1602.8288874682776
 10
1918.4101806449221
 20
1601.912816530167
 10
1914.1049133109377
 20
1600.3792223986975
 10
1910.0566039847658
 20
1598.2582793292395
 10
1906.3449035453127
 20
1595.5917296466223
 10
1903.0429015921877
 20
1592.4320445117346
 10
1900.2154479789065
 20
1588.8413844165198
 10
1897.9183135794924
 20
1584.8904070910803
 10
1898.071054058008
 20
1124.7094855365149
 10
1899.644769267969
 20
1114.9177298602453
 10
1902.6506744193362
 20
1103.7859473285071
 10
1905.5718932914065
 20
1098.4947714862217
 10
1909.4464813041018
 20
1093.8560614642493
  0
CIRCLE
  5
2D
330
1F
100
AcDbEntity
  8
11
 62
7
100
AcDbCircle
 10
1941.5843139457033
 20
1502.211411958634
 30
0
 40
12.00000047683716
  0
CIRCLE
  5
2E
330
1F
100
AcDbEntity
  8
11
 62
7
100
AcDbCircle
 10
1944.2022643851565
 20
1220.612405305802
 30
0
 40
12.00000047683716
  0
POINT
  5
2F
330
1F
100
AcDbEntity
  8
3
 62
7
100
AcDbPoint
 10
1982.1034780648363
 20
1089.4572488158526
 30
0
 50
0
  0
POINT
  5
30
330
1F
100
AcDbEntity
  8
3
 62
7
100
AcDbPoint
 10
2026.0462508963869
 20
1090.4063925799717
 30
0
 50
0
  0
POINT
  5
31
330
1F
100
AcDbEntity
  8
3
 62
7
100
AcDbPoint
 10
2030.924548037359
 20
1090.61614341243
 30
0
 50
0
  0
POINT
  5
32
330
1F
100
AcDbEntity
  8
3
 62
7
100
AcDbPoint
 10
2069.9213966668235
 20
1093.0216569093798
 30
0
 50
0
  0
POINT
  5
33
330
1F
100
AcDbEntity
  8
3
 62
7
100
AcDbPoint
 10
2184.2792068290037
 20
1112.0316062030188
 30
0
 50
0
  0
POINT
  5
34
330
1F
100
AcDbEntity
  8
3
 62
7
100
AcDbPoint
 10
2263.4698087418037
 20
1131.9270631637726
 30
0
 50
0
  0
POINT
  5
35
330
1F
100
AcDbEntity
  8
3
 62
7
100
AcDbPoint
 10
2287.2268806266111
 20
1135.3774771746985
 30
0
 50
0
  0
POINT
  5
36
330
1F
100
AcDbEntity
  8
3
 62
7
100
AcDbPoint
 10
2306.3794473161952
 20
1136.728535426827
 30
0
 50
0
  0
POINT
  5
37
330
1F
100
AcDbEntity
  8
3
 62
7
100
AcDbPoint
 10
2345.0096641349119
 20
1137.1113333758703
 30
0
 50
0
  0
POINT
  5
38
330
1F
100
AcDbEntity
  8
3
 62
7
100
AcDbPoint
 10
2349.922917919092
 20
1137.2392401751868
 30
0
 50
0
  0
POINT
  5
39
330
1F
100
AcDbEntity
  8
3
 62
7
100
AcDbPoint
 10
2354.8267875479978
 20
1137.5689826068274
 30
0
 50
0
  0
POINT
  5
3A
330
1F
100
AcDbEntity
  8
3
 62
7
100
AcDbPoint
 10
2359.7129379081057
 20
1138.0999884662024
 30
0
 50
0
  0
POINT
  5
3B
330
1F
100
AcDbEntity
  8
3
 62
7
100
AcDbPoint
 10
2364.5731483268064
 20
1138.8313231524817
 30
0
 50
0
  0
POINT
  5
3C
330
1F
100
AcDbEntity
  8
3
 62
7
100
AcDbPoint
 10
2369.3992172049807
 20
1139.7617850360266
 30
0
 50
0
  0
POINT
  5
3D
330
1F
100
AcDbEntity
  8
3
 62
7
100
AcDbPoint
 10
2374.1829429435056
 20
1140.8897719439856
 30
0
 50
0
  0
POINT
  5
3E
330
1F
100
AcDbEntity
  8
3
 62
7
100
AcDbPoint
 10
2382.6377235221189
 20
1143.1690726336828
 30
0
 50
0
  0
POINT
  5
3F
330
1F
100
AcDbEntity
  8
3
 62
7
100
AcDbPoint
 10
2386.1305366324705
 20
1144.7698721942295
 30
0
 50
0
  0
POINT
  5
40
330
1F
100
AcDbEntity
  8
3
 62
7
100
AcDbPoint
 10
2389.2838989066404
 20
1146.9650206622473
 30
0
 50
0
  0
POINT
  5
41
330
1F
100
AcDbEntity
  8
3
 62
7
100
AcDbPoint
 10
2391.997731761865
 20
1149.6848235186924
 30
0
 50
0
  0
POINT
  5
42
330
1F
100
AcDbEntity
  8
3
 62
7
100
AcDbPoint
 10
2394.1859184073728
 20
1152.8430113849035
 30
0
 50
0
  0
POINT
  5
43
330
1F
100
AcDbEntity
  8
3
 62
7
100
AcDbPoint
 10
2395.77903135293
 20
1156.3393340167395
 30
0
 50
0
  0
POINT
  5
44
330
1F
100
AcDbEntity
  8
3
 62
7
100
AcDbPoint
 10
2396.7265258597654
 20
1160.062860017716
 30
0
 50
0
  0
POINT
  5
45
330
1F
100
AcDbEntity
  8
3
 62
7
100
AcDbPoint
 10
2396.5457092093748
 20
1195.5816969928137
 30
0
 50
0
  0
POINT
  5
46
330
1F
100
AcDbEntity
  8
3
 62
7
100
AcDbPoint
 10
2396.2396369742678
 20
1232.2316107806555
 30
0
 50
0
  0
POINT
  5
47
330
1F
100
AcDbEntity
  8
3
 62
7
100
AcDbPoint
 10
2395.8572707938474
 20
1237.2210059222571
 30
0
 50
0
  0
POINT
  5
48
330
1F
100
AcDbEntity
  8
3
 62
7
100
AcDbPoint
 10
2395.7392631339353
 20
1242.2236571368567
 30
0
 50
0
  0
POINT
  5
49
330
1F
100
AcDbEntity
  8
3
 62
7
100
AcDbPoint
 10
2395.8859382437986
 20
1247.2255263385166
 30
0
 50
0
  0
POINT
  5
4A
330
1F
100
AcDbEntity
  8
3
 62
7
100
AcDbPoint
 10
2396.2968955802244
 20
1252.2126517352453
 30
0
 50
0
  0
POINT
  5
4B
330
1F
100
AcDbEntity
  8
3
 62
7
100
AcDbPoint
 10
2396.970990734033
 20
1257.17107153505
 30
0
 50
0
  0
POINT
  5
4C
330
1F
100
AcDbEntity
  8
3
 62
7
100
AcDbPoint
 10
2397.9063354300779
 20
1262.086900239884
 30
0
 50
0
  0
POINT
  5
4D
330
1F
100
AcDbEntity
  8
3
 62
7
100
AcDbPoint
 10
2400.6438957022947
 20
1270.4575285968176
 30
0
 50
0
  0
POINT
  5
4E
330
1F
100
AcDbEntity
  8
3
 62
7
100
AcDbPoint
 10
2402.6775871085447
 20
1273.709443574845
 30
0
 50
0
  0
POINT
  5
4F
330
1F
100
AcDbEntity
  8
3
 62
7
100
AcDbPoint
 10
2405.1588569449705
 20
1276.6341719683996
 30
0
 50
0
  0
POINT
  5
50
330
1F
100
AcDbEntity
  8
3
 62
7
100
AcDbPoint
 10
2408.0358444022463
 20
1279.170640474259
 30
0
 50
0
  0
POINT
  5
51
330
1F
100
AcDbEntity
  8
3
 62
7
100
AcDbPoint
 10
2411.2484679984373
 20
1281.265843873917
 30
0
 50
0
  0
POINT
  5
52
330
1F
100
AcDbEntity
  8
3
 62
7
100
AcDbPoint
 10
2414.7295890616697
 20
1282.8759894427649
 30
0
 50
0
  0
POINT
  5
53
330
1F
100
AcDbEntity
  8
3
 62
7
100
AcDbPoint
 10
2418.4064613150881
 20
1283.9674506244055
 30
0
 50
0
  0
POINT
  5
54
330
1F
100
AcDbEntity
  8
3
 62
7
100
AcDbPoint
 10
2452.3856483268064
 20
1291.687959199845
 30
0
 50
0
  0
POINT
  5
55
330
1F
100
AcDbEntity
  8
3
 62
7
100
AcDbPoint
 10
2486.5378127860349
 20
1300.7154974994055
 30
0
 50
0
  0
POINT
  5
56
330
1F
100
AcDbEntity
  8
3
 62
7
100
AcDbPoint
 10
2490.0779948996824
 20
1303.3606753405918
 30
0
 50
0
  0
POINT
  5
57
330
1F
100
AcDbEntity
  8
3
 62
7
100
AcDbPoint
 10
2493.1293617057127
 20
1306.5573821124426
 30
0
 50
0
  0
POINT
  5
58
330
1F
100
AcDbEntity
  8
3
 62
7
100
AcDbPoint
 10
2495.6070838736814
 20
1310.216725831925
 30
0
 50
0
  0
POINT
  5
59
330
1F
100
AcDbEntity
  8
3
 62
7
100
AcDbPoint
 10
2497.4422298239988
 20
1314.2369303759924
 30
0
 50
0
  0
POINT
  5
5A
330
1F
100
AcDbEntity
  8
3
 62
7
100
AcDbPoint
 10
2498.5837875174802
 20
1318.5061965045325
 30
0
 50
0
  0
POINT
  5
5B
330
1F
100
AcDbEntity
  8
3
 62
7
100
AcDbPoint
 10
2498.9999995993894
 20
1322.9058108386389
 30
0
 50
0
  0
POINT
  5
5C
330
1F
100
AcDbEntity
  8
3
 62
7
100
AcDbPoint
 10
2498.8477741050046
 20
1474.8589596804968
 30
0
 50
0
  0
POINT
  5
5D
330
1F
100
AcDbEntity
  8
3
 62
7
100
AcDbPoint
 10
2498.8183055686277
 20
1477.1304986533514
 30
0
 50
0
  0
POINT
  5
5E
330
1F
100
AcDbEntity
  8
3
 62
7
100
AcDbPoint
 10
2498.5920940207761
 20
1479.3909368571631
 30
0
 50
0
  0
POINT
  5
5F
330
1F
100
AcDbEntity
  8
3
 62
7
100
AcDbPoint
 10
2498.1708370017332
 20
1481.6232714709631
 30
0
 50
0
  0
POINT
  5
60
330
1F
100
AcDbEntity
  8
3
 62
7
100
AcDbPoint
 10
2497.5577197837156
 20
1483.8106999453894
 30
0
 50
0
  0
POINT
  5
61
330
1F
100
AcDbEntity
  8
3
 62
7
100
AcDbPoint
 10
2496.7573486136716
 20
1485.9367666301123
 30
0
 50
0
  0
POINT
  5
62
330
1F
100
AcDbEntity
  8
3
 62
7
100
AcDbPoint
 10
2495.7757411765378
 20
1487.98547602266
 30
0
 50
0
  0
POINT
  5
63
330
1F
100
AcDbEntity
  8
3
 62
7
100
AcDbPoint
 10
2490.895494060449
 20
1492.9637131747595
 30
0
 50
0
  0
POINT
  5
64
330
1F
100
AcDbEntity
  8
3
 62
7
100
AcDbPoint
 10
2486.87537534707
 20
1495.5804143008581
 30
0
 50
0
  0
POINT
  5
65
330
1F
100
AcDbEntity
  8
3
 62
7
100
AcDbPoint
 10
2482.6039348410886
 20
1497.7628836688391
 30
0
 50
0
  0
POINT
  5
66
330
1F
100
AcDbEntity
  8
3
 62
7
100
AcDbPoint
 10
2478.1278835105222
 20
1499.4872460421911
 30
0
 50
0
  0
POINT
  5
67
330
1F
100
AcDbEntity
  8
3
 62
7
100
AcDbPoint
 10
2473.4962020682615
 20
1500.7346329745642
 30
0
 50
0
  0
POINT
  5
68
330
1F
100
AcDbEntity
  8
3
 62
7
100
AcDbPoint
 10
2468.7595687674807
 20
1501.491402154862
 30
0
 50
0
  0
POINT
  5
69
330
1F
100
AcDbEntity
  8
3
 62
7
100
AcDbPoint
 10
2463.9697967337888
 20
1501.7492661532751
 30
0
 50
0
  0
POINT
  5
6A
330
1F
100
AcDbEntity
  8
3
 62
7
100
AcDbPoint
 10
2453.1661830710691
 20
1501.3650260028235
 30
0
 50
0
  0
POINT
  5
6B
330
1F
100
AcDbEntity
  8
3
 62
7
100
AcDbPoint
 10
2447.1584354209226
 20
1501.6552147921911
 30
0
 50
0
  0
POINT
  5
6C
330
1F
100
AcDbEntity
  8
3
 62
7
100
AcDbPoint
 10
2441.1868606375974
 20
1502.3744807299963
 30
0
 50
0
  0
POINT
  5
6D
330
1F
100
AcDbEntity
  8
3
 62
7
100
AcDbPoint
 10
2435.2820335196775
 20
1503.5191426333777
 30
0
 50
0
  0
POINT
  5
6E
330
1F
100
AcDbEntity
  8
3
 62
7
100
AcDbPoint
 10
2429.4742332267087
 20
1505.0833306369177
 30
0
 50
0
  0
POINT
  5
6F
330
1F
100
AcDbEntity
  8
3
 62
7
100
AcDbPoint
 10
2423.7932334708494
 20
1507.0590338763586
 30
0
 50
0
  0
POINT
  5
70
330
1F
100
AcDbEntity
  8
3
 62
7
100
AcDbPoint
 10
2418.2681594657224
 20
1509.4361195620886
 30
0
 50
0
  0
POINT
  5
71
330
1F
100
AcDbEntity
  8
3
 62
7
100
AcDbPoint
 10
2412.1523032950681
 20
1513.5687956866614
 30
0
 50
0
  0
POINT
  5
72
330
1F
100
AcDbEntity
  8
3
 62
7
100
AcDbPoint
 10
2411.4436851310056
 20
1514.9707636889807
 30
0
 50
0
  0
POINT
  5
73
330
1F
100
AcDbEntity
  8
3
 62
7
100
AcDbPoint
 10
2410.2320037650388
 20
1517.8684554156653
 30
0
 50
0
  0
POINT
  5
74
330
1F
100
AcDbEntity
  8
3
 62
7
100
AcDbPoint
 10
2409.3033538626951
 20
1520.86886740297
 30
0
 50
0
  0
POINT
  5
75
330
1F
100
AcDbEntity
  8
3
 62
7
100
AcDbPoint
 10
2408.9479385184568
 20
1522.3989996966711
 30
0
 50
0
  0
POINT
  5
76
330
1F
100
AcDbEntity
  8
3
 62
7
100
AcDbPoint
 10
2406.5273795890139
 20
1541.7978606280676
 30
0
 50
0
  0
POINT
  5
77
330
1F
100
AcDbEntity
  8
3
 62
7
100
AcDbPoint
 10
2406.1953292655271
 20
1562.781651979386
 30
0
 50
0
  0
POINT
  5
78
330
1F
100
AcDbEntity
  8
3
 62
7
100
AcDbPoint
 10
2406.3046775626467
 20
1565.8101210650793
 30
0
 50
0
  0
POINT
  5
79
330
1F
100
AcDbEntity
  8
3
 62
7
100
AcDbPoint
 10
2406.2098441886228
 20
1568.8390860614172
 30
0
 50
0
  0
POINT
  5
7A
330
1F
100
AcDbEntity
  8
3
 62
7
100
AcDbPoint
 10
2405.9112678336428
 20
1571.8547949847571
 30
0
 50
0
  0
POINT
  5
7B
330
1F
100
AcDbEntity
  8
3
 62
7
100
AcDbPoint
 10
2405.4103027152346
 20
1574.8435530719153
 30
0
 50
0
  0
POINT
  5
7C
330
1F
100
AcDbEntity
  8
3
 62
7
100
AcDbPoint
 10
2404.7091995047849
 20
1577.7917800006262
 30
0
 50
0
  0
POINT
  5
7D
330
1F
100
AcDbEntity
  8
3
 62
7
100
AcDbPoint
 10
2403.8111816214846
 20
1580.686114793717
 30
0
 50
0
  0
POINT
  5
7E
330
1F
100
AcDbEntity
  8
3
 62
7
100
AcDbPoint
 10
2401.5630279349607
 20
1584.7104010638586
 30
0
 50
0
  0
POINT
  5
7F
330
1F
100
AcDbEntity
  8
3
 62
7
100
AcDbPoint
 10
2400.3389869498533
 20
1585.8390364703528
 30
0
 50
0
  0
POINT
  5
80
330
1F
100
AcDbEntity
  8
3
 62
7
100
AcDbPoint
 10
2397.7069984244631
 20
1587.8765997943274
 30
0
 50
0
  0
POINT
  5
81
330
1F
100
AcDbEntity
  8
3
 62
7
100
AcDbPoint
 10
2394.8589263724607
 20
1589.5992884692541
 30
0
 50
0
  0
POINT
  5
82
330
1F
100
AcDbEntity
  8
3
 62
7
100
AcDbPoint
 10
2393.3654914664553
 20
1590.3352866229407
 30
0
 50
0
  0
POINT
  5
83
330
1F
100
AcDbEntity
  8
3
 62
7
100
AcDbPoint
 10
2363.2646499442385
 20
1593.1500468310705
 30
0
 50
0
  0
POINT
  5
84
330
1F
100
AcDbEntity
  8
3
 62
7
100
AcDbPoint
 10
2358.4961961436297
 20
1593.2016215404508
 30
0
 50
0
  0
POINT
  5
85
330
1F
100
AcDbEntity
  8
3
 62
7
100
AcDbPoint
 10
2289.3032012748045
 20
1585.0961527881018
 30
0
 50
0
  0
POINT
  5
86
330
1F
100
AcDbEntity
  8
3
 62
7
100
AcDbPoint
 10
2284.7891810015467
 20
1584.2721359901091
 30
0
 50
0
  0
POINT
  5
87
330
1F
100
AcDbEntity
  8
3
 62
7
100
AcDbPoint
 10
2234.3701702423309
 20
1575.828175350887
 30
0
 50
0
  0
POINT
  5
88
330
1F
100
AcDbEntity
  8
3
 62
7
100
AcDbPoint
 10
2199.6287475394529
 20
1575.5858645495764
 30
0
 50
0
  0
POINT
  5
89
330
1F
100
AcDbEntity
  8
3
 62
7
100
AcDbPoint
 10
2189.7103286538818
 20
1575.8889565379459
 30
0
 50
0
  0
POINT
  5
8A
330
1F
100
AcDbEntity
  8
3
 62
7
100
AcDbPoint
 10
2121.2890028593083
 20
1578.3457028825921
 30
0
 50
0
  0
POINT
  5
8B
330
1F
100
AcDbEntity
  8
3
 62
7
100
AcDbPoint
 10
2097.3003326224607
 20
1579.760240083634
 30
0
 50
0
  0
POINT
  5
8C
330
1F
100
AcDbEntity
  8
3
 62
7
100
AcDbPoint
 10
2092.5196364860317
 20
1580.2302983848431
 30
0
 50
0
  0
POINT
  5
8D
330
1F
100
AcDbEntity
  8
3
 62
7
100
AcDbPoint
 10
2073.4506645748224
 20
1582.7015340730125
 30
0
 50
0
  0
POINT
  5
8E
330
1F
100
AcDbEntity
  8
3
 62
7
100
AcDbPoint
 10
2012.2335932396352
 20
1593.7414456248964
 30
0
 50
0
  0
POINT
  5
8F
330
1F
100
AcDbEntity
  8
3
 62
7
100
AcDbPoint
 10
1984.1439758109377
 20
1598.1802783069006
 30
0
 50
0
  0
POINT
  5
90
330
1F
100
AcDbEntity
  8
3
 62
7
100
AcDbPoint
 10
1965.3044725139664
 20
1600.2732993195198
 30
0
 50
0
  0
POINT
  5
91
330
1F
100
AcDbEntity
  8
3
 62
7
100
AcDbPoint
 10
1922.8876434134768
 20
1602.8288874682776
 30
0
 50
0
  0
POINT
  5
92
330
1F
100
AcDbEntity
  8
3
 62
7
100
AcDbPoint
 10
1918.4101806449221
 20
1601.912816530167
 30
0
 50
0
  0
POINT
  5
93
330
1F
100
AcDbEntity
  8
3
 62
7
100
AcDbPoint
 10
1914.1049133109377
 20
1600.3792223986975
 30
0
 50
0
  0
POINT
  5
94
330
1F
100
AcDbEntity
  8
3
 62
7
100
AcDbPoint
 10
1910.0566039847658
 20
1598.2582793292395
 30
0
 50
0
  0
POINT
  5
95
330
1F
100
AcDbEntity
  8
3
 62
7
100
AcDbPoint
 10
1906.3449035453127
 20
1595.5917296466223
 30
0
 50
0
  0
POINT
  5
96
330
1F
100
AcDbEntity
  8
3
 62
7
100
AcDbPoint
 10
1903.0429015921877
 20
1592.4320445117346
 30
0
 50
0
  0
POINT
  5
97
330
1F
100
AcDbEntity
  8
3
 62
7
100
AcDbPoint
 10
1900.2154479789065
 20
1588.8413844165198
 30
0
 50
0
  0
POINT
  5
98
330
1F
100
AcDbEntity
  8
3
 62
7
100
AcDbPoint
 10
1897.8707824515627
 20
1129.6680579242102
 30
0
 50
0
  0
POINT
  5
99
330
1F
100
AcDbEntity
  8
3
 62
7
100
AcDbPoint
 10
1897.9217468070315
 20
1127.1867880877842
 30
0
 50
0
  0
POINT
  5
9A
330
1F
100
AcDbEntity
  8
3
 62
7
100
AcDbPoint
 10
1898.071054058008
 20
1124.7094855365149
 30
0
 50
0
  0
POINT
  5
9B
330
1F
100
AcDbEntity
  8
3
 62
7
100
AcDbPoint
 10
1898.6636291312502
 20
1119.782384401261
 30
0
 50
0
  0
POINT
  5
9C
330
1F
100
AcDbEntity
  8
3
 62
7
100
AcDbPoint
 10
1899.1059814261721
 20
1117.3403296527256
 30
0
 50
0
  0
POINT
  5
9D
330
1F
100
AcDbEntity
  8
3
 62
7
100
AcDbPoint
 10
1899.644769267969
 20
1114.9177298602453
 30
0
 50
0
  0
POINT
  5
9E
330
1F
100
AcDbEntity
  8
3
 62
7
100
AcDbPoint
 10
1900.7894836234377
 20
1109.5362601336828
 30
0
 50
0
  0
POINT
  5
9F
330
1F
100
AcDbEntity
  8
3
 62
7
100
AcDbPoint
 10
1901.5824065970705
 20
1106.6165289935459
 30
0
 50
0
  0
POINT
  5
A0
330
1F
100
AcDbEntity
  8
3
 62
7
100
AcDbPoint
 10
1902.6506744193362
 20
1103.7859473285071
 30
0
 50
0
  0
POINT
  5
A1
330
1F
100
AcDbEntity
  8
3
 62
7
100
AcDbPoint
 10
1903.98459775918
 20
1101.0704169329993
 30
0
 50
0
  0
POINT
  5
A2
330
1F
100
AcDbEntity
  8
3
 62
7
100
AcDbPoint
 10
1905.5718932914065
 20
1098.4947714862217
 30
0
 50
0
  0
POINT
  5
A3
330
1F
100
AcDbEntity
  8
3
 62
7
100
AcDbPoint
 10
1907.3981414603518
 20
1096.0826239642493
 30
0
 50
0
  0
POINT
  5
A4
330
1F
100
AcDbEntity
  8
3
 62
7
100
AcDbPoint
 10
1909.4464813041018
 20
1093.8560614642493
 30
0
 50
0
  0
POINT
  5
A5
330
1F
100
AcDbEntity
  8
2
 62
7
100
AcDbPoint
 10
1911.6982971000002
 20
1091.8354163226477
 30
0
 50
0
  0
LWPOLYLINE
  5
A6
330
1F
100
AcDbEntity
  8
1
 62
7
100
AcDbPolyline
 90
85
 70
1
 10
2176.9839701
 20
697.11644413958209
 10
2171.295607978418
 20
698.45922711382525
 10
2165.4860910716798
 20
699.09939053545611
 10
2159.6418604198243
 20
699.02740719805377
 10
2153.8498911205079
 20
698.24434998522418
 10
2148.196357184961
 20
696.76187279711382
 10
2142.7653726878907
 20
694.60203412066119
 10
2137.6378092113282
 20
691.79697278032916
 10
2132.889960700586
 20
688.38844063769
 10
2125.5714258495118
 20
676.67054417620318
 10
2117.6659616771485
 20
665.34035923967974
 10
2109.1939768138673
 20
654.42725422869341
 10
2100.1775202098634
 20
643.95953419695513
 10
2090.6398996654298
 20
633.96433117876666
 10
2080.605910712793
 20
624.46755650530474
 10
2070.1014932933595
 20
615.49384358416228
 10
2059.1539606395509
 20
607.06644299517291
 10
2056.380179816797
 20
607.36200573931353
 10
2053.5999140086915
 20
607.13513615618376
 10
2050.9107431712891
 20
606.39378788958209
 10
2048.4070047679688
 20
605.16397717486041
 10
2046.176474982813
 20
603.48884823809283
 10
2044.2974695506841
 20
601.42715695391314
 10
2042.83586829336
 20
599.05123951922076
 10
2041.842978889063
 20
596.44444706926959
 10
2038.737624579981
 20
581.73770192156451
 10
2036.8049463573248
 20
566.83144810686724
 10
2036.8049463573248
 20
434.79542973528532
 10
2033.4441922935141
 20
405.8901045531797
 10
2029.4062781798168
 20
377.1272437567049
 10
2025.0355371776373
 20
353.36980107317589
 10
2021.8268472220386
 20
339.23867141005383
 10
2015.6430304163296
 20
315.86267062761652
 10
1994.8154672923833
 20
246.32233860979696
 10
1991.1256250682623
 20
227.3643994618478
 10
1988.8735422435552
 20
208.18242314348842
 10
1988.290961677149
 20
198.54142430315639
 10
1988.290961677149
 20
46.35545018206264
 10
1986.4320921412514
 20
37.444309771468369
 10
1986.8491713920214
 20
31.364828937678084
 10
1988.5311939650182
 20
25.520663390936509
 10
1991.4304452347562
 20
20.168110099247858
 10
1995.4064540426523
 20
15.56646153447943
 10
2000.2706597076788
 20
11.89582501445031
 10
2002.9741129222662
 20
10.499660997492327
 10
2008.749946052149
 20
8.58445408831264
 10
2464.2214807811524
 20
8.7869382191720717
 10
2474.41618292959
 20
11.472027330500199
 10
2480.7339319530274
 20
14.572460680109574
 10
2484.4753107372071
 20
16.976254015070516
 10
2487.8053125682618
 20
19.923718004328329
 10
2490.6457361522462
 20
23.345501451593954
 10
2492.9297479930665
 20
27.161190538508016
 10
2494.603713447168
 20
31.281139879328329
 10
2495.6283411327149
 20
35.608532457453329
 10
2495.9795221629884
 20
40.041668443781454
 10
2495.6489404979493
 20
44.476406602961141
 10
2495.2990550158961
 20
62.524765397335422
 10
2493.5832955336964
 20
94.03396796949643
 10
2490.1159509959962
 20
125.42344334612518
 10
2483.574790548987
 20
158.24314233500857
 10
2479.8386225047852
 20
181.80848362932832
 10
2477.3752088958922
 20
205.54063605198402
 10
2475.2369531932618
 20
238.93742802630092
 10
2474.6919855418946
 20
358.31544163714079
 10
2486.2905725780274
 20
423.2651257802072
 10
2487.77952681138
 20
432.57105675840683
 10
2498.8818201366212
 20
508.53919270525608
 10
2498.9999994579102
 20
522.02815297136931
 10
2497.6372370067384
 20
535.44863942156462
 10
2496.4049372020509
 20
542.082436113459
 10
2491.5803346952839
 20
559.1581753572176
 10
2488.6414179149415
 20
572.09344151507048
 10
2487.2234143173077
 20
580.81928012199751
 10
2484.9139246288087
 20
602.86744359026579
 10
2484.07438605459
 20
619.06637433062224
 10
2481.7431482616212
 20
635.11865857134489
 10
2477.9402002635743
 20
650.88722470293669
 10
2469.4324335399415
 20
676.66852238665251
 10
2466.7205652538087
 20
681.42944577227263
 10
2463.3581384959962
 20
685.75554135332732
 10
2459.4138178172852
 20
689.55858471880583
 10
2454.9680170360352
 20
692.761023073298
 10
2450.1113733592774
 20
695.297553567988
 10
2444.9429926219727
 20
697.1164441395822
  0
POINT
  5
A7
330
1F
100
AcDbEntity
  8
3
 62
7
100
AcDbPoint
 10
2171.295607978418
 20
698.45922711382525
 30
0
 50
0
  0
POINT
  5
A8
330
1F
100
AcDbEntity
  8
3
 62
7
100
AcDbPoint
 10
2165.4860910716798
 20
699.09939053545611
 30
0
 50
0
  0
POINT
  5
A9
330
1F
100
AcDbEntity
  8
3
 62
7
100
AcDbPoint
 10
2159.6418604198243
 20
699.02740719805377
 30
0
 50
0
  0
POINT
  5
AA
330
1F
100
AcDbEntity
  8
3
 62
7
100
AcDbPoint
 10
2153.8498911205079
 20
698.24434998522418
 30
0
 50
0
  0
POINT
  5
AB
330
1F
100
AcDbEntity
  8
3
 62
7
100
AcDbPoint
 10
2148.196357184961
 20
696.76187279711382
 30
0
 50
0
  0
POINT
  5
AC
330
1F
100
AcDbEntity
  8
3
 62
7
100
AcDbPoint
 10
2142.7653726878907
 20
694.60203412066119
 30
0
 50
0
  0
POINT
  5
AD
330
1F
100
AcDbEntity
  8
3
 62
7
100
AcDbPoint
 10
2137.6378092113282
 20
691.79697278032916
 30
0
 50
0
  0
POINT
  5
AE
330
1F
100
AcDbEntity
  8
3
 62
7
100
AcDbPoint
 10
2125.5714258495118
 20
676.67054417620318
 30
0
 50
0
  0
POINT
  5
AF
330
1F
100
AcDbEntity
  8
3
 62
7
100
AcDbPoint
 10
2117.6659616771485
 20
665.34035923967974
 30
0
 50
0
  0
POINT
  5
B0
330
1F
100
AcDbEntity
  8
3
 62
7
100
AcDbPoint
 10
2109.1939768138673
 20
654.42725422869341
 30
0
 50
0
  0
POINT
  5
B1
330
1F
100
AcDbEntity
  8
3
 62
7
100
AcDbPoint
 10
2100.1775202098634
 20
643.95953419695513
 30
0
 50
0
  0
POINT
  5
B2
330
1F
100
AcDbEntity
  8
3
 62
7
100
AcDbPoint
 10
2090.6398996654298
 20
633.96433117876666
 30
0
 50
0
  0
POINT
  5
B3
330
1F
100
AcDbEntity
  8
3
 62
7
100
AcDbPoint
 10
2080.605910712793
 20
624.46755650530474
 30
0
 50
0
  0
POINT
  5
B4
330
1F
100
AcDbEntity
  8
3
 62
7
100
AcDbPoint
 10
2070.1014932933595
 20
615.49384358416228
 30
0
 50
0
  0
POINT
  5
B5
330
1F
100
AcDbEntity
  8
3
 62
7
100
AcDbPoint
 10
2056.380179816797
 20
607.36200573931353
 30
0
 50
0
  0
POINT
  5
B6
330
1F
100
AcDbEntity
  8
3
 62
7
100
AcDbPoint
 10
2053.5999140086915
 20
607.13513615618376
 30
0
 50
0
  0
POINT
  5
B7
330
1F
100
AcDbEntity
  8
3
 62
7
100
AcDbPoint
 10
2050.9107431712891
 20
606.39378788958209
 30
0
 50
0
  0
POINT
  5
B8
330
1F
100
AcDbEntity
  8
3
 62
7
100
AcDbPoint
 10
2048.4070047679688
 20
605.16397717486041
 30
0
 50
0
  0
POINT
  5
B9
330
1F
100
AcDbEntity
  8
3
 62
7
100
AcDbPoint
 10
2046.176474982813
 20
603.48884823809283
 30
0
 50
0
  0
POINT
  5
BA
330
1F
100
AcDbEntity
  8
3
 62
7
100
AcDbPoint
 10
2044.2974695506841
 20
601.42715695391314
 30
0
 50
0
  0
POINT
  5
BB
330
1F
100
AcDbEntity
  8
3
 62
7
100
AcDbPoint
 10
2042.83586829336
 20
599.05123951922076
 30
0
 50
0
  0
POINT
  5
BC
330
1F
100
AcDbEntity
  8
3
 62
7
100
AcDbPoint
 10
2038.737624579981
 20
581.73770192156451
 30
0
 50
0
  0
POINT
  5
BD
330
1F
100
AcDbEntity
  8
3
 62
7
100
AcDbPoint
 10
2034.606243651197
 20
415.51641884933639
 30
0
 50
0
  0
POINT
  5
BE
330
1F
100
AcDbEntity
  8
3
 62
7
100
AcDbPoint
 10
2030.1550263710146
 20
381.905114587046
 30
0
 50
0
  0
POINT
  5
BF
330
1F
100
AcDbEntity
  8
3
 62
7
100
AcDbPoint
 10
2025.0355371776373
 20
353.36980107317589
 30
0
 50
0
  0
POINT
  5
C0
330
1F
100
AcDbEntity
  8
3
 62
7
100
AcDbPoint
 10
2021.8268472220386
 20
339.23867141005383
 30
0
 50
0
  0
POINT
  5
C1
330
1F
100
AcDbEntity
  8
3
 62
7
100
AcDbPoint
 10
2015.6430304163296
 20
315.86267062761652
 30
0
 50
0
  0
POINT
  5
C2
330
1F
100
AcDbEntity
  8
3
 62
7
100
AcDbPoint
 10
1999.9220880809576
 20
264.94874241839079
 30
0
 50
0
  0
POINT
  5
C3
330
1F
100
AcDbEntity
  8
3
 62
7
100
AcDbPoint
 10
1997.193320685938
 20
255.68364384661336
 30
0
 50
0
  0
POINT
  5
C4
330
1F
100
AcDbEntity
  8
3
 62
7
100
AcDbPoint
 10
1994.8154672923833
 20
246.32233860979696
 30
0
 50
0
  0
POINT
  5
C5
330
1F
100
AcDbEntity
  8
3
 62
7
100
AcDbPoint
 10
1992.7919611278326
 20
236.87814000139858
 30
0
 50
0
  0
POINT
  5
C6
330
1F
100
AcDbEntity
  8
3
 62
7
100
AcDbPoint
 10
1991.1256250682623
 20
227.3643994618478
 30
0
 50
0
  0
POINT
  5
C7
330
1F
100
AcDbEntity
  8
3
 62
7
100
AcDbPoint
 10
1989.8189005199224
 20
217.79462101946498
 30
0
 50
0
  0
POINT
  5
C8
330
1F
100
AcDbEntity
  8
3
 62
7
100
AcDbPoint
 10
1988.8735422435552
 20
208.18242314348842
 30
0
 50
0
  0
POINT
  5
C9
330
1F
100
AcDbEntity
  8
3
 62
7
100
AcDbPoint
 10
1986.7396005931646
 20
40.4714322377267
 30
0
 50
0
  0
POINT
  5
CA
330
1F
100
AcDbEntity
  8
3
 62
7
100
AcDbPoint
 10
1986.4822992625982
 20
34.3917203236642
 30
0
 50
0
  0
POINT
  5
CB
330
1F
100
AcDbEntity
  8
3
 62
7
100
AcDbPoint
 10
1987.5308832469732
 20
28.397686510187643
 30
0
 50
0
  0
POINT
  5
CC
330
1F
100
AcDbEntity
  8
3
 62
7
100
AcDbPoint
 10
1989.8369058910162
 20
22.766430406672018
 30
0
 50
0
  0
POINT
  5
CD
330
1F
100
AcDbEntity
  8
3
 62
7
100
AcDbPoint
 10
1993.2936701122076
 20
17.758495836359518
 30
0
 50
0
  0
POINT
  5
CE
330
1F
100
AcDbEntity
  8
3
 62
7
100
AcDbPoint
 10
1997.7413019481451
 20
13.60551121721889
 30
0
 50
0
  0
POINT
  5
CF
330
1F
100
AcDbEntity
  8
3
 62
7
100
AcDbPoint
 10
2002.9741129222662
 20
10.499660997492327
 30
0
 50
0
  0
POINT
  5
D0
330
1F
100
AcDbEntity
  8
3
 62
7
100
AcDbPoint
 10
2457.1961054149415
 20
8.372967271906445
 30
0
 50
0
  0
POINT
  5
D1
330
1F
100
AcDbEntity
  8
3
 62
7
100
AcDbPoint
 10
2460.716994697168
 20
8.4403348256173842
 30
0
 50
0
  0
POINT
  5
D2
330
1F
100
AcDbEntity
  8
3
 62
7
100
AcDbPoint
 10
2464.2214807811524
 20
8.7869382191720717
 30
0
 50
0
  0
POINT
  5
D3
330
1F
100
AcDbEntity
  8
3
 62
7
100
AcDbPoint
 10
2471.0927423778321
 20
10.307552843195509
 30
0
 50
0
  0
POINT
  5
D4
330
1F
100
AcDbEntity
  8
3
 62
7
100
AcDbPoint
 10
2474.41618292959
 20
11.472027330500199
 30
0
 50
0
  0
POINT
  5
D5
330
1F
100
AcDbEntity
  8
3
 62
7
100
AcDbPoint
 10
2477.6367029491212
 20
12.896664171320511
 30
0
 50
0
  0
POINT
  5
D6
330
1F
100
AcDbEntity
  8
3
 62
7
100
AcDbPoint
 10
2484.4753107372071
 20
16.976254015070516
 30
0
 50
0
  0
POINT
  5
D7
330
1F
100
AcDbEntity
  8
3
 62
7
100
AcDbPoint
 10
2487.8053125682618
 20
19.923718004328329
 30
0
 50
0
  0
POINT
  5
D8
330
1F
100
AcDbEntity
  8
3
 62
7
100
AcDbPoint
 10
2490.6457361522462
 20
23.345501451593954
 30
0
 50
0
  0
POINT
  5
D9
330
1F
100
AcDbEntity
  8
3
 62
7
100
AcDbPoint
 10
2492.9297479930665
 20
27.161190538508016
 30
0
 50
0
  0
POINT
  5
DA
330
1F
100
AcDbEntity
  8
3
 62
7
100
AcDbPoint
 10
2494.603713447168
 20
31.281139879328329
 30
0
 50
0
  0
POINT
  5
DB
330
1F
100
AcDbEntity
  8
3
 62
7
100
AcDbPoint
 10
2495.6283411327149
 20
35.608532457453329
 30
0
 50
0
  0
POINT
  5
DC
330
1F
100
AcDbEntity
  8
3
 62
7
100
AcDbPoint
 10
2495.9795221629884
 20
40.041668443781454
 30
0
 50
0
  0
POINT
  5
DD
330
1F
100
AcDbEntity
  8
3
 62
7
100
AcDbPoint
 10
2495.4972488877056
 20
53.502175289500691
 30
0
 50
0
  0
POINT
  5
DE
330
1F
100
AcDbEntity
  8
3
 62
7
100
AcDbPoint
 10
2494.2949518504884
 20
85.04647496233612
 30
0
 50
0
  0
POINT
  5
DF
330
1F
100
AcDbEntity
  8
3
 62
7
100
AcDbPoint
 10
2493.5832955336964
 20
94.03396796949643
 30
0
 50
0
  0
POINT
  5
E0
330
1F
100
AcDbEntity
  8
3
 62
7
100
AcDbPoint
 10
2484.4451938180832
 20
153.54621870238182
 30
0
 50
0
  0
POINT
  5
E1
330
1F
100
AcDbEntity
  8
3
 62
7
100
AcDbPoint
 10
2479.8386225047852
 20
181.80848362932832
 30
0
 50
0
  0
POINT
  5
E2
330
1F
100
AcDbEntity
  8
3
 62
7
100
AcDbPoint
 10
2477.77920958648
 20
200.78258145284084
 30
0
 50
0
  0
POINT
  5
E3
330
1F
100
AcDbEntity
  8
3
 62
7
100
AcDbPoint
 10
2486.2905725780274
 20
423.2651257802072
 30
0
 50
0
  0
POINT
  5
E4
330
1F
100
AcDbEntity
  8
3
 62
7
100
AcDbPoint
 10
2487.0419898187333
 20
427.91695904646542
 30
0
 50
0
  0
POINT
  5
E5
330
1F
100
AcDbEntity
  8
3
 62
7
100
AcDbPoint
 10
2497.2842249217774
 20
495.14464619646708
 30
0
 50
0
  0
POINT
  5
E6
330
1F
100
AcDbEntity
  8
3
 62
7
100
AcDbPoint
 10
2498.2671961131837
 20
501.81996586809788
 30
0
 50
0
  0
POINT
  5
E7
330
1F
100
AcDbEntity
  8
3
 62
7
100
AcDbPoint
 10
2498.8818201366212
 20
508.53919270525608
 30
0
 50
0
  0
POINT
  5
E8
330
1F
100
AcDbEntity
  8
3
 62
7
100
AcDbPoint
 10
2499.1263422313477
 20
515.28205159197489
 30
0
 50
0
  0
POINT
  5
E9
330
1F
100
AcDbEntity
  8
3
 62
7
100
AcDbPoint
 10
2498.9999994579102
 20
522.02815297136931
 30
0
 50
0
  0
POINT
  5
EA
330
1F
100
AcDbEntity
  8
3
 62
7
100
AcDbPoint
 10
2498.50309699209
 20
528.7571263600413
 30
0
 50
0
  0
POINT
  5
EB
330
1F
100
AcDbEntity
  8
3
 62
7
100
AcDbPoint
 10
2497.6372370067384
 20
535.44863942156462
 30
0
 50
0
  0
POINT
  5
EC
330
1F
100
AcDbEntity
  8
3
 62
7
100
AcDbPoint
 10
2493.9220348993445
 20
550.60695906260753
 30
0
 50
0
  0
POINT
  5
ED
330
1F
100
AcDbEntity
  8
3
 62
7
100
AcDbPoint
 10
2488.6414179149415
 20
572.09344151507048
 30
0
 50
0
  0
POINT
  5
EE
330
1F
100
AcDbEntity
  8
3
 62
7
100
AcDbPoint
 10
2487.2234143173077
 20
580.81928012199751
 30
0
 50
0
  0
POINT
  5
EF
330
1F
100
AcDbEntity
  8
3
 62
7
100
AcDbPoint
 10
2484.6813806834962
 20
610.97661259661334
 30
0
 50
0
  0
POINT
  5
F0
330
1F
100
AcDbEntity
  8
3
 62
7
100
AcDbPoint
 10
2484.07438605459
 20
619.06637433062224
 30
0
 50
0
  0
POINT
  5
F1
330
1F
100
AcDbEntity
  8
3
 62
7
100
AcDbPoint
 10
2483.0943140331055
 20
627.119457750422
 30
0
 50
0
  0
POINT
  5
F2
330
1F
100
AcDbEntity
  8
3
 62
7
100
AcDbPoint
 10
2481.7431482616212
 20
635.11865857134489
 30
0
 50
0
  0
POINT
  5
F3
330
1F
100
AcDbEntity
  8
3
 62
7
100
AcDbPoint
 10
2480.0239404979493
 20
643.04688694964079
 30
0
 50
0
  0
POINT
  5
F4
330
1F
100
AcDbEntity
  8
3
 62
7
100
AcDbPoint
 10
2477.9402002635743
 20
650.88722470293669
 30
0
 50
0
  0
POINT
  5
F5
330
1F
100
AcDbEntity
  8
3
 62
7
100
AcDbPoint
 10
2475.4965051952149
 20
658.62291577349333
 30
0
 50
0
  0
POINT
  5
F6
330
1F
100
AcDbEntity
  8
3
 62
7
100
AcDbPoint
 10
2471.4385828319337
 20
671.56986477862029
 30
0
 50
0
  0
POINT
  5
F7
330
1F
100
AcDbEntity
  8
3
 62
7
100
AcDbPoint
 10
2469.4324335399415
 20
676.66852238665251
 30
0
 50
0
  0
POINT
  5
F8
330
1F
100
AcDbEntity
  8
3
 62
7
100
AcDbPoint
 10
2466.7205652538087
 20
681.42944577227263
 30
0
 50
0
  0
POINT
  5
F9
330
1F
100
AcDbEntity
  8
3
 62
7
100
AcDbPoint
 10
2463.3581384959962
 20
685.75554135332732
 30
0
 50
0
  0
POINT
  5
FA
330
1F
100
AcDbEntity
  8
3
 62
7
100
AcDbPoint
 10
2459.4138178172852
 20
689.55858471880583
 30
0
 50
0
  0
POINT
  5
FB
330
1F
100
AcDbEntity
  8
3
 62
7
100
AcDbPoint
 10
2454.9680170360352
 20
692.761023073298
 30
0
 50
0
  0
POINT
  5
FC
330
1F
100
AcDbEntity
  8
3
 62
7
100
AcDbPoint
 10
2450.1113733592774
 20
695.297553567988
 30
0
 50
0
  0
POINT
  5
FD
330
1F
100
AcDbEntity
  8
2
 62
7
100
AcDbPoint
 10
2059.1539606395509
 20
607.06644299517291
 30
0
 50
0
  0
LWPOLYLINE
  5
FE
330
1F
100
AcDbEntity
  8
1
 62
7
100
AcDbPolyline
 90
86
 70
1
 10
2474.2083631000005
 20
705.0124796984262
 10
2478.751905961939
 20
705.26302901483245
 10
2483.1489835223638
 20
706.43444625116058
 10
2487.2149644336187
 20
708.47759810662933
 10
2490.7791409930669
 20
711.30657759881683
 10
2493.6918435534917
 20
714.80267134881683
 10
2495.8307824573003
 20
718.81908980584808
 10
2497.1061406573735
 20
723.18714705682464
 10
2497.4643598041021
 20
727.72343245721527
 10
2497.4643598041021
 20
949.19544783807487
 10
2499.0000000410355
 20
957.93809635623484
 10
2498.4621250700648
 20
963.854200070356
 10
2496.7385342510725
 20
969.52739659731878
 10
2493.8748410797289
 20
974.7253698399918
 10
2490.0003022080182
 20
979.21353354617281
 10
2485.2869099966251
 20
982.82921588225781
 10
2482.6703153094732
 20
984.226728355653
 10
2477.0763669452153
 20
986.20243636346481
 10
2452.222364946314
 20
987.53742781854385
 10
2447.6956925830327
 20
989.22253218866081
 10
2443.4524617633306
 20
991.53011885858291
 10
2439.5777783832036
 20
994.41410628533981
 10
2436.149366899439
 20
997.816434776551
 10
2433.9667211017095
 20
1003.671003257997
 10
2432.2683511218511
 20
1009.6839579699108
 10
2431.0655532321416
 20
1015.8153208849499
 10
2430.3663239917241
 20
1022.024274742372
 10
2430.1753125628911
 20
1028.2695445177621
 10
2430.4937873324834
 20
1034.509626304872
 10
2431.31963591189
 20
1040.7029399035039
 10
2433.2414374789678
 20
1050.9931620714731
 10
2433.871272607752
 20
1059.4208201525282
 10
2433.7531934222661
 20
1067.871213829286
 10
2432.8881249865972
 20
1076.27804366327
 10
2431.2334475955449
 20
1085.1619395372938
 10
2429.3312678775274
 20
1089.5809611437392
 10
2426.5536056003057
 20
1093.5091075060438
 10
2423.0213628253423
 20
1096.7754801867079
 10
2414.7825704059087
 20
1097.2944316027231
 10
2406.6853652438604
 20
1098.901487266786
 10
2138.5786424121343
 20
1098.9772471544809
 10
2135.0006661853276
 20
1097.8731211779188
 10
2131.7247949084722
 20
1096.0593852160039
 10
2128.8899789294683
 20
1093.6129435656142
 10
2126.6164956531011
 20
1090.6377085802621
 10
2125.0007806262456
 20
1087.2597941515512
 10
2124.1113648852788
 20
1083.6224803087782
 10
2122.1764932116948
 20
1054.4435557482309
 10
2122.0303410561305
 20
1049.5738981145262
 10
2121.9533715686284
 20
1025.2014598009648
 10
2123.077906175562
 20
1019.0953501818248
 10
2122.7976403674566
 20
1012.8928050158087
 10
2121.1269555530034
 20
1006.9130381701058
 10
2118.1517777881108
 20
1001.4634379503788
 10
2114.025171800562
 20
996.82446089959774
 10
2108.95936827273
 20
993.23460189080868
 10
2103.2149491748296
 20
990.87849227166873
 10
2097.0873628100835
 20
989.87743941522274
 10
2018.5223565539802
 20
989.4634684679578
 10
2014.6848092517341
 20
990.56423751092586
 10
2010.7134042224372
 20
990.97241011834774
 10
2006.7321954211677
 20
990.67516890741058
 10
2002.8654275378669
 20
989.68189803338669
 10
1999.2338357409919
 20
988.02357283807464
 10
1995.9507928332771
 20
985.75192061639473
 10
1993.1188378772224
 20
982.93797103143356
 10
1990.8263574084724
 20
979.66946212030075
 10
1990.672930284449
 20
977.14611617303558
 10
1990.00486235232
 20
974.70799056268356
 10
1988.105791612574
 20
971.43551436639473
 10
1987.2593484363044
 20
970.49442855096459
 10
1987.2593484363047
 20
711.15849105096515
 10
1988.1997857531992
 20
706.93859664178547
 10
1989.9873910388437
 20
703.00213423944172
 10
1992.5459084948984
 20
699.51702681756672
 10
1995.7660851916758
 20
696.63227645135578
 10
1999.51040129275
 20
694.47086898065265
 10
2003.6190209826914
 20
693.12519637323078
 10
2007.9165063342539
 20
692.65263167596515
 10
2012.2193704089609
 20
693.0734690783089
 10
2123.2233605823003
 20
693.0734690783089
 10
2137.068419238296
 20
696.19759199235966
 10
2164.9543957682758
 20
701.28938444230573
 10
2188.4323678454839
 20
704.11747542596515
 10
2243.5788140735112
 20
704.1403636095589
 10
2298.718365236231
 20
705.01247969842609
  0
POINT
  5
FF
330
1F
100
AcDbEntity
  8
3
 62
7
100
AcDbPoint
 10
2478.751905961939
 20
705.26302901483245
 30
0
 50
0
  0
POINT
  5
100
330
1F
100
AcDbEntity
  8
3
 62
7
100
AcDbPoint
 10
2483.1489835223638
 20
706.43444625116058
 30
0
 50
0
  0
POINT
  5
101
330
1F
100
AcDbEntity
  8
3
 62
7
100
AcDbPoint
 10
2487.2149644336187
 20
708.47759810662933
 30
0
 50
0
  0
POINT
  5
102
330
1F
100
AcDbEntity
  8
3
 62
7
100
AcDbPoint
 10
2490.7791409930669
 20
711.30657759881683
 30
0
 50
0
  0
POINT
  5
103
330
1F
100
AcDbEntity
  8
3
 62
7
100
AcDbPoint
 10
2493.6918435534917
 20
714.80267134881683
 30
0
 50
0
  0
POINT
  5
104
330
1F
100
AcDbEntity
  8
3
 62
7
100
AcDbPoint
 10
2495.8307824573003
 20
718.81908980584808
 30
0
 50
0
  0
POINT
  5
105
330
1F
100
AcDbEntity
  8
3
 62
7
100
AcDbPoint
 10
2497.1061406573735
 20
723.18714705682464
 30
0
 50
0
  0
POINT
  5
106
330
1F
100
AcDbEntity
  8
3
 62
7
100
AcDbPoint
 10
2498.7832246264898
 20
954.979597007997
 30
0
 50
0
  0
POINT
  5
107
330
1F
100
AcDbEntity
  8
3
 62
7
100
AcDbPoint
 10
2498.8796601733648
 20
960.91145125604385
 30
0
 50
0
  0
POINT
  5
108
330
1F
100
AcDbEntity
  8
3
 62
7
100
AcDbPoint
 10
2497.749537034937
 20
966.73542586541885
 30
0
 50
0
  0
POINT
  5
109
330
1F
100
AcDbEntity
  8
3
 62
7
100
AcDbPoint
 10
2495.4415116748296
 20
972.20066634393379
 30
0
 50
0
  0
POINT
  5
10A
330
1F
100
AcDbEntity
  8
3
 62
7
100
AcDbPoint
 10
2492.055014177271
 20
977.07172957635589
 30
0
 50
0
  0
POINT
  5
10B
330
1F
100
AcDbEntity
  8
3
 62
7
100
AcDbPoint
 10
2487.7359376391851
 20
981.13880721307487
 30
0
 50
0
  0
POINT
  5
10C
330
1F
100
AcDbEntity
  8
3
 62
7
100
AcDbPoint
 10
2482.6703153094732
 20
984.226728355653
 30
0
 50
0
  0
POINT
  5
10D
330
1F
100
AcDbEntity
  8
3
 62
7
100
AcDbPoint
 10
2464.6502957782232
 20
986.88732711053581
 30
0
 50
0
  0
POINT
  5
10E
330
1F
100
AcDbEntity
  8
3
 62
7
100
AcDbPoint
 10
2449.9291596850835
 20
988.29975692010589
 30
0
 50
0
  0
POINT
  5
10F
330
1F
100
AcDbEntity
  8
3
 62
7
100
AcDbPoint
 10
2447.6956925830327
 20
989.22253218866081
 30
0
 50
0
  0
POINT
  5
110
330
1F
100
AcDbEntity
  8
3
 62
7
100
AcDbPoint
 10
2445.5331693133794
 20
990.30109969354385
 30
0
 50
0
  0
POINT
  5
111
330
1F
100
AcDbEntity
  8
3
 62
7
100
AcDbPoint
 10
2443.4524617633306
 20
991.53011885858291
 30
0
 50
0
  0
POINT
  5
112
330
1F
100
AcDbEntity
  8
3
 62
7
100
AcDbPoint
 10
2441.4640031299077
 20
992.90340987420791
 30
0
 50
0
  0
POINT
  5
113
330
1F
100
AcDbEntity
  8
3
 62
7
100
AcDbPoint
 10
2439.5777783832036
 20
994.41410628533981
 30
0
 50
0
  0
POINT
  5
114
330
1F
100
AcDbEntity
  8
3
 62
7
100
AcDbPoint
 10
2437.8032670459233
 20
996.05450240350388
 30
0
 50
0
  0
POINT
  5
115
330
1F
100
AcDbEntity
  8
3
 62
7
100
AcDbPoint
 10
2433.9667211017095
 20
1003.671003257997
 30
0
 50
0
  0
POINT
  5
116
330
1F
100
AcDbEntity
  8
3
 62
7
100
AcDbPoint
 10
2432.2683511218511
 20
1009.6839579699108
 30
0
 50
0
  0
POINT
  5
117
330
1F
100
AcDbEntity
  8
3
 62
7
100
AcDbPoint
 10
2431.0655532321416
 20
1015.8153208849499
 30
0
 50
0
  0
POINT
  5
118
330
1F
100
AcDbEntity
  8
3
 62
7
100
AcDbPoint
 10
2430.3663239917241
 20
1022.024274742372
 30
0
 50
0
  0
POINT
  5
119
330
1F
100
AcDbEntity
  8
3
 62
7
100
AcDbPoint
 10
2430.1753125628911
 20
1028.2695445177621
 30
0
 50
0
  0
POINT
  5
11A
330
1F
100
AcDbEntity
  8
3
 62
7
100
AcDbPoint
 10
2430.4937873324834
 20
1034.509626304872
 30
0
 50
0
  0
POINT
  5
11B
330
1F
100
AcDbEntity
  8
3
 62
7
100
AcDbPoint
 10
2431.31963591189
 20
1040.7029399035039
 30
0
 50
0
  0
POINT
  5
11C
330
1F
100
AcDbEntity
  8
3
 62
7
100
AcDbPoint
 10
2433.2414374789678
 20
1050.9931620714731
 30
0
 50
0
  0
POINT
  5
11D
330
1F
100
AcDbEntity
  8
3
 62
7
100
AcDbPoint
 10
2433.64967207522
 20
1055.2000102160039
 30
0
 50
0
  0
POINT
  5
11E
330
1F
100
AcDbEntity
  8
3
 62
7
100
AcDbPoint
 10
2433.871272607752
 20
1059.4208201525282
 30
0
 50
0
  0
POINT
  5
11F
330
1F
100
AcDbEntity
  8
3
 62
7
100
AcDbPoint
 10
2433.9058003863775
 20
1063.64735213495
 30
0
 50
0
  0
POINT
  5
120
330
1F
100
AcDbEntity
  8
3
 62
7
100
AcDbPoint
 10
2433.7531934222661
 20
1067.871213829286
 30
0
 50
0
  0
POINT
  5
121
330
1F
100
AcDbEntity
  8
3
 62
7
100
AcDbPoint
 10
2433.4137473544561
 20
1072.0841654894418
 30
0
 50
0
  0
POINT
  5
122
330
1F
100
AcDbEntity
  8
3
 62
7
100
AcDbPoint
 10
2432.8881249865972
 20
1076.27804366327
 30
0
 50
0
  0
POINT
  5
123
330
1F
100
AcDbEntity
  8
3
 62
7
100
AcDbPoint
 10
2431.8287644824468
 20
1082.8278788683481
 30
0
 50
0
  0
POINT
  5
124
330
1F
100
AcDbEntity
  8
3
 62
7
100
AcDbPoint
 10
2431.2334475955449
 20
1085.1619395372938
 30
0
 50
0
  0
POINT
  5
125
330
1F
100
AcDbEntity
  8
3
 62
7
100
AcDbPoint
 10
2430.3979096850835
 20
1087.4212321398329
 30
0
 50
0
  0
POINT
  5
126
330
1F
100
AcDbEntity
  8
3
 62
7
100
AcDbPoint
 10
2429.3312678775274
 20
1089.5809611437392
 30
0
 50
0
  0
POINT
  5
127
330
1F
100
AcDbEntity
  8
3
 62
7
100
AcDbPoint
 10
2428.0451569995366
 20
1091.6176280138559
 30
0
 50
0
  0
POINT
  5
128
330
1F
100
AcDbEntity
  8
3
 62
7
100
AcDbPoint
 10
2426.5536056003057
 20
1093.5091075060438
 30
0
 50
0
  0
POINT
  5
129
330
1F
100
AcDbEntity
  8
3
 62
7
100
AcDbPoint
 10
2424.8728976687871
 20
1095.2346476671762
 30
0
 50
0
  0
POINT
  5
12A
330
1F
100
AcDbEntity
  8
3
 62
7
100
AcDbPoint
 10
2414.7825704059087
 20
1097.2944316027231
 30
0
 50
0
  0
POINT
  5
12B
330
1F
100
AcDbEntity
  8
3
 62
7
100
AcDbPoint
 10
2142.3069177112066
 20
1099.32491866327
 30
0
 50
0
  0
POINT
  5
12C
330
1F
100
AcDbEntity
  8
3
 62
7
100
AcDbPoint
 10
2138.5786424121343
 20
1098.9772471544809
 30
0
 50
0
  0
POINT
  5
12D
330
1F
100
AcDbEntity
  8
3
 62
7
100
AcDbPoint
 10
2135.0006661853276
 20
1097.8731211779188
 30
0
 50
0
  0
POINT
  5
12E
330
1F
100
AcDbEntity
  8
3
 62
7
100
AcDbPoint
 10
2131.7247949084722
 20
1096.0593852160039
 30
0
 50
0
  0
POINT
  5
12F
330
1F
100
AcDbEntity
  8
3
 62
7
100
AcDbPoint
 10
2128.8899789294683
 20
1093.6129435656142
 30
0
 50
0
  0
POINT
  5
130
330
1F
100
AcDbEntity
  8
3
 62
7
100
AcDbPoint
 10
2126.6164956531011
 20
1090.6377085802621
 30
0
 50
0
  0
POINT
  5
131
330
1F
100
AcDbEntity
  8
3
 62
7
100
AcDbPoint
 10
2125.0007806262456
 20
1087.2597941515512
 30
0
 50
0
  0
POINT
  5
132
330
1F
100
AcDbEntity
  8
3
 62
7
100
AcDbPoint
 10
2122.1764932116948
 20
1054.4435557482309
 30
0
 50
0
  0
POINT
  5
133
330
1F
100
AcDbEntity
  8
3
 62
7
100
AcDbPoint
 10
2123.077906175562
 20
1019.0953501818248
 30
0
 50
0
  0
POINT
  5
134
330
1F
100
AcDbEntity
  8
3
 62
7
100
AcDbPoint
 10
2122.7976403674566
 20
1012.8928050158087
 30
0
 50
0
  0
POINT
  5
135
330
1F
100
AcDbEntity
  8
3
 62
7
100
AcDbPoint
 10
2121.1269555530034
 20
1006.9130381701058
 30
0
 50
0
  0
POINT
  5
136
330
1F
100
AcDbEntity
  8
3
 62
7
100
AcDbPoint
 10
2118.1517777881108
 20
1001.4634379503788
 30
0
 50
0
  0
POINT
  5
137
330
1F
100
AcDbEntity
  8
3
 62
7
100
AcDbPoint
 10
2114.025171800562
 20
996.82446089959774
 30
0
 50
0
  0
POINT
  5
138
330
1F
100
AcDbEntity
  8
3
 62
7
100
AcDbPoint
 10
2108.95936827273
 20
993.23460189080868
 30
0
 50
0
  0
POINT
  5
139
330
1F
100
AcDbEntity
  8
3
 62
7
100
AcDbPoint
 10
2103.2149491748296
 20
990.87849227166873
 30
0
 50
0
  0
POINT
  5
13A
330
1F
100
AcDbEntity
  8
3
 62
7
100
AcDbPoint
 10
2014.6848092517341
 20
990.56423751092586
 30
0
 50
0
  0
POINT
  5
13B
330
1F
100
AcDbEntity
  8
3
 62
7
100
AcDbPoint
 10
2010.7134042224372
 20
990.97241011834774
 30
0
 50
0
  0
POINT
  5
13C
330
1F
100
AcDbEntity
  8
3
 62
7
100
AcDbPoint
 10
2006.7321954211677
 20
990.67516890741058
 30
0
 50
0
  0
POINT
  5
13D
330
1F
100
AcDbEntity
  8
3
 62
7
100
AcDbPoint
 10
2002.8654275378669
 20
989.68189803338669
 30
0
 50
0
  0
POINT
  5
13E
330
1F
100
AcDbEntity
  8
3
 62
7
100
AcDbPoint
 10
1999.2338357409919
 20
988.02357283807464
 30
0
 50
0
  0
POINT
  5
13F
330
1F
100
AcDbEntity
  8
3
 62
7
100
AcDbPoint
 10
1995.9507928332771
 20
985.75192061639473
 30
0
 50
0
  0
POINT
  5
140
330
1F
100
AcDbEntity
  8
3
 62
7
100
AcDbPoint
 10
1993.1188378772224
 20
982.93797103143356
 30
0
 50
0
  0
POINT
  5
141
330
1F
100
AcDbEntity
  8
3
 62
7
100
AcDbPoint
 10
1990.8149133166755
 20
978.40382186151169
 30
0
 50
0
  0
POINT
  5
142
330
1F
100
AcDbEntity
  8
3
 62
7
100
AcDbPoint
 10
1990.672930284449
 20
977.14611617303558
 30
0
 50
0
  0
POINT
  5
143
330
1F
100
AcDbEntity
  8
3
 62
7
100
AcDbPoint
 10
1990.00486235232
 20
974.70799056268356
 30
0
 50
0
  0
POINT
  5
144
330
1F
100
AcDbEntity
  8
3
 62
7
100
AcDbPoint
 10
1988.8506112536872
 20
972.45884505487174
 30
0
 50
0
  0
POINT
  5
145
330
1F
100
AcDbEntity
  8
3
 62
7
100
AcDbPoint
 10
1988.105791612574
 20
971.43551436639473
 30
0
 50
0
  0
POINT
  5
146
330
1F
100
AcDbEntity
  8
3
 62
7
100
AcDbPoint
 10
1988.1997857531992
 20
706.93859664178547
 30
0
 50
0
  0
POINT
  5
147
330
1F
100
AcDbEntity
  8
3
 62
7
100
AcDbPoint
 10
1989.9873910388437
 20
703.00213423944172
 30
0
 50
0
  0
POINT
  5
148
330
1F
100
AcDbEntity
  8
3
 62
7
100
AcDbPoint
 10
1992.5459084948984
 20
699.51702681756672
 30
0
 50
0
  0
POINT
  5
149
330
1F
100
AcDbEntity
  8
3
 62
7
100
AcDbPoint
 10
1995.7660851916758
 20
696.63227645135578
 30
0
 50
0
  0
POINT
  5
14A
330
1F
100
AcDbEntity
  8
3
 62
7
100
AcDbPoint
 10
1999.51040129275
 20
694.47086898065265
 30
0
 50
0
  0
POINT
  5
14B
330
1F
100
AcDbEntity
  8
3
 62
7
100
AcDbPoint
 10
2003.6190209826914
 20
693.12519637323078
 30
0
 50
0
  0
POINT
  5
14C
330
1F
100
AcDbEntity
  8
3
 62
7
100
AcDbPoint
 10
2007.9165063342539
 20
692.65263167596515
 30
0
 50
0
  0
POINT
  5
14D
330
1F
100
AcDbEntity
  8
3
 62
7
100
AcDbPoint
 10
2155.6152711352788
 20
699.85073653436359
 30
0
 50
0
  0
POINT
  5
14E
330
1F
100
AcDbEntity
  8
3
 62
7
100
AcDbPoint
 10
2160.2792551448606
 20
700.60299743631447
 30
0
 50
0
  0
POINT
  5
14F
330
1F
100
AcDbEntity
  8
3
 62
7
100
AcDbPoint
 10
2243.5788140735112
 20
704.1403636095589
 30
0
 50
0
  0
POINT
  5
150
330
1F
100
AcDbEntity
  8
2
 62
7
100
AcDbPoint
 10
2474.2083631000005
 20
705.0124796984262
 30
0
 50
0
  0
POINT
  5
151
330
1F
100
AcDbEntity
  8
2
 62
7
100
AcDbPoint
 10
2478.0963597735845
 20
705.0124796984262
 30
0
 50
0
  0
POINT
  5
152
330
1F
100
AcDbEntity
  8
2
 62
7
100
AcDbPoint
 10
2423.0213628253423
 20
1096.7754801867079
 30
0
 50
0
  0
POINT
  5
153
330
1F
100
AcDbEntity
  8
2
 62
7
100
AcDbPoint
 10
1990.8263574084724
 20
979.66946212030075
 30
0
 50
0
  0
POINT
  5
154
330
1F
100
AcDbEntity
  8
2
 62
7
100
AcDbPoint
 10
1987.2593484363044
 20
970.49442855096459
 30
0
 50
0
  0
LWPOLYLINE
  5
155
330
1F
100
AcDbEntity
  8
1
 62
7
100
AcDbPolyline
 90
95
 70
1
 10
2472.9411931000004
 20
1592.4371951000003
 10
2477.5683064422856
 20
1592.479614533594
 10
2482.0877690277348
 20
1593.4727328197268
 10
2486.3064427337895
 20
1595.3740542308597
 10
2490.0439305267582
 20
1598.1022494212893
 10
2493.1404728851567
 20
1601.5408175365237
 10
2495.463661666895
 20
1605.5426638500003
 10
2496.9142384491215
 20
1609.9367373363284
 10
2497.4301762542973
 20
1614.5352023021487
 10
2498.5386891327153
 20
1629.1635744945315
 10
2499.0000004730473
 20
1643.8267367259768
 10
2498.8131947479496
 20
1658.4958498851565
 10
2497.9786152801762
 20
1673.142456330469
 10
2496.4979023895512
 20
1687.7378695384768
 10
2494.3739552459965
 20
1702.2537081615237
 10
2491.6109318695317
 20
1716.6615145580081
 10
2488.2141728363285
 20
1730.933212556055
 10
2482.9225773773442
 20
1745.0749819652347
 10
2478.3918614349614
 20
1759.4785921947268
 10
2474.6349186859379
 20
1774.1030733958987
 10
2471.6623539886723
 20
1788.9069216625005
 10
2469.4826359710942
 20
1803.8480990306646
 10
2468.1019825897465
 20
1818.8842623607427
 10
2467.5242848358403
 20
1833.9725344554686
 10
2467.5547642669922
 20
1866.6944735423826
 10
2466.2209553680664
 20
1873.6337130443367
 10
2465.2901692352539
 20
1877.0432131664068
 10
2463.8606495819336
 20
1880.3441470042976
 10
2461.8351597748047
 20
1883.3168642894536
 10
2459.2861027679687
 20
1885.8550112621097
 10
2456.3046879730468
 20
1887.8677981273436
 10
2452.9976124725586
 20
1889.2831271068367
 10
2449.4832081756836
 20
1890.0504153148436
 10
2445.8871693573242
 20
1890.1421969310547
 10
2442.33816575625
 20
1889.5551913158206
 10
2379.7858662567382
 20
1891.2866824046876
 10
2373.7271351776367
 20
1893.9310305492186
 10
2368.630661483789
 20
1898.1413882152347
 10
2366.5701909027343
 20
1900.7362215892576
 10
2363.8306279144531
 20
1908.5874026195318
 10
2362.0332570038086
 20
1916.7062228099617
 10
2361.20291185
 20
1924.9800722972657
 10
2361.3511891327148
 20
1933.2942049876956
 10
2362.0071644745117
 20
1957.2872012035157
 10
2363.5055012665039
 20
1964.5139162914068
 10
2363.5730977020507
 20
1971.8940585033206
 10
2362.2073597870117
 20
1979.1470950023436
 10
2359.4601674041992
 20
1985.9972231761726
 10
2357.6613087616211
 20
1989.4540255443367
 10
2355.2507252655273
 20
1992.5157778636726
 10
2352.312530990625
 20
1995.0755923167976
 10
2348.9494175873047
 20
1997.0440523998047
 10
2345.2788014374023
 20
1998.3524172679686
 10
2341.4288182220703
 20
1998.9550631419927
 10
2337.5339360199218
 20
1998.8308565990237
 10
2333.7301869354492
 20
1997.9842226878907
 10
2083.1521840057617
 20
1997.9842226878907
 10
2076.6372151336914
 20
1999.0000002757818
 10
2070.10126542666
 20
1998.1291048900396
 10
2064.0795369110351
 20
1995.4428713695318
 10
2059.0651936493164
 20
1991.1611788646487
 10
2054.7437519989257
 20
1981.6229098216797
 10
2051.29869889834
 20
1971.7342989818367
 10
2048.7580342254882
 20
1961.5756075755867
 10
2047.1422810516608
 20
1951.2294619457036
 10
2046.4646382293952
 20
1940.7798617259766
 10
2046.7306752166999
 20
1930.3116457835936
 10
2047.9381031952155
 20
1919.9099581615237
 10
2050.8614582977539
 20
1904.4620364085936
 10
2049.8711628875976
 20
1899.3002169505867
 10
2045.7134480438483
 20
1894.8643343822266
 10
2040.6447834930671
 20
1891.5068667308597
 10
2034.9385304413092
 20
1889.4087832347657
 10
2028.9021534881842
 20
1888.6832278148436
 10
2020.9357686004889
 20
1889.0496676341797
 10
2012.9791493377936
 20
1888.5099642650396
 10
2005.1352162323249
 20
1887.0709078685547
 10
1994.0421528778327
 20
1883.6543124095706
 10
1991.2255330047858
 20
1881.3603823558597
 10
1989.4501728973639
 20
1878.1912081615237
 10
1988.9651722870124
 20
1874.5912020580076
 10
1988.9651722870124
 20
1621.2032168285159
 10
1991.1937184295905
 20
1616.2083285228518
 10
1994.722160812403
 20
1612.029175080469
 10
1999.2727131805671
 20
1608.9948885814456
 10
2004.4871754608405
 20
1607.3441927806643
 10
2271.7212147674809
 20
1607.3441927806643
 10
2285.8923573456059
 20
1608.9160006419925
 10
2300.1469654999028
 20
1608.6029665843753
 10
2314.2354817352543
 20
1606.4105837718753
 10
2332.2421740099735
 20
1601.7441570043331
 10
2353.7659211106125
 20
1597.9282926769067
 10
2370.754189010645
 20
1593.7322085277347
 10
2384.6831152622408
 20
1593.1092220360592
 10
2431.1238748640048
 20
1591.9001674103718
  0
POINT
  5
156
330
1F
100
AcDbEntity
  8
3
 62
7
100
AcDbPoint
 10
2477.5683064422856
 20
1592.479614533594
 30
0
 50
0
  0
POINT
  5
157
330
1F
100
AcDbEntity
  8
3
 62
7
100
AcDbPoint
 10
2482.0877690277348
 20
1593.4727328197268
 30
0
 50
0
  0
POINT
  5
158
330
1F
100
AcDbEntity
  8
3
 62
7
100
AcDbPoint
 10
2486.3064427337895
 20
1595.3740542308597
 30
0
 50
0
  0
POINT
  5
159
330
1F
100
AcDbEntity
  8
3
 62
7
100
AcDbPoint
 10
2490.0439305267582
 20
1598.1022494212893
 30
0
 50
0
  0
POINT
  5
15A
330
1F
100
AcDbEntity
  8
3
 62
7
100
AcDbPoint
 10
2493.1404728851567
 20
1601.5408175365237
 30
0
 50
0
  0
POINT
  5
15B
330
1F
100
AcDbEntity
  8
3
 62
7
100
AcDbPoint
 10
2495.463661666895
 20
1605.5426638500003
 30
0
 50
0
  0
POINT
  5
15C
330
1F
100
AcDbEntity
  8
3
 62
7
100
AcDbPoint
 10
2496.9142384491215
 20
1609.9367373363284
 30
0
 50
0
  0
POINT
  5
15D
330
1F
100
AcDbEntity
  8
3
 62
7
100
AcDbPoint
 10
2498.5386891327153
 20
1629.1635744945315
 30
0
 50
0
  0
POINT
  5
15E
330
1F
100
AcDbEntity
  8
3
 62
7
100
AcDbPoint
 10
2499.0000004730473
 20
1643.8267367259768
 30
0
 50
0
  0
POINT
  5
15F
330
1F
100
AcDbEntity
  8
3
 62
7
100
AcDbPoint
 10
2498.8131947479496
 20
1658.4958498851565
 30
0
 50
0
  0
POINT
  5
160
330
1F
100
AcDbEntity
  8
3
 62
7
100
AcDbPoint
 10
2497.9786152801762
 20
1673.142456330469
 30
0
 50
0
  0
POINT
  5
161
330
1F
100
AcDbEntity
  8
3
 62
7
100
AcDbPoint
 10
2496.4979023895512
 20
1687.7378695384768
 30
0
 50
0
  0
POINT
  5
162
330
1F
100
AcDbEntity
  8
3
 62
7
100
AcDbPoint
 10
2494.3739552459965
 20
1702.2537081615237
 30
0
 50
0
  0
POINT
  5
163
330
1F
100
AcDbEntity
  8
3
 62
7
100
AcDbPoint
 10
2491.6109318695317
 20
1716.6615145580081
 30
0
 50
0
  0
POINT
  5
164
330
1F
100
AcDbEntity
  8
3
 62
7
100
AcDbPoint
 10
2482.9225773773442
 20
1745.0749819652347
 30
0
 50
0
  0
POINT
  5
165
330
1F
100
AcDbEntity
  8
3
 62
7
100
AcDbPoint
 10
2478.3918614349614
 20
1759.4785921947268
 30
0
 50
0
  0
POINT
  5
166
330
1F
100
AcDbEntity
  8
3
 62
7
100
AcDbPoint
 10
2474.6349186859379
 20
1774.1030733958987
 30
0
 50
0
  0
POINT
  5
167
330
1F
100
AcDbEntity
  8
3
 62
7
100
AcDbPoint
 10
2471.6623539886723
 20
1788.9069216625005
 30
0
 50
0
  0
POINT
  5
168
330
1F
100
AcDbEntity
  8
3
 62
7
100
AcDbPoint
 10
2469.4826359710942
 20
1803.8480990306646
 30
0
 50
0
  0
POINT
  5
169
330
1F
100
AcDbEntity
  8
3
 62
7
100
AcDbPoint
 10
2468.1019825897465
 20
1818.8842623607427
 30
0
 50
0
  0
POINT
  5
16A
330
1F
100
AcDbEntity
  8
3
 62
7
100
AcDbPoint
 10
2467.5242848358403
 20
1833.9725344554686
 30
0
 50
0
  0
POINT
  5
16B
330
1F
100
AcDbEntity
  8
3
 62
7
100
AcDbPoint
 10
2468.0723423919926
 20
1852.5898592845706
 30
0
 50
0
  0
POINT
  5
16C
330
1F
100
AcDbEntity
  8
3
 62
7
100
AcDbPoint
 10
2468.2134098968754
 20
1856.1212771312507
 30
0
 50
0
  0
POINT
  5
16D
330
1F
100
AcDbEntity
  8
3
 62
7
100
AcDbPoint
 10
2468.1740422210937
 20
1859.6553652660157
 30
0
 50
0
  0
POINT
  5
16E
330
1F
100
AcDbEntity
  8
3
 62
7
100
AcDbPoint
 10
2467.9542775116211
 20
1863.1828158275396
 30
0
 50
0
  0
POINT
  5
16F
330
1F
100
AcDbEntity
  8
3
 62
7
100
AcDbPoint
 10
2467.5547642669922
 20
1866.6944735423826
 30
0
 50
0
  0
POINT
  5
170
330
1F
100
AcDbEntity
  8
3
 62
7
100
AcDbPoint
 10
2466.9764943084961
 20
1870.1811068431646
 30
0
 50
0
  0
POINT
  5
171
330
1F
100
AcDbEntity
  8
3
 62
7
100
AcDbPoint
 10
2466.2209553680664
 20
1873.6337130443367
 30
0
 50
0
  0
POINT
  5
172
330
1F
100
AcDbEntity
  8
3
 62
7
100
AcDbPoint
 10
2463.8606495819336
 20
1880.3441470042976
 30
0
 50
0
  0
POINT
  5
173
330
1F
100
AcDbEntity
  8
3
 62
7
100
AcDbPoint
 10
2461.8351597748047
 20
1883.3168642894536
 30
0
 50
0
  0
POINT
  5
174
330
1F
100
AcDbEntity
  8
3
 62
7
100
AcDbPoint
 10
2459.2861027679687
 20
1885.8550112621097
 30
0
 50
0
  0
POINT
  5
175
330
1F
100
AcDbEntity
  8
3
 62
7
100
AcDbPoint
 10
2456.3046879730468
 20
1887.8677981273436
 30
0
 50
0
  0
POINT
  5
176
330
1F
100
AcDbEntity
  8
3
 62
7
100
AcDbPoint
 10
2452.9976124725586
 20
1889.2831271068367
 30
0
 50
0
  0
POINT
  5
177
330
1F
100
AcDbEntity
  8
3
 62
7
100
AcDbPoint
 10
2449.4832081756836
 20
1890.0504153148436
 30
0
 50
0
  0
POINT
  5
178
330
1F
100
AcDbEntity
  8
3
 62
7
100
AcDbPoint
 10
2445.8871693573242
 20
1890.1421969310547
 30
0
 50
0
  0
POINT
  5
179
330
1F
100
AcDbEntity
  8
3
 62
7
100
AcDbPoint
 10
2386.3384861908203
 20
1890.4126589671876
 30
0
 50
0
  0
POINT
  5
17A
330
1F
100
AcDbEntity
  8
3
 62
7
100
AcDbPoint
 10
2383.0316777191406
 20
1890.6207888500007
 30
0
 50
0
  0
POINT
  5
17B
330
1F
100
AcDbEntity
  8
3
 62
7
100
AcDbPoint
 10
2379.7858662567382
 20
1891.2866824046876
 30
0
 50
0
  0
POINT
  5
17C
330
1F
100
AcDbEntity
  8
3
 62
7
100
AcDbPoint
 10
2376.6641468963867
 20
1892.3972933666016
 30
0
 50
0
  0
POINT
  5
17D
330
1F
100
AcDbEntity
  8
3
 62
7
100
AcDbPoint
 10
2373.7271351776367
 20
1893.9310305492186
 30
0
 50
0
  0
POINT
  5
17E
330
1F
100
AcDbEntity
  8
3
 62
7
100
AcDbPoint
 10
2371.0318608246093
 20
1895.8582156078126
 30
0
 50
0
  0
POINT
  5
17F
330
1F
100
AcDbEntity
  8
3
 62
7
100
AcDbPoint
 10
2368.630661483789
 20
1898.1413882152347
 30
0
 50
0
  0
POINT
  5
180
330
1F
100
AcDbEntity
  8
3
 62
7
100
AcDbPoint
 10
2365.0847096405273
 20
1904.6214144603516
 30
0
 50
0
  0
POINT
  5
181
330
1F
100
AcDbEntity
  8
3
 62
7
100
AcDbPoint
 10
2363.8306279144531
 20
1908.5874026195318
 30
0
 50
0
  0
POINT
  5
182
330
1F
100
AcDbEntity
  8
3
 62
7
100
AcDbPoint
 10
2362.8122944793945
 20
1912.6203005687507
 30
0
 50
0
  0
POINT
  5
183
330
1F
100
AcDbEntity
  8
3
 62
7
100
AcDbPoint
 10
2362.0332570038086
 20
1916.7062228099617
 30
0
 50
0
  0
POINT
  5
184
330
1F
100
AcDbEntity
  8
3
 62
7
100
AcDbPoint
 10
2361.4961476288086
 20
1920.8309023753907
 30
0
 50
0
  0
POINT
  5
185
330
1F
100
AcDbEntity
  8
3
 62
7
100
AcDbPoint
 10
2361.20291185
 20
1924.9800722972657
 30
0
 50
0
  0
POINT
  5
186
330
1F
100
AcDbEntity
  8
3
 62
7
100
AcDbPoint
 10
2361.1545414886718
 20
1929.1393130199226
 30
0
 50
0
  0
POINT
  5
187
330
1F
100
AcDbEntity
  8
3
 62
7
100
AcDbPoint
 10
2362.9328770599609
 20
1960.8639376537117
 30
0
 50
0
  0
POINT
  5
188
330
1F
100
AcDbEntity
  8
3
 62
7
100
AcDbPoint
 10
2363.5055012665039
 20
1964.5139162914068
 30
0
 50
0
  0
POINT
  5
189
330
1F
100
AcDbEntity
  8
3
 62
7
100
AcDbPoint
 10
2363.7195820770507
 20
1968.2023470775396
 30
0
 50
0
  0
POINT
  5
18A
330
1F
100
AcDbEntity
  8
3
 62
7
100
AcDbPoint
 10
2363.5730977020507
 20
1971.8940585033206
 30
0
 50
0
  0
POINT
  5
18B
330
1F
100
AcDbEntity
  8
3
 62
7
100
AcDbPoint
 10
2363.0674214325195
 20
1975.5539553539068
 30
0
 50
0
  0
POINT
  5
18C
330
1F
100
AcDbEntity
  8
3
 62
7
100
AcDbPoint
 10
2362.2073597870117
 20
1979.1470950023436
 30
0
 50
0
  0
POINT
  5
18D
330
1F
100
AcDbEntity
  8
3
 62
7
100
AcDbPoint
 10
2361.0011143646484
 20
1982.6392214671876
 30
0
 50
0
  0
POINT
  5
18E
330
1F
100
AcDbEntity
  8
3
 62
7
100
AcDbPoint
 10
2357.6613087616211
 20
1989.4540255443367
 30
0
 50
0
  0
POINT
  5
18F
330
1F
100
AcDbEntity
  8
3
 62
7
100
AcDbPoint
 10
2355.2507252655273
 20
1992.5157778636726
 30
0
 50
0
  0
POINT
  5
190
330
1F
100
AcDbEntity
  8
3
 62
7
100
AcDbPoint
 10
2352.312530990625
 20
1995.0755923167976
 30
0
 50
0
  0
POINT
  5
191
330
1F
100
AcDbEntity
  8
3
 62
7
100
AcDbPoint
 10
2348.9494175873047
 20
1997.0440523998047
 30
0
 50
0
  0
POINT
  5
192
330
1F
100
AcDbEntity
  8
3
 62
7
100
AcDbPoint
 10
2345.2788014374023
 20
1998.3524172679686
 30
0
 50
0
  0
POINT
  5
193
330
1F
100
AcDbEntity
  8
3
 62
7
100
AcDbPoint
 10
2341.4288182220703
 20
1998.9550631419927
 30
0
 50
0
  0
POINT
  5
194
330
1F
100
AcDbEntity
  8
3
 62
7
100
AcDbPoint
 10
2337.5339360199218
 20
1998.8308565990237
 30
0
 50
0
  0
POINT
  5
195
330
1F
100
AcDbEntity
  8
3
 62
7
100
AcDbPoint
 10
2079.9312062225586
 20
1998.7263338939456
 30
0
 50
0
  0
POINT
  5
196
330
1F
100
AcDbEntity
  8
3
 62
7
100
AcDbPoint
 10
2076.6372151336914
 20
1999.0000002757818
 30
0
 50
0
  0
POINT
  5
197
330
1F
100
AcDbEntity
  8
3
 62
7
100
AcDbPoint
 10
2073.3378834686523
 20
1998.7995760814456
 30
0
 50
0
  0
POINT
  5
198
330
1F
100
AcDbEntity
  8
3
 62
7
100
AcDbPoint
 10
2070.10126542666
 20
1998.1291048900396
 30
0
 50
0
  0
POINT
  5
199
330
1F
100
AcDbEntity
  8
3
 62
7
100
AcDbPoint
 10
2066.993813034082
 20
1997.0025484935547
 30
0
 50
0
  0
POINT
  5
19A
330
1F
100
AcDbEntity
  8
3
 62
7
100
AcDbPoint
 10
2064.0795369110351
 20
1995.4428713695318
 30
0
 50
0
  0
POINT
  5
19B
330
1F
100
AcDbEntity
  8
3
 62
7
100
AcDbPoint
 10
2061.4184040985351
 20
1993.4823458568367
 30
0
 50
0
  0
POINT
  5
19C
330
1F
100
AcDbEntity
  8
3
 62
7
100
AcDbPoint
 10
2054.7437519989257
 20
1981.6229098216797
 30
0
 50
0
  0
POINT
  5
19D
330
1F
100
AcDbEntity
  8
3
 62
7
100
AcDbPoint
 10
2051.29869889834
 20
1971.7342989818367
 30
0
 50
0
  0
POINT
  5
19E
330
1F
100
AcDbEntity
  8
3
 62
7
100
AcDbPoint
 10
2048.7580342254882
 20
1961.5756075755867
 30
0
 50
0
  0
POINT
  5
19F
330
1F
100
AcDbEntity
  8
3
 62
7
100
AcDbPoint
 10
2047.1422810516608
 20
1951.2294619457036
 30
0
 50
0
  0
POINT
  5
1A0
330
1F
100
AcDbEntity
  8
3
 62
7
100
AcDbPoint
 10
2046.4646382293952
 20
1940.7798617259766
 30
0
 50
0
  0
POINT
  5
1A1
330
1F
100
AcDbEntity
  8
3
 62
7
100
AcDbPoint
 10
2046.7306752166999
 20
1930.3116457835936
 30
0
 50
0
  0
POINT
  5
1A2
330
1F
100
AcDbEntity
  8
3
 62
7
100
AcDbPoint
 10
2047.9381031952155
 20
1919.9099581615237
 30
0
 50
0
  0
POINT
  5
1A3
330
1F
100
AcDbEntity
  8
3
 62
7
100
AcDbPoint
 10
2050.43817948916
 20
1908.3895724193367
 30
0
 50
0
  0
POINT
  5
1A4
330
1F
100
AcDbEntity
  8
3
 62
7
100
AcDbPoint
 10
2050.6902546844726
 20
1907.0939486400396
 30
0
 50
0
  0
POINT
  5
1A5
330
1F
100
AcDbEntity
  8
3
 62
7
100
AcDbPoint
 10
2050.8614582977539
 20
1904.4620364085936
 30
0
 50
0
  0
POINT
  5
1A6
330
1F
100
AcDbEntity
  8
3
 62
7
100
AcDbPoint
 10
2050.5857319793945
 20
1901.8390505687507
 30
0
 50
0
  0
POINT
  5
1A7
330
1F
100
AcDbEntity
  8
3
 62
7
100
AcDbPoint
 10
2050.2823109588867
 20
1900.5544131175786
 30
0
 50
0
  0
POINT
  5
1A8
330
1F
100
AcDbEntity
  8
3
 62
7
100
AcDbPoint
 10
2047.9214711151374
 20
1896.9611971751956
 30
0
 50
0
  0
POINT
  5
1A9
330
1F
100
AcDbEntity
  8
3
 62
7
100
AcDbPoint
 10
2045.7134480438483
 20
1894.8643343822266
 30
0
 50
0
  0
POINT
  5
1AA
330
1F
100
AcDbEntity
  8
3
 62
7
100
AcDbPoint
 10
2043.276848312403
 20
1893.0380099193367
 30
0
 50
0
  0
POINT
  5
1AB
330
1F
100
AcDbEntity
  8
3
 62
7
100
AcDbPoint
 10
2040.6447834930671
 20
1891.5068667308597
 30
0
 50
0
  0
POINT
  5
1AC
330
1F
100
AcDbEntity
  8
3
 62
7
100
AcDbPoint
 10
2037.8527302704108
 20
1890.2916567699226
 30
0
 50
0
  0
POINT
  5
1AD
330
1F
100
AcDbEntity
  8
3
 62
7
100
AcDbPoint
 10
2034.9385304413092
 20
1889.4087832347657
 30
0
 50
0
  0
POINT
  5
1AE
330
1F
100
AcDbEntity
  8
3
 62
7
100
AcDbPoint
 10
2031.9414753875983
 20
1888.8702242748047
 30
0
 50
0
  0
POINT
  5
1AF
330
1F
100
AcDbEntity
  8
3
 62
7
100
AcDbPoint
 10
2024.9241871795905
 20
1888.9797060863286
 30
0
 50
0
  0
POINT
  5
1B0
330
1F
100
AcDbEntity
  8
3
 62
7
100
AcDbPoint
 10
2020.9357686004889
 20
1889.0496676341797
 30
0
 50
0
  0
POINT
  5
1B1
330
1F
100
AcDbEntity
  8
3
 62
7
100
AcDbPoint
 10
2016.9497914276374
 20
1888.8929598705076
 30
0
 50
0
  0
POINT
  5
1B2
330
1F
100
AcDbEntity
  8
3
 62
7
100
AcDbPoint
 10
2012.9791493377936
 20
1888.5099642650396
 30
0
 50
0
  0
POINT
  5
1B3
330
1F
100
AcDbEntity
  8
3
 62
7
100
AcDbPoint
 10
2009.0367360077155
 20
1887.9019778148436
 30
0
 50
0
  0
POINT
  5
1B4
330
1F
100
AcDbEntity
  8
3
 62
7
100
AcDbPoint
 10
2005.1352162323249
 20
1887.0709078685547
 30
0
 50
0
  0
POINT
  5
1B5
330
1F
100
AcDbEntity
  8
3
 62
7
100
AcDbPoint
 10
2001.2871785125983
 20
1886.0195010082036
 30
0
 50
0
  0
POINT
  5
1B6
330
1F
100
AcDbEntity
  8
3
 62
7
100
AcDbPoint
 10
1995.721916671778
 20
1884.3662875072266
 30
0
 50
0
  0
POINT
  5
1B7
330
1F
100
AcDbEntity
  8
3
 62
7
100
AcDbPoint
 10
1994.0421528778327
 20
1883.6543124095706
 30
0
 50
0
  0
POINT
  5
1B8
330
1F
100
AcDbEntity
  8
3
 62
7
100
AcDbPoint
 10
1992.5255055389655
 20
1882.6403658763677
 30
0
 50
0
  0
POINT
  5
1B9
330
1F
100
AcDbEntity
  8
3
 62
7
100
AcDbPoint
 10
1991.2255330047858
 20
1881.3603823558597
 30
0
 50
0
  0
POINT
  5
1BA
330
1F
100
AcDbEntity
  8
3
 62
7
100
AcDbPoint
 10
1990.1881642303717
 20
1879.8596804515626
 30
0
 50
0
  0
POINT
  5
1BB
330
1F
100
AcDbEntity
  8
3
 62
7
100
AcDbPoint
 10
1989.4501728973639
 20
1878.1912081615237
 30
0
 50
0
  0
POINT
  5
1BC
330
1F
100
AcDbEntity
  8
3
 62
7
100
AcDbPoint
 10
1989.0376515350592
 20
1876.4140932933597
 30
0
 50
0
  0
POINT
  5
1BD
330
1F
100
AcDbEntity
  8
3
 62
7
100
AcDbPoint
 10
1989.9033589325202
 20
1618.6272280589847
 30
0
 50
0
  0
POINT
  5
1BE
330
1F
100
AcDbEntity
  8
3
 62
7
100
AcDbPoint
 10
1991.1937184295905
 20
1616.2083285228518
 30
0
 50
0
  0
POINT
  5
1BF
330
1F
100
AcDbEntity
  8
3
 62
7
100
AcDbPoint
 10
1992.8106160125983
 20
1613.9944308177737
 30
0
 50
0
  0
POINT
  5
1C0
330
1F
100
AcDbEntity
  8
3
 62
7
100
AcDbPoint
 10
1994.722160812403
 20
1612.029175080469
 30
0
 50
0
  0
POINT
  5
1C1
330
1F
100
AcDbEntity
  8
3
 62
7
100
AcDbPoint
 10
1996.8905110321296
 20
1610.3516238109378
 30
0
 50
0
  0
POINT
  5
1C2
330
1F
100
AcDbEntity
  8
3
 62
7
100
AcDbPoint
 10
1999.2727131805671
 20
1608.9948885814456
 30
0
 50
0
  0
POINT
  5
1C3
330
1F
100
AcDbEntity
  8
3
 62
7
100
AcDbPoint
 10
2001.821770187403
 20
1607.9857485667972
 30
0
 50
0
  0
POINT
  5
1C4
330
1F
100
AcDbEntity
  8
3
 62
7
100
AcDbPoint
 10
2278.7807698211918
 20
1608.3647768871097
 30
0
 50
0
  0
POINT
  5
1C5
330
1F
100
AcDbEntity
  8
3
 62
7
100
AcDbPoint
 10
2285.8923573456059
 20
1608.9160006419925
 30
0
 50
0
  0
POINT
  5
1C6
330
1F
100
AcDbEntity
  8
3
 62
7
100
AcDbPoint
 10
2293.0248494110356
 20
1608.9954989330081
 30
0
 50
0
  0
POINT
  5
1C7
330
1F
100
AcDbEntity
  8
3
 62
7
100
AcDbPoint
 10
2300.1469654999028
 20
1608.6029665843753
 30
0
 50
0
  0
POINT
  5
1C8
330
1F
100
AcDbEntity
  8
3
 62
7
100
AcDbPoint
 10
2307.2275395355473
 20
1607.7400057689456
 30
0
 50
0
  0
POINT
  5
1C9
330
1F
100
AcDbEntity
  8
3
 62
7
100
AcDbPoint
 10
2314.2354817352543
 20
1606.4105837718753
 30
0
 50
0
  0
POINT
  5
1CA
330
1F
100
AcDbEntity
  8
3
 62
7
100
AcDbPoint
 10
2321.1401219330082
 20
1604.6203463451175
 30
0
 50
0
  0
POINT
  5
1CB
330
1F
100
AcDbEntity
  8
3
 62
7
100
AcDbPoint
 10
2349.4904561004887
 20
1598.8365786449222
 30
0
 50
0
  0
POINT
  5
1CC
330
1F
100
AcDbEntity
  8
3
 62
7
100
AcDbPoint
 10
2421.8334813080082
 20
1591.9657748119143
 30
0
 50
0
  0
POINT
  5
1CD
330
1F
100
AcDbEntity
  8
3
 62
7
100
AcDbPoint
 10
2426.4785182794308
 20
1591.9203610960433
 30
0
 50
0
  0
POINT
  5
1CE
330
1F
100
AcDbEntity
  8
2
 62
7
100
AcDbPoint
 10
2472.9411931000004
 20
1592.4371951000003
 30
0
 50
0
  0
ENDSEC
  0
SECTION
  2
OBJECTS
  0
DICTIONARY
  5
C
330
0
100
AcDbDictionary
280
0
281
1
  3
ACAD_SCALELIST
350
1D4
  3
ACAD_COLOR
350
1E6
  3
ACAD_FIELDLIST
350
1E7
  3
ACAD_GROUP
350
D
  3
ACAD_IMAGE_DICT
350
1E8
  3
ACAD_LAYOUT
350
1A
  3
ACAD_MATERIAL
350
1E9
  3
ACAD_MLEADERSTYLE
350
1EA
  3
ACAD_MLINESTYLE
350
17
  3
ACAD_PLOTSETTINGS
350
19
  3
ACAD_PLOTSTYLENAME
350
E
  3
ACAD_TABLESTYLE
350
1EC
  3
ACDB_RECOMPOSE_DATA
350
1F0
  3
AcDbVariableDictionary
350
1F1
  3
ACAD_VISUALSTYLE
350
1F4
  3
DWGPROPS
350
1F5
  0
DICTIONARY
  5
1EE
330
1ED
100
AcDbDictionary
280
0
281
1
  3
ACAD_ROUNDTRIP_2008_TABLESTYLE_CELLSTYLEMAP
360
1EF
  0
DICTIONARY
  5
1D4
102
{ACAD_REACTORS
330
C
102
}
330
C
100
AcDbDictionary
280
0
281
1
  0
DICTIONARY
  5
1E6
102
{ACAD_REACTORS
330
C
102
}
330
C
100
AcDbDictionary
280
0
281
1
  0
FIELDLIST
  5
1E7
102
{ACAD_REACTORS
330
C
102
}
330
C
100
AcDbIdSet
100
AcDbFieldList
  0
DICTIONARY
  5
D
102
{ACAD_REACTORS
330
C
102
}
330
C
100
AcDbDictionary
280
0
281
1
  0
DICTIONARY
  5
1E8
102
{ACAD_REACTORS
330
C
102
}
330
C
100
AcDbDictionary
280
0
281
1
  0
DICTIONARY
  5
1A
102
{ACAD_REACTORS
330
C
102
}
330
C
100
AcDbDictionary
280
0
281
1
  3
Layout1
350
1E
  3
Model
350
22
  0
DICTIONARY
  5
1E9
102
{ACAD_REACTORS
330
C
102
}
330
C
100
AcDbDictionary
280
0
281
1
  0
DICTIONARY
  5
1EA
102
{ACAD_REACTORS
330
C
102
}
330
C
100
AcDbDictionary
280
0
281
1
  3
Standard
350
1EB
  0
DICTIONARY
  5
17
102
{ACAD_REACTORS
330
C
102
}
330
C
100
AcDbDictionary
280
0
281
1
  3
STANDARD
350
18
  0
DICTIONARY
  5
19
102
{ACAD_REACTORS
330
C
102
}
330
C
100
AcDbDictionary
280
0
281
1
  0
ACDBDICTIONARYWDFLT
  5
E
102
{ACAD_REACTORS
330
C
102
}
330
C
100
AcDbDictionary
280
0
281
1
  3
Normal
350
F
100
AcDbDictionaryWithDefault
340
F
  0
ACDBPLACEHOLDER
  5
F
102
{ACAD_REACTORS
330
E
102
}
330
E
  0
DICTIONARY
  5
1EC
102
{ACAD_REACTORS
330
C
102
}
330
C
100
AcDbDictionary
280
0
281
1
  3
Standard
350
1ED
  0
XRECORD
  5
1F0
102
{ACAD_REACTORS
330
C
102
}
330
C
100
AcDbXrecord
280
1
 90
1
330
1ED
  0
DICTIONARY
  5
1F1
102
{ACAD_REACTORS
330
C
102
}
330
C
100
AcDbDictionary
280
0
281
1
  3
DIMASSOC
350
1F2
  3
HIDETEXT
350
1F3
  0
DICTIONARY
  5
1F4
102
{ACAD_REACTORS
330
C
102
}
330
C
100
AcDbDictionary
280
0
281
1
  0
XRECORD
  5
1F5
102
{ACAD_REACTORS
330
C
102
}
330
C
100
AcDbXrecord
280
0
  1
DWGPROPS COOKIE
  2

  3

  4

  6

  7

  8

  9

300
=
301
=
302
=
303
=
304
=
305
=
306
=
307
=
308
=
309
=
 40
0
 41
2460962.898467442
 42
2460962.898467442
  1

 90
0
  0
CELLSTYLEMAP
  5
1EF
102
{ACAD_REACTORS
330
1EE
102
}
330
1EE
100
AcDbCellStyleMap
 90
3
300
CELLSTYLE
  1
TABLEFORMAT_BEGIN
 90
5
170
0
309
TABLEFORMAT_END
  1
CELLSTYLE_BEGIN
 90
3
 91
2
300
_DATA
309
CELLSTYLE_END
300
CELLSTYLE
  1
TABLEFORMAT_BEGIN
 90
5
170
0
309
TABLEFORMAT_END
  1
CELLSTYLE_BEGIN
 90
1
 91
2
300
_TITLE
309
CELLSTYLE_END
300
CELLSTYLE
  1
TABLEFORMAT_BEGIN
 90
5
170
0
309
TABLEFORMAT_END
  1
CELLSTYLE_BEGIN
 90
2
 91
2
300
_HEADER
309
CELLSTYLE_END
  0
LAYOUT
  5
1E
102
{ACAD_REACTORS
330
1A
102
}
330
1A
100
AcDbPlotSettings
  1

  2
C:\Program Files\AutoCAD 2002\plotters\DWF ePlot (optimized for plotting).pc3
  4

  6

 40
0
 41
0
 42
0
 43
0
 44
0
 45
0
 46
0
 47
0
 48
0
 49
0
140
0
141
0
142
1
143
1
 70
688
 72
1
 73
1
 74
1
  7
acad.stb
 75
16
 76
0
 77
0
 78
0
147
1
148
0
149
0
100
AcDbLayout
  1
Layout1
 70
1
 71
1
 10
0
 20
0
 11
420
 21
297
 12
0
 22
0
 32
0
 14
0
 24
0
 34
0
 15
0
 25
0
 35
0
146
0
 13
0
 23
0
 33
0
 16
1
 26
0
 36
0
 17
0
 27
1
 37
0
 76
0
330
1CF
  0
LAYOUT
  5
22
102
{ACAD_REACTORS
330
1A
102
}
330
1A
100
AcDbPlotSettings
  1

  2
C:\Program Files\AutoCAD 2002\plotters\DWF ePlot (optimized for plotting).pc3
  4

  6

 40
0
 41
0
 42
0
 43
0
 44
0
 45
0
 46
0
 47
0
 48
0
 49
0
140
0
141
0
142
1
143
1
 70
1712
 72
1
 73
1
 74
0
  7
acad.stb
 75
0
 76
0
 77
0
 78
0
147
1
148
0
149
0
100
AcDbLayout
  1
Model
 70
1
 71
0
 10
0
 20
0
 11
12
 21
9
 12
0
 22
0
 32
0
 14
0
 24
0
 34
0
 15
0
 25
0
 35
0
146
0
 13
0
 23
0
 33
0
 16
1
 26
0
 36
0
 17
0
 27
1
 37
0
 76
0
330
1F
  0
MLEADERSTYLE
  5
1EB
102
{ACAD_REACTORS
330
1EA
102
}
330
1EA
100
AcDbMLeaderStyle
170
2
171
1
172
0
 90
2
 40
0
 41
0
173
1
 91
0
340
0
 92
-2
290
1
 42
0.09
292
1
 43
0.36
  3
Standard
341
0
 44
0.18
300

342
0
174
1
178
1
175
1
176
0
 93
0
 45
0.18
292
0
297
0
 46
0
343
0
 94
0
 47
1
 49
1
140
1
293
1
141
0
294
1
177
0
142
1
295
0
296
0
143
0.125
  0
MLINESTYLE
  5
18
102
{ACAD_REACTORS
330
17
102
}
330
17
100
AcDbMlineStyle
  2
STANDARD
 70
0
  3

 51
90
 52
90
 71
2
 49
0.5
 62
0
  6
ByLayer
 49
-0.5
 62
0
  6
ByLayer
  0
TABLESTYLE
  5
1ED
102
{ACAD_XDICTIONARY
360
1EE
102
}
102
{ACAD_REACTORS
330
1EC
102
}
330
1EC
100
AcDbTableStyle
  3

 70
0
 71
0
 40
0.06
 41
0.06
280
0
281
0
  7
Standard
140
0.18
170
1
 62
0
283
0
 90
512
 91
0
274
-2
284
1
 64
0
275
-2
285
1
 65
0
276
-2
286
1
 66
0
277
-2
287
1
 67
0
278
-2
288
1
 68
0
279
-2
289
1
 69
0
  7
Standard
140
0.18
170
1
 62
0
283
0
 90
512
 91
0
274
-2
284
1
 64
0
275
-2
285
1
 65
0
276
-2
286
1
 66
0
277
-2
287
1
 67
0
278
-2
288
1
 68
0
279
-2
289
1
 69
0
  7
Standard
140
0.18
170
1
 62
0
283
0
 90
512
 91
0
274
-2
284
1
 64
0
275
-2
285
1
 65
0
276
-2
286
1
 66
0
277
-2
287
1
 67
0
278
-2
288
1
 68
0
279
-2
289
1
 69
0
  0
DICTIONARYVAR
  5
1F2
102
{ACAD_REACTORS
330
1F1
102
}
330
1F1
100
DictionaryVariables
280
0
  1
1
  0
DICTIONARYVAR
  5
1F3
102
{ACAD_REACTORS
330
1F1
102
}
330
1F1
100
DictionaryVariables
280
0
  1
2
  0
ENDSEC
999
Created By CadLib version 4.0.38.30
999
CadLib website: www.woutware.com
  0
EOF
