  0
SECTION
  2
BLOCKS
  0
BLOCK
  8
1
  2
1
 70
64
 10
0.0
 20
0.0
  0
LINE
  8
7
 10
-281.1049461364746
 20
5.695636868476868
 11
279.2666053771973
 21
5.695636868476868
  0
TEXT
  8
1
 10
-314.0916209220886
 20
71.00756916999816
 40
56.86040401458740
 50
0.0000000000000000
 51
0.0000000000000000
 71
0
  1
Size: Base
  0
TEXT
  8
1
 10
-314.0916209220886
 20
133.5540135860443
 40
56.86040401458740
 50
0.0000000000000000
 51
0.0000000000000000
 71
0
  1
Piece Name: 8479BM
  0
TEXT
  8
1
 10
-314.0916209220886
 20
8.461124753952021
 40
56.86040401458740
 50
0.0000000000000000
 51
0.0000000000000000
 71
0
  1
Sample Size
  0
TEXT
  8
1
 10
-314.0916209220886
 20
-54.08531966209413
 40
56.86040401458740
 50
0.0000000000000000
 51
0.0000000000000000
 71
0
  1
Quantity: 1
  0
POLYLINE
  8
1
 66
1
 70
1
  0
VERTEX
  8
1
 10
-545.6800842285156
 20
322.0932388305664
  0
VERTEX
  8
1
 10
-545.3031921386719
 20
326.3175582885742
  0
VERTEX
  8
1
 10
-544.9935913085938
 20
327.2209930419922
 70
8
  0
VERTEX
  8
1
 10
-544.6477127075195
 20
328.1111907958984
 70
8
  0
VERTEX
  8
1
 10
-543.8493347167969
 20
329.8458862304688
 70
8
  0
VERTEX
  8
1
 10
-542.9132461547852
 20
331.5103530883789
 70
8
  0
VERTEX
  8
1
 10
-542.3954772949219
 20
332.3128128051758
 70
8
  0
VERTEX
  8
1
 10
-541.8456268310547
 20
333.0936813354492
  0
VERTEX
  8
1
 10
-540.3141784667969
 20
334.8542022705078
 70
8
  0
VERTEX
  8
1
 10
-538.6766433715820
 20
336.5164566040039
 70
8
  0
VERTEX
  8
1
 10
-535.1086425781250
 20
339.5209884643555
 70
8
  0
VERTEX
  8
1
 10
-531.1964416503906
 20
342.0611953735352
 70
8
  0
VERTEX
  8
1
 10
-529.1298675537109
 20
343.1446838378906
 70
8
  0
VERTEX
  8
1
 10
-527.0001220703125
 20
344.0980148315430
  0
VERTEX
  8
1
 10
-525.1288223266602
 20
344.8403167724609
  0
VERTEX
  8
1
 10
-521.4763259887695
 20
345.7219696044922
  0
VERTEX
  8
1
 10
-517.7639007568359
 20
346.3014984130859
  0
VERTEX
  8
1
 10
-505.4069900512695
 20
347.0955276489258
  0
VERTEX
  8
1
 10
-486.1270523071289
 20
349.8758697509766
  0
VERTEX
  8
1
 10
-444.3298339843750
 20
357.5304412841797
  0
VERTEX
  8
1
 10
-415.2307959868767
 20
364.0093423249214
 70
8
  0
VERTEX
  8
1
 10
-396.0500412661538
 20
369.0449925315706
 70
8
  0
VERTEX
  8
1
 10
-391.3009643554688
 20
370.4550170898438
 70
8
  0
VERTEX
  8
1
 10
-372.5068768160998
 20
376.7577652622109
 70
8
  0
VERTEX
  8
1
 10
-344.7051333040903
 20
387.4879428967454
 70
8
  0
VERTEX
  8
1
 10
-340.0906372070313
 20
389.3389892578125
  0
VERTEX
  8
1
 10
-312.4326515197754
 20
401.0597991943359
  0
VERTEX
  8
1
 10
-285.0128173828125
 20
413.3273696899414
  0
VERTEX
  8
1
 10
-246.5662956237793
 20
431.3164901733398
  0
VERTEX
  8
1
 10
-208.3763122558594
 20
449.8439407348633
  0
VERTEX
  8
1
 10
-191.9296455383301
 20
456.7358016967773
  0
VERTEX
  8
1
 10
-175.2870368957520
 20
463.1400680541992
  0
VERTEX
  8
1
 10
-158.4629535675049
 20
469.0511322021484
  0
VERTEX
  8
1
 10
-125.8299007679156
 20
478.9436250186175
 70
8
  0
VERTEX
  8
1
 10
-111.7423629760742
 20
482.7893066406250
 70
8
  0
VERTEX
  8
1
 10
-88.05724367200025
 20
488.4031357357486
 70
8
  0
VERTEX
  8
1
 10
-64.22220706939697
 20
493.4376144409180
  0
VERTEX
  8
1
 10
-52.34757900238037
 20
495.2850341796875
  0
VERTEX
  8
1
 10
-40.39818286895752
 20
496.5623855590820
  0
VERTEX
  8
1
 10
-28.40136766433716
 20
497.2667312622070
  0
VERTEX
  8
1
 10
-10.17737579657066
 20
497.1713856506819
 70
8
  0
VERTEX
  8
1
 10
-1.112842559814453
 20
496.6100692749023
 70
8
  0
VERTEX
  8
1
 10
12.39259345502150
 20
494.7793305074079
 70
8
  0
VERTEX
  8
1
 10
25.83395481109619
 20
492.2551727294922
  0
VERTEX
  8
1
 10
39.47417974472046
 20
491.0565567016602
 70
8
  0
VERTEX
  8
1
 10
53.04391860961914
 20
489.2250061035156
  0
VERTEX
  8
1
 10
62.52209663391113
 20
487.6321792602539
 70
8
  0
VERTEX
  8
1
 10
71.93253040313721
 20
485.6785202026367
 70
8
  0
VERTEX
  8
1
 10
81.26150131225586
 20
483.3669662475586
 70
8
  0
VERTEX
  8
1
 10
90.49538612365723
 20
480.7008361816406
 70
8
  0
VERTEX
  8
1
 10
99.62072372436523
 20
477.6840209960938
 70
8
  0
VERTEX
  8
1
 10
108.6242008209229
 20
474.3209075927734
 70
8
  0
VERTEX
  8
1
 10
117.4926853179932
 20
470.6164550781250
 70
8
  0
VERTEX
  8
1
 10
126.2132263183594
 20
466.5760040283203
  0
VERTEX
  8
1
 10
171.0126686096191
 20
448.6291885375977
  0
VERTEX
  8
1
 10
203.4487724304199
 20
434.2323303222656
  0
VERTEX
  8
1
 10
236.9971656799316
 20
418.7896728515625
  0
VERTEX
  8
1
 10
268.3973693847656
 20
404.0936660766602
  0
VERTEX
  8
1
 10
285.5122566223145
 20
397.2601318359375
  0
VERTEX
  8
1
 10
302.8653717041016
 20
391.0565185546875
  0
VERTEX
  8
1
 10
323.5285949707031
 20
384.4479751586914
  0
VERTEX
  8
1
 10
344.3869781494141
 20
378.4838867187500
  0
VERTEX
  8
1
 10
361.3899230957031
 20
373.0907058715820
  0
VERTEX
  8
1
 10
378.6905670166016
 20
368.7461853027344
  0
VERTEX
  8
1
 10
392.7521514892578
 20
366.2268447875977
  0
VERTEX
  8
1
 10
466.8506240844727
 20
359.0679931640625
  0
VERTEX
  8
1
 10
474.5948410034180
 20
359.2938995361328
 70
8
  0
VERTEX
  8
1
 10
482.3064422607422
 20
358.5491561889648
  0
VERTEX
  8
1
 10
483.6406707763672
 20
358.3042907714844
 70
8
  0
VERTEX
  8
1
 10
484.9625396728516
 20
357.9995727539063
 70
8
  0
VERTEX
  8
1
 10
487.5583648681641
 20
357.2132110595703
 70
8
  0
VERTEX
  8
1
 10
490.0729370117188
 20
356.1964797973633
 70
8
  0
VERTEX
  8
1
 10
491.2933349609375
 20
355.6042098999023
 70
8
  0
VERTEX
  8
1
 10
492.4858093261719
 20
354.9575805664063
  0
VERTEX
  8
1
 10
494.3026351928711
 20
353.5329818725586
  0
VERTEX
  8
1
 10
495.6573104858398
 20
352.3965835571289
 70
8
  0
VERTEX
  8
1
 10
496.9113540649414
 20
351.1499786376953
 70
8
  0
VERTEX
  8
1
 10
498.0558395385742
 20
349.8021316528320
 70
8
  0
VERTEX
  8
1
 10
499.0826034545898
 20
348.3625411987305
 70
8
  0
VERTEX
  8
1
 10
499.9843215942383
 20
346.8415451049805
 70
8
  0
VERTEX
  8
1
 10
500.7546234130859
 20
345.2499008178711
 70
8
  0
VERTEX
  8
1
 10
501.3879776000977
 20
343.5990142822266
 70
8
  0
VERTEX
  8
1
 10
501.8799209594727
 20
341.9005966186523
  0
VERTEX
  8
1
 10
502.2795867919922
 20
335.5824661254883
  0
VERTEX
  8
1
 10
502.4864578247070
 20
327.3807525634766
  0
VERTEX
  8
1
 10
509.4950866699219
 20
-400.0462722778320
  0
VERTEX
  8
1
 10
509.8055267333984
 20
-401.4475631713867
  0
VERTEX
  8
1
 10
509.7437667846680
 20
-402.5788116455078
 70
8
  0
VERTEX
  8
1
 10
509.6031951904297
 20
-403.7030029296875
 70
8
  0
VERTEX
  8
1
 10
509.0887069702148
 20
-405.9082794189453
 70
8
  0
VERTEX
  8
1
 10
508.2721710205078
 20
-408.0204391479492
 70
8
  0
VERTEX
  8
1
 10
507.7553558349609
 20
-409.0286254882813
 70
8
  0
VERTEX
  8
1
 10
507.1694183349609
 20
-409.9982833862305
  0
VERTEX
  8
1
 10
506.2793731689453
 20
-412.8500366210938
 70
8
  0
VERTEX
  8
1
 10
505.1489257812500
 20
-415.6153488159180
 70
8
  0
VERTEX
  8
1
 10
503.7863540649414
 20
-418.2739639282227
 70
8
  0
VERTEX
  8
1
 10
502.2016525268555
 20
-420.8064651489258
 70
8
  0
VERTEX
  8
1
 10
500.4064178466797
 20
-423.1943130493164
 70
8
  0
VERTEX
  8
1
 10
498.4136962890625
 20
-425.4200744628906
 70
8
  0
VERTEX
  8
1
 10
496.2381362915039
 20
-427.4674606323242
 70
8
  0
VERTEX
  8
1
 10
493.8956451416016
 20
-429.3215179443359
  0
VERTEX
  8
1
 10
491.7994308471680
 20
-430.6769180297852
 70
8
  0
VERTEX
  8
1
 10
489.5986938476563
 20
-431.8551254272461
 70
8
  0
VERTEX
  8
1
 10
487.3084259033203
 20
-432.8481292724609
 70
8
  0
VERTEX
  8
1
 10
484.9441528320313
 20
-433.6491394042969
 70
8
  0
VERTEX
  8
1
 10
482.5219726562500
 20
-434.2527389526367
 70
8
  0
VERTEX
  8
1
 10
480.0583267211914
 20
-434.6548461914063
 70
8
  0
VERTEX
  8
1
 10
477.5698852539063
 20
-434.8526763916016
 70
8
  0
VERTEX
  8
1
 10
475.0736236572266
 20
-434.8449707031250
  0
VERTEX
  8
1
 10
468.8370132446289
 20
-435.5225372314453
  0
VERTEX
  8
1
 10
-128.5077762603760
 20
-437.7693939208984
  0
VERTEX
  8
1
 10
-130.3675365447998
 20
-438.0021667480469
 70
8
  0
VERTEX
  8
1
 10
-132.2366142272949
 20
-438.1414413452148
 70
8
  0
VERTEX
  8
1
 10
-134.1103363037109
 20
-438.1868743896484
 70
8
  0
VERTEX
  8
1
 10
-137.8528308868408
 20
-437.9960632324219
 70
8
  0
VERTEX
  8
1
 10
-139.7122001647949
 20
-437.7602767944336
 70
8
  0
VERTEX
  8
1
 10
-141.5574264526367
 20
-437.4316024780273
 70
8
  0
VERTEX
  8
1
 10
-143.3838653564453
 20
-437.0108795166016
  0
VERTEX
  8
1
 10
-145.6529808044434
 20
-435.9941482543945
 70
8
  0
VERTEX
  8
1
 10
-147.8126049041748
 20
-434.7617721557617
 70
8
  0
VERTEX
  8
1
 10
-149.8423099517822
 20
-433.3254623413086
 70
8
  0
VERTEX
  8
1
 10
-151.7228794097900
 20
-431.6987609863281
 70
8
  0
VERTEX
  8
1
 10
-153.4365463256836
 20
-429.8970794677734
 70
8
  0
VERTEX
  8
1
 10
-154.9670982360840
 20
-427.9374694824219
 70
8
  0
VERTEX
  8
1
 10
-156.3000488281250
 20
-425.8384323120117
 70
8
  0
VERTEX
  8
1
 10
-157.4228000640869
 20
-423.6198425292969
  0
VERTEX
  8
1
 10
-158.9467811584473
 20
-420.1844024658203
  0
VERTEX
  8
1
 10
-159.5811462402344
 20
-418.2083892822266
 70
8
  0
VERTEX
  8
1
 10
-159.9378490447998
 20
-416.1639404296875
  0
VERTEX
  8
1
 10
-159.2560100555420
 20
-401.2638854980469
  0
VERTEX
  8
1
 10
-158.4911251068115
 20
-354.6828460693359
  0
VERTEX
  8
1
 10
-158.2961273193359
 20
-351.5797805786133
  0
VERTEX
  8
1
 10
-158.4092140197754
 20
-345.6372451782227
  0
VERTEX
  8
1
 10
-158.5508155822754
 20
-344.7459411621094
 70
8
  0
VERTEX
  8
1
 10
-158.7309551239014
 20
-343.8616180419922
 70
8
  0
VERTEX
  8
1
 10
-159.2054367065430
 20
-342.1205520629883
 70
8
  0
VERTEX
  8
1
 10
-159.8290824890137
 20
-340.4272079467773
 70
8
  0
VERTEX
  8
1
 10
-160.1954269409180
 20
-339.6023941040039
 70
8
  0
VERTEX
  8
1
 10
-160.5971908569336
 20
-338.7942504882813
  0
VERTEX
  8
1
 10
-162.8428268432617
 20
-336.9316482543945
  0
VERTEX
  8
1
 10
-163.9898109436035
 20
-336.2429809570313
  0
VERTEX
  8
1
 10
-165.0570297241211
 20
-335.7326507568359
 70
8
  0
VERTEX
  8
1
 10
-166.1942672729492
 20
-335.4067993164063
 70
8
  0
VERTEX
  8
1
 10
-167.3698425292969
 20
-335.2746200561523
 70
8
  0
VERTEX
  8
1
 10
-168.5510253906250
 20
-335.3396987915039
 70
8
  0
VERTEX
  8
1
 10
-169.7049713134766
 20
-335.6002426147461
 70
8
  0
VERTEX
  8
1
 10
-170.7995223999023
 20
-336.0490417480469
 70
8
  0
VERTEX
  8
1
 10
-171.8042182922363
 20
-336.6735839843750
 70
8
  0
VERTEX
  8
1
 10
-172.6910972595215
 20
-337.4564361572266
  0
VERTEX
  8
1
 10
-173.2276344299316
 20
-337.9574966430664
 70
8
  0
VERTEX
  8
1
 10
-173.7262535095215
 20
-338.4962844848633
 70
8
  0
VERTEX
  8
1
 10
-174.5993423461914
 20
-339.6755218505859
 70
8
  0
VERTEX
  8
1
 10
-175.2918434143066
 20
-340.9690856933594
 70
8
  0
VERTEX
  8
1
 10
-175.5656242370606
 20
-341.6502380371094
 70
8
  0
VERTEX
  8
1
 10
-175.7890510559082
 20
-342.3495101928711
  0
VERTEX
  8
1
 10
-175.9836769104004
 20
-343.2682418823242
 70
8
  0
VERTEX
  8
1
 10
-176.1319923400879
 20
-344.1955566406250
 70
8
  0
VERTEX
  8
1
 10
-176.2883377075195
 20
-346.0666656494141
 70
8
  0
VERTEX
  8
1
 10
-176.2564849853516
 20
-347.9440307617188
 70
8
  0
VERTEX
  8
1
 10
-176.1700248718262
 20
-348.8791656494141
 70
8
  0
VERTEX
  8
1
 10
-176.0367965698242
 20
-349.8087692260742
  0
VERTEX
  8
1
 10
-177.1850204467773
 20
-422.9702758789063
  0
VERTEX
  8
1
 10
-177.3225212097168
 20
-424.0027999877930
  0
VERTEX
  8
1
 10
-177.6191329956055
 20
-425.0885391235352
 70
8
  0
VERTEX
  8
1
 10
-178.0026626586914
 20
-426.1466979980469
 70
8
  0
VERTEX
  8
1
 10
-179.0197944641113
 20
-428.1527328491211
 70
8
  0
VERTEX
  8
1
 10
-180.3472709655762
 20
-429.9684143066406
 70
8
  0
VERTEX
  8
1
 10
-181.1168098449707
 20
-430.7897186279297
 70
8
  0
VERTEX
  8
1
 10
-181.9503211975098
 20
-431.5460586547852
  0
VERTEX
  8
1
 10
-182.6525688171387
 20
-432.4052429199219
 70
8
  0
VERTEX
  8
1
 10
-183.4138679504395
 20
-433.2125091552734
 70
8
  0
VERTEX
  8
1
 10
-185.0980949401856
 20
-434.6555709838867
 70
8
  0
VERTEX
  8
1
 10
-186.9692230224609
 20
-435.8463287353516
 70
8
  0
VERTEX
  8
1
 10
-187.9632759094238
 20
-436.3394546508789
 70
8
  0
VERTEX
  8
1
 10
-188.9897537231445
 20
-436.7609405517578
  0
VERTEX
  8
1
 10
-197.2439765930176
 20
-438.2136535644531
  0
VERTEX
  8
1
 10
-203.8845252990723
 20
-439.0259170532227
  0
VERTEX
  8
1
 10
-209.5960426330566
 20
-439.2616271972656
  0
VERTEX
  8
1
 10
-216.8443489074707
 20
-438.8406753540039
  0
VERTEX
  8
1
 10
-508.6374664306641
 20
-443.0214691162109
  0
VERTEX
  8
1
 10
-510.4413986206055
 20
-443.0334091186523
  0
VERTEX
  8
1
 10
-511.4989471435547
 20
-442.8988265991211
 70
8
  0
VERTEX
  8
1
 10
-512.5494384765625
 20
-442.7173995971680
 70
8
  0
VERTEX
  8
1
 10
-514.6210861206055
 20
-442.2153091430664
 70
8
  0
VERTEX
  8
1
 10
-516.6399002075195
 20
-441.5311813354492
 70
8
  0
VERTEX
  8
1
 10
-517.6245117187500
 20
-441.1224746704102
 70
8
  0
VERTEX
  8
1
 10
-518.5899734497070
 20
-440.6703948974609
  0
VERTEX
  8
1
 10
-520.3966522216797
 20
-439.4217300415039
 70
8
  0
VERTEX
  8
1
 10
-522.1398544311523
 20
-438.0858993530273
 70
8
  0
VERTEX
  8
1
 10
-525.4191589355469
 20
-435.1656723022461
 70
8
  0
VERTEX
  8
1
 10
-528.3962631225586
 20
-431.9379043579102
 70
8
  0
VERTEX
  8
1
 10
-529.7623443603516
 20
-430.2183151245117
 70
8
  0
VERTEX
  8
1
 10
-531.0424041748047
 20
-428.4337234497070
  0
VERTEX
  8
1
 10
-532.1412658691406
 20
-427.0345306396484
 70
8
  0
VERTEX
  8
1
 10
-533.1346130371094
 20
-425.5585479736328
 70
8
  0
VERTEX
  8
1
 10
-534.7839355468750
 20
-422.4083328247070
 70
8
  0
VERTEX
  8
1
 10
-535.9548950195313
 20
-419.0508270263672
 70
8
  0
VERTEX
  8
1
 10
-536.3527297973633
 20
-417.3167800903320
 70
8
  0
VERTEX
  8
1
 10
-536.6223526000977
 20
-415.5582046508789
  0
VERTEX
  8
1
 10
-536.6341400146484
 20
-410.9347915649414
  0
VERTEX
  8
1
 10
-537.2921752929688
 20
-395.0440979003906
  0
VERTEX
  8
1
 10
-541.4870071411133
 20
-143.8984966278076
  0
VERTEX
  8
1
 10
-545.5572891235352
 20
318.3102989196777
  0
SEQEND
  0
POINT
  8
2
 10
-545.5572891235352
 20
318.3102989196777
  0
POINT
  8
3
 10
-544.9935913085938
 20
327.2209930419922
  0
POINT
  8
3
 10
-544.6477127075195
 20
328.1111907958984
  0
POINT
  8
3
 10
-543.8493347167969
 20
329.8458862304688
  0
POINT
  8
3
 10
-542.9132461547852
 20
331.5103530883789
  0
POINT
  8
3
 10
-542.3954772949219
 20
332.3128128051758
  0
POINT
  8
3
 10
-540.3141784667969
 20
334.8542022705078
  0
POINT
  8
3
 10
-538.6766433715820
 20
336.5164566040039
  0
POINT
  8
3
 10
-535.1086425781250
 20
339.5209884643555
  0
POINT
  8
3
 10
-531.1964416503906
 20
342.0611953735352
  0
POINT
  8
3
 10
-529.1298675537109
 20
343.1446838378906
  0
POINT
  8
3
 10
-410.4120390689537
 20
365.1910198509825
  0
POINT
  8
3
 10
-391.3009643554688
 20
370.4550170898438
  0
POINT
  8
3
 10
-367.8493431204200
 20
378.4677739238273
  0
POINT
  8
3
 10
-121.1440493211130
 20
480.2641422412944
  0
POINT
  8
3
 10
-111.7423629760742
 20
482.7893066406250
  0
POINT
  8
3
 10
-78.53282373806481
 20
490.4540056427734
  0
POINT
  8
3
 10
-10.17737579657066
 20
497.1713856506819
  0
POINT
  8
3
 10
-1.112842559814453
 20
496.6100692749023
  0
POINT
  8
3
 10
16.87700246622919
 20
493.9807482240547
  0
POINT
  8
3
 10
39.47417974472046
 20
491.0565567016602
  0
POINT
  8
3
 10
62.52209663391113
 20
487.6321792602539
  0
POINT
  8
3
 10
71.93253040313721
 20
485.6785202026367
  0
POINT
  8
3
 10
81.26150131225586
 20
483.3669662475586
  0
POINT
  8
3
 10
90.49538612365723
 20
480.7008361816406
  0
POINT
  8
3
 10
99.62072372436523
 20
477.6840209960938
  0
POINT
  8
3
 10
108.6242008209229
 20
474.3209075927734
  0
POINT
  8
3
 10
117.4926853179932
 20
470.6164550781250
  0
POINT
  8
3
 10
474.5948410034180
 20
359.2938995361328
  0
POINT
  8
3
 10
483.6406707763672
 20
358.3042907714844
  0
POINT
  8
3
 10
484.9625396728516
 20
357.9995727539063
  0
POINT
  8
3
 10
487.5583648681641
 20
357.2132110595703
  0
POINT
  8
3
 10
490.0729370117188
 20
356.1964797973633
  0
POINT
  8
3
 10
491.2933349609375
 20
355.6042098999023
  0
POINT
  8
3
 10
495.6573104858398
 20
352.3965835571289
  0
POINT
  8
3
 10
496.9113540649414
 20
351.1499786376953
  0
POINT
  8
3
 10
498.0558395385742
 20
349.8021316528320
  0
POINT
  8
3
 10
499.0826034545898
 20
348.3625411987305
  0
POINT
  8
3
 10
499.9843215942383
 20
346.8415451049805
  0
POINT
  8
3
 10
500.7546234130859
 20
345.2499008178711
  0
POINT
  8
3
 10
501.3879776000977
 20
343.5990142822266
  0
POINT
  8
3
 10
509.7437667846680
 20
-402.5788116455078
  0
POINT
  8
3
 10
509.6031951904297
 20
-403.7030029296875
  0
POINT
  8
3
 10
509.0887069702148
 20
-405.9082794189453
  0
POINT
  8
3
 10
508.2721710205078
 20
-408.0204391479492
  0
POINT
  8
3
 10
507.7553558349609
 20
-409.0286254882813
  0
POINT
  8
3
 10
506.2793731689453
 20
-412.8500366210938
  0
POINT
  8
3
 10
505.1489257812500
 20
-415.6153488159180
  0
POINT
  8
3
 10
503.7863540649414
 20
-418.2739639282227
  0
POINT
  8
3
 10
502.2016525268555
 20
-420.8064651489258
  0
POINT
  8
3
 10
500.4064178466797
 20
-423.1943130493164
  0
POINT
  8
3
 10
498.4136962890625
 20
-425.4200744628906
  0
POINT
  8
3
 10
496.2381362915039
 20
-427.4674606323242
  0
POINT
  8
3
 10
491.7994308471680
 20
-430.6769180297852
  0
POINT
  8
3
 10
489.5986938476563
 20
-431.8551254272461
  0
POINT
  8
3
 10
487.3084259033203
 20
-432.8481292724609
  0
POINT
  8
3
 10
484.9441528320313
 20
-433.6491394042969
  0
POINT
  8
3
 10
482.5219726562500
 20
-434.2527389526367
  0
POINT
  8
3
 10
480.0583267211914
 20
-434.6548461914063
  0
POINT
  8
3
 10
477.5698852539063
 20
-434.8526763916016
  0
POINT
  8
3
 10
-130.3675365447998
 20
-438.0021667480469
  0
POINT
  8
3
 10
-132.2366142272949
 20
-438.1414413452148
  0
POINT
  8
3
 10
-134.1103363037109
 20
-438.1868743896484
  0
POINT
  8
3
 10
-137.8528308868408
 20
-437.9960632324219
  0
POINT
  8
3
 10
-139.7122001647949
 20
-437.7602767944336
  0
POINT
  8
3
 10
-141.5574264526367
 20
-437.4316024780273
  0
POINT
  8
3
 10
-145.6529808044434
 20
-435.9941482543945
  0
POINT
  8
3
 10
-147.8126049041748
 20
-434.7617721557617
  0
POINT
  8
3
 10
-149.8423099517822
 20
-433.3254623413086
  0
POINT
  8
3
 10
-151.7228794097900
 20
-431.6987609863281
  0
POINT
  8
3
 10
-153.4365463256836
 20
-429.8970794677734
  0
POINT
  8
3
 10
-154.9670982360840
 20
-427.9374694824219
  0
POINT
  8
3
 10
-156.3000488281250
 20
-425.8384323120117
  0
POINT
  8
3
 10
-159.5811462402344
 20
-418.2083892822266
  0
POINT
  8
3
 10
-158.5508155822754
 20
-344.7459411621094
  0
POINT
  8
3
 10
-158.7309551239014
 20
-343.8616180419922
  0
POINT
  8
3
 10
-159.2054367065430
 20
-342.1205520629883
  0
POINT
  8
3
 10
-159.8290824890137
 20
-340.4272079467773
  0
POINT
  8
3
 10
-160.1954269409180
 20
-339.6023941040039
  0
POINT
  8
3
 10
-165.0570297241211
 20
-335.7326507568359
  0
POINT
  8
3
 10
-166.1942672729492
 20
-335.4067993164063
  0
POINT
  8
3
 10
-167.3698425292969
 20
-335.2746200561523
  0
POINT
  8
3
 10
-168.5510253906250
 20
-335.3396987915039
  0
POINT
  8
3
 10
-169.7049713134766
 20
-335.6002426147461
  0
POINT
  8
3
 10
-170.7995223999023
 20
-336.0490417480469
  0
POINT
  8
3
 10
-171.8042182922363
 20
-336.6735839843750
  0
POINT
  8
3
 10
-173.2276344299316
 20
-337.9574966430664
  0
POINT
  8
3
 10
-173.7262535095215
 20
-338.4962844848633
  0
POINT
  8
3
 10
-174.5993423461914
 20
-339.6755218505859
  0
POINT
  8
3
 10
-175.2918434143066
 20
-340.9690856933594
  0
POINT
  8
3
 10
-175.5656242370606
 20
-341.6502380371094
  0
POINT
  8
3
 10
-175.9836769104004
 20
-343.2682418823242
  0
POINT
  8
3
 10
-176.1319923400879
 20
-344.1955566406250
  0
POINT
  8
3
 10
-176.2883377075195
 20
-346.0666656494141
  0
POINT
  8
3
 10
-176.2564849853516
 20
-347.9440307617188
  0
POINT
  8
3
 10
-176.1700248718262
 20
-348.8791656494141
  0
POINT
  8
3
 10
-177.6191329956055
 20
-425.0885391235352
  0
POINT
  8
3
 10
-178.0026626586914
 20
-426.1466979980469
  0
POINT
  8
3
 10
-179.0197944641113
 20
-428.1527328491211
  0
POINT
  8
3
 10
-180.3472709655762
 20
-429.9684143066406
  0
POINT
  8
3
 10
-181.1168098449707
 20
-430.7897186279297
  0
POINT
  8
3
 10
-182.6525688171387
 20
-432.4052429199219
  0
POINT
  8
3
 10
-183.4138679504395
 20
-433.2125091552734
  0
POINT
  8
3
 10
-185.0980949401856
 20
-434.6555709838867
  0
POINT
  8
3
 10
-186.9692230224609
 20
-435.8463287353516
  0
POINT
  8
3
 10
-187.9632759094238
 20
-436.3394546508789
  0
POINT
  8
3
 10
-511.4989471435547
 20
-442.8988265991211
  0
POINT
  8
3
 10
-512.5494384765625
 20
-442.7173995971680
  0
POINT
  8
3
 10
-514.6210861206055
 20
-442.2153091430664
  0
POINT
  8
3
 10
-516.6399002075195
 20
-441.5311813354492
  0
POINT
  8
3
 10
-517.6245117187500
 20
-441.1224746704102
  0
POINT
  8
3
 10
-520.3966522216797
 20
-439.4217300415039
  0
POINT
  8
3
 10
-522.1398544311523
 20
-438.0858993530273
  0
POINT
  8
3
 10
-525.4191589355469
 20
-435.1656723022461
  0
POINT
  8
3
 10
-528.3962631225586
 20
-431.9379043579102
  0
POINT
  8
3
 10
-529.7623443603516
 20
-430.2183151245117
  0
POINT
  8
3
 10
-532.1412658691406
 20
-427.0345306396484
  0
POINT
  8
3
 10
-533.1346130371094
 20
-425.5585479736328
  0
POINT
  8
3
 10
-534.7839355468750
 20
-422.4083328247070
  0
POINT
  8
3
 10
-535.9548950195313
 20
-419.0508270263672
  0
POINT
  8
3
 10
-536.3527297973633
 20
-417.3167800903320
  0
LINE
  8
8
 10
-532.3672866821289
 20
-149.2123317718506
 11
-533.5771179199219
 21
-137.7016925811768
  0
POINT
  8
2
 10
-532.3672866821289
 20
-149.2123317718506
  0
POINT
  8
2
 10
-533.5771179199219
 20
-137.7016925811768
  0
ENDBLK
  0
ENDSEC
  0
SECTION
  2
ENTITIES
  0
INSERT
  8
1
  2
1
 10
0.0
 20
0.0
  0
TEXT
  8
1
 10
-545.6800842285156
 20
-459.0334091186523
 40
8.000000000000000
 50
0.0000000000000000
 51
0.0000000000000000
 71
0
  1
Sample Size: Base
  0
TEXT
  8
1
 10
-545.6800842285156
 20
-467.0334091186523
 40
8.000000000000000
 50
0.0000000000000000
 51
0.0000000000000000
 71
0
  1
Units: METRIC
  0
TEXT
  8
1
 10
-545.6800842285156
 20
-475.0334091186523
 40
8.000000000000000
 50
0.0000000000000000
 51
0.0000000000000000
 71
0
  1
Tolerance: 0.020000
  0
TEXT
  8
1
 10
-545.6800842285156
 20
-483.0334091186523
 40
8.000000000000000
 50
0.0000000000000000
 51
0.0000000000000000
 71
0
  1
Creation Date: 30-04-2019
  0
TEXT
  8
1
 10
-545.6800842285156
 20
-491.0334091186523
 40
8.000000000000000
 50
0.0000000000000000
 51
0.0000000000000000
 71
0
  1
Creation Time: 19:42
  0
TEXT
  8
1
 10
-545.6800842285156
 20
-499.0334091186523
 40
8.000000000000000
 50
0.0000000000000000
 51
0.0000000000000000
 71
0
  1
Author: Optitex
  0
ENDSEC
  0
EOF
