  0
SECTION
  2
HEADER
  9
$ACADVER
  1
AC1015
  9
$DWGCODEPAGE
  3
ansi_1252
  9
$INSBASE
 10
0
 20
0
 30
0
  9
$EXTMIN
 10
1987.1899839054206
 20
316.57932193340383
 30
0
  9
$EXTMAX
 10
2499.0000005375005
 20
1999.0000001878907
 30
0
  9
$LIMMIN
 10
0
 20
0
  9
$LIMMAX
 10
12
 20
9
  9
$SNAPMODE
 70
0
  9
$SNAPUNIT
 10
1
 20
1
  9
$SNAPBASE
 10
0
 20
0
  9
$SNAPANG
 50
0
  9
$SNAPSTYLE
 70
0
  9
$SNAPISOPAIR
 70
0
  9
$ORTHOMODE
 70
0
  9
$REGENMODE
 70
1
  9
$FILLMODE
 70
1
  9
$QTEXTMODE
 70
0
  9
$MIRRTEXT
 70
1
  9
$LTSCALE
 40
1
  9
$OSMODE
 70
0
  9
$ATTMODE
 70
1
  9
$TEXTSIZE
 40
0.2
  9
$TRACEWID
 40
0.05
  9
$TEXTSTYLE
  7
Standard
  9
$CLAYER
  8
0
  9
$CELTYPE
  6
ByLayer
  9
$CECOLOR
 62
256
  9
$CELTSCALE
 40
1
  9
$DISPSILH
 70
0
  9
$DIMSCALE
 40
1
  9
$DIMASZ
 40
0.18
  9
$DIMEXO
 40
0.0625
  9
$DIMDLI
 40
0.38
  9
$DIMRND
 40
0
  9
$DIMDLE
 40
0
  9
$DIMEXE
 40
0.18
  9
$DIMTP
 40
0
  9
$DIMTM
 40
0
  9
$DIMTXT
 40
0.18
  9
$DIMCEN
 40
0.09
  9
$DIMTSZ
 40
0
  9
$DIMTOL
 70
0
  9
$DIMLIM
 70
0
  9
$DIMTIH
 70
1
  9
$DIMTOH
 70
1
  9
$DIMSE1
 70
0
  9
$DIMSE2
 70
0
  9
$DIMTAD
 70
0
  9
$DIMZIN
 70
0
  9
$DIMBLK
  1

  9
$DIMASO
 70
1
  9
$DIMSHO
 70
1
  9
$DIMPOST
  1

  9
$DIMAPOST
  1

  9
$DIMALT
 70
0
  9
$DIMALTD
 70
2
  9
$DIMALTF
 40
0.03937007874015748
  9
$DIMLFAC
 40
1
  9
$DIMTOFL
 70
0
  9
$DIMTVP
 40
0
  9
$DIMTIX
 70
0
  9
$DIMSOXD
 70
0
  9
$DIMSAH
 70
0
  9
$DIMBLK1
  1

  9
$DIMBLK2
  1

  9
$DIMSTYLE
  2
Standard
  9
$DIMCLRD
 70
0
  9
$DIMCLRE
 70
0
  9
$DIMCLRT
 70
0
  9
$DIMTFAC
 40
1
  9
$DIMGAP
 40
0.09
  9
$DIMJUST
 70
0
  9
$DIMSD1
 70
0
  9
$DIMSD2
 70
0
  9
$DIMTOLJ
 70
1
  9
$DIMTZIN
 70
0
  9
$DIMALTZ
 70
0
  9
$DIMALTTZ
 70
0
  9
$DIMUPT
 70
0
  9
$DIMDEC
 70
4
  9
$DIMTDEC
 70
4
  9
$DIMALTU
 70
2
  9
$DIMALTTD
 70
0
  9
$DIMTXSTY
  7
Standard
  9
$DIMAUNIT
 70
0
  9
$DIMADEC
 70
0
  9
$DIMALTRND
 40
0
  9
$DIMAZIN
 70
0
  9
$DIMDSEP
 70
46
  9
$DIMATFIT
 70
0
  9
$DIMFRAC
 70
0
  9
$DIMLDRBLK
  1

  9
$DIMLUNIT
 70
2
  9
$DIMLWD
 70
-2
  9
$DIMLWE
 70
-2
  9
$LUNITS
 70
2
  9
$LUPREC
 70
4
  9
$SKETCHINC
 40
0.1
  9
$FILLETRAD
 40
0
  9
$AUNITS
 70
0
  9
$AUPREC
 70
0
  9
$MENU
  1
.
  9
$ELEVATION
 40
0
  9
$PELEVATION
 40
0
  9
$THICKNESS
 40
0
  9
$LIMCHECK
 70
0
  9
$CHAMFERA
 40
0.5
  9
$CHAMFERB
 40
0.5
  9
$CHAMFERC
 40
0
  9
$CHAMFERD
 40
0
  9
$SKPOLY
 70
0
  9
$TDCREATE
 40
2460962.941385787
  9
$TDUCREATE
 40
2460962.8997191205
  9
$TDUPDATE
 40
2460962.941385787
  9
$TDUUPDATE
 40
2460962.8997191205
  9
$TDINDWG
 40
0
  9
$TDUSRTIMER
 40
1.1574074074074074E-08
  9
$USRTIMER
 70
1
  9
$ANGBASE
 50
0
  9
$ANGDIR
 70
1
  9
$PDMODE
 70
0
  9
$PDSIZE
 40
0
  9
$PLINEWID
 40
0
  9
$SPLFRAME
 70
0
  9
$SPLINETYPE
 70
6
  9
$SPLINESEGS
 70
8
  9
$HANDSEED
  5
96
  9
$SURFTAB1
 70
6
  9
$SURFTAB2
 70
6
  9
$SURFTYPE
 70
6
  9
$SURFU
 70
6
  9
$SURFV
 70
6
  9
$UCSORG
 10
0
 20
0
 30
0
  9
$UCSXDIR
 10
1
 20
0
 30
0
  9
$UCSYDIR
 10
0
 20
1
 30
0
  9
$UCSORTHOREF
  2

  9
$UCSORTHOVIEW
 70
0
  9
$UCSORGTOP
 10
0
 20
0
 30
0
  9
$UCSORGBOTTOM
 10
0
 20
0
 30
0
  9
$UCSORGLEFT
 10
0
 20
0
 30
0
  9
$UCSORGRIGHT
 10
0
 20
0
 30
0
  9
$UCSORGFRONT
 10
0
 20
0
 30
0
  9
$UCSORGBACK
 10
0
 20
0
 30
0
  9
$PUCSORG
 10
0
 20
0
 30
0
  9
$PUCSXDIR
 10
1
 20
0
 30
0
  9
$PUCSYDIR
 10
0
 20
1
 30
0
  9
$PUCSORTHOREF
  2

  9
$PUCSORTHOVIEW
 70
0
  9
$PUCSORGTOP
 10
0
 20
0
 30
0
  9
$PUCSORGBOTTOM
 10
0
 20
0
 30
0
  9
$PUCSORGLEFT
 10
0
 20
0
 30
0
  9
$PUCSORGRIGHT
 10
0
 20
0
 30
0
  9
$PUCSORGFRONT
 10
0
 20
0
 30
0
  9
$PUCSORGBACK
 10
0
 20
0
 30
0
  9
$USERI1
 70
0
  9
$USERI2
 70
0
  9
$USERI3
 70
0
  9
$USERI4
 70
0
  9
$USERI5
 70
0
  9
$USERR1
 40
0
  9
$USERR2
 40
0
  9
$USERR3
 40
0
  9
$USERR4
 40
0
  9
$USERR5
 40
0
  9
$WORLDVIEW
 70
1
  9
$SHADEDGE
 70
3
  9
$SHADEDIF
 70
70
  9
$TILEMODE
 70
1
  9
$MAXACTVP
 70
48
  9
$PINSBASE
 10
0
 20
0
 30
0
  9
$PLIMCHECK
 70
0
  9
$PEXTMIN
 10
1E+20
 20
1E+20
 30
1E+20
  9
$PEXTMAX
 10
-1E+20
 20
-1E+20
 30
-1E+20
  9
$PLIMMAX
 10
0
 20
0
  9
$PLIMMIN
 10
0
 20
0
  9
$UNITMODE
 70
0
  9
$VISRETAIN
 70
1
  9
$PLINEGEN
 70
1
  9
$PSLTSCALE
 70
1
  9
$TREEDEPTH
 70
3020
  9
$CMLSTYLE
  2
STANDARD
  9
$CMLJUST
 70
0
  9
$CMLSCALE
 40
1
  9
$PROXYGRAPHICS
 70
1
  9
$MEASUREMENT
 70
1
  9
$CELWEIGHT
370
-1
  9
$ENDCAPS
280
0
  9
$JOINSTYLE
280
0
  9
$LWDISPLAY
290
1
  9
$INSUNITS
 70
4
  9
$HYPERLINKBASE
  1

  9
$XEDIT
290
1
  9
$CEPSNTYPE
380
0
  9
$PSTYLEMODE
290
0
  9
$FINGERPRINTGUID
  2

  9
$VERSIONGUID
  2

  9
$EXTNAMES
290
1
  9
$PSVPSCALE
 40
0
  9
$CSHADOW
280
0
  9
$SHADOWPLANELOCATION
 40
0
  0
ENDSEC
  0
SECTION
  2
CLASSES
  0
CLASS
  1
RASTERVARIABLES
  2
AcDbRasterVariables
  3
ISM
 90
0
280
0
281
0
  0
CLASS
  1
IMAGEDEF
  2
AcDbRasterImageDef
  3
ISM
 90
0
280
0
281
0
  0
CLASS
  1
IMAGEDEF_REACTOR
  2
AcDbRasterImageDefReactor
  3
ISM
 90
1
280
0
281
0
  0
CLASS
  1
IMAGE
  2
AcDbRasterImage
  3
ISM
 90
127
280
0
281
1
  0
CLASS
  1
ACAD_EVALUATION_GRAPH
  2
AcDbEvalGraph
  3
ObjectDBX Classes
 90
1153
280
0
281
0
  0
CLASS
  1
BLOCKPOINTPARAMETER
  2
AcDbBlockPointParameter
  3
ObjectDBX Classes
 90
1153
280
0
281
0
  0
CLASS
  1
BLOCKBASEPOINTPARAMETER
  2
AcDbBlockBasepointParameter
  3
ObjectDBX Classes
 90
1153
280
0
281
0
  0
CLASS
  1
BLOCKLOOKUPPARAMETER
  2
AcDbBlockLookupParameter
  3
ObjectDBX Classes
 90
1153
280
0
281
0
  0
CLASS
  1
BLOCKVISIBILITYPARAMETER
  2
AcDbBlockVisibilityParameter
  3
ObjectDBX Classes
 90
1153
280
0
281
0
  0
CLASS
  1
BLOCKPROPERTIESTABLE
  2
AcDbBlockPropertiesTable
  3
ObjectDBX Classes
 90
1153
280
0
281
0
  0
CLASS
  1
BLOCKPOLARPARAMETER
  2
AcDbBlockPolarParameter
  3
ObjectDBX Classes
 90
1153
280
0
281
0
  0
CLASS
  1
BLOCKROTATIONPARAMETER
  2
AcDbBlockRotationParameter
  3
ObjectDBX Classes
 90
1153
280
0
281
0
  0
CLASS
  1
BLOCKLINEARPARAMETER
  2
AcDbBlockLinearParameter
  3
ObjectDBX Classes
 90
1153
280
0
281
0
  0
CLASS
  1
BLOCKXYPARAMETER
  2
AcDbBlockXYParameter
  3
ObjectDBX Classes
 90
1153
280
0
281
0
  0
CLASS
  1
BLOCKFLIPPARAMETER
  2
AcDbBlockFlipParameter
  3
ObjectDBX Classes
 90
1153
280
0
281
0
  0
CLASS
  1
BLOCKALIGNMENTPARAMETER
  2
AcDbBlockAlignmentParameter
  3
ObjectDBX Classes
 90
1153
280
0
281
0
  0
CLASS
  1
BLOCKROTATEACTION
  2
AcDbBlockRotateAction
  3
ObjectDBX Classes
 90
1153
280
0
281
0
  0
CLASS
  1
BLOCKSCALEACTION
  2
AcDbBlockScaleAction
  3
ObjectDBX Classes
 90
1153
280
0
281
0
  0
CLASS
  1
BLOCKARRAYACTION
  2
AcDbBlockArrayAction
  3
ObjectDBX Classes
 90
1153
280
0
281
0
  0
CLASS
  1
BLOCKFLIPACTION
  2
AcDbBlockFlipAction
  3
ObjectDBX Classes
 90
1153
280
0
281
0
  0
CLASS
  1
BLOCKLOOKUPACTION
  2
AcDbBlockLookupAction
  3
ObjectDBX Classes
 90
1153
280
0
281
0
  0
CLASS
  1
BLOCKMOVEACTION
  2
AcDbBlockMoveAction
  3
ObjectDBX Classes
 90
1153
280
0
281
0
  0
CLASS
  1
BLOCKPOLARSTRETCHACTION
  2
AcDbBlockPolarStretchAction
  3
ObjectDBX Classes
 90
1153
280
0
281
0
  0
CLASS
  1
BLOCKSTRETCHACTION
  2
AcDbBlockStretchAction
  3
ObjectDBX Classes
 90
1153
280
0
281
0
  0
CLASS
  1
BLOCKALIGNMENTGRIP
  2
AcDbBlockAlignmentGrip
  3
ObjectDBX Classes
 90
1153
280
0
281
0
  0
CLASS
  1
BLOCKFLIPGRIP
  2
AcDbBlockFlipGrip
  3
ObjectDBX Classes
 90
1153
280
0
281
0
  0
CLASS
  1
ACDB_BLOCKREPRESENTATION_DATA
  2
AcDbBlockRepresentationData
  3
ObjectDBX Classes
 90
1153
280
0
281
0
  0
CLASS
  1
ACDB_DYNAMICBLOCKPURGEPREVENTER_VERSION
  2
AcDbDynamicBlockPurgePreventer
  3
ObjectDBX Classes
 90
1153
280
0
281
0
  0
CLASS
  1
BLOCKLINEARGRIP
  2
AcDbBlockLinearGrip
  3
ObjectDBX Classes
 90
1153
280
0
281
0
  0
CLASS
  1
BLOCKLOOKUPGRIP
  2
AcDbBlockLookupGrip
  3
ObjectDBX Classes
 90
1153
280
0
281
0
  0
CLASS
  1
BLOCKPOLARGRIP
  2
AcDbBlockPolarGrip
  3
ObjectDBX Classes
 90
1153
280
0
281
0
  0
CLASS
  1
BLOCKPROPERTIESTABLEGRIP
  2
AcDbBlockPropertiesTableGrip
  3
ObjectDBX Classes
 90
1153
280
0
281
0
  0
CLASS
  1
BLOCKROTATIONGRIP
  2
AcDbBlockRotationGrip
  3
ObjectDBX Classes
 90
1153
280
0
281
0
  0
CLASS
  1
BLOCKVISIBILITYGRIP
  2
AcDbBlockVisibilityGrip
  3
ObjectDBX Classes
 90
1153
280
0
281
0
  0
CLASS
  1
BLOCKXYGRIP
  2
AcDbBlockXYGrip
  3
ObjectDBX Classes
 90
1153
280
0
281
0
  0
CLASS
  1
BLOCKGRIPLOCATIONCOMPONENT
  2
AcDbBlockGripExpr
  3
ObjectDBX Classes
 90
1153
280
0
281
0
  0
CLASS
  1
ACDB_DYNAMICBLOCKPROXYNODE
  2
AcDbDynamicBlockProxyNode
  3
ObjectDBX Classes
 90
1153
280
0
281
0
  0
CLASS
  1
BLOCKLINEARCONSTRAINTPARAMETER
  2
AcDbBlockLinearConstraintParameter
  3
ObjectDBX Classes
 90
1153
280
0
281
0
  0
CLASS
  1
BLOCKHORIZONTALCONSTRAINTPARAMETER
  2
AcDbBlockHorizontalConstraintParameter
  3
ObjectDBX Classes
 90
1153
280
0
281
0
  0
CLASS
  1
BLOCKVERTICALCONSTRAINTPARAMETER
  2
AcDbBlockVerticalConstraintParameter
  3
ObjectDBX Classes
 90
1153
280
0
281
0
  0
CLASS
  1
BLOCKALIGNEDCONSTRAINTPARAMETER
  2
AcDbBlockAlignedConstraintParameter
  3
ObjectDBX Classes
 90
1153
280
0
281
0
  0
CLASS
  1
BLOCKANGULARCONSTRAINTPARAMETER
  2
AcDbBlockAngularConstraintParameter
  3
ObjectDBX Classes
 90
1153
280
0
281
0
  0
CLASS
  1
BLOCKDIAMETRICCONSTRAINTPARAMETER
  2
AcDbBlockDiametricConstraintParameter
  3
ObjectDBX Classes
 90
1153
280
0
281
0
  0
CLASS
  1
BLOCKRADIALCONSTRAINTPARAMETER
  2
AcDbBlockRadialConstraintParameter
  3
ObjectDBX Classes
 90
1153
280
0
281
0
  0
ENDSEC
  0
SECTION
  2
TABLES
  0
TABLE
  2
VPORT
  5
8
330
0
100
AcDbSymbolTable
 70
1
  0
VPORT
  5
71
330
8
100
AcDbSymbolTableRecord
100
AcDbViewportTableRecord
  2
*Active
 70
64
 10
0
 20
0
 11
1
 21
1
 12
2243.0949922214604
 22
1157.7896610606472
 13
0
 23
0
 14
1
 24
1
 15
0
 25
0
 16
0
 26
0
 36
1
 17
0
 27
0
 37
0
 40
1682.4206782544868
 41
0.30421048864133271
 42
50
 43
0
 44
0
 50
0
 51
0
 71
0
 72
20000
 73
20000
 74
1
 75
0
 76
0
 77
0
 78
0
281
0
 65
1
110
0
120
0
130
0
111
1
121
0
131
0
112
0
122
1
132
0
 79
0
146
0
  0
ENDTAB
  0
TABLE
  2
LTYPE
  5
5
100
AcDbSymbolTable
 70
3
  0
LTYPE
  5
16
330
5
100
AcDbSymbolTableRecord
100
AcDbLinetypeTableRecord
  2
Continuous
  3
Solid line
 70
64
 72
65
 73
0
 40
0
  0
LTYPE
  5
14
330
5
100
AcDbSymbolTableRecord
100
AcDbLinetypeTableRecord
  2
ByBlock
  3

 70
64
 72
65
 73
0
 40
0
  0
LTYPE
  5
15
330
5
100
AcDbSymbolTableRecord
100
AcDbLinetypeTableRecord
  2
ByLayer
  3

 70
64
 72
65
 73
0
 40
0
  0
ENDTAB
  0
TABLE
  2
LAYER
  5
2
100
AcDbSymbolTable
 70
6
  0
LAYER
  5
10
330
2
100
AcDbSymbolTableRecord
100
AcDbLayerTableRecord
 70
64
  2
0
 62
7
  6
Continuous
370
-3
390
F
  0
LAYER
  5
27
330
2
100
AcDbSymbolTableRecord
100
AcDbLayerTableRecord
 70
64
  2
1
 62
7
  6
Continuous
370
-3
390
F
  0
LAYER
  5
28
330
2
100
AcDbSymbolTableRecord
100
AcDbLayerTableRecord
 70
64
  2
11
 62
7
  6
Continuous
370
-3
390
F
  0
LAYER
  5
29
330
2
100
AcDbSymbolTableRecord
100
AcDbLayerTableRecord
 70
64
  2
3
 62
7
  6
Continuous
370
-3
390
F
  0
LAYER
  5
2A
330
2
100
AcDbSymbolTableRecord
100
AcDbLayerTableRecord
 70
64
  2
2
 62
7
  6
Continuous
370
-3
390
F
  0
LAYER
  5
2B
330
2
100
AcDbSymbolTableRecord
100
AcDbLayerTableRecord
 70
64
  2
DEFPOINTS
 62
7
  6
Continuous
290
0
370
-3
390
F
  0
ENDTAB
  0
TABLE
  2
STYLE
  5
3
100
AcDbSymbolTable
 70
1
  0
STYLE
  5
11
330
3
100
AcDbSymbolTableRecord
100
AcDbTextStyleTableRecord
  2
Standard
 70
64
 40
0
 41
1
 50
0
 71
0
 42
0.2
  3
txt.shx
  0
ENDTAB
  0
TABLE
  2
VIEW
  5
6
100
AcDbSymbolTable
 70
0
  0
ENDTAB
  0
TABLE
  2
UCS
  5
7
100
AcDbSymbolTable
 70
0
  0
ENDTAB
  0
TABLE
  2
APPID
  5
9
330
0
100
AcDbSymbolTable
 70
2
  0
APPID
  5
12
330
0
100
AcDbSymbolTableRecord
100
AcDbRegAppTableRecord
  2
ACAD
 70
64
  0
APPID
  5
94
330
0
100
AcDbSymbolTableRecord
100
AcDbRegAppTableRecord
  2
ACAD_MLEADERVER
 70
64
  0
ENDTAB
  0
TABLE
  2
DIMSTYLE
  5
A
330
0
100
AcDbSymbolTable
 70
1
100
AcDbDimStyleTable
 71
0
  0
DIMSTYLE
105
70
330
A
100
AcDbSymbolTableRecord
100
AcDbDimStyleTableRecord
  2
Standard
 70
64
  3

  4

 40
1
 41
0.18
 42
0.0625
 43
0.38
 44
0.18
 45
0
 46
0
 47
0
 48
0
140
0.18
141
0.09
142
0
143
1
144
1
145
0
146
1
147
0.09
148
0
 71
0
 72
0
 73
1
 74
1
 75
0
 76
0
 77
0
 78
0
 79
0
170
0
171
2
172
0
173
0
174
0
175
0
179
0
271
4
272
4
273
2
274
0
275
0
276
0
277
2
278
46
279
0
280
0
281
0
282
0
283
1
284
0
285
0
286
0
288
0
289
0
340
11
371
-2
372
-2
  0
ENDTAB
  0
TABLE
  2
BLOCK_RECORD
  5
1
330
0
100
AcDbSymbolTable
 70
3
  0
BLOCK_RECORD
  5
1F
330
1
100
AcDbSymbolTableRecord
100
AcDbBlockTableRecord
  2
*Model_Space
340
22
  0
BLOCK_RECORD
  5
6D
330
1
100
AcDbSymbolTableRecord
100
AcDbBlockTableRecord
  2
*Paper_Space
340
1E
  0
ENDTAB
  0
ENDSEC
  0
SECTION
  2
BLOCKS
  0
BLOCK
  5
20
330
1F
100
AcDbEntity
  8
0
100
AcDbBlockBegin
  2
*Model_Space
 70
64
 10
0
 20
0
 30
0
  3
*Model_Space
  0
ENDBLK
  5
21
330
1F
100
AcDbEntity
  8
0
100
AcDbBlockEnd
  0
BLOCK
  5
6E
330
6D
100
AcDbEntity
  8
0
 67
1
100
AcDbBlockBegin
  2
*Paper_Space
 70
64
 10
0
 20
0
 30
0
  3
*Paper_Space
  0
ENDBLK
  5
6F
330
6D
100
AcDbEntity
  8
0
100
AcDbBlockEnd
  0
ENDSEC
  0
SECTION
  2
ENTITIES
  0
LWPOLYLINE
  5
2C
330
1F
100
AcDbEntity
  8
1
 62
7
100
AcDbPolyline
 90
70
 70
1
 10
2459.3759771000005
 20
1610.1420291000004
 10
2234.3319936405278
 20
1610.1420291000004
 10
2218.5839696537114
 20
1611.1580260329838
 10
2202.5819631229497
 20
1611.6660292678471
 10
2186.5799947391606
 20
1611.6660292678471
 10
2170.8319707523442
 20
1611.1580260329838
 10
2137.5579686771489
 20
1610.396030717432
 10
2128.4139867435551
 20
1608.3640273147221
 10
2120.7939763675786
 20
1605.0620253615971
 10
2116.2219854007817
 20
1602.0140250259037
 10
2111.6499944339848
 20
1598.2040293746586
 10
2101.74398857461
 20
1587.5360186629887
 10
2098.69596916543
 20
1583.4720309310551
 10
2095.9019704471684
 20
1578.9000208907719
 10
2091.0759587894536
 20
1567.9780276351566
 10
2088.2819600711919
 20
1559.5960314803715
 10
2081.1699910770512
 20
1531.9100268416996
 10
2077.359985889063
 20
1520.7340319686527
 10
2061.1039586673833
 20
1483.1420214706059
 10
2049.1548966667956
 20
1456.8300632429907
 10
2028.0839772831062
 20
1414.3080218368168
 10
2012.5899739872077
 20
1386.8760378890629
 10
2006.2399907718757
 20
1374.4300158553715
 10
2000.143990100489
 20
1360.9680254989262
 10
1996.3339849125007
 20
1348.2680209212895
 10
1993.7939687381843
 20
1335.8220370345707
 10
1992.2699781070808
 20
1321.8520434432621
 10
1991.7619748722175
 20
1308.8980181747074
 10
1991.5079732547858
 20
1273.0840380721684
 10
1990.6733331612311
 20
1239.8324859704196
 10
1990.7459684024909
 20
1162.8480227523441
 10
1987.1899839054206
 20
1120.4300387435551
 10
1987.1899839054206
 20
1109.7620471053715
 10
1990.7459684024909
 20
1086.902015977442
 10
1992.0159764896491
 20
1083.0920489364264
 10
1993.7939687381843
 20
1080.0440295272467
 10
1997.0959706913093
 20
1076.9960101180668
 10
2001.1599584232429
 20
1074.2020495467777
 10
2005.9859700809577
 20
1072.1700366073246
 10
2011.3199849735358
 20
1070.6460650497074
 10
2400.1940007816411
 20
1070.6460650497074
 10
2406.7980046878911
 20
1072.42401915127
 10
2412.63998466836
 20
1074.9639971786137
 10
2417.7199407230473
 20
1078.0120165877934
 10
2424.3239446292973
 20
1084.8700030379887
 10
2428.1339879642583
 20
1092.7439959579106
 10
2429.9119420658208
 20
1102.6500018172856
 10
2430.1660009037114
 20
1107.9840167098637
 10
2428.8960118900395
 20
1119.4140322738285
 10
2432.1980138431645
 20
1288.5780413680668
 10
2430.673965991602
 20
1307.120025926172
 10
2430.4199834476567
 20
1325.4080279403324
 10
2430.9279485355473
 20
1343.6960299544924
 10
2432.1980138431645
 20
1361.9840319686527
 10
2436.00798088418
 20
1387.8920443587895
 10
2441.3419957767583
 20
1412.5300295882816
 10
2447.9459996830083
 20
1433.1040270858402
 10
2467.59831694244
 20
1483.0849493080186
 10
2481.9819493900395
 20
1518.1940348678227
 10
2489.6019597660161
 20
1540.5460246139164
 10
2497.7300115238286
 20
1564.6760256820316
 10
2499.0000005375005
 20
1571.5340312057131
 10
2498.4919591556645
 20
1577.6300318771
 10
2496.4599462162114
 20
1585.5040247970219
 10
2493.1579442630864
 20
1592.616022401392
 10
2489.0939946781255
 20
1598.7120230727787
 10
2484.267944873438
 20
1603.2840235763188
 10
2479.1879888187505
 20
1606.3320239120121
 10
2473.3460088382817
 20
1608.3640273147221
 10
2466.4879460941411
 20
1609.6340258651371
  0
CIRCLE
  5
2D
330
1F
100
AcDbEntity
  8
11
 62
7
100
AcDbCircle
 10
2043.600906909571
 20
1120.1283343368168
 30
0
 40
10.49999952316284
  0
CIRCLE
  5
2E
330
1F
100
AcDbEntity
  8
11
 62
7
100
AcDbCircle
 10
2389.3053289066411
 20
1118.1746752791996
 30
0
 40
10.49999952316284
  0
POINT
  5
2F
330
1F
100
AcDbEntity
  8
3
 62
7
100
AcDbPoint
 10
2218.5839696537114
 20
1611.1580260329838
 30
0
 50
0
  0
POINT
  5
30
330
1F
100
AcDbEntity
  8
3
 62
7
100
AcDbPoint
 10
2202.5819631229497
 20
1611.6660292678471
 30
0
 50
0
  0
POINT
  5
31
330
1F
100
AcDbEntity
  8
3
 62
7
100
AcDbPoint
 10
2186.5799947391606
 20
1611.6660292678471
 30
0
 50
0
  0
POINT
  5
32
330
1F
100
AcDbEntity
  8
3
 62
7
100
AcDbPoint
 10
2170.8319707523442
 20
1611.1580260329838
 30
0
 50
0
  0
POINT
  5
33
330
1F
100
AcDbEntity
  8
3
 62
7
100
AcDbPoint
 10
2146.7019887577153
 20
1610.9040244155522
 30
0
 50
0
  0
POINT
  5
34
330
1F
100
AcDbEntity
  8
3
 62
7
100
AcDbPoint
 10
2061.1039586673833
 20
1483.1420214706059
 30
0
 50
0
  0
POINT
  5
35
330
1F
100
AcDbEntity
  8
3
 62
7
100
AcDbPoint
 10
2051.1849659716754
 20
1461.1978197010992
 30
0
 50
0
  0
POINT
  5
36
330
1F
100
AcDbEntity
  8
3
 62
7
100
AcDbPoint
 10
2034.4339604984382
 20
1426.5000231795902
 30
0
 50
0
  0
POINT
  5
37
330
1F
100
AcDbEntity
  8
3
 62
7
100
AcDbPoint
 10
2028.0839772831062
 20
1414.3080218368168
 30
0
 50
0
  0
POINT
  5
38
330
1F
100
AcDbEntity
  8
3
 62
7
100
AcDbPoint
 10
2012.5899739872077
 20
1386.8760378890629
 30
0
 50
0
  0
POINT
  5
39
330
1F
100
AcDbEntity
  8
3
 62
7
100
AcDbPoint
 10
2006.2399907718757
 20
1374.4300158553715
 30
0
 50
0
  0
POINT
  5
3A
330
1F
100
AcDbEntity
  8
3
 62
7
100
AcDbPoint
 10
1991.7619748722175
 20
1308.8980181747074
 30
0
 50
0
  0
POINT
  5
3B
330
1F
100
AcDbEntity
  8
3
 62
7
100
AcDbPoint
 10
1991.5079732547858
 20
1273.0840380721684
 30
0
 50
0
  0
POINT
  5
3C
330
1F
100
AcDbEntity
  8
3
 62
7
100
AcDbPoint
 10
1990.7459684024909
 20
1244.6360095077152
 30
0
 50
0
  0
POINT
  5
3D
330
1F
100
AcDbEntity
  8
3
 62
7
100
AcDbPoint
 10
1990.6733331612311
 20
1239.8324859704196
 30
0
 50
0
  0
POINT
  5
3E
330
1F
100
AcDbEntity
  8
3
 62
7
100
AcDbPoint
 10
1990.9999700199226
 20
1186.9780428939457
 30
0
 50
0
  0
POINT
  5
3F
330
1F
100
AcDbEntity
  8
3
 62
7
100
AcDbPoint
 10
1988.4599729190925
 20
1100.3640063338871
 30
0
 50
0
  0
POINT
  5
40
330
1F
100
AcDbEntity
  8
3
 62
7
100
AcDbPoint
 10
2430.4199834476567
 20
1325.4080279403324
 30
0
 50
0
  0
POINT
  5
41
330
1F
100
AcDbEntity
  8
3
 62
7
100
AcDbPoint
 10
2430.9279485355473
 20
1343.6960299544924
 30
0
 50
0
  0
POINT
  5
42
330
1F
100
AcDbEntity
  8
3
 62
7
100
AcDbPoint
 10
2462.1700139652348
 20
1469.934032731592
 30
0
 50
0
  0
POINT
  5
43
330
1F
100
AcDbEntity
  8
3
 62
7
100
AcDbPoint
 10
2481.9819493900395
 20
1518.1940348678227
 30
0
 50
0
  0
POINT
  5
44
330
1F
100
AcDbEntity
  8
3
 62
7
100
AcDbPoint
 10
2486.2999578128911
 20
1530.1320345931645
 30
0
 50
0
  0
POINT
  5
45
330
1F
100
AcDbEntity
  8
3
 62
7
100
AcDbPoint
 10
2489.6019597660161
 20
1540.5460246139164
 30
0
 50
0
  0
POINT
  5
46
330
1F
100
AcDbEntity
  8
2
 62
7
100
AcDbPoint
 10
2459.3759771000005
 20
1610.1420291000004
 30
0
 50
0
  0
LWPOLYLINE
  5
47
330
1F
100
AcDbEntity
  8
1
 62
7
100
AcDbPolyline
 90
91
 70
1
 10
2018.1780281000001
 20
1839.7420351000003
 10
2017.4160041742189
 20
1833.3920137376956
 10
2017.6699867181642
 20
1827.0420686693362
 10
2018.4320106439454
 20
1821.2000123949222
 10
2019.9559822015626
 20
1815.6120149583987
 10
2023.5119666986329
 20
1807.4840394945315
 10
2028.3380165033204
 20
1800.3720705003909
 10
2033.9260139398439
 20
1795.0380556078128
 10
2040.0219764642579
 20
1791.2280122728519
 10
2043.0699958734376
 20
1790.2120058031253
 10
2046.6259803705079
 20
1789.7040407152347
 10
2083.9640083246095
 20
1787.9260103197269
 10
2089.8059883050782
 20
1786.656021306055
 10
2094.6319618158204
 20
1784.6240083666019
 10
2100.2200355462892
 20
1780.5600587816409
 10
2105.2999916009767
 20
1774.7180025072269
 10
2110.1259651117189
 20
1767.6060335130862
 10
2116.2220039300782
 20
1754.3980257005862
 10
2117.49199294375
 20
1749.8260347337894
 10
2118.5079994134767
 20
1739.9200288744144
 10
2118.2540168695314
 20
1731.5380708666019
 10
2115.9680213861329
 20
1708.6780397386722
 10
2115.9680213861329
 20
1700.550064274805
 10
2113.93600844668
 20
1664.4820253343753
 10
2114.9520149164064
 20
1655.3380434007815
 10
2116.9840278558595
 20
1647.2100679369144
 10
2120.54001235293
 20
1637.81202716543
 10
2123.5880317621095
 20
1631.9700471849612
 10
2127.14401625918
 20
1627.1439973802737
 10
2130.9539833001954
 20
1623.5880128832034
 10
2135.7800331048829
 20
1620.7940523119144
 10
2141.3680305414064
 20
1618.7620393724612
 10
2147.7179756097657
 20
1617.7460329027347
 10
2154.5760002069337
 20
1617.4920503587894
 10
2317.6440086297853
 20
1613.1740419359378
 10
2327.042011254297
 20
1611.6500703783206
 10
2336.1859931878907
 20
1611.1420289964847
 10
2345.3300132684572
 20
1611.1420289964847
 10
2354.2200126581056
 20
1612.1580354662112
 10
2366.9200172357423
 20
1614.4440309496097
 10
2375.0479926996095
 20
1616.7300264330081
 10
2381.9060172967775
 20
1620.0320283861331
 10
2387.2399940423829
 20
1624.0960542650394
 10
2390.5419959955079
 20
1628.1600038500003
 10
2393.3359947137697
 20
1633.4940187425784
 10
2395.8760108880861
 20
1639.5900575609378
 10
2398.9239921502931
 20
1649.4960634203128
 10
2400.7019843988282
 20
1657.8780214281253
 10
2401.7179908685548
 20
1667.2760621996097
 10
2401.2099876336915
 20
1709.948028752344
 10
2398.6700096063473
 20
1738.6500398607425
 10
2399.4319953851559
 20
1747.7940217943362
 10
2401.9720115594723
 20
1755.4140321703128
 10
2405.5279960565431
 20
1763.2880250902347
 10
2409.0839805536134
 20
1769.1300050707034
 10
2412.6400031976559
 20
1773.7019960375003
 10
2416.7039909295895
 20
1777.2580568285159
 10
2420.5139961175782
 20
1779.290069767969
 10
2425.0859870843751
 20
1780.8140413255862
 10
2440.07198714541
 20
1782.3380128832034
 10
2444.8979988031251
 20
1783.35401935293
 10
2463.1860008172848
 20
1786.656021306055
 10
2469.5359840326173
 20
1788.4340517015628
 10
2476.1400070123536
 20
1790.9740297289065
 10
2480.9659995965822
 20
1794.7839967699222
 10
2484.0139999322755
 20
1797.8320161791019
 10
2486.5539970331056
 20
1801.6420595140628
 10
2494.427989953027
 20
1817.6440278978519
 10
2495.9519996576173
 20
1822.7240602464847
 10
2497.729991906152
 20
1834.4080202074222
 10
2497.9839935235841
 20
1844.8220674486331
 10
2497.2220077447751
 20
1877.5880281419925
 10
2498.4919967584465
 20
1916.4500276537117
 10
2498.2379951410153
 20
1947.4380342455086
 10
2498.9999999933098
 20
1970.0440065355476
 10
2498.2379951410153
 20
1975.8860628099617
 10
2496.2060012750485
 20
1980.7120363207036
 10
2490.364002221093
 20
1988.0780641527347
 10
2486.8079986505368
 20
1991.1260072679686
 10
2479.1880073480465
 20
1995.6979982347657
 10
2470.2980079583976
 20
1998.4920351000005
 10
2465.4719963006828
 20
1999.0000001878907
 10
2044.8480262689454
 20
1999.0000001878907
 10
2037.2280158929689
 20
1997.9840700121097
 10
2030.6240119867189
 20
1995.9520570726565
 10
2025.5439796380861
 20
1992.9040376634766
 10
2021.7340125970704
 20
1989.0940706224617
 10
2019.448017113672
 20
1985.0300447435545
 10
2018.1780281000001
 20
1980.2040712328126
 10
2017.9239692621095
 20
1974.3620149583985
 10
2018.4320106439454
 20
1968.2660524339847
  0
CIRCLE
  5
48
330
1F
100
AcDbEntity
  8
11
 62
7
100
AcDbCircle
 10
2059.6627845697262
 20
1928.3448640794927
 30
0
 40
10.49999952316284
  0
CIRCLE
  5
49
330
1F
100
AcDbEntity
  8
11
 62
7
100
AcDbCircle
 10
2458.5364952020504
 20
1928.3093111009766
 30
0
 40
10.49999952316284
  0
POINT
  5
4A
330
1F
100
AcDbEntity
  8
3
 62
7
100
AcDbPoint
 10
2060.8499946527345
 20
1788.9420167894534
 30
0
 50
0
  0
POINT
  5
4B
330
1F
100
AcDbEntity
  8
3
 62
7
100
AcDbPoint
 10
2401.4640083246095
 20
1701.5660707445315
 30
0
 50
0
  0
POINT
  5
4C
330
1F
100
AcDbEntity
  8
3
 62
7
100
AcDbPoint
 10
2444.8979988031251
 20
1783.35401935293
 30
0
 50
0
  0
POINT
  5
4D
330
1F
100
AcDbEntity
  8
3
 62
7
100
AcDbPoint
 10
2497.2220077447751
 20
1867.6820222826175
 30
0
 50
0
  0
POINT
  5
4E
330
1F
100
AcDbEntity
  8
3
 62
7
100
AcDbPoint
 10
2497.2220077447751
 20
1877.5880281419925
 30
0
 50
0
  0
POINT
  5
4F
330
1F
100
AcDbEntity
  8
3
 62
7
100
AcDbPoint
 10
2498.4919967584465
 20
1916.4500276537117
 30
0
 50
0
  0
POINT
  5
50
330
1F
100
AcDbEntity
  8
3
 62
7
100
AcDbPoint
 10
2498.2379951410153
 20
1947.4380342455086
 30
0
 50
0
  0
POINT
  5
51
330
1F
100
AcDbEntity
  8
2
 62
7
100
AcDbPoint
 10
2018.1780281000001
 20
1839.7420351000003
 30
0
 50
0
  0
LWPOLYLINE
  5
52
330
1F
100
AcDbEntity
  8
1
 62
7
100
AcDbPolyline
 90
87
 70
1
 10
2018.1780091000005
 20
347.56732852520071
 10
2017.6700440121099
 20
341.21730716289579
 10
2018.1780091000005
 20
335.62930972637281
 10
2019.4479981136724
 20
330.54935367168576
 10
2021.4800110531255
 20
326.48532779277883
 10
2025.2899780941411
 20
322.67536075176366
 10
2030.6239929867193
 20
319.62734134258375
 10
2037.2279968929693
 20
317.59532840313085
 10
2044.5940247250005
 20
316.57932193340383
 10
2465.4720154476563
 20
316.57932193340389
 10
2474.61599738125
 20
318.35735232891165
 10
2478.9340058041021
 20
319.88132388652883
 10
2486.807998724023
 20
324.45331485332571
 10
2490.3639832210938
 20
327.50133426250585
 10
2493.412002630273
 20
331.05731875957571
 10
2495.9519806576172
 20
334.86736209453665
 10
2497.9839935970704
 20
339.69333560527883
 10
2499.0000000667969
 20
345.53531558574781
 10
2498.11211909334
 20
372.78642200682265
 10
2498.4920349789063
 20
399.12929446758375
 10
2496.9679871273438
 20
447.8972998386775
 10
2497.7300110531251
 20
470.75733096660719
 10
2497.4760285091797
 20
481.17130191387281
 10
2495.6979981136719
 20
492.85533816875562
 10
2492.3959961605469
 20
502.76134402813062
 10
2486.5540161800782
 20
513.93733890117744
 10
2480.9660187435547
 20
521.04930789531807
 10
2475.8859863949219
 20
524.60529239238838
 10
2469.536041326563
 20
527.39932925762275
 10
2462.932037420313
 20
528.92330081523994
 10
2440.0720062923829
 20
533.2413092380915
 10
2424.8319855404297
 20
535.01933963359932
 10
2420.2599945736329
 20
536.28932864727119
 10
2416.704010076563
 20
538.32134158672432
 10
2412.6399841976563
 20
541.87732608379463
 10
2408.8300171566411
 20
546.4493170505915
 10
2405.2740326595704
 20
552.29129703106025
 10
2401.7180481625
 20
560.16528995098213
 10
2399.4320526791021
 20
568.03935916484932
 10
2398.4160462093751
 20
576.92935855449775
 10
2398.6700287533204
 20
584.04132754863838
 10
2400.9560242367193
 20
605.63129336895088
 10
2401.2100067806641
 20
614.01332767070869
 10
2401.463989324609
 20
648.30333621563057
 10
2400.702041692773
 20
657.70130069316963
 10
2398.6700287533204
 20
666.08333499492744
 10
2393.3360138607422
 20
682.33936221660713
 10
2390.5419769955083
 20
687.41931827129463
 10
2387.2400513363282
 20
691.48334415020088
 10
2381.90603644375
 20
695.80135257305244
 10
2375.0480499935552
 20
698.84929568828682
 10
2366.6660156917974
 20
701.13529117168525
 10
2353.9660492611333
 20
703.421362949029
 10
2345.076049871484
 20
704.43729312481025
 10
2336.186050481836
 20
704.43729312481025
 10
2326.7880097103521
 20
703.92932803691963
 10
2317.6440277767583
 20
702.40535647930233
 10
2147.718032903711
 20
698.08734805645076
 10
2141.3680115414063
 20
696.81735904277889
 10
2135.5260315609376
 20
695.03932864727108
 10
2130.69998175625
 20
692.2452917820367
 10
2126.8900147152344
 20
688.68930728496639
 10
2123.5880127621094
 20
683.8633337742242
 10
2120.5399933529297
 20
677.76729495586483
 10
2116.9840088558594
 20
668.36933047832576
 10
2114.698013372461
 20
660.49533755840389
 10
2113.9359894466797
 20
651.09729678691951
 10
2115.9680023861329
 20
606.901358676568
 10
2118.2539978695313
 20
575.65929324688045
 10
2117.2379913998047
 20
565.75336368145076
 10
2114.4440308285157
 20
557.11734683574764
 10
2109.8720398617188
 20
547.97336490215389
 10
2105.0459900570313
 20
540.861319614068
 10
2099.9660340023438
 20
535.27332217754451
 10
2094.3780365658204
 20
530.955313754693
 10
2089.5519867611329
 20
528.92330081523983
 10
2083.7100067806641
 20
527.653311801568
 10
2043.069976873438
 20
525.36731631816951
 10
2040.0220337582036
 20
524.351309848443
 10
2033.9259949398443
 20
520.79532535137264
 10
2028.3379975033208
 20
515.2073279148492
 10
2023.5120239925786
 20
508.09535892070875
 10
2019.7019806576177
 20
499.96730716289625
 10
2018.1780091000005
 20
494.37930972637281
 10
2017.4159851742193
 20
488.53732974590406
 10
2017.4159851742193
 20
482.18730838359937
 10
2017.9240265560552
 20
475.83736331524
  0
CIRCLE
  5
53
330
1F
100
AcDbEntity
  8
11
 62
7
100
AcDbCircle
 10
2457.9362335873047
 20
387.39910037578676
 30
0
 40
10.49999952316284
  0
CIRCLE
  5
54
330
1F
100
AcDbEntity
  8
11
 62
7
100
AcDbCircle
 10
2059.3675842953126
 20
387.61226565898977
 30
0
 40
10.49999952316284
  0
POINT
  5
55
330
1F
100
AcDbEntity
  8
3
 62
7
100
AcDbPoint
 10
2498.4920349789063
 20
399.12929446758375
 30
0
 50
0
  0
POINT
  5
56
330
1F
100
AcDbEntity
  8
3
 62
7
100
AcDbPoint
 10
2497.222045965234
 20
437.9912939793025
 30
0
 50
0
  0
POINT
  5
57
330
1F
100
AcDbEntity
  8
3
 62
7
100
AcDbPoint
 10
2462.932037420313
 20
528.92330081523994
 30
0
 50
0
  0
POINT
  5
58
330
1F
100
AcDbEntity
  8
3
 62
7
100
AcDbPoint
 10
2444.8979798031251
 20
532.22530276836494
 30
0
 50
0
  0
POINT
  5
59
330
1F
100
AcDbEntity
  8
3
 62
7
100
AcDbPoint
 10
2401.2100067806641
 20
614.01332767070869
 30
0
 50
0
  0
POINT
  5
5A
330
1F
100
AcDbEntity
  8
3
 62
7
100
AcDbPoint
 10
2115.7140198421876
 20
615.02933414043514
 30
0
 50
0
  0
POINT
  5
5B
330
1F
100
AcDbEntity
  8
3
 62
7
100
AcDbPoint
 10
2060.8500519466797
 20
526.63730533184139
 30
0
 50
0
  0
POINT
  5
5C
330
1F
100
AcDbEntity
  8
2
 62
7
100
AcDbPoint
 10
2018.1780091000005
 20
347.56732852520071
 30
0
 50
0
  0
LWPOLYLINE
  5
5D
330
1F
100
AcDbEntity
  8
1
 62
7
100
AcDbPolyline
 90
63
 70
1
 10
2499.0000001000003
 20
888.29005510000047
 10
2497.7299347923827
 20
906.32407457021532
 10
2495.9519806908206
 20
924.3580558934575
 10
2493.6659852074213
 20
942.13805467275438
 10
2490.8719483421874
 20
959.91805345205137
 10
2485.4727483164543
 20
986.52868286343244
 10
2476.1399689720706
 20
1024.6880653539067
 10
2474.1079560326175
 20
1038.40407640127
 10
2472.3300019310545
 20
1044.754059616602
 10
2469.2819825218753
 20
1051.358063522852
 10
2465.9799805687503
 20
1056.6920784154304
 10
2462.1699372337894
 20
1061.0100677647954
 10
2458.3599701927733
 20
1064.3120697179204
 10
2454.0419617699213
 20
1066.5980652013188
 10
2449.4699708031253
 20
1068.1220749059087
 10
2444.3899384544925
 20
1069.1380813756352
 10
2439.0559998558597
 20
1069.6460655370122
 10
2141.3679352806639
 20
1069.6460655370124
 10
2133.493942360742
 20
1068.8840797582038
 10
2126.1279908226561
 20
1066.8520668187507
 10
2117.491973976953
 20
1062.7880790868171
 10
2114.189972023828
 20
1060.5020645299323
 10
2111.6499939964842
 20
1057.962067429102
 10
2109.3639985130858
 20
1054.9140670934089
 10
2107.3319855736327
 20
1051.1040809789069
 10
2101.9979706810545
 20
1030.5300834813481
 10
2099.9659577416014
 20
1013.7660530248052
 10
2098.6959687279295
 20
1009.1940620580082
 10
2096.9179383324217
 20
1005.1300743260746
 10
2092.3459473656249
 20
999.03407365468786
 10
2071.7719880150389
 20
977.4440696874027
 10
2067.961944680078
 20
971.85607225087927
 10
2065.4219666527342
 20
966.52205735830125
 10
2063.6439362572264
 20
960.9340599217777
 10
2062.3739472435545
 20
954.838059250391
 10
2061.8659821556639
 20
948.74205857900427
 10
2061.8659821556639
 20
727.00007707265661
 10
2062.3739472435545
 20
721.66606218007848
 10
2063.6439362572264
 20
716.586106125391
 10
2065.4219666527342
 20
712.26809770253942
 10
2067.961944680078
 20
708.96609574941442
 10
2070.7559815453124
 20
706.17205888418
 10
2074.3119660423827
 20
704.14004594472692
 10
2078.8839570091795
 20
702.36209184316442
 10
2084.471954445703
 20
700.83804399160192
 10
2088.5359803246092
 20
700.3300789037113
 10
2093.1079712914061
 20
700.3300789037113
 10
2111.1419526146483
 20
703.6320808568363
 10
2136.5419617699217
 20
705.91807634023473
 10
2174.3469450732618
 20
704.7983966257076
 10
2294.30372415225
 20
705.61369106584766
 10
2426.1019745873041
 20
705.1560524144536
 10
2436.7700043724603
 20
702.87005693105516
 10
2447.4379578636713
 20
701.60006791738329
 10
2458.1059876488284
 20
701.60006791738329
 10
2468.5199585960931
 20
702.61607438710985
 10
2481.7279664085931
 20
704.90206987050829
 10
2485.7919922875003
 20
706.42604142812547
 10
2489.0939942406253
 20
708.4580543675786
 10
2492.1419373558592
 20
711.50607377675829
 10
2494.9359742210931
 20
715.31604081777391
 10
2497.221969704492
 20
719.63404924062547
 10
2499.0000001000003
 20
724.460099045313
  0
CIRCLE
  5
5E
330
1F
100
AcDbEntity
  8
11
 62
7
100
AcDbCircle
 10
2444.4489136742181
 20
756.18529588369188
 30
0
 40
10.49999952316284
  0
CIRCLE
  5
5F
330
1F
100
AcDbEntity
  8
11
 62
7
100
AcDbCircle
 10
2100.6728211449217
 20
750.55342942861364
 30
0
 40
10.49999952316284
  0
POINT
  5
60
330
1F
100
AcDbEntity
  8
3
 62
7
100
AcDbPoint
 10
2497.7299347923827
 20
906.32407457021532
 30
0
 50
0
  0
POINT
  5
61
330
1F
100
AcDbEntity
  8
3
 62
7
100
AcDbPoint
 10
2493.6659852074213
 20
942.13805467275438
 30
0
 50
0
  0
POINT
  5
62
330
1F
100
AcDbEntity
  8
3
 62
7
100
AcDbPoint
 10
2490.8719483421874
 20
959.91805345205137
 30
0
 50
0
  0
POINT
  5
63
330
1F
100
AcDbEntity
  8
3
 62
7
100
AcDbPoint
 10
2487.5699463890624
 20
976.93606645253942
 30
0
 50
0
  0
POINT
  5
64
330
1F
100
AcDbEntity
  8
3
 62
7
100
AcDbPoint
 10
2485.4727483164543
 20
986.52868286343244
 30
0
 50
0
  0
POINT
  5
65
330
1F
100
AcDbEntity
  8
3
 62
7
100
AcDbPoint
 10
2103.5219422386717
 20
1036.8800666966804
 30
0
 50
0
  0
POINT
  5
66
330
1F
100
AcDbEntity
  8
3
 62
7
100
AcDbPoint
 10
2080.6619874046874
 20
987.09605485585973
 30
0
 50
0
  0
POINT
  5
67
330
1F
100
AcDbEntity
  8
3
 62
7
100
AcDbPoint
 10
2127.6519623802733
 20
705.4100349583988
 30
0
 50
0
  0
POINT
  5
68
330
1F
100
AcDbEntity
  8
3
 62
7
100
AcDbPoint
 10
2155.5919495628905
 20
705.15605241445348
 30
0
 50
0
  0
POINT
  5
69
330
1F
100
AcDbEntity
  8
3
 62
7
100
AcDbPoint
 10
2174.3469450732618
 20
704.7983966257076
 30
0
 50
0
  0
POINT
  5
6A
330
1F
100
AcDbEntity
  8
3
 62
7
100
AcDbPoint
 10
2225.949997048242
 20
705.15605241445348
 30
0
 50
0
  0
POINT
  5
6B
330
1F
100
AcDbEntity
  8
3
 62
7
100
AcDbPoint
 10
2289.4217593023404
 20
705.60322220780927
 30
0
 50
0
  0
POINT
  5
6C
330
1F
100
AcDbEntity
  8
2
 62
7
100
AcDbPoint
 10
2499.0000001000003
 20
888.29005510000047
 30
0
 50
0
  0
ENDSEC
  0
SECTION
  2
OBJECTS
  0
DICTIONARY
  5
C
330
0
100
AcDbDictionary
280
0
281
1
  3
ACAD_SCALELIST
350
72
  3
ACAD_COLOR
350
84
  3
ACAD_FIELDLIST
350
85
  3
ACAD_GROUP
350
D
  3
ACAD_IMAGE_DICT
350
86
  3
ACAD_LAYOUT
350
1A
  3
ACAD_MATERIAL
350
87
  3
ACAD_MLEADERSTYLE
350
88
  3
ACAD_MLINESTYLE
350
17
  3
ACAD_PLOTSETTINGS
350
19
  3
ACAD_PLOTSTYLENAME
350
E
  3
ACAD_TABLESTYLE
350
8A
  3
ACDB_RECOMPOSE_DATA
350
8E
  3
AcDbVariableDictionary
350
8F
  3
ACAD_VISUALSTYLE
350
92
  3
DWGPROPS
350
93
  0
DICTIONARY
  5
8C
330
8B
100
AcDbDictionary
280
0
281
1
  3
ACAD_ROUNDTRIP_2008_TABLESTYLE_CELLSTYLEMAP
360
8D
  0
DICTIONARY
  5
72
102
{ACAD_REACTORS
330
C
102
}
330
C
100
AcDbDictionary
280
0
281
1
  0
DICTIONARY
  5
84
102
{ACAD_REACTORS
330
C
102
}
330
C
100
AcDbDictionary
280
0
281
1
  0
FIELDLIST
  5
85
102
{ACAD_REACTORS
330
C
102
}
330
C
100
AcDbIdSet
100
AcDbFieldList
  0
DICTIONARY
  5
D
102
{ACAD_REACTORS
330
C
102
}
330
C
100
AcDbDictionary
280
0
281
1
  0
DICTIONARY
  5
86
102
{ACAD_REACTORS
330
C
102
}
330
C
100
AcDbDictionary
280
0
281
1
  0
DICTIONARY
  5
1A
102
{ACAD_REACTORS
330
C
102
}
330
C
100
AcDbDictionary
280
0
281
1
  3
Layout1
350
1E
  3
Model
350
22
  0
DICTIONARY
  5
87
102
{ACAD_REACTORS
330
C
102
}
330
C
100
AcDbDictionary
280
0
281
1
  0
DICTIONARY
  5
88
102
{ACAD_REACTORS
330
C
102
}
330
C
100
AcDbDictionary
280
0
281
1
  3
Standard
350
89
  0
DICTIONARY
  5
17
102
{ACAD_REACTORS
330
C
102
}
330
C
100
AcDbDictionary
280
0
281
1
  3
STANDARD
350
18
  0
DICTIONARY
  5
19
102
{ACAD_REACTORS
330
C
102
}
330
C
100
AcDbDictionary
280
0
281
1
  0
ACDBDICTIONARYWDFLT
  5
E
102
{ACAD_REACTORS
330
C
102
}
330
C
100
AcDbDictionary
280
0
281
1
  3
Normal
350
F
100
AcDbDictionaryWithDefault
340
F
  0
ACDBPLACEHOLDER
  5
F
102
{ACAD_REACTORS
330
E
102
}
330
E
  0
DICTIONARY
  5
8A
102
{ACAD_REACTORS
330
C
102
}
330
C
100
AcDbDictionary
280
0
281
1
  3
Standard
350
8B
  0
XRECORD
  5
8E
102
{ACAD_REACTORS
330
C
102
}
330
C
100
AcDbXrecord
280
1
 90
1
330
8B
  0
DICTIONARY
  5
8F
102
{ACAD_REACTORS
330
C
102
}
330
C
100
AcDbDictionary
280
0
281
1
  3
DIMASSOC
350
90
  3
HIDETEXT
350
91
  0
DICTIONARY
  5
92
102
{ACAD_REACTORS
330
C
102
}
330
C
100
AcDbDictionary
280
0
281
1
  0
XRECORD
  5
93
102
{ACAD_REACTORS
330
C
102
}
330
C
100
AcDbXrecord
280
0
  1
DWGPROPS COOKIE
  2

  3

  4

  6

  7

  8

  9

300
=
301
=
302
=
303
=
304
=
305
=
306
=
307
=
308
=
309
=
 40
0
 41
2460962.9413857753
 42
2460962.9413857753
  1

 90
0
  0
CELLSTYLEMAP
  5
8D
102
{ACAD_REACTORS
330
8C
102
}
330
8C
100
AcDbCellStyleMap
 90
3
300
CELLSTYLE
  1
TABLEFORMAT_BEGIN
 90
5
170
0
309
TABLEFORMAT_END
  1
CELLSTYLE_BEGIN
 90
3
 91
2
300
_DATA
309
CELLSTYLE_END
300
CELLSTYLE
  1
TABLEFORMAT_BEGIN
 90
5
170
0
309
TABLEFORMAT_END
  1
CELLSTYLE_BEGIN
 90
1
 91
2
300
_TITLE
309
CELLSTYLE_END
300
CELLSTYLE
  1
TABLEFORMAT_BEGIN
 90
5
170
0
309
TABLEFORMAT_END
  1
CELLSTYLE_BEGIN
 90
2
 91
2
300
_HEADER
309
CELLSTYLE_END
  0
LAYOUT
  5
1E
102
{ACAD_REACTORS
330
1A
102
}
330
1A
100
AcDbPlotSettings
  1

  2
C:\Program Files\AutoCAD 2002\plotters\DWF ePlot (optimized for plotting).pc3
  4

  6

 40
0
 41
0
 42
0
 43
0
 44
0
 45
0
 46
0
 47
0
 48
0
 49
0
140
0
141
0
142
1
143
1
 70
688
 72
1
 73
1
 74
1
  7
acad.stb
 75
16
 76
0
 77
0
 78
0
147
1
148
0
149
0
100
AcDbLayout
  1
Layout1
 70
1
 71
1
 10
0
 20
0
 11
420
 21
297
 12
0
 22
0
 32
0
 14
0
 24
0
 34
0
 15
0
 25
0
 35
0
146
0
 13
0
 23
0
 33
0
 16
1
 26
0
 36
0
 17
0
 27
1
 37
0
 76
0
330
6D
  0
LAYOUT
  5
22
102
{ACAD_REACTORS
330
1A
102
}
330
1A
100
AcDbPlotSettings
  1

  2
C:\Program Files\AutoCAD 2002\plotters\DWF ePlot (optimized for plotting).pc3
  4

  6

 40
0
 41
0
 42
0
 43
0
 44
0
 45
0
 46
0
 47
0
 48
0
 49
0
140
0
141
0
142
1
143
1
 70
1712
 72
1
 73
1
 74
0
  7
acad.stb
 75
0
 76
0
 77
0
 78
0
147
1
148
0
149
0
100
AcDbLayout
  1
Model
 70
1
 71
0
 10
0
 20
0
 11
12
 21
9
 12
0
 22
0
 32
0
 14
0
 24
0
 34
0
 15
0
 25
0
 35
0
146
0
 13
0
 23
0
 33
0
 16
1
 26
0
 36
0
 17
0
 27
1
 37
0
 76
0
330
1F
  0
MLEADERSTYLE
  5
89
102
{ACAD_REACTORS
330
88
102
}
330
88
100
AcDbMLeaderStyle
170
2
171
1
172
0
 90
2
 40
0
 41
0
173
1
 91
0
340
0
 92
-2
290
1
 42
0.09
292
1
 43
0.36
  3
Standard
341
0
 44
0.18
300

342
0
174
1
178
1
175
1
176
0
 93
0
 45
0.18
292
0
297
0
 46
0
343
0
 94
0
 47
1
 49
1
140
1
293
1
141
0
294
1
177
0
142
1
295
0
296
0
143
0.125
  0
MLINESTYLE
  5
18
102
{ACAD_REACTORS
330
17
102
}
330
17
100
AcDbMlineStyle
  2
STANDARD
 70
0
  3

 51
90
 52
90
 71
2
 49
0.5
 62
0
  6
ByLayer
 49
-0.5
 62
0
  6
ByLayer
  0
TABLESTYLE
  5
8B
102
{ACAD_XDICTIONARY
360
8C
102
}
102
{ACAD_REACTORS
330
8A
102
}
330
8A
100
AcDbTableStyle
  3

 70
0
 71
0
 40
0.06
 41
0.06
280
0
281
0
  7
Standard
140
0.18
170
1
 62
0
283
0
 90
512
 91
0
274
-2
284
1
 64
0
275
-2
285
1
 65
0
276
-2
286
1
 66
0
277
-2
287
1
 67
0
278
-2
288
1
 68
0
279
-2
289
1
 69
0
  7
Standard
140
0.18
170
1
 62
0
283
0
 90
512
 91
0
274
-2
284
1
 64
0
275
-2
285
1
 65
0
276
-2
286
1
 66
0
277
-2
287
1
 67
0
278
-2
288
1
 68
0
279
-2
289
1
 69
0
  7
Standard
140
0.18
170
1
 62
0
283
0
 90
512
 91
0
274
-2
284
1
 64
0
275
-2
285
1
 65
0
276
-2
286
1
 66
0
277
-2
287
1
 67
0
278
-2
288
1
 68
0
279
-2
289
1
 69
0
  0
DICTIONARYVAR
  5
90
102
{ACAD_REACTORS
330
8F
102
}
330
8F
100
DictionaryVariables
280
0
  1
1
  0
DICTIONARYVAR
  5
91
102
{ACAD_REACTORS
330
8F
102
}
330
8F
100
DictionaryVariables
280
0
  1
2
  0
ENDSEC
999
Created By CadLib version 4.0.38.30
999
CadLib website: www.woutware.com
  0
EOF
