  0
SECTION
  2
HEADER
  9
$ACADVER
  1
AC1015
  9
$DWGCODEPAGE
  3
ansi_1252
  9
$INSBASE
 10
0
 20
0
 30
0
  9
$EXTMIN
 10
1905.4986731000004
 20
7.2951007631835783
 30
0
  9
$EXTMAX
 10
2498.9999991
 20
1998.9998231000004
 30
0
  9
$LIMMIN
 10
0
 20
0
  9
$LIMMAX
 10
12
 20
9
  9
$SNAPMODE
 70
0
  9
$SNAPUNIT
 10
1
 20
1
  9
$SNAPBASE
 10
0
 20
0
  9
$SNAPANG
 50
0
  9
$SNAPSTYLE
 70
0
  9
$SNAPISOPAIR
 70
0
  9
$ORTHOMODE
 70
0
  9
$REGENMODE
 70
1
  9
$FILLMODE
 70
1
  9
$QTEXTMODE
 70
0
  9
$MIRRTEXT
 70
1
  9
$LTSCALE
 40
1
  9
$OSMODE
 70
0
  9
$ATTMODE
 70
1
  9
$TEXTSIZE
 40
0.2
  9
$TRACEWID
 40
0.05
  9
$TEXTSTYLE
  7
Standard
  9
$CLAYER
  8
0
  9
$CELTYPE
  6
ByLayer
  9
$CECOLOR
 62
256
  9
$CELTSCALE
 40
1
  9
$DISPSILH
 70
0
  9
$DIMSCALE
 40
1
  9
$DIMASZ
 40
0.18
  9
$DIMEXO
 40
0.0625
  9
$DIMDLI
 40
0.38
  9
$DIMRND
 40
0
  9
$DIMDLE
 40
0
  9
$DIMEXE
 40
0.18
  9
$DIMTP
 40
0
  9
$DIMTM
 40
0
  9
$DIMTXT
 40
0.18
  9
$DIMCEN
 40
0.09
  9
$DIMTSZ
 40
0
  9
$DIMTOL
 70
0
  9
$DIMLIM
 70
0
  9
$DIMTIH
 70
1
  9
$DIMTOH
 70
1
  9
$DIMSE1
 70
0
  9
$DIMSE2
 70
0
  9
$DIMTAD
 70
0
  9
$DIMZIN
 70
0
  9
$DIMBLK
  1

  9
$DIMASO
 70
1
  9
$DIMSHO
 70
1
  9
$DIMPOST
  1

  9
$DIMAPOST
  1

  9
$DIMALT
 70
0
  9
$DIMALTD
 70
2
  9
$DIMALTF
 40
0.03937007874015748
  9
$DIMLFAC
 40
1
  9
$DIMTOFL
 70
0
  9
$DIMTVP
 40
0
  9
$DIMTIX
 70
0
  9
$DIMSOXD
 70
0
  9
$DIMSAH
 70
0
  9
$DIMBLK1
  1

  9
$DIMBLK2
  1

  9
$DIMSTYLE
  2
Standard
  9
$DIMCLRD
 70
0
  9
$DIMCLRE
 70
0
  9
$DIMCLRT
 70
0
  9
$DIMTFAC
 40
1
  9
$DIMGAP
 40
0.09
  9
$DIMJUST
 70
0
  9
$DIMSD1
 70
0
  9
$DIMSD2
 70
0
  9
$DIMTOLJ
 70
1
  9
$DIMTZIN
 70
0
  9
$DIMALTZ
 70
0
  9
$DIMALTTZ
 70
0
  9
$DIMUPT
 70
0
  9
$DIMDEC
 70
4
  9
$DIMTDEC
 70
4
  9
$DIMALTU
 70
2
  9
$DIMALTTD
 70
0
  9
$DIMTXSTY
  7
Standard
  9
$DIMAUNIT
 70
0
  9
$DIMADEC
 70
0
  9
$DIMALTRND
 40
0
  9
$DIMAZIN
 70
0
  9
$DIMDSEP
 70
46
  9
$DIMATFIT
 70
0
  9
$DIMFRAC
 70
0
  9
$DIMLDRBLK
  1

  9
$DIMLUNIT
 70
2
  9
$DIMLWD
 70
-2
  9
$DIMLWE
 70
-2
  9
$LUNITS
 70
2
  9
$LUPREC
 70
4
  9
$SKETCHINC
 40
0.1
  9
$FILLETRAD
 40
0
  9
$AUNITS
 70
0
  9
$AUPREC
 70
0
  9
$MENU
  1
.
  9
$ELEVATION
 40
0
  9
$PELEVATION
 40
0
  9
$THICKNESS
 40
0
  9
$LIMCHECK
 70
0
  9
$CHAMFERA
 40
0.5
  9
$CHAMFERB
 40
0.5
  9
$CHAMFERC
 40
0
  9
$CHAMFERD
 40
0
  9
$SKPOLY
 70
0
  9
$TDCREATE
 40
2460962.9175907406
  9
$TDUCREATE
 40
2460962.8759240741
  9
$TDUPDATE
 40
2460962.9175907406
  9
$TDUUPDATE
 40
2460962.8759240741
  9
$TDINDWG
 40
0
  9
$TDUSRTIMER
 40
1.1574074074074074E-08
  9
$USRTIMER
 70
1
  9
$ANGBASE
 50
0
  9
$ANGDIR
 70
1
  9
$PDMODE
 70
0
  9
$PDSIZE
 40
0
  9
$PLINEWID
 40
0
  9
$SPLFRAME
 70
0
  9
$SPLINETYPE
 70
6
  9
$SPLINESEGS
 70
8
  9
$HANDSEED
  5
57
  9
$SURFTAB1
 70
6
  9
$SURFTAB2
 70
6
  9
$SURFTYPE
 70
6
  9
$SURFU
 70
6
  9
$SURFV
 70
6
  9
$UCSORG
 10
0
 20
0
 30
0
  9
$UCSXDIR
 10
1
 20
0
 30
0
  9
$UCSYDIR
 10
0
 20
1
 30
0
  9
$UCSORTHOREF
  2

  9
$UCSORTHOVIEW
 70
0
  9
$UCSORGTOP
 10
0
 20
0
 30
0
  9
$UCSORGBOTTOM
 10
0
 20
0
 30
0
  9
$UCSORGLEFT
 10
0
 20
0
 30
0
  9
$UCSORGRIGHT
 10
0
 20
0
 30
0
  9
$UCSORGFRONT
 10
0
 20
0
 30
0
  9
$UCSORGBACK
 10
0
 20
0
 30
0
  9
$PUCSORG
 10
0
 20
0
 30
0
  9
$PUCSXDIR
 10
1
 20
0
 30
0
  9
$PUCSYDIR
 10
0
 20
1
 30
0
  9
$PUCSORTHOREF
  2

  9
$PUCSORTHOVIEW
 70
0
  9
$PUCSORGTOP
 10
0
 20
0
 30
0
  9
$PUCSORGBOTTOM
 10
0
 20
0
 30
0
  9
$PUCSORGLEFT
 10
0
 20
0
 30
0
  9
$PUCSORGRIGHT
 10
0
 20
0
 30
0
  9
$PUCSORGFRONT
 10
0
 20
0
 30
0
  9
$PUCSORGBACK
 10
0
 20
0
 30
0
  9
$USERI1
 70
0
  9
$USERI2
 70
0
  9
$USERI3
 70
0
  9
$USERI4
 70
0
  9
$USERI5
 70
0
  9
$USERR1
 40
0
  9
$USERR2
 40
0
  9
$USERR3
 40
0
  9
$USERR4
 40
0
  9
$USERR5
 40
0
  9
$WORLDVIEW
 70
1
  9
$SHADEDGE
 70
3
  9
$SHADEDIF
 70
70
  9
$TILEMODE
 70
1
  9
$MAXACTVP
 70
48
  9
$PINSBASE
 10
0
 20
0
 30
0
  9
$PLIMCHECK
 70
0
  9
$PEXTMIN
 10
1E+20
 20
1E+20
 30
1E+20
  9
$PEXTMAX
 10
-1E+20
 20
-1E+20
 30
-1E+20
  9
$PLIMMAX
 10
0
 20
0
  9
$PLIMMIN
 10
0
 20
0
  9
$UNITMODE
 70
0
  9
$VISRETAIN
 70
1
  9
$PLINEGEN
 70
1
  9
$PSLTSCALE
 70
1
  9
$TREEDEPTH
 70
3020
  9
$CMLSTYLE
  2
STANDARD
  9
$CMLJUST
 70
0
  9
$CMLSCALE
 40
1
  9
$PROXYGRAPHICS
 70
1
  9
$MEASUREMENT
 70
1
  9
$CELWEIGHT
370
-1
  9
$ENDCAPS
280
0
  9
$JOINSTYLE
280
0
  9
$LWDISPLAY
290
1
  9
$INSUNITS
 70
4
  9
$HYPERLINKBASE
  1

  9
$XEDIT
290
1
  9
$CEPSNTYPE
380
0
  9
$PSTYLEMODE
290
0
  9
$FINGERPRINTGUID
  2

  9
$VERSIONGUID
  2

  9
$EXTNAMES
290
1
  9
$PSVPSCALE
 40
0
  9
$CSHADOW
280
0
  9
$SHADOWPLANELOCATION
 40
0
  0
ENDSEC
  0
SECTION
  2
CLASSES
  0
CLASS
  1
RASTERVARIABLES
  2
AcDbRasterVariables
  3
ISM
 90
0
280
0
281
0
  0
CLASS
  1
IMAGEDEF
  2
AcDbRasterImageDef
  3
ISM
 90
0
280
0
281
0
  0
CLASS
  1
IMAGEDEF_REACTOR
  2
AcDbRasterImageDefReactor
  3
ISM
 90
1
280
0
281
0
  0
CLASS
  1
IMAGE
  2
AcDbRasterImage
  3
ISM
 90
127
280
0
281
1
  0
CLASS
  1
ACAD_EVALUATION_GRAPH
  2
AcDbEvalGraph
  3
ObjectDBX Classes
 90
1153
280
0
281
0
  0
CLASS
  1
BLOCKPOINTPARAMETER
  2
AcDbBlockPointParameter
  3
ObjectDBX Classes
 90
1153
280
0
281
0
  0
CLASS
  1
BLOCKBASEPOINTPARAMETER
  2
AcDbBlockBasepointParameter
  3
ObjectDBX Classes
 90
1153
280
0
281
0
  0
CLASS
  1
BLOCKLOOKUPPARAMETER
  2
AcDbBlockLookupParameter
  3
ObjectDBX Classes
 90
1153
280
0
281
0
  0
CLASS
  1
BLOCKVISIBILITYPARAMETER
  2
AcDbBlockVisibilityParameter
  3
ObjectDBX Classes
 90
1153
280
0
281
0
  0
CLASS
  1
BLOCKPROPERTIESTABLE
  2
AcDbBlockPropertiesTable
  3
ObjectDBX Classes
 90
1153
280
0
281
0
  0
CLASS
  1
BLOCKPOLARPARAMETER
  2
AcDbBlockPolarParameter
  3
ObjectDBX Classes
 90
1153
280
0
281
0
  0
CLASS
  1
BLOCKROTATIONPARAMETER
  2
AcDbBlockRotationParameter
  3
ObjectDBX Classes
 90
1153
280
0
281
0
  0
CLASS
  1
BLOCKLINEARPARAMETER
  2
AcDbBlockLinearParameter
  3
ObjectDBX Classes
 90
1153
280
0
281
0
  0
CLASS
  1
BLOCKXYPARAMETER
  2
AcDbBlockXYParameter
  3
ObjectDBX Classes
 90
1153
280
0
281
0
  0
CLASS
  1
BLOCKFLIPPARAMETER
  2
AcDbBlockFlipParameter
  3
ObjectDBX Classes
 90
1153
280
0
281
0
  0
CLASS
  1
BLOCKALIGNMENTPARAMETER
  2
AcDbBlockAlignmentParameter
  3
ObjectDBX Classes
 90
1153
280
0
281
0
  0
CLASS
  1
BLOCKROTATEACTION
  2
AcDbBlockRotateAction
  3
ObjectDBX Classes
 90
1153
280
0
281
0
  0
CLASS
  1
BLOCKSCALEACTION
  2
AcDbBlockScaleAction
  3
ObjectDBX Classes
 90
1153
280
0
281
0
  0
CLASS
  1
BLOCKARRAYACTION
  2
AcDbBlockArrayAction
  3
ObjectDBX Classes
 90
1153
280
0
281
0
  0
CLASS
  1
BLOCKFLIPACTION
  2
AcDbBlockFlipAction
  3
ObjectDBX Classes
 90
1153
280
0
281
0
  0
CLASS
  1
BLOCKLOOKUPACTION
  2
AcDbBlockLookupAction
  3
ObjectDBX Classes
 90
1153
280
0
281
0
  0
CLASS
  1
BLOCKMOVEACTION
  2
AcDbBlockMoveAction
  3
ObjectDBX Classes
 90
1153
280
0
281
0
  0
CLASS
  1
BLOCKPOLARSTRETCHACTION
  2
AcDbBlockPolarStretchAction
  3
ObjectDBX Classes
 90
1153
280
0
281
0
  0
CLASS
  1
BLOCKSTRETCHACTION
  2
AcDbBlockStretchAction
  3
ObjectDBX Classes
 90
1153
280
0
281
0
  0
CLASS
  1
BLOCKALIGNMENTGRIP
  2
AcDbBlockAlignmentGrip
  3
ObjectDBX Classes
 90
1153
280
0
281
0
  0
CLASS
  1
BLOCKFLIPGRIP
  2
AcDbBlockFlipGrip
  3
ObjectDBX Classes
 90
1153
280
0
281
0
  0
CLASS
  1
ACDB_BLOCKREPRESENTATION_DATA
  2
AcDbBlockRepresentationData
  3
ObjectDBX Classes
 90
1153
280
0
281
0
  0
CLASS
  1
ACDB_DYNAMICBLOCKPURGEPREVENTER_VERSION
  2
AcDbDynamicBlockPurgePreventer
  3
ObjectDBX Classes
 90
1153
280
0
281
0
  0
CLASS
  1
BLOCKLINEARGRIP
  2
AcDbBlockLinearGrip
  3
ObjectDBX Classes
 90
1153
280
0
281
0
  0
CLASS
  1
BLOCKLOOKUPGRIP
  2
AcDbBlockLookupGrip
  3
ObjectDBX Classes
 90
1153
280
0
281
0
  0
CLASS
  1
BLOCKPOLARGRIP
  2
AcDbBlockPolarGrip
  3
ObjectDBX Classes
 90
1153
280
0
281
0
  0
CLASS
  1
BLOCKPROPERTIESTABLEGRIP
  2
AcDbBlockPropertiesTableGrip
  3
ObjectDBX Classes
 90
1153
280
0
281
0
  0
CLASS
  1
BLOCKROTATIONGRIP
  2
AcDbBlockRotationGrip
  3
ObjectDBX Classes
 90
1153
280
0
281
0
  0
CLASS
  1
BLOCKVISIBILITYGRIP
  2
AcDbBlockVisibilityGrip
  3
ObjectDBX Classes
 90
1153
280
0
281
0
  0
CLASS
  1
BLOCKXYGRIP
  2
AcDbBlockXYGrip
  3
ObjectDBX Classes
 90
1153
280
0
281
0
  0
CLASS
  1
BLOCKGRIPLOCATIONCOMPONENT
  2
AcDbBlockGripExpr
  3
ObjectDBX Classes
 90
1153
280
0
281
0
  0
CLASS
  1
ACDB_DYNAMICBLOCKPROXYNODE
  2
AcDbDynamicBlockProxyNode
  3
ObjectDBX Classes
 90
1153
280
0
281
0
  0
CLASS
  1
BLOCKLINEARCONSTRAINTPARAMETER
  2
AcDbBlockLinearConstraintParameter
  3
ObjectDBX Classes
 90
1153
280
0
281
0
  0
CLASS
  1
BLOCKHORIZONTALCONSTRAINTPARAMETER
  2
AcDbBlockHorizontalConstraintParameter
  3
ObjectDBX Classes
 90
1153
280
0
281
0
  0
CLASS
  1
BLOCKVERTICALCONSTRAINTPARAMETER
  2
AcDbBlockVerticalConstraintParameter
  3
ObjectDBX Classes
 90
1153
280
0
281
0
  0
CLASS
  1
BLOCKALIGNEDCONSTRAINTPARAMETER
  2
AcDbBlockAlignedConstraintParameter
  3
ObjectDBX Classes
 90
1153
280
0
281
0
  0
CLASS
  1
BLOCKANGULARCONSTRAINTPARAMETER
  2
AcDbBlockAngularConstraintParameter
  3
ObjectDBX Classes
 90
1153
280
0
281
0
  0
CLASS
  1
BLOCKDIAMETRICCONSTRAINTPARAMETER
  2
AcDbBlockDiametricConstraintParameter
  3
ObjectDBX Classes
 90
1153
280
0
281
0
  0
CLASS
  1
BLOCKRADIALCONSTRAINTPARAMETER
  2
AcDbBlockRadialConstraintParameter
  3
ObjectDBX Classes
 90
1153
280
0
281
0
  0
ENDSEC
  0
SECTION
  2
TABLES
  0
TABLE
  2
VPORT
  5
8
330
0
100
AcDbSymbolTable
 70
1
  0
VPORT
  5
32
330
8
100
AcDbSymbolTableRecord
100
AcDbViewportTableRecord
  2
*Active
 70
64
 10
0
 20
0
 11
1
 21
1
 12
2202.2493361
 22
1003.147461931592
 13
0
 23
0
 14
1
 24
1
 15
0
 25
0
 16
0
 26
0
 36
1
 17
0
 27
0
 37
0
 40
1991.7047223368168
 41
0.29798660380925318
 42
50
 43
0
 44
0
 50
0
 51
0
 71
0
 72
20000
 73
20000
 74
1
 75
0
 76
0
 77
0
 78
0
281
0
 65
1
110
0
120
0
130
0
111
1
121
0
131
0
112
0
122
1
132
0
 79
0
146
0
  0
ENDTAB
  0
TABLE
  2
LTYPE
  5
5
100
AcDbSymbolTable
 70
3
  0
LTYPE
  5
16
330
5
100
AcDbSymbolTableRecord
100
AcDbLinetypeTableRecord
  2
Continuous
  3
Solid line
 70
64
 72
65
 73
0
 40
0
  0
LTYPE
  5
14
330
5
100
AcDbSymbolTableRecord
100
AcDbLinetypeTableRecord
  2
ByBlock
  3

 70
64
 72
65
 73
0
 40
0
  0
LTYPE
  5
15
330
5
100
AcDbSymbolTableRecord
100
AcDbLinetypeTableRecord
  2
ByLayer
  3

 70
64
 72
65
 73
0
 40
0
  0
ENDTAB
  0
TABLE
  2
LAYER
  5
2
100
AcDbSymbolTable
 70
2
  0
LAYER
  5
10
330
2
100
AcDbSymbolTableRecord
100
AcDbLayerTableRecord
 70
64
  2
0
 62
7
  6
Continuous
370
-3
390
F
  0
LAYER
  5
27
330
2
100
AcDbSymbolTableRecord
100
AcDbLayerTableRecord
 70
64
  2
DEFPOINTS
 62
7
  6
Continuous
290
0
370
-3
390
F
  0
ENDTAB
  0
TABLE
  2
STYLE
  5
3
100
AcDbSymbolTable
 70
1
  0
STYLE
  5
11
330
3
100
AcDbSymbolTableRecord
100
AcDbTextStyleTableRecord
  2
Standard
 70
64
 40
0
 41
1
 50
0
 71
0
 42
0.2
  3
txt.shx
  0
ENDTAB
  0
TABLE
  2
VIEW
  5
6
100
AcDbSymbolTable
 70
0
  0
ENDTAB
  0
TABLE
  2
UCS
  5
7
100
AcDbSymbolTable
 70
0
  0
ENDTAB
  0
TABLE
  2
APPID
  5
9
330
0
100
AcDbSymbolTable
 70
2
  0
APPID
  5
12
330
0
100
AcDbSymbolTableRecord
100
AcDbRegAppTableRecord
  2
ACAD
 70
64
  0
APPID
  5
55
330
0
100
AcDbSymbolTableRecord
100
AcDbRegAppTableRecord
  2
ACAD_MLEADERVER
 70
64
  0
ENDTAB
  0
TABLE
  2
DIMSTYLE
  5
A
330
0
100
AcDbSymbolTable
 70
1
100
AcDbDimStyleTable
 71
0
  0
DIMSTYLE
105
31
330
A
100
AcDbSymbolTableRecord
100
AcDbDimStyleTableRecord
  2
Standard
 70
64
  3

  4

 40
1
 41
0.18
 42
0.0625
 43
0.38
 44
0.18
 45
0
 46
0
 47
0
 48
0
140
0.18
141
0.09
142
0
143
1
144
1
145
0
146
1
147
0.09
148
0
 71
0
 72
0
 73
1
 74
1
 75
0
 76
0
 77
0
 78
0
 79
0
170
0
171
2
172
0
173
0
174
0
175
0
179
0
271
4
272
4
273
2
274
0
275
0
276
0
277
2
278
46
279
0
280
0
281
0
282
0
283
1
284
0
285
0
286
0
288
0
289
0
340
11
371
-2
372
-2
  0
ENDTAB
  0
TABLE
  2
BLOCK_RECORD
  5
1
330
0
100
AcDbSymbolTable
 70
3
  0
BLOCK_RECORD
  5
1F
330
1
100
AcDbSymbolTableRecord
100
AcDbBlockTableRecord
  2
*Model_Space
340
22
  0
BLOCK_RECORD
  5
2E
330
1
100
AcDbSymbolTableRecord
100
AcDbBlockTableRecord
  2
*Paper_Space
340
1E
  0
ENDTAB
  0
ENDSEC
  0
SECTION
  2
BLOCKS
  0
BLOCK
  5
20
330
1F
100
AcDbEntity
  8
0
100
AcDbBlockBegin
  2
*Model_Space
 70
64
 10
0
 20
0
 30
0
  3
*Model_Space
  0
ENDBLK
  5
21
330
1F
100
AcDbEntity
  8
0
100
AcDbBlockEnd
  0
BLOCK
  5
2F
330
2E
100
AcDbEntity
  8
0
 67
1
100
AcDbBlockBegin
  2
*Paper_Space
 70
64
 10
0
 20
0
 30
0
  3
*Paper_Space
  0
ENDBLK
  5
30
330
2E
100
AcDbEntity
  8
0
100
AcDbBlockEnd
  0
ENDSEC
  0
SECTION
  2
ENTITIES
  0
LWPOLYLINE
  5
28
330
1F
100
AcDbEntity
  8
0
 62
3
100
AcDbPolyline
 90
52
 70
1
 10
1906.6014911000004
 20
49.758024763183514
 10
1907.7585191000005
 20
39.113367763183689
 10
1911.5767111000005
 20
29.047225763183562
 10
1918.5188781000004
 20
18.749676763183672
 10
1926.6180731000004
 20
10.7661847631836
 10
1932.6346181000004
 20
8.5678317631836034
 10
1940.8495161000003
 20
7.2951007631835783
 10
2371.2499151
 20
7.5249327631835969
 10
2387.0626291
 20
8.1998657631836078
 10
2404.1287901
 20
12.345882763183631
 10
2433.7587321
 20
22.42976676318354
 10
2456.9178021
 20
33.592771763183649
 10
2483.4091131
 20
50.253972763183548
 10
2490.7400421
 20
55.918781763183652
 10
2494.2388941
 20
60.084081763183541
 10
2496.4048500999997
 20
64.9158307631837
 10
2497.7377460999996
 20
70.414026763183713
 10
2498.9040301
 20
77.41173176318371
 10
2498.9999991
 20
350.96600276318372
 10
2494.5014741
 20
363.46190476318372
 10
2491.0026221
 20
370.12638476318364
 10
2486.1708741
 20
375.79119376318363
 10
2480.0062291
 20
379.95649376318363
 10
2473.0085240999997
 20
382.62228576318364
 10
2461.6789071000003
 20
383.78856976318366
 10
2443.5181971
 20
384.78824276318369
 10
2373.8450511
 20
384.07114376318373
 10
2368.0136301000002
 20
385.57065276318366
 10
2358.8499691
 20
390.73562476318358
 10
2348.5200241000002
 20
398.39977776318364
 10
2340.3560361
 20
409.89600676318361
 10
2334.1913911
 20
423.72480376318362
 10
2328.5265831
 20
431.38895676318367
 10
2318.0300261
 20
439.05310976318361
 10
2306.0339601
 20
443.88485776318367
 10
2299.0362561
 20
445.05114176318358
 10
2283.2081141
 20
445.05114176318358
 10
2222.3947281
 20
444.38469376318363
 10
2212.8978431
 20
446.55065076318357
 10
2174.9103041
 20
453.71496676318367
 10
2136.9227641
 20
454.38141476318367
 10
2094.6033121
 20
456.04753476318365
 10
2058.9483401
 20
458.04687976318365
 10
2051.6174121
 20
457.04720776318362
 10
2036.4557181000005
 20
447.38371076318361
 10
2006.9653911000005
 20
414.89436676318365
 10
1967.9781791000005
 20
372.90813876318367
 10
1933.3228801000005
 20
334.7539877631836
 10
1911.9965421000004
 20
308.09606476318362
 10
1906.8315691000005
 20
296.76644776318363
 10
1905.4986731000004
 20
288.43584676318363
 10
1905.9985091000005
 20
254.11377176318356
  0
CIRCLE
  5
29
330
1F
100
AcDbEntity
  8
0
 62
3
100
AcDbCircle
 10
1981.6138271000004
 20
285.81227676318366
 30
0
 40
11
  0
CIRCLE
  5
2A
330
1F
100
AcDbEntity
  8
0
 62
3
100
AcDbCircle
 10
1954.2228121000003
 20
50.089595763183688
 30
0
 40
11
  0
LWPOLYLINE
  5
2B
330
1F
100
AcDbEntity
  8
0
 62
3
100
AcDbPolyline
 90
54
 70
1
 10
1905.4987281200001
 20
1221.9108580417414
 10
1906.54005312
 20
1211.7290130417416
 10
1909.2012171200001
 20
1203.7455200417414
 10
1918.2260351200002
 20
1185.6958850417416
 10
1921.92852412
 20
1181.4148820417415
 10
1931.30045012
 20
1175.2826340417416
 10
1939.6310511200002
 20
1172.6214700417415
 10
1962.5402031200001
 20
1170.3074140417416
 10
2069.66413912
 20
1167.5209210417415
 10
2143.37125912
 20
1166.9618450417415
 10
2149.61921012
 20
1168.4659810417415
 10
2160.37956912
 20
1177.0279880417415
 10
2165.35478912
 20
1183.8544520417415
 10
2172.5283621199997
 20
1198.5487060417415
 10
2179.47052912
 20
1218.3338830417415
 10
2183.05731612
 20
1224.2347260417416
 10
2189.30526612
 20
1228.7471340417414
 10
2199.48711212
 20
1232.7967320417415
 10
2205.73506212
 20
1233.4909490417415
 10
2229.5698371199996
 20
1234.0694630417415
 10
2307.7497491199997
 20
1233.8101030417415
 10
2320.5233371199997
 20
1235.1985370417415
 10
2331.35311812
 20
1240.3357410417416
 10
2348.84737912
 20
1254.2200750417414
 10
2353.98458312
 20
1261.0233990417414
 10
2358.56641412
 20
1268.9374700417416
 10
2360.64906412
 20
1273.6581440417415
 10
2361.4821241199998
 20
1280.4614680417415
 10
2362.45402712
 20
1489.1430180417415
 10
2358.42757012
 20
1503.8604130417414
 10
2345.0986091199998
 20
1535.1001660417414
 10
2334.96304512
 20
1546.4853200417415
 10
2324.41095012
 20
1553.8440180417415
 10
2305.38941212
 20
1563.5630520417415
 10
2281.50835612
 20
1566.6176060417415
 10
2250.96282012
 20
1568.8390990417415
 10
2208.89328612
 20
1571.0605930417414
 10
2119.61701412
 20
1578.1416030417415
 10
2109.89797912
 20
1579.8077240417415
 10
2099.90125812
 20
1582.7234340417415
 10
2092.54256112
 20
1585.7779880417415
 10
2082.26815312
 20
1591.4705650417416
 10
2075.32598612
 20
1596.6077690417417
 10
2071.16068612
 20
1597.9962020417415
 10
2065.74579512
 20
1598.4127320417415
 10
2006.04315612
 20
1598.4127320417415
 10
1937.2990381200002
 20
1601.2007070417415
 10
1929.1072811200002
 20
1598.8403700417414
 10
1923.97007712
 20
1595.2304430417414
 10
1917.4444391200002
 20
1589.3990220417415
 10
1912.8626091200001
 20
1584.5395050417417
 10
1908.8361521200002
 20
1572.8766640417414
 10
1907.4477181200002
 20
1563.0187860417416
 10
1906.7535021200001
 20
1553.8551250417415
  0
LWPOLYLINE
  5
2C
330
1F
100
AcDbEntity
  8
0
 62
3
100
AcDbPolyline
 90
58
 70
1
 10
2233.7992111000003
 20
1205.5784146519245
 10
2211.9730371000005
 20
1204.0789056519245
 10
2198.3108521000004
 20
1200.5800536519246
 10
2175.8182301000006
 20
1188.2507646519246
 10
2156.4912361000006
 20
1172.5892346519245
 10
2127.3341331
 20
1147.9306566519247
 10
2098.5102541000006
 20
1122.1057936519244
 10
2061.1891621000004
 20
1091.7824066519245
 10
2056.3574141000004
 20
1086.1175986519245
 10
2048.6932611
 20
1074.1215336519247
 10
2046.6939171000006
 20
1067.9568886519244
 10
2046.3606931000006
 20
1058.7932276519246
 10
2048.0974571
 20
988.01910965192428
 10
2051.2164341000002
 20
932.59728865192426
 10
2051.9361971000003
 20
888.9316106519243
 10
2052.4160401000004
 20
800.64057165192423
 10
2049.5369841
 20
709.23055465192431
 10
2046.1780861000007
 20
687.63763765192425
 10
2039.7002111000006
 20
651.40952065192437
 10
2025.3049331000007
 20
580.63273665192423
 10
2023.8654051000008
 20
565.7576156519242
 10
2023.8654051000008
 20
547.04375365192436
 10
2027.2243031000007
 20
526.65044265192432
 10
2031.0630441000008
 20
514.41445665192418
 10
2038.5006051000009
 20
498.57965065192445
 10
2049.0571421000004
 20
483.94445065192429
 10
2058.1741511000005
 20
474.34759865192439
 10
2075.6884071000004
 20
464.51082565192439
 10
2086.9647081000003
 20
460.91200565192446
 10
2097.7611661
 20
458.03294965192453
 10
2106.1584121000005
 20
456.59342265192453
 10
2348.9587711000004
 20
454.91397365192455
 10
2376.5497211
 20
459.47247765192441
 10
2390.9449991
 20
466.43019565192452
 10
2402.2213001000005
 20
475.06736265192438
 10
2415.6568931
 20
492.58161765192443
 10
2432.9312271000003
 20
518.25319765192432
 10
2437.4897321000003
 20
535.2876096519243
 10
2444.4474501000004
 20
553.52162865192429
 10
2464.3609181
 20
578.71336565192439
 10
2483.3147011000005
 20
597.66714865192432
 10
2487.8732061000005
 20
606.78415865192449
 10
2490.5123401000005
 20
621.17943665192445
 10
2491.4720251000003
 20
640.37314065192447
 10
2491.9518681000004
 20
727.43578365192445
 10
2496.5122921
 20
804.54840965192443
 10
2498.9997961000004
 20
984.06328665192439
 10
2496.9268761000003
 20
1001.4758156519244
 10
2495.2391101000003
 20
1129.6593696519246
 10
2492.6399621000005
 20
1142.6551066519244
 10
2489.6409461000003
 20
1151.6521556519244
 10
2480.2440281000004
 20
1165.2476966519246
 10
2468.4478971000003
 20
1180.6426466519245
 10
2457.4515041000004
 20
1188.4400886519245
 10
2443.0562261000005
 20
1197.2372036519246
 10
2427.0614731000005
 20
1202.2355636519244
 10
2411.8664571000004
 20
1203.6351046519246
 10
2387.8743261000004
 20
1204.6347766519245
  0
LWPOLYLINE
  5
2D
330
1F
100
AcDbEntity
  8
0
 62
3
100
AcDbPolyline
 90
50
 70
1
 10
2043.7491511000003
 20
1710.9303131000004
 10
2044.1490201000004
 20
1705.7320181000005
 10
2048.3476431
 20
1693.1361491000005
 10
2055.3453471000003
 20
1679.5406091000004
 10
2062.9428551
 20
1668.5442161000003
 10
2075.9385931
 20
1658.7474291000003
 10
2084.7357071
 20
1655.3485441000005
 10
2091.7334121
 20
1654.9486751000004
 10
2176.7055401000002
 20
1653.9490031000005
 10
2191.7006221
 20
1652.5494621000005
 10
2203.8966211
 20
1649.9503151000004
 10
2216.6924241
 20
1645.1518891000005
 10
2226.4892111
 20
1639.3537911000003
 10
2235.4862591
 20
1627.9575291000003
 10
2246.6825871
 20
1597.1676281000005
 10
2257.6789801
 20
1577.5740551000004
 10
2262.6773401
 20
1573.1754981000004
 10
2270.6747171
 20
1569.5766781000004
 10
2276.8726841000002
 20
1567.9772031000005
 10
2287.2692741
 20
1567.1774651000003
 10
2314.6602901
 20
1566.1777931000004
 10
2380.4387141
 20
1568.5770061000005
 10
2468.4098581
 20
1572.3757601000004
 10
2475.8074321
 20
1574.3751041000005
 10
2481.6055301
 20
1578.3737931000005
 10
2491.0024471
 20
1586.5711041000004
 10
2497.2004141
 20
1598.1673001000004
 10
2497.4003491
 20
1609.9634311000004
 10
2498.9998240999994
 20
1959.2488621000005
 10
2497.0004800999995
 20
1971.4448611000005
 10
2493.4016610999997
 20
1980.6418451000004
 10
2487.2036940999997
 20
1988.2393521000004
 10
2476.4072350999995
 20
1995.4369921000005
 10
2469.6094650999994
 20
1998.2360731000003
 10
2337.1129250999998
 20
1998.9998231000004
 10
2330.1152200999995
 20
1996.8338671000004
 10
2318.1191550999997
 20
1991.1690581000005
 10
2296.7928170999994
 20
1978.3399331000003
 10
2283.6304680999997
 20
1975.0076931000006
 10
2270.4681180999996
 20
1973.1749601000004
 10
2227.1489940999995
 20
1970.0093321000004
 10
2188.3283940999995
 20
1968.5098241000003
 10
2110.6871950999994
 20
1963.8446881000004
 10
2091.3602010999994
 20
1957.1802071000004
 10
2076.6983430999994
 20
1949.1828301000003
 10
2064.5356660999996
 20
1938.0198251000004
 10
2054.3723330999997
 20
1924.8574761000004
 10
2047.7078531000002
 20
1910.1956181000003
 10
2044.3756121000004
 20
1899.1992251000004
 10
2042.7094921000003
 20
1883.5376961000004
  0
ENDSEC
  0
SECTION
  2
OBJECTS
  0
DICTIONARY
  5
C
330
0
100
AcDbDictionary
280
0
281
1
  3
ACAD_SCALELIST
350
33
  3
ACAD_COLOR
350
45
  3
ACAD_FIELDLIST
350
46
  3
ACAD_GROUP
350
D
  3
ACAD_IMAGE_DICT
350
47
  3
ACAD_LAYOUT
350
1A
  3
ACAD_MATERIAL
350
48
  3
ACAD_MLEADERSTYLE
350
49
  3
ACAD_MLINESTYLE
350
17
  3
ACAD_PLOTSETTINGS
350
19
  3
ACAD_PLOTSTYLENAME
350
E
  3
ACAD_TABLESTYLE
350
4B
  3
ACDB_RECOMPOSE_DATA
350
4F
  3
AcDbVariableDictionary
350
50
  3
ACAD_VISUALSTYLE
350
53
  3
DWGPROPS
350
54
  0
DICTIONARY
  5
4D
330
4C
100
AcDbDictionary
280
0
281
1
  3
ACAD_ROUNDTRIP_2008_TABLESTYLE_CELLSTYLEMAP
360
4E
  0
DICTIONARY
  5
33
102
{ACAD_REACTORS
330
C
102
}
330
C
100
AcDbDictionary
280
0
281
1
  0
DICTIONARY
  5
45
102
{ACAD_REACTORS
330
C
102
}
330
C
100
AcDbDictionary
280
0
281
1
  0
FIELDLIST
  5
46
102
{ACAD_REACTORS
330
C
102
}
330
C
100
AcDbIdSet
100
AcDbFieldList
  0
DICTIONARY
  5
D
102
{ACAD_REACTORS
330
C
102
}
330
C
100
AcDbDictionary
280
0
281
1
  0
DICTIONARY
  5
47
102
{ACAD_REACTORS
330
C
102
}
330
C
100
AcDbDictionary
280
0
281
1
  0
DICTIONARY
  5
1A
102
{ACAD_REACTORS
330
C
102
}
330
C
100
AcDbDictionary
280
0
281
1
  3
Layout1
350
1E
  3
Model
350
22
  0
DICTIONARY
  5
48
102
{ACAD_REACTORS
330
C
102
}
330
C
100
AcDbDictionary
280
0
281
1
  0
DICTIONARY
  5
49
102
{ACAD_REACTORS
330
C
102
}
330
C
100
AcDbDictionary
280
0
281
1
  3
Standard
350
4A
  0
DICTIONARY
  5
17
102
{ACAD_REACTORS
330
C
102
}
330
C
100
AcDbDictionary
280
0
281
1
  3
STANDARD
350
18
  0
DICTIONARY
  5
19
102
{ACAD_REACTORS
330
C
102
}
330
C
100
AcDbDictionary
280
0
281
1
  0
ACDBDICTIONARYWDFLT
  5
E
102
{ACAD_REACTORS
330
C
102
}
330
C
100
AcDbDictionary
280
0
281
1
  3
Normal
350
F
100
AcDbDictionaryWithDefault
340
F
  0
ACDBPLACEHOLDER
  5
F
102
{ACAD_REACTORS
330
E
102
}
330
E
  0
DICTIONARY
  5
4B
102
{ACAD_REACTORS
330
C
102
}
330
C
100
AcDbDictionary
280
0
281
1
  3
Standard
350
4C
  0
XRECORD
  5
4F
102
{ACAD_REACTORS
330
C
102
}
330
C
100
AcDbXrecord
280
1
 90
1
330
4C
  0
DICTIONARY
  5
50
102
{ACAD_REACTORS
330
C
102
}
330
C
100
AcDbDictionary
280
0
281
1
  3
DIMASSOC
350
51
  3
HIDETEXT
350
52
  0
DICTIONARY
  5
53
102
{ACAD_REACTORS
330
C
102
}
330
C
100
AcDbDictionary
280
0
281
1
  0
XRECORD
  5
54
102
{ACAD_REACTORS
330
C
102
}
330
C
100
AcDbXrecord
280
0
  1
DWGPROPS COOKIE
  2

  3

  4

  6

  7

  8

  9

300
=
301
=
302
=
303
=
304
=
305
=
306
=
307
=
308
=
309
=
 40
0
 41
2460962.9175907178
 42
2460962.9175907178
  1

 90
0
  0
CELLSTYLEMAP
  5
4E
102
{ACAD_REACTORS
330
4D
102
}
330
4D
100
AcDbCellStyleMap
 90
3
300
CELLSTYLE
  1
TABLEFORMAT_BEGIN
 90
5
170
0
309
TABLEFORMAT_END
  1
CELLSTYLE_BEGIN
 90
3
 91
2
300
_DATA
309
CELLSTYLE_END
300
CELLSTYLE
  1
TABLEFORMAT_BEGIN
 90
5
170
0
309
TABLEFORMAT_END
  1
CELLSTYLE_BEGIN
 90
1
 91
2
300
_TITLE
309
CELLSTYLE_END
300
CELLSTYLE
  1
TABLEFORMAT_BEGIN
 90
5
170
0
309
TABLEFORMAT_END
  1
CELLSTYLE_BEGIN
 90
2
 91
2
300
_HEADER
309
CELLSTYLE_END
  0
LAYOUT
  5
1E
102
{ACAD_REACTORS
330
1A
102
}
330
1A
100
AcDbPlotSettings
  1

  2
C:\Program Files\AutoCAD 2002\plotters\DWF ePlot (optimized for plotting).pc3
  4

  6

 40
0
 41
0
 42
0
 43
0
 44
0
 45
0
 46
0
 47
0
 48
0
 49
0
140
0
141
0
142
1
143
1
 70
688
 72
1
 73
1
 74
1
  7
acad.stb
 75
16
 76
0
 77
0
 78
0
147
1
148
0
149
0
100
AcDbLayout
  1
Layout1
 70
1
 71
1
 10
0
 20
0
 11
420
 21
297
 12
0
 22
0
 32
0
 14
0
 24
0
 34
0
 15
0
 25
0
 35
0
146
0
 13
0
 23
0
 33
0
 16
1
 26
0
 36
0
 17
0
 27
1
 37
0
 76
0
330
2E
  0
LAYOUT
  5
22
102
{ACAD_REACTORS
330
1A
102
}
330
1A
100
AcDbPlotSettings
  1

  2
C:\Program Files\AutoCAD 2002\plotters\DWF ePlot (optimized for plotting).pc3
  4

  6

 40
0
 41
0
 42
0
 43
0
 44
0
 45
0
 46
0
 47
0
 48
0
 49
0
140
0
141
0
142
1
143
1
 70
1712
 72
1
 73
1
 74
0
  7
acad.stb
 75
0
 76
0
 77
0
 78
0
147
1
148
0
149
0
100
AcDbLayout
  1
Model
 70
1
 71
0
 10
0
 20
0
 11
12
 21
9
 12
0
 22
0
 32
0
 14
0
 24
0
 34
0
 15
0
 25
0
 35
0
146
0
 13
0
 23
0
 33
0
 16
1
 26
0
 36
0
 17
0
 27
1
 37
0
 76
0
330
1F
  0
MLEADERSTYLE
  5
4A
102
{ACAD_REACTORS
330
49
102
}
330
49
100
AcDbMLeaderStyle
170
2
171
1
172
0
 90
2
 40
0
 41
0
173
1
 91
0
340
0
 92
-2
290
1
 42
0.09
292
1
 43
0.36
  3
Standard
341
0
 44
0.18
300

342
0
174
1
178
1
175
1
176
0
 93
0
 45
0.18
292
0
297
0
 46
0
343
0
 94
0
 47
1
 49
1
140
1
293
1
141
0
294
1
177
0
142
1
295
0
296
0
143
0.125
  0
MLINESTYLE
  5
18
102
{ACAD_REACTORS
330
17
102
}
330
17
100
AcDbMlineStyle
  2
STANDARD
 70
0
  3

 51
90
 52
90
 71
2
 49
0.5
 62
0
  6
ByLayer
 49
-0.5
 62
0
  6
ByLayer
  0
TABLESTYLE
  5
4C
102
{ACAD_XDICTIONARY
360
4D
102
}
102
{ACAD_REACTORS
330
4B
102
}
330
4B
100
AcDbTableStyle
  3

 70
0
 71
0
 40
0.06
 41
0.06
280
0
281
0
  7
Standard
140
0.18
170
1
 62
0
283
0
 90
512
 91
0
274
-2
284
1
 64
0
275
-2
285
1
 65
0
276
-2
286
1
 66
0
277
-2
287
1
 67
0
278
-2
288
1
 68
0
279
-2
289
1
 69
0
  7
Standard
140
0.18
170
1
 62
0
283
0
 90
512
 91
0
274
-2
284
1
 64
0
275
-2
285
1
 65
0
276
-2
286
1
 66
0
277
-2
287
1
 67
0
278
-2
288
1
 68
0
279
-2
289
1
 69
0
  7
Standard
140
0.18
170
1
 62
0
283
0
 90
512
 91
0
274
-2
284
1
 64
0
275
-2
285
1
 65
0
276
-2
286
1
 66
0
277
-2
287
1
 67
0
278
-2
288
1
 68
0
279
-2
289
1
 69
0
  0
DICTIONARYVAR
  5
51
102
{ACAD_REACTORS
330
50
102
}
330
50
100
DictionaryVariables
280
0
  1
1
  0
DICTIONARYVAR
  5
52
102
{ACAD_REACTORS
330
50
102
}
330
50
100
DictionaryVariables
280
0
  1
2
  0
ENDSEC
999
Created By CadLib version 4.0.38.30
999
CadLib website: www.woutware.com
  0
EOF
