  0
SECTION
  2
HEADER
  9
$ACADVER
  1
AC1015
  9
$DWGCODEPAGE
  3
ansi_1252
  9
$INSBASE
 10
0
 20
0
 30
0
  9
$EXTMIN
 10
1712.6460298030661
 20
533.07676151145745
 30
0
  9
$EXTMAX
 10
2498.9935388472786
 20
1998.9962024629904
 30
0
  9
$LIMMIN
 10
0
 20
0
  9
$LIMMAX
 10
12
 20
9
  9
$SNAPMODE
 70
0
  9
$SNAPUNIT
 10
1
 20
1
  9
$SNAPBASE
 10
0
 20
0
  9
$SNAPANG
 50
0
  9
$SNAPSTYLE
 70
0
  9
$SNAPISOPAIR
 70
0
  9
$ORTHOMODE
 70
0
  9
$REGENMODE
 70
1
  9
$FILLMODE
 70
1
  9
$QTEXTMODE
 70
0
  9
$MIRRTEXT
 70
1
  9
$LTSCALE
 40
1
  9
$OSMODE
 70
0
  9
$ATTMODE
 70
1
  9
$TEXTSIZE
 40
0.2
  9
$TRACEWID
 40
0.05
  9
$TEXTSTYLE
  7
Standard
  9
$CLAYER
  8
0
  9
$CELTYPE
  6
ByLayer
  9
$CECOLOR
 62
256
  9
$CELTSCALE
 40
1
  9
$DISPSILH
 70
0
  9
$DIMSCALE
 40
1
  9
$DIMASZ
 40
0.18
  9
$DIMEXO
 40
0.0625
  9
$DIMDLI
 40
0.38
  9
$DIMRND
 40
0
  9
$DIMDLE
 40
0
  9
$DIMEXE
 40
0.18
  9
$DIMTP
 40
0
  9
$DIMTM
 40
0
  9
$DIMTXT
 40
0.18
  9
$DIMCEN
 40
0.09
  9
$DIMTSZ
 40
0
  9
$DIMTOL
 70
0
  9
$DIMLIM
 70
0
  9
$DIMTIH
 70
1
  9
$DIMTOH
 70
1
  9
$DIMSE1
 70
0
  9
$DIMSE2
 70
0
  9
$DIMTAD
 70
0
  9
$DIMZIN
 70
0
  9
$DIMBLK
  1

  9
$DIMASO
 70
1
  9
$DIMSHO
 70
1
  9
$DIMPOST
  1

  9
$DIMAPOST
  1

  9
$DIMALT
 70
0
  9
$DIMALTD
 70
2
  9
$DIMALTF
 40
0.03937007874015748
  9
$DIMLFAC
 40
1
  9
$DIMTOFL
 70
0
  9
$DIMTVP
 40
0
  9
$DIMTIX
 70
0
  9
$DIMSOXD
 70
0
  9
$DIMSAH
 70
0
  9
$DIMBLK1
  1

  9
$DIMBLK2
  1

  9
$DIMSTYLE
  2
Standard
  9
$DIMCLRD
 70
0
  9
$DIMCLRE
 70
0
  9
$DIMCLRT
 70
0
  9
$DIMTFAC
 40
1
  9
$DIMGAP
 40
0.09
  9
$DIMJUST
 70
0
  9
$DIMSD1
 70
0
  9
$DIMSD2
 70
0
  9
$DIMTOLJ
 70
1
  9
$DIMTZIN
 70
0
  9
$DIMALTZ
 70
0
  9
$DIMALTTZ
 70
0
  9
$DIMUPT
 70
0
  9
$DIMDEC
 70
4
  9
$DIMTDEC
 70
4
  9
$DIMALTU
 70
2
  9
$DIMALTTD
 70
0
  9
$DIMTXSTY
  7
Standard
  9
$DIMAUNIT
 70
0
  9
$DIMADEC
 70
0
  9
$DIMALTRND
 40
0
  9
$DIMAZIN
 70
0
  9
$DIMDSEP
 70
46
  9
$DIMATFIT
 70
0
  9
$DIMFRAC
 70
0
  9
$DIMLDRBLK
  1

  9
$DIMLUNIT
 70
2
  9
$DIMLWD
 70
-2
  9
$DIMLWE
 70
-2
  9
$LUNITS
 70
2
  9
$LUPREC
 70
4
  9
$SKETCHINC
 40
0.1
  9
$FILLETRAD
 40
0
  9
$AUNITS
 70
0
  9
$AUPREC
 70
0
  9
$MENU
  1
.
  9
$ELEVATION
 40
0
  9
$PELEVATION
 40
0
  9
$THICKNESS
 40
0
  9
$LIMCHECK
 70
0
  9
$CHAMFERA
 40
0.5
  9
$CHAMFERB
 40
0.5
  9
$CHAMFERC
 40
0
  9
$CHAMFERD
 40
0
  9
$SKPOLY
 70
0
  9
$TDCREATE
 40
2460962.9914397108
  9
$TDUCREATE
 40
2460962.9497730439
  9
$TDUPDATE
 40
2460962.9914397108
  9
$TDUUPDATE
 40
2460962.9497730439
  9
$TDINDWG
 40
0
  9
$TDUSRTIMER
 40
1.1574074074074074E-08
  9
$USRTIMER
 70
1
  9
$ANGBASE
 50
0
  9
$ANGDIR
 70
1
  9
$PDMODE
 70
0
  9
$PDSIZE
 40
0
  9
$PLINEWID
 40
0
  9
$SPLFRAME
 70
0
  9
$SPLINETYPE
 70
6
  9
$SPLINESEGS
 70
8
  9
$HANDSEED
  5
58
  9
$SURFTAB1
 70
6
  9
$SURFTAB2
 70
6
  9
$SURFTYPE
 70
6
  9
$SURFU
 70
6
  9
$SURFV
 70
6
  9
$UCSORG
 10
0
 20
0
 30
0
  9
$UCSXDIR
 10
1
 20
0
 30
0
  9
$UCSYDIR
 10
0
 20
1
 30
0
  9
$UCSORTHOREF
  2

  9
$UCSORTHOVIEW
 70
0
  9
$UCSORGTOP
 10
0
 20
0
 30
0
  9
$UCSORGBOTTOM
 10
0
 20
0
 30
0
  9
$UCSORGLEFT
 10
0
 20
0
 30
0
  9
$UCSORGRIGHT
 10
0
 20
0
 30
0
  9
$UCSORGFRONT
 10
0
 20
0
 30
0
  9
$UCSORGBACK
 10
0
 20
0
 30
0
  9
$PUCSORG
 10
0
 20
0
 30
0
  9
$PUCSXDIR
 10
1
 20
0
 30
0
  9
$PUCSYDIR
 10
0
 20
1
 30
0
  9
$PUCSORTHOREF
  2

  9
$PUCSORTHOVIEW
 70
0
  9
$PUCSORGTOP
 10
0
 20
0
 30
0
  9
$PUCSORGBOTTOM
 10
0
 20
0
 30
0
  9
$PUCSORGLEFT
 10
0
 20
0
 30
0
  9
$PUCSORGRIGHT
 10
0
 20
0
 30
0
  9
$PUCSORGFRONT
 10
0
 20
0
 30
0
  9
$PUCSORGBACK
 10
0
 20
0
 30
0
  9
$USERI1
 70
0
  9
$USERI2
 70
0
  9
$USERI3
 70
0
  9
$USERI4
 70
0
  9
$USERI5
 70
0
  9
$USERR1
 40
0
  9
$USERR2
 40
0
  9
$USERR3
 40
0
  9
$USERR4
 40
0
  9
$USERR5
 40
0
  9
$WORLDVIEW
 70
1
  9
$SHADEDGE
 70
3
  9
$SHADEDIF
 70
70
  9
$TILEMODE
 70
1
  9
$MAXACTVP
 70
48
  9
$PINSBASE
 10
0
 20
0
 30
0
  9
$PLIMCHECK
 70
0
  9
$PEXTMIN
 10
1E+20
 20
1E+20
 30
1E+20
  9
$PEXTMAX
 10
-1E+20
 20
-1E+20
 30
-1E+20
  9
$PLIMMAX
 10
0
 20
0
  9
$PLIMMIN
 10
0
 20
0
  9
$UNITMODE
 70
0
  9
$VISRETAIN
 70
1
  9
$PLINEGEN
 70
1
  9
$PSLTSCALE
 70
1
  9
$TREEDEPTH
 70
3020
  9
$CMLSTYLE
  2
STANDARD
  9
$CMLJUST
 70
0
  9
$CMLSCALE
 40
1
  9
$PROXYGRAPHICS
 70
1
  9
$MEASUREMENT
 70
1
  9
$CELWEIGHT
370
-1
  9
$ENDCAPS
280
0
  9
$JOINSTYLE
280
0
  9
$LWDISPLAY
290
1
  9
$INSUNITS
 70
4
  9
$HYPERLINKBASE
  1

  9
$XEDIT
290
1
  9
$CEPSNTYPE
380
0
  9
$PSTYLEMODE
290
0
  9
$FINGERPRINTGUID
  2

  9
$VERSIONGUID
  2

  9
$EXTNAMES
290
1
  9
$PSVPSCALE
 40
0
  9
$CSHADOW
280
0
  9
$SHADOWPLANELOCATION
 40
0
  0
ENDSEC
  0
SECTION
  2
CLASSES
  0
CLASS
  1
RASTERVARIABLES
  2
AcDbRasterVariables
  3
ISM
 90
0
280
0
281
0
  0
CLASS
  1
IMAGEDEF
  2
AcDbRasterImageDef
  3
ISM
 90
0
280
0
281
0
  0
CLASS
  1
IMAGEDEF_REACTOR
  2
AcDbRasterImageDefReactor
  3
ISM
 90
1
280
0
281
0
  0
CLASS
  1
IMAGE
  2
AcDbRasterImage
  3
ISM
 90
127
280
0
281
1
  0
CLASS
  1
ACAD_EVALUATION_GRAPH
  2
AcDbEvalGraph
  3
ObjectDBX Classes
 90
1153
280
0
281
0
  0
CLASS
  1
BLOCKPOINTPARAMETER
  2
AcDbBlockPointParameter
  3
ObjectDBX Classes
 90
1153
280
0
281
0
  0
CLASS
  1
BLOCKBASEPOINTPARAMETER
  2
AcDbBlockBasepointParameter
  3
ObjectDBX Classes
 90
1153
280
0
281
0
  0
CLASS
  1
BLOCKLOOKUPPARAMETER
  2
AcDbBlockLookupParameter
  3
ObjectDBX Classes
 90
1153
280
0
281
0
  0
CLASS
  1
BLOCKVISIBILITYPARAMETER
  2
AcDbBlockVisibilityParameter
  3
ObjectDBX Classes
 90
1153
280
0
281
0
  0
CLASS
  1
BLOCKPROPERTIESTABLE
  2
AcDbBlockPropertiesTable
  3
ObjectDBX Classes
 90
1153
280
0
281
0
  0
CLASS
  1
BLOCKPOLARPARAMETER
  2
AcDbBlockPolarParameter
  3
ObjectDBX Classes
 90
1153
280
0
281
0
  0
CLASS
  1
BLOCKROTATIONPARAMETER
  2
AcDbBlockRotationParameter
  3
ObjectDBX Classes
 90
1153
280
0
281
0
  0
CLASS
  1
BLOCKLINEARPARAMETER
  2
AcDbBlockLinearParameter
  3
ObjectDBX Classes
 90
1153
280
0
281
0
  0
CLASS
  1
BLOCKXYPARAMETER
  2
AcDbBlockXYParameter
  3
ObjectDBX Classes
 90
1153
280
0
281
0
  0
CLASS
  1
BLOCKFLIPPARAMETER
  2
AcDbBlockFlipParameter
  3
ObjectDBX Classes
 90
1153
280
0
281
0
  0
CLASS
  1
BLOCKALIGNMENTPARAMETER
  2
AcDbBlockAlignmentParameter
  3
ObjectDBX Classes
 90
1153
280
0
281
0
  0
CLASS
  1
BLOCKROTATEACTION
  2
AcDbBlockRotateAction
  3
ObjectDBX Classes
 90
1153
280
0
281
0
  0
CLASS
  1
BLOCKSCALEACTION
  2
AcDbBlockScaleAction
  3
ObjectDBX Classes
 90
1153
280
0
281
0
  0
CLASS
  1
BLOCKARRAYACTION
  2
AcDbBlockArrayAction
  3
ObjectDBX Classes
 90
1153
280
0
281
0
  0
CLASS
  1
BLOCKFLIPACTION
  2
AcDbBlockFlipAction
  3
ObjectDBX Classes
 90
1153
280
0
281
0
  0
CLASS
  1
BLOCKLOOKUPACTION
  2
AcDbBlockLookupAction
  3
ObjectDBX Classes
 90
1153
280
0
281
0
  0
CLASS
  1
BLOCKMOVEACTION
  2
AcDbBlockMoveAction
  3
ObjectDBX Classes
 90
1153
280
0
281
0
  0
CLASS
  1
BLOCKPOLARSTRETCHACTION
  2
AcDbBlockPolarStretchAction
  3
ObjectDBX Classes
 90
1153
280
0
281
0
  0
CLASS
  1
BLOCKSTRETCHACTION
  2
AcDbBlockStretchAction
  3
ObjectDBX Classes
 90
1153
280
0
281
0
  0
CLASS
  1
BLOCKALIGNMENTGRIP
  2
AcDbBlockAlignmentGrip
  3
ObjectDBX Classes
 90
1153
280
0
281
0
  0
CLASS
  1
BLOCKFLIPGRIP
  2
AcDbBlockFlipGrip
  3
ObjectDBX Classes
 90
1153
280
0
281
0
  0
CLASS
  1
ACDB_BLOCKREPRESENTATION_DATA
  2
AcDbBlockRepresentationData
  3
ObjectDBX Classes
 90
1153
280
0
281
0
  0
CLASS
  1
ACDB_DYNAMICBLOCKPURGEPREVENTER_VERSION
  2
AcDbDynamicBlockPurgePreventer
  3
ObjectDBX Classes
 90
1153
280
0
281
0
  0
CLASS
  1
BLOCKLINEARGRIP
  2
AcDbBlockLinearGrip
  3
ObjectDBX Classes
 90
1153
280
0
281
0
  0
CLASS
  1
BLOCKLOOKUPGRIP
  2
AcDbBlockLookupGrip
  3
ObjectDBX Classes
 90
1153
280
0
281
0
  0
CLASS
  1
BLOCKPOLARGRIP
  2
AcDbBlockPolarGrip
  3
ObjectDBX Classes
 90
1153
280
0
281
0
  0
CLASS
  1
BLOCKPROPERTIESTABLEGRIP
  2
AcDbBlockPropertiesTableGrip
  3
ObjectDBX Classes
 90
1153
280
0
281
0
  0
CLASS
  1
BLOCKROTATIONGRIP
  2
AcDbBlockRotationGrip
  3
ObjectDBX Classes
 90
1153
280
0
281
0
  0
CLASS
  1
BLOCKVISIBILITYGRIP
  2
AcDbBlockVisibilityGrip
  3
ObjectDBX Classes
 90
1153
280
0
281
0
  0
CLASS
  1
BLOCKXYGRIP
  2
AcDbBlockXYGrip
  3
ObjectDBX Classes
 90
1153
280
0
281
0
  0
CLASS
  1
BLOCKGRIPLOCATIONCOMPONENT
  2
AcDbBlockGripExpr
  3
ObjectDBX Classes
 90
1153
280
0
281
0
  0
CLASS
  1
ACDB_DYNAMICBLOCKPROXYNODE
  2
AcDbDynamicBlockProxyNode
  3
ObjectDBX Classes
 90
1153
280
0
281
0
  0
CLASS
  1
BLOCKLINEARCONSTRAINTPARAMETER
  2
AcDbBlockLinearConstraintParameter
  3
ObjectDBX Classes
 90
1153
280
0
281
0
  0
CLASS
  1
BLOCKHORIZONTALCONSTRAINTPARAMETER
  2
AcDbBlockHorizontalConstraintParameter
  3
ObjectDBX Classes
 90
1153
280
0
281
0
  0
CLASS
  1
BLOCKVERTICALCONSTRAINTPARAMETER
  2
AcDbBlockVerticalConstraintParameter
  3
ObjectDBX Classes
 90
1153
280
0
281
0
  0
CLASS
  1
BLOCKALIGNEDCONSTRAINTPARAMETER
  2
AcDbBlockAlignedConstraintParameter
  3
ObjectDBX Classes
 90
1153
280
0
281
0
  0
CLASS
  1
BLOCKANGULARCONSTRAINTPARAMETER
  2
AcDbBlockAngularConstraintParameter
  3
ObjectDBX Classes
 90
1153
280
0
281
0
  0
CLASS
  1
BLOCKDIAMETRICCONSTRAINTPARAMETER
  2
AcDbBlockDiametricConstraintParameter
  3
ObjectDBX Classes
 90
1153
280
0
281
0
  0
CLASS
  1
BLOCKRADIALCONSTRAINTPARAMETER
  2
AcDbBlockRadialConstraintParameter
  3
ObjectDBX Classes
 90
1153
280
0
281
0
  0
ENDSEC
  0
SECTION
  2
TABLES
  0
TABLE
  2
VPORT
  5
8
330
0
100
AcDbSymbolTable
 70
1
  0
VPORT
  5
33
330
8
100
AcDbSymbolTableRecord
100
AcDbViewportTableRecord
  2
*Active
 70
64
 10
0
 20
0
 11
1
 21
1
 12
2105.8197843251723
 22
1266.0364819872239
 13
0
 23
0
 14
1
 24
1
 15
0
 25
0
 16
0
 26
0
 36
1
 17
0
 27
0
 37
0
 40
1465.919440951533
 41
0.53641931955946487
 42
50
 43
0
 44
0
 50
0
 51
0
 71
0
 72
20000
 73
20000
 74
1
 75
0
 76
0
 77
0
 78
0
281
0
 65
1
110
0
120
0
130
0
111
1
121
0
131
0
112
0
122
1
132
0
 79
0
146
0
  0
ENDTAB
  0
TABLE
  2
LTYPE
  5
5
100
AcDbSymbolTable
 70
3
  0
LTYPE
  5
16
330
5
100
AcDbSymbolTableRecord
100
AcDbLinetypeTableRecord
  2
Continuous
  3
Solid line
 70
64
 72
65
 73
0
 40
0
  0
LTYPE
  5
14
330
5
100
AcDbSymbolTableRecord
100
AcDbLinetypeTableRecord
  2
ByBlock
  3

 70
64
 72
65
 73
0
 40
0
  0
LTYPE
  5
15
330
5
100
AcDbSymbolTableRecord
100
AcDbLinetypeTableRecord
  2
ByLayer
  3

 70
64
 72
65
 73
0
 40
0
  0
ENDTAB
  0
TABLE
  2
LAYER
  5
2
100
AcDbSymbolTable
 70
4
  0
LAYER
  5
10
330
2
100
AcDbSymbolTableRecord
100
AcDbLayerTableRecord
 70
64
  2
0
 62
7
  6
Continuous
370
-3
390
F
  0
LAYER
  5
27
330
2
100
AcDbSymbolTableRecord
100
AcDbLayerTableRecord
 70
64
  2
layer0
 62
7
  6
Continuous
370
-3
390
F
  0
LAYER
  5
28
330
2
100
AcDbSymbolTableRecord
100
AcDbLayerTableRecord
 70
64
  2
layer1
 62
7
  6
Continuous
370
-3
390
F
  0
LAYER
  5
29
330
2
100
AcDbSymbolTableRecord
100
AcDbLayerTableRecord
 70
64
  2
DEFPOINTS
 62
7
  6
Continuous
290
0
370
-3
390
F
  0
ENDTAB
  0
TABLE
  2
STYLE
  5
3
100
AcDbSymbolTable
 70
1
  0
STYLE
  5
11
330
3
100
AcDbSymbolTableRecord
100
AcDbTextStyleTableRecord
  2
Standard
 70
64
 40
0
 41
1
 50
0
 71
0
 42
0.2
  3
txt.shx
  0
ENDTAB
  0
TABLE
  2
VIEW
  5
6
100
AcDbSymbolTable
 70
0
  0
ENDTAB
  0
TABLE
  2
UCS
  5
7
100
AcDbSymbolTable
 70
0
  0
ENDTAB
  0
TABLE
  2
APPID
  5
9
330
0
100
AcDbSymbolTable
 70
2
  0
APPID
  5
12
330
0
100
AcDbSymbolTableRecord
100
AcDbRegAppTableRecord
  2
ACAD
 70
64
  0
APPID
  5
56
330
0
100
AcDbSymbolTableRecord
100
AcDbRegAppTableRecord
  2
ACAD_MLEADERVER
 70
64
  0
ENDTAB
  0
TABLE
  2
DIMSTYLE
  5
A
330
0
100
AcDbSymbolTable
 70
1
100
AcDbDimStyleTable
 71
0
  0
DIMSTYLE
105
32
330
A
100
AcDbSymbolTableRecord
100
AcDbDimStyleTableRecord
  2
Standard
 70
64
  3

  4

 40
1
 41
0.18
 42
0.0625
 43
0.38
 44
0.18
 45
0
 46
0
 47
0
 48
0
140
0.18
141
0.09
142
0
143
1
144
1
145
0
146
1
147
0.09
148
0
 71
0
 72
0
 73
1
 74
1
 75
0
 76
0
 77
0
 78
0
 79
0
170
0
171
2
172
0
173
0
174
0
175
0
179
0
271
4
272
4
273
2
274
0
275
0
276
0
277
2
278
46
279
0
280
0
281
0
282
0
283
1
284
0
285
0
286
0
288
0
289
0
340
11
371
-2
372
-2
  0
ENDTAB
  0
TABLE
  2
BLOCK_RECORD
  5
1
330
0
100
AcDbSymbolTable
 70
3
  0
BLOCK_RECORD
  5
1F
330
1
100
AcDbSymbolTableRecord
100
AcDbBlockTableRecord
  2
*Model_Space
340
22
  0
BLOCK_RECORD
  5
2F
330
1
100
AcDbSymbolTableRecord
100
AcDbBlockTableRecord
  2
*Paper_Space
340
1E
  0
ENDTAB
  0
ENDSEC
  0
SECTION
  2
BLOCKS
  0
BLOCK
  5
20
330
1F
100
AcDbEntity
  8
0
100
AcDbBlockBegin
  2
*Model_Space
 70
64
 10
0
 20
0
 30
0
  3
*Model_Space
  0
ENDBLK
  5
21
330
1F
100
AcDbEntity
  8
0
100
AcDbBlockEnd
  0
BLOCK
  5
30
330
2F
100
AcDbEntity
  8
0
 67
1
100
AcDbBlockBegin
  2
*Paper_Space
 70
64
 10
0
 20
0
 30
0
  3
*Paper_Space
  0
ENDBLK
  5
31
330
2F
100
AcDbEntity
  8
0
100
AcDbBlockEnd
  0
ENDSEC
  0
SECTION
  2
ENTITIES
  0
LWPOLYLINE
  5
2A
330
1F
100
AcDbEntity
  8
layer0
 62
7
100
AcDbPolyline
 90
1229
 70
1
 10
2475.6005090999997
 20
1908.2137451000003
 42
0.00027597975471659904
 10
2475.5764074402332
 20
1911.5166741239805
 42
0.0020878192318811504
 10
2475.5365836268124
 20
1914.8277244986848
 42
0.0039012806610226707
 10
2475.4570492839393
 20
1918.140771532421
 42
0.0057316454245266617
 10
2475.3138160358162
 20
1921.4496905334954
 42
0.0075881381343284177
 10
2475.0828955066449
 20
1924.7483568102152
 42
0.0072001502193180444
 10
2474.8295130062497
 20
1927.2838134593753
 10
2474.7616419124997
 20
1927.8380126781253
 42
0.016475833873779051
 10
2474.3541751042312
 20
1930.315843236333
 42
0.0084855889325020171
 10
2474.0882108876476
 20
1931.5442890855206
 42
0.0086462384605224332
 10
2473.7803531813911
 20
1932.7628097748127
 42
0.00882901850721328
 10
2473.4302972744326
 20
1933.9691961492451
 42
0.0069604890388930123
 10
2473.1310266781247
 20
1934.8907470531253
 10
2472.7758020687497
 20
1935.8443603343753
 42
0.049019144242009566
 10
2471.3685238995108
 20
1938.4678681383621
 42
0.043902054975421566
 10
2469.502478821466
 20
1940.7838025018666
 42
0.039259344509019856
 10
2467.2661853886871
 20
1942.7713135726951
 42
0.035868889697582257
 10
2464.7481621552461
 20
1944.4095514986536
 42
0.060085327445904772
 10
2459.8678430843747
 20
1946.3902587718753
 10
2459.3041223812497
 20
1946.5330810375003
 42
0.0042556193686544815
 10
2458.9320584999759
 20
1946.618628823318
 42
0.0040702192692811355
 10
2458.55837818016
 20
1946.6980219809579
 42
0.003890037788094831
 10
2458.183355661728
 20
1946.7714814259157
 42
0.0037149787674473421
 10
2457.8072651846069
 20
1946.8392280736884
 42
0.0035449006660248708
 10
2457.4303809887228
 20
1946.9014828397719
 42
0.0026184789458456683
 10
2457.1390833187497
 20
1946.9459228343753
 10
2455.0253137874997
 20
1947.1707763500003
 42
0.016169045517276395
 10
2451.3221887874997
 20
1947.3260497875003
 42
0.0024094155241837028
 10
2433.7054869379349
 20
1947.4101765294472
 42
0.0019717002770442277
 10
2416.0819129192009
 20
1947.3399227658242
 42
0.0015354823991538095
 10
2398.4553670324754
 20
1947.1460186039571
 42
0.00110040877068334
 10
2380.8297495789366
 20
1946.8591941511711
 42
0.000665988687098944
 10
2363.2089608597616
 20
1946.5101795147923
 42
0.00020431020096868972
 10
2349.6127161312497
 20
1946.2176513500003
 42
0.000223400868991119
 10
2324.15610141669
 20
1945.6395423536237
 42
-0.000972866004510843
 10
2298.6822412608194
 20
1945.0992589554048
 42
-0.0021688766617766614
 10
2273.20013987456
 20
1944.7189598070734
 42
-0.0033671392114053571
 10
2247.7188014688345
 20
1944.6208035603579
 42
-0.0045686732412272011
 10
2222.2472302545639
 20
1944.9269488669877
 42
-0.0043851065037282082
 10
2202.5973352718747
 20
1945.5169677562503
 10
2202.0577844906247
 20
1945.5408935375003
 42
-0.0018584618138439721
 10
2200.66724569429
 20
1945.6205497734284
 42
-0.0017449807039460836
 10
2199.2753187253984
 20
1945.7103520847052
 42
-0.0016358708922414463
 10
2197.8830776903283
 20
1945.8096301070652
 42
-0.0015306559824838709
 10
2196.4915966954582
 20
1945.917713476244
 42
-0.0014288803316555806
 10
2195.1019498471683
 20
1946.0339318279766
 42
-0.0010325360046114704
 10
2194.0311731624997
 20
1946.1287841625003
 10
2193.5284876156247
 20
1946.1795654125003
 42
-0.017172673627337074
 10
2190.1887489746628
 20
1946.6920336205553
 42
-0.013780498550983287
 10
2186.8904538399865
 20
1947.4095203620291
 42
-0.010350406413158804
 10
2183.6276908176246
 20
1948.2860675958962
 42
-0.0069487796524942283
 10
2180.3945485136032
 20
1949.2757172811312
 42
-0.0035840035775227021
 10
2177.1851155339514
 20
1950.3325113767087
 42
-0.00037265406144062216
 10
2174.7201380062497
 20
1951.1651611156253
 10
2173.6495813656247
 20
1951.5750732250003
 42
-0.099377628736977489
 10
2168.9838098812497
 20
1954.8070068187503
 10
2167.8495325374997
 20
1956.1204833812503
 42
-0.088265030392197755
 10
2164.0717005062497
 20
1963.2025146312503
 42
-0.0086910504248268166
 10
2162.6557399796566
 20
1967.8322839798034
 42
-0.00528200773043009
 10
2161.3682569818325
 20
1972.50498109801
 42
-0.0018884322627312218
 10
2160.1467705161776
 20
1977.1999541958462
 42
0.0014953543083544951
 10
2158.9287995860918
 20
1981.8965514832862
 42
0.0048853981436389037
 10
2157.6518631949743
 20
1986.5741211703059
 42
0.0061990598553834705
 10
2156.5863489437497
 20
1990.1588134593753
 42
-0.007870219395591644
 10
2156.3592933422569
 20
1990.9375166022924
 42
-0.0017972887995167815
 10
2156.1407200670915
 20
1991.7440621806791
 42
0.0038124571296229122
 10
2155.9160715488183
 20
1992.5598171150818
 42
0.00953878666465571
 10
2155.6707902180033
 20
1993.3661483260457
 42
0.015903750357024838
 10
2155.3903185052109
 20
1994.1444227341162
 42
0.017579537497720947
 10
2155.1405481624997
 20
1994.7142333812503
 42
0.049825624993892086
 10
2154.7421480967637
 20
1995.3346829737502
 42
0.025228672959637783
 10
2154.1489159340167
 20
1996.022537719085
 42
0.016332710912220466
 10
2153.442674203457
 20
1996.7195825750678
 42
0.013314701796972852
 10
2152.7052454342829
 20
1997.3676024995107
 42
0.014468851136505713
 10
2152.0184521556926
 20
1997.9083824502272
 42
0.017659727972522653
 10
2151.5746301937497
 20
1998.2156982250003
 10
2151.1515344906247
 20
1998.3843993968753
 42
0.018507860804597258
 10
2150.4118838816571
 20
1998.4992483399596
 42
0.0088760614521979642
 10
2149.6585935785374
 20
1998.5744096073563
 42
-0.00035380252283138405
 10
2148.9000964590068
 20
1998.6371167473283
 42
-0.0095515675015346579
 10
2148.1448254008069
 20
1998.7146033081367
 42
-0.019067917427557767
 10
2147.4012132816797
 20
1998.8341028380444
 42
-0.0217078548546506
 10
2146.8404993343747
 20
1998.9722900218753
 10
2146.8142542171872
 20
1998.9829101390628
 42
-0.038336806705745706
 10
2146.80828976613
 20
1998.9859381380736
 42
-0.081022939995238158
 10
2146.8047592612575
 20
1998.9888261437441
 42
-0.61677012330699321
 10
2146.8061376402975
 20
1998.9931937979065
 42
-0.080085902858300292
 10
2146.8153220134236
 20
1998.995257254501
 10
2146.8193811703122
 20
1998.9956054515628
 42
-0.009908724157323098
 10
2146.8267809706822
 20
1998.9959314121729
 42
-0.02275703659915522
 10
2146.8316428823191
 20
1998.995864656396
 42
-1.81800402774271
 10
2146.8321610662933
 20
1998.9945882153659
 42
-0.030605484104534262
 10
2146.8237241122092
 20
1998.9924920156336
 10
2146.7887415218747
 20
1998.9857177562503
 42
0.0023719008890715652
 10
2146.4266743833209
 20
1998.9337894944535
 42
-0.00485562210012094
 10
2145.921513342872
 20
1998.8649667437064
 42
-0.010476201347425535
 10
2145.3541439433116
 20
1998.8050052037779
 42
-0.020368145769059803
 10
2144.8054517274209
 20
1998.779660574437
 42
-0.04682620869963431
 10
2144.3563222379826
 20
1998.8146885554527
 42
-0.10927749840438333
 10
2144.1288294124997
 20
1998.8992919750003
 10
2144.1547083187497
 20
1998.9045409984378
 42
-0.004867036046834335
 10
2144.1594974439276
 20
1998.9054502451181
 42
-0.012451166810956196
 10
2144.1833810918283
 20
1998.9091784864304
 42
-0.0078649633261029354
 10
2144.196145009068
 20
1998.9106444070658
 42
-0.0080888797976539969
 10
2144.2064661312497
 20
1998.9114990062503
 42
-0.0029325287577745122
 10
2144.2095776793772
 20
1998.9116845767687
 42
-6.0660881748457012
 10
2144.210385176043
 20
1998.911598538496
 42
-0.0054981085567991951
 10
2144.203327072848
 20
1998.9109141748918
 42
-0.0013820476119190633
 10
2144.1857703382075
 20
1998.9093949297935
 42
-0.000492139730771963
 10
2144.1626428890622
 20
1998.9074706859378
 10
2144.0929407406247
 20
1998.9017333812503
 42
-0.0048082547035411356
 10
2143.3583496793917
 20
1998.8613852464009
 42
-0.0030419284265701956
 10
2142.6229810704594
 20
1998.832565345404
 42
-0.0012780951371102421
 10
2141.8872005670628
 20
1998.810093590758
 42
0.00048406268505438231
 10
2141.151373822438
 20
1998.7887898949609
 42
0.0022472673886187824
 10
2140.41586648982
 20
1998.7634741705115
 42
0.0029944540843339354
 10
2139.8485559749997
 20
1998.7379150218753
 42
-0.00051838119840208659
 10
2126.814177296556
 20
1998.0834709030569
 42
-0.00038386748676667203
 10
2113.7767154236421
 20
1997.4524545182944
 42
-0.00024948928017633009
 10
2100.7375720269943
 20
1996.8379108383392
 42
-0.00011518326306201503
 10
2087.6981487773478
 20
1996.232884833943
 10
2081.1787702297552
 20
1995.9317675134389
 42
8.6283799010004563E-05
 10
2068.1415553332408
 20
1995.3279773425397
 10
2064.5370325374997
 20
1995.1607665843753
 42
0.027039189955088229
 10
2062.3283103842032
 20
1994.6119006206127
 42
0.026271322305012324
 10
2060.0250444185363
 20
1993.7744324182288
 42
0.029293526518433703
 10
2057.7686738826192
 20
1992.660245707375
 42
0.036120896849999772
 10
2055.700638018573
 20
1991.2812242182013
 42
0.047632442909529712
 10
2053.9623760685195
 20
1989.6492516808589
 42
0.048530992636326015
 10
2052.9354700374997
 20
1988.2239990062503
 10
2052.6988977718747
 20
1987.7506103343753
 42
-0.0019703533730069554
 10
2051.4124388739133
 20
1984.9637159450258
 42
0.0021653635079965637
 10
2050.1072772678049
 20
1982.1329378219048
 42
0.0062295086845442164
 10
2048.8421840933665
 20
1979.2634179636361
 42
0.010431926128247445
 10
2047.6759304904142
 20
1976.360298368842
 42
0.014938071665567727
 10
2046.6672875987626
 20
1973.4287210361456
 42
0.015020908332757191
 10
2046.0336145687504
 20
1971.1495361156253
 42
-0.0025026470418178719
 10
2045.2726579310527
 20
1968.0831601944769
 42
-0.0091134179444277083
 10
2044.4560464918948
 20
1965.0904850503975
 42
-0.01587733953297786
 10
2043.5028870907183
 20
1962.1788618369742
 42
-0.022371081730142336
 10
2042.3322865669654
 20
1959.355641707793
 42
-0.027876530588033119
 10
2040.8633517600774
 20
1956.6281758164416
 42
-0.024144155442989489
 10
2039.4742883968754
 20
1954.5928954906253
 10
2039.0126184750004
 20
1953.9207763500003
 42
-0.034811651957227567
 10
2034.7672089949826
 20
1947.9755002249062
 42
-0.027806234259593023
 10
2029.9032158154967
 20
1942.7125419862459
 42
-0.0194718964777134
 10
2024.5748150996969
 20
1937.9441996398436
 42
-0.010839490953021075
 10
2018.9361830107375
 20
1933.4827711915236
 42
-0.0023355994693719882
 10
2013.1414957117729
 20
1929.14055464711
 42
0.0041437004765565548
 10
2008.6591028500004
 20
1925.7515868968753
 42
-0.010786220805713545
 10
2008.1280242289538
 20
1925.3631943803052
 42
-0.0021776663483539698
 10
2007.5554566623994
 20
1924.966229995021
 42
0.0052391665500683112
 10
2006.9717569866518
 20
1924.5561230755798
 42
0.012960812893189502
 10
2006.4072820380259
 20
1924.1283029565393
 42
0.022345727111661676
 10
2005.8923886528362
 20
1923.6781989724568
 42
0.026091227907956968
 10
2005.5480188656254
 20
1923.3126220531253
 10
2005.5878137875004
 20
1923.3477783031253
 42
0.0015057959428547369
 10
2005.5973688838055
 20
1923.3562770678709
 42
0.0030494602962774023
 10
2005.6039365089598
 20
1923.3622155917246
 42
0.033098145944021121
 10
2005.6069186341358
 20
1923.3651158258285
 42
0.040013932560215286
 10
2005.6027310958493
 20
1923.3618544821306
 42
0.00263383418150475
 10
2005.5923303890629
 20
1923.3531493968753
 10
2005.5570520687504
 20
1923.3233642406253
 42
-0.00049386215006875893
 10
1997.2250504711592
 20
1916.3698129966606
 42
-0.00032240866594011891
 10
1988.8815084780015
 20
1909.429707260407
 42
-0.00015097533098900893
 10
1980.5312862301982
 20
1902.4974098778187
 10
1976.3551888048421
 20
1899.0324277085097
 42
0.00010616099624030686
 10
1968.0040589392963
 20
1892.1012731925832
 42
0.00027759486630956433
 10
1959.6583991714062
 20
1885.1638341452071
 10
1957.3905481625004
 20
1883.2755126781253
 42
0.00046528009832384726
 10
1946.5841373176306
 20
1874.2547827273841
 42
0.00018026295382648333
 10
1935.7888313186311
 20
1865.2196478301703
 42
-0.00010470705688033287
 10
1924.9946737326129
 20
1856.1827001697789
 42
-0.000389683159812842
 10
1914.1917081266865
 20
1847.1565319295034
 42
-0.00067471449947265592
 10
1903.3699780679633
 20
1838.1537352926389
 42
-0.00072419163367333972
 10
1894.9972376156254
 20
1831.2281493968753
 42
-0.0020313090032631491
 10
1893.200968321534
 20
1829.7589906764317
 42
-0.0021598088429642622
 10
1891.3920718291802
 20
1828.3046373035231
 42
-0.0022891819484918132
 10
1889.5701443964497
 20
1826.8663081222676
 42
-0.0024194532151156243
 10
1887.7347822812283
 20
1825.4452219767827
 42
-0.0025506296369787636
 10
1885.8855817414021
 20
1824.0425977111868
 42
-0.0020630911131101519
 10
1884.4484094906254
 20
1822.9732665843753
 10
1884.0414270687504
 20
1822.6746826000003
 42
-0.00095037302456200577
 10
1883.7673447587811
 20
1822.4756050767187
 42
-0.00094260444741946984
 10
1883.4925225890534
 20
1822.2775751980626
 42
-0.00093482258674854458
 10
1883.2169681773428
 20
1822.0805853462566
 42
-0.00092702851662382715
 10
1882.9406891414253
 20
1821.8846279035245
 42
-0.00091922328849589627
 10
1882.6636930990762
 20
1821.6896952520906
 42
-0.014428379085796111
 10
1878.1895478557262
 20
1818.7427885468496
 42
-0.0090836259970344339
 10
1875.2675414479993
 20
1817.0091856251543
 42
-0.0034861585327632585
 10
1874.1232141781254
 20
1816.3685302562503
 42
-0.00052098452540193664
 10
1873.9925621545447
 20
1816.2968248315569
 42
-0.00035954930798297779
 10
1873.8381456110681
 20
1816.2124166991125
 42
-0.00032686298203678634
 10
1873.6725186421115
 20
1816.1221694748563
 42
-0.00037316018158768915
 10
1873.5082353420898
 20
1816.0329467747281
 42
-0.00052613014217759086
 10
1873.3578498054194
 20
1815.9516122146674
 42
-0.000693319949154222
 10
1873.2592005062504
 20
1815.8985595531253
 10
1872.8321985531254
 20
1815.6719970531253
 42
-0.00093377983980090452
 10
1872.7114740972436
 20
1815.6089879922224
 42
-0.0002364695653830043
 10
1872.5498820122814
 20
1815.5250684043965
 42
5.3292148346417348E-05
 10
1872.3692548435035
 20
1815.4313373888972
 42
0.00032301725004899647
 10
1872.1914251361736
 20
1815.338894044974
 42
0.00082164128990628216
 10
1872.0382254355561
 20
1815.2588374718773
 42
0.0017880678670671535
 10
1871.9506067562504
 20
1815.2125243968753
 10
1871.1498255062504
 20
1814.7630615062503
 42
-0.00655798545761938
 10
1868.3245144035329
 20
1813.1412124379035
 42
-0.0074573776788944826
 10
1865.4640792071502
 20
1811.6041577663673
 42
-0.0083368434585125543
 10
1862.5615801234051
 20
1810.160756964824
 42
-0.0091823963817486819
 10
1859.6100773586011
 20
1808.8198695064566
 42
-0.00997779337673641
 10
1856.6026311190406
 20
1807.5903548644478
 42
-0.0082214665687318587
 10
1854.2384485531254
 20
1806.7230224437503
 42
-0.00082912878088520431
 10
1853.965180397912
 20
1806.6284199796291
 42
-0.000826455531915548
 10
1853.6915469904013
 20
1806.5347045186181
 42
-0.00082403363225528106
 10
1853.4175788016958
 20
1806.441883678493
 42
-0.00082186172053902657
 10
1853.1433063028987
 20
1806.34996507703
 42
-0.00081993866364176837
 10
1852.8687599651128
 20
1806.2589563320039
 42
-0.000631738169556126
 10
1852.6566614437504
 20
1806.1893310375003
 42
-0.00088064152933033742
 10
1852.3815093275082
 20
1806.0999713779279
 42
-0.00086390100897671947
 10
1852.1060206926838
 20
1806.0115638066718
 42
-0.00084723235072661687
 10
1851.8302107748289
 20
1805.9240930881806
 42
-0.00083063445220528875
 10
1851.5540948094942
 20
1805.8375439869028
 42
-0.00081410611725540546
 10
1851.2776880322317
 20
1805.7519012672869
 42
-0.00061669069231583566
 10
1851.0641321468754
 20
1805.6864013500003
 42
-0.00084864487352152515
 10
1850.7872047876192
 20
1805.6023517829829
 42
-0.00084266200984368944
 10
1850.5099485275566
 20
1805.5192255705667
 42
-0.0008368535737238972
 10
1850.2323862200146
 20
1805.4370227127515
 42
-0.00083121763549184186
 10
1849.9545407183205
 20
1805.3557432095379
 42
-0.00082575236013667582
 10
1849.6764348758013
 20
1805.2753870609249
 42
-0.00063364279740454616
 10
1849.4615930843754
 20
1805.2139892406253
 42
-0.0080466802355959252
 10
1843.4708216312613
 20
1803.6125399556252
 42
-0.0081157064411984826
 10
1837.4252449596684
 20
1802.204058551416
 42
-0.0082062884039053319
 10
1831.3339891649305
 20
1800.9930166623562
 42
-0.0083180539846512622
 10
1825.2061803423812
 20
1799.9838859228039
 42
-0.0084505946086218149
 10
1819.0509445873545
 20
1799.1811379671167
 42
-0.0066318318109340182
 10
1814.2865442562504
 20
1798.7054443187503
 42
-0.0020119871979426491
 10
1811.8156927316857
 20
1798.5030869972638
 42
-0.00065042229018641461
 10
1809.3440211602554
 20
1798.3139068239066
 42
0.00071150767183596479
 10
1806.87251223503
 20
1798.1244355711735
 42
0.0020735202521412056
 10
1804.4021486490794
 20
1797.9212050115609
 42
0.0034346995496300388
 10
1801.9339130954738
 20
1797.6907469175646
 42
0.003619758772017491
 10
1800.0306848812504
 20
1797.4857177562503
 42
0.0029212659490286692
 10
1799.1029044668592
 20
1797.3733278727063
 42
0.0030555372417021133
 10
1798.1760800164977
 20
1797.2497963908049
 42
0.0031927520795456028
 10
1797.2506838322613
 20
1797.1146662440019
 42
0.0033330060250375232
 10
1796.3271882162464
 20
1796.9674803657531
 42
0.0034763712102777629
 10
1795.4060654705484
 20
1796.8077816895136
 42
0.00278798024079441
 10
1794.6969446468754
 20
1796.6756591625003
 10
1793.8693079281254
 20
1796.5030517406253
 42
0.0314097824625181
 10
1789.608780347573
 20
1795.2501221946918
 42
0.014124740291329865
 10
1787.7801966000004
 20
1794.5255126781253
 10
1786.6664270687504
 20
1794.0008544750003
 42
0.0031106083248053171
 10
1786.4798210845277
 20
1793.9025961174762
 42
0.0031350097695460252
 10
1786.2943905097302
 20
1793.8019786551004
 42
0.0031617143107832866
 10
1786.1102115221156
 20
1793.6990173234244
 42
0.0031907251544274263
 10
1785.927360299441
 20
1793.5937273580003
 42
0.003222047329616748
 10
1785.7459130194641
 20
1793.4861239943791
 42
0.0025111553930823247
 10
1785.6068567562504
 20
1793.4014892406253
 10
1783.5780481625004
 20
1791.8983154125003
 42
0.10408657976554868
 10
1780.2406458187504
 20
1787.4073486156253
 10
1779.4762415218754
 20
1785.3638915843753
 42
0.046597359460494224
 10
1778.1219934750004
 20
1778.8365478343753
 10
1778.0355676937504
 20
1777.9454345531253
 42
0.0037707673665508079
 10
1777.9584834489663
 20
1776.9341385041562
 42
0.0038361181846165372
 10
1777.8967355240422
 20
1775.9208764008363
 42
0.0039078692308627217
 10
1777.8506667188865
 20
1774.9063643140855
 42
0.0039861110842203326
 10
1777.8206198334071
 20
1773.8913183148225
 42
0.0040709484795748074
 10
1777.8069376675123
 20
1772.8764544739668
 42
0.0032077023714528739
 10
1777.8077844906254
 20
1772.0936279125003
 42
0.0046251550465463741
 10
1777.9491553731734
 20
1763.9231861700778
 42
0.0030140531244961973
 10
1778.215332150309
 20
1755.7561523799311
 42
0.0014024561917404159
 10
1778.5536607561337
 20
1747.5911858135307
 42
-0.00020864530057911832
 10
1778.9114871247482
 20
1739.426945742347
 42
-0.0018200088973177174
 10
1779.2361571902545
 20
1731.2620914378497
 42
-0.0025547579422549337
 10
1779.4308313656254
 20
1724.9581298656253
 42
0.00057992254240778369
 10
1779.821280734355
 20
1710.9562547444298
 42
-0.0029422636836922505
 10
1780.1457644410743
 20
1696.9440173100511
 42
-0.0064744885487558251
 10
1780.2063650543435
 20
1682.9356780386706
 42
-0.0100253011236539
 10
1779.8051651427224
 20
1668.945497406469
 42
-0.013564273891765746
 10
1778.7442472747709
 20
1654.9877358896272
 42
-0.012925198421883874
 10
1777.3490442562504
 20
1644.2445068187503
 42
-0.012433554500177222
 10
1776.5128228515921
 20
1639.6978782420094
 42
-0.0076773587100411548
 10
1775.494293240479
 20
1635.1880329637979
 42
-0.0029210034006166303
 10
1774.3797114975885
 20
1630.6978919309122
 42
0.0018249178127306824
 10
1773.2553336975984
 20
1626.2103760901487
 42
0.0065814919302323565
 10
1772.2074159151859
 20
1621.7084063883026
 42
0.0084820487447507271
 10
1771.5052942562504
 20
1618.2125243968753
 10
1771.5008997250004
 20
1618.1558837718753
 42
-0.0052888880443330705
 10
1771.4260921247135
 20
1617.4103081032492
 42
-0.0036198666926532358
 10
1771.3379753348033
 20
1616.6658617364562
 42
-0.0019543617546750693
 10
1771.2415313806018
 20
1615.922179018261
 42
-0.00029173873637054792
 10
1771.1417422874417
 20
1615.1788942954283
 42
0.0013712292422680752
 10
1771.0435900806553
 20
1614.4356419147221
 42
0.0022473083812773963
 10
1770.9720911312504
 20
1613.8616943187503
 42
0.0022748565965759375
 10
1770.7879609393913
 20
1612.2602415853753
 42
0.0018404558834849796
 10
1770.616961253553
 20
1610.6568040873228
 42
0.0014072629668837036
 10
1770.4563496744697
 20
1609.0519912466518
 42
0.0009749776245072207
 10
1770.3033838028762
 20
1607.4464124854212
 42
0.00054317470013367261
 10
1770.1553212395067
 20
1605.8406772256903
 42
0.00011130517987021411
 10
1770.0426477718754
 20
1604.6014404125003
 42
0.00071657523916024608
 10
1770.038031753875
 20
1604.5497946520836
 42
0.00046068635093412966
 10
1770.0335382885114
 20
1604.4981488916674
 42
0.00020454678211748447
 10
1770.0291140513543
 20
1604.4465031312507
 10
1770.0247057179738
 20
1604.3948573708342
 42
-0.00030792216386678806
 10
1770.0202599639392
 20
1604.3432116104177
 42
-0.00042033023803050043
 10
1770.0167688656254
 20
1604.3033447093753
 10
1770.0035852718754
 20
1604.1541747875003
 42
0.00018844258658810988
 10
1769.9905748203246
 20
1604.0055821942624
 42
0.00012486104772583954
 10
1769.9776581876952
 20
1603.8569896010254
 42
6.1262861408240539E-05
 10
1769.9647972851087
 20
1603.7083970077874
 10
1769.9519540236863
 20
1603.55980441455
 42
-6.5949426286772485E-05
 10
1769.9390903145493
 20
1603.411211821312
 42
-9.6269047959206291E-05
 10
1769.9291223812504
 20
1603.2965087718753
 10
1769.9054407406254
 20
1603.0260009593753
 42
2.9319309710081632E-05
 10
1769.5586298079086
 20
1599.0484325176744
 42
2.1654261484532397E-05
 10
1769.2122246219808
 20
1595.0708315333704
 42
1.3989207694038343E-05
 10
1768.86610329843
 20
1591.0932094331265
 10
1767.9071497250004
 20
1580.0675048656253
 42
-0.0067404259707036125
 10
1767.8810170839517
 20
1579.8122373659576
 42
-0.0018970262721146748
 10
1767.8499422438956
 20
1579.5526859366373
 42
0.0026988783428730984
 10
1767.8190519679029
 20
1579.2910521148515
 42
0.0073436825112226
 10
1767.7934730190457
 20
1579.0295374377888
 42
0.012305723340542363
 10
1767.7783321603949
 20
1578.7703434426376
 42
0.013412124365672233
 10
1767.7770227718754
 20
1578.5732421703128
 42
0.01536831989540614
 10
1767.8343589510948
 20
1577.5074498597173
 42
0.009872681358007342
 10
1767.9465008832938
 20
1576.4343190250711
 42
0.0046539938896034364
 10
1768.0906485656901
 20
1575.3577233053359
 42
-0.00042348605741674225
 10
1768.2440019955006
 20
1574.2815363394748
 42
-0.005546025140802973
 10
1768.3837611699425
 20
1573.20963176645
 42
-0.0080928033977528523
 10
1768.4679407406254
 20
1572.3875732250003
 42
-0.0013461738008652038
 10
1768.6751309206154
 20
1569.8730612282088
 42
-0.00075903764267583069
 10
1768.8717364017816
 20
1567.3576449880811
 42
-0.00017195338015871153
 10
1769.0636609603209
 20
1564.8418272778158
 42
0.00041511008110429434
 10
1769.2568083724298
 20
1562.3261108706115
 42
0.0010022122814652124
 10
1769.4570824143048
 20
1559.8109985396668
 42
0.001192407674673372
 10
1769.6202844906254
 20
1557.8702392406253
 10
1769.6608118343754
 20
1557.4165038890628
 42
0.0079209011602281842
 10
1769.9244837093754
 20
1555.0186767406253
 42
0.0019597344048571702
 10
1770.0087349317571
 20
1554.3706031161626
 42
0.0020218329783891075
 10
1770.0981510060597
 20
1553.7231705208424
 42
0.0020843032006018503
 10
1770.1928842877978
 20
1553.076470367974
 42
0.0021471339953812773
 10
1770.2930871324866
 20
1552.4305940708664
 42
0.002210310371280303
 10
1770.3989118956404
 20
1551.7856330428281
 42
0.0017514899737299592
 10
1770.4845423031254
 20
1551.2884521312503
 42
0.0006026016193283961
 10
1770.54165278827
 20
1550.9657818135036
 42
0.00067863271435428252
 10
1770.5996021642579
 20
1550.6431906137086
 42
0.00075486744053337692
 10
1770.6584818443973
 20
1550.3207356651828
 42
0.00083135389494323384
 10
1770.718383241998
 20
1549.9984741012447
 42
0.00090813832063826937
 10
1770.779397770368
 20
1549.6764630552118
 42
0.0007560253788090448
 10
1770.8273157406254
 20
1549.4281005687503
 10
1771.1083216000004
 20
1548.2292480296878
 42
0.043544944556458132
 10
1772.0504313176609
 20
1546.0036811979239
 42
0.034404662583675236
 10
1773.3592210640611
 20
1543.8965587502341
 42
0.027097921360997475
 10
1774.9461570495785
 20
1541.9267346815691
 42
0.021634001909540655
 10
1776.72270548459
 20
1540.1130629868792
 42
0.01768799168114284
 10
1778.6003325794725
 20
1538.4743976611153
 42
0.01169473351509176
 10
1780.0629114437504
 20
1537.3410644359378
 42
0.0066930077478758931
 10
1780.8845725775459
 20
1536.7509827306428
 42
0.0073117176127713
 10
1781.7252546290167
 20
1536.1822199052294
 42
0.0079756946253990921
 10
1782.5841044072802
 20
1535.6386610253226
 42
0.0086882619324365751
 10
1783.4602687214535
 20
1535.1241911565498
 42
0.0094515436006966866
 10
1784.3528943806543
 20
1534.6426953645366
 42
0.00787605758090213
 10
1785.0526575375004
 20
1534.2960204906253
 10
1785.4598841000004
 20
1534.1103515453128
 42
0.011954957386157972
 10
1788.8398853726926
 20
1532.7350172012182
 42
0.010598456762211833
 10
1792.3215231421395
 20
1531.497837834733
 42
0.0094919254337831518
 10
1795.8720638259967
 20
1530.3943760914897
 42
0.008597099871710848
 10
1799.4587738419193
 20
1529.4201946171215
 42
0.0078846960919834
 10
1803.0489196075625
 20
1528.5708560572609
 42
0.005692923880816058
 10
1805.8019251156254
 20
1527.9978027171878
 42
0.0021413395897489527
 10
1806.2238673899863
 20
1527.9168823191685
 42
0.0020188693144298558
 10
1806.64654604933
 20
1527.8394610862726
 42
0.0018970676764937106
 10
1807.0698620625724
 20
1527.7653447652187
 42
0.0017759165282142718
 10
1807.4937163986285
 20
1527.6943391027255
 42
0.0016553847535476112
 10
1807.9180100264141
 20
1527.6262498455112
 42
0.0011922771294545522
 10
1808.2457727718754
 20
1527.5755615062503
 42
0.010742827809624229
 10
1811.2430674938425
 20
1527.1883660687547
 42
0.0074938255486337963
 10
1814.2483974990539
 20
1526.9111565442472
 42
0.0042153455059908895
 10
1817.2591575082072
 20
1526.7044233388649
 42
0.000934301874962192
 10
1820.272742242
 20
1526.5286568587442
 42
-0.0023440660596673588
 10
1823.2865464211307
 20
1526.3443475100216
 42
-0.0041456871576854692
 10
1825.6114954281254
 20
1526.1712646312503
 42
0.0025939166529389411
 10
1832.6275963546132
 20
1525.6269788326954
 42
0.0012766230339751627
 10
1839.6476863226437
 20
1525.1370223419444
 42
-4.0650717470138827E-05
 10
1846.6689391374189
 20
1524.6644222844541
 42
-0.0013580250865281611
 10
1853.68852860414
 20
1524.1722057856821
 42
-0.0026755866922898003
 10
1860.7036285280078
 20
1523.6233999710855
 42
-0.0030045489995353543
 10
1866.1139368343754
 20
1523.1376952953128
 10
1866.5782923031254
 20
1523.0958251781253
 42
-0.0050908010402106168
 10
1869.8961111675305
 20
1522.7869951117736
 42
-0.004596526434496399
 10
1873.1974637420465
 20
1522.4150253789164
 42
-0.0040774130007115248
 10
1876.4875605852783
 20
1521.986379662266
 42
-0.0035393416402692119
 10
1879.77161225583
 20
1521.5075216445368
 42
-0.0029879774776116062
 10
1883.0548293123065
 20
1520.9849150084412
 42
-0.00190745575735258
 10
1885.5919641781254
 20
1520.5556640453128
 42
0.0053159001405839092
 10
1894.5133652043064
 20
1519.1104451583763
 42
0.0050066780291729606
 10
1903.4744509660754
 20
1517.8480099210979
 42
0.0047101657254741969
 10
1912.4642975730246
 20
1516.7591941492658
 42
0.0044257727160938393
 10
1921.4719811347466
 20
1515.8348336586669
 42
0.0041527905017453718
 10
1930.4865777608331
 20
1515.0657642650895
 42
0.0030184413506007496
 10
1937.4430383968754
 20
1514.5725097484378
 10
1938.3468469906254
 20
1514.5031738109378
 42
0.011763016057876141
 10
1945.3721712028921
 20
1514.0507190975095
 42
0.008594101084406067
 10
1952.4080229138533
 20
1513.8847254927011
 42
0.0054119857155461781
 10
1959.4504637334533
 20
1513.9158707671006
 42
0.0022397699030693888
 10
1966.4955552716349
 20
1514.0548326912958
 42
-0.0009256666993582638
 10
1973.5393591383429
 20
1514.2122890358751
 42
-0.0029769978679492965
 10
1978.9733118343754
 20
1514.2900390453128
 42
0.0048713173344423644
 10
1984.3124227057158
 20
1514.39285154043
 10
1989.6382015341057
 20
1514.5473950800456
 42
-0.004900334730072402
 10
1994.95560749155
 20
1514.6495956120316
 42
-0.0098062769651157729
 10
2000.2695997500539
 20
1514.5953790842602
 42
-0.014636305993569366
 10
2005.5851374816227
 20
1514.2806714446035
 42
-0.014562882151667249
 10
2009.6925501156254
 20
1513.7938232250003
 10
2010.9571985531254
 20
1513.5908202953128
 42
-0.0017187660246912207
 10
2011.284785449863
 20
1513.5326512459121
 42
-0.0017130386796853465
 10
2011.6119977391397
 20
1513.4722292059389
 42
-0.0017075310667699409
 10
2011.938812567628
 20
1513.4095656020568
 42
-0.0017022437129902337
 10
2012.2652070820011
 20
1513.3446718609293
 42
-0.0016971771547026546
 10
2012.5911584289315
 20
1513.2775594092202
 42
-0.0013066393271309934
 10
2012.8424524593754
 20
1513.2242431468753
 42
-0.0034474892789022409
 10
2013.4917255153889
 20
1513.0799829003245
 42
-0.0034655635863886413
 10
2014.1390206226247
 20
1512.9267414966994
 42
-0.0034849244845763473
 10
2014.784162572241
 20
1512.7645075093358
 42
-0.0035055556745360811
 10
2015.4269761553958
 20
1512.59326951157
 42
-0.0035274397345619406
 10
2016.0672861632472
 20
1512.413016076739
 42
-0.002739392899705202
 10
2016.5597376156254
 20
1512.2677001781253
 42
-0.0010521978906704581
 10
2016.8775358535374
 20
1512.1713288982617
 42
-0.00118476674202831
 10
2017.1950861796256
 20
1512.0734794358002
 42
-0.0013183144545781318
 10
2017.5122286205994
 20
1511.974014670777
 42
-0.0014530697596803128
 10
2017.8288032031683
 20
1511.8727974832289
 42
-0.0015892534487957476
 10
2018.1446499540418
 20
1511.7696907531924
 42
-0.0013250758514824674
 10
2018.3878626156254
 20
1511.6887206859378
 10
2018.6902307796879
 20
1511.5828857250003
 42
-0.0018325916005334369
 10
2018.7158748855661
 20
1511.5737572241087
 42
-0.0024399154107139056
 10
2018.7864717530458
 20
1511.5479790721145
 42
-0.0030067855249383464
 10
2018.8925182068938
 20
1511.5079622950386
 42
-0.0037759084675877855
 10
2019.0245110718777
 20
1511.456117918902
 42
-0.0048748310665068318
 10
2019.1729471727649
 20
1511.3948569697257
 42
-0.0049101578643479154
 10
2019.2927698421879
 20
1511.3426513500003
 42
-0.0024033983974352789
 10
2019.3182230693271
 20
1511.3310420603141
 42
-0.0031882354157705675
 10
2019.3882752324334
 20
1511.2981871951727
 42
-0.0039104937117012545
 10
2019.4934650540411
 20
1511.247046260449
 42
-0.0048810561958944993
 10
2019.6243312566837
 20
1511.1805787620176
 42
-0.0062510373892585578
 10
2019.7714125628954
 20
1511.1017442057525
 42
-0.0062317338288669704
 10
2019.8900598812504
 20
1511.0343017406253
 10
2020.7733606625004
 20
1510.4532470531253
 42
-0.006100734451328655
 10
2021.5694959969314
 20
1509.8684173849181
 42
-0.0062237727191494351
 10
2022.3512743634333
 20
1509.2639158133227
 42
-0.0063551183325341815
 10
2023.1177054511604
 20
1508.6398566049745
 42
-0.00649443903305943
 10
2023.8677989492664
 20
1507.9963540265107
 42
-0.0066413385160868895
 10
2024.6005645469056
 20
1507.3335223445661
 42
-0.0052363126862694466
 10
2025.1537317562504
 20
1506.8087158031253
 42
-0.022018532838704172
 10
2027.2678242675217
 20
1504.5737574858633
 42
-0.023317669370114494
 10
2029.1600203278713
 20
1502.1705408129742
 42
-0.024713043651064567
 10
2030.8064610636886
 20
1499.6071901422818
 42
-0.026114143754419415
 10
2032.183287601363
 20
1496.8918298316107
 42
-0.027401558061763163
 10
2033.2666410672844
 20
1494.0325842387849
 42
-0.02188595443785674
 10
2033.8871301937504
 20
1491.7321777171878
 42
-0.0017848708818934064
 10
2033.9860552437904
 20
1491.2816250716151
 42
-0.0015800892021108695
 10
2034.0820388968984
 20
1490.8299815472005
 42
-0.0013781285457446356
 10
2034.1753934818792
 20
1490.3775632816371
 42
-0.0011784249040825362
 10
2034.2664313275386
 20
1489.924686412618
 42
-0.00098039931152504715
 10
2034.3554647626815
 20
1489.4716670778364
 42
-0.00061634127193686762
 10
2034.4230188656254
 20
1489.1220702953128
 42
-0.0021705990915995474
 10
2034.4737506887357
 20
1488.8510130904549
 42
-0.0021744477178508729
 10
2034.5221369051583
 20
1488.5794595941932
 42
-0.0021792698693289154
 10
2034.5681622793418
 20
1488.3074631309576
 42
-0.0021850663003494665
 10
2034.6118115757345
 20
1488.0350770251787
 42
-0.0021918387214251616
 10
2034.6530695587851
 20
1487.7623546012865
 42
-0.0016974613857241696
 10
2034.6832727718754
 20
1487.5516357250003
 42
-0.0009098275278285519
 10
2034.7944449777397
 20
1486.7473091574475
 42
-0.0010134077768033432
 10
2034.9025981388136
 20
1485.9419998968322
 42
-0.0011179885474916838
 10
2035.0073513663106
 20
1485.1359783741923
 42
-0.0012237911505434277
 10
2035.1083237714438
 20
1484.3295150205672
 42
-0.0013310352259218799
 10
2035.2051344654262
 20
1483.5228802669949
 42
-0.0011051227910944907
 10
2035.2767786312504
 20
1482.9002685375003
 10
2035.3341516781254
 20
1482.3615722484378
 42
0.00077849781022819873
 10
2036.1246192515819
 20
1474.5776682148887
 42
-0.00043485521229582035
 10
2036.9218908349594
 20
1466.7798970230565
 42
-0.0016448741677662852
 10
2037.6873062163893
 20
1458.9729245605795
 42
-0.0028590985726748017
 10
2038.3822051840027
 20
1451.1614167150979
 42
-0.0040839333721500335
 10
2038.9679275259316
 20
1443.3500393742504
 42
-0.0040366449721763809
 10
2039.3209680843754
 20
1437.3232421703128
 10
2039.3419641781254
 20
1436.8226318187503
 42
-0.016972910627602054
 10
2039.313207041193
 20
1431.8452444308462
 42
-0.022137013549512054
 10
2038.896351228432
 20
1426.880019824682
 42
-0.0280382801011384
 10
2037.9914286688377
 20
1422.0140444124909
 42
-0.034492186964298011
 10
2036.4984712914045
 20
1417.3344046065058
 42
-0.040782164871649353
 10
2034.317511025127
 20
1412.9281868189596
 42
-0.034921237861063111
 10
2032.1002649593754
 20
1409.7689208812503
 10
2029.3136438656254
 20
1407.1488036937503
 10
2028.8780969906254
 20
1406.8439941234378
 42
-0.027660395720278917
 10
2027.1589901246791
 20
1405.8125379307103
 42
-0.050741216943985978
 10
2023.6571497250004
 20
1404.3941650218753
 10
2022.2482141781254
 20
1404.0416259593753
 42
-0.010780613428317423
 10
2020.925568223443
 20
1403.7885096157465
 42
-0.009141849023764307
 10
2019.6004768291125
 20
1403.5893219786308
 42
-0.007413479515593911
 10
2018.2720334798209
 20
1403.4344341794954
 42
-0.005634634400122851
 10
2016.9393316602561
 20
1403.3142173498081
 42
-0.0038351148399567822
 10
2015.6014648551047
 20
1403.2190426210368
 42
-0.001676903799882448
 10
2014.5646204281254
 20
1403.1566161937503
 42
-0.00043281179745050078
 10
2008.0710650602543
 20
1402.7916543085973
 42
-0.00041641980537839712
 10
2001.5779091578461
 20
1402.437777289415
 42
-0.0003999229753037234
 10
1995.0846728010292
 20
1402.0945280696578
 42
-0.00038332947202130037
 10
1988.5908760699324
 20
1401.7614495827825
 42
-0.00036664748757615962
 10
1982.0960390446844
 20
1401.438084762244
 42
-0.00027107081876436413
 10
1977.0814661312504
 20
1401.1948242015628
 42
0.0047052106496980719
 10
1976.7829168541448
 20
1401.17766252006
 42
0.0046434112505515726
 10
1976.4845580214328
 20
1401.1549087897956
 42
0.0045876128878453706
 10
1976.1865800775074
 20
1401.1266429974144
 42
0.004537812934760921
 10
1975.8891734667625
 20
1401.0929451295619
 42
0.0044940141338390624
 10
1975.5925286335912
 20
1401.0538951728838
 42
0.0034420212944346342
 10
1975.3641809750004
 20
1401.0201415843753
 42
0.0048501237167604839
 10
1974.9878953384118
 20
1400.9581435223974
 42
0.0046939567061640482
 10
1974.6120972394704
 20
1400.8888358705303
 42
0.0045548154416730933
 10
1974.2372742158234
 20
1400.8125157220284
 42
0.004432024335707099
 10
1973.863913805118
 20
1400.7294801701448
 42
0.0043250282412967524
 10
1973.4925035450015
 20
1400.6400263081339
 42
0.00327312689217408
 10
1973.2074426937504
 20
1400.5667724437503
 10
1972.8109583187504
 20
1400.4555663890628
 42
0.080853399186982366
 10
1969.2645352444852
 20
1398.7349320449209
 42
0.11625467794530731
 10
1965.3559422304304
 20
1394.3586311750541
 42
0.031524053226453623
 10
1964.7157434750004
 20
1392.9675292796878
 42
0.0395488863045467
 10
1964.0333003646006
 20
1390.6750735647061
 42
0.071764921961825434
 10
1963.7225794125004
 20
1386.1831054515628
 10
1963.8429407406254
 20
1385.1057128734378
 42
-0.0011208164650425337
 10
1964.7634025534151
 20
1378.7261102780876
 42
-0.0011475543419596785
 10
1965.6547493611467
 20
1372.3435588684911
 42
-0.0011738992380858255
 10
1966.5164022128643
 20
1365.9573082937384
 42
-0.0011998279589852472
 10
1967.3477821576114
 20
1359.566608202919
 42
-0.0012253174769498131
 10
1968.1483102444327
 20
1353.170708245123
 42
-0.00096371064286311788
 10
1968.7447962093754
 20
1348.2294921703128
 42
-0.0022433937740253015
 10
1969.4914869089421
 20
1341.6821126377718
 42
-0.0017405416211086374
 10
1970.18591659349
 20
1335.1296318016043
 42
-0.001237289175662813
 10
1970.8412944861484
 20
1328.5732799325926
 42
-0.000733915899851357
 10
1971.4708298100466
 20
1322.0142873015179
 42
-0.00023055091554044689
 10
1972.0877317883132
 20
1315.4538841791621
 42
0.00018102058043213066
 10
1972.5636438656254
 20
1310.3895263500003
 10
1972.6061243343754
 20
1309.9482421703128
 42
0.00079364613221968915
 10
1974.8452896793015
 20
1287.4185654862813
 42
0.00034253595561264797
 10
1977.1357369544419
 20
1264.8931223476588
 42
-0.00010851053305281711
 10
1979.4367643840299
 20
1242.3683857242802
 42
-0.00055956162169119384
 10
1981.7076701922997
 20
1219.8408285859778
 42
-0.0010106750005012789
 10
1983.9077526034846
 20
1197.3069239025856
 42
-0.0011019712172368392
 10
1985.5319055843754
 20
1179.9057617015628
 42
-0.00045794093893733104
 10
1985.5733602779612
 20
1179.4459285495789
 42
-0.00046635359898772804
 10
1985.6139643199278
 20
1178.9860256348072
 42
-0.00047475580132807171
 10
1985.6537024747238
 20
1178.52604914836
 42
-0.00048314691381579132
 10
1985.6925595067976
 20
1178.0659952813485
 42
-0.0004915262994004305
 10
1985.7305201805978
 20
1177.6058602248859
 42
-0.00038539149911118344
 10
1985.7592005062504
 20
1177.2506103343753
 10
1985.8224329281254
 20
1176.4490966625003
 42
-0.0001973226913235221
 10
1985.8368978836213
 20
1176.2610454743806
 42
-0.00020487869074147449
 10
1985.8515030329183
 20
1176.0691583352752
 42
-0.00021854374605236967
 10
1985.8660807849494
 20
1175.8754691913068
 42
-0.00023895537174928815
 10
1985.8804635486492
 20
1175.682011988597
 42
-0.00026746054719006075
 10
1985.8944837329511
 20
1175.4908206732678
 42
-0.0002340479767064724
 10
1985.9049524593754
 20
1175.3460693187503
 42
-0.00024705133038145291
 10
1985.9992841606911
 20
1174.0263095602527
 42
-0.00038594897931982966
 10
1986.0919535831592
 20
1172.7063088394816
 42
-0.00052488241886274913
 10
1986.1822218025329
 20
1171.3860900097645
 42
-0.0006638925194177598
 10
1986.2693498945657
 20
1170.0656759244291
 42
-0.00080301531807595319
 10
1986.3525989350112
 20
1168.7450894368021
 42
-0.00071919993606404692
 10
1986.4137415218754
 20
1167.7255859203128
 42
-0.0039315638279575783
 10
1986.5612917493447
 20
1164.8136497848145
 42
-0.0040276484920495608
 10
1986.66253178098
 20
1161.8981364354122
 42
-0.004128373816342683
 10
1986.7162199193356
 20
1158.9806570316734
 42
-0.0042337517699818231
 10
1986.7211144669661
 20
1156.0628227331672
 42
-0.0043437814321445316
 10
1986.6759737264267
 20
1153.1462446994617
 42
-0.0034348069504570736
 10
1986.6061243343754
 20
1150.8967284984378
 42
-0.000711065441745414
 10
1986.5944105424217
 20
1150.6006878950634
 42
-0.00072434185739119524
 10
1986.5818460988492
 20
1150.30466252724
 42
-0.00073771118050951928
 10
1986.568415768106
 20
1150.00866763052
 42
-0.00075117597094661725
 10
1986.5541043146402
 20
1149.7127184404544
 42
-0.00076473875571928288
 10
1986.5388965029013
 20
1149.4168301925947
 42
-0.00060006915302527036
 10
1986.5265344906254
 20
1149.1884765453128
 42
-0.0043627501405952623
 10
1986.4119516090839
 20
1147.4019542127917
 42
-0.0044027564590851005
 10
1986.2659947178804
 20
1145.6176851381374
 42
-0.0039379723309607029
 10
1986.1102747250004
 20
1144.0393066234378
 42
-0.0015399794290996162
 10
1986.0451194561035
 20
1143.4455710569196
 42
-0.0015124744581720088
 10
1985.9763393287833
 20
1142.8522320824957
 42
-0.001485092265917058
 10
1985.9040029030223
 20
1142.2593125534931
 42
-0.0014578361899604908
 10
1985.8281787388014
 20
1141.6668353232399
 42
-0.0014307090386332739
 10
1985.7489353961025
 20
1141.0748232450619
 42
-0.001085150100534889
 10
1985.6854700375004
 20
1140.6181640453128
 10
1985.6234583187504
 20
1140.1896972484378
 42
-0.0031620865343010849
 10
1985.5905687529173
 20
1139.9822909711791
 42
-0.0016699629645659812
 10
1985.5556671587917
 20
1139.7751567955215
 42
-0.00017948941861905914
 10
1985.5199952338196
 20
1139.5681271303986
 42
0.0013107773549235081
 10
1985.4847946754455
 20
1139.3610343847442
 42
0.0028024718795710518
 10
1985.4513071811152
 20
1139.1537109674923
 42
0.0032284460200488504
 10
1985.4274133968754
 20
1138.9934081859378
 10
1985.2526087093754
 20
1137.3623046703128
 42
0.00316249807269043
 10
1985.1151378271459
 20
1135.5649577833904
 42
0.0012827142701236113
 10
1984.9936775046669
 20
1133.7668278693181
 42
-0.00059831564617684443
 10
1984.8746909544532
 20
1131.9687147945494
 42
-0.0024795729882704331
 10
1984.7446413890184
 20
1130.1714184255359
 42
-0.004359022596054413
 10
1984.5899920208767
 20
1128.3757386287302
 42
-0.0046999106768770846
 10
1984.4452356625004
 20
1126.9912109203128
 42
-0.020546687609044129
 10
1983.446294506979
 20
1120.6238019672369
 42
-0.018628157490071576
 10
1981.9478213190964
 20
1114.3353119676974
 42
-0.016854855379798944
 10
1980.002713933575
 20
1108.153347740968
 42
-0.01526461496024281
 10
1977.6638701851368
 20
1102.1055161063223
 42
-0.013872262674722427
 10
1974.9841879085045
 20
1096.2194238830325
 42
-0.0098542607161564936
 10
1972.7159876156254
 20
1091.8038329906253
 10
1972.4596399593754
 20
1091.3342284984378
 42
-0.019850178965858403
 10
1970.2004275835907
 20
1087.6763064009469
 42
-0.017054521278914152
 10
1967.6276766485087
 20
1084.1241938715573
 42
-0.014926842987778586
 10
1964.8044013950312
 20
1080.7076116623093
 42
-0.013361904154828338
 10
1961.79361606406
 20
1077.4562805252435
 42
-0.012285401569765382
 10
1958.6583348964975
 20
1074.3999212124006
 42
-0.00903491659687621
 10
1956.1927942562504
 20
1072.1927490062503
 42
-0.016822845085025653
 10
1953.0373409029169
 20
1069.6555443732182
 42
-0.0133915395514949
 10
1949.7069008272256
 20
1067.2936396601672
 42
-0.010187457874275899
 10
1946.2507305670963
 20
1065.0794166211597
 42
-0.0071735704379248533
 10
1942.7180866604483
 20
1062.9852570102596
 42
-0.004273471324137185
 10
1939.158225645202
 20
1060.9835425815295
 42
-0.0012413308273113587
 10
1936.4227747250004
 20
1059.4841308421878
 42
-0.0018080563574269974
 10
1936.2724424406774
 20
1059.4029121293288
 42
-0.0015987650822911455
 10
1936.1117044084351
 20
1059.3174656846227
 42
-0.0015775150844171844
 10
1935.9461596934404
 20
1059.2307967205979
 42
-0.0017203258972014557
 10
1935.7814073608613
 20
1059.1459104497831
 42
-0.0020642990504833444
 10
1935.6230464758639
 20
1059.065812084707
 42
-0.0020637393622010202
 10
1935.5087122250004
 20
1059.0091552562503
 10
1934.4215540218754
 20
1058.5177001781253
 42
0.0024709259936999883
 10
1931.9430961167184
 20
1057.490740074991
 42
0.0018631217914963211
 10
1929.4777026968493
 20
1056.4440549445364
 42
0.0012485328621828927
 10
1927.0208945101342
 20
1055.3829162875722
 42
0.00063024783862720252
 10
1924.5681923044397
 20
1054.312595604908
 42
1.116433208082704E-05
 10
1922.1151168276322
 20
1053.2383643973549
 42
-0.00043161552694659285
 10
1920.2184290218754
 20
1052.4097900218753
 42
-0.01646745043909216
 10
1916.4332291955718
 20
1050.9107089014606
 42
-0.014135076709223687
 10
1912.5240948412286
 20
1049.6326815987991
 42
-0.012086459788938591
 10
1908.5307450415421
 20
1048.5548430261465
 42
-0.010286824243663773
 10
1904.492898879208
 20
1047.6563280957569
 42
-0.0086921030160063851
 10
1900.4502754369228
 20
1046.9162717198847
 42
-0.0056842718737274466
 10
1897.3514856625004
 20
1046.4401855296878
 10
1896.7931360531254
 20
1046.3691406078128
 42
-0.00517531517722035
 10
1892.5409865998438
 20
1045.9331136731885
 42
-0.00066473970032634782
 10
1888.3171203439206
 20
1045.5499810977456
 42
0.0039346437377640519
 10
1884.1131501142684
 20
1045.1409712714676
 42
0.0085145442270122638
 10
1879.9206887398002
 20
1044.6273125843409
 42
0.01292752548111528
 10
1875.7313490494284
 20
1043.9302334263493
 42
0.012863048102010381
 10
1872.4943079281254
 20
1043.2169189281253
 10
1872.2214807796879
 20
1043.1571044750003
 42
-0.00185503070438809
 10
1872.1983800085516
 20
1043.1521689582248
 42
-0.0025079981426863033
 10
1872.1349459217195
 20
1043.1391652814896
 42
-0.0050249265164003434
 10
1871.9834249429957
 20
1043.1104476454332
 42
-0.0046568474837658143
 10
1871.8576678038323
 20
1043.0891049267409
 42
-0.0063390380453981167
 10
1871.7223855385002
 20
1043.069159134443
 10
1870.9071497250004
 20
1043.0057372875003
 42
-0.0048149613363357114
 10
1868.9664745662637
 20
1042.9456701014096
 42
-0.0026860146745993079
 10
1867.0249467512333
 20
1042.9147200586003
 42
-0.00055785732348826258
 10
1865.0830766708834
 20
1042.8963642034978
 42
0.0015699497458772184
 10
1863.1413747161885
 20
1042.8740795805268
 42
0.0036990584728570494
 10
1861.2003512781228
 20
1042.8313432341122
 42
0.0043737750707412244
 10
1859.7028040218754
 20
1042.7739257640628
 42
0.012725735730211258
 10
1852.5139367082281
 20
1042.2459275224278
 42
0.010998884653857352
 10
1845.3924936589281
 20
1041.3813986038224
 42
0.0091716993285614126
 10
1838.3233688246885
 20
1040.2320789410574
 42
0.00729124989417791
 10
1831.2914561562206
 20
1038.8497084669423
 42
0.0053912078563444332
 10
1824.2816496042371
 20
1037.2860271142877
 42
0.0028071072613607292
 10
1818.8761438656254
 20
1035.9876708812503
 10
1817.8448938656254
 20
1035.7189941234378
 42
0.0016556062121208469
 10
1817.5498108159479
 20
1035.6363596391291
 42
0.0018404235902136324
 10
1817.2552166403673
 20
1035.5516364141824
 42
0.0020263015728979668
 10
1816.9612484588472
 20
1035.4646263864281
 42
0.0022133827969585723
 10
1816.6680433913505
 20
1035.3751314936974
 42
0.0024017778806242596
 10
1816.3757385578408
 20
1035.2829536738213
 42
0.0019893502427320137
 10
1816.1508020687504
 20
1035.2098388500003
 10
1815.0211633968754
 20
1034.8071288890628
 42
-0.0042098049677099262
 10
1810.0070686140145
 20
1032.9238301016721
 42
-0.0044232448863751632
 10
1804.981525116096
 20
1031.1346612283305
 42
-0.0046109075176548383
 10
1799.9338756348623
 20
1029.4397898601042
 42
-0.0047697729075239026
 10
1794.8534629020567
 20
1027.8393835880597
 42
-0.0048974153101921615
 10
1789.7296296494221
 20
1026.3336100032629
 42
-0.0038481839539165
 10
1785.7379602718754
 20
1025.2360839671878
 42
-0.001731132126948949
 10
1777.1275520796285
 20
1022.9782566402173
 42
0.0003830408469301114
 10
1768.4921434168944
 20
1020.7386887202417
 42
0.0024889469552160509
 10
1759.8620911199873
 20
1018.4475252037466
 42
0.0046018018019222916
 10
1751.2677520252221
 20
1016.0349110872178
 42
0.0067315236817529905
 10
1742.7394829689135
 20
1013.4309913671407
 42
0.00672727138335006
 10
1736.2206262875004
 20
1011.2459716625001
 42
-0.00077775977777828583
 10
1733.66002072094
 20
1010.3573939264529
 42
0.003750301235636232
 10
1731.0577682403582
 20
1009.4368046261652
 42
0.0082396251138580918
 10
1728.4610838197771
 20
1008.4476193936557
 42
0.01296449402290307
 10
1725.9171824332188
 20
1007.3532538609454
 42
0.018130436639234058
 10
1723.4732790547052
 20
1006.1171236600537
 42
0.018048786466781527
 10
1721.6849817562504
 20
1005.0428466625001
 10
1720.5450891781254
 20
1004.1636962718751
 42
0.051736098784689
 10
1717.8282827992755
 20
1001.050205166958
 42
0.044350443605553132
 10
1715.7665063658651
 20
997.48920782968071
 42
0.036663770261283618
 10
1714.2924187403733
 20
993.60838199029376
 42
0.030067877747867438
 10
1713.3386787852789
 20
989.53540537904814
 42
0.024976856773849997
 10
1712.8379453630616
 20
985.39795572619482
 42
0.016677901298417279
 10
1712.7186731625004
 20
982.2407226390626
 42
-0.0027978319445164648
 10
1712.6873815698359
 20
979.61609921094873
 42
0.0018884575287362677
 10
1712.6510026397493
 20
976.95560875574142
 42
0.0064928383117804477
 10
1712.6592347411533
 20
974.28144566305241
 42
0.011229599475831601
 10
1712.7617762429602
 20
971.6158043224932
 42
0.016250074500700047
 10
1713.0083255140823
 20
968.98087912367532
 42
0.016350177862880816
 10
1713.3285364437504
 20
966.9819335765626
 10
1713.5812219906254
 20
964.4447021312501
 10
1714.0240709203911
 20
945.24482000197486
 42
-0.00016530623319449694
 10
1714.9008597911243
 20
906.87434308390766
 42
-0.00044710551917702933
 10
1715.7300362937704
 20
868.53143533030175
 42
-0.00072893994905226858
 10
1716.4687199687021
 20
830.20231999373527
 42
-0.0010102208720682126
 10
1717.0740303562925
 20
791.87322032678594
 42
-0.0012903332124478281
 10
1717.5030869969146
 20
753.53035958203259
 10
1717.5836633968756
 20
743.09960935781237
 42
0.0039825624811414594
 10
1717.6044349550866
 20
741.70171157273853
 42
0.0040090927995896234
 10
1717.6475633485065
 20
740.30370119159829
 42
0.0040395169772826636
 10
1717.7132009326497
 20
738.90627904975963
 42
0.0040738260511895595
 10
1717.8015000630317
 20
737.51014598258962
 42
0.0041120139756943676
 10
1717.9126130951665
 20
736.1160028254576
 42
0.00320412553896356
 10
1718.0140833187506
 20
735.04162595937487
 10
1718.2408899593756
 20
733.18933103749987
 42
0.0020583089029011315
 10
1718.2894122465564
 20
732.86993069274126
 42
0.0020562662884331356
 10
1718.3405650719642
 20
732.55091638210752
 42
0.0020546150382798208
 10
1718.3943408178243
 20
732.23232238558921
 42
0.0020533553221434618
 10
1718.45073186636
 20
731.91418298317694
 42
0.0020524874217944817
 10
1718.5097305997963
 20
731.596532454862
 42
0.001584029702680935
 10
1718.5570520687506
 20
731.35168455312487
 42
0.0042187739947734141
 10
1718.6870171044384
 20
730.718993519564
 42
0.0042158228072528758
 10
1718.8276573167759
 20
730.0884876516443
 42
0.0042150686472032118
 10
1718.9789193813331
 20
729.46039548263821
 42
0.00421651106689303
 10
1719.1407499736797
 20
728.83494554581762
 42
0.0042201483746075047
 10
1719.3130957693857
 20
728.21236637445463
 42
0.003261761084317737
 10
1719.4532923031256
 20
727.73388670156237
 10
1719.6373743343756
 20
727.13977049062487
 42
0.0029288621140630415
 10
1719.7381538755271
 20
726.83226505811444
 42
0.0016114818624862045
 10
1719.8417153748942
 20
726.52570610081943
 42
0.00029375414217279667
 10
1719.9464438640207
 20
726.21954513888682
 42
-0.0010239936251210302
 10
1720.05072437445
 20
725.91323369246334
 42
-0.002341678830788437
 10
1720.1529419377259
 20
725.606223281696
 42
-0.002746780232507955
 10
1720.2294153500006
 20
725.36840818593737
 10
1720.7841028500006
 20
723.57360838124987
 42
0.080648437731817957
 10
1723.7609139989647
 20
718.02767284038941
 42
0.035674357859331186
 10
1725.7938303610711
 20
715.73599653873089
 42
0.030720130362674309
 10
1728.1265060622359
 20
713.7223337669875
 42
0.025445539119360597
 10
1730.7115052129407
 20
711.95454893821034
 42
0.016031124367011564
 10
1732.8495325375006
 20
710.73779295156237
 42
0.011792960581071174
 10
1737.4838140231564
 20
708.43118809205225
 42
0.0097155535501963885
 10
1742.1976420599121
 20
706.33303404168646
 42
0.007564976973731998
 10
1746.9778759846213
 20
704.40043129639866
 42
0.0053838676788261148
 10
1751.8113751341361
 20
702.59048035212186
 42
0.0031986360900768938
 10
1756.6849988453089
 20
700.86028170478949
 42
0.00091708472417785763
 10
1760.4662317562506
 20
699.55212400624987
 42
0.0060091752813456936
 10
1763.623672442362
 20
698.50493471142522
 42
0.0082003311604838067
 10
1766.8147886419056
 20
697.54627820355086
 42
0.010439564993636014
 10
1770.038871901738
 20
696.70730737650592
 42
0.012725557242510619
 10
1773.2952137687153
 20
696.01917512416912
 42
0.015031328139640044
 10
1776.5831057896942
 20
695.51303434042006
 42
0.013220436178784691
 10
1779.1422571468756
 20
695.26647947499987
 10
1780.0587610531256
 20
695.23925779531237
 42
0.0006295974702784455
 10
1783.9821620244454
 20
695.25684243161481
 42
0.0018940434588160416
 10
1787.9150892246992
 20
695.29432556683764
 42
0.0031610652972092583
 10
1791.8509761312012
 20
695.37162768453481
 42
0.0044411252121551066
 10
1795.7832562212652
 20
695.508669268261
 42
0.0057423665300069277
 10
1799.7053629722059
 20
695.72537080156962
 42
0.0053790467381709334
 10
1802.7218469906256
 20
695.95971677968737
 42
0.003574538077158484
 10
1802.911871010306
 20
695.97795463025727
 42
0.0033562304457790178
 10
1803.1054891500046
 20
695.99924172942588
 42
0.0032509251764430689
 10
1803.3006674635994
 20
696.023307646155
 42
0.0032478965456509755
 10
1803.4953720049689
 20
696.04988194940506
 42
0.0033472718870492849
 10
1803.6875688279908
 20
696.07869420813813
 42
0.0027344303695954063
 10
1803.8329309750006
 20
696.10229490468737
 42
0.0047425185202349344
 10
1808.9428219547526
 20
697.01691376547342
 42
0.0012518502513887415
 10
1814.029409089608
 20
697.99049815224885
 42
-0.0022618274127782357
 10
1819.1117749077898
 20
698.95265600831
 42
-0.0057736199566047006
 10
1824.2090019375214
 20
699.83299527695317
 42
-0.0092452793080259246
 10
1829.340172707025
 20
700.56112390147473
 42
-0.0095369151137537442
 10
1833.3363489437506
 20
700.97460935781237
 10
1834.6363977718756
 20
701.14001463124987
 42
0.0074364409802332122
 10
1838.032548644183
 20
701.79203272272935
 42
0.00035007910635788939
 10
1841.4234638326839
 20
702.49789672701536
 42
-0.0067266279412022947
 10
1844.8200443744595
 20
703.15991247916054
 42
-0.013868727989340645
 10
1848.23319130659
 20
703.68038581421706
 42
-0.020987865968923526
 10
1851.6738056661563
 20
703.961622567238
 42
-0.020979705682839144
 10
1854.3553919125006
 20
703.95336912343737
 42
0.00055603048588729015
 10
1858.0412010802715
 20
703.7892348722396
 42
-0.00014271095247168539
 10
1861.7336320997751
 20
703.62785872354152
 42
-0.0008391601443430317
 10
1865.42875419873
 20
703.45909380006128
 42
-0.0015372013772113537
 10
1869.1226366048563
 20
703.27279322451591
 42
-0.0022405297897525661
 10
1872.8113485458732
 20
703.05881011962288
 42
-0.002237206634855804
 10
1875.6527551937506
 20
702.8682861156251
 10
1876.5966028500006
 20
702.7645263500001
 42
-0.0049630989560523657
 10
1877.0319919731637
 20
702.69153425687523
 42
-0.0043683631777964782
 10
1877.466515877381
 20
702.61032438799384
 42
-0.0037846244344153885
 10
1877.8999688827075
 20
702.52197846751051
 42
-0.0032104790926311719
 10
1878.3321453091985
 20
702.4275782195798
 42
-0.002643977303907496
 10
1878.762839476909
 20
702.32820536835675
 42
-0.0016406715554458853
 10
1879.0941614437506
 20
702.2487792796876
 42
-0.0017761432882790014
 10
1879.2938018078949
 20
702.19948530116494
 42
-0.0016168168127757437
 10
1879.4983310466312
 20
702.147515010942
 42
-0.0015289068291248582
 10
1879.7050753206754
 20
702.09359971548974
 42
-0.0015020801383150196
 10
1879.9113607907443
 20
702.03847072127928
 42
-0.0015343710218240127
 10
1880.1145136175533
 20
701.98285933478132
 42
-0.001253208088877716
 10
1880.2675012875006
 20
701.9400634593751
 10
1880.7098841000006
 20
701.8101806468751
 42
-0.002583651710276174
 10
1884.1405871815691
 20
700.76378581196786
 42
-0.0037766269993410686
 10
1887.5620862526589
 20
699.67244536533326
 42
-0.0049781219309190314
 10
1890.9651333335241
 20
698.52098088881417
 42
-0.0061917339741839371
 10
1894.3404804444197
 20
697.29421396425255
 42
-0.0074176263885813226
 10
1897.6788796055998
 20
695.97696617349243
 42
-0.006605948049785708
 10
1900.2247766781256
 20
694.8886718578126
 42
-0.0073726584187077714
 10
1904.2679195139335
 20
693.01990678986886
 42
-0.004825797788461119
 10
1908.2648404934953
 20
691.05277966596077
 42
-0.0022796381785878824
 10
1912.234744029445
 20
689.02837695952871
 42
0.00026309333127334377
 10
1916.1968345344178
 20
686.987785144014
 42
0.0028067544152698136
 10
1920.170316421048
 20
684.97209069285759
 42
0.0039840049881684466
 10
1923.2574915218756
 20
683.4591064281251
 42
0.00070069201539925386
 10
1923.4086490207449
 20
683.38689568863219
 42
0.00051860670278227369
 10
1923.5896294431393
 20
683.300959053834
 42
0.000512726846502582
 10
1923.7853191219956
 20
683.208521984018
 42
0.00062823341100854259
 10
1923.9806043902504
 20
683.11680993947039
 42
0.00092831439163662934
 10
1924.1603715808399
 20
683.03304838047916
 42
0.0012504024395495338
 10
1924.2789758968756
 20
682.9783935375001
 10
1925.1068567562506
 20
682.6191406078126
 42
0.0049090735166310217
 10
1926.5595092434496
 20
682.04271841132049
 42
0.0047679544199070922
 10
1928.0239484343167
 20
681.49417526918546
 42
0.0046331237128387822
 10
1929.4989021603035
 20
680.97309601263055
 42
0.0045045970685098947
 10
1930.9830982528617
 20
680.47906547287721
 42
0.0043823641979463838
 10
1932.4752645434435
 20
680.01166848114826
 42
0.0033000763136452429
 10
1933.6317591000006
 20
679.6688232250001
 42
0.0017730898467750763
 10
1937.1542239950559
 20
678.66257512127868
 42
0.00242212949958434
 10
1940.6975244421196
 20
677.68244669991236
 42
0.0030813365318490028
 10
1944.2566860336356
 20
676.73995984670387
 42
0.0037580704186375145
 10
1947.8267343620464
 20
675.84663644745615
 42
0.0044593362255555815
 10
1951.4026950197956
 20
675.01399838797283
 42
0.0039642810025919632
 10
1954.1639856625006
 20
674.4200439281251
 10
1955.2980188656256
 20
674.2309570140626
 42
0.017871520162853274
 10
1960.5416789473586
 20
673.81410550864621
 42
0.012950782427855486
 10
1965.8415960351308
 20
673.72000746483309
 42
0.008245645978046983
 10
1971.1693862965442
 20
673.85093824657224
 42
0.0037058797060433618
 10
1976.4966658992
 20
674.10917321781358
 42
-0.0007970582844304047
 10
1981.7950510107
 20
674.39698774250633
 42
-0.003913237210120434
 10
1985.8473352718756
 20
674.5776367015626
 10
1986.6417688656256
 20
674.6353759593751
 42
-0.00049144729135494993
 10
1990.1902829435903
 20
675.09306636688348
 42
-0.0030257185339535725
 10
1993.6955027968338
 20
675.52020648665734
 42
-0.0055754584000187119
 10
1997.1844410581216
 20
675.88453122955934
 42
-0.00803022141866075
 10
2000.6841103602196
 20
676.15377550645348
 42
-0.010268918331603486
 10
2004.2215233358938
 20
676.295674228202
 42
-0.009288300662339247
 10
2006.9950403500006
 20
676.2977294750001
 42
0.00953840335967954
 10
2008.2763802726045
 20
676.30058272542965
 42
0.0060061841713110265
 10
2009.5584555110281
 20
676.34330841607175
 42
0.0024901902943119019
 10
2010.8409461186916
 20
676.40787146286766
 42
-0.0010130048447379771
 10
2012.1235321490133
 20
676.47623678175864
 42
-0.0045215012081134993
 10
2013.4058936554122
 20
676.53036928868619
 42
-0.0060049014558035364
 10
2014.3954309750006
 20
676.5510253734376
 42
-0.011676050006901291
 10
2017.1453769974257
 20
676.51279146164393
 42
-0.014707055116404927
 10
2019.8437430606812
 20
676.33257423882674
 42
-0.01758266846292026
 10
2022.499099162472
 20
675.981765148204
 42
-0.02008462140967875
 10
2025.1200153005029
 20
675.43175563299292
 42
-0.021974177979413822
 10
2027.715061472479
 20
674.65393713641038
 42
-0.017737546136555767
 10
2029.7059778500006
 20
673.8796386546876
 10
2030.2274622250006
 20
673.6445312328126
 42
-0.070190007101729124
 10
2034.5109094906256
 20
670.8394775218751
 10
2035.7174524593756
 20
669.6820068187501
 42
-0.0520369562794557
 10
2038.37796205513
 20
666.24936728739817
 42
-0.041133441411187993
 10
2040.3454712370933
 20
662.39708754765729
 42
-0.029450261971469417
 10
2041.76956264965
 20
658.25584673341859
 42
-0.018768448384103482
 10
2042.7998189371849
 20
653.95632397857412
 42
-0.0090946572344782033
 10
2043.5858227440824
 20
649.62919841701523
 42
-0.00024068381361570931
 10
2044.1200403500006
 20
646.3526611156251
 42
0.0011187388873135941
 10
2044.3442510652133
 20
645.00647524767987
 42
0.00018433404934476065
 10
2044.5721288706984
 20
643.659928069969
 42
-0.00074846839927910974
 10
2044.798547003385
 20
642.31276819589243
 42
-0.0016820951408489085
 10
2045.0183787002015
 20
640.96474423885093
 42
-0.002618662011467029
 10
2045.2264971980765
 20
639.61560481224546
 42
-0.0026924723207721393
 10
2045.3758997250006
 20
638.5732421703126
 10
2045.4601282406256
 20
637.8768310375001
 42
-0.0037573761203087987
 10
2046.8187839982311
 20
625.1502980873388
 42
-0.0023022236858287739
 10
2048.0232535706205
 20
612.40670619772231
 42
-0.00084778091122619066
 10
2049.1475512668626
 20
599.65427875755859
 42
0.00060610524887001445
 10
2050.2656913960232
 20
586.90123915575646
 42
0.002060448208622806
 10
2051.4516882671696
 20
574.15581078122523
 42
0.0026284338507596016
 10
2052.46037238125
 20
564.3276367015626
 42
0.0053100442043184709
 10
2052.6516608849447
 20
562.7297906139338
 42
0.0029795531678202839
 10
2052.8694317170566
 20
561.1352002567096
 42
0.000649976793300958
 10
2053.0987921260189
 20
559.54208687925552
 42
-0.0016792730460906532
 10
2053.3248493602641
 20
557.94867173093689
 42
-0.0040104782190171061
 10
2053.5327106682253
 20
556.353176061119
 42
-0.0047585682294347259
 10
2053.67130988125
 20
555.1190185375001
 10
2053.7516321468752
 20
552.3813476390626
 42
0.061500358344929867
 10
2054.6375862717837
 20
547.574795183863
 42
0.058509159102098474
 10
2056.634030601766
 20
543.11526308461885
 42
0.0599054845944814
 10
2059.5954732380083
 20
539.2697696164862
 42
0.065520620956325354
 10
2063.3764222816972
 20
536.30533305462131
 42
0.073464832691357215
 10
2067.8313858340193
 20
534.48897167418045
 42
0.060682842812179144
 10
2071.6393274593752
 20
534.0407714671876
 42
0.0045639741135669442
 10
2071.86345150684
 20
534.04379864908515
 42
0.0024576994221047
 10
2072.0874318857291
 20
534.04997110363911
 42
0.000348452494189372
 10
2072.3113447737992
 20
534.05739962246685
 42
-0.0017614591572373897
 10
2072.5352663488075
 20
534.06419499718572
 42
-0.0038704693280545758
 10
2072.7592727885117
 20
534.068468019412
 42
-0.0044877898521326646
 10
2072.9322962093752
 20
534.0688476390626
 42
0.0030434026195876852
 10
2074.6169200868653
 20
534.066547121877
 42
0.0044714297289548573
 10
2076.2868979219297
 20
534.0893725014173
 42
0.005869807049684264
 10
2077.9488647972366
 20
534.14651081522334
 42
0.0071962754896300468
 10
2079.6094557954525
 20
534.24714910083435
 42
0.0084066413002524213
 10
2081.2753059992456
 20
534.40047439579052
 42
0.0072412504255401676
 10
2082.5690149593752
 20
534.5606689281251
 10
2084.7089075375
 20
534.6490478343751
 42
-0.00058284473562841431
 10
2094.5102754088603
 20
534.55170020777473
 42
-0.00077478802023843473
 10
2104.3124955355765
 20
534.42772538124336
 42
-0.00096686162872954224
 10
2114.114661402336
 20
534.26960080123945
 42
-0.0011591310578821998
 10
2123.9158664938259
 20
534.06980391422258
 42
-0.0013516447704894857
 10
2133.7152042947337
 20
533.82081216665165
 42
-0.0011808753286369972
 10
2141.27775519375
 20
533.5902099437501
 10
2142.38224738125
 20
533.5349120921876
 42
-0.0018553120479597937
 10
2144.1476581528691
 20
533.37805082374325
 42
0.0031008751212787894
 10
2145.9049622747261
 20
533.22627990022852
 42
0.0081082897970379229
 10
2147.6589360922094
 20
533.1143249523443
 42
0.013094357625012921
 10
2149.4143559507056
 20
533.0769116107906
 42
0.017890918076463772
 10
2151.1759981956025
 20
533.14876550626718
 42
0.016893556897854187
 10
2152.5431360531252
 20
533.3009033031251
 10
2153.1696008968752
 20
533.4049072093751
 42
0.015749513733554252
 10
2155.6744973423679
 20
533.95157899683772
 42
0.022861545483606464
 10
2158.3386048976663
 20
534.75044673777188
 42
0.033111885159129995
 10
2160.9473079669128
 20
535.85923031894185
 42
0.048518189365362285
 10
2163.2859909542512
 20
537.33564962711125
 42
0.069745816195222479
 10
2165.1400382638244
 20
539.23742454904527
 42
0.068204057275623911
 10
2166.1041712093752
 20
541.0328368968751
 10
2166.14884894375
 20
541.1890868968751
 42
0.010670028727095771
 10
2167.0451486852262
 20
545.539321870059
 42
0.0073278128545780146
 10
2167.7847219136675
 20
549.921485614004
 42
0.0039927015263678776
 10
2168.4254561069038
 20
554.32294404764957
 42
0.000671230372172654
 10
2169.0252387427659
 20
558.73106308993351
 42
-0.0026512771069721807
 10
2169.6419572990844
 20
563.13320865979608
 42
-0.0044296066718549883
 10
2170.1661829281252
 20
566.5192870921876
 42
-0.068873525496121066
 10
2172.012618475
 20
572.5046386546876
 10
2172.2394251156252
 20
572.9776611156251
 42
-0.00788987303533497
 10
2172.8989302630216
 20
574.24727943157063
 42
-0.0096598174978816745
 10
2173.6160056142458
 20
575.51695421247769
 42
-0.011696734495510801
 10
2174.3923804043907
 20
576.76436156654768
 42
-0.014098461594132593
 10
2175.2297838685486
 20
577.96717760198089
 42
-0.016966051095067613
 10
2176.129945241812
 20
579.10307842697875
 42
-0.015531951193596441
 10
2176.8688196468752
 20
579.9200439281251
 10
2178.0201868343752
 20
580.9304199046876
 42
-0.0066735353158863366
 10
2178.2334920777207
 20
581.08196404658452
 42
-0.0066197303652408331
 10
2178.4509276255876
 20
581.227904512587
 42
-0.0065789916934077437
 10
2178.6722268558246
 20
581.36811180050768
 42
-0.0065513508002127546
 10
2178.8971231462815
 20
581.50245640815956
 42
-0.0098035512791070575
 10
2179.2406288339234
 20
581.69269750809644
 10
2180.70060675625
 20
582.3201904125001
 42
-0.0056806526179962145
 10
2182.1139660673389
 20
582.80309830976512
 42
-0.01690705873243098
 10
2186.435967163939
 20
584.06529515054422
 42
-0.0057008972556103184
 10
2187.891677298313
 20
584.41997944446553
 42
-0.0044721554230957332
 10
2189.016524725
 20
584.6699218578126
 42
-0.014359937946102626
 10
2191.2970346409338
 20
585.08726026612476
 42
-0.026682774333769227
 10
2195.6471399593752
 20
585.5207519359376
 42
-0.0012881249722763355
 10
2195.8218315455651
 20
585.528418714234
 42
-0.0011184790518107019
 10
2196.0050933966736
 20
585.53558519176977
 42
-0.0010462076448550278
 10
2196.1923929361374
 20
585.54210282191843
 42
-0.0010524223821013084
 10
2196.3791975873924
 20
585.5478230580527
 42
-0.0011389760383824488
 10
2196.5609747738745
 20
585.55259735354571
 42
-0.0010135038551764
 10
2196.6949915218752
 20
585.5555419750001
 10
2198.2604212093752
 20
585.5588378734376
 42
-0.0015124713862084409
 10
2198.9482746625004
 20
585.54844650880523
 42
-0.000685995378338777
 10
2199.6360782659704
 20
585.53503075359117
 42
0.00014046931039116088
 10
2200.3238701086643
 20
585.52086451385208
 42
0.00096693786318426047
 10
2201.0116882794614
 20
585.5082216956464
 42
0.0017933794170357932
 10
2201.6995708672393
 20
585.49937620503192
 42
0.0019735671987680375
 10
2202.2306360531252
 20
585.4965820140626
 42
0.0035941318765424115
 10
2204.607670573288
 20
585.5119978065029
 42
0.0020188846684959651
 10
2206.9844253740744
 20
585.554097932061
 42
0.00044372088280169041
 10
2209.3610604287746
 20
585.60790584363713
 42
-0.0011312786285889388
 10
2211.7377357106789
 20
585.6584449941306
 42
-0.0027065614653405466
 10
2214.114611193078
 20
585.69073883644137
 42
-0.0032124528038869529
 10
2215.94963019375
 20
585.6937255687501
 42
-0.00055305360448921115
 10
2216.1470725411377
 20
585.69250577564753
 42
-0.0004507589779984827
 10
2216.3234715182903
 20
585.69105437543476
 42
-0.00022249036464964551
 10
2216.4906727664793
 20
585.68944754587051
 42
6.4647115326901857E-05
 10
2216.6605219269773
 20
585.687761464711
 42
0.00030140123864615191
 10
2216.8448646410557
 20
585.68607230971406
 42
0.00032339061227988885
 10
2217.0045618343752
 20
585.6848144359376
 42
0.00027698600309014062
 10
2247.6393674993251
 20
585.48031777099936
 42
0.00027439607000301119
 10
2278.2745636755121
 20
585.30960313471
 42
0.00027180914685492029
 10
2308.910013242973
 20
585.17235438937655
 42
0.00026922520202958273
 10
2339.5455790817455
 20
585.06825539730642
 42
0.00026664420309555553
 10
2370.1811240718648
 20
584.996990020806
 42
0.00020399176950827946
 10
2393.82951300625
 20
584.96423338125021
 42
0.00025199494601410203
 10
2393.9488257831695
 20
584.96416144907346
 42
0.00020190136362994117
 10
2394.0814997376783
 20
584.96419944006345
 42
0.00019254120927223248
 10
2394.22045033834
 20
584.96434735422
 42
0.00021363673236951067
 10
2394.3585930537192
 20
584.96460519154368
 42
0.00027308246358877464
 10
2394.4888433523797
 20
584.96497295203415
 42
0.00030311935437582374
 10
2394.57951300625
 20
584.96533201406271
 42
0.0014686070924223046
 10
2398.0605630116456
 20
584.99125969970407
 42
0.0011162794813423813
 10
2401.5423008888192
 20
585.0351933346202
 42
0.00076456272377047171
 10
2405.0243152778812
 20
585.09223088012357
 42
0.00041322599123573762
 10
2408.5061948189414
 20
585.15747029752708
 42
6.1993644168534392E-05
 10
2411.9875281521108
 20
585.22600954814322
 42
-0.00020278962628401235
 10
2414.67423956875
 20
585.27807615468771
 10
2415.5914758968752
 20
585.29992674062521
 42
0.0010693673884002374
 10
2416.4106207590371
 20
585.32631613048113
 42
0.0012397686869725776
 10
2417.2297756445873
 20
585.35649335907021
 42
0.0014105056774659363
 10
2418.0488186691141
 20
585.39101452402122
 42
0.0015816452089675165
 10
2418.8676279482056
 20
585.43043572296244
 42
0.0017532346116304908
 10
2419.68608159745
 20
585.47531305352356
 42
0.001476092157864019
 10
2420.3175501156252
 20
585.51403806875021
 42
0.014003747906922152
 10
2423.5234904347267
 20
585.8105357837311
 42
0.0063168711926890947
 10
2424.9765699950326
 20
586.00441026527676
 42
0.0042143004834811967
 10
2425.9340098812627
 20
586.15272786609887
 42
0.0037909957148683977
 10
2426.7799524593752
 20
586.29772947500021
 10
2428.6083216
 20
586.66967771718771
 42
0.0013176352718531721
 10
2428.7632302495363
 20
586.70608010513649
 42
0.0012610572855821472
 10
2428.92085750947
 20
586.74397791591025
 42
0.0012433767995704466
 10
2429.0796569713257
 20
586.782997878497
 42
0.0012622257929662908
 10
2429.2380822266291
 20
586.8227667218863
 42
0.0013188848061246373
 10
2429.3945868669052
 20
586.86291117506642
 42
0.0010886676553954432
 10
2429.51310675625
 20
586.89392088125021
 42
0.011241939232995929
 10
2430.9104919598094
 20
587.2965869413332
 42
0.0076593113653900058
 10
2431.831273540955
 20
587.60030796510875
 42
0.0030046262488315312
 10
2432.18400519375
 20
587.72509763906271
 42
0.00066051606214544048
 10
2432.4109630713424
 20
587.80728554445875
 42
0.00093598550547758217
 10
2432.637912261996
 20
587.890290890646
 42
0.0012124294953205627
 10
2432.8646242324385
 20
587.9743155486816
 42
0.0014907764064987818
 10
2433.0908704493986
 20
588.05956138962244
 42
0.0017719191933050441
 10
2433.3164223796039
 20
588.14623028452536
 42
0.0015708713750460523
 10
2433.4899133968752
 20
588.21423338125021
 10
2433.7056116390627
 20
588.30407713125021
 42
0.0031299623315148668
 10
2433.7239101710861
 20
588.31188351371259
 42
0.0041363521442188177
 10
2433.774306200954
 20
588.33421077991159
 42
0.0050482478435678307
 10
2433.850050379363
 20
588.36942110806388
 42
0.0062603925192037989
 10
2433.9443933570092
 20
588.41587667638521
 42
0.0079476849079411164
 10
2434.0505857845892
 20
588.4719396630918
 42
0.0078337942752954356
 10
2434.1363977718752
 20
588.52075193593771
 42
0.0038716424557270861
 10
2434.154638803057
 20
588.53179607353707
 42
0.0050730586843588761
 10
2434.2048521733645
 20
588.56337699934386
 42
0.0061246448328030265
 10
2434.280273297943
 20
588.6131674828697
 42
0.0074919459494773855
 10
2434.3741375919381
 20
588.67884029362665
 42
0.00934462520285578
 10
2434.4796804704943
 20
588.75806820112768
 42
0.009012427548965557
 10
2434.56486456875
 20
588.82702635000021
 42
0.0024501588491686538
 10
2434.58294789861
 20
588.84244339154759
 42
0.0032260606367465654
 10
2434.6326729294024
 20
588.88577182956385
 42
0.0039202612122430855
 10
2434.7072522229441
 20
588.95262763411336
 42
0.0048375576266093149
 10
2434.7998983410534
 20
589.03862677525819
 42
0.0061069659281560613
 10
2434.9038238455478
 20
589.13938522306182
 42
0.0059843273629614111
 10
2434.9874719906252
 20
589.22448728750021
 10
2435.19670050625
 20
589.44262693593771
 42
0.032428918639151254
 10
2437.150306028168
 20
591.86087383527217
 42
0.029132341627345616
 10
2438.7973908329313
 20
594.50888280578363
 42
0.026139339270450781
 10
2440.1488483398448
 20
597.33510055016734
 42
0.023645009240499473
 10
2441.2155719682137
 20
600.28797377111857
 42
0.021735615815813767
 10
2442.008455137342
 20
603.315949171333
 42
0.015847308088355785
 10
2442.4401087093752
 20
605.67211912343771
 42
0.013849173345010745
 10
2442.7942032550868
 20
608.58471017787031
 42
0.011117808346727395
 10
2443.0034214727402
 20
611.52343935755891
 42
0.0084766212207112342
 10
2443.09770883876
 20
614.47669717227939
 42
0.0059200506054978876
 10
2443.1070108295712
 20
617.43287413180713
 42
0.0034166775569070113
 10
2443.0612729215982
 20
620.38036074591821
 42
0.00085654030555569808
 10
2443.00724738125
 20
622.64233396718771
 10
2443.0040735531252
 20
622.73327635000021
 42
-0.00036124216209245682
 10
2442.9550830963194
 20
624.48395906567259
 42
-0.00036634482271888678
 10
2442.9086369765955
 20
626.23483322807613
 42
-0.0003714911739242378
 10
2442.8647732828317
 20
627.98582646834063
 42
-0.00037668236791012336
 10
2442.8235301039072
 20
629.7368664175973
 42
-0.00038191957068829283
 10
2442.7849455287005
 20
631.4878807069764
 42
-0.00029858384755417121
 10
2442.7570032406252
 20
632.83947752187521
 10
2437.9605129452834
 20
976.737257474287
 42
-2.9117791970062592E-05
 10
2437.9577390573686
 20
976.93214220046582
 42
-4.8799701797768436E-05
 10
2437.9549956405563
 20
977.1270201775634
 42
-6.8477101104052365E-05
 10
2437.9522979303983
 20
977.32189902335438
 42
-8.8145484664838933E-05
 10
2437.9496611624468
 20
977.51678635561518
 42
-8.2061092057823061E-05
 10
2437.94767706875
 20
977.66723631093771
 42
-0.0002472783289070016
 10
2437.9441476341844
 20
977.94556805133027
 42
-0.00011055446759634456
 10
2437.9408175982376
 20
978.22388542486544
 42
2.6198495594925574E-05
 10
2437.9375346053953
 20
978.50219604931829
 42
0.00016295260328896813
 10
2437.9341463001424
 20
978.78050754246567
 42
0.00029967967192993266
 10
2437.9305003269642
 20
979.058827522082
 42
0.00032881239469887937
 10
2437.9274133968752
 20
979.27368162343771
 10
2437.8741907406252
 20
981.11486814687521
 42
0.0024650283406481431
 10
2437.8682905119463
 20
981.213216302944
 42
0.00070535648000763724
 10
2437.8594729424763
 20
981.34776907387356
 42
6.3346357097450811E-05
 10
2437.8492615873624
 20
981.50029712232288
 42
-0.000443531219152747
 10
2437.8391800017525
 20
981.65257111095264
 42
-0.0012625419745101859
 10
2437.8307517407934
 20
981.78636170242214
 42
-0.0026726620990673139
 10
2437.8263391781252
 20
981.86547849843771
 42
-0.0039804884372363876
 10
2437.6286461851905
 20
986.6643017825628
 42
-0.0028999308079072092
 10
2437.4969149772837
 20
991.46844761991554
 42
-0.0018234526676843311
 10
2437.4105318532584
 20
996.27556592668122
 42
-0.000749732349183341
 10
2437.3488831119685
 20
1001.0833066190443
 42
0.00032355425189310749
 10
2437.291355052268
 20
1005.8893196131902
 42
0.0010168305761455961
 10
2437.23673956875
 20
1009.5965576000002
 42
-0.00027225396125863782
 10
2436.5259998416791
 20
1053.8500775399418
 42
0.00070315367539225979
 10
2435.777078218086
 20
1098.1055082719108
 42
0.0016787061182796784
 10
2434.8173787530832
 20
1142.35557101119
 42
0.0026546150056486308
 10
2433.4743055017825
 20
1186.5929869730617
 42
0.0036303248336428421
 10
2431.5752625192958
 20
1230.8104773728089
 42
0.0034969359786711325
 10
2429.62004035
 20
1264.9250488109378
 10
2429.58927863125
 20
1265.4271240062503
 42
-0.0021815741863704355
 10
2429.5661622870703
 20
1265.8873542145682
 42
-0.0021307516752641286
 10
2429.5470073198953
 20
1266.3479711252357
 42
-0.0020815735875693311
 10
2429.5317299341928
 20
1266.8088338094012
 42
-0.0020339920297705719
 10
2429.5202463344294
 20
1267.2698013382144
 42
-0.0019879600661130057
 10
2429.5124727250713
 20
1267.7307327828235
 42
-0.001502792631674837
 10
2429.5089563656252
 20
1268.0864257640628
 10
2429.50920050625
 20
1268.6666259593753
 42
-0.0068468337312287547
 10
2429.5845845125841
 20
1271.7539000115723
 42
-0.0085403230123287759
 10
2429.7572970970177
 20
1274.8830314690485
 42
-0.010412892643816198
 10
2430.0499630534919
 20
1278.0217895226574
 42
-0.012535542360336582
 10
2430.4852071759478
 20
1281.1379433632535
 42
-0.014975440856051875
 10
2431.085654258326
 20
1284.1992621816905
 42
-0.013560973852469396
 10
2431.6764368343752
 20
1286.5045165843753
 10
2431.8436731625
 20
1287.0466308421878
 42
-0.017755790066364709
 10
2432.8857108102516
 20
1289.8086971620587
 42
-0.017989919226575043
 10
2434.157196129107
 20
1292.5671309385191
 42
-0.019172947763229919
 10
2435.6464053622076
 20
1295.2550938072468
 42
-0.02132052084918689
 10
2437.3416147526923
 20
1297.8057474039194
 42
-0.024542698249419816
 10
2439.2311005437004
 20
1300.1522533642146
 42
-0.022101316886627222
 10
2440.8151087093752
 20
1301.7817382640628
 10
2441.6659387875
 20
1302.4847411937503
 42
-0.016350515280877741
 10
2444.0922787595237
 20
1304.128422231925
 42
-0.012344000097739944
 10
2446.6346452065541
 20
1305.6459214981589
 42
-0.0086072838970250587
 10
2449.254644538873
 20
1307.0646858384353
 42
-0.0050658300451386327
 10
2451.9138831667628
 20
1308.4121620987366
 42
-0.0016008508267948284
 10
2454.5739675005061
 20
1309.7157971250456
 42
0.00128096574530098
 10
2456.6036829281252
 20
1310.7094726390628
 10
2457.3905481625
 20
1311.0430908031253
 42
0.035047653164590784
 10
2461.5379871949531
 20
1312.8883876174195
 42
0.020906679510271347
 10
2465.4329858379797
 20
1315.175314284596
 42
0.00638394082134684
 10
2469.2057242611613
 20
1317.6766401721763
 42
-0.0080510795219779149
 10
2472.9863826340788
 20
1320.1651346476817
 42
-0.022570364082132019
 10
2476.9051411263126
 20
1322.4135670786341
 42
-0.027425776079293595
 10
2480.10685675625
 20
1323.8414306468753
 10
2480.3209680843752
 20
1323.9295654125003
 42
0.0019382461771071298
 10
2480.3392303651422
 20
1323.9371925099438
 42
0.0025295984550267117
 10
2480.3899442366819
 20
1323.9588803507418
 42
0.0030411061629889114
 10
2480.4670002428529
 20
1323.992838757596
 42
0.0037047955892912346
 10
2480.5642889275132
 20
1324.037277553208
 42
0.0046047066105133006
 10
2480.6757008345216
 20
1324.09040656028
 42
0.0044323189842171828
 10
2480.7675012875
 20
1324.1362304515628
 10
2481.48673956875
 20
1324.5406493968753
 42
0.0029823655603258233
 10
2481.7374219523304
 20
1324.694678838689
 42
0.0028812281733704239
 10
2481.9864317663869
 20
1324.8517322701618
 42
0.0027831628440752555
 10
2482.2337233042658
 20
1325.011645909115
 42
0.0026880628393352837
 10
2482.4792508593132
 20
1325.1742559733705
 42
0.0025958169960410829
 10
2482.7229687248741
 20
1325.3393986807496
 42
0.0019399218831114785
 10
2482.9098352718752
 20
1325.4685058421878
 42
0.049224968575442292
 10
2486.7584680843752
 20
1328.7550048656253
 10
2487.52287238125
 20
1329.5850829906253
 42
0.015887946290204735
 10
2488.70903281697
 20
1331.0167341520989
 42
0.014239285970962757
 10
2489.801094344391
 20
1332.5095458953128
 42
0.012464227598248525
 10
2490.8103084182776
 20
1334.0561746844562
 42
0.010625164558730577
 10
2491.7479264933936
 20
1335.6492769837173
 42
0.00876730886524887
 10
2492.625200024504
 20
1337.2815092572857
 42
0.0054480210469170223
 10
2493.2682337093752
 20
1338.5635986156253
 10
2493.51115363125
 20
1339.0734863109378
 42
0.042522324885159134
 10
2495.4474329281252
 20
1344.3693847484378
 10
2495.7247766781252
 20
1345.4644775218753
 42
0.039720000058521152
 10
2496.8468469906252
 20
1352.7095947093753
 42
0.0030581808244144579
 10
2497.4873773158233
 20
1362.0722803804588
 42
0.0030240514537114823
 10
2498.0150150117965
 20
1371.4600785836312
 42
0.0029998705400507129
 10
2498.4299124340596
 20
1380.8618711752038
 42
0.0059674472364746088
 10
2498.9220958795127
 20
1399.662966948792
 42
0.0023044776560915657
 10
2498.9918665218752
 20
1406.9036865062503
 42
0.00547021721681018
 10
2498.9709470581561
 20
1410.2987717592437
 42
0.0046597970987862381
 10
2498.88142324306
 20
1413.6852209938795
 42
0.0038291162660347077
 10
2498.7345389135762
 20
1417.0665117247825
 42
0.0029855397604881461
 10
2498.5415379066935
 20
1420.4461214665762
 42
0.002135318627523048
 10
2498.3136640594003
 20
1423.8275277338855
 42
0.0010407767097188915
 10
2498.1210169125
 20
1426.4411620921878
 10
2497.9982141781252
 20
1428.1473388500003
 42
0.024682393384230273
 10
2497.6066584914429
 20
1430.8746774701629
 42
0.021543943415503145
 10
2496.9693139357832
 20
1433.5344263063605
 42
0.018109415463392807
 10
2496.1239494432543
 20
1436.1327100502867
 42
0.014604196463023909
 10
2495.1083339459628
 20
1438.6756533936341
 42
0.011154266207779092
 10
2493.9602363760168
 20
1441.169381028096
 42
0.0062153233142137046
 10
2493.00724738125
 20
1443.0645751781253
 10
2492.5226282406252
 20
1444.0831298656253
 42
0.0083609726335323719
 10
2491.2262366704617
 20
1446.93607472476
 42
0.0055584321680286252
 10
2489.854853310937
 20
1449.7436569993804
 42
0.0027126854453203269
 10
2488.4388807050195
 20
1452.5248411421858
 42
-0.00014744531545647825
 10
2487.008721395679
 20
1455.2985916058751
 42
-0.0030033915746653797
 10
2485.5947779258836
 20
1458.0838728431468
 42
-0.0043396273957157661
 10
2484.53361456875
 20
1460.2537841625003
 42
-0.026392635330632602
 10
2481.6782050398137
 20
1467.1784836150921
 42
-0.021203183258178809
 10
2479.4692579976709
 20
1474.4208119713153
 42
-0.016462286913904375
 10
2477.7966127873797
 20
1481.8700715230384
 42
-0.012185360996913386
 10
2476.5501087539978
 20
1489.4155645621295
 42
-0.0082486560442418637
 10
2475.6195852425831
 20
1496.946593380457
 42
-0.0036623691913404473
 10
2475.047774725
 20
1502.6801757640628
 42
-0.0033673232642861409
 10
2474.9256423618194
 20
1504.0925722570792
 42
-0.003483465263530286
 10
2474.8228749190357
 20
1505.5064770028587
 42
-0.0036003046014270253
 10
2474.7401503786896
 20
1506.9216614681297
 42
-0.0037176946502515775
 10
2474.678146722822
 20
1508.3378971196198
 42
-0.0038354641986209229
 10
2474.6375419334736
 20
1509.754955424057
 42
-0.003044813894567022
 10
2474.6212610531252
 20
1510.8492431468753
 42
-0.002025478209951072
 10
2474.5562600099311
 20
1525.875904945163
 42
-0.000804796391357761
 10
2474.5763151739907
 20
1540.9078806765576
 42
0.00041449435475832429
 10
2474.60810545383
 20
1555.9418223286232
 42
0.001633989752165343
 10
2474.5783097579738
 20
1570.9743818889226
 42
0.0028549896062033632
 10
2474.4136069949473
 20
1586.0022113450195
 42
0.0030758894993957696
 10
2474.14787238125
 20
1597.5972900218753
 42
0.00077005608207360689
 10
2474.1250053533213
 20
1598.3361069239836
 42
0.00014178948405636684
 10
2474.1007873062017
 20
1599.0749965290743
 42
-0.00048623460684567716
 10
2474.0770769771716
 20
1599.8139436015949
 42
-0.0011143854910397311
 10
2474.0557331035106
 20
1600.552932905995
 42
-0.0017429404458431076
 10
2474.038614422499
 20
1601.2919492067226
 42
-0.0017940734355172277
 10
2474.0294641781252
 20
1601.8624267406253
 10
2474.0292200375
 20
1601.8988036937503
 42
-0.0079421728914938587
 10
2474.0293149255845
 20
1601.9074425186509
 42
-0.017402229156723077
 10
2474.0296392156347
 20
1601.9132190311216
 42
-0.2646279999704903
 10
2474.030330896308
 20
1601.9155029270237
 42
-0.10611285925478482
 10
2474.0315270875681
 20
1601.9109461939204
 42
-0.010928559773011529
 10
2474.0328821468752
 20
1601.9006347484378
 10
2474.0402063656252
 20
1601.7440185375003
 42
-0.078225196627414145
 10
2473.9974440758751
 20
1601.8673337944274
 42
-0.033535604371542474
 10
2473.976329366285
 20
1602.032419720972
 42
-0.016704712915845438
 10
2473.9705013941148
 20
1602.2182588738738
 42
-0.0079817988361587759
 10
2473.9735993166228
 20
1602.4038338098728
 42
-0.00073185845818598519
 10
2473.9792622910682
 20
1602.5681270857087
 42
0.0085649888497697311
 10
2473.981368475
 20
1602.6671142406253
 10
2473.9835657406252
 20
1602.7286376781253
 42
0.0025611301339190221
 10
2473.9965348113815
 20
1603.5962791464831
 42
0.0017762458124668454
 10
2474.0019785889303
 20
1604.4642155697691
 42
0.00099242100278140732
 10
2474.0026166192097
 20
1605.3323022102441
 42
0.00020923410916179935
 10
2474.0011684481578
 20
1606.2003943301697
 42
-0.00057402804983751126
 10
2474.0003536217137
 20
1607.0683471918062
 42
-0.0010023471350637146
 10
2474.0018762875
 20
1607.7381591625003
 42
-0.00043704954466070408
 10
2474.2760419665124
 20
1659.7182319235731
 42
-0.00019169086441252369
 10
2474.6155780504205
 20
1711.6990112667509
 10
2474.7939174179241
 20
1737.6895706844323
 42
0.00017631897792431226
 10
2475.1358536514595
 20
1789.6708385675875
 42
0.00042166518550757571
 10
2475.4156196796025
 20
1841.6520512552738
 42
0.00066703169637513475
 10
2475.5821992582382
 20
1893.6329040364622
  0
LWPOLYLINE
  5
2B
330
1F
100
AcDbEntity
  8
layer1
 62
5
100
AcDbPolyline
 90
35
 70
1
 10
2366.28263800625
 20
1556.1986083812503
 10
2366.129201228789
 20
1556.2466769586929
 42
0.011004058505829476
 10
2365.3597011902111
 20
1556.4644038538529
 42
0.010824486673761062
 10
2364.5296930239447
 20
1556.6610306117689
 42
0.01209726087374096
 10
2363.6764875390886
 20
1556.8226857948291
 42
0.015036490189278171
 10
2362.8373955447405
 20
1556.9354979654229
 42
0.020619825284869792
 10
2362.04972785
 20
1556.9855956859378
 10
2361.89638370257
 20
1556.986104950149
 42
0.026532287413879373
 10
2361.1394324732928
 20
1556.9331631151495
 42
0.016703651317523042
 10
2360.3397702499915
 20
1556.8084301092845
 42
0.010190333927031135
 10
2359.531794032634
 20
1556.638083403092
 42
0.005089498597922495
 10
2358.7499008211894
 20
1556.44830046711
 42
-3.9383438445116861E-05
 10
2358.0284876156252
 20
1556.2652587718753
 10
2357.9457114349339
 20
1556.2432009100553
 42
0.026466531598535074
 10
2357.5582821634425
 20
1556.1103310166868
 42
0.018646320919141472
 10
2357.172909066921
 20
1555.93825654438
 42
0.012435414713530421
 10
2356.7949237320263
 20
1555.7406577658769
 42
0.0071216620695470512
 10
2356.429657745417
 20
1555.5312149539197
 42
0.001968430872673824
 10
2356.08244269375
 20
1555.3236083812503
 10
2355.4330288974525
 20
1554.9026083756173
 42
0.15566493296880896
 10
2351.2791102446072
 20
1549.4881932555193
 42
0.14602570118038266
 10
2350.865406105007
 20
1542.7666922095209
 42
0.078203962082992656
 10
2352.192305975
 20
1539.5278320140628
 10
2352.4597751516421
 20
1539.1077653090208
 42
0.10143306309106402
 10
2355.65993192939
 20
1535.940723792799
 42
0.096029891910726334
 10
2359.7949821420343
 20
1534.2397786423687
 42
0.045993867952116463
 10
2362.063399725
 20
1533.9857177562503
 10
2363.1368896310278
 20
1534.0427088445867
 42
0.21000528039087363
 10
2371.0380388230183
 20
1538.4465672599088
 42
0.094215185363431167
 10
2373.0877092597607
 20
1542.4432657775303
 42
0.20785704309816244
 10
2371.9352258968752
 20
1551.4497070140628
 10
2371.778631197692
 20
1551.7009158019744
 42
0.060071049925149556
 10
2369.9444365017175
 20
1553.9219782856749
 42
0.032113168594251715
 10
2368.8182596216398
 20
1554.870343182831
 42
0.037003028742157815
 10
2367.5886673758873
 20
1555.6454953417897
 42
0.044330274680515439
  0
LWPOLYLINE
  5
2C
330
1F
100
AcDbEntity
  8
layer1
 62
5
100
AcDbPolyline
 90
32
 70
1
 10
2404.5292200375
 20
724.97436521718771
 10
2404.3757253571825
 20
724.9749280423656
 42
0.026586312064208351
 10
2403.6180454358596
 20
724.92208317881466
 42
0.016731384429955552
 10
2402.81765076049
 20
724.79726366403122
 42
0.010198169930100906
 10
2402.0089796935013
 20
724.62673998600565
 42
0.0050783319014842234
 10
2401.2264705973203
 20
724.4367826327283
 42
-7.5616396591698883E-05
 10
2400.5045618343752
 20
724.25366209218771
 10
2400.4217856875734
 20
724.23161928014781
 42
0.026472784522512015
 10
2400.0343625488304
 20
724.0988196190109
 42
0.018658037612581755
 10
2399.6490206783537
 20
723.92681537893543
 42
0.012453577131933619
 10
2399.2711123278668
 20
723.72928683266389
 42
0.0071472016208203237
 10
2398.9059897490915
 20
723.51991425293829
 42
0.0020024720637899849
 10
2398.55900519375
 20
723.31237791250021
 10
2398.3651970563383
 20
723.19321221970279
 42
0.11783662438776984
 10
2394.67130988125
 20
719.43933103750021
 10
2394.1567676060131
 20
718.49561346934263
 42
0.21317191045263803
 10
2393.820976304416
 20
709.52689216625492
 42
0.29721035918708832
 10
2404.5406946468752
 20
701.97424314687521
 10
2405.6144141771538
 20
702.03124631118169
 42
0.20991200801348525
 10
2413.5186707204502
 20
706.4350488376723
 42
0.094232261400054487
 10
2415.5697010977387
 20
710.43172144049879
 42
0.20799040569062957
 10
2414.41691535
 20
719.43847654531271
 10
2414.2602604347512
 20
719.689684748629
 42
0.060066182590453508
 10
2412.4254852015283
 20
721.91071916930844
 42
0.032107215103019421
 10
2411.2989889003211
 20
722.85908793238184
 42
0.036991638502447514
 10
2410.0690440217259
 20
723.63428344229521
 42
0.0443097948419071
 10
2408.762618475
 20
724.18749998281271
 10
2408.6091504777419
 20
724.23558036767315
 42
0.011033075547104462
 10
2407.8395131694224
 20
724.45328342169012
 42
0.010831308683040799
 10
2407.0093803646341
 20
724.64981253051371
 42
0.012084935540305462
 10
2406.1560731699815
 20
724.81136859727974
 42
0.015003032006347644
 10
2405.3169126920689
 20
724.92415252512581
 42
0.020557902468950444
  0
LWPOLYLINE
  5
2D
330
1F
100
AcDbEntity
  8
layer1
 62
5
100
AcDbPolyline
 90
26
 70
1
 10
2384.055587225
 20
1836.4724120921878
 42
0.6213258998665564
 10
2385.0303875723839
 20
1816.3010588471693
 42
0.1084926778432428
 10
2390.04435675625
 20
1815.1343993968753
 42
0.042542556402235338
 10
2392.1913090172939
 20
1815.3434058144883
 42
0.15328259055450047
 10
2398.4082731125272
 20
1818.6971018377189
 42
0.11443749670692548
 10
2400.9796800377071
 20
1823.0768959927623
 42
0.21511396264863902
 10
2399.79302017612
 20
1832.7832870775351
 42
0.11958279634812927
 10
2396.0353235531252
 20
1836.4732665843753
 42
0.001756912823835157
 10
2395.8303674661174
 20
1836.5954727087546
 42
0.0067671901215884149
 10
2395.4541992572085
 20
1836.8114519128287
 42
0.011178262781603514
 10
2395.0660074734947
 20
1837.0162331808228
 42
0.016147482908269849
 10
2394.6694012117505
 20
1837.1986190586413
 42
0.022069952457323985
 10
2394.26798956875
 20
1837.3474120921878
 42
0.0075752544235669272
 10
2393.7939674141562
 20
1837.4904322188663
 42
0.0249992799028329
 10
2391.9034004129071
 20
1837.9294376860921
 42
0.016228784290569776
 10
2390.9370942127603
 20
1838.0714923261769
 42
0.022903099584678684
 10
2390.0309290218752
 20
1838.1343993968753
 42
0.021582512932240193
 10
2389.5597211873737
 20
1838.1228324087876
 42
0.024123256708718861
 10
2388.6642754227923
 20
1838.017884633369
 42
0.014043201246962959
 10
2387.7387625274696
 20
1837.8384929711797
 42
0.0069707079718983322
 10
2386.8345118777547
 20
1837.6239564759878
 42
0.00029743292519952635
 10
2386.00285285
 20
1837.4135742015628
 42
0.019994183635907256
 10
2385.75399556898
 20
1837.3403947454203
 42
0.025544348917455176
 10
2385.3113441432388
 20
1837.1645060581568
 42
0.016608507256134424
 10
2384.8753171066637
 20
1836.9475320841323
 42
0.0094111058958849872
 10
2384.4540272152512
 20
1836.7099937774435
 42
0.0026975904298286685
  0
LWPOLYLINE
  5
2E
330
1F
100
AcDbEntity
  8
layer1
 62
5
100
AcDbPolyline
 90
35
 70
1
 10
2385.7457727718752
 20
1057.5568847484378
 10
2385.5919144763989
 20
1057.5574602086886
 42
0.026553679818037645
 10
2384.8324812133656
 20
1057.504619342945
 42
0.016708280252033244
 10
2384.0302630825927
 20
1057.3797399855987
 42
0.010176651741809935
 10
2383.2197294441348
 20
1057.2091287885362
 42
0.0050536196394058213
 10
2382.4353496580443
 20
1057.0190924036456
 42
-0.00010784101659220894
 10
2381.7115930843752
 20
1056.8359374828128
 10
2381.6286351371309
 20
1056.8139085174732
 42
0.026442343119704854
 10
2381.2403368609325
 20
1056.6811467378905
 42
0.0186319492763059
 10
2380.854091069521
 20
1056.5091515958884
 42
0.012429290426821378
 10
2380.475270679683
 20
1056.311624029275
 42
0.0071219894443112809
 10
2380.1092486082052
 20
1056.1022649758559
 42
0.0019731077383564094
 10
2379.7613977718752
 20
1055.8947753734378
 10
2378.8943339765374
 20
1055.3206213161061
 42
0.20599058573500237
 10
2374.3871919136595
 20
1047.780113629552
 42
0.18765536312478553
 10
2376.353381614801
 20
1039.3783660155748
 42
0.10479546552608061
 10
2379.7623743343752
 20
1036.2248534984378
 10
2379.9891798896956
 20
1036.0922861127383
 42
0.053055806136664156
 10
2382.1974448415513
 20
1035.1280412770675
 42
0.025143321824130007
 10
2383.3558319697763
 20
1034.8247685423532
 42
0.02393042822579931
 10
2384.5440240263142
 20
1034.6356522121923
 42
0.022554591434961545
 10
2385.75724738125
 20
1034.5568847484378
 10
2386.2502480419353
 20
1034.5710064008817
 42
0.19325552228603496
 10
2394.2765877971
 20
1038.2761153615052
 42
0.051032594333443933
 10
2395.65666144375
 20
1040.0986327953128
 10
2396.0567072840804
 20
1040.819919089756
 42
0.08489425900105306
 10
2397.1628778677664
 20
1044.4745622837497
 42
0.1554611566164783
 10
2395.7886301493031
 20
1051.9012828724158
 42
0.090289042474012871
 10
2393.4153602069237
 20
1054.8589914027109
 42
0.10146657469657323
 10
2389.9894251156252
 20
1056.7700195140628
 10
2389.8355622148406
 20
1056.81808487456
 42
0.010997957606484221
 10
2389.0640018164713
 20
1057.0357222959069
 42
0.010796874496889861
 10
2388.2318595711922
 20
1057.232204592033
 42
0.012045428136508964
 10
2387.3765185808011
 20
1057.3937481648734
 42
0.014951640106462941
 10
2386.5353619470957
 20
1057.5065694163634
 42
0.020483399553823594
  0
ENDSEC
  0
SECTION
  2
OBJECTS
  0
DICTIONARY
  5
C
330
0
100
AcDbDictionary
280
0
281
1
  3
ACAD_SCALELIST
350
34
  3
ACAD_COLOR
350
46
  3
ACAD_FIELDLIST
350
47
  3
ACAD_GROUP
350
D
  3
ACAD_IMAGE_DICT
350
48
  3
ACAD_LAYOUT
350
1A
  3
ACAD_MATERIAL
350
49
  3
ACAD_MLEADERSTYLE
350
4A
  3
ACAD_MLINESTYLE
350
17
  3
ACAD_PLOTSETTINGS
350
19
  3
ACAD_PLOTSTYLENAME
350
E
  3
ACAD_TABLESTYLE
350
4C
  3
ACDB_RECOMPOSE_DATA
350
50
  3
AcDbVariableDictionary
350
51
  3
ACAD_VISUALSTYLE
350
54
  3
DWGPROPS
350
55
  0
DICTIONARY
  5
4E
330
4D
100
AcDbDictionary
280
0
281
1
  3
ACAD_ROUNDTRIP_2008_TABLESTYLE_CELLSTYLEMAP
360
4F
  0
DICTIONARY
  5
34
102
{ACAD_REACTORS
330
C
102
}
330
C
100
AcDbDictionary
280
0
281
1
  0
DICTIONARY
  5
46
102
{ACAD_REACTORS
330
C
102
}
330
C
100
AcDbDictionary
280
0
281
1
  0
FIELDLIST
  5
47
102
{ACAD_REACTORS
330
C
102
}
330
C
100
AcDbIdSet
100
AcDbFieldList
  0
DICTIONARY
  5
D
102
{ACAD_REACTORS
330
C
102
}
330
C
100
AcDbDictionary
280
0
281
1
  0
DICTIONARY
  5
48
102
{ACAD_REACTORS
330
C
102
}
330
C
100
AcDbDictionary
280
0
281
1
  0
DICTIONARY
  5
1A
102
{ACAD_REACTORS
330
C
102
}
330
C
100
AcDbDictionary
280
0
281
1
  3
Layout1
350
1E
  3
Model
350
22
  0
DICTIONARY
  5
49
102
{ACAD_REACTORS
330
C
102
}
330
C
100
AcDbDictionary
280
0
281
1
  0
DICTIONARY
  5
4A
102
{ACAD_REACTORS
330
C
102
}
330
C
100
AcDbDictionary
280
0
281
1
  3
Standard
350
4B
  0
DICTIONARY
  5
17
102
{ACAD_REACTORS
330
C
102
}
330
C
100
AcDbDictionary
280
0
281
1
  3
STANDARD
350
18
  0
DICTIONARY
  5
19
102
{ACAD_REACTORS
330
C
102
}
330
C
100
AcDbDictionary
280
0
281
1
  0
ACDBDICTIONARYWDFLT
  5
E
102
{ACAD_REACTORS
330
C
102
}
330
C
100
AcDbDictionary
280
0
281
1
  3
Normal
350
F
100
AcDbDictionaryWithDefault
340
F
  0
ACDBPLACEHOLDER
  5
F
102
{ACAD_REACTORS
330
E
102
}
330
E
  0
DICTIONARY
  5
4C
102
{ACAD_REACTORS
330
C
102
}
330
C
100
AcDbDictionary
280
0
281
1
  3
Standard
350
4D
  0
XRECORD
  5
50
102
{ACAD_REACTORS
330
C
102
}
330
C
100
AcDbXrecord
280
1
 90
1
330
4D
  0
DICTIONARY
  5
51
102
{ACAD_REACTORS
330
C
102
}
330
C
100
AcDbDictionary
280
0
281
1
  3
DIMASSOC
350
52
  3
HIDETEXT
350
53
  0
DICTIONARY
  5
54
102
{ACAD_REACTORS
330
C
102
}
330
C
100
AcDbDictionary
280
0
281
1
  0
XRECORD
  5
55
102
{ACAD_REACTORS
330
C
102
}
330
C
100
AcDbXrecord
280
0
  1
DWGPROPS COOKIE
  2

  3

  4

  6

  7

  8

  9

300
=
301
=
302
=
303
=
304
=
305
=
306
=
307
=
308
=
309
=
 40
0
 41
2460962.9914396992
 42
2460962.9914396992
  1

 90
0
  0
CELLSTYLEMAP
  5
4F
102
{ACAD_REACTORS
330
4E
102
}
330
4E
100
AcDbCellStyleMap
 90
3
300
CELLSTYLE
  1
TABLEFORMAT_BEGIN
 90
5
170
0
309
TABLEFORMAT_END
  1
CELLSTYLE_BEGIN
 90
3
 91
2
300
_DATA
309
CELLSTYLE_END
300
CELLSTYLE
  1
TABLEFORMAT_BEGIN
 90
5
170
0
309
TABLEFORMAT_END
  1
CELLSTYLE_BEGIN
 90
1
 91
2
300
_TITLE
309
CELLSTYLE_END
300
CELLSTYLE
  1
TABLEFORMAT_BEGIN
 90
5
170
0
309
TABLEFORMAT_END
  1
CELLSTYLE_BEGIN
 90
2
 91
2
300
_HEADER
309
CELLSTYLE_END
  0
LAYOUT
  5
1E
102
{ACAD_REACTORS
330
1A
102
}
330
1A
100
AcDbPlotSettings
  1

  2
C:\Program Files\AutoCAD 2002\plotters\DWF ePlot (optimized for plotting).pc3
  4

  6

 40
0
 41
0
 42
0
 43
0
 44
0
 45
0
 46
0
 47
0
 48
0
 49
0
140
0
141
0
142
1
143
1
 70
688
 72
1
 73
1
 74
1
  7
acad.stb
 75
16
 76
0
 77
0
 78
0
147
1
148
0
149
0
100
AcDbLayout
  1
Layout1
 70
1
 71
1
 10
0
 20
0
 11
420
 21
297
 12
0
 22
0
 32
0
 14
0
 24
0
 34
0
 15
0
 25
0
 35
0
146
0
 13
0
 23
0
 33
0
 16
1
 26
0
 36
0
 17
0
 27
1
 37
0
 76
0
330
2F
  0
LAYOUT
  5
22
102
{ACAD_REACTORS
330
1A
102
}
330
1A
100
AcDbPlotSettings
  1

  2
C:\Program Files\AutoCAD 2002\plotters\DWF ePlot (optimized for plotting).pc3
  4

  6

 40
0
 41
0
 42
0
 43
0
 44
0
 45
0
 46
0
 47
0
 48
0
 49
0
140
0
141
0
142
1
143
1
 70
1712
 72
1
 73
1
 74
0
  7
acad.stb
 75
0
 76
0
 77
0
 78
0
147
1
148
0
149
0
100
AcDbLayout
  1
Model
 70
1
 71
0
 10
0
 20
0
 11
12
 21
9
 12
0
 22
0
 32
0
 14
0
 24
0
 34
0
 15
0
 25
0
 35
0
146
0
 13
0
 23
0
 33
0
 16
1
 26
0
 36
0
 17
0
 27
1
 37
0
 76
0
330
1F
  0
MLEADERSTYLE
  5
4B
102
{ACAD_REACTORS
330
4A
102
}
330
4A
100
AcDbMLeaderStyle
170
2
171
1
172
0
 90
2
 40
0
 41
0
173
1
 91
0
340
0
 92
-2
290
1
 42
0.09
292
1
 43
0.36
  3
Standard
341
0
 44
0.18
300

342
0
174
1
178
1
175
1
176
0
 93
0
 45
0.18
292
0
297
0
 46
0
343
0
 94
0
 47
1
 49
1
140
1
293
1
141
0
294
1
177
0
142
1
295
0
296
0
143
0.125
  0
MLINESTYLE
  5
18
102
{ACAD_REACTORS
330
17
102
}
330
17
100
AcDbMlineStyle
  2
STANDARD
 70
0
  3

 51
90
 52
90
 71
2
 49
0.5
 62
0
  6
ByLayer
 49
-0.5
 62
0
  6
ByLayer
  0
TABLESTYLE
  5
4D
102
{ACAD_XDICTIONARY
360
4E
102
}
102
{ACAD_REACTORS
330
4C
102
}
330
4C
100
AcDbTableStyle
  3

 70
0
 71
0
 40
0.06
 41
0.06
280
0
281
0
  7
Standard
140
0.18
170
1
 62
0
283
0
 90
512
 91
0
274
-2
284
1
 64
0
275
-2
285
1
 65
0
276
-2
286
1
 66
0
277
-2
287
1
 67
0
278
-2
288
1
 68
0
279
-2
289
1
 69
0
  7
Standard
140
0.18
170
1
 62
0
283
0
 90
512
 91
0
274
-2
284
1
 64
0
275
-2
285
1
 65
0
276
-2
286
1
 66
0
277
-2
287
1
 67
0
278
-2
288
1
 68
0
279
-2
289
1
 69
0
  7
Standard
140
0.18
170
1
 62
0
283
0
 90
512
 91
0
274
-2
284
1
 64
0
275
-2
285
1
 65
0
276
-2
286
1
 66
0
277
-2
287
1
 67
0
278
-2
288
1
 68
0
279
-2
289
1
 69
0
  0
DICTIONARYVAR
  5
52
102
{ACAD_REACTORS
330
51
102
}
330
51
100
DictionaryVariables
280
0
  1
1
  0
DICTIONARYVAR
  5
53
102
{ACAD_REACTORS
330
51
102
}
330
51
100
DictionaryVariables
280
0
  1
2
  0
ENDSEC
999
Created By CadLib version 4.0.38.30
999
CadLib website: www.woutware.com
  0
EOF
