  0
SECTION
  2
HEADER
  9
$ACADVER
  1
AC1015
  9
$DWGCODEPAGE
  3
ansi_1252
  9
$INSBASE
 10
0
 20
0
 30
0
  9
$EXTMIN
 10
1880.5100098656251
 20
60.206981386953146
 30
0
  9
$EXTMAX
 10
2499.0000001000003
 20
1999.0000000941413
 30
0
  9
$LIMMIN
 10
0
 20
0
  9
$LIMMAX
 10
12
 20
9
  9
$SNAPMODE
 70
0
  9
$SNAPUNIT
 10
1
 20
1
  9
$SNAPBASE
 10
0
 20
0
  9
$SNAPANG
 50
0
  9
$SNAPSTYLE
 70
0
  9
$SNAPISOPAIR
 70
0
  9
$ORTHOMODE
 70
0
  9
$REGENMODE
 70
1
  9
$FILLMODE
 70
1
  9
$QTEXTMODE
 70
0
  9
$MIRRTEXT
 70
1
  9
$LTSCALE
 40
1
  9
$OSMODE
 70
0
  9
$ATTMODE
 70
1
  9
$TEXTSIZE
 40
0.2
  9
$TRACEWID
 40
0.05
  9
$TEXTSTYLE
  7
Standard
  9
$CLAYER
  8
0
  9
$CELTYPE
  6
ByLayer
  9
$CECOLOR
 62
256
  9
$CELTSCALE
 40
1
  9
$DISPSILH
 70
0
  9
$DIMSCALE
 40
1
  9
$DIMASZ
 40
0.18
  9
$DIMEXO
 40
0.0625
  9
$DIMDLI
 40
0.38
  9
$DIMRND
 40
0
  9
$DIMDLE
 40
0
  9
$DIMEXE
 40
0.18
  9
$DIMTP
 40
0
  9
$DIMTM
 40
0
  9
$DIMTXT
 40
0.18
  9
$DIMCEN
 40
0.09
  9
$DIMTSZ
 40
0
  9
$DIMTOL
 70
0
  9
$DIMLIM
 70
0
  9
$DIMTIH
 70
1
  9
$DIMTOH
 70
1
  9
$DIMSE1
 70
0
  9
$DIMSE2
 70
0
  9
$DIMTAD
 70
0
  9
$DIMZIN
 70
0
  9
$DIMBLK
  1

  9
$DIMASO
 70
1
  9
$DIMSHO
 70
1
  9
$DIMPOST
  1

  9
$DIMAPOST
  1

  9
$DIMALT
 70
0
  9
$DIMALTD
 70
2
  9
$DIMALTF
 40
0.03937007874015748
  9
$DIMLFAC
 40
1
  9
$DIMTOFL
 70
0
  9
$DIMTVP
 40
0
  9
$DIMTIX
 70
0
  9
$DIMSOXD
 70
0
  9
$DIMSAH
 70
0
  9
$DIMBLK1
  1

  9
$DIMBLK2
  1

  9
$DIMSTYLE
  2
Standard
  9
$DIMCLRD
 70
0
  9
$DIMCLRE
 70
0
  9
$DIMCLRT
 70
0
  9
$DIMTFAC
 40
1
  9
$DIMGAP
 40
0.09
  9
$DIMJUST
 70
0
  9
$DIMSD1
 70
0
  9
$DIMSD2
 70
0
  9
$DIMTOLJ
 70
1
  9
$DIMTZIN
 70
0
  9
$DIMALTZ
 70
0
  9
$DIMALTTZ
 70
0
  9
$DIMUPT
 70
0
  9
$DIMDEC
 70
4
  9
$DIMTDEC
 70
4
  9
$DIMALTU
 70
2
  9
$DIMALTTD
 70
0
  9
$DIMTXSTY
  7
Standard
  9
$DIMAUNIT
 70
0
  9
$DIMADEC
 70
0
  9
$DIMALTRND
 40
0
  9
$DIMAZIN
 70
0
  9
$DIMDSEP
 70
46
  9
$DIMATFIT
 70
0
  9
$DIMFRAC
 70
0
  9
$DIMLDRBLK
  1

  9
$DIMLUNIT
 70
2
  9
$DIMLWD
 70
-2
  9
$DIMLWE
 70
-2
  9
$LUNITS
 70
2
  9
$LUPREC
 70
4
  9
$SKETCHINC
 40
0.1
  9
$FILLETRAD
 40
0
  9
$AUNITS
 70
0
  9
$AUPREC
 70
0
  9
$MENU
  1
.
  9
$ELEVATION
 40
0
  9
$PELEVATION
 40
0
  9
$THICKNESS
 40
0
  9
$LIMCHECK
 70
0
  9
$CHAMFERA
 40
0.5
  9
$CHAMFERB
 40
0.5
  9
$CHAMFERC
 40
0
  9
$CHAMFERD
 40
0
  9
$SKPOLY
 70
0
  9
$TDCREATE
 40
2460962.94965
  9
$TDUCREATE
 40
2460962.9079833333
  9
$TDUPDATE
 40
2460962.94965
  9
$TDUUPDATE
 40
2460962.9079833333
  9
$TDINDWG
 40
0
  9
$TDUSRTIMER
 40
1.1574074074074074E-08
  9
$USRTIMER
 70
1
  9
$ANGBASE
 50
0
  9
$ANGDIR
 70
1
  9
$PDMODE
 70
0
  9
$PDSIZE
 40
0
  9
$PLINEWID
 40
0
  9
$SPLFRAME
 70
0
  9
$SPLINETYPE
 70
6
  9
$SPLINESEGS
 70
8
  9
$HANDSEED
  5
89
  9
$SURFTAB1
 70
6
  9
$SURFTAB2
 70
6
  9
$SURFTYPE
 70
6
  9
$SURFU
 70
6
  9
$SURFV
 70
6
  9
$UCSORG
 10
0
 20
0
 30
0
  9
$UCSXDIR
 10
1
 20
0
 30
0
  9
$UCSYDIR
 10
0
 20
1
 30
0
  9
$UCSORTHOREF
  2

  9
$UCSORTHOVIEW
 70
0
  9
$UCSORGTOP
 10
0
 20
0
 30
0
  9
$UCSORGBOTTOM
 10
0
 20
0
 30
0
  9
$UCSORGLEFT
 10
0
 20
0
 30
0
  9
$UCSORGRIGHT
 10
0
 20
0
 30
0
  9
$UCSORGFRONT
 10
0
 20
0
 30
0
  9
$UCSORGBACK
 10
0
 20
0
 30
0
  9
$PUCSORG
 10
0
 20
0
 30
0
  9
$PUCSXDIR
 10
1
 20
0
 30
0
  9
$PUCSYDIR
 10
0
 20
1
 30
0
  9
$PUCSORTHOREF
  2

  9
$PUCSORTHOVIEW
 70
0
  9
$PUCSORGTOP
 10
0
 20
0
 30
0
  9
$PUCSORGBOTTOM
 10
0
 20
0
 30
0
  9
$PUCSORGLEFT
 10
0
 20
0
 30
0
  9
$PUCSORGRIGHT
 10
0
 20
0
 30
0
  9
$PUCSORGFRONT
 10
0
 20
0
 30
0
  9
$PUCSORGBACK
 10
0
 20
0
 30
0
  9
$USERI1
 70
0
  9
$USERI2
 70
0
  9
$USERI3
 70
0
  9
$USERI4
 70
0
  9
$USERI5
 70
0
  9
$USERR1
 40
0
  9
$USERR2
 40
0
  9
$USERR3
 40
0
  9
$USERR4
 40
0
  9
$USERR5
 40
0
  9
$WORLDVIEW
 70
1
  9
$SHADEDGE
 70
3
  9
$SHADEDIF
 70
70
  9
$TILEMODE
 70
1
  9
$MAXACTVP
 70
48
  9
$PINSBASE
 10
0
 20
0
 30
0
  9
$PLIMCHECK
 70
0
  9
$PEXTMIN
 10
1E+20
 20
1E+20
 30
1E+20
  9
$PEXTMAX
 10
-1E+20
 20
-1E+20
 30
-1E+20
  9
$PLIMMAX
 10
0
 20
0
  9
$PLIMMIN
 10
0
 20
0
  9
$UNITMODE
 70
0
  9
$VISRETAIN
 70
1
  9
$PLINEGEN
 70
1
  9
$PSLTSCALE
 70
1
  9
$TREEDEPTH
 70
3020
  9
$CMLSTYLE
  2
STANDARD
  9
$CMLJUST
 70
0
  9
$CMLSCALE
 40
1
  9
$PROXYGRAPHICS
 70
1
  9
$MEASUREMENT
 70
1
  9
$CELWEIGHT
370
-1
  9
$ENDCAPS
280
0
  9
$JOINSTYLE
280
0
  9
$LWDISPLAY
290
1
  9
$INSUNITS
 70
4
  9
$HYPERLINKBASE
  1

  9
$XEDIT
290
1
  9
$CEPSNTYPE
380
0
  9
$PSTYLEMODE
290
0
  9
$FINGERPRINTGUID
  2

  9
$VERSIONGUID
  2

  9
$EXTNAMES
290
1
  9
$PSVPSCALE
 40
0
  9
$CSHADOW
280
0
  9
$SHADOWPLANELOCATION
 40
0
  0
ENDSEC
  0
SECTION
  2
CLASSES
  0
CLASS
  1
RASTERVARIABLES
  2
AcDbRasterVariables
  3
ISM
 90
0
280
0
281
0
  0
CLASS
  1
IMAGEDEF
  2
AcDbRasterImageDef
  3
ISM
 90
0
280
0
281
0
  0
CLASS
  1
IMAGEDEF_REACTOR
  2
AcDbRasterImageDefReactor
  3
ISM
 90
1
280
0
281
0
  0
CLASS
  1
IMAGE
  2
AcDbRasterImage
  3
ISM
 90
127
280
0
281
1
  0
CLASS
  1
ACAD_EVALUATION_GRAPH
  2
AcDbEvalGraph
  3
ObjectDBX Classes
 90
1153
280
0
281
0
  0
CLASS
  1
BLOCKPOINTPARAMETER
  2
AcDbBlockPointParameter
  3
ObjectDBX Classes
 90
1153
280
0
281
0
  0
CLASS
  1
BLOCKBASEPOINTPARAMETER
  2
AcDbBlockBasepointParameter
  3
ObjectDBX Classes
 90
1153
280
0
281
0
  0
CLASS
  1
BLOCKLOOKUPPARAMETER
  2
AcDbBlockLookupParameter
  3
ObjectDBX Classes
 90
1153
280
0
281
0
  0
CLASS
  1
BLOCKVISIBILITYPARAMETER
  2
AcDbBlockVisibilityParameter
  3
ObjectDBX Classes
 90
1153
280
0
281
0
  0
CLASS
  1
BLOCKPROPERTIESTABLE
  2
AcDbBlockPropertiesTable
  3
ObjectDBX Classes
 90
1153
280
0
281
0
  0
CLASS
  1
BLOCKPOLARPARAMETER
  2
AcDbBlockPolarParameter
  3
ObjectDBX Classes
 90
1153
280
0
281
0
  0
CLASS
  1
BLOCKROTATIONPARAMETER
  2
AcDbBlockRotationParameter
  3
ObjectDBX Classes
 90
1153
280
0
281
0
  0
CLASS
  1
BLOCKLINEARPARAMETER
  2
AcDbBlockLinearParameter
  3
ObjectDBX Classes
 90
1153
280
0
281
0
  0
CLASS
  1
BLOCKXYPARAMETER
  2
AcDbBlockXYParameter
  3
ObjectDBX Classes
 90
1153
280
0
281
0
  0
CLASS
  1
BLOCKFLIPPARAMETER
  2
AcDbBlockFlipParameter
  3
ObjectDBX Classes
 90
1153
280
0
281
0
  0
CLASS
  1
BLOCKALIGNMENTPARAMETER
  2
AcDbBlockAlignmentParameter
  3
ObjectDBX Classes
 90
1153
280
0
281
0
  0
CLASS
  1
BLOCKROTATEACTION
  2
AcDbBlockRotateAction
  3
ObjectDBX Classes
 90
1153
280
0
281
0
  0
CLASS
  1
BLOCKSCALEACTION
  2
AcDbBlockScaleAction
  3
ObjectDBX Classes
 90
1153
280
0
281
0
  0
CLASS
  1
BLOCKARRAYACTION
  2
AcDbBlockArrayAction
  3
ObjectDBX Classes
 90
1153
280
0
281
0
  0
CLASS
  1
BLOCKFLIPACTION
  2
AcDbBlockFlipAction
  3
ObjectDBX Classes
 90
1153
280
0
281
0
  0
CLASS
  1
BLOCKLOOKUPACTION
  2
AcDbBlockLookupAction
  3
ObjectDBX Classes
 90
1153
280
0
281
0
  0
CLASS
  1
BLOCKMOVEACTION
  2
AcDbBlockMoveAction
  3
ObjectDBX Classes
 90
1153
280
0
281
0
  0
CLASS
  1
BLOCKPOLARSTRETCHACTION
  2
AcDbBlockPolarStretchAction
  3
ObjectDBX Classes
 90
1153
280
0
281
0
  0
CLASS
  1
BLOCKSTRETCHACTION
  2
AcDbBlockStretchAction
  3
ObjectDBX Classes
 90
1153
280
0
281
0
  0
CLASS
  1
BLOCKALIGNMENTGRIP
  2
AcDbBlockAlignmentGrip
  3
ObjectDBX Classes
 90
1153
280
0
281
0
  0
CLASS
  1
BLOCKFLIPGRIP
  2
AcDbBlockFlipGrip
  3
ObjectDBX Classes
 90
1153
280
0
281
0
  0
CLASS
  1
ACDB_BLOCKREPRESENTATION_DATA
  2
AcDbBlockRepresentationData
  3
ObjectDBX Classes
 90
1153
280
0
281
0
  0
CLASS
  1
ACDB_DYNAMICBLOCKPURGEPREVENTER_VERSION
  2
AcDbDynamicBlockPurgePreventer
  3
ObjectDBX Classes
 90
1153
280
0
281
0
  0
CLASS
  1
BLOCKLINEARGRIP
  2
AcDbBlockLinearGrip
  3
ObjectDBX Classes
 90
1153
280
0
281
0
  0
CLASS
  1
BLOCKLOOKUPGRIP
  2
AcDbBlockLookupGrip
  3
ObjectDBX Classes
 90
1153
280
0
281
0
  0
CLASS
  1
BLOCKPOLARGRIP
  2
AcDbBlockPolarGrip
  3
ObjectDBX Classes
 90
1153
280
0
281
0
  0
CLASS
  1
BLOCKPROPERTIESTABLEGRIP
  2
AcDbBlockPropertiesTableGrip
  3
ObjectDBX Classes
 90
1153
280
0
281
0
  0
CLASS
  1
BLOCKROTATIONGRIP
  2
AcDbBlockRotationGrip
  3
ObjectDBX Classes
 90
1153
280
0
281
0
  0
CLASS
  1
BLOCKVISIBILITYGRIP
  2
AcDbBlockVisibilityGrip
  3
ObjectDBX Classes
 90
1153
280
0
281
0
  0
CLASS
  1
BLOCKXYGRIP
  2
AcDbBlockXYGrip
  3
ObjectDBX Classes
 90
1153
280
0
281
0
  0
CLASS
  1
BLOCKGRIPLOCATIONCOMPONENT
  2
AcDbBlockGripExpr
  3
ObjectDBX Classes
 90
1153
280
0
281
0
  0
CLASS
  1
ACDB_DYNAMICBLOCKPROXYNODE
  2
AcDbDynamicBlockProxyNode
  3
ObjectDBX Classes
 90
1153
280
0
281
0
  0
CLASS
  1
BLOCKLINEARCONSTRAINTPARAMETER
  2
AcDbBlockLinearConstraintParameter
  3
ObjectDBX Classes
 90
1153
280
0
281
0
  0
CLASS
  1
BLOCKHORIZONTALCONSTRAINTPARAMETER
  2
AcDbBlockHorizontalConstraintParameter
  3
ObjectDBX Classes
 90
1153
280
0
281
0
  0
CLASS
  1
BLOCKVERTICALCONSTRAINTPARAMETER
  2
AcDbBlockVerticalConstraintParameter
  3
ObjectDBX Classes
 90
1153
280
0
281
0
  0
CLASS
  1
BLOCKALIGNEDCONSTRAINTPARAMETER
  2
AcDbBlockAlignedConstraintParameter
  3
ObjectDBX Classes
 90
1153
280
0
281
0
  0
CLASS
  1
BLOCKANGULARCONSTRAINTPARAMETER
  2
AcDbBlockAngularConstraintParameter
  3
ObjectDBX Classes
 90
1153
280
0
281
0
  0
CLASS
  1
BLOCKDIAMETRICCONSTRAINTPARAMETER
  2
AcDbBlockDiametricConstraintParameter
  3
ObjectDBX Classes
 90
1153
280
0
281
0
  0
CLASS
  1
BLOCKRADIALCONSTRAINTPARAMETER
  2
AcDbBlockRadialConstraintParameter
  3
ObjectDBX Classes
 90
1153
280
0
281
0
  0
ENDSEC
  0
SECTION
  2
TABLES
  0
TABLE
  2
VPORT
  5
8
330
0
100
AcDbSymbolTable
 70
1
  0
VPORT
  5
64
330
8
100
AcDbSymbolTableRecord
100
AcDbViewportTableRecord
  2
*Active
 70
64
 10
0
 20
0
 11
1
 21
1
 12
2189.7550049828128
 22
1029.6034907405472
 13
0
 23
0
 14
1
 24
1
 15
0
 25
0
 16
0
 26
0
 36
1
 17
0
 27
0
 37
0
 40
1938.7930187071881
 41
0.31900774567818085
 42
50
 43
0
 44
0
 50
0
 51
0
 71
0
 72
20000
 73
20000
 74
1
 75
0
 76
0
 77
0
 78
0
281
0
 65
1
110
0
120
0
130
0
111
1
121
0
131
0
112
0
122
1
132
0
 79
0
146
0
  0
ENDTAB
  0
TABLE
  2
LTYPE
  5
5
100
AcDbSymbolTable
 70
3
  0
LTYPE
  5
16
330
5
100
AcDbSymbolTableRecord
100
AcDbLinetypeTableRecord
  2
Continuous
  3
Solid line
 70
64
 72
65
 73
0
 40
0
  0
LTYPE
  5
14
330
5
100
AcDbSymbolTableRecord
100
AcDbLinetypeTableRecord
  2
ByBlock
  3

 70
64
 72
65
 73
0
 40
0
  0
LTYPE
  5
15
330
5
100
AcDbSymbolTableRecord
100
AcDbLinetypeTableRecord
  2
ByLayer
  3

 70
64
 72
65
 73
0
 40
0
  0
ENDTAB
  0
TABLE
  2
LAYER
  5
2
100
AcDbSymbolTable
 70
6
  0
LAYER
  5
10
330
2
100
AcDbSymbolTableRecord
100
AcDbLayerTableRecord
 70
64
  2
0
 62
7
  6
Continuous
370
-3
390
F
  0
LAYER
  5
27
330
2
100
AcDbSymbolTableRecord
100
AcDbLayerTableRecord
 70
64
  2
1
 62
7
  6
Continuous
370
-3
390
F
  0
LAYER
  5
28
330
2
100
AcDbSymbolTableRecord
100
AcDbLayerTableRecord
 70
64
  2
11
 62
7
  6
Continuous
370
-3
390
F
  0
LAYER
  5
29
330
2
100
AcDbSymbolTableRecord
100
AcDbLayerTableRecord
 70
64
  2
3
 62
7
  6
Continuous
370
-3
390
F
  0
LAYER
  5
2A
330
2
100
AcDbSymbolTableRecord
100
AcDbLayerTableRecord
 70
64
  2
2
 62
7
  6
Continuous
370
-3
390
F
  0
LAYER
  5
2B
330
2
100
AcDbSymbolTableRecord
100
AcDbLayerTableRecord
 70
64
  2
DEFPOINTS
 62
7
  6
Continuous
290
0
370
-3
390
F
  0
ENDTAB
  0
TABLE
  2
STYLE
  5
3
100
AcDbSymbolTable
 70
1
  0
STYLE
  5
11
330
3
100
AcDbSymbolTableRecord
100
AcDbTextStyleTableRecord
  2
Standard
 70
64
 40
0
 41
1
 50
0
 71
0
 42
0.2
  3
txt.shx
  0
ENDTAB
  0
TABLE
  2
VIEW
  5
6
100
AcDbSymbolTable
 70
0
  0
ENDTAB
  0
TABLE
  2
UCS
  5
7
100
AcDbSymbolTable
 70
0
  0
ENDTAB
  0
TABLE
  2
APPID
  5
9
330
0
100
AcDbSymbolTable
 70
2
  0
APPID
  5
12
330
0
100
AcDbSymbolTableRecord
100
AcDbRegAppTableRecord
  2
ACAD
 70
64
  0
APPID
  5
87
330
0
100
AcDbSymbolTableRecord
100
AcDbRegAppTableRecord
  2
ACAD_MLEADERVER
 70
64
  0
ENDTAB
  0
TABLE
  2
DIMSTYLE
  5
A
330
0
100
AcDbSymbolTable
 70
1
100
AcDbDimStyleTable
 71
0
  0
DIMSTYLE
105
63
330
A
100
AcDbSymbolTableRecord
100
AcDbDimStyleTableRecord
  2
Standard
 70
64
  3

  4

 40
1
 41
0.18
 42
0.0625
 43
0.38
 44
0.18
 45
0
 46
0
 47
0
 48
0
140
0.18
141
0.09
142
0
143
1
144
1
145
0
146
1
147
0.09
148
0
 71
0
 72
0
 73
1
 74
1
 75
0
 76
0
 77
0
 78
0
 79
0
170
0
171
2
172
0
173
0
174
0
175
0
179
0
271
4
272
4
273
2
274
0
275
0
276
0
277
2
278
46
279
0
280
0
281
0
282
0
283
1
284
0
285
0
286
0
288
0
289
0
340
11
371
-2
372
-2
  0
ENDTAB
  0
TABLE
  2
BLOCK_RECORD
  5
1
330
0
100
AcDbSymbolTable
 70
3
  0
BLOCK_RECORD
  5
1F
330
1
100
AcDbSymbolTableRecord
100
AcDbBlockTableRecord
  2
*Model_Space
340
22
  0
BLOCK_RECORD
  5
60
330
1
100
AcDbSymbolTableRecord
100
AcDbBlockTableRecord
  2
*Paper_Space
340
1E
  0
ENDTAB
  0
ENDSEC
  0
SECTION
  2
BLOCKS
  0
BLOCK
  5
20
330
1F
100
AcDbEntity
  8
0
100
AcDbBlockBegin
  2
*Model_Space
 70
64
 10
0
 20
0
 30
0
  3
*Model_Space
  0
ENDBLK
  5
21
330
1F
100
AcDbEntity
  8
0
100
AcDbBlockEnd
  0
BLOCK
  5
61
330
60
100
AcDbEntity
  8
0
 67
1
100
AcDbBlockBegin
  2
*Paper_Space
 70
64
 10
0
 20
0
 30
0
  3
*Paper_Space
  0
ENDBLK
  5
62
330
60
100
AcDbEntity
  8
0
100
AcDbBlockEnd
  0
ENDSEC
  0
SECTION
  2
ENTITIES
  0
LWPOLYLINE
  5
2C
330
1F
100
AcDbEntity
  8
1
 62
7
100
AcDbPolyline
 90
91
 70
1
 10
2499.0000001000003
 20
1515.6380311000003
 10
2499.0000001
 20
1975.3780213343755
 10
2498.4918824242186
 20
1980.9660950648445
 10
2496.7139283226556
 20
1985.7919922816413
 10
2495.1898804710936
 20
1988.0780640589844
 10
2492.9041138695306
 20
1990.3639832484373
 10
2486.8079224632806
 20
1994.6820679652344
 10
2480.7120362328114
 20
1997.2220459925784
 10
2474.1080323265614
 20
1998.4920350062505
 10
2119.2700806664056
 20
1998.4920350062505
 10
2105.8080140160146
 20
1999.0000000941413
 10
2092.3459473656249
 20
1998.2379761683594
 10
2079.3919983910146
 20
1995.6979981410163
 10
2067.2000733421864
 20
1991.8880311000005
 10
2059.8340455101556
 20
1988.8400879847663
 10
2054.2459717796864
 20
1985.7919922816413
 10
2049.9280396507806
 20
1982.2360840785163
 10
2041.2920228050782
 20
1973.6000672328123
 10
2037.2279969261724
 20
1970.2980652796873
 10
2026.8140259789063
 20
1963.1860962855474
 10
2018.4320679710943
 20
1959.6300354945313
 10
2010.8119813011724
 20
1958.3600464808594
 10
1999.3820801781255
 20
1958.3600464808594
 10
1985.6659546898443
 20
1960.3920594203123
 10
1980.0780335472652
 20
1960.1380005824224
 10
1967.8859559105474
 20
1955.8200684535163
 10
1964.0759888695313
 20
1953.7880555140623
 10
1961.2819520042974
 20
1950.9940186488284
 10
1958.7419739769532
 20
1947.6920166957034
 10
1956.4560547875
 20
1943.6279908167974
 10
1954.9320069359371
 20
1939.3100586878913
 10
1954.9320069359371
 20
1897.6540223109373
 10
1954.1699830101563
 20
1890.7959595667974
 10
1952.1379700707032
 20
1884.7000733363284
 10
1947.0580140160152
 20
1877.3340455042974
 10
1942.4860230492193
 20
1873.7779847132813
 10
1936.64404306875
 20
1871.2380066859373
 10
1902.3540345238282
 20
1871.2380066859371
 10
1895.2420655296871
 20
1868.4439698207032
 10
1889.3999329613282
 20
1864.3800965296871
 10
1886.606048683984
 20
1861.3320008265621
 10
1884.0660706566402
 20
1857.7760926234371
 10
1882.0340577171871
 20
1853.7120667445313
 10
1880.5100098656251
 20
1849.3939820277344
 10
1880.5100098656253
 20
1653.8139954554695
 10
1881.2720337914063
 20
1649.4960633265623
 10
1882.5420228050784
 20
1645.4320374476563
 10
1884.3199769066402
 20
1641.8760529505864
 10
1886.6060486839842
 20
1638.8280335414063
 10
1890.6700745628902
 20
1635.0180665003913
 10
1895.4959717796874
 20
1632.2240296351563
 10
1899.5599976585943
 20
1630.7000580775393
 10
1904.1319886253902
 20
1629.9380341517583
 10
1913.7839356468753
 20
1630.7000580775393
 10
2018.1780091332032
 20
1630.7000580775393
 10
2024.5279542015621
 20
1629.9380341517583
 10
2030.6239930199224
 20
1628.1600037562505
 10
2035.7039490746095
 20
1625.3660431849614
 10
2039.7679749535152
 20
1622.0640412318364
 10
2042.3079529808595
 20
1619.0160218226563
 10
2044.5940247582032
 20
1614.9519959437505
 10
2046.3719788597652
 20
1610.1260224330083
 10
2048.149932961328
 20
1603.5220185267583
 10
2048.6580506371092
 20
1599.2040101039063
 10
2048.9119568871092
 20
1589.5520630824224
 10
2049.67398081289
 20
1585.2340546595703
 10
2055.2620545433592
 20
1573.8040009486333
 10
2057.802032570703
 20
1571.0100403773445
 10
2061.8660584496092
 20
1567.9620209681643
 10
2066.4380494164061
 20
1565.4220429408203
 10
2071.7720643089842
 20
1563.3900300013674
 10
2077.614044289453
 20
1562.1200409876953
 10
2291.7360535667972
 20
1562.1200409876953
 10
2304.6900025414061
 20
1559.0720215785163
 10
2317.1359864281253
 20
1555.5160370814453
 10
2329.5819703148441
 20
1550.9440461146482
 10
2341.5199891136722
 20
1545.8640137660163
 10
2352.188018898828
 20
1540.2760163294922
 10
2381.906036476953
 20
1522.4960175501956
 10
2385.6982914323139
 20
1520.4356634915903
 10
2408.8300171898441
 20
1508.7800446498049
 10
2418.481964211328
 20
1504.7160187708987
 10
2427.3720398949222
 20
1501.667999361719
 10
2447.6920167015619
 20
1496.5880433070315
 10
2456.581939797265
 20
1495.3180542933596
 10
2477.917999367578
 20
1494.0480652796878
 10
2481.7279664085941
 20
1494.5560303675784
 10
2484.7760621117191
 20
1495.5720368373049
 10
2489.6021119164061
 20
1498.87403879043
 10
2493.9200440453119
 20
1503.4460297572268
 10
2496.9681397484369
 20
1509.0340271937503
  0
LWPOLYLINE
  5
2D
330
1F
100
AcDbEntity
  8
11
 62
7
100
AcDbPolyline
 90
23
 70
1
 10
2482.7440491722646
 20
1955.8200684535163
 10
2482.2359314964838
 20
1959.6300354945313
 10
2480.7120362328114
 20
1962.9320374476563
 10
2478.6800232933588
 20
1965.7260743128913
 10
2475.6320801781249
 20
1968.0119935023445
 10
2472.330078225
 20
1969.5360413539063
 10
2468.7740174339838
 20
1970.0440064417974
 10
2464.9640503929686
 20
1969.5360413539063
 10
2461.6620484398436
 20
1968.0119935023445
 10
2458.8680115746088
 20
1965.7260743128913
 10
2456.5819397972646
 20
1962.9320374476563
 10
2455.0580445335936
 20
1959.6300354945313
 10
2455.0580445335936
 20
1952.2640076625005
 10
2456.5819397972646
 20
1948.9620057093755
 10
2458.8680115746088
 20
1945.9140625941413
 10
2461.6620484398436
 20
1943.8820496546873
 10
2464.9640503929686
 20
1942.3580018031255
 10
2468.7740174339838
 20
1941.8500367152344
 10
2472.330078225
 20
1942.3580018031255
 10
2475.6320801781249
 20
1943.8820496546873
 10
2478.6800232933588
 20
1945.9140625941413
 10
2480.7120362328114
 20
1948.9620057093755
 10
2482.2359314964838
 20
1952.2640076625005
  0
LWPOLYLINE
  5
2E
330
1F
100
AcDbEntity
  8
11
 62
7
100
AcDbPolyline
 90
24
 70
1
 10
2483.7599793480472
 20
1542.0540467250005
 10
2483.2520142601561
 20
1545.6100312220703
 10
2481.9820252464842
 20
1548.9120331751953
 10
2479.69595346914
 20
1551.9600525843753
 10
2476.9020691917972
 20
1553.9920655238284
 10
2473.3460084007811
 20
1555.5160370814453
 10
2469.789947609765
 20
1556.0240021693364
 10
2466.23403940664
 20
1555.5160370814453
 10
2462.6779786156253
 20
1553.9920655238284
 10
2459.88394175039
 20
1551.9600525843755
 10
2457.5980225609369
 20
1548.9120331751953
 10
2456.328033547265
 20
1545.6100312220703
 10
2455.8200684593753
 20
1542.0540467250003
 10
2456.328033547265
 20
1538.2440033900393
 10
2457.5980225609369
 20
1534.9420014369143
 10
2459.88394175039
 20
1532.1480408656253
 10
2462.6779786156253
 20
1529.8620453822268
 10
2466.23403940664
 20
1528.3379975306643
 10
2469.789947609765
 20
1527.8300324427737
 10
2473.3460084007811
 20
1528.3379975306643
 10
2476.9020691917972
 20
1529.8620453822268
 10
2479.69595346914
 20
1532.1480408656253
 10
2481.9820252464842
 20
1534.9420014369143
 10
2483.2520142601561
 20
1538.2440033900393
  0
POINT
  5
2F
330
1F
100
AcDbEntity
  8
3
 62
7
100
AcDbPoint
 10
1974.7440186546871
 20
1958.3600464808594
 30
0
 50
0
  0
POINT
  5
30
330
1F
100
AcDbEntity
  8
3
 62
7
100
AcDbPoint
 10
1908.9580384300784
 20
1630.1920166957034
 30
0
 50
0
  0
POINT
  5
31
330
1F
100
AcDbEntity
  8
3
 62
7
100
AcDbPoint
 10
2304.6900025414061
 20
1559.0720215785163
 30
0
 50
0
  0
POINT
  5
32
330
1F
100
AcDbEntity
  8
3
 62
7
100
AcDbPoint
 10
2329.5819703148441
 20
1550.9440461146482
 30
0
 50
0
  0
POINT
  5
33
330
1F
100
AcDbEntity
  8
3
 62
7
100
AcDbPoint
 10
2373.0159607933592
 20
1527.5760498988284
 30
0
 50
0
  0
POINT
  5
34
330
1F
100
AcDbEntity
  8
3
 62
7
100
AcDbPoint
 10
2381.906036476953
 20
1522.4960175501956
 30
0
 50
0
  0
POINT
  5
35
330
1F
100
AcDbEntity
  8
3
 62
7
100
AcDbPoint
 10
2385.6982914323139
 20
1520.4356634915903
 30
0
 50
0
  0
POINT
  5
36
330
1F
100
AcDbEntity
  8
3
 62
7
100
AcDbPoint
 10
2438.040069680078
 20
1498.87403879043
 30
0
 50
0
  0
POINT
  5
37
330
1F
100
AcDbEntity
  8
3
 62
7
100
AcDbPoint
 10
2464.9640503929691
 20
1494.8100129115237
 30
0
 50
0
  0
POINT
  5
38
330
1F
100
AcDbEntity
  8
2
 62
7
100
AcDbPoint
 10
2482.7440491722646
 20
1955.8200684535163
 30
0
 50
0
  0
POINT
  5
39
330
1F
100
AcDbEntity
  8
2
 62
7
100
AcDbPoint
 10
2483.7599793480472
 20
1542.0540467250005
 30
0
 50
0
  0
POINT
  5
3A
330
1F
100
AcDbEntity
  8
2
 62
7
100
AcDbPoint
 10
2499.0000001000003
 20
1515.6380311000003
 30
0
 50
0
  0
LWPOLYLINE
  5
3B
330
1F
100
AcDbEntity
  8
1
 62
7
100
AcDbPolyline
 90
67
 70
1
 10
1937.2159838423813
 20
1148.8190723869529
 10
1941.7880511031235
 20
1141.4530445549217
 10
1947.3760485396474
 20
1135.6110645744529
 10
1951.1860155806623
 20
1133.0707813713279
 10
1955.7580065474594
 20
1130.7850147697659
 10
1960.5839800582014
 20
1129.0070606682029
 10
1965.9179949507804
 20
1127.9908253166409
 10
2232.6180529341782
 20
1127.9908253166409
 10
2239.7300219283193
 20
1131.2928272697659
 10
2245.5720019087871
 20
1135.8649708244529
 10
2248.1119799361313
 20
1139.4208790275779
 10
2250.3980517134751
 20
1143.7388111564851
 10
2251.9219469771469
 20
1148.5648609611717
 10
2252.6839709029282
 20
1153.64481701586
 10
2252.6839709029282
 20
1292.8370167228909
 10
2255.2239489302719
 20
1300.9650684807029
 10
2259.2879748091782
 20
1308.0768848869529
 10
2262.0820116744121
 20
1311.88700451586
 10
2268.9400744185532
 20
1318.74491467211
 10
2273.0039477095693
 20
1321.5387989494529
 10
2281.1319994673813
 20
1325.60282482836
 10
2289.7680163130844
 20
1328.1428028557029
 10
2328.1220507369121
 20
1327.6349903557029
 10
2333.7099718794911
 20
1329.4129444572659
 10
2339.0439867720693
 20
1331.69901623461
 10
2344.1239428267563
 20
1334.7468067619529
 10
2347.4259447798813
 20
1337.7949024650779
 10
2349.7120165572251
 20
1340.8429981682029
 10
2351.4899706587871
 20
1344.1450001213279
 10
2352.7599596724594
 20
1347.7009083244529
 10
2353.5219835982411
 20
1351.76493420336
 10
2348.4420275435532
 20
1502.3868824455467
 10
2340.0600695357411
 20
1528.2947803947659
 10
2338.0280565962871
 20
1532.8669239494529
 10
2335.7419848189443
 20
1536.67704357836
 10
2327.3600268111313
 20
1546.0749317619529
 10
2322.7880358443344
 20
1549.88505139086
 10
2317.9619860396474
 20
1553.1870533439851
 10
2308.3100390181621
 20
1556.99686779711
 10
2303.2300829634755
 20
1558.2670093986717
 10
2297.8960680708974
 20
1559.0290333244529
 10
2245.0346627221461
 20
1557.5692901147108
 10
2177.8213019000532
 20
1554.696130141735
 10
2081.9774660042494
 20
1548.2879891127341
 10
1965.6640124068344
 20
1541.2488819572659
 10
1911.3080095992175
 20
1541.7569996330467
 10
1906.4820360884755
 20
1539.7248341057029
 10
1898.6080431685534
 20
1533.8828541252351
 10
1895.3060412154284
 20
1530.58085217211
 10
1892.0040392623034
 20
1525.7548023674217
 10
1890.2260088667956
 20
1521.4368702385159
 10
1888.9560198531237
 20
1514.8328663322659
 10
1887.1779894576159
 20
1368.7830616447659
 10
1886.1619829878894
 20
1363.4488941642967
 10
1885.908000443944
 20
1358.36893810961
 10
1886.41604182578
 20
1353.5428883049217
 10
1887.9400133833972
 20
1349.2249561760159
 10
1890.4799914107409
 20
1344.90702404711
 10
1894.2900347457019
 20
1340.5887867424217
 10
1899.3699908003896
 20
1337.0328785392967
 10
1912.8319811568344
 20
1331.4448048088279
 10
1922.9920458541005
 20
1325.60282482836
 10
1928.3259844527333
 20
1321.2848926994529
 10
1931.8820452437485
 20
1316.4588428947659
 10
1934.6760058150373
 20
1310.6168629142967
 10
1936.4540362105454
 20
1304.0128590080467
 10
1937.2159838423813
 20
1296.9010426017967
  0
POINT
  5
3C
330
1F
100
AcDbEntity
  8
3
 62
7
100
AcDbPoint
 10
2344.8859667525371
 20
1513.8169361564851
 30
0
 50
0
  0
POINT
  5
3D
330
1F
100
AcDbEntity
  8
3
 62
7
100
AcDbPoint
 10
2249.8393883613585
 20
1557.71895537589
 30
0
 50
0
  0
POINT
  5
3E
330
1F
100
AcDbEntity
  8
3
 62
7
100
AcDbPoint
 10
2187.4059557662094
 20
1555.2189136955467
 30
0
 50
0
  0
POINT
  5
3F
330
1F
100
AcDbEntity
  8
3
 62
7
100
AcDbPoint
 10
2177.8213019000532
 20
1554.696130141735
 30
0
 50
0
  0
POINT
  5
40
330
1F
100
AcDbEntity
  8
3
 62
7
100
AcDbPoint
 10
2086.8220019087871
 20
1548.6149097892967
 30
0
 50
0
  0
POINT
  5
41
330
1F
100
AcDbEntity
  8
3
 62
7
100
AcDbPoint
 10
2081.9774660042494
 20
1548.2879891127341
 30
0
 50
0
  0
POINT
  5
42
330
1F
100
AcDbEntity
  8
2
 62
7
100
AcDbPoint
 10
1937.2159838423813
 20
1148.8190723869529
 30
0
 50
0
  0
LWPOLYLINE
  5
43
330
1F
100
AcDbEntity
  8
1
 62
7
100
AcDbPolyline
 90
64
 70
1
 10
2088.7900391000003
 20
811.52283838695291
 10
2237.1259155648431
 20
811.52283838695291
 10
2243.9838257210931
 20
810.76081446117166
 10
2250.5878296273431
 20
808.98286035960916
 10
2256.4301147835931
 20
806.18882349437479
 10
2261.2558594125003
 20
802.63283899730448
 10
2265.8280029671869
 20
797.29882410472635
 10
2271.6699829476561
 20
787.138835701406
 10
2277.2580566781253
 20
773.67684534496073
 10
2280.5600586312503
 20
768.59681299632791
 10
2284.8779907601561
 20
764.78684595531229
 10
2289.1959228890619
 20
762.24686792796854
 10
2293.5138550179681
 20
760.722820076406
 10
2298.3399048226561
 20
760.21485498851541
 10
2303.6740723031253
 20
760.46883753246073
 10
2308.7540283578119
 20
761.48484400218729
 10
2454.8038330453119
 20
763.2627981037499
 10
2461.4078369515619
 20
764.53286341136709
 10
2465.9799805062503
 20
766.31081751292959
 10
2470.5521240609369
 20
769.61281946605459
 10
2474.1080322640619
 20
772.91482141917959
 10
2477.1561279671869
 20
776.72486475414053
 10
2481.9818725960931
 20
785.614864143789
 10
2481.4740600960931
 20
839.97086695140615
 10
2496.481790815461
 20
1090.5217154421018
 10
2499.0000000375003
 20
1172.2028463215236
 10
2498.2379761117181
 20
1177.5368230671288
 10
2495.4440918343753
 20
1187.696849617422
 10
2493.1580200570311
 20
1192.2688405842189
 10
2490.1099243539061
 20
1197.0948140949611
 10
2486.3001099007811
 20
1201.6668432087306
 10
2481.7279663460931
 20
1205.9848516315822
 10
2476.6480102914061
 20
1210.0488393635158
 10
2468.5199585335931
 20
1214.3668477863673
 10
2442.3578491585931
 20
1222.7488439411525
 10
2291.7359009164061
 20
1227.8288381428124
 10
2284.1159668343753
 20
1225.7968252033595
 10
2280.8139648812503
 20
1224.0188329548243
 10
2278.0200806039061
 20
1221.7328374714259
 10
2274.9719849007811
 20
1218.4308355183009
 10
2271.6699829476561
 20
1213.3508413166408
 10
2269.3839111703119
 20
1208.0168264240624
 10
2267.8598633187503
 20
1202.4288289875392
 10
2268.3679809945311
 20
1164.0748327106837
 10
2265.5740967171869
 20
1155.4388158649806
 10
2261.7639770882811
 20
1147.3108404011134
 10
2255.6680908578119
 20
1139.6908300251368
 10
2252.1118774789061
 20
1136.3888280720118
 10
2248.3020630257811
 20
1133.5948293537501
 10
2240.9360351937503
 20
1129.7848241657618
 10
2232.8079834359369
 20
1126.9908254475001
 10
2093.8699951546869
 20
1126.9908254475001
 10
2088.7900391000003
 20
1126.2288396686915
 10
2083.9639892953119
 20
1124.7048299641017
 10
2079.6460571664061
 20
1122.4188344807033
 10
2076.0898437875003
 20
1119.8788183063868
 10
2073.5498657601561
 20
1117.3388402790431
 10
2071.5180054085931
 20
1114.0368383259181
 10
2067.9620972054681
 20
1106.9248311848048
 10
2067.9620972054681
 20
840.22484949535135
 10
2070.7559814828119
 20
830.064861092031
 10
2073.0420532601561
 20
825.49287012523416
 10
2075.8359375375003
 20
821.68282679027323
 10
2081.6779175179681
 20
816.09482935374979
  0
POINT
  5
44
330
1F
100
AcDbEntity
  8
3
 62
7
100
AcDbPoint
 10
2488.8400879281253
 20
961.12885645335928
 30
0
 50
0
  0
POINT
  5
45
330
1F
100
AcDbEntity
  8
3
 62
7
100
AcDbPoint
 10
2490.1235981512291
 20
980.284273451488
 30
0
 50
0
  0
POINT
  5
46
330
1F
100
AcDbEntity
  8
3
 62
7
100
AcDbPoint
 10
2495.1898804085931
 20
1061.712848457754
 30
0
 50
0
  0
POINT
  5
47
330
1F
100
AcDbEntity
  8
3
 62
7
100
AcDbPoint
 10
2496.481790815461
 20
1090.5217154421018
 30
0
 50
0
  0
POINT
  5
48
330
1F
100
AcDbEntity
  8
3
 62
7
100
AcDbPoint
 10
2454.0421142953119
 20
1219.1928212971095
 30
0
 50
0
  0
POINT
  5
49
330
1F
100
AcDbEntity
  8
2
 62
7
100
AcDbPoint
 10
2088.7900391000003
 20
811.52283838695291
 30
0
 50
0
  0
LWPOLYLINE
  5
4A
330
1F
100
AcDbEntity
  8
1
 62
7
100
AcDbPolyline
 90
57
 70
1
 10
2014.6219861000006
 20
60.206981386953146
 10
2476.6480099647461
 20
60.206981386953174
 10
2480.9660183875976
 20
60.968700136953174
 10
2484.7759854286132
 20
62.492747988514765
 10
2491.1260067909179
 20
66.302867617420986
 10
2495.4440152137695
 20
70.620799746328174
 10
2497.7300106971679
 20
76.208873476796
 10
2498.99999971084
 20
92.972789492421015
 10
2498.2379757850586
 20
100.33881732445317
 10
2490.1100003211914
 20
135.13679095726476
 10
2486.2999569862304
 20
148.09089251976476
 10
2469.2819821327148
 20
194.06486102562505
 10
2467.4455435999562
 20
198.43004279458611
 10
2457.5980221717773
 20
219.97291156273397
 10
2452.2640072791992
 20
234.95887347679601
 10
2447.6920163124023
 20
258.32679339867104
 10
2446.4220272987304
 20
270.26481219750008
 10
2445.6600033729492
 20
282.45688983421792
 10
2445.6600033729496
 20
453.90677997093707
 10
2453.9151853750136
 20
508.208839361235
 10
2459.6299588172851
 20
553.47480365257809
 10
2463.4400021522461
 20
589.034801211171
 10
2467.7580105750976
 20
637.040782656484
 10
2472.8379666297851
 20
703.080821718984
 10
2476.13996858291
 20
723.14689227562508
 10
2476.3940274208007
 20
728.480907168203
 10
2475.8859860389648
 20
733.05289813500008
 10
2473.3460080116211
 20
742.95890399437508
 10
2469.7900235145507
 20
749.05479022484292
 10
2465.4720150916992
 20
753.8808400295311
 10
2460.9000241249028
 20
756.928783144765
 10
2455.5660092323246
 20
759.214854922109
 10
2070.501998612207
 20
759.21485492210888
 10
2063.3899914710942
 20
758.19877215843678
 10
2057.0400082557621
 20
755.4048878810928
 10
2052.9759823768559
 20
752.3567921779678
 10
2048.658012100977
 20
747.78480121117093
 10
2045.3560101478522
 20
742.4507863185928
 10
2027.5656717656443
 20
700.80361475379289
 10
2015.3840100257819
 20
669.04487201195286
 10
2003.4459912269538
 20
646.18476459007786
 10
2001.1599957435553
 20
640.08887835960888
 10
1999.8900067298835
 20
634.50080462913991
 10
1999.3820034950202
 20
624.59479876976491
 10
2001.3972624635026
 20
602.20403760137094
 10
2006.2399899452155
 20
563.38080951195309
 10
2007.255996414942
 20
546.87079974632809
 10
2007.5099789588874
 20
530.36078998070309
 10
2007.255996414942
 20
513.85078021507809
 10
2006.2399899452155
 20
497.34077044945315
 10
2003.4459912269538
 20
470.92490741234286
 10
1998.8740002601569
 20
444.50889178734286
 10
1996.3339840858405
 20
81.034770693592847
 10
1997.8579937904303
 20
75.700755801014722
 10
2000.651992508692
 20
70.874705996328132
 10
2006.4940106361335
 20
65.032726015858927
 10
2010.3039776771491
 20
62.238841738514736
  0
POINT
  5
4B
330
1F
100
AcDbEntity
  8
3
 62
7
100
AcDbPoint
 10
2493.1580197303711
 20
123.19877215843708
 30
0
 50
0
  0
POINT
  5
4C
330
1F
100
AcDbEntity
  8
3
 62
7
100
AcDbPoint
 10
2490.1100003211914
 20
135.13679095726476
 30
0
 50
0
  0
POINT
  5
4D
330
1F
100
AcDbEntity
  8
3
 62
7
100
AcDbPoint
 10
2473.0920254676757
 20
184.41291400413976
 30
0
 50
0
  0
POINT
  5
4E
330
1F
100
AcDbEntity
  8
3
 62
7
100
AcDbPoint
 10
2469.2819821327148
 20
194.06486102562505
 30
0
 50
0
  0
POINT
  5
4F
330
1F
100
AcDbEntity
  8
3
 62
7
100
AcDbPoint
 10
2449.7240292518554
 20
246.64283343773397
 30
0
 50
0
  0
POINT
  5
50
330
1F
100
AcDbEntity
  8
3
 62
7
100
AcDbPoint
 10
2446.4220272987304
 20
270.26481219750008
 30
0
 50
0
  0
POINT
  5
51
330
1F
100
AcDbEntity
  8
3
 62
7
100
AcDbPoint
 10
2453.2800137489262
 20
503.69086810570315
 30
0
 50
0
  0
POINT
  5
52
330
1F
100
AcDbEntity
  8
3
 62
7
100
AcDbPoint
 10
2459.6299588172851
 20
553.47480365257809
 30
0
 50
0
  0
POINT
  5
53
330
1F
100
AcDbEntity
  8
3
 62
7
100
AcDbPoint
 10
2463.4400021522461
 20
589.034801211171
 30
0
 50
0
  0
POINT
  5
54
330
1F
100
AcDbEntity
  8
3
 62
7
100
AcDbPoint
 10
2467.7580105750976
 20
637.040782656484
 30
0
 50
0
  0
POINT
  5
55
330
1F
100
AcDbEntity
  8
3
 62
7
100
AcDbPoint
 10
2040.5299984901374
 20
731.02088519554593
 30
0
 50
0
  0
POINT
  5
56
330
1F
100
AcDbEntity
  8
3
 62
7
100
AcDbPoint
 10
2033.1640088050788
 20
714.256816592031
 30
0
 50
0
  0
POINT
  5
57
330
1F
100
AcDbEntity
  8
3
 62
7
100
AcDbPoint
 10
2029.3947620665137
 20
705.30347496538877
 30
0
 50
0
  0
POINT
  5
58
330
1F
100
AcDbEntity
  8
3
 62
7
100
AcDbPoint
 10
2000.9059750526374
 20
607.06885882835888
 30
0
 50
0
  0
POINT
  5
59
330
1F
100
AcDbEntity
  8
3
 62
7
100
AcDbPoint
 10
2001.3972624635026
 20
602.20403760137094
 30
0
 50
0
  0
POINT
  5
5A
330
1F
100
AcDbEntity
  8
3
 62
7
100
AcDbPoint
 10
2007.255996414942
 20
546.87079974632809
 30
0
 50
0
  0
POINT
  5
5B
330
1F
100
AcDbEntity
  8
3
 62
7
100
AcDbPoint
 10
2007.5099789588874
 20
530.36078998070309
 30
0
 50
0
  0
POINT
  5
5C
330
1F
100
AcDbEntity
  8
3
 62
7
100
AcDbPoint
 10
2007.255996414942
 20
513.85078021507809
 30
0
 50
0
  0
POINT
  5
5D
330
1F
100
AcDbEntity
  8
3
 62
7
100
AcDbPoint
 10
2006.2399899452155
 20
497.34077044945315
 30
0
 50
0
  0
POINT
  5
5E
330
1F
100
AcDbEntity
  8
3
 62
7
100
AcDbPoint
 10
1997.8579937904303
 20
281.186900820546
 30
0
 50
0
  0
POINT
  5
5F
330
1F
100
AcDbEntity
  8
2
 62
7
100
AcDbPoint
 10
2014.6219861000006
 20
60.206981386953146
 30
0
 50
0
  0
ENDSEC
  0
SECTION
  2
OBJECTS
  0
DICTIONARY
  5
C
330
0
100
AcDbDictionary
280
0
281
1
  3
ACAD_SCALELIST
350
65
  3
ACAD_COLOR
350
77
  3
ACAD_FIELDLIST
350
78
  3
ACAD_GROUP
350
D
  3
ACAD_IMAGE_DICT
350
79
  3
ACAD_LAYOUT
350
1A
  3
ACAD_MATERIAL
350
7A
  3
ACAD_MLEADERSTYLE
350
7B
  3
ACAD_MLINESTYLE
350
17
  3
ACAD_PLOTSETTINGS
350
19
  3
ACAD_PLOTSTYLENAME
350
E
  3
ACAD_TABLESTYLE
350
7D
  3
ACDB_RECOMPOSE_DATA
350
81
  3
AcDbVariableDictionary
350
82
  3
ACAD_VISUALSTYLE
350
85
  3
DWGPROPS
350
86
  0
DICTIONARY
  5
7F
330
7E
100
AcDbDictionary
280
0
281
1
  3
ACAD_ROUNDTRIP_2008_TABLESTYLE_CELLSTYLEMAP
360
80
  0
DICTIONARY
  5
65
102
{ACAD_REACTORS
330
C
102
}
330
C
100
AcDbDictionary
280
0
281
1
  0
DICTIONARY
  5
77
102
{ACAD_REACTORS
330
C
102
}
330
C
100
AcDbDictionary
280
0
281
1
  0
FIELDLIST
  5
78
102
{ACAD_REACTORS
330
C
102
}
330
C
100
AcDbIdSet
100
AcDbFieldList
  0
DICTIONARY
  5
D
102
{ACAD_REACTORS
330
C
102
}
330
C
100
AcDbDictionary
280
0
281
1
  0
DICTIONARY
  5
79
102
{ACAD_REACTORS
330
C
102
}
330
C
100
AcDbDictionary
280
0
281
1
  0
DICTIONARY
  5
1A
102
{ACAD_REACTORS
330
C
102
}
330
C
100
AcDbDictionary
280
0
281
1
  3
Layout1
350
1E
  3
Model
350
22
  0
DICTIONARY
  5
7A
102
{ACAD_REACTORS
330
C
102
}
330
C
100
AcDbDictionary
280
0
281
1
  0
DICTIONARY
  5
7B
102
{ACAD_REACTORS
330
C
102
}
330
C
100
AcDbDictionary
280
0
281
1
  3
Standard
350
7C
  0
DICTIONARY
  5
17
102
{ACAD_REACTORS
330
C
102
}
330
C
100
AcDbDictionary
280
0
281
1
  3
STANDARD
350
18
  0
DICTIONARY
  5
19
102
{ACAD_REACTORS
330
C
102
}
330
C
100
AcDbDictionary
280
0
281
1
  0
ACDBDICTIONARYWDFLT
  5
E
102
{ACAD_REACTORS
330
C
102
}
330
C
100
AcDbDictionary
280
0
281
1
  3
Normal
350
F
100
AcDbDictionaryWithDefault
340
F
  0
ACDBPLACEHOLDER
  5
F
102
{ACAD_REACTORS
330
E
102
}
330
E
  0
DICTIONARY
  5
7D
102
{ACAD_REACTORS
330
C
102
}
330
C
100
AcDbDictionary
280
0
281
1
  3
Standard
350
7E
  0
XRECORD
  5
81
102
{ACAD_REACTORS
330
C
102
}
330
C
100
AcDbXrecord
280
1
 90
1
330
7E
  0
DICTIONARY
  5
82
102
{ACAD_REACTORS
330
C
102
}
330
C
100
AcDbDictionary
280
0
281
1
  3
DIMASSOC
350
83
  3
HIDETEXT
350
84
  0
DICTIONARY
  5
85
102
{ACAD_REACTORS
330
C
102
}
330
C
100
AcDbDictionary
280
0
281
1
  0
XRECORD
  5
86
102
{ACAD_REACTORS
330
C
102
}
330
C
100
AcDbXrecord
280
0
  1
DWGPROPS COOKIE
  2

  3

  4

  6

  7

  8

  9

300
=
301
=
302
=
303
=
304
=
305
=
306
=
307
=
308
=
309
=
 40
0
 41
2460962.9496499882
 42
2460962.9496499882
  1

 90
0
  0
CELLSTYLEMAP
  5
80
102
{ACAD_REACTORS
330
7F
102
}
330
7F
100
AcDbCellStyleMap
 90
3
300
CELLSTYLE
  1
TABLEFORMAT_BEGIN
 90
5
170
0
309
TABLEFORMAT_END
  1
CELLSTYLE_BEGIN
 90
3
 91
2
300
_DATA
309
CELLSTYLE_END
300
CELLSTYLE
  1
TABLEFORMAT_BEGIN
 90
5
170
0
309
TABLEFORMAT_END
  1
CELLSTYLE_BEGIN
 90
1
 91
2
300
_TITLE
309
CELLSTYLE_END
300
CELLSTYLE
  1
TABLEFORMAT_BEGIN
 90
5
170
0
309
TABLEFORMAT_END
  1
CELLSTYLE_BEGIN
 90
2
 91
2
300
_HEADER
309
CELLSTYLE_END
  0
LAYOUT
  5
1E
102
{ACAD_REACTORS
330
1A
102
}
330
1A
100
AcDbPlotSettings
  1

  2
C:\Program Files\AutoCAD 2002\plotters\DWF ePlot (optimized for plotting).pc3
  4

  6

 40
0
 41
0
 42
0
 43
0
 44
0
 45
0
 46
0
 47
0
 48
0
 49
0
140
0
141
0
142
1
143
1
 70
688
 72
1
 73
1
 74
1
  7
acad.stb
 75
16
 76
0
 77
0
 78
0
147
1
148
0
149
0
100
AcDbLayout
  1
Layout1
 70
1
 71
1
 10
0
 20
0
 11
420
 21
297
 12
0
 22
0
 32
0
 14
0
 24
0
 34
0
 15
0
 25
0
 35
0
146
0
 13
0
 23
0
 33
0
 16
1
 26
0
 36
0
 17
0
 27
1
 37
0
 76
0
330
60
  0
LAYOUT
  5
22
102
{ACAD_REACTORS
330
1A
102
}
330
1A
100
AcDbPlotSettings
  1

  2
C:\Program Files\AutoCAD 2002\plotters\DWF ePlot (optimized for plotting).pc3
  4

  6

 40
0
 41
0
 42
0
 43
0
 44
0
 45
0
 46
0
 47
0
 48
0
 49
0
140
0
141
0
142
1
143
1
 70
1712
 72
1
 73
1
 74
0
  7
acad.stb
 75
0
 76
0
 77
0
 78
0
147
1
148
0
149
0
100
AcDbLayout
  1
Model
 70
1
 71
0
 10
0
 20
0
 11
12
 21
9
 12
0
 22
0
 32
0
 14
0
 24
0
 34
0
 15
0
 25
0
 35
0
146
0
 13
0
 23
0
 33
0
 16
1
 26
0
 36
0
 17
0
 27
1
 37
0
 76
0
330
1F
  0
MLEADERSTYLE
  5
7C
102
{ACAD_REACTORS
330
7B
102
}
330
7B
100
AcDbMLeaderStyle
170
2
171
1
172
0
 90
2
 40
0
 41
0
173
1
 91
0
340
0
 92
-2
290
1
 42
0.09
292
1
 43
0.36
  3
Standard
341
0
 44
0.18
300

342
0
174
1
178
1
175
1
176
0
 93
0
 45
0.18
292
0
297
0
 46
0
343
0
 94
0
 47
1
 49
1
140
1
293
1
141
0
294
1
177
0
142
1
295
0
296
0
143
0.125
  0
MLINESTYLE
  5
18
102
{ACAD_REACTORS
330
17
102
}
330
17
100
AcDbMlineStyle
  2
STANDARD
 70
0
  3

 51
90
 52
90
 71
2
 49
0.5
 62
0
  6
ByLayer
 49
-0.5
 62
0
  6
ByLayer
  0
TABLESTYLE
  5
7E
102
{ACAD_XDICTIONARY
360
7F
102
}
102
{ACAD_REACTORS
330
7D
102
}
330
7D
100
AcDbTableStyle
  3

 70
0
 71
0
 40
0.06
 41
0.06
280
0
281
0
  7
Standard
140
0.18
170
1
 62
0
283
0
 90
512
 91
0
274
-2
284
1
 64
0
275
-2
285
1
 65
0
276
-2
286
1
 66
0
277
-2
287
1
 67
0
278
-2
288
1
 68
0
279
-2
289
1
 69
0
  7
Standard
140
0.18
170
1
 62
0
283
0
 90
512
 91
0
274
-2
284
1
 64
0
275
-2
285
1
 65
0
276
-2
286
1
 66
0
277
-2
287
1
 67
0
278
-2
288
1
 68
0
279
-2
289
1
 69
0
  7
Standard
140
0.18
170
1
 62
0
283
0
 90
512
 91
0
274
-2
284
1
 64
0
275
-2
285
1
 65
0
276
-2
286
1
 66
0
277
-2
287
1
 67
0
278
-2
288
1
 68
0
279
-2
289
1
 69
0
  0
DICTIONARYVAR
  5
83
102
{ACAD_REACTORS
330
82
102
}
330
82
100
DictionaryVariables
280
0
  1
1
  0
DICTIONARYVAR
  5
84
102
{ACAD_REACTORS
330
82
102
}
330
82
100
DictionaryVariables
280
0
  1
2
  0
ENDSEC
999
Created By CadLib version 4.0.38.30
999
CadLib website: www.woutware.com
  0
EOF
