  0
SECTION
  2
HEADER
  9
$ACADVER
  1
AC1015
  9
$DWGCODEPAGE
  3
ansi_1252
  9
$INSBASE
 10
0
 20
0
 30
0
  9
$EXTMIN
 10
1927.8913861000003
 20
135.75233165514945
 30
0
  9
$EXTMAX
 10
2499.0000009644004
 20
1998.9999741992003
 30
0
  9
$LIMMIN
 10
0
 20
0
  9
$LIMMAX
 10
12
 20
9
  9
$SNAPMODE
 70
0
  9
$SNAPUNIT
 10
1
 20
1
  9
$SNAPBASE
 10
0
 20
0
  9
$SNAPANG
 50
0
  9
$SNAPSTYLE
 70
0
  9
$SNAPISOPAIR
 70
0
  9
$ORTHOMODE
 70
0
  9
$REGENMODE
 70
1
  9
$FILLMODE
 70
1
  9
$QTEXTMODE
 70
0
  9
$MIRRTEXT
 70
1
  9
$LTSCALE
 40
1
  9
$OSMODE
 70
0
  9
$ATTMODE
 70
1
  9
$TEXTSIZE
 40
0.2
  9
$TRACEWID
 40
0.05
  9
$TEXTSTYLE
  7
Standard
  9
$CLAYER
  8
0
  9
$CELTYPE
  6
ByLayer
  9
$CECOLOR
 62
256
  9
$CELTSCALE
 40
1
  9
$DISPSILH
 70
0
  9
$DIMSCALE
 40
1
  9
$DIMASZ
 40
0.18
  9
$DIMEXO
 40
0.0625
  9
$DIMDLI
 40
0.38
  9
$DIMRND
 40
0
  9
$DIMDLE
 40
0
  9
$DIMEXE
 40
0.18
  9
$DIMTP
 40
0
  9
$DIMTM
 40
0
  9
$DIMTXT
 40
0.18
  9
$DIMCEN
 40
0.09
  9
$DIMTSZ
 40
0
  9
$DIMTOL
 70
0
  9
$DIMLIM
 70
0
  9
$DIMTIH
 70
1
  9
$DIMTOH
 70
1
  9
$DIMSE1
 70
0
  9
$DIMSE2
 70
0
  9
$DIMTAD
 70
0
  9
$DIMZIN
 70
0
  9
$DIMBLK
  1

  9
$DIMASO
 70
1
  9
$DIMSHO
 70
1
  9
$DIMPOST
  1

  9
$DIMAPOST
  1

  9
$DIMALT
 70
0
  9
$DIMALTD
 70
2
  9
$DIMALTF
 40
0.03937007874015748
  9
$DIMLFAC
 40
1
  9
$DIMTOFL
 70
0
  9
$DIMTVP
 40
0
  9
$DIMTIX
 70
0
  9
$DIMSOXD
 70
0
  9
$DIMSAH
 70
0
  9
$DIMBLK1
  1

  9
$DIMBLK2
  1

  9
$DIMSTYLE
  2
Standard
  9
$DIMCLRD
 70
0
  9
$DIMCLRE
 70
0
  9
$DIMCLRT
 70
0
  9
$DIMTFAC
 40
1
  9
$DIMGAP
 40
0.09
  9
$DIMJUST
 70
0
  9
$DIMSD1
 70
0
  9
$DIMSD2
 70
0
  9
$DIMTOLJ
 70
1
  9
$DIMTZIN
 70
0
  9
$DIMALTZ
 70
0
  9
$DIMALTTZ
 70
0
  9
$DIMUPT
 70
0
  9
$DIMDEC
 70
4
  9
$DIMTDEC
 70
4
  9
$DIMALTU
 70
2
  9
$DIMALTTD
 70
0
  9
$DIMTXSTY
  7
Standard
  9
$DIMAUNIT
 70
0
  9
$DIMADEC
 70
0
  9
$DIMALTRND
 40
0
  9
$DIMAZIN
 70
0
  9
$DIMDSEP
 70
46
  9
$DIMATFIT
 70
0
  9
$DIMFRAC
 70
0
  9
$DIMLDRBLK
  1

  9
$DIMLUNIT
 70
2
  9
$DIMLWD
 70
-2
  9
$DIMLWE
 70
-2
  9
$LUNITS
 70
2
  9
$LUPREC
 70
4
  9
$SKETCHINC
 40
0.1
  9
$FILLETRAD
 40
0
  9
$AUNITS
 70
0
  9
$AUPREC
 70
0
  9
$MENU
  1
.
  9
$ELEVATION
 40
0
  9
$PELEVATION
 40
0
  9
$THICKNESS
 40
0
  9
$LIMCHECK
 70
0
  9
$CHAMFERA
 40
0.5
  9
$CHAMFERB
 40
0.5
  9
$CHAMFERC
 40
0
  9
$CHAMFERD
 40
0
  9
$SKPOLY
 70
0
  9
$TDCREATE
 40
2460962.9628082174
  9
$TDUCREATE
 40
2460962.9211415509
  9
$TDUPDATE
 40
2460962.9628082174
  9
$TDUUPDATE
 40
2460962.9211415509
  9
$TDINDWG
 40
0
  9
$TDUSRTIMER
 40
1.1574074074074074E-08
  9
$USRTIMER
 70
1
  9
$ANGBASE
 50
0
  9
$ANGDIR
 70
1
  9
$PDMODE
 70
0
  9
$PDSIZE
 40
0
  9
$PLINEWID
 40
0
  9
$SPLFRAME
 70
0
  9
$SPLINETYPE
 70
6
  9
$SPLINESEGS
 70
8
  9
$HANDSEED
  5
5D
  9
$SURFTAB1
 70
6
  9
$SURFTAB2
 70
6
  9
$SURFTYPE
 70
6
  9
$SURFU
 70
6
  9
$SURFV
 70
6
  9
$UCSORG
 10
0
 20
0
 30
0
  9
$UCSXDIR
 10
1
 20
0
 30
0
  9
$UCSYDIR
 10
0
 20
1
 30
0
  9
$UCSORTHOREF
  2

  9
$UCSORTHOVIEW
 70
0
  9
$UCSORGTOP
 10
0
 20
0
 30
0
  9
$UCSORGBOTTOM
 10
0
 20
0
 30
0
  9
$UCSORGLEFT
 10
0
 20
0
 30
0
  9
$UCSORGRIGHT
 10
0
 20
0
 30
0
  9
$UCSORGFRONT
 10
0
 20
0
 30
0
  9
$UCSORGBACK
 10
0
 20
0
 30
0
  9
$PUCSORG
 10
0
 20
0
 30
0
  9
$PUCSXDIR
 10
1
 20
0
 30
0
  9
$PUCSYDIR
 10
0
 20
1
 30
0
  9
$PUCSORTHOREF
  2

  9
$PUCSORTHOVIEW
 70
0
  9
$PUCSORGTOP
 10
0
 20
0
 30
0
  9
$PUCSORGBOTTOM
 10
0
 20
0
 30
0
  9
$PUCSORGLEFT
 10
0
 20
0
 30
0
  9
$PUCSORGRIGHT
 10
0
 20
0
 30
0
  9
$PUCSORGFRONT
 10
0
 20
0
 30
0
  9
$PUCSORGBACK
 10
0
 20
0
 30
0
  9
$USERI1
 70
0
  9
$USERI2
 70
0
  9
$USERI3
 70
0
  9
$USERI4
 70
0
  9
$USERI5
 70
0
  9
$USERR1
 40
0
  9
$USERR2
 40
0
  9
$USERR3
 40
0
  9
$USERR4
 40
0
  9
$USERR5
 40
0
  9
$WORLDVIEW
 70
1
  9
$SHADEDGE
 70
3
  9
$SHADEDIF
 70
70
  9
$TILEMODE
 70
1
  9
$MAXACTVP
 70
48
  9
$PINSBASE
 10
0
 20
0
 30
0
  9
$PLIMCHECK
 70
0
  9
$PEXTMIN
 10
1E+20
 20
1E+20
 30
1E+20
  9
$PEXTMAX
 10
-1E+20
 20
-1E+20
 30
-1E+20
  9
$PLIMMAX
 10
0
 20
0
  9
$PLIMMIN
 10
0
 20
0
  9
$UNITMODE
 70
0
  9
$VISRETAIN
 70
1
  9
$PLINEGEN
 70
1
  9
$PSLTSCALE
 70
1
  9
$TREEDEPTH
 70
3020
  9
$CMLSTYLE
  2
STANDARD
  9
$CMLJUST
 70
0
  9
$CMLSCALE
 40
1
  9
$PROXYGRAPHICS
 70
1
  9
$MEASUREMENT
 70
1
  9
$CELWEIGHT
370
-1
  9
$ENDCAPS
280
0
  9
$JOINSTYLE
280
0
  9
$LWDISPLAY
290
1
  9
$INSUNITS
 70
4
  9
$HYPERLINKBASE
  1

  9
$XEDIT
290
1
  9
$CEPSNTYPE
380
0
  9
$PSTYLEMODE
290
0
  9
$FINGERPRINTGUID
  2

  9
$VERSIONGUID
  2

  9
$EXTNAMES
290
1
  9
$PSVPSCALE
 40
0
  9
$CSHADOW
280
0
  9
$SHADOWPLANELOCATION
 40
0
  0
ENDSEC
  0
SECTION
  2
CLASSES
  0
CLASS
  1
RASTERVARIABLES
  2
AcDbRasterVariables
  3
ISM
 90
0
280
0
281
0
  0
CLASS
  1
IMAGEDEF
  2
AcDbRasterImageDef
  3
ISM
 90
0
280
0
281
0
  0
CLASS
  1
IMAGEDEF_REACTOR
  2
AcDbRasterImageDefReactor
  3
ISM
 90
1
280
0
281
0
  0
CLASS
  1
IMAGE
  2
AcDbRasterImage
  3
ISM
 90
127
280
0
281
1
  0
CLASS
  1
ACAD_EVALUATION_GRAPH
  2
AcDbEvalGraph
  3
ObjectDBX Classes
 90
1153
280
0
281
0
  0
CLASS
  1
BLOCKPOINTPARAMETER
  2
AcDbBlockPointParameter
  3
ObjectDBX Classes
 90
1153
280
0
281
0
  0
CLASS
  1
BLOCKBASEPOINTPARAMETER
  2
AcDbBlockBasepointParameter
  3
ObjectDBX Classes
 90
1153
280
0
281
0
  0
CLASS
  1
BLOCKLOOKUPPARAMETER
  2
AcDbBlockLookupParameter
  3
ObjectDBX Classes
 90
1153
280
0
281
0
  0
CLASS
  1
BLOCKVISIBILITYPARAMETER
  2
AcDbBlockVisibilityParameter
  3
ObjectDBX Classes
 90
1153
280
0
281
0
  0
CLASS
  1
BLOCKPROPERTIESTABLE
  2
AcDbBlockPropertiesTable
  3
ObjectDBX Classes
 90
1153
280
0
281
0
  0
CLASS
  1
BLOCKPOLARPARAMETER
  2
AcDbBlockPolarParameter
  3
ObjectDBX Classes
 90
1153
280
0
281
0
  0
CLASS
  1
BLOCKROTATIONPARAMETER
  2
AcDbBlockRotationParameter
  3
ObjectDBX Classes
 90
1153
280
0
281
0
  0
CLASS
  1
BLOCKLINEARPARAMETER
  2
AcDbBlockLinearParameter
  3
ObjectDBX Classes
 90
1153
280
0
281
0
  0
CLASS
  1
BLOCKXYPARAMETER
  2
AcDbBlockXYParameter
  3
ObjectDBX Classes
 90
1153
280
0
281
0
  0
CLASS
  1
BLOCKFLIPPARAMETER
  2
AcDbBlockFlipParameter
  3
ObjectDBX Classes
 90
1153
280
0
281
0
  0
CLASS
  1
BLOCKALIGNMENTPARAMETER
  2
AcDbBlockAlignmentParameter
  3
ObjectDBX Classes
 90
1153
280
0
281
0
  0
CLASS
  1
BLOCKROTATEACTION
  2
AcDbBlockRotateAction
  3
ObjectDBX Classes
 90
1153
280
0
281
0
  0
CLASS
  1
BLOCKSCALEACTION
  2
AcDbBlockScaleAction
  3
ObjectDBX Classes
 90
1153
280
0
281
0
  0
CLASS
  1
BLOCKARRAYACTION
  2
AcDbBlockArrayAction
  3
ObjectDBX Classes
 90
1153
280
0
281
0
  0
CLASS
  1
BLOCKFLIPACTION
  2
AcDbBlockFlipAction
  3
ObjectDBX Classes
 90
1153
280
0
281
0
  0
CLASS
  1
BLOCKLOOKUPACTION
  2
AcDbBlockLookupAction
  3
ObjectDBX Classes
 90
1153
280
0
281
0
  0
CLASS
  1
BLOCKMOVEACTION
  2
AcDbBlockMoveAction
  3
ObjectDBX Classes
 90
1153
280
0
281
0
  0
CLASS
  1
BLOCKPOLARSTRETCHACTION
  2
AcDbBlockPolarStretchAction
  3
ObjectDBX Classes
 90
1153
280
0
281
0
  0
CLASS
  1
BLOCKSTRETCHACTION
  2
AcDbBlockStretchAction
  3
ObjectDBX Classes
 90
1153
280
0
281
0
  0
CLASS
  1
BLOCKALIGNMENTGRIP
  2
AcDbBlockAlignmentGrip
  3
ObjectDBX Classes
 90
1153
280
0
281
0
  0
CLASS
  1
BLOCKFLIPGRIP
  2
AcDbBlockFlipGrip
  3
ObjectDBX Classes
 90
1153
280
0
281
0
  0
CLASS
  1
ACDB_BLOCKREPRESENTATION_DATA
  2
AcDbBlockRepresentationData
  3
ObjectDBX Classes
 90
1153
280
0
281
0
  0
CLASS
  1
ACDB_DYNAMICBLOCKPURGEPREVENTER_VERSION
  2
AcDbDynamicBlockPurgePreventer
  3
ObjectDBX Classes
 90
1153
280
0
281
0
  0
CLASS
  1
BLOCKLINEARGRIP
  2
AcDbBlockLinearGrip
  3
ObjectDBX Classes
 90
1153
280
0
281
0
  0
CLASS
  1
BLOCKLOOKUPGRIP
  2
AcDbBlockLookupGrip
  3
ObjectDBX Classes
 90
1153
280
0
281
0
  0
CLASS
  1
BLOCKPOLARGRIP
  2
AcDbBlockPolarGrip
  3
ObjectDBX Classes
 90
1153
280
0
281
0
  0
CLASS
  1
BLOCKPROPERTIESTABLEGRIP
  2
AcDbBlockPropertiesTableGrip
  3
ObjectDBX Classes
 90
1153
280
0
281
0
  0
CLASS
  1
BLOCKROTATIONGRIP
  2
AcDbBlockRotationGrip
  3
ObjectDBX Classes
 90
1153
280
0
281
0
  0
CLASS
  1
BLOCKVISIBILITYGRIP
  2
AcDbBlockVisibilityGrip
  3
ObjectDBX Classes
 90
1153
280
0
281
0
  0
CLASS
  1
BLOCKXYGRIP
  2
AcDbBlockXYGrip
  3
ObjectDBX Classes
 90
1153
280
0
281
0
  0
CLASS
  1
BLOCKGRIPLOCATIONCOMPONENT
  2
AcDbBlockGripExpr
  3
ObjectDBX Classes
 90
1153
280
0
281
0
  0
CLASS
  1
ACDB_DYNAMICBLOCKPROXYNODE
  2
AcDbDynamicBlockProxyNode
  3
ObjectDBX Classes
 90
1153
280
0
281
0
  0
CLASS
  1
BLOCKLINEARCONSTRAINTPARAMETER
  2
AcDbBlockLinearConstraintParameter
  3
ObjectDBX Classes
 90
1153
280
0
281
0
  0
CLASS
  1
BLOCKHORIZONTALCONSTRAINTPARAMETER
  2
AcDbBlockHorizontalConstraintParameter
  3
ObjectDBX Classes
 90
1153
280
0
281
0
  0
CLASS
  1
BLOCKVERTICALCONSTRAINTPARAMETER
  2
AcDbBlockVerticalConstraintParameter
  3
ObjectDBX Classes
 90
1153
280
0
281
0
  0
CLASS
  1
BLOCKALIGNEDCONSTRAINTPARAMETER
  2
AcDbBlockAlignedConstraintParameter
  3
ObjectDBX Classes
 90
1153
280
0
281
0
  0
CLASS
  1
BLOCKANGULARCONSTRAINTPARAMETER
  2
AcDbBlockAngularConstraintParameter
  3
ObjectDBX Classes
 90
1153
280
0
281
0
  0
CLASS
  1
BLOCKDIAMETRICCONSTRAINTPARAMETER
  2
AcDbBlockDiametricConstraintParameter
  3
ObjectDBX Classes
 90
1153
280
0
281
0
  0
CLASS
  1
BLOCKRADIALCONSTRAINTPARAMETER
  2
AcDbBlockRadialConstraintParameter
  3
ObjectDBX Classes
 90
1153
280
0
281
0
  0
ENDSEC
  0
SECTION
  2
TABLES
  0
TABLE
  2
VPORT
  5
8
330
0
100
AcDbSymbolTable
 70
1
  0
VPORT
  5
38
330
8
100
AcDbSymbolTableRecord
100
AcDbViewportTableRecord
  2
*Active
 70
64
 10
0
 20
0
 11
1
 21
1
 12
2213.4456935322005
 22
1067.3761529271749
 13
0
 23
0
 14
1
 24
1
 15
0
 25
0
 16
0
 26
0
 36
1
 17
0
 27
0
 37
0
 40
1863.2476425440509
 41
0.30651245804589711
 42
50
 43
0
 44
0
 50
0
 51
0
 71
0
 72
20000
 73
20000
 74
1
 75
0
 76
0
 77
0
 78
0
281
0
 65
1
110
0
120
0
130
0
111
1
121
0
131
0
112
0
122
1
132
0
 79
0
146
0
  0
ENDTAB
  0
TABLE
  2
LTYPE
  5
5
100
AcDbSymbolTable
 70
3
  0
LTYPE
  5
16
330
5
100
AcDbSymbolTableRecord
100
AcDbLinetypeTableRecord
  2
Continuous
  3
Solid line
 70
64
 72
65
 73
0
 40
0
  0
LTYPE
  5
14
330
5
100
AcDbSymbolTableRecord
100
AcDbLinetypeTableRecord
  2
ByBlock
  3

 70
64
 72
65
 73
0
 40
0
  0
LTYPE
  5
15
330
5
100
AcDbSymbolTableRecord
100
AcDbLinetypeTableRecord
  2
ByLayer
  3

 70
64
 72
65
 73
0
 40
0
  0
ENDTAB
  0
TABLE
  2
LAYER
  5
2
100
AcDbSymbolTable
 70
2
  0
LAYER
  5
10
330
2
100
AcDbSymbolTableRecord
100
AcDbLayerTableRecord
 70
64
  2
0
 62
7
  6
Continuous
370
-3
390
F
  0
LAYER
  5
27
330
2
100
AcDbSymbolTableRecord
100
AcDbLayerTableRecord
 70
64
  2
DEFPOINTS
 62
7
  6
Continuous
290
0
370
-3
390
F
  0
ENDTAB
  0
TABLE
  2
STYLE
  5
3
100
AcDbSymbolTable
 70
1
  0
STYLE
  5
11
330
3
100
AcDbSymbolTableRecord
100
AcDbTextStyleTableRecord
  2
Standard
 70
64
 40
0
 41
1
 50
0
 71
0
 42
0.2
  3
txt.shx
  0
ENDTAB
  0
TABLE
  2
VIEW
  5
6
100
AcDbSymbolTable
 70
0
  0
ENDTAB
  0
TABLE
  2
UCS
  5
7
100
AcDbSymbolTable
 70
0
  0
ENDTAB
  0
TABLE
  2
APPID
  5
9
330
0
100
AcDbSymbolTable
 70
2
  0
APPID
  5
12
330
0
100
AcDbSymbolTableRecord
100
AcDbRegAppTableRecord
  2
ACAD
 70
64
  0
APPID
  5
5B
330
0
100
AcDbSymbolTableRecord
100
AcDbRegAppTableRecord
  2
ACAD_MLEADERVER
 70
64
  0
ENDTAB
  0
TABLE
  2
DIMSTYLE
  5
A
330
0
100
AcDbSymbolTable
 70
1
100
AcDbDimStyleTable
 71
0
  0
DIMSTYLE
105
37
330
A
100
AcDbSymbolTableRecord
100
AcDbDimStyleTableRecord
  2
Standard
 70
64
  3

  4

 40
1
 41
0.18
 42
0.0625
 43
0.38
 44
0.18
 45
0
 46
0
 47
0
 48
0
140
0.18
141
0.09
142
0
143
1
144
1
145
0
146
1
147
0.09
148
0
 71
0
 72
0
 73
1
 74
1
 75
0
 76
0
 77
0
 78
0
 79
0
170
0
171
2
172
0
173
0
174
0
175
0
179
0
271
4
272
4
273
2
274
0
275
0
276
0
277
2
278
46
279
0
280
0
281
0
282
0
283
1
284
0
285
0
286
0
288
0
289
0
340
11
371
-2
372
-2
  0
ENDTAB
  0
TABLE
  2
BLOCK_RECORD
  5
1
330
0
100
AcDbSymbolTable
 70
3
  0
BLOCK_RECORD
  5
1F
330
1
100
AcDbSymbolTableRecord
100
AcDbBlockTableRecord
  2
*Model_Space
340
22
  0
BLOCK_RECORD
  5
34
330
1
100
AcDbSymbolTableRecord
100
AcDbBlockTableRecord
  2
*Paper_Space
340
1E
  0
ENDTAB
  0
ENDSEC
  0
SECTION
  2
BLOCKS
  0
BLOCK
  5
20
330
1F
100
AcDbEntity
  8
0
100
AcDbBlockBegin
  2
*Model_Space
 70
64
 10
0
 20
0
 30
0
  3
*Model_Space
  0
ENDBLK
  5
21
330
1F
100
AcDbEntity
  8
0
100
AcDbBlockEnd
  0
BLOCK
  5
35
330
34
100
AcDbEntity
  8
0
 67
1
100
AcDbBlockBegin
  2
*Paper_Space
 70
64
 10
0
 20
0
 30
0
  3
*Paper_Space
  0
ENDBLK
  5
36
330
34
100
AcDbEntity
  8
0
100
AcDbBlockEnd
  0
ENDSEC
  0
SECTION
  2
ENTITIES
  0
LWPOLYLINE
  5
28
330
1F
100
AcDbEntity
  8
0
 62
7
100
AcDbPolyline
 90
69
 70
1
 10
1927.8913861000003
 20
598.62155236554929
 10
1928.2296339820005
 20
161.14078835154947
 10
1929.1005059560002
 20
156.81868459914955
 10
1930.5519576892002
 20
153.01265420874944
 10
1932.5194827844002
 20
149.59367738034945
 10
1936.3577681248003
 20
145.62637457514944
 10
1945.6470629536004
 20
140.43340001634948
 10
1952.6328721336004
 20
138.32638058154936
 10
1959.3211639900003
 20
137.32313779554948
 10
2175.3236179888
 20
135.75233165514945
 10
2195.7897941752
 20
137.11674347874944
 10
2219.5416801747278
 20
142.10232487197453
 10
2231.3017721720717
 20
145.47128932979166
 10
2262.2714412478863
 20
155.07533304303996
 10
2278.0928788370793
 20
159.31606968494435
 10
2310.7620702522154
 20
167.5770970038937
 10
2398.5510348667826
 20
192.16883250475632
 10
2466.4387912393386
 20
209.19941963394038
 10
2485.3447174468
 20
213.78571462674952
 10
2489.6363713588
 20
215.68073059434963
 10
2492.5346324476
 20
217.63148194794954
 10
2494.4296484152
 20
219.97238450634953
 10
2497.2164363968
 20
225.32301892554952
 10
2498.6098315552
 20
231.23101070754947
 10
2498.9999815924
 20
235.41119384754953
 10
2498.5340076111997
 20
478.50553486434944
 10
2497.5276671824004
 20
482.14384184994958
 10
2493.6571268919997
 20
489.38175104874949
 10
2489.9801139664
 20
492.94264848954947
 10
2487.3481474095997
 20
494.2586317679494
 10
2479.8780060736
 20
495.84555312354951
 10
2472.8813078559997
 20
496.25025612714956
 10
2466.1941467433871
 20
495.3920822566173
 10
2445.1329028568443
 20
490.84873322792072
 10
2419.6334014156
 20
486.13702334154965
 10
2396.2119760966448
 20
483.53470512541691
 10
2381.6417582296
 20
482.89132769394956
 10
2375.4617751952
 20
483.69392309034953
 10
2371.6093186936
 20
485.21885422674956
 10
2368.9607547028
 20
486.98456316474955
 10
2367.0345264519997
 20
489.63312715554952
 10
2366.1516713992
 20
492.04091217714955
 10
2365.4899224232
 20
542.87900780994948
 10
2363.7804345928
 20
547.94296490394947
 10
2359.6841131551996
 20
553.5552468071495
 10
2355.4910280352
 20
557.61931446234951
 10
2353.200959278
 20
559.13527609554956
 10
2348.6853293284
 20
560.48996414634939
 10
2243.1515593
 20
560.37657500754938
 10
2194.8879819688
 20
557.3254295423493
 10
2159.6523608679095
 20
557.62365725659322
 10
2144.9601437931997
 20
558.01887068514941
 10
2128.8722854611997
 20
559.96050892074936
 10
2100.6228619875997
 20
564.99502848354939
 10
2061.6167390332
 20
575.34850547754934
 10
2042.9965314412002
 20
582.33108274074937
 10
2021.5261480312004
 20
593.35296169554942
 10
2001.2204115525026
 20
606.19354904714237
 10
1984.4462533276005
 20
615.88983328074926
 10
1972.8888826552004
 20
620.60909267034924
 10
1963.1614295800002
 20
623.0168776919495
 10
1949.9667661204003
 20
624.55786099314935
 10
1946.1143096188005
 20
624.55786099314935
 10
1943.5139009548004
 20
623.88368057994944
 10
1941.1061159332003
 20
622.43900909994943
 10
1936.9647251356005
 20
618.97179871554943
 10
1933.4975135836003
 20
614.34884997954941
 10
1930.2229256740004
 20
608.47385457354937
 10
1928.2815373048004
 20
601.46407690074943
  0
LWPOLYLINE
  5
29
330
1F
100
AcDbEntity
  8
0
 62
7
100
AcDbPolyline
 90
22
 70
1
 10
1974.8509562260003
 20
559.12620150834937
 10
1978.4588979858979
 20
559.6973942637
 10
1981.71391426099
 20
561.35610987714688
 10
1984.0202871471181
 20
563.57369382073716
 10
1985.8052599947046
 20
566.7609431129963
 10
1986.4909211714312
 20
569.8861178562978
 10
1986.2043298908209
 20
573.52790258208574
 10
1985.0381821509777
 20
576.50732395115244
 10
1982.7766230430286
 20
579.37613558499265
 10
1980.1517288117775
 20
581.2055569325687
 10
1976.6774847887714
 20
582.3344317111613
 10
1973.4785929555742
 20
582.39722687027711
 10
1969.9626954009434
 20
581.40566538328267
 10
1967.2680269273199
 20
579.68066856893392
 10
1964.8955469966731
 20
576.902887300973
 10
1963.6133689327123
 20
573.971527265045
 10
1963.183976570924
 20
570.34380727626956
 10
1963.74646059248
 20
567.19413112487086
 10
1965.4048860905393
 20
563.93923701769108
 10
1967.6224542343414
 20
561.63284483784855
 10
1970.8097610221444
 20
559.84774430771336
 10
1973.934264773251
 20
559.16245894954284
  0
LWPOLYLINE
  5
2A
330
1F
100
AcDbEntity
  8
0
 62
7
100
AcDbPolyline
 90
22
 70
1
 10
1974.9433635928003
 20
169.87166913954965
 10
1978.5513053526979
 20
170.4428618949
 10
1981.8063216277899
 20
172.10157750834705
 10
1984.1126945139181
 20
174.31916145193722
 10
1985.8976673615045
 20
177.50641074419659
 10
1986.5833285382312
 20
180.6315854874982
 10
1986.2967372576211
 20
184.2733702132858
 10
1985.1305895177777
 20
187.25279158235261
 10
1982.8690304098286
 20
190.12160321619282
 10
1980.2441361785775
 20
191.9510245637691
 10
1976.7698921555711
 20
193.07989934236159
 10
1973.5710003223739
 20
193.14269450147728
 10
1970.0551027677434
 20
192.15113301448292
 10
1967.3604342941196
 20
190.42613620013407
 10
1964.9879543634729
 20
187.64835493217328
 10
1963.7057762995123
 20
184.71699489624524
 10
1963.2763839377239
 20
181.08927490746981
 10
1963.83886795928
 20
177.93959875607112
 10
1965.4972934573393
 20
174.68470464889111
 10
1967.7148616011411
 20
172.37831246904869
 10
1970.9021683889441
 20
170.5932119389135
 10
1974.026672140051
 20
169.90792658074312
  0
LWPOLYLINE
  5
2B
330
1F
100
AcDbEntity
  8
0
 62
7
100
AcDbPolyline
 90
76
 70
1
 10
2476.9535891000005
 20
912.63664116783752
 10
2016.6457476884011
 20
912.41073742263745
 10
2009.6013646868009
 20
911.01734226423741
 10
2000.5055960552008
 20
908.46278641983747
 10
1993.5773297060011
 20
905.48247107343741
 10
1988.1972799400012
 20
901.88286886023741
 10
1981.1095474532012
 20
894.97163312463738
 10
1977.0983167664272
 20
890.22625562001906
 10
1971.9131445452012
 20
881.98519711383744
 10
1967.3985467540012
 20
871.45113676863741
 10
1965.3920588468011
 20
863.70386440503739
 10
1964.8347014840012
 20
858.85485196263744
 10
1963.5370763804012
 20
764.57169372903741
 10
1964.2337739596012
 20
760.25217154023744
 10
1965.6271679504011
 20
756.62934576303746
 10
1971.711656483601
 20
747.24715784583736
 10
1975.1022501236012
 20
743.02052757783736
 10
1997.0823047411754
 20
722.20477560998893
 10
2004.418895025201
 20
715.33954199103744
 10
2009.946026195601
 20
706.93272975063746
 10
2014.6511883991209
 20
695.2753683941221
 10
2016.3091928264012
 20
690.30489027903729
 10
2017.5168018080008
 20
682.9663468038375
 10
2018.602534366401
 20
666.39535777623746
 10
2021.1128743664008
 20
659.82819741423737
 10
2027.1973628996011
 20
652.16452871343745
 10
2030.959526558001
 20
650.21377619223745
 10
2032.4922607652011
 20
649.98154405503738
 10
2073.9691012136004
 20
649.40217042663744
 10
2077.9202771276005
 20
647.92383937383738
 10
2083.4035415660005
 20
643.7307542538374
 10
2085.8688612452006
 20
640.82569890063746
 10
2087.2622552360003
 20
638.42596448103745
 10
2089.0039980164006
 20
632.23310165103749
 10
2089.1588194412006
 20
626.50470192783746
 10
2088.8491765916006
 20
624.2984948730375
 10
2083.2925051412003
 20
596.90454739983738
 10
2083.1319869960003
 20
586.79184937503737
 10
2083.6938034232003
 20
580.53160668423732
 10
2085.9655934024004
 20
575.17428425223738
 10
2087.7491385980006
 20
573.05632440543741
 10
2093.6013938264005
 20
568.76467049343751
 10
2100.2339514644004
 20
566.25656060943732
 10
2105.1944346788005
 20
565.19758126983731
 10
2382.2827269512004
 20
565.17395488383761
 10
2386.2693827264
 20
565.98676794783762
 10
2392.7718895736007
 20
569.16061065903762
 10
2396.2553751344003
 20
571.36681888143767
 10
2398.2680559920004
 20
573.18597237423762
 10
2400.3581475620003
 20
575.8953496434375
 10
2401.7091214772004
 20
579.40496959503741
 10
2402.3593719284004
 20
583.35292059783762
 10
2402.4522650168005
 20
591.43460761263748
 10
2401.9413536144
 20
596.49727334103761
 10
2398.6956731456003
 20
614.70615063183743
 10
2398.2627924512003
 20
620.38934205063742
 10
2398.7737038536006
 20
629.02838642823758
 10
2400.8637954236005
 20
635.3915542266376
 10
2404.3937269448006
 20
640.77934634823748
 10
2407.2734091824004
 20
643.42679528103747
 10
2414.8906319228004
 20
648.30367483263751
 10
2419.4888322092006
 20
650.1150883050376
 10
2425.3875357332004
 20
651.22980303063753
 10
2484.4158071024003
 20
651.2956463298375
 10
2486.8310238980007
 20
651.99234274143748
 10
2488.6888833308003
 20
653.15350459503759
 10
2491.2434391752004
 20
655.38293638143739
 10
2496.1203187268
 20
662.48924655183748
 10
2498.4890895620006
 20
668.10927081063755
 10
2499.0000009644004
 20
671.31407827383748
 10
2498.6286119240003
 20
899.67033224583759
 10
2497.9319155124003
 20
901.41207619383749
 10
2496.4224048692004
 20
903.57957847623754
 10
2493.0163300208005
 20
906.83083189983756
 10
2487.4427528900005
 20
910.08208532343758
 10
2480.8241293904002
 20
912.17217689343749
  0
LWPOLYLINE
  5
2C
330
1F
100
AcDbEntity
  8
0
 62
7
100
AcDbPolyline
 90
22
 70
1
 10
2010.8012920280007
 20
853.57131484503748
 10
2011.3724847833514
 20
849.96337308513978
 10
2013.0312003967983
 20
846.70835681004792
 10
2015.2487843403887
 20
844.40198392391972
 10
2018.4360336326476
 20
842.617011076333
 10
2021.5612083759493
 20
841.93134989960674
 10
2025.2029931017373
 20
842.21794118021683
 10
2028.1824144708039
 20
843.38408892005987
 10
2031.0512261046442
 20
845.64564802800919
 10
2032.8806474522207
 20
848.27054225926031
 10
2034.0095222308128
 20
851.74478628226655
 10
2034.0723173899287
 20
854.94367811546374
 10
2033.0807559029345
 20
858.4595756700943
 10
2031.3557590885855
 20
861.15424414371807
 10
2028.5779778206247
 20
863.52672407436478
 10
2025.6466177846967
 20
864.80890213832549
 10
2022.0188977959212
 20
865.23829450011385
 10
2018.8692216445224
 20
864.67581047855776
 10
2015.6143275373427
 20
863.01738498049849
 10
2013.3079353575001
 20
860.79981683669644
 10
2011.5228348273649
 20
857.61251004889345
 10
2010.8375494691943
 20
854.4880062977868
  0
LWPOLYLINE
  5
2D
330
1F
100
AcDbEntity
  8
0
 62
7
100
AcDbPolyline
 90
22
 70
1
 10
2428.2087142052005
 20
854.32883154063757
 10
2428.7799069605512
 20
850.72088978074
 10
2430.4386225739981
 20
847.46587350564812
 10
2432.6562065175881
 20
845.15950061951992
 10
2435.843455809847
 20
843.37452777193323
 10
2438.9686305531491
 20
842.68886659520683
 10
2442.6104152789367
 20
842.97545787581691
 10
2445.5898366480037
 20
844.14160561566007
 10
2448.458648281844
 20
846.40316472360928
 10
2450.28806962942
 20
849.0280589548604
 10
2451.4169444080126
 20
852.50230297786675
 10
2451.4797395671285
 20
855.70119481106383
 10
2450.4881780801338
 20
859.21709236569438
 10
2448.7631812657851
 20
861.91176083931816
 10
2445.9853999978241
 20
864.284240769965
 10
2443.0540399618963
 20
865.5664188339257
 10
2439.4263199731208
 20
865.99581119571394
 10
2436.2766438217218
 20
865.433327174158
 10
2433.0217497145422
 20
863.77490167609869
 10
2430.7153575346997
 20
861.55733353229652
 10
2428.9302570045643
 20
858.37002674449354
 10
2428.2449716463939
 20
855.24552299338688
  0
LWPOLYLINE
  5
2E
330
1F
100
AcDbEntity
  8
0
 62
7
100
AcDbPolyline
 90
72
 70
1
 10
2445.8086911
 20
1260.7910573127624
 10
1981.6303093980002
 20
1260.5524956159625
 10
1978.5338773992
 20
1259.8170932643625
 10
1972.6119514788002
 20
1257.2238314799624
 10
1969.4381099352001
 20
1255.2111506223623
 10
1966.0320339192
 20
1251.9598971987623
 10
1963.8258268644001
 20
1248.0506521359623
 10
1963.5548887872003
 20
1246.6185522051624
 10
1963.4544378240003
 20
1019.6943969963622
 10
1964.6620468056003
 20
1014.2601600819622
 10
1966.3341200616003
 20
1010.8695664419622
 10
1971.2109996132003
 20
1003.7632551039621
 10
1975.6234148904002
 20
1000.3726626315622
 10
1978.0386328536003
 20
999.675965052362
 10
2037.0669042228003
 20
999.61012292076225
 10
2042.9656065792003
 20
998.49540702756212
 10
2047.5638080332003
 20
996.68399472276224
 10
2055.181029606
 20
991.8071151711622
 10
2058.0607118436
 20
989.15966507076223
 10
2061.5906445324
 20
983.77187411676221
 10
2062.751806386
 20
981.07797805596215
 10
2063.6807349348
 20
977.40870631836208
 10
2064.1916463372
 20
968.76966194076226
 10
2063.7587656428
 20
963.08647052196216
 10
2060.0021749392
 20
939.81492750276209
 10
2060.09506686
 20
931.73324048796223
 10
2060.7453184788
 20
927.78528948516214
 10
2062.0962912264
 20
924.27566953356211
 10
2066.199063654
 20
919.74713877156228
 10
2072.6628645612
 20
915.79918776876229
 10
2076.185056062
 20
914.36708783796223
 10
2080.1717118372
 20
913.55427477396233
 10
2357.2600041096002
 20
913.5778999923624
 10
2365.7318411616
 20
915.80733177876232
 10
2368.8530449620002
 20
917.14499038356234
 10
2371.8627768228
 20
919.04000635116222
 10
2376.4888453860003
 20
923.55460414236222
 10
2378.7606353652
 20
928.91192657436238
 10
2379.32245296
 20
935.17216809756235
 10
2378.60011722
 20
949.85965953156222
 10
2373.2956193472
 20
974.88502181796218
 10
2373.450440772
 20
980.61342037356223
 10
2375.1921835524
 20
986.80628437116229
 10
2378.0950893540003
 20
991.06387822356226
 10
2381.980681176
 20
994.58391900516233
 10
2386.8457341072
 20
997.32555122436236
 10
2390.5228766364
 20
998.09054289516223
 10
2431.4949122304
 20
998.5940960823624
 10
2435.2570770564
 20
1000.5448486035623
 10
2437.1149353216
 20
1002.3562609083623
 10
2441.3415655896
 20
1008.2085173043623
 10
2443.851904422
 20
1014.7756776663623
 10
2444.9376369804
 20
1031.3466666939623
 10
2447.0368134490677
 20
1041.4009177607525
 10
2450.3718750624002
 20
1050.3432758331624
 10
2454.087593928
 20
1058.4714099759624
 10
2460.1720824612003
 20
1065.9957384603624
 10
2480.4316646712
 20
1084.6661084835625
 10
2487.3521898324
 20
1091.4008474679624
 10
2490.7427823048
 20
1095.6274765683625
 10
2496.827270838
 20
1105.0096656531625
 10
2498.2206648288
 20
1108.6324914303625
 10
2498.917362408
 20
1112.9520136191625
 10
2499.0000004656
 20
1120.7102100483623
 10
2497.0623799416
 20
1212.0841831275625
 10
2495.0558920344
 20
1219.8314566587624
 10
2490.5412942432
 20
1230.3655170039624
 10
2484.243152424
 20
1240.2307492143625
 10
2474.2571588484
 20
1250.2631887503624
 10
2468.8771090824002
 20
1253.8627909635625
 10
2461.9488427332
 20
1256.8431063099624
 10
2452.8530741016
 20
1259.3976621543625
  0
LWPOLYLINE
  5
2F
330
1F
100
AcDbEntity
  8
0
 62
7
100
AcDbPolyline
 90
22
 70
1
 10
2010.2108315388002
 20
1204.6298335815625
 10
2010.7820242941507
 20
1201.0218918216649
 10
2012.4407399075978
 20
1197.7668755465729
 10
2014.658323851188
 20
1195.4605026604447
 10
2017.8455731434472
 20
1193.675529812858
 10
2020.9707478867488
 20
1192.9898686361316
 10
2024.6125326125366
 20
1193.2764599167417
 10
2027.5919539816034
 20
1194.4426076565849
 10
2030.4607656154437
 20
1196.7041667645342
 10
2032.2901869630198
 20
1199.3290609957853
 10
2033.4190617416123
 20
1202.8033050187914
 10
2033.4818569007277
 20
1206.0021968519886
 10
2032.4902954137337
 20
1209.5180944066192
 10
2030.7652985993846
 20
1212.212762880243
 10
2027.9875173314242
 20
1214.58524281089
 10
2025.056157295496
 20
1215.8674208748505
 10
2021.4284373067205
 20
1216.2968132366389
 10
2018.2787611553219
 20
1215.7343292150829
 10
2015.0238670481419
 20
1214.0759037170235
 10
2012.7174748682994
 20
1211.8583355732214
 10
2010.9323743381642
 20
1208.6710287854185
 10
2010.247088979994
 20
1205.5465250343118
  0
LWPOLYLINE
  5
30
330
1F
100
AcDbEntity
  8
0
 62
7
100
AcDbPolyline
 90
22
 70
1
 10
2427.6586281564
 20
1203.9941477727623
 10
2428.2298209117507
 20
1200.3862060128649
 10
2429.8885365251977
 20
1197.131189737773
 10
2432.1061204687876
 20
1194.8248168516448
 10
2435.293369761047
 20
1193.0398440040581
 10
2438.4185445043486
 20
1192.3541828273317
 10
2442.0603292301366
 20
1192.6407741079418
 10
2445.0397505992032
 20
1193.8069218477849
 10
2447.9085622330435
 20
1196.0684809557342
 10
2449.7379835806196
 20
1198.6933751869853
 10
2450.8668583592121
 20
1202.1676192099915
 10
2450.9296535183275
 20
1205.3665110431887
 10
2449.9380920313333
 20
1208.8824085978192
 10
2448.2130952169846
 20
1211.577077071443
 10
2445.435313949024
 20
1213.94955700209
 10
2442.5039539130958
 20
1215.2317350660505
 10
2438.8762339243203
 20
1215.6611274278389
 10
2435.7265577729218
 20
1215.0986434062827
 10
2432.4716636657417
 20
1213.4402179082235
 10
2430.1652714858992
 20
1211.2226497644215
 10
2428.3801709557642
 20
1208.0353429766185
 10
2427.6948855975938
 20
1204.9108392255118
  0
LWPOLYLINE
  5
31
330
1F
100
AcDbEntity
  8
0
 62
7
100
AcDbPolyline
 90
62
 70
1
 10
2472.0681341
 20
1998.7963541000004
 10
2024.7279093224008
 20
1998.9999741992003
 10
2014.5999974696008
 20
1996.5808868096003
 10
2010.4069123496008
 20
1994.0005270052002
 10
2007.7942975952005
 20
1991.3234035184003
 10
2004.4839542708007
 20
1984.4888043764004
 10
2004.0380676800007
 20
1981.4233371296002
 10
2012.2194049953894
 20
1789.6470133063469
 10
2014.8963521486287
 20
1766.3565354230248
 10
2016.9748738057265
 20
1750.2249292764529
 10
2021.6417015373579
 20
1718.8516580980645
 10
2024.3525959784008
 20
1691.6576585552002
 10
2026.3204722110329
 20
1662.2423935020749
 10
2026.9303399455252
 20
1643.485160266222
 10
2028.1250914145742
 20
1593.5546480761275
 10
2028.9293147600008
 20
1575.7141227044003
 10
2028.6211173992008
 20
1565.5166697632003
 10
2026.9690752772822
 20
1549.7731262015648
 10
2011.9583306795173
 20
1456.3602376683127
 10
2004.2953523726198
 20
1414.0846899663404
 10
1988.9719469939891
 20
1321.1940813873616
 10
1984.4704239116006
 20
1295.6174086184008
 10
1984.4831764388007
 20
1287.3908084324007
 10
1985.0962691876007
 20
1282.0959105668007
 10
1987.1584924808005
 20
1275.4076175427997
 10
1991.1157329092007
 20
1270.5586051003997
 10
2000.7990495368006
 20
1265.7090765788007
 10
2002.8310833644007
 20
1265.6445678463997
 10
2295.5452695260005
 20
1261.7138552899996
 10
2300.5382657300006
 20
1262.2170255044007
 10
2311.3370712020005
 20
1265.1586360783997
 10
2315.6720757668004
 20
1267.6357812103997
 10
2321.2069481252006
 20
1271.8159643504007
 10
2333.7464217824245
 20
1285.3603257738237
 10
2403.0163515969307
 20
1366.9727675586439
 10
2424.1102531802103
 20
1391.6726929741076
 10
2435.4775863944005
 20
1404.5303963600004
 10
2441.6575682612
 20
1415.1246523232003
 10
2444.4666515648005
 20
1423.3913817536004
 10
2444.9482083356006
 20
1427.7253961936003
 10
2445.3635144841214
 20
1515.6795704362269
 10
2446.7599162284919
 20
1570.6069585404632
 10
2448.2215025444
 20
1596.9260718656003
 10
2449.0258948772007
 20
1606.3892456864003
 10
2450.7595006532006
 20
1617.5613702416003
 10
2453.8414660880003
 20
1630.3707887516002
 10
2458.0686990822883
 20
1643.708706457179
 10
2468.2262998930651
 20
1667.8089389760191
 10
2486.0094789272002
 20
1707.9977908784003
 10
2489.5730011328005
 20
1718.6883574952003
 10
2494.8701291144007
 20
1739.1063783548002
 10
2497.3136377856131
 20
1754.8033535623629
 10
2498.461140406278
 20
1769.4875325759378
 10
2499.0000001890844
 20
1782.3271661194619
 10
2497.9411273396536
 20
1888.3701682076319
 10
2496.0684428324
 20
1979.0103632936004
 10
2495.6626866536003
 20
1981.4689797812005
 10
2493.3217840951997
 20
1987.4327069492003
 10
2490.6464668856
 20
1991.2227400520003
 10
2487.135113048
 20
1994.4554146244002
 10
2483.1221384012
 20
1997.1307318340002
 10
2477.2569506952641
 20
1998.3886629542153
  0
LWPOLYLINE
  5
32
330
1F
100
AcDbEntity
  8
0
 62
7
100
AcDbPolyline
 90
22
 70
1
 10
2439.0187817528
 20
1951.0671919592003
 10
2439.5899745081506
 20
1947.4592501993027
 10
2441.2486901215975
 20
1944.2042339242109
 10
2443.4662740651875
 20
1941.8978610380827
 10
2446.6535233574468
 20
1940.1128881904958
 10
2449.7786981007484
 20
1939.4272270137697
 10
2453.4204828265365
 20
1939.7138182943797
 10
2456.3999041956031
 20
1940.8799660342227
 10
2459.2687158294434
 20
1943.1415251421722
 10
2461.0981371770195
 20
1945.7664193734233
 10
2462.2270119556119
 20
1949.2406633964295
 10
2462.2898071147279
 20
1952.4395552296266
 10
2461.2982456277332
 20
1955.9554527842572
 10
2459.5732488133845
 20
1958.650121257881
 10
2456.7954675454239
 20
1961.0226011885277
 10
2453.8641075094956
 20
1962.3047792524885
 10
2450.23638752072
 20
1962.7341716142766
 10
2447.0867113693216
 20
1962.1716875927207
 10
2443.8318172621416
 20
1960.5132620946615
 10
2441.5254250822991
 20
1958.2956939508592
 10
2439.7403245521641
 20
1955.1083871630565
 10
2439.0550391939937
 20
1951.9838834119496
  0
LWPOLYLINE
  5
33
330
1F
100
AcDbEntity
  8
0
 62
7
100
AcDbPolyline
 90
22
 70
1
 10
2051.4590429684
 20
1952.7460513064004
 10
2052.0302357237506
 20
1949.1381095465028
 10
2053.6889513371975
 20
1945.8830932714109
 10
2055.9065352807875
 20
1943.5767203852827
 10
2059.0937845730468
 20
1941.791747537696
 10
2062.2189593163484
 20
1941.1060863609696
 10
2065.8607440421365
 20
1941.3926776415797
 10
2068.8401654112031
 20
1942.5588253814228
 10
2071.7089770450434
 20
1944.8203844893721
 10
2073.5383983926195
 20
1947.445278720623
 10
2074.6672731712119
 20
1950.9195227436294
 10
2074.7300683303279
 20
1954.1184145768266
 10
2073.7385068433332
 20
1957.6343121314571
 10
2072.0135100289845
 20
1960.3289806050809
 10
2069.2357287610239
 20
1962.7014605357276
 10
2066.3043687250956
 20
1963.9836385996884
 10
2062.67664873632
 20
1964.4130309614766
 10
2059.5269725849216
 20
1963.8505469399206
 10
2056.2720784777416
 20
1962.1921214418614
 10
2053.9656862978991
 20
1959.9745532980594
 10
2052.1805857677641
 20
1956.7872465102564
 10
2051.4953004095937
 20
1953.6627427591495
  0
ENDSEC
  0
SECTION
  2
OBJECTS
  0
DICTIONARY
  5
C
330
0
100
AcDbDictionary
280
0
281
1
  3
ACAD_SCALELIST
350
39
  3
ACAD_COLOR
350
4B
  3
ACAD_FIELDLIST
350
4C
  3
ACAD_GROUP
350
D
  3
ACAD_IMAGE_DICT
350
4D
  3
ACAD_LAYOUT
350
1A
  3
ACAD_MATERIAL
350
4E
  3
ACAD_MLEADERSTYLE
350
4F
  3
ACAD_MLINESTYLE
350
17
  3
ACAD_PLOTSETTINGS
350
19
  3
ACAD_PLOTSTYLENAME
350
E
  3
ACAD_TABLESTYLE
350
51
  3
ACDB_RECOMPOSE_DATA
350
55
  3
AcDbVariableDictionary
350
56
  3
ACAD_VISUALSTYLE
350
59
  3
DWGPROPS
350
5A
  0
DICTIONARY
  5
53
330
52
100
AcDbDictionary
280
0
281
1
  3
ACAD_ROUNDTRIP_2008_TABLESTYLE_CELLSTYLEMAP
360
54
  0
DICTIONARY
  5
39
102
{ACAD_REACTORS
330
C
102
}
330
C
100
AcDbDictionary
280
0
281
1
  0
DICTIONARY
  5
4B
102
{ACAD_REACTORS
330
C
102
}
330
C
100
AcDbDictionary
280
0
281
1
  0
FIELDLIST
  5
4C
102
{ACAD_REACTORS
330
C
102
}
330
C
100
AcDbIdSet
100
AcDbFieldList
  0
DICTIONARY
  5
D
102
{ACAD_REACTORS
330
C
102
}
330
C
100
AcDbDictionary
280
0
281
1
  0
DICTIONARY
  5
4D
102
{ACAD_REACTORS
330
C
102
}
330
C
100
AcDbDictionary
280
0
281
1
  0
DICTIONARY
  5
1A
102
{ACAD_REACTORS
330
C
102
}
330
C
100
AcDbDictionary
280
0
281
1
  3
Layout1
350
1E
  3
Model
350
22
  0
DICTIONARY
  5
4E
102
{ACAD_REACTORS
330
C
102
}
330
C
100
AcDbDictionary
280
0
281
1
  0
DICTIONARY
  5
4F
102
{ACAD_REACTORS
330
C
102
}
330
C
100
AcDbDictionary
280
0
281
1
  3
Standard
350
50
  0
DICTIONARY
  5
17
102
{ACAD_REACTORS
330
C
102
}
330
C
100
AcDbDictionary
280
0
281
1
  3
STANDARD
350
18
  0
DICTIONARY
  5
19
102
{ACAD_REACTORS
330
C
102
}
330
C
100
AcDbDictionary
280
0
281
1
  0
ACDBDICTIONARYWDFLT
  5
E
102
{ACAD_REACTORS
330
C
102
}
330
C
100
AcDbDictionary
280
0
281
1
  3
Normal
350
F
100
AcDbDictionaryWithDefault
340
F
  0
ACDBPLACEHOLDER
  5
F
102
{ACAD_REACTORS
330
E
102
}
330
E
  0
DICTIONARY
  5
51
102
{ACAD_REACTORS
330
C
102
}
330
C
100
AcDbDictionary
280
0
281
1
  3
Standard
350
52
  0
XRECORD
  5
55
102
{ACAD_REACTORS
330
C
102
}
330
C
100
AcDbXrecord
280
1
 90
1
330
52
  0
DICTIONARY
  5
56
102
{ACAD_REACTORS
330
C
102
}
330
C
100
AcDbDictionary
280
0
281
1
  3
DIMASSOC
350
57
  3
HIDETEXT
350
58
  0
DICTIONARY
  5
59
102
{ACAD_REACTORS
330
C
102
}
330
C
100
AcDbDictionary
280
0
281
1
  0
XRECORD
  5
5A
102
{ACAD_REACTORS
330
C
102
}
330
C
100
AcDbXrecord
280
0
  1
DWGPROPS COOKIE
  2

  3

  4

  6

  7

  8

  9

300
=
301
=
302
=
303
=
304
=
305
=
306
=
307
=
308
=
309
=
 40
0
 41
2460962.9628082062
 42
2460962.9628082062
  1

 90
0
  0
CELLSTYLEMAP
  5
54
102
{ACAD_REACTORS
330
53
102
}
330
53
100
AcDbCellStyleMap
 90
3
300
CELLSTYLE
  1
TABLEFORMAT_BEGIN
 90
5
170
0
309
TABLEFORMAT_END
  1
CELLSTYLE_BEGIN
 90
3
 91
2
300
_DATA
309
CELLSTYLE_END
300
CELLSTYLE
  1
TABLEFORMAT_BEGIN
 90
5
170
0
309
TABLEFORMAT_END
  1
CELLSTYLE_BEGIN
 90
1
 91
2
300
_TITLE
309
CELLSTYLE_END
300
CELLSTYLE
  1
TABLEFORMAT_BEGIN
 90
5
170
0
309
TABLEFORMAT_END
  1
CELLSTYLE_BEGIN
 90
2
 91
2
300
_HEADER
309
CELLSTYLE_END
  0
LAYOUT
  5
1E
102
{ACAD_REACTORS
330
1A
102
}
330
1A
100
AcDbPlotSettings
  1

  2
C:\Program Files\AutoCAD 2002\plotters\DWF ePlot (optimized for plotting).pc3
  4

  6

 40
0
 41
0
 42
0
 43
0
 44
0
 45
0
 46
0
 47
0
 48
0
 49
0
140
0
141
0
142
1
143
1
 70
688
 72
1
 73
1
 74
1
  7
acad.stb
 75
16
 76
0
 77
0
 78
0
147
1
148
0
149
0
100
AcDbLayout
  1
Layout1
 70
1
 71
1
 10
0
 20
0
 11
420
 21
297
 12
0
 22
0
 32
0
 14
0
 24
0
 34
0
 15
0
 25
0
 35
0
146
0
 13
0
 23
0
 33
0
 16
1
 26
0
 36
0
 17
0
 27
1
 37
0
 76
0
330
34
  0
LAYOUT
  5
22
102
{ACAD_REACTORS
330
1A
102
}
330
1A
100
AcDbPlotSettings
  1

  2
C:\Program Files\AutoCAD 2002\plotters\DWF ePlot (optimized for plotting).pc3
  4

  6

 40
0
 41
0
 42
0
 43
0
 44
0
 45
0
 46
0
 47
0
 48
0
 49
0
140
0
141
0
142
1
143
1
 70
1712
 72
1
 73
1
 74
0
  7
acad.stb
 75
0
 76
0
 77
0
 78
0
147
1
148
0
149
0
100
AcDbLayout
  1
Model
 70
1
 71
0
 10
0
 20
0
 11
12
 21
9
 12
0
 22
0
 32
0
 14
0
 24
0
 34
0
 15
0
 25
0
 35
0
146
0
 13
0
 23
0
 33
0
 16
1
 26
0
 36
0
 17
0
 27
1
 37
0
 76
0
330
1F
  0
MLEADERSTYLE
  5
50
102
{ACAD_REACTORS
330
4F
102
}
330
4F
100
AcDbMLeaderStyle
170
2
171
1
172
0
 90
2
 40
0
 41
0
173
1
 91
0
340
0
 92
-2
290
1
 42
0.09
292
1
 43
0.36
  3
Standard
341
0
 44
0.18
300

342
0
174
1
178
1
175
1
176
0
 93
0
 45
0.18
292
0
297
0
 46
0
343
0
 94
0
 47
1
 49
1
140
1
293
1
141
0
294
1
177
0
142
1
295
0
296
0
143
0.125
  0
MLINESTYLE
  5
18
102
{ACAD_REACTORS
330
17
102
}
330
17
100
AcDbMlineStyle
  2
STANDARD
 70
0
  3

 51
90
 52
90
 71
2
 49
0.5
 62
0
  6
ByLayer
 49
-0.5
 62
0
  6
ByLayer
  0
TABLESTYLE
  5
52
102
{ACAD_XDICTIONARY
360
53
102
}
102
{ACAD_REACTORS
330
51
102
}
330
51
100
AcDbTableStyle
  3

 70
0
 71
0
 40
0.06
 41
0.06
280
0
281
0
  7
Standard
140
0.18
170
1
 62
0
283
0
 90
512
 91
0
274
-2
284
1
 64
0
275
-2
285
1
 65
0
276
-2
286
1
 66
0
277
-2
287
1
 67
0
278
-2
288
1
 68
0
279
-2
289
1
 69
0
  7
Standard
140
0.18
170
1
 62
0
283
0
 90
512
 91
0
274
-2
284
1
 64
0
275
-2
285
1
 65
0
276
-2
286
1
 66
0
277
-2
287
1
 67
0
278
-2
288
1
 68
0
279
-2
289
1
 69
0
  7
Standard
140
0.18
170
1
 62
0
283
0
 90
512
 91
0
274
-2
284
1
 64
0
275
-2
285
1
 65
0
276
-2
286
1
 66
0
277
-2
287
1
 67
0
278
-2
288
1
 68
0
279
-2
289
1
 69
0
  0
DICTIONARYVAR
  5
57
102
{ACAD_REACTORS
330
56
102
}
330
56
100
DictionaryVariables
280
0
  1
1
  0
DICTIONARYVAR
  5
58
102
{ACAD_REACTORS
330
56
102
}
330
56
100
DictionaryVariables
280
0
  1
2
  0
ENDSEC
999
Created By CadLib version 4.0.38.30
999
CadLib website: www.woutware.com
  0
EOF
