  0
SECTION
  2
HEADER
  9
$ACADVER
  1
AC1027
  9
$ACADMAINTVER
 70
105
  9
$DWGCODEPAGE
  3
ANSI_1252
  9
$LASTSAVEDBY
  1
ezdxf
  9
$REQUIREDVERSIONS
160
0
  9
$INSBASE
 10
0.0
 20
0.0
 30
0.0
  9
$EXTMIN
 10
1e+20
 20
1e+20
 30
1e+20
  9
$EXTMAX
 10
-1e+20
 20
-1e+20
 30
-1e+20
  9
$LIMMIN
 10
0.0
 20
0.0
  9
$LIMMAX
 10
420.0
 20
297.0
  9
$ORTHOMODE
 70
0
  9
$REGENMODE
 70
1
  9
$FILLMODE
 70
1
  9
$QTEXTMODE
 70
0
  9
$MIRRTEXT
 70
1
  9
$LTSCALE
 40
1.0
  9
$ATTMODE
 70
1
  9
$TEXTSIZE
 40
2.5
  9
$TRACEWID
 40
1.0
  9
$TEXTSTYLE
  7
Standard
  9
$CLAYER
  8
0
  9
$CELTYPE
  6
ByLayer
  9
$CECOLOR
 62
256
  9
$CELTSCALE
 40
1.0
  9
$DISPSILH
 70
0
  9
$DIMSCALE
 40
1.0
  9
$DIMASZ
 40
2.5
  9
$DIMEXO
 40
0.625
  9
$DIMDLI
 40
3.75
  9
$DIMRND
 40
0.0
  9
$DIMDLE
 40
0.0
  9
$DIMEXE
 40
1.25
  9
$DIMTP
 40
0.0
  9
$DIMTM
 40
0.0
  9
$DIMTXT
 40
2.5
  9
$DIMCEN
 40
2.5
  9
$DIMTSZ
 40
0.0
  9
$DIMTOL
 70
0
  9
$DIMLIM
 70
0
  9
$DIMTIH
 70
0
  9
$DIMTOH
 70
0
  9
$DIMSE1
 70
0
  9
$DIMSE2
 70
0
  9
$DIMTAD
 70
1
  9
$DIMZIN
 70
8
  9
$DIMBLK
  1

  9
$DIMASO
 70
1
  9
$DIMSHO
 70
1
  9
$DIMPOST
  1

  9
$DIMAPOST
  1

  9
$DIMALT
 70
0
  9
$DIMALTD
 70
3
  9
$DIMALTF
 40
0.03937007874
  9
$DIMLFAC
 40
1.0
  9
$DIMTOFL
 70
1
  9
$DIMTVP
 40
0.0
  9
$DIMTIX
 70
0
  9
$DIMSOXD
 70
0
  9
$DIMSAH
 70
0
  9
$DIMBLK1
  1

  9
$DIMBLK2
  1

  9
$DIMSTYLE
  2
ISO-25
  9
$DIMCLRD
 70
0
  9
$DIMCLRE
 70
0
  9
$DIMCLRT
 70
0
  9
$DIMTFAC
 40
1.0
  9
$DIMGAP
 40
0.625
  9
$DIMJUST
 70
0
  9
$DIMSD1
 70
0
  9
$DIMSD2
 70
0
  9
$DIMTOLJ
 70
0
  9
$DIMTZIN
 70
8
  9
$DIMALTZ
 70
0
  9
$DIMALTTZ
 70
0
  9
$DIMUPT
 70
0
  9
$DIMDEC
 70
2
  9
$DIMTDEC
 70
2
  9
$DIMALTU
 70
2
  9
$DIMALTTD
 70
3
  9
$DIMTXSTY
  7
Standard
  9
$DIMAUNIT
 70
0
  9
$DIMADEC
 70
0
  9
$DIMALTRND
 40
0.0
  9
$DIMAZIN
 70
0
  9
$DIMDSEP
 70
44
  9
$DIMATFIT
 70
3
  9
$DIMFRAC
 70
0
  9
$DIMLDRBLK
  1

  9
$DIMLUNIT
 70
2
  9
$DIMLWD
 70
-2
  9
$DIMLWE
 70
-2
  9
$DIMTMOVE
 70
0
  9
$DIMFXL
 40
1.0
  9
$DIMFXLON
 70
0
  9
$DIMJOGANG
 40
0.785398163397
  9
$DIMTFILL
 70
0
  9
$DIMTFILLCLR
 70
0
  9
$DIMARCSYM
 70
0
  9
$DIMLTYPE
  6

  9
$DIMLTEX1
  6

  9
$DIMLTEX2
  6

  9
$DIMTXTDIRECTION
 70
0
  9
$LUNITS
 70
2
  9
$LUPREC
 70
4
  9
$SKETCHINC
 40
1.0
  9
$FILLETRAD
 40
10.0
  9
$AUNITS
 70
0
  9
$AUPREC
 70
2
  9
$MENU
  1
.
  9
$ELEVATION
 40
0.0
  9
$PELEVATION
 40
0.0
  9
$THICKNESS
 40
0.0
  9
$LIMCHECK
 70
0
  9
$CHAMFERA
 40
0.0
  9
$CHAMFERB
 40
0.0
  9
$CHAMFERC
 40
0.0
  9
$CHAMFERD
 40
0.0
  9
$SKPOLY
 70
0
  9
$TDCREATE
 40
2460972.6754166665
  9
$TDUCREATE
 40
2458532.153996898
  9
$TDUPDATE
 40
2460972.6754282406
  9
$TDUUPDATE
 40
2458532.1544311
  9
$TDINDWG
 40
0.0
  9
$TDUSRTIMER
 40
0.0
  9
$USRTIMER
 70
1
  9
$ANGBASE
 50
0.0
  9
$ANGDIR
 70
0
  9
$PDMODE
 70
0
  9
$PDSIZE
 40
0.0
  9
$PLINEWID
 40
0.0
  9
$SPLFRAME
 70
0
  9
$SPLINETYPE
 70
6
  9
$SPLINESEGS
 70
8
  9
$HANDSEED
  5
52
  9
$SURFTAB1
 70
6
  9
$SURFTAB2
 70
6
  9
$SURFTYPE
 70
6
  9
$SURFU
 70
6
  9
$SURFV
 70
6
  9
$UCSBASE
  2

  9
$UCSNAME
  2

  9
$UCSORG
 10
0.0
 20
0.0
 30
0.0
  9
$UCSXDIR
 10
1.0
 20
0.0
 30
0.0
  9
$UCSYDIR
 10
0.0
 20
1.0
 30
0.0
  9
$UCSORTHOREF
  2

  9
$UCSORTHOVIEW
 70
0
  9
$UCSORGTOP
 10
0.0
 20
0.0
 30
0.0
  9
$UCSORGBOTTOM
 10
0.0
 20
0.0
 30
0.0
  9
$UCSORGLEFT
 10
0.0
 20
0.0
 30
0.0
  9
$UCSORGRIGHT
 10
0.0
 20
0.0
 30
0.0
  9
$UCSORGFRONT
 10
0.0
 20
0.0
 30
0.0
  9
$UCSORGBACK
 10
0.0
 20
0.0
 30
0.0
  9
$PUCSBASE
  2

  9
$PUCSNAME
  2

  9
$PUCSORG
 10
0.0
 20
0.0
 30
0.0
  9
$PUCSXDIR
 10
1.0
 20
0.0
 30
0.0
  9
$PUCSYDIR
 10
0.0
 20
1.0
 30
0.0
  9
$PUCSORTHOREF
  2

  9
$PUCSORTHOVIEW
 70
0
  9
$PUCSORGTOP
 10
0.0
 20
0.0
 30
0.0
  9
$PUCSORGBOTTOM
 10
0.0
 20
0.0
 30
0.0
  9
$PUCSORGLEFT
 10
0.0
 20
0.0
 30
0.0
  9
$PUCSORGRIGHT
 10
0.0
 20
0.0
 30
0.0
  9
$PUCSORGFRONT
 10
0.0
 20
0.0
 30
0.0
  9
$PUCSORGBACK
 10
0.0
 20
0.0
 30
0.0
  9
$USERI1
 70
0
  9
$USERI2
 70
0
  9
$USERI3
 70
0
  9
$USERI4
 70
0
  9
$USERI5
 70
0
  9
$USERR1
 40
0.0
  9
$USERR2
 40
0.0
  9
$USERR3
 40
0.0
  9
$USERR4
 40
0.0
  9
$USERR5
 40
0.0
  9
$WORLDVIEW
 70
1
  9
$SHADEDGE
 70
3
  9
$SHADEDIF
 70
70
  9
$TILEMODE
 70
1
  9
$MAXACTVP
 70
64
  9
$PINSBASE
 10
0.0
 20
0.0
 30
0.0
  9
$PLIMCHECK
 70
0
  9
$PEXTMIN
 10
1e+20
 20
1e+20
 30
1e+20
  9
$PEXTMAX
 10
-1e+20
 20
-1e+20
 30
-1e+20
  9
$PLIMMIN
 10
0.0
 20
0.0
  9
$PLIMMAX
 10
420.0
 20
297.0
  9
$UNITMODE
 70
0
  9
$VISRETAIN
 70
1
  9
$PLINEGEN
 70
0
  9
$PSLTSCALE
 70
1
  9
$TREEDEPTH
 70
3020
  9
$CMLSTYLE
  2
Standard
  9
$CMLJUST
 70
0
  9
$CMLSCALE
 40
20.0
  9
$PROXYGRAPHICS
 70
1
  9
$MEASUREMENT
 70
1
  9
$CELWEIGHT
370
-1
  9
$ENDCAPS
280
0
  9
$JOINSTYLE
280
0
  9
$LWDISPLAY
290
0
  9
$INSUNITS
 70
6
  9
$HYPERLINKBASE
  1

  9
$STYLESHEET
  1

  9
$XEDIT
290
1
  9
$CEPSNTYPE
380
0
  9
$PSTYLEMODE
290
1
  9
$FINGERPRINTGUID
  2
{F978E9AF-424A-4A6E-A691-47738D83E112}
  9
$VERSIONGUID
  2
{93B61841-910B-41AA-9593-EEACCC30AD67}
  9
$EXTNAMES
290
1
  9
$PSVPSCALE
 40
0.0
  9
$OLESTARTUP
290
0
  9
$SORTENTS
280
127
  9
$INDEXCTL
280
0
  9
$HIDETEXT
280
1
  9
$XCLIPFRAME
280
1
  9
$HALOGAP
280
0
  9
$OBSCOLOR
 70
257
  9
$OBSLTYPE
280
0
  9
$INTERSECTIONDISPLAY
280
0
  9
$INTERSECTIONCOLOR
 70
257
  9
$DIMASSOC
280
2
  9
$PROJECTNAME
  1

  9
$CAMERADISPLAY
290
0
  9
$LENSLENGTH
 40
50.0
  9
$CAMERAHEIGHT
 40
0.0
  9
$STEPSPERSEC
 40
24.0
  9
$STEPSIZE
 40
100.0
  9
$3DDWFPREC
 40
2.0
  9
$PSOLWIDTH
 40
0.005
  9
$PSOLHEIGHT
 40
0.08
  9
$LOFTANG1
 40
1.570796326795
  9
$LOFTANG2
 40
1.570796326795
  9
$LOFTMAG1
 40
0.0
  9
$LOFTMAG2
 40
0.0
  9
$LOFTPARAM
 70
7
  9
$LOFTNORMALS
280
1
  9
$LATITUDE
 40
37.795
  9
$LONGITUDE
 40
-122.394
  9
$NORTHDIRECTION
 40
0.0
  9
$TIMEZONE
 70
-8000
  9
$LIGHTGLYPHDISPLAY
280
1
  9
$TILEMODELIGHTSYNCH
280
1
  9
$CMATERIAL
347
20
  9
$SOLIDHIST
280
0
  9
$SHOWHIST
280
1
  9
$DWFFRAME
280
2
  9
$DGNFRAME
280
2
  9
$REALWORLDSCALE
290
1
  9
$INTERFERECOLOR
 62
256
  9
$CSHADOW
280
0
  9
$SHADOWPLANELOCATION
 40
0.0
  0
ENDSEC
  0
SECTION
  2
CLASSES
  0
CLASS
  1
ACDBDICTIONARYWDFLT
  2
AcDbDictionaryWithDefault
  3
ObjectDBX Classes
 90
0
 91
0
280
0
281
0
  0
CLASS
  1
SUN
  2
AcDbSun
  3
SCENEOE
 90
1153
 91
0
280
0
281
0
  0
CLASS
  1
VISUALSTYLE
  2
AcDbVisualStyle
  3
ObjectDBX Classes
 90
4095
 91
0
280
0
281
0
  0
CLASS
  1
MATERIAL
  2
AcDbMaterial
  3
ObjectDBX Classes
 90
1153
 91
0
280
0
281
0
  0
CLASS
  1
SCALE
  2
AcDbScale
  3
ObjectDBX Classes
 90
1153
 91
0
280
0
281
0
  0
CLASS
  1
TABLESTYLE
  2
AcDbTableStyle
  3
ObjectDBX Classes
 90
4095
 91
0
280
0
281
0
  0
CLASS
  1
MLEADERSTYLE
  2
AcDbMLeaderStyle
  3
ACDB_MLEADERSTYLE_CLASS
 90
4095
 91
0
280
0
281
0
  0
CLASS
  1
DICTIONARYVAR
  2
AcDbDictionaryVar
  3
ObjectDBX Classes
 90
0
 91
0
280
0
281
0
  0
CLASS
  1
CELLSTYLEMAP
  2
AcDbCellStyleMap
  3
ObjectDBX Classes
 90
1152
 91
0
280
0
281
0
  0
CLASS
  1
MENTALRAYRENDERSETTINGS
  2
AcDbMentalRayRenderSettings
  3
SCENEOE
 90
1024
 91
0
280
0
281
0
  0
CLASS
  1
ACDBDETAILVIEWSTYLE
  2
AcDbDetailViewStyle
  3
ObjectDBX Classes
 90
1025
 91
0
280
0
281
0
  0
CLASS
  1
ACDBSECTIONVIEWSTYLE
  2
AcDbSectionViewStyle
  3
ObjectDBX Classes
 90
1025
 91
0
280
0
281
0
  0
CLASS
  1
RASTERVARIABLES
  2
AcDbRasterVariables
  3
ISM
 90
0
 91
0
280
0
281
0
  0
CLASS
  1
ACDBPLACEHOLDER
  2
AcDbPlaceHolder
  3
ObjectDBX Classes
 90
0
 91
0
280
0
281
0
  0
CLASS
  1
LAYOUT
  2
AcDbLayout
  3
ObjectDBX Classes
 90
0
 91
0
280
0
281
0
  0
ENDSEC
  0
SECTION
  2
TABLES
  0
TABLE
  2
VPORT
  5
8
330
0
100
AcDbSymbolTable
 70
1
  0
VPORT
  5
23
330
8
100
AcDbSymbolTableRecord
100
AcDbViewportTableRecord
  2
*Active
 70
0
 10
0.0
 20
0.0
 11
1.0
 21
1.0
 12
0.0
 22
0.0
 13
0.0
 23
0.0
 14
0.5
 24
0.5
 15
0.5
 25
0.5
 16
0.0
 26
0.0
 36
1.0
 17
0.0
 27
0.0
 37
0.0
 40
1000.0
 41
1.34
 42
50.0
 43
0.0
 44
0.0
 50
0.0
 51
0.0
 71
0
 72
1000
 73
1
 74
3
 75
0
 76
0
 77
0
 78
0
281
0
 65
0
146
0.0
  0
ENDTAB
  0
TABLE
  2
LTYPE
  5
2
330
0
100
AcDbSymbolTable
 70
3
  0
LTYPE
  5
24
330
2
100
AcDbSymbolTableRecord
100
AcDbLinetypeTableRecord
  2
ByBlock
 70
0
  3

 72
65
 73
0
 40
0.0
  0
LTYPE
  5
25
330
2
100
AcDbSymbolTableRecord
100
AcDbLinetypeTableRecord
  2
ByLayer
 70
0
  3

 72
65
 73
0
 40
0.0
  0
LTYPE
  5
26
330
2
100
AcDbSymbolTableRecord
100
AcDbLinetypeTableRecord
  2
Continuous
 70
0
  3

 72
65
 73
0
 40
0.0
  0
ENDTAB
  0
TABLE
  2
LAYER
  5
1
330
0
100
AcDbSymbolTable
 70
2
  0
LAYER
  5
27
330
1
100
AcDbSymbolTableRecord
100
AcDbLayerTableRecord
  2
0
 70
0
 62
7
  6
Continuous
370
-3
390
13
347
21
  0
LAYER
  5
28
330
1
100
AcDbSymbolTableRecord
100
AcDbLayerTableRecord
  2
Defpoints
 70
0
 62
7
  6
Continuous
290
0
370
-3
390
13
347
21
  0
ENDTAB
  0
TABLE
  2
STYLE
  5
5
330
0
100
AcDbSymbolTable
 70
1
  0
STYLE
  5
29
330
5
100
AcDbSymbolTableRecord
100
AcDbTextStyleTableRecord
  2
Standard
 70
0
 40
0.0
 41
1.0
 50
0.0
 71
0
 42
2.5
  3
txt
  4

  0
ENDTAB
  0
TABLE
  2
VIEW
  5
7
330
0
100
AcDbSymbolTable
 70
0
  0
ENDTAB
  0
TABLE
  2
UCS
  5
6
330
0
100
AcDbSymbolTable
 70
0
  0
ENDTAB
  0
TABLE
  2
APPID
  5
3
330
0
100
AcDbSymbolTable
 70
3
  0
APPID
  5
2A
330
3
100
AcDbSymbolTableRecord
100
AcDbRegAppTableRecord
  2
ACAD
 70
0
  0
APPID
  5
4F
330
3
100
AcDbSymbolTableRecord
100
AcDbRegAppTableRecord
  2
HATCHBACKGROUNDCOLOR
 70
0
  0
APPID
  5
50
330
3
100
AcDbSymbolTableRecord
100
AcDbRegAppTableRecord
  2
EZDXF
 70
0
  0
ENDTAB
  0
TABLE
  2
DIMSTYLE
  5
4
330
0
100
AcDbSymbolTable
 70
1
100
AcDbDimStyleTable
  0
DIMSTYLE
105
2B
330
4
100
AcDbSymbolTableRecord
100
AcDbDimStyleTableRecord
  2
Standard
 70
0
 40
1.0
 41
2.5
 42
0.625
 43
3.75
 44
1.25
 45
0.0
 46
0.0
 47
0.0
 48
0.0
 49
2.5
140
2.5
141
2.5
142
0.0
143
0.03937007874
144
1.0
145
0.0
146
1.0
147
0.625
148
0.0
 69
0
 70
0
 71
0
 72
0
 73
0
 74
0
 75
0
 76
0
 77
1
 78
8
 79
3
170
0
171
3
172
1
173
0
174
0
175
0
176
0
177
0
178
0
179
2
271
2
272
2
273
2
274
3
275
0
276
0
277
2
278
44
279
0
280
0
281
0
282
0
283
0
284
8
285
0
286
0
288
0
289
3
290
0
371
-2
372
-2
  0
ENDTAB
  0
TABLE
  2
BLOCK_RECORD
  5
9
330
0
100
AcDbSymbolTable
 70
2
  0
BLOCK_RECORD
  5
17
330
9
100
AcDbSymbolTableRecord
100
AcDbBlockTableRecord
  2
*Model_Space
340
1A
 70
0
280
1
281
0
  0
BLOCK_RECORD
  5
1B
330
9
100
AcDbSymbolTableRecord
100
AcDbBlockTableRecord
  2
*Paper_Space
340
1E
 70
0
280
1
281
0
  0
ENDTAB
  0
ENDSEC
  0
SECTION
  2
BLOCKS
  0
BLOCK
  5
18
330
17
100
AcDbEntity
  8
0
100
AcDbBlockBegin
  2
*Model_Space
 70
0
 10
0.0
 20
0.0
 30
0.0
  3
*Model_Space
  1

  0
ENDBLK
  5
19
330
17
100
AcDbEntity
  8
0
100
AcDbBlockEnd
  0
BLOCK
  5
1C
330
1B
100
AcDbEntity
  8
0
100
AcDbBlockBegin
  2
*Paper_Space
 70
0
 10
0.0
 20
0.0
 30
0.0
  3
*Paper_Space
  1

  0
ENDBLK
  5
1D
330
1B
100
AcDbEntity
  8
0
100
AcDbBlockEnd
  0
ENDSEC
  0
SECTION
  2
ENTITIES
  0
LWPOLYLINE
  5
2F
330
17
100
AcDbEntity
  8
0
100
AcDbPolyline
 90
92
 70
0
 10
2020.2919421000001
 20
1922.5314911000003
 10
2028.9899406237123
 20
1834.319516002344
 10
2030.9746274752138
 20
1826.7808349720706
 10
2031.9192251963136
 20
1819.0427215687503
 10
2031.806300620508
 20
1811.247998058008
 10
2030.6379422945497
 20
1803.5405166737307
 10
2029.8575720591066
 20
1799.5870407215823
 10
2028.5867032808778
 20
1795.7629593006839
 10
2026.8454704088686
 20
1792.128811656641
 10
2024.661468009424
 20
1788.742237865137
 10
2022.0693025393007
 20
1785.6568725697268
 10
2019.1100535196779
 20
1782.921582042383
 10
2015.8306107325075
 20
1780.5797775379885
 10
2008.1954861169233
 20
1776.3151600354438
 10
1996.4401473626183
 20
1768.5249116516784
 10
1989.1219410700319
 20
1762.5845153919925
 10
1984.9074921411989
 20
1756.6237075916995
 10
1981.543940047693
 20
1750.1445205799807
 10
1981.4838537973878
 20
1647.6735885731448
 10
1982.27240417428
 20
1644.4567688099612
 10
1983.5826573175905
 20
1641.4148910633792
 10
1985.378454665613
 20
1638.6319549671878
 10
1987.610219459009
 20
1636.1847122303714
 10
1990.216363410425
 20
1634.1407592884768
 10
1996.2188467783449
 20
1631.400814830469
 10
2002.5908455652711
 20
1629.6723373524417
 10
2012.4259886545656
 20
1628.5805709950198
 10
2019.0219411653993
 20
1628.869534312891
 10
2033.8861188692567
 20
1630.0469024769534
 10
2038.8470184059838
 20
1629.9658832321645
 10
2048.7759414715288
 20
1629.2575271717776
 10
2053.3680040044305
 20
1627.3349197499026
 10
2057.7031234865603
 20
1624.8874481312503
 10
2063.5945275825975
 20
1620.3077133290042
 10
2065.3679415983675
 20
1618.5595138661135
 10
2069.0931532186983
 20
1610.4218872181643
 10
2074.168942908716
 20
1603.0507095448245
 10
2080.442498664331
 20
1596.6678436390628
 10
2087.724941710901
 20
1591.465512096094
 10
2095.1779780191896
 20
1589.9039276234378
 10
2102.7611717981813
 20
1589.2100341908206
 10
2110.3738484186647
 20
1589.3930252186526
 10
2117.9149422449586
 20
1590.4505355946292
 10
2169.9587664408205
 20
1595.3781707875003
 10
2222.0899424356935
 20
1599.2745025746096
 10
2371.602939109277
 20
1599.2745025746096
 10
2396.056456433529
 20
1598.2610651517346
 10
2410.61737392373
 20
1596.8227966419925
 10
2425.043582841115
 20
1594.3787003519385
 10
2454.491504172754
 20
1587.8991134754885
 10
2460.1698717875
 20
1587.6875122181643
 10
2465.82001064248
 20
1588.2910354725589
 10
2471.3255724710934
 20
1589.6972854725589
 10
2476.5730700296876
 20
1591.877232371973
 10
2481.454394797754
 20
1594.7860153309573
 10
2485.8690295023434
 20
1598.3636673084964
 10
2489.725955466699
 20
1602.536526500391
 10
2498.4359392923825
 20
1623.0835159413089
 10
2498.435939292382
 20
1928.3325012318362
 10
2498.9999422831047
 20
1937.7991302601565
 10
2497.8060183329094
 20
1947.2070129505862
 10
2494.895328025292
 20
1956.2326629750003
 10
2490.3679308695305
 20
1964.5654876820315
 10
2480.853923301171
 20
1972.0033844105471
 10
2470.264399985742
 20
1977.8086670033206
 10
2458.8769182962883
 20
1981.8291290394534
 10
2446.9899401468747
 20
1983.9594848744143
 10
2433.3783001366005
 20
1986.2963176927285
 10
2396.953520190087
 20
1991.5451605155777
 10
2364.8799357218254
 20
1994.5765503041018
 10
2162.1478209299553
 20
1998.99992066543
 10
2156.2213644785393
 20
1997.9611786000003
 10
2150.460723380517
 20
1996.224270641016
 10
2144.947818259667
 20
1993.813916026758
 10
2142.308944205712
 20
1992.3665435902346
 10
2133.1700405878532
 20
1983.2667358509768
 10
2120.492003898095
 20
1968.4343536488284
 10
2115.5020603937614
 20
1964.0855224720706
 10
2110.025490264367
 20
1960.368099986719
 10
2104.1417393488396
 20
1957.3360260121096
 10
2097.936147193383
 20
1955.0333221546878
 10
2091.4987335009087
 20
1953.493328868555
 10
2084.92287013955
 20
1952.7384002796878
 10
2074.0519720626116
 20
1952.7080478427556
 10
2057.1350285740014
 20
1951.5267326195876
 10
2039.835650662851
 20
1948.1874664417971
 10
2035.3584394258974
 20
1946.2366302601565
 10
2031.2748226923463
 20
1943.5579498402346
 10
2027.702022532892
 20
1940.2282531849612
 10
2024.7425946993349
 20
1936.3432891957034
 10
2022.481485347223
 20
1932.0144470326175
 10
2020.9836015505311
 20
1927.3660858265628
  0
CIRCLE
  5
30
330
17
100
AcDbEntity
  8
0
100
AcDbCircle
 10
2452.2799334330075
 20
1665.2655227772464
 30
0.0
 40
14.50000047683716
  0
CIRCLE
  5
31
330
17
100
AcDbEntity
  8
0
100
AcDbCircle
 10
2454.330943564843
 20
1904.11954957168
 30
0.0
 40
14.50000047683716
  0
LWPOLYLINE
  5
32
330
17
100
AcDbEntity
  8
0
100
AcDbPolyline
 90
96
 70
0
 10
2000.6747011000004
 20
744.090829297916
 10
2002.9981862890852
 20
733.6250740744504
 10
2004.348178272852
 20
730.302873060123
 10
2007.8047899061528
 20
724.0347151011385
 10
2012.2293046766606
 20
718.4079221934238
 10
2017.5053361708012
 20
713.5704664439121
 10
2026.70465338113
 20
708.0522514769626
 10
2030.0379136854497
 20
706.7486814707677
 10
2036.9647172743169
 20
704.9438337534824
 10
2046.6079667860356
 20
703.8681272715488
 10
2056.3101533705076
 20
703.7352232188144
 10
2065.9792665296877
 20
704.5463422984044
 10
2075.523715382227
 20
706.2938169688144
 10
2099.285998707422
 20
713.3865980357091
 10
2123.3047822767576
 20
719.5553068369785
 10
2147.544131641992
 20
724.7907880991855
 10
2171.967730885156
 20
729.085183545963
 10
2196.5391115003904
 20
732.4320844859044
 10
2221.2214998060545
 20
734.8264555186191
 10
2245.9780458265623
 20
736.264787122623
 10
2270.771670704492
 20
736.7448286265294
 10
2319.4533876234373
 20
736.6286329478183
 10
2386.0574678236326
 20
738.4913877695958
 10
2403.888430958398
 20
740.546479627506
 10
2421.500430470117
 20
744.0082411021153
 10
2438.782687550195
 20
748.854813978092
 10
2448.506656056055
 20
752.9316190928381
 10
2457.702823048242
 20
758.0897001475256
 10
2466.251483326563
 20
764.2618421763342
 10
2474.041324024805
 20
771.3677076548498
 10
2480.970950489649
 20
779.314790174381
 10
2486.950030689844
 20
787.9995969981115
 10
2491.9007448011716
 20
797.3090223521154
 10
2495.758700733789
 20
807.1218351572912
 10
2498.0009684673787
 20
829.8114270572709
 10
2498.999972706445
 20
847.9814008921545
 10
2498.973340186169
 20
861.6267383574675
 10
2496.823077564844
 20
901.7622617930334
 10
2495.409350758203
 20
908.03461591901
 10
2493.344684010156
 20
914.1238645762365
 10
2488.991885548242
 20
919.4124845713537
 10
2484.025683766016
 20
924.1298155039709
 10
2473.5622743421877
 20
931.8861631602209
 10
2463.8707307630857
 20
940.5878690928381
 10
2460.540347462305
 20
947.6745847910803
 10
2457.858310108789
 20
955.0312284678381
 10
2455.846286183008
 20
962.598596021549
 10
2454.520450001367
 20
970.3158048838537
 10
2453.8914827162107
 20
978.1207517832678
 10
2453.964343433984
 20
985.9507230967444
 10
2454.73849809707
 20
993.74262373151
 10
2456.207690601953
 20
1001.4338163584631
 10
2457.444533178286
 20
1011.059031216049
 10
2458.990917447457
 20
1030.3616281357117
 10
2458.926730518945
 20
1049.754815503971
 10
2458.207278614649
 20
1056.7344907969398
 10
2456.555209522852
 20
1063.5539488047523
 10
2454.000506764063
 20
1070.0889829844398
 10
2450.589633350977
 20
1076.220879957096
 10
2446.384692555078
 20
1081.8379453867835
 10
2441.46213090957
 20
1086.8381742686195
 10
2435.9114412123045
 20
1091.1304716319007
 10
2429.83371294082
 20
1094.636865064518
 10
2308.2937196546873
 20
1163.3428434580726
 10
2298.192553883203
 20
1163.434014722721
 10
2288.1202272230466
 20
1162.6663450449867
 10
2278.1495240980466
 20
1161.045327588932
 10
2268.352694874414
 20
1158.5828642100257
 10
2256.5613893324216
 20
1152.4649290293617
 10
2244.2642549330076
 20
1147.4407438486976
 10
2231.5623811537107
 20
1143.5515073985023
 10
2218.5603669935545
 20
1140.829263135807
 10
2205.365176563867
 20
1139.2963651865882
 10
2192.0852998548826
 20
1138.9655546397132
 10
2178.8301423841795
 20
1139.8394254893226
 10
2161.4747497158505
 20
1142.499212536202
 10
2136.0099297660718
 20
1145.2956222952191
 10
2106.40109575332
 20
1146.2649778574867
 10
2098.2027772718748
 20
1145.2056364268226
 10
2090.2379182630857
 20
1142.993340894596
 10
2082.667727833398
 20
1139.67279951276
 10
2076.1789659315427
 20
1132.1090940684242
 10
2071.305423145898
 20
1123.4164671152992
 10
2068.2376817518552
 20
1113.9348081797523
 10
2067.0957139784177
 20
1104.034829542057
 10
2053.9126924330076
 20
959.914803907291
 10
2048.9769700819334
 20
955.4196409434238
 10
2043.5306886488283
 20
951.5588621348301
 10
2033.2849828379728
 20
951.3950624921509
 10
2029.9180177503908
 20
950.7480863779941
 10
2023.4063676649416
 20
948.6455015391269
 10
2017.3397401625002
 20
945.4803709238926
 10
2011.890101795801
 20
941.3422636240879
 10
2005.191171170678
 20
933.5788264373608
 10
2003.4378007704104
 20
930.6408170908848
 10
2000.6747011000004
 20
924.3808225840488
  0
LWPOLYLINE
  5
33
330
17
100
AcDbEntity
  8
0
100
AcDbPolyline
 90
95
 70
0
 10
2499.0000001000003
 20
1176.720055138998
 10
2499.0000001000003
 20
1357.010048425131
 10
2494.483530132369
 20
1366.2080570736275
 10
2492.4627915428714
 20
1368.9778266310025
 10
2487.7845994041995
 20
1373.9714942335415
 10
2482.3349610375003
 20
1378.1096015333462
 10
2476.268333535059
 20
1381.2747321485806
 10
2466.389698717686
 20
1384.0242902877528
 10
2462.9845658348636
 20
1384.3576941847134
 10
2456.1439744041995
 20
1384.1880927442837
 10
2450.6977311180667
 20
1388.0488715528775
 10
2445.76197062002
 20
1392.5440345167447
 10
2431.437019448145
 20
1546.564034020834
 10
2428.369239907129
 20
1556.045692956381
 10
2423.4957352684573
 20
1564.738319909506
 10
2417.006935219629
 20
1572.3020253538418
 10
2409.4367447899417
 20
1575.6225667356778
 10
2401.4718857811527
 20
1577.8348622679043
 10
2393.2735672997073
 20
1578.8942036985684
 10
2385.0079575584964
 20
1578.7790761350918
 10
2359.4081345604495
 20
1577.608955895834
 10
2355.1577294462
 20
1577.2183414526212
 10
2307.589363198145
 20
1571.594780480795
 10
2294.3094864891605
 20
1571.92559102767
 10
2281.114296059473
 20
1573.4584889768887
 10
2268.1122818993167
 20
1576.180733239584
 10
2255.41040812002
 20
1580.0699696897793
 10
2243.113273720606
 20
1585.0941548704434
 10
2231.3219681786136
 20
1591.2120900511075
 10
2221.525138954981
 20
1593.6745534300137
 10
2211.554435829981
 20
1595.2955708860684
 10
2201.4821091698245
 20
1596.0632405638028
 10
2191.38094339834
 20
1595.9720692991543
 10
2063.7632218407225
 20
1523.7596974729825
 10
2058.212532143457
 20
1519.4674048780728
 10
2053.28997049795
 20
1514.4671759962368
 10
2049.0850297020506
 20
1508.8501105665493
 10
2045.6741562889652
 20
1502.718213593893
 10
2043.119453530176
 20
1496.1831794142056
 10
2041.467384438379
 20
1489.363721406393
 10
2040.747932534082
 20
1482.3840437292386
 10
2040.59870696384
 20
1472.6808589871027
 10
2041.227552698147
 20
1453.3266564817507
 10
2043.466972451075
 20
1434.0630445837307
 10
2044.936164955957
 20
1426.3718519567776
 10
2045.710319619043
 20
1418.579951322012
 10
2045.7831803368172
 20
1410.7499800085354
 10
2045.1542130516611
 20
1402.9450354933072
 10
2043.82837687002
 20
1395.2278266310025
 10
2041.816352944239
 20
1387.6604590772915
 10
2039.134315590723
 20
1380.3038154005337
 10
2035.8039322899422
 20
1373.2170997022915
 10
2026.1123887108402
 20
1364.5153937696743
 10
2015.648979287012
 20
1356.7590413450528
 10
2010.6827775047861
 20
1352.0417104124356
 10
2006.329979042872
 20
1346.7530904173184
 10
2004.265312294825
 20
1340.6638417600918
 10
2002.8515854881841
 20
1334.3914876341153
 10
2002.104362587793
 20
1328.005341088705
 10
2000.674690346582
 20
1280.6106267332364
 10
2001.3293232940011
 20
1266.980967748157
 10
2003.915962319239
 20
1239.751060998373
 10
2007.773918251856
 20
1229.9382481931973
 10
2012.7246323631841
 20
1220.6288228391934
 10
2018.703712563379
 20
1211.944016015463
 10
2025.633339028223
 20
1203.9969334959317
 10
2033.4231797264652
 20
1196.891068017416
 10
2041.9718400047861
 20
1190.7189259886075
 10
2051.1680069969725
 20
1185.56084493392
 10
2060.891975502832
 20
1181.4840398191739
 10
2078.174232582911
 20
1176.6374669431973
 10
2095.7862320946288
 20
1173.175705468588
 10
2113.617195229395
 20
1171.1206136106778
 10
2131.554969887598
 20
1170.485046899252
 10
2180.22127542959
 20
1169.2578587889004
 10
2228.9029923485355
 20
1169.3740544676114
 10
2253.696617226465
 20
1168.894012963705
 10
2278.453163246973
 20
1167.4556813597012
 10
2303.135551552637
 20
1165.0613103269864
 10
2327.7069321678714
 20
1161.714409387045
 10
2352.1305314110355
 20
1157.4200139402676
 10
2376.36988077627
 20
1152.1845326780606
 10
2400.388664345606
 20
1146.015823876791
 10
2428.901924233301
 20
1137.9330907224942
 10
2438.520073037012
 20
1136.652267968588
 10
2448.2172623680667
 20
1136.3127599119473
 10
2457.901405434473
 20
1136.917809045248
 10
2462.709983925684
 20
1137.5730595945645
 10
2472.9700270386547
 20
1140.681480325549
 10
2476.1805954979495
 20
1142.2788701414395
 10
2482.1693650291995
 20
1146.1996922849942
 10
2487.44539652334
 20
1151.037148034506
 10
2491.869911293848
 20
1156.6639409422207
 10
2496.676514887282
 20
1166.25429995406
 10
2497.7242508934573
 20
1169.676598107748
  0
LWPOLYLINE
  5
34
330
17
100
AcDbEntity
  8
0
100
AcDbPolyline
 90
65
 70
0
 10
2373.4139291
 20
42.03759420648042
 10
2381.3525239181154
 20
42.29626882806245
 10
2389.0863267135255
 20
44.1062663866562
 10
2396.315235252344
 20
47.39732015862886
 10
2402.7586594771974
 20
52.04167593255464
 10
2408.166526908838
 20
57.859165556578084
 10
2412.328952903711
 20
64.62392080560151
 10
2415.0844041061036
 20
72.0734523607773
 10
2416.325935478174
 20
79.91860616937103
 10
2417.4499360274904
 20
108.55885732903901
 10
2417.0669404220216
 20
137.2186015917343
 10
2432.550930137598
 20
231.7236064745468
 10
2454.7179452132814
 20
476.8766044451279
 10
2472.024940605127
 20
553.367606289534
 10
2478.4780307355395
 20
576.0281707970978
 10
2488.6181562741126
 20
617.1641333538403
 10
2498.0140153121583
 20
666.3131927324814
 10
2499.0000001144044
 20
678.6234210802597
 10
2498.6767426681154
 20
690.9688400103134
 10
2497.047943229639
 20
703.210604078917
 10
2495.601371879541
 20
708.7018607927841
 10
2493.2274857711427
 20
713.8604568316025
 10
2489.9977723312013
 20
718.5311340166611
 10
2486.0093918990724
 20
722.5733207537216
 10
2481.382392997705
 20
725.8653377367539
 10
2476.256069297754
 20
728.3081077410263
 10
2470.7846871566408
 20
729.8281215502304
 10
2465.1329270553224
 20
730.3796027971787
 10
2188.8986639127443
 20
730.3800834180988
 10
2179.7677237101775
 20
728.5744626771249
 10
2171.020189918581
 20
725.4227813360521
 10
2162.8551575345837
 20
720.9647942617046
 10
2155.4740297930903
 20
715.3104695491
 10
2149.017905390302
 20
708.6057836443005
 10
2146.2200943183534
 20
704.8909591509383
 10
2141.484936828577
 20
696.8856071306747
 10
2124.3385544967286
 20
672.7277587725204
 10
2106.588935012781
 20
649.0096067263167
 10
2076.4422360610597
 20
620.5406974627059
 10
2047.0399323653814
 20
591.3036071135085
 10
2040.6513444137213
 20
578.8683407379668
 10
2035.023826713526
 20
566.0706435514968
 10
2030.1778451156256
 20
552.9570435358565
 10
2026.1310235213873
 20
539.5752190424483
 10
2022.8980675887701
 20
525.9738229586166
 10
2020.4907456588385
 20
512.2023032976668
 10
2018.9177933883307
 20
498.31073034539645
 10
2017.8622735160186
 20
479.38863936973684
 10
2013.1122076208187
 20
400.0120830796511
 10
2011.1291295327735
 20
350.39912726811724
 10
2010.4967168373983
 20
305.7444181779389
 10
2011.0380466235936
 20
266.0484251380785
 10
2012.8672348452103
 20
216.42538433238414
 10
2017.2659341048834
 20
137.02462423577725
 10
2018.8321660726485
 20
119.3352187971373
 10
2020.6952038955328
 20
106.19183767571865
 10
2022.4855351799854
 20
97.52809820712338
 10
2029.3759099197027
 20
72.504055388121
 10
2032.2924367141363
 20
65.54707754388262
 10
2035.9651890945074
 20
58.95795095696868
 10
2040.3485051345465
 20
52.818577177671806
 10
2042.789939994776
 20
49.94160879388274
 10
2046.0953370284674
 20
48.3944057299179
 10
2052.212118263208
 20
44.42567098870696
 10
2054.97193729397
 20
42.0375942064804
  0
CIRCLE
  5
35
330
17
100
AcDbEntity
  8
0
100
AcDbCircle
 10
2353.924926872217
 20
111.76160085931244
 30
0.0
 40
14.50000047683716
  0
CIRCLE
  5
36
330
17
100
AcDbEntity
  8
0
100
AcDbCircle
 10
2101.9529381942384
 20
111.37459982171475
 30
0.0
 40
14.50000047683716
  0
LWPOLYLINE
  5
37
330
17
100
AcDbEntity
  8
0
100
AcDbPolyline
 90
62
 70
0
 10
2586.9342406952155
 20
504.15100936358107
 10
2523.4668658836226
 20
50.98063183675943
 10
2524.5946086272866
 20
45.31368846529979
 10
2527.0942181844403
 20
40.2949163101887
 10
2531.260527523309
 20
35.41615351159654
 10
2535.3500863367353
 20
32.60233054982367
 10
2539.837158718721
 20
30.666544078165504
 10
2545.208895655319
 20
29.16706218137525
 10
2721.5606369818793
 20
6.23570867107689
 10
2754.5267715915634
 20
3.908978405847492
 10
2814.0993402047698
 20
1.000508294048921
 10
2837.211277009466
 20
1.9629359478600428
 10
2868.0449370112556
 20
4.576456472392068
 10
2918.219238397529
 20
8.656857093735544
 10
2968.553660663003
 20
13.152960642054847
 10
2978.78003132817
 20
13.709297955839657
 10
2994.580048907236
 20
12.918273942190083
 10
3001.7648139751072
 20
12.237385094713277
 10
3046.0540587413852
 20
5.764180184735005
 10
3060.3616614247603
 20
2.549784346562513
 10
3070.164735210532
 20
1.0420565959287524
 10
3076.2201923863477
 20
1.0005102602037512
 10
3080.76190521972
 20
2.381120970048724
 10
3085.857272260746
 20
6.016507167583511
 10
3089.6786995414122
 20
11.370980221452184
 10
3090.67311125819
 20
13.933419935471106
 10
3130.4294295909094
 20
287.42313392091245
 10
3130.109369730676
 20
292.8498415151119
 10
3128.418110875396
 20
297.10695648967373
 10
3126.2815748513603
 20
299.99992849696963
 10
3123.54850740114
 20
302.7170985690963
 10
3120.7530403232972
 20
304.5352236919278
 10
3116.515221219575
 20
306.036668096567
 10
3099.1980718418163
 20
309.4276083785376
 10
3090.3520804588657
 20
312.68987085431246
 10
3088.4291521488567
 20
314.7488807254935
 10
3086.1324756450485
 20
319.0389323407875
 10
3085.3101920110103
 20
323.51149374421
 10
3085.407321473142
 20
335.0916070691535
 10
3085.1726382847773
 20
339.40404401854863
 10
3084.211380574495
 20
342.8845412351007
 10
3080.365707931765
 20
349.18122014518354
 10
3076.5731659967983
 20
352.0468075170886
 10
3068.005030777692
 20
356.2038687827435
 10
3056.0072758436895
 20
359.2851672569805
 10
2982.4574636130724
 20
373.36330217420226
 10
2932.7156749130945
 20
379.7421417716519
 10
2907.004678371224
 20
385.38648536202464
 10
2883.6294250388587
 20
391.4027326729868
 10
2853.855201299129
 20
402.3502607421436
 10
2825.0338923918266
 20
416.7139402217354
 10
2793.310738352029
 20
435.19511142682967
 10
2726.830342940296
 20
484.3608361679345
 10
2688.4171832088714
 20
509.26498774281794
 10
2682.9010070796985
 20
511.65119834118997
 10
2666.595938759964
 20
516.0328206758271
 10
2615.154691771447
 20
523.5617017137172
 10
2608.782317864898
 20
523.7238356064895
 10
2601.582057412128
 20
521.7072295626641
 10
2595.9048174482177
 20
518.8049895735534
 10
2592.104466408534
 20
515.1916363313051
 10
2588.642453697564
 20
510.07428142789144
  0
LWPOLYLINE
  5
38
330
17
100
AcDbEntity
  8
0
100
AcDbPolyline
 90
22
 70
0
 10
2630.6481599428143
 20
454.0959545516355
 10
2634.164350951741
 20
454.1698496542524
 10
2637.4918108991524
 20
455.3483323904037
 10
2639.9916014564797
 20
457.1970021952439
 10
2642.1259752031337
 20
460.05731700054014
 10
2643.2048159519436
 20
463.0041903317533
 10
2643.427752856476
 20
466.5827666893036
 10
2642.722686487864
 20
469.63482456493796
 10
2640.9586358265906
 20
472.726288336331
 10
2638.706971689112
 20
474.8554215195575
 10
2635.549766588835
 20
476.41721269307476
 10
2632.509894661721
 20
476.9053048782316
 10
2629.024414852409
 20
476.41035450028704
 10
2626.2215432771472
 20
475.0924437476358
 10
2623.583087450926
 20
472.7084198699515
 10
2621.9622566980797
 20
470.02937817503107
 10
2621.0592427718266
 20
466.56012773922265
 10
2621.1660899270305
 20
463.4231268723769
 10
2622.3027715223056
 20
460.0370843356843
 10
2624.101235631874
 20
457.49875031236917
 10
2626.8954461636363
 20
455.33712541115744
 10
2629.7794287949537
 20
454.2536167698957
  0
LWPOLYLINE
  5
39
330
17
100
AcDbEntity
  8
0
100
AcDbPolyline
 90
22
 70
0
 10
2576.328553551958
 20
73.34077469831273
 10
2579.844744560885
 20
73.41466980092862
 10
2583.172204508296
 20
74.59315253708066
 10
2585.6719950656234
 20
76.44182234192063
 10
2587.8063688122775
 20
79.30213714721704
 10
2588.8852095610873
 20
82.24901047843026
 10
2589.10814646562
 20
85.82758683598071
 10
2588.4030800970077
 20
88.87964471161514
 10
2586.639029435734
 20
91.9711084830076
 10
2584.3873652982556
 20
94.10024166623414
 10
2581.230160197979
 20
95.66203283975138
 10
2578.1902882708646
 20
96.15012502490784
 10
2574.7048084615526
 20
95.65517464696394
 10
2571.901936886291
 20
94.33726389431253
 10
2569.2634810600703
 20
91.9532400166283
 10
2567.6426503072234
 20
89.27419832170797
 10
2566.7396363809703
 20
85.80494788589887
 10
2566.846483536174
 20
82.66794701905344
 10
2567.9831651314494
 20
79.28190448236133
 10
2569.781629241017
 20
76.74357045904533
 10
2572.57583977278
 20
74.58194555783406
 10
2575.4598224040974
 20
73.49843691657209
  0
LWPOLYLINE
  5
3A
330
17
100
AcDbEntity
  8
0
100
AcDbPolyline
 90
65
 70
0
 10
2999.8309126631866
 20
1594.9843184655579
 10
2574.163715328359
 20
1595.621134941706
 10
2568.9973287829334
 20
1593.970732742831
 10
2563.9820126525537
 20
1590.885189572281
 10
2557.7304067277337
 20
1586.216418423223
 10
2555.258632447695
 20
1583.4275437313127
 10
2552.7062742082644
 20
1578.9774700132864
 10
2549.996433633246
 20
1572.9418783436429
 10
2543.4460701348785
 20
1550.0832554522194
 10
2540.758029673334
 20
1538.344588632646
 10
2539.4015440370767
 20
1526.6030965840482
 10
2539.43760800612
 20
1519.1975406171193
 10
2541.090108333542
 20
1506.6750145643143
 10
2547.813698878859
 20
1470.042163948594
 10
2552.3339649555055
 20
1440.1747620458648
 10
2555.0387355103703
 20
1363.9574681207584
 10
2558.457835308985
 20
1246.4501848031057
 10
2565.250945470652
 20
1186.8216877785035
 10
2568.982384262282
 20
1160.393811096396
 10
2576.1548826106255
 20
1116.696174561918
 10
2577.2465585104765
 20
1106.8398495164279
 10
2577.2163106683133
 20
1092.590076185382
 10
2576.0997152481846
 20
1082.3407681011347
 10
2572.4559091397646
 20
1064.6775721290749
 10
2566.1203180832927
 20
1044.3612949899268
 10
2558.687179703829
 20
1025.4507000225267
 10
2553.928929145957
 20
1015.0811958778445
 10
2538.836689343312
 20
986.868032418513
 10
2532.126210064206
 20
972.6755321435725
 10
2528.690393853347
 20
964.6351995090808
 10
2527.1061076246588
 20
958.8388732387791
 10
2525.4235815276525
 20
950.324149347013
 10
2523.4596768241263
 20
840.0315823611445
 10
2524.388078908404
 20
835.2126741977889
 10
2529.1220652946226
 20
826.7699161000104
 10
2531.5574142333408
 20
824.4992425224438
 10
2534.4431999722074
 20
822.6681277340232
 10
2537.9082539565306
 20
821.4650891287598
 10
2898.553568913209
 20
817.3022006152764
 10
2902.151727684604
 20
818.3014528544041
 10
2906.652098421022
 20
820.8091268688157
 10
2913.5995720070305
 20
826.5840005448059
 10
2931.42604358464
 20
844.9219147566762
 10
2947.974961736172
 20
865.2284949555676
 10
2951.225231309147
 20
871.7462461690143
 10
2953.27628745493
 20
879.6258466412451
 10
2953.9397294556525
 20
887.2365308484258
 10
2954.506612047181
 20
1072.6694572898598
 10
2957.1430303962857
 20
1114.1891148813504
 10
2958.7347055163577
 20
1132.379195307459
 10
2967.8611871220505
 20
1177.6382778829352
 10
2976.1659722916806
 20
1214.4588463250113
 10
2995.839133406441
 20
1268.7230632578555
 10
3004.7076197126794
 20
1291.441343902614
 10
3015.5154855046644
 20
1324.490554070776
 10
3021.125920331276
 20
1347.9673902493862
 10
3026.6858779651843
 20
1388.8817113131474
 10
3028.3395351614645
 20
1404.0544746291976
 10
3029.08007200472
 20
1427.7295577020245
 10
3029.0032606816712
 20
1572.3579764099607
 10
3027.07333495209
 20
1577.9805219335142
 10
3019.5102950283176
 20
1587.1492124345782
 10
3014.9871939286713
 20
1590.874240277944
 10
3009.814308211877
 20
1593.4225840380554
 10
3006.487150463047
 20
1594.2452280321793
  0
LWPOLYLINE
  5
3B
330
17
100
AcDbEntity
  8
0
100
AcDbPolyline
 90
22
 70
0
 10
2960.061016676341
 20
1543.8444840629088
 10
2960.614631357023
 20
1540.3713629186373
 10
2962.236689138298
 20
1537.2361213306192
 10
2964.409565818416
 20
1535.012354299019
 10
2967.5346742102975
 20
1533.288797042995
 10
2970.601313329025
 20
1532.6227007233856
 10
2974.176790558589
 20
1532.890790617062
 10
2977.103894958357
 20
1534.0062437506474
 10
2979.9253480906946
 20
1536.1761343486728
 10
2981.726873065866
 20
1538.6975837857537
 10
2982.842653508815
 20
1542.0385671317194
 10
2982.9108348335094
 20
1545.1166195389135
 10
2981.944309425071
 20
1548.5017892558687
 10
2980.255804954713
 20
1551.098312021597
 10
2977.5336489219844
 20
1553.3862992439756
 10
2974.6582784235097
 20
1554.6258964483109
 10
2971.0981838665443
 20
1555.0464430959403
 10
2968.0051991403466
 20
1554.5119936252952
 10
2964.806213096391
 20
1552.9233409257088
 10
2962.537404508701
 20
1550.794932985546
 10
2960.777819910675
 20
1547.7315856739042
 10
2960.0985067991496
 20
1544.7266097189358
  0
LWPOLYLINE
  5
3C
330
17
100
AcDbEntity
  8
0
100
AcDbPolyline
 90
22
 70
0
 10
2584.2615973577203
 20
1545.6514661159022
 10
2584.815212038403
 20
1542.1783449716308
 10
2586.4372698196776
 20
1539.0431033836128
 10
2588.6101464997955
 20
1536.8193363520124
 10
2591.735254891677
 20
1535.0957790959883
 10
2594.8018940104043
 20
1534.4296827763792
 10
2598.377371239968
 20
1534.6977726700554
 10
2601.3044756397367
 20
1535.8132258036408
 10
2604.125928772074
 20
1537.9831164016662
 10
2605.9274537472456
 20
1540.504565838747
 10
2607.043234190194
 20
1543.8455491847128
 10
2607.111415514889
 20
1546.923601591907
 10
2606.1448901064505
 20
1550.308771308862
 10
2604.456385636092
 20
1552.9052940745903
 10
2601.734229603364
 20
1555.1932812969692
 10
2598.8588591048892
 20
1556.4328785013045
 10
2595.2987645479243
 20
1556.8534251489339
 10
2592.2057798217265
 20
1556.3189756782888
 10
2589.0067937777703
 20
1554.7303229787021
 10
2586.7379851900805
 20
1552.6019150385393
 10
2584.9784005920546
 20
1549.538567726898
 10
2584.299087480529
 20
1546.5335917719292
  0
LWPOLYLINE
  5
3D
330
17
100
AcDbEntity
  8
0
100
AcDbPolyline
 90
60
 70
0
 10
2693.129476820087
 20
1596.4532413635816
 10
3091.0333131478715
 20
1595.8448770838054
 10
3103.7183408171672
 20
1597.3438519568067
 10
3114.478551422758
 20
1599.7901019309004
 10
3122.5120758857565
 20
1603.656985549878
 10
3128.468818380757
 20
1609.1839569708145
 10
3135.476832955494
 20
1618.4338394137067
 10
3138.5043555388575
 20
1623.903588134361
 10
3140.503141217324
 20
1628.6199421170627
 10
3141.603678930579
 20
1633.7783565653833
 10
3142.0000000253494
 20
1805.0390986947828
 10
3141.3137641468766
 20
1809.2692191976314
 10
3140.1636226745
 20
1812.593936537092
 10
3137.7819887408123
 20
1816.7514593783849
 10
3134.7059246217436
 20
1820.3815600399114
 10
3131.9360105349597
 20
1822.8028675572398
 10
3128.625262186528
 20
1824.394420948537
 10
3123.6957830431697
 20
1825.6866962658178
 10
3096.220228507526
 20
1825.8168782853352
 10
3088.7303172207853
 20
1826.8786221991973
 10
3085.565981519124
 20
1827.9329158185976
 10
3076.299629917678
 20
1833.236796090651
 10
3070.5542110305487
 20
1837.3983638881061
 10
3063.8778233187463
 20
1844.751768394832
 10
3060.189428575193
 20
1852.231132799761
 10
3058.774477889128
 20
1859.225860210226
 10
3058.88441681371
 20
1976.3127561200981
 10
3058.0740807045336
 20
1979.5721251309974
 10
3053.6525716010556
 20
1989.4573308828105
 10
3050.0540765411733
 20
1993.9945323080035
 10
3046.729399225438
 20
1996.44700120543
 10
3043.1254425722805
 20
1997.8125100031345
 10
3037.6717882986654
 20
1998.9999644995444
 10
2747.082534601175
 20
1998.999999546363
 10
2740.8079505691367
 20
1996.9117031919768
 10
2735.5115280142677
 20
1993.3801686885263
 10
2731.8660665965044
 20
1989.4664354314875
 10
2729.2504665697747
 20
1984.15995566737
 10
2728.4721787708595
 20
1981.7839988006078
 10
2728.052915434854
 20
1978.0923218978594
 10
2724.603100170441
 20
1874.3478090959345
 10
2721.1497426295327
 20
1855.7766391187222
 10
2719.2933347578514
 20
1851.7019323420532
 10
2714.9335479903025
 20
1843.7348745559102
 10
2711.504851399282
 20
1839.4816356737888
 10
2687.2466617807904
 20
1815.6076270846
 10
2659.4654696217503
 20
1787.2109811816686
 10
2645.3083296967848
 20
1771.068741204415
 10
2642.1523582739383
 20
1764.0964297715989
 10
2641.03726489728
 20
1760.92664835416
 10
2640.7512727612375
 20
1755.943035783451
 10
2639.239391610786
 20
1636.0962038504827
 10
2639.814215049856
 20
1633.2545966986152
 10
2641.233606724858
 20
1628.8382684934168
 10
2643.5630392455278
 20
1624.7528304610203
 10
2651.109892334918
 20
1615.1862907480565
 10
2658.544446422361
 20
1607.8752820943573
 10
2662.953637567362
 20
1604.6337528515103
 10
2670.6610978388685
 20
1600.425103963559
 10
2684.1227071578965
 20
1597.1242812913285
  0
LWPOLYLINE
  5
3E
330
17
100
AcDbEntity
  8
0
100
AcDbPolyline
 90
22
 70
0
 10
3092.0705102167612
 20
1647.7126585201333
 10
3091.5155052704413
 20
1651.1855577710492
 10
3089.8921925642276
 20
1654.3201497889804
 10
3087.7184258717134
 20
1656.5430468276097
 10
3084.592627780526
 20
1658.2653529470126
 10
3081.5257222653886
 20
1658.9302216203068
 10
3077.9503526401977
 20
1658.6607004643975
 10
3075.023694997141
 20
1657.5440756837743
 10
3072.203110710316
 20
1655.373055815994
 10
3070.4025952299266
 20
1652.8508854203228
 10
3069.2881522908647
 20
1649.5094556888362
 10
3069.2212031333825
 20
1646.4313762348938
 10
3070.189083566923
 20
1643.0465936947417
 10
3071.878627304711
 20
1640.4507470549215
 10
3074.6016990135317
 20
1638.1638497102838
 10
3077.4775654993805
 20
1636.9254036323057
 10
3081.0378281183
 20
1636.506282144314
 10
3084.1305986535413
 20
1637.041969711379
 10
3087.3289484945462
 20
1638.6319028558455
 10
3089.5969048867437
 20
1640.7612188423573
 10
3091.355263068571
 20
1643.825270280201
 10
3092.0333732168347
 20
1646.8305179272763
  0
LWPOLYLINE
  5
3F
330
17
100
AcDbEntity
  8
0
100
AcDbPolyline
 90
22
 70
0
 10
2700.073807533538
 20
1647.9711120424925
 10
2699.518802587218
 20
1651.4440112934083
 10
2697.895489881005
 20
1654.5786033113395
 10
2695.7217231884906
 20
1656.8015003499688
 10
2692.5959250973033
 20
1658.5238064693717
 10
2689.5290195821663
 20
1659.188675142666
 10
2685.9536499569754
 20
1658.9191539867566
 10
2683.0269923139176
 20
1657.8025292061334
 10
2680.206408027094
 20
1655.631509338353
 10
2678.405892546704
 20
1653.109338942682
 10
2677.2914496076423
 20
1649.7679092111953
 10
2677.22450045016
 20
1646.689829757253
 10
2678.1923808837
 20
1643.3050472171008
 10
2679.881924621488
 20
1640.7092005772806
 10
2682.6049963303085
 20
1638.422303232643
 10
2685.480862816158
 20
1637.1838571546648
 10
2689.041125435077
 20
1636.764735666673
 10
2692.1338959703185
 20
1637.3004232337378
 10
2695.332245811323
 20
1638.8903563782046
 10
2697.6002022035204
 20
1641.0196723647164
 10
2699.3585603853476
 20
1644.0837238025601
 10
2700.0366705336114
 20
1647.0889714496354
  0
LWPOLYLINE
  5
40
330
17
100
AcDbEntity
  8
0
100
AcDbPolyline
 90
56
 70
0
 10
3142.000000820087
 20
422.30661483420045
 10
3142.000001131652
 20
839.653188527756
 10
3140.5817607873337
 20
845.4880245588846
 10
3138.0348628570073
 20
852.1779705719872
 10
3134.5775628566385
 20
859.0168850576136
 10
3130.864771486572
 20
864.2579518031622
 10
3126.7147769021026
 20
868.9789153787675
 10
3118.6416999236194
 20
875.8200601684171
 10
3108.322801111218
 20
880.6398273354916
 10
3103.666488380949
 20
882.1826326282593
 10
2977.9851905834744
 20
881.995097797963
 10
2974.5236710926492
 20
881.0331026267731
 10
2968.481203616416
 20
877.8245017374021
 10
2961.4938904053947
 20
872.1118585120743
 10
2952.7432941583875
 20
862.9322387215827
 10
2896.3093676350577
 20
808.5247783655186
 10
2891.55078190906
 20
805.5982687269302
 10
2879.9949364063223
 20
800.5165488884088
 10
2871.3854959842884
 20
798.9784439862372
 10
2764.870645619689
 20
795.6017898142184
 10
2756.8768400622525
 20
794.5351140956091
 10
2750.8953726802497
 20
792.9837486195988
 10
2747.1971745273104
 20
790.4329053757801
 10
2743.7162288600525
 20
787.2162055640389
 10
2741.733592578879
 20
784.1685017967712
 10
2740.3729280980274
 20
780.3160946680231
 10
2739.1628596008627
 20
775.2307090600286
 10
2739.158838924587
 20
486.51004872884545
 10
2742.402722695008
 20
477.1078489663565
 10
2745.4219138441563
 20
472.9456583461519
 10
2749.196434262953
 20
469.2455468542781
 10
2752.669461127417
 20
467.16375648784754
 10
2758.030650465254
 20
465.77481660181184
 10
2764.3737456362796
 20
464.92493314345836
 10
2869.6030224381557
 20
464.72786081052027
 10
2884.5477589644065
 20
461.81532979691355
 10
2892.9199803751912
 20
458.81635579024606
 10
2898.0298048194472
 20
455.59661205219436
 10
2904.3345154391736
 20
448.71465910200186
 10
2911.5063868522666
 20
433.9540111145392
 10
2912.7005640721472
 20
428.2944633839196
 10
2913.4726852564836
 20
393.73479892092666
 10
2914.9190629623167
 20
390.84462013486797
 10
2917.9387046193397
 20
387.9538826280501
 10
2921.461926010309
 20
385.4482558696296
 10
2929.9562266865814
 20
381.7207866048752
 10
2937.19268980109
 20
380.17706709981496
 10
2943.1709070491193
 20
379.66122996096465
 10
3109.048568766165
 20
381.3823161753659
 10
3112.785927761353
 20
381.92584134440636
 10
3116.310583835392
 20
383.46574918749263
 10
3121.78681280623
 20
387.0598386151193
 10
3128.396815704152
 20
393.5431938897698
 10
3133.8111379988263
 20
400.026972824185
 10
3138.407796592305
 20
407.73112260514057
 10
3141.3680103937236
 20
414.72948872417845
  0
LWPOLYLINE
  5
41
330
17
100
AcDbEntity
  8
0
100
AcDbPolyline
 90
22
 70
0
 10
3091.4906417302773
 20
845.396139133544
 10
3088.0185050064956
 20
844.8363835897388
 10
3084.8861367027853
 20
843.2087841086187
 10
3082.6662155765
 20
841.031978405093
 10
3080.9481873322175
 20
837.9038270296559
 10
3080.2875149762294
 20
834.8360148076414
 10
3080.561927181874
 20
831.2610172479762
 10
3081.6825547459152
 20
828.3358899476553
 10
3083.8574312962483
 20
825.5182783746762
 10
3086.3820625357366
 20
823.721215046765
 10
3089.7250137594833
 20
822.6113444099166
 10
3092.80318192312
 20
822.5486062967772
 10
3096.1866371822616
 20
823.5211163929399
 10
3098.780170004324
 20
825.2142098104001
 10
3101.0633398973064
 20
827.9404075721313
 10
3102.2978504731127
 20
830.8179656290116
 10
3102.7121009341595
 20
834.3787982974878
 10
3102.172182788486
 20
837.47083308855
 10
3100.577875613674
 20
840.6670048207433
 10
3098.445458930885
 20
842.9320460694373
 10
3095.3790048298088
 20
844.6862108152189
 10
3092.3728323030928
 20
845.3602089851338
  0
LWPOLYLINE
  5
42
330
17
100
AcDbEntity
  8
0
100
AcDbPolyline
 90
22
 70
0
 10
3090.858130611776
 20
453.0131507808339
 10
3087.3859938879946
 20
452.4533952370289
 10
3084.2536255842842
 20
450.82579575590864
 10
3082.0337044579983
 20
448.64899005238294
 10
3080.315676213716
 20
445.52083867694574
 10
3079.6550038577284
 20
442.4530264549312
 10
3079.929416063373
 20
438.8780288952659
 10
3081.0500436274137
 20
435.9529015949452
 10
3083.224920177747
 20
433.13529002196617
 10
3085.7495514172356
 20
431.3382266940548
 10
3089.092502640982
 20
430.22835605720644
 10
3092.170670804619
 20
430.165617944067
 10
3095.55412606376
 20
431.13812804022984
 10
3098.147658885823
 20
432.8312214576899
 10
3100.430828778805
 20
435.55741921942115
 10
3101.665339354611
 20
438.43497727630154
 10
3102.0795898156584
 20
441.9958099447776
 10
3101.539671669985
 20
445.08784473583984
 10
3099.9453644951727
 20
448.2840164680331
 10
3097.8129478123838
 20
450.5490577167273
 10
3094.7464937113073
 20
452.30322246250887
 10
3091.7403211845913
 20
452.9772206324237
  0
LWPOLYLINE
  5
43
330
17
100
AcDbEntity
  8
0
100
AcDbPolyline
 90
69
 70
0
 10
3213.8913861
 20
598.6215523655493
 10
3214.2296339820005
 20
161.14078835154947
 10
3215.1005059560002
 20
156.81868459914955
 10
3216.5519576892
 20
153.01265420874944
 10
3218.5194827844
 20
149.59367738034945
 10
3222.3577681248003
 20
145.62637457514944
 10
3231.6470629536007
 20
140.43340001634948
 10
3238.6328721336004
 20
138.32638058154936
 10
3245.32116399
 20
137.32313779554948
 10
3461.3236179888
 20
135.75233165514945
 10
3481.7897941752
 20
137.11674347874944
 10
3505.541680174728
 20
142.10232487197453
 10
3517.3017721720717
 20
145.47128932979166
 10
3548.2714412478863
 20
155.07533304303996
 10
3564.0928788370793
 20
159.31606968494435
 10
3596.7620702522154
 20
167.5770970038937
 10
3684.5510348667826
 20
192.16883250475632
 10
3752.4387912393386
 20
209.19941963394038
 10
3771.3447174468
 20
213.78571462674952
 10
3775.6363713588
 20
215.68073059434963
 10
3778.5346324476
 20
217.63148194794954
 10
3780.4296484152
 20
219.97238450634953
 10
3783.2164363968
 20
225.32301892554952
 10
3784.6098315552
 20
231.23101070754947
 10
3784.9999815924
 20
235.41119384754953
 10
3784.5340076111997
 20
478.50553486434944
 10
3783.5276671824004
 20
482.1438418499496
 10
3779.6571268919997
 20
489.3817510487495
 10
3775.9801139664
 20
492.94264848954947
 10
3773.3481474095997
 20
494.2586317679494
 10
3765.8780060736
 20
495.8455531235495
 10
3758.8813078559997
 20
496.25025612714956
 10
3752.194146743387
 20
495.3920822566173
 10
3731.1329028568443
 20
490.8487332279207
 10
3705.6334014156
 20
486.13702334154965
 10
3682.211976096645
 20
483.5347051254169
 10
3667.6417582296
 20
482.89132769394956
 10
3661.4617751952
 20
483.69392309034953
 10
3657.6093186936
 20
485.21885422674956
 10
3654.9607547028
 20
486.98456316474955
 10
3653.0345264519997
 20
489.6331271555495
 10
3652.1516713992
 20
492.04091217714955
 10
3651.4899224232
 20
542.8790078099495
 10
3649.7804345928
 20
547.9429649039495
 10
3645.6841131551996
 20
553.5552468071495
 10
3641.4910280352
 20
557.6193144623495
 10
3639.200959278
 20
559.1352760955496
 10
3634.6853293284
 20
560.4899641463494
 10
3529.1515593
 20
560.3765750075494
 10
3480.8879819688
 20
557.3254295423493
 10
3445.6523608679095
 20
557.6236572565932
 10
3430.9601437931997
 20
558.0188706851494
 10
3414.8722854611997
 20
559.9605089207494
 10
3386.6228619875997
 20
564.9950284835494
 10
3347.6167390332
 20
575.3485054775493
 10
3328.9965314412
 20
582.3310827407494
 10
3307.5261480312
 20
593.3529616955494
 10
3287.220411552503
 20
606.1935490471424
 10
3270.4462533276005
 20
615.8898332807493
 10
3258.8888826552
 20
620.6090926703492
 10
3249.16142958
 20
623.0168776919495
 10
3235.9667661204003
 20
624.5578609931493
 10
3232.1143096188007
 20
624.5578609931493
 10
3229.5139009548
 20
623.8836805799494
 10
3227.1061159332003
 20
622.4390090999494
 10
3222.9647251356005
 20
618.9717987155494
 10
3219.4975135836003
 20
614.3488499795494
 10
3216.222925674
 20
608.4738545735494
 10
3214.2815373048006
 20
601.4640769007494
  0
LWPOLYLINE
  5
44
330
17
100
AcDbEntity
  8
0
100
AcDbPolyline
 90
22
 70
0
 10
3260.8509562260006
 20
559.1262015083494
 10
3264.458897985898
 20
559.6973942637
 10
3267.71391426099
 20
561.3561098771469
 10
3270.0202871471183
 20
563.5736938207372
 10
3271.8052599947046
 20
566.7609431129963
 10
3272.490921171431
 20
569.8861178562978
 10
3272.204329890821
 20
573.5279025820857
 10
3271.0381821509777
 20
576.5073239511524
 10
3268.776623043029
 20
579.3761355849927
 10
3266.1517288117775
 20
581.2055569325687
 10
3262.6774847887714
 20
582.3344317111613
 10
3259.478592955574
 20
582.3972268702771
 10
3255.9626954009436
 20
581.4056653832827
 10
3253.2680269273196
 20
579.6806685689339
 10
3250.895546996673
 20
576.902887300973
 10
3249.6133689327125
 20
573.971527265045
 10
3249.1839765709237
 20
570.3438072762696
 10
3249.7464605924797
 20
567.1941311248709
 10
3251.4048860905395
 20
563.9392370176911
 10
3253.6224542343416
 20
561.6328448378486
 10
3256.8097610221444
 20
559.8477443077134
 10
3259.934264773251
 20
559.1624589495428
  0
LWPOLYLINE
  5
45
330
17
100
AcDbEntity
  8
0
100
AcDbPolyline
 90
22
 70
0
 10
3260.9433635928003
 20
169.87166913954965
 10
3264.551305352698
 20
170.4428618949
 10
3267.8063216277897
 20
172.10157750834705
 10
3270.112694513918
 20
174.31916145193722
 10
3271.8976673615043
 20
177.5064107441966
 10
3272.5833285382314
 20
180.6315854874982
 10
3272.2967372576213
 20
184.2733702132858
 10
3271.1305895177775
 20
187.25279158235261
 10
3268.8690304098286
 20
190.12160321619282
 10
3266.2441361785777
 20
191.9510245637691
 10
3262.769892155571
 20
193.07989934236159
 10
3259.571000322374
 20
193.14269450147728
 10
3256.0551027677434
 20
192.15113301448292
 10
3253.36043429412
 20
190.42613620013407
 10
3250.987954363473
 20
187.64835493217328
 10
3249.7057762995123
 20
184.71699489624524
 10
3249.276383937724
 20
181.08927490746981
 10
3249.83886795928
 20
177.93959875607112
 10
3251.4972934573393
 20
174.6847046488911
 10
3253.714861601141
 20
172.3783124690487
 10
3256.902168388944
 20
170.5932119389135
 10
3260.0266721400512
 20
169.90792658074312
  0
LWPOLYLINE
  5
46
330
17
100
AcDbEntity
  8
0
100
AcDbPolyline
 90
76
 70
0
 10
3762.9535891000005
 20
912.6366411678375
 10
3302.645747688401
 20
912.4107374226375
 10
3295.601364686801
 20
911.0173422642374
 10
3286.505596055201
 20
908.4627864198375
 10
3279.5773297060014
 20
905.4824710734374
 10
3274.197279940001
 20
901.8828688602374
 10
3267.1095474532012
 20
894.9716331246374
 10
3263.098316766427
 20
890.2262556200191
 10
3257.9131445452012
 20
881.9851971138374
 10
3253.3985467540015
 20
871.4511367686374
 10
3251.392058846801
 20
863.7038644050374
 10
3250.834701484001
 20
858.8548519626374
 10
3249.5370763804012
 20
764.5716937290374
 10
3250.2337739596014
 20
760.2521715402374
 10
3251.627167950401
 20
756.6293457630375
 10
3257.711656483601
 20
747.2471578458374
 10
3261.102250123601
 20
743.0205275778374
 10
3283.0823047411754
 20
722.2047756099889
 10
3290.418895025201
 20
715.3395419910374
 10
3295.946026195601
 20
706.9327297506375
 10
3300.6511883991207
 20
695.2753683941221
 10
3302.309192826401
 20
690.3048902790373
 10
3303.5168018080008
 20
682.9663468038375
 10
3304.602534366401
 20
666.3953577762375
 10
3307.112874366401
 20
659.8281974142374
 10
3313.197362899601
 20
652.1645287134374
 10
3316.959526558001
 20
650.2137761922374
 10
3318.492260765201
 20
649.9815440550374
 10
3359.9691012136004
 20
649.4021704266374
 10
3363.9202771276005
 20
647.9238393738374
 10
3369.4035415660005
 20
643.7307542538374
 10
3371.8688612452006
 20
640.8256989006375
 10
3373.2622552360003
 20
638.4259644810375
 10
3375.0039980164006
 20
632.2331016510375
 10
3375.1588194412006
 20
626.5047019278375
 10
3374.8491765916006
 20
624.2984948730375
 10
3369.2925051412003
 20
596.9045473998374
 10
3369.1319869960003
 20
586.7918493750374
 10
3369.6938034232003
 20
580.5316066842373
 10
3371.9655934024004
 20
575.1742842522374
 10
3373.7491385980006
 20
573.0563244054374
 10
3379.6013938264005
 20
568.7646704934375
 10
3386.2339514644004
 20
566.2565606094373
 10
3391.1944346788005
 20
565.1975812698373
 10
3668.2827269512004
 20
565.1739548838376
 10
3672.2693827264
 20
565.9867679478376
 10
3678.7718895736007
 20
569.1606106590376
 10
3682.2553751344003
 20
571.3668188814377
 10
3684.2680559920004
 20
573.1859723742376
 10
3686.3581475620003
 20
575.8953496434375
 10
3687.7091214772004
 20
579.4049695950374
 10
3688.3593719284004
 20
583.3529205978376
 10
3688.4522650168005
 20
591.4346076126375
 10
3687.9413536144
 20
596.4972733410376
 10
3684.6956731456003
 20
614.7061506318374
 10
3684.2627924512003
 20
620.3893420506374
 10
3684.7737038536006
 20
629.0283864282376
 10
3686.8637954236005
 20
635.3915542266376
 10
3690.3937269448006
 20
640.7793463482375
 10
3693.2734091824004
 20
643.4267952810375
 10
3700.8906319228004
 20
648.3036748326375
 10
3705.4888322092006
 20
650.1150883050376
 10
3711.3875357332004
 20
651.2298030306375
 10
3770.4158071024003
 20
651.2956463298375
 10
3772.8310238980007
 20
651.9923427414375
 10
3774.6888833308003
 20
653.1535045950376
 10
3777.2434391752004
 20
655.3829363814374
 10
3782.1203187268
 20
662.4892465518375
 10
3784.4890895620006
 20
668.1092708106376
 10
3785.0000009644004
 20
671.3140782738375
 10
3784.6286119240003
 20
899.6703322458376
 10
3783.9319155124003
 20
901.4120761938375
 10
3782.4224048692004
 20
903.5795784762375
 10
3779.0163300208005
 20
906.8308318998376
 10
3773.4427528900005
 20
910.0820853234376
 10
3766.8241293904002
 20
912.1721768934375
  0
LWPOLYLINE
  5
47
330
17
100
AcDbEntity
  8
0
100
AcDbPolyline
 90
22
 70
0
 10
3296.8012920280007
 20
853.5713148450375
 10
3297.3724847833514
 20
849.9633730851398
 10
3299.0312003967983
 20
846.7083568100479
 10
3301.2487843403887
 20
844.4019839239197
 10
3304.4360336326476
 20
842.617011076333
 10
3307.5612083759493
 20
841.9313498996067
 10
3311.2029931017373
 20
842.2179411802168
 10
3314.182414470804
 20
843.3840889200599
 10
3317.0512261046442
 20
845.6456480280092
 10
3318.8806474522207
 20
848.2705422592603
 10
3320.0095222308128
 20
851.7447862822665
 10
3320.0723173899287
 20
854.9436781154637
 10
3319.0807559029345
 20
858.4595756700943
 10
3317.3557590885857
 20
861.1542441437181
 10
3314.5779778206247
 20
863.5267240743648
 10
3311.646617784697
 20
864.8089021383255
 10
3308.0188977959215
 20
865.2382945001139
 10
3304.8692216445224
 20
864.6758104785578
 10
3301.6143275373424
 20
863.0173849804985
 10
3299.3079353575004
 20
860.7998168366964
 10
3297.522834827365
 20
857.6125100488935
 10
3296.8375494691945
 20
854.4880062977868
  0
LWPOLYLINE
  5
48
330
17
100
AcDbEntity
  8
0
100
AcDbPolyline
 90
22
 70
0
 10
3714.2087142052005
 20
854.3288315406376
 10
3714.779906960551
 20
850.72088978074
 10
3716.438622573998
 20
847.4658735056481
 10
3718.656206517588
 20
845.1595006195199
 10
3721.843455809847
 20
843.3745277719332
 10
3724.968630553149
 20
842.6888665952068
 10
3728.6104152789367
 20
842.9754578758169
 10
3731.5898366480037
 20
844.1416056156601
 10
3734.458648281844
 20
846.4031647236093
 10
3736.28806962942
 20
849.0280589548604
 10
3737.4169444080126
 20
852.5023029778667
 10
3737.4797395671285
 20
855.7011948110638
 10
3736.488178080134
 20
859.2170923656944
 10
3734.763181265785
 20
861.9117608393182
 10
3731.985399997824
 20
864.284240769965
 10
3729.0540399618963
 20
865.5664188339257
 10
3725.426319973121
 20
865.9958111957139
 10
3722.276643821722
 20
865.433327174158
 10
3719.0217497145422
 20
863.7749016760987
 10
3716.7153575346997
 20
861.5573335322965
 10
3714.9302570045643
 20
858.3700267444935
 10
3714.244971646394
 20
855.2455229933869
  0
LWPOLYLINE
  5
49
330
17
100
AcDbEntity
  8
0
100
AcDbPolyline
 90
72
 70
0
 10
3731.8086911
 20
1260.7910573127624
 10
3267.6303093980005
 20
1260.5524956159625
 10
3264.5338773992
 20
1259.8170932643625
 10
3258.6119514788
 20
1257.2238314799624
 10
3255.4381099352004
 20
1255.2111506223623
 10
3252.0320339192003
 20
1251.9598971987623
 10
3249.8258268644004
 20
1248.0506521359623
 10
3249.5548887872
 20
1246.6185522051624
 10
3249.4544378240003
 20
1019.6943969963622
 10
3250.6620468056003
 20
1014.2601600819622
 10
3252.3341200616005
 20
1010.8695664419622
 10
3257.2109996132003
 20
1003.7632551039621
 10
3261.6234148904005
 20
1000.3726626315622
 10
3264.0386328536006
 20
999.675965052362
 10
3323.0669042228
 20
999.6101229207623
 10
3328.9656065792005
 20
998.4954070275621
 10
3333.5638080332
 20
996.6839947227622
 10
3341.181029606
 20
991.8071151711622
 10
3344.0607118436
 20
989.1596650707622
 10
3347.5906445324
 20
983.7718741167622
 10
3348.751806386
 20
981.0779780559621
 10
3349.6807349348
 20
977.4087063183621
 10
3350.1916463372
 20
968.7696619407623
 10
3349.7587656428
 20
963.0864705219622
 10
3346.0021749392
 20
939.8149275027621
 10
3346.09506686
 20
931.7332404879622
 10
3346.7453184788
 20
927.7852894851621
 10
3348.0962912264
 20
924.2756695335621
 10
3352.199063654
 20
919.7471387715623
 10
3358.6628645612
 20
915.7991877687623
 10
3362.185056062
 20
914.3670878379622
 10
3366.1717118372
 20
913.5542747739623
 10
3643.2600041096002
 20
913.5778999923624
 10
3651.7318411616
 20
915.8073317787623
 10
3654.8530449620002
 20
917.1449903835623
 10
3657.8627768228
 20
919.0400063511622
 10
3662.4888453860003
 20
923.5546041423622
 10
3664.7606353652
 20
928.9119265743624
 10
3665.32245296
 20
935.1721680975623
 10
3664.60011722
 20
949.8596595315622
 10
3659.2956193472
 20
974.8850218179622
 10
3659.450440772
 20
980.6134203735622
 10
3661.1921835524
 20
986.8062843711623
 10
3664.0950893540003
 20
991.0638782235623
 10
3667.980681176
 20
994.5839190051623
 10
3672.8457341072
 20
997.3255512243624
 10
3676.5228766364
 20
998.0905428951622
 10
3717.4949122304
 20
998.5940960823624
 10
3721.2570770564
 20
1000.5448486035623
 10
3723.1149353216
 20
1002.3562609083623
 10
3727.3415655896
 20
1008.2085173043623
 10
3729.851904422
 20
1014.7756776663623
 10
3730.9376369804
 20
1031.3466666939623
 10
3733.0368134490677
 20
1041.4009177607525
 10
3736.3718750624002
 20
1050.3432758331624
 10
3740.087593928
 20
1058.4714099759624
 10
3746.1720824612003
 20
1065.9957384603624
 10
3766.4316646712
 20
1084.6661084835625
 10
3773.3521898324
 20
1091.4008474679624
 10
3776.7427823048
 20
1095.6274765683625
 10
3782.827270838
 20
1105.0096656531625
 10
3784.2206648288
 20
1108.6324914303625
 10
3784.917362408
 20
1112.9520136191625
 10
3785.0000004656
 20
1120.7102100483623
 10
3783.0623799416
 20
1212.0841831275625
 10
3781.0558920344
 20
1219.8314566587624
 10
3776.5412942432
 20
1230.3655170039624
 10
3770.243152424
 20
1240.2307492143625
 10
3760.2571588484
 20
1250.2631887503624
 10
3754.8771090824002
 20
1253.8627909635625
 10
3747.9488427332
 20
1256.8431063099624
 10
3738.8530741016
 20
1259.3976621543625
  0
LWPOLYLINE
  5
4A
330
17
100
AcDbEntity
  8
0
100
AcDbPolyline
 90
22
 70
0
 10
3296.2108315388004
 20
1204.6298335815625
 10
3296.7820242941507
 20
1201.021891821665
 10
3298.440739907598
 20
1197.766875546573
 10
3300.658323851188
 20
1195.4605026604447
 10
3303.845573143447
 20
1193.675529812858
 10
3306.9707478867485
 20
1192.9898686361316
 10
3310.6125326125366
 20
1193.2764599167417
 10
3313.591953981603
 20
1194.4426076565849
 10
3316.460765615444
 20
1196.7041667645342
 10
3318.2901869630196
 20
1199.3290609957853
 10
3319.4190617416125
 20
1202.8033050187914
 10
3319.4818569007275
 20
1206.0021968519886
 10
3318.4902954137337
 20
1209.5180944066192
 10
3316.7652985993846
 20
1212.212762880243
 10
3313.987517331424
 20
1214.58524281089
 10
3311.0561572954957
 20
1215.8674208748505
 10
3307.4284373067203
 20
1216.2968132366389
 10
3304.278761155322
 20
1215.7343292150829
 10
3301.023867048142
 20
1214.0759037170235
 10
3298.717474868299
 20
1211.8583355732214
 10
3296.932374338164
 20
1208.6710287854185
 10
3296.2470889799943
 20
1205.5465250343118
  0
LWPOLYLINE
  5
4B
330
17
100
AcDbEntity
  8
0
100
AcDbPolyline
 90
22
 70
0
 10
3713.6586281564
 20
1203.9941477727623
 10
3714.2298209117507
 20
1200.386206012865
 10
3715.8885365251977
 20
1197.131189737773
 10
3718.1061204687876
 20
1194.8248168516448
 10
3721.293369761047
 20
1193.039844004058
 10
3724.4185445043486
 20
1192.3541828273317
 10
3728.0603292301366
 20
1192.6407741079418
 10
3731.039750599203
 20
1193.806921847785
 10
3733.9085622330435
 20
1196.0684809557342
 10
3735.7379835806196
 20
1198.6933751869853
 10
3736.866858359212
 20
1202.1676192099915
 10
3736.9296535183275
 20
1205.3665110431887
 10
3735.9380920313333
 20
1208.8824085978192
 10
3734.2130952169846
 20
1211.577077071443
 10
3731.435313949024
 20
1213.94955700209
 10
3728.5039539130958
 20
1215.2317350660505
 10
3724.8762339243203
 20
1215.661127427839
 10
3721.7265577729218
 20
1215.0986434062827
 10
3718.4716636657417
 20
1213.4402179082235
 10
3716.165271485899
 20
1211.2226497644215
 10
3714.3801709557642
 20
1208.0353429766185
 10
3713.694885597594
 20
1204.9108392255118
  0
LWPOLYLINE
  5
4C
330
17
100
AcDbEntity
  8
0
100
AcDbPolyline
 90
62
 70
0
 10
3758.0681341
 20
1998.7963541000004
 10
3310.7279093224006
 20
1998.9999741992003
 10
3300.5999974696006
 20
1996.5808868096003
 10
3296.406912349601
 20
1994.0005270052002
 10
3293.7942975952005
 20
1991.3234035184003
 10
3290.4839542708005
 20
1984.4888043764004
 10
3290.0380676800005
 20
1981.4233371296002
 10
3298.2194049953896
 20
1789.647013306347
 10
3300.8963521486285
 20
1766.3565354230248
 10
3302.9748738057265
 20
1750.224929276453
 10
3307.641701537358
 20
1718.8516580980645
 10
3310.352595978401
 20
1691.6576585552002
 10
3312.320472211033
 20
1662.242393502075
 10
3312.9303399455252
 20
1643.485160266222
 10
3314.125091414574
 20
1593.5546480761275
 10
3314.929314760001
 20
1575.7141227044003
 10
3314.6211173992006
 20
1565.5166697632003
 10
3312.969075277282
 20
1549.7731262015648
 10
3297.9583306795175
 20
1456.3602376683127
 10
3290.29535237262
 20
1414.0846899663404
 10
3274.971946993989
 20
1321.1940813873616
 10
3270.470423911601
 20
1295.6174086184008
 10
3270.483176438801
 20
1287.3908084324007
 10
3271.0962691876007
 20
1282.0959105668007
 10
3273.1584924808003
 20
1275.4076175427997
 10
3277.1157329092007
 20
1270.5586051003997
 10
3286.7990495368003
 20
1265.7090765788007
 10
3288.831083364401
 20
1265.6445678463997
 10
3581.5452695260005
 20
1261.7138552899996
 10
3586.5382657300006
 20
1262.2170255044007
 10
3597.3370712020005
 20
1265.1586360783997
 10
3601.6720757668004
 20
1267.6357812103997
 10
3607.2069481252006
 20
1271.8159643504007
 10
3619.7464217824245
 20
1285.3603257738237
 10
3689.0163515969307
 20
1366.972767558644
 10
3710.1102531802103
 20
1391.6726929741076
 10
3721.4775863944005
 20
1404.5303963600004
 10
3727.6575682612
 20
1415.1246523232003
 10
3730.4666515648005
 20
1423.3913817536004
 10
3730.9482083356006
 20
1427.7253961936003
 10
3731.3635144841214
 20
1515.6795704362269
 10
3732.759916228492
 20
1570.6069585404632
 10
3734.2215025444
 20
1596.9260718656003
 10
3735.0258948772007
 20
1606.3892456864003
 10
3736.7595006532006
 20
1617.5613702416003
 10
3739.8414660880003
 20
1630.3707887516002
 10
3744.0686990822883
 20
1643.708706457179
 10
3754.226299893065
 20
1667.8089389760191
 10
3772.0094789272002
 20
1707.9977908784003
 10
3775.5730011328005
 20
1718.6883574952003
 10
3780.8701291144007
 20
1739.1063783548002
 10
3783.313637785613
 20
1754.8033535623629
 10
3784.461140406278
 20
1769.4875325759378
 10
3785.0000001890844
 20
1782.327166119462
 10
3783.9411273396536
 20
1888.3701682076319
 10
3782.0684428324
 20
1979.0103632936004
 10
3781.6626866536003
 20
1981.4689797812005
 10
3779.3217840951997
 20
1987.4327069492003
 10
3776.6464668856
 20
1991.2227400520003
 10
3773.135113048
 20
1994.4554146244002
 10
3769.1221384012
 20
1997.1307318340002
 10
3763.256950695264
 20
1998.3886629542153
  0
LWPOLYLINE
  5
4D
330
17
100
AcDbEntity
  8
0
100
AcDbPolyline
 90
22
 70
0
 10
3725.0187817528
 20
1951.0671919592003
 10
3725.5899745081506
 20
1947.4592501993027
 10
3727.2486901215975
 20
1944.204233924211
 10
3729.4662740651875
 20
1941.8978610380827
 10
3732.653523357447
 20
1940.1128881904958
 10
3735.7786981007484
 20
1939.4272270137697
 10
3739.4204828265365
 20
1939.7138182943797
 10
3742.399904195603
 20
1940.8799660342227
 10
3745.2687158294434
 20
1943.1415251421722
 10
3747.0981371770195
 20
1945.7664193734233
 10
3748.227011955612
 20
1949.2406633964295
 10
3748.289807114728
 20
1952.4395552296266
 10
3747.298245627733
 20
1955.9554527842572
 10
3745.5732488133845
 20
1958.650121257881
 10
3742.795467545424
 20
1961.0226011885277
 10
3739.8641075094956
 20
1962.3047792524885
 10
3736.23638752072
 20
1962.7341716142766
 10
3733.0867113693216
 20
1962.1716875927207
 10
3729.8318172621416
 20
1960.5132620946615
 10
3727.525425082299
 20
1958.2956939508592
 10
3725.740324552164
 20
1955.1083871630565
 10
3725.0550391939937
 20
1951.9838834119496
  0
LWPOLYLINE
  5
4E
330
17
100
AcDbEntity
  8
0
100
AcDbPolyline
 90
22
 70
0
 10
3337.4590429684
 20
1952.7460513064004
 10
3338.0302357237506
 20
1949.1381095465028
 10
3339.6889513371975
 20
1945.8830932714109
 10
3341.9065352807875
 20
1943.5767203852827
 10
3345.093784573047
 20
1941.791747537696
 10
3348.2189593163484
 20
1941.1060863609696
 10
3351.8607440421365
 20
1941.3926776415797
 10
3354.840165411203
 20
1942.5588253814228
 10
3357.7089770450434
 20
1944.8203844893721
 10
3359.5383983926195
 20
1947.445278720623
 10
3360.667273171212
 20
1950.9195227436294
 10
3360.730068330328
 20
1954.1184145768266
 10
3359.738506843333
 20
1957.6343121314571
 10
3358.0135100289845
 20
1960.328980605081
 10
3355.235728761024
 20
1962.7014605357276
 10
3352.3043687250956
 20
1963.9836385996884
 10
3348.67664873632
 20
1964.4130309614766
 10
3345.5269725849216
 20
1963.8505469399206
 10
3342.2720784777416
 20
1962.1921214418614
 10
3339.965686297899
 20
1959.9745532980594
 10
3338.180585767764
 20
1956.7872465102564
 10
3337.4953004095937
 20
1953.6627427591495
  0
ENDSEC
  0
SECTION
  2
OBJECTS
  0
DICTIONARY
  5
A
330
0
100
AcDbDictionary
281
1
  3
ACAD_COLOR
350
B
  3
ACAD_GROUP
350
C
  3
ACAD_LAYOUT
350
D
  3
ACAD_MATERIAL
350
E
  3
ACAD_MLEADERSTYLE
350
F
  3
ACAD_MLINESTYLE
350
10
  3
ACAD_PLOTSETTINGS
350
11
  3
ACAD_PLOTSTYLENAME
350
12
  3
ACAD_SCALELIST
350
14
  3
ACAD_TABLESTYLE
350
15
  3
ACAD_VISUALSTYLE
350
16
  3
EZDXF_META
350
2D
  0
DICTIONARY
  5
B
330
A
100
AcDbDictionary
281
1
  0
DICTIONARY
  5
C
330
A
100
AcDbDictionary
281
1
  0
DICTIONARY
  5
D
330
A
100
AcDbDictionary
281
1
  3
Model
350
1A
  3
Layout1
350
1E
  0
DICTIONARY
  5
E
330
A
100
AcDbDictionary
281
1
  3
ByBlock
350
1F
  3
ByLayer
350
20
  3
Global
350
21
  0
DICTIONARY
  5
F
330
A
100
AcDbDictionary
281
1
  3
Standard
350
2C
  0
DICTIONARY
  5
10
330
A
100
AcDbDictionary
281
1
  3
Standard
350
22
  0
DICTIONARY
  5
11
330
A
100
AcDbDictionary
281
1
  0
ACDBDICTIONARYWDFLT
  5
12
330
A
100
AcDbDictionary
281
1
  3
Normal
350
13
100
AcDbDictionaryWithDefault
340
13
  0
ACDBPLACEHOLDER
  5
13
330
12
  0
DICTIONARY
  5
14
330
A
100
AcDbDictionary
281
1
  0
DICTIONARY
  5
15
330
A
100
AcDbDictionary
281
1
  0
DICTIONARY
  5
16
330
A
100
AcDbDictionary
281
1
  0
LAYOUT
  5
1A
330
D
100
AcDbPlotSettings
  1

  4
A3
  6

 40
7.5
 41
20.0
 42
7.5
 43
20.0
 44
420.0
 45
297.0
 46
0.0
 47
0.0
 48
0.0
 49
0.0
140
0.0
141
0.0
142
1.0
143
1.0
 70
1024
 72
1
 73
0
 74
5
  7

 75
16
 76
0
 77
2
 78
300
147
1.0
148
0.0
149
0.0
100
AcDbLayout
  1
Model
 70
1
 71
0
 10
0.0
 20
0.0
 11
420.0
 21
297.0
 12
0.0
 22
0.0
 32
0.0
 14
1e+20
 24
1e+20
 34
1e+20
 15
-1e+20
 25
-1e+20
 35
-1e+20
146
0.0
 13
0.0
 23
0.0
 33
0.0
 16
1.0
 26
0.0
 36
0.0
 17
0.0
 27
1.0
 37
0.0
 76
1
330
17
  0
LAYOUT
  5
1E
330
D
100
AcDbPlotSettings
  1

  4
A3
  6

 40
7.5
 41
20.0
 42
7.5
 43
20.0
 44
420.0
 45
297.0
 46
0.0
 47
0.0
 48
0.0
 49
0.0
140
0.0
141
0.0
142
1.0
143
1.0
 70
0
 72
1
 73
0
 74
5
  7

 75
16
 76
0
 77
2
 78
300
147
1.0
148
0.0
149
0.0
100
AcDbLayout
  1
Layout1
 70
1
 71
1
 10
0.0
 20
0.0
 11
420.0
 21
297.0
 12
0.0
 22
0.0
 32
0.0
 14
1e+20
 24
1e+20
 34
1e+20
 15
-1e+20
 25
-1e+20
 35
-1e+20
146
0.0
 13
0.0
 23
0.0
 33
0.0
 16
1.0
 26
0.0
 36
0.0
 17
0.0
 27
1.0
 37
0.0
 76
1
330
1B
  0
MATERIAL
  5
1F
102
{ACAD_REACTORS
330
E
102
}
330
E
100
AcDbMaterial
  1
ByBlock
  2

 70
0
 40
1.0
 71
1
 41
1.0
 91
-1023410177
 42
1.0
 72
1
  3

 73
1
 74
1
 75
1
 44
0.5
 73
0
 45
1.0
 46
1.0
 77
1
  4

 78
1
 79
1
170
1
 48
1.0
171
1
  6

172
1
173
1
174
1
140
1.0
141
1.0
175
1
  7

176
1
177
1
178
1
143
1.0
179
1
  8

270
1
271
1
272
1
145
1.0
146
1.0
273
1
  9

274
1
275
1
276
1
 42
1.0
 72
1
  3

 73
1
 74
1
 75
1
 94
63
  0
MATERIAL
  5
20
102
{ACAD_REACTORS
330
E
102
}
330
E
100
AcDbMaterial
  1
ByLayer
  2

 70
0
 40
1.0
 71
1
 41
1.0
 91
-1023410177
 42
1.0
 72
1
  3

 73
1
 74
1
 75
1
 44
0.5
 73
0
 45
1.0
 46
1.0
 77
1
  4

 78
1
 79
1
170
1
 48
1.0
171
1
  6

172
1
173
1
174
1
140
1.0
141
1.0
175
1
  7

176
1
177
1
178
1
143
1.0
179
1
  8

270
1
271
1
272
1
145
1.0
146
1.0
273
1
  9

274
1
275
1
276
1
 42
1.0
 72
1
  3

 73
1
 74
1
 75
1
 94
63
  0
MATERIAL
  5
21
102
{ACAD_REACTORS
330
E
102
}
330
E
100
AcDbMaterial
  1
Global
  2

 70
0
 40
1.0
 71
1
 41
1.0
 91
-1023410177
 42
1.0
 72
1
  3

 73
1
 74
1
 75
1
 44
0.5
 73
0
 45
1.0
 46
1.0
 77
1
  4

 78
1
 79
1
170
1
 48
1.0
171
1
  6

172
1
173
1
174
1
140
1.0
141
1.0
175
1
  7

176
1
177
1
178
1
143
1.0
179
1
  8

270
1
271
1
272
1
145
1.0
146
1.0
273
1
  9

274
1
275
1
276
1
 42
1.0
 72
1
  3

 73
1
 74
1
 75
1
 94
63
  0
MLINESTYLE
  5
22
102
{ACAD_REACTORS
330
10
102
}
330
10
100
AcDbMlineStyle
  2
Standard
 70
0
  3

 62
256
 51
90.0
 52
90.0
 71
2
 49
0.5
 62
256
  6
BYLAYER
 49
-0.5
 62
256
  6
BYLAYER
  0
MLEADERSTYLE
  5
2C
102
{ACAD_REACTORS
330
F
102
}
330
F
100
AcDbMLeaderStyle
179
2
170
2
171
1
172
0
 90
2
 40
0.0
 41
0.0
173
1
 91
-1056964608
 92
-2
290
1
 42
2.0
291
1
 43
8.0
  3
Standard
 44
4.0
300

342
29
174
1
175
1
176
0
178
1
 93
-1056964608
 45
4.0
292
0
297
0
 46
4.0
 94
-1056964608
 47
1.0
 49
1.0
140
1.0
294
1
141
0.0
177
0
142
1.0
295
0
296
0
143
3.75
271
0
272
9
273
9
  0
DICTIONARY
  5
2D
330
A
100
AcDbDictionary
280
1
281
1
  3
CREATED_BY_EZDXF
350
2E
  3
WRITTEN_BY_EZDXF
350
51
  0
DICTIONARYVAR
  5
2E
330
2D
100
DictionaryVariables
280
0
  1
1.4.2 @ 2025-10-23T11:12:36.953068+00:00
  0
DICTIONARYVAR
  5
51
330
2D
100
DictionaryVariables
280
0
  1
1.4.2 @ 2025-10-23T11:12:37.577974+00:00
  0
ENDSEC
  0
EOF
