  0
SECTION
  2
HEADER
  9
$ACADVER
  1
AC1027
  9
$ACADMAINTVER
 70
105
  9
$DWGCODEPAGE
  3
ANSI_1252
  9
$LASTSAVEDBY
  1
ezdxf
  9
$REQUIREDVERSIONS
160
0
  9
$INSBASE
 10
0.0
 20
0.0
 30
0.0
  9
$EXTMIN
 10
1e+20
 20
1e+20
 30
1e+20
  9
$EXTMAX
 10
-1e+20
 20
-1e+20
 30
-1e+20
  9
$LIMMIN
 10
0.0
 20
0.0
  9
$LIMMAX
 10
420.0
 20
297.0
  9
$ORTHOMODE
 70
0
  9
$REGENMODE
 70
1
  9
$FILLMODE
 70
1
  9
$QTEXTMODE
 70
0
  9
$MIRRTEXT
 70
1
  9
$LTSCALE
 40
1.0
  9
$ATTMODE
 70
1
  9
$TEXTSIZE
 40
2.5
  9
$TRACEWID
 40
1.0
  9
$TEXTSTYLE
  7
Standard
  9
$CLAYER
  8
0
  9
$CELTYPE
  6
ByLayer
  9
$CECOLOR
 62
256
  9
$CELTSCALE
 40
1.0
  9
$DISPSILH
 70
0
  9
$DIMSCALE
 40
1.0
  9
$DIMASZ
 40
2.5
  9
$DIMEXO
 40
0.625
  9
$DIMDLI
 40
3.75
  9
$DIMRND
 40
0.0
  9
$DIMDLE
 40
0.0
  9
$DIMEXE
 40
1.25
  9
$DIMTP
 40
0.0
  9
$DIMTM
 40
0.0
  9
$DIMTXT
 40
2.5
  9
$DIMCEN
 40
2.5
  9
$DIMTSZ
 40
0.0
  9
$DIMTOL
 70
0
  9
$DIMLIM
 70
0
  9
$DIMTIH
 70
0
  9
$DIMTOH
 70
0
  9
$DIMSE1
 70
0
  9
$DIMSE2
 70
0
  9
$DIMTAD
 70
1
  9
$DIMZIN
 70
8
  9
$DIMBLK
  1

  9
$DIMASO
 70
1
  9
$DIMSHO
 70
1
  9
$DIMPOST
  1

  9
$DIMAPOST
  1

  9
$DIMALT
 70
0
  9
$DIMALTD
 70
3
  9
$DIMALTF
 40
0.03937007874
  9
$DIMLFAC
 40
1.0
  9
$DIMTOFL
 70
1
  9
$DIMTVP
 40
0.0
  9
$DIMTIX
 70
0
  9
$DIMSOXD
 70
0
  9
$DIMSAH
 70
0
  9
$DIMBLK1
  1

  9
$DIMBLK2
  1

  9
$DIMSTYLE
  2
ISO-25
  9
$DIMCLRD
 70
0
  9
$DIMCLRE
 70
0
  9
$DIMCLRT
 70
0
  9
$DIMTFAC
 40
1.0
  9
$DIMGAP
 40
0.625
  9
$DIMJUST
 70
0
  9
$DIMSD1
 70
0
  9
$DIMSD2
 70
0
  9
$DIMTOLJ
 70
0
  9
$DIMTZIN
 70
8
  9
$DIMALTZ
 70
0
  9
$DIMALTTZ
 70
0
  9
$DIMUPT
 70
0
  9
$DIMDEC
 70
2
  9
$DIMTDEC
 70
2
  9
$DIMALTU
 70
2
  9
$DIMALTTD
 70
3
  9
$DIMTXSTY
  7
Standard
  9
$DIMAUNIT
 70
0
  9
$DIMADEC
 70
0
  9
$DIMALTRND
 40
0.0
  9
$DIMAZIN
 70
0
  9
$DIMDSEP
 70
44
  9
$DIMATFIT
 70
3
  9
$DIMFRAC
 70
0
  9
$DIMLDRBLK
  1

  9
$DIMLUNIT
 70
2
  9
$DIMLWD
 70
-2
  9
$DIMLWE
 70
-2
  9
$DIMTMOVE
 70
0
  9
$DIMFXL
 40
1.0
  9
$DIMFXLON
 70
0
  9
$DIMJOGANG
 40
0.785398163397
  9
$DIMTFILL
 70
0
  9
$DIMTFILLCLR
 70
0
  9
$DIMARCSYM
 70
0
  9
$DIMLTYPE
  6

  9
$DIMLTEX1
  6

  9
$DIMLTEX2
  6

  9
$DIMTXTDIRECTION
 70
0
  9
$LUNITS
 70
2
  9
$LUPREC
 70
4
  9
$SKETCHINC
 40
1.0
  9
$FILLETRAD
 40
10.0
  9
$AUNITS
 70
0
  9
$AUPREC
 70
2
  9
$MENU
  1
.
  9
$ELEVATION
 40
0.0
  9
$PELEVATION
 40
0.0
  9
$THICKNESS
 40
0.0
  9
$LIMCHECK
 70
0
  9
$CHAMFERA
 40
0.0
  9
$CHAMFERB
 40
0.0
  9
$CHAMFERC
 40
0.0
  9
$CHAMFERD
 40
0.0
  9
$SKPOLY
 70
0
  9
$TDCREATE
 40
2460972.685625
  9
$TDUCREATE
 40
2458532.153996898
  9
$TDUPDATE
 40
2460972.685625
  9
$TDUUPDATE
 40
2458532.1544311
  9
$TDINDWG
 40
0.0
  9
$TDUSRTIMER
 40
0.0
  9
$USRTIMER
 70
1
  9
$ANGBASE
 50
0.0
  9
$ANGDIR
 70
0
  9
$PDMODE
 70
0
  9
$PDSIZE
 40
0.0
  9
$PLINEWID
 40
0.0
  9
$SPLFRAME
 70
0
  9
$SPLINETYPE
 70
6
  9
$SPLINESEGS
 70
8
  9
$HANDSEED
  5
6B
  9
$SURFTAB1
 70
6
  9
$SURFTAB2
 70
6
  9
$SURFTYPE
 70
6
  9
$SURFU
 70
6
  9
$SURFV
 70
6
  9
$UCSBASE
  2

  9
$UCSNAME
  2

  9
$UCSORG
 10
0.0
 20
0.0
 30
0.0
  9
$UCSXDIR
 10
1.0
 20
0.0
 30
0.0
  9
$UCSYDIR
 10
0.0
 20
1.0
 30
0.0
  9
$UCSORTHOREF
  2

  9
$UCSORTHOVIEW
 70
0
  9
$UCSORGTOP
 10
0.0
 20
0.0
 30
0.0
  9
$UCSORGBOTTOM
 10
0.0
 20
0.0
 30
0.0
  9
$UCSORGLEFT
 10
0.0
 20
0.0
 30
0.0
  9
$UCSORGRIGHT
 10
0.0
 20
0.0
 30
0.0
  9
$UCSORGFRONT
 10
0.0
 20
0.0
 30
0.0
  9
$UCSORGBACK
 10
0.0
 20
0.0
 30
0.0
  9
$PUCSBASE
  2

  9
$PUCSNAME
  2

  9
$PUCSORG
 10
0.0
 20
0.0
 30
0.0
  9
$PUCSXDIR
 10
1.0
 20
0.0
 30
0.0
  9
$PUCSYDIR
 10
0.0
 20
1.0
 30
0.0
  9
$PUCSORTHOREF
  2

  9
$PUCSORTHOVIEW
 70
0
  9
$PUCSORGTOP
 10
0.0
 20
0.0
 30
0.0
  9
$PUCSORGBOTTOM
 10
0.0
 20
0.0
 30
0.0
  9
$PUCSORGLEFT
 10
0.0
 20
0.0
 30
0.0
  9
$PUCSORGRIGHT
 10
0.0
 20
0.0
 30
0.0
  9
$PUCSORGFRONT
 10
0.0
 20
0.0
 30
0.0
  9
$PUCSORGBACK
 10
0.0
 20
0.0
 30
0.0
  9
$USERI1
 70
0
  9
$USERI2
 70
0
  9
$USERI3
 70
0
  9
$USERI4
 70
0
  9
$USERI5
 70
0
  9
$USERR1
 40
0.0
  9
$USERR2
 40
0.0
  9
$USERR3
 40
0.0
  9
$USERR4
 40
0.0
  9
$USERR5
 40
0.0
  9
$WORLDVIEW
 70
1
  9
$SHADEDGE
 70
3
  9
$SHADEDIF
 70
70
  9
$TILEMODE
 70
1
  9
$MAXACTVP
 70
64
  9
$PINSBASE
 10
0.0
 20
0.0
 30
0.0
  9
$PLIMCHECK
 70
0
  9
$PEXTMIN
 10
1e+20
 20
1e+20
 30
1e+20
  9
$PEXTMAX
 10
-1e+20
 20
-1e+20
 30
-1e+20
  9
$PLIMMIN
 10
0.0
 20
0.0
  9
$PLIMMAX
 10
420.0
 20
297.0
  9
$UNITMODE
 70
0
  9
$VISRETAIN
 70
1
  9
$PLINEGEN
 70
0
  9
$PSLTSCALE
 70
1
  9
$TREEDEPTH
 70
3020
  9
$CMLSTYLE
  2
Standard
  9
$CMLJUST
 70
0
  9
$CMLSCALE
 40
20.0
  9
$PROXYGRAPHICS
 70
1
  9
$MEASUREMENT
 70
1
  9
$CELWEIGHT
370
-1
  9
$ENDCAPS
280
0
  9
$JOINSTYLE
280
0
  9
$LWDISPLAY
290
0
  9
$INSUNITS
 70
6
  9
$HYPERLINKBASE
  1

  9
$STYLESHEET
  1

  9
$XEDIT
290
1
  9
$CEPSNTYPE
380
0
  9
$PSTYLEMODE
290
1
  9
$FINGERPRINTGUID
  2
{70F5C720-1100-4E25-9016-A858FD7B92F8}
  9
$VERSIONGUID
  2
{AC02E31A-B523-4627-B5AB-C6E2A1D7A777}
  9
$EXTNAMES
290
1
  9
$PSVPSCALE
 40
0.0
  9
$OLESTARTUP
290
0
  9
$SORTENTS
280
127
  9
$INDEXCTL
280
0
  9
$HIDETEXT
280
1
  9
$XCLIPFRAME
280
1
  9
$HALOGAP
280
0
  9
$OBSCOLOR
 70
257
  9
$OBSLTYPE
280
0
  9
$INTERSECTIONDISPLAY
280
0
  9
$INTERSECTIONCOLOR
 70
257
  9
$DIMASSOC
280
2
  9
$PROJECTNAME
  1

  9
$CAMERADISPLAY
290
0
  9
$LENSLENGTH
 40
50.0
  9
$CAMERAHEIGHT
 40
0.0
  9
$STEPSPERSEC
 40
24.0
  9
$STEPSIZE
 40
100.0
  9
$3DDWFPREC
 40
2.0
  9
$PSOLWIDTH
 40
0.005
  9
$PSOLHEIGHT
 40
0.08
  9
$LOFTANG1
 40
1.570796326795
  9
$LOFTANG2
 40
1.570796326795
  9
$LOFTMAG1
 40
0.0
  9
$LOFTMAG2
 40
0.0
  9
$LOFTPARAM
 70
7
  9
$LOFTNORMALS
280
1
  9
$LATITUDE
 40
37.795
  9
$LONGITUDE
 40
-122.394
  9
$NORTHDIRECTION
 40
0.0
  9
$TIMEZONE
 70
-8000
  9
$LIGHTGLYPHDISPLAY
280
1
  9
$TILEMODELIGHTSYNCH
280
1
  9
$CMATERIAL
347
20
  9
$SOLIDHIST
280
0
  9
$SHOWHIST
280
1
  9
$DWFFRAME
280
2
  9
$DGNFRAME
280
2
  9
$REALWORLDSCALE
290
1
  9
$INTERFERECOLOR
 62
256
  9
$CSHADOW
280
0
  9
$SHADOWPLANELOCATION
 40
0.0
  0
ENDSEC
  0
SECTION
  2
CLASSES
  0
CLASS
  1
ACDBDICTIONARYWDFLT
  2
AcDbDictionaryWithDefault
  3
ObjectDBX Classes
 90
0
 91
0
280
0
281
0
  0
CLASS
  1
SUN
  2
AcDbSun
  3
SCENEOE
 90
1153
 91
0
280
0
281
0
  0
CLASS
  1
VISUALSTYLE
  2
AcDbVisualStyle
  3
ObjectDBX Classes
 90
4095
 91
0
280
0
281
0
  0
CLASS
  1
MATERIAL
  2
AcDbMaterial
  3
ObjectDBX Classes
 90
1153
 91
0
280
0
281
0
  0
CLASS
  1
SCALE
  2
AcDbScale
  3
ObjectDBX Classes
 90
1153
 91
0
280
0
281
0
  0
CLASS
  1
TABLESTYLE
  2
AcDbTableStyle
  3
ObjectDBX Classes
 90
4095
 91
0
280
0
281
0
  0
CLASS
  1
MLEADERSTYLE
  2
AcDbMLeaderStyle
  3
ACDB_MLEADERSTYLE_CLASS
 90
4095
 91
0
280
0
281
0
  0
CLASS
  1
DICTIONARYVAR
  2
AcDbDictionaryVar
  3
ObjectDBX Classes
 90
0
 91
0
280
0
281
0
  0
CLASS
  1
CELLSTYLEMAP
  2
AcDbCellStyleMap
  3
ObjectDBX Classes
 90
1152
 91
0
280
0
281
0
  0
CLASS
  1
MENTALRAYRENDERSETTINGS
  2
AcDbMentalRayRenderSettings
  3
SCENEOE
 90
1024
 91
0
280
0
281
0
  0
CLASS
  1
ACDBDETAILVIEWSTYLE
  2
AcDbDetailViewStyle
  3
ObjectDBX Classes
 90
1025
 91
0
280
0
281
0
  0
CLASS
  1
ACDBSECTIONVIEWSTYLE
  2
AcDbSectionViewStyle
  3
ObjectDBX Classes
 90
1025
 91
0
280
0
281
0
  0
CLASS
  1
RASTERVARIABLES
  2
AcDbRasterVariables
  3
ISM
 90
0
 91
0
280
0
281
0
  0
CLASS
  1
ACDBPLACEHOLDER
  2
AcDbPlaceHolder
  3
ObjectDBX Classes
 90
0
 91
0
280
0
281
0
  0
CLASS
  1
LAYOUT
  2
AcDbLayout
  3
ObjectDBX Classes
 90
0
 91
0
280
0
281
0
  0
ENDSEC
  0
SECTION
  2
TABLES
  0
TABLE
  2
VPORT
  5
8
330
0
100
AcDbSymbolTable
 70
1
  0
VPORT
  5
23
330
8
100
AcDbSymbolTableRecord
100
AcDbViewportTableRecord
  2
*Active
 70
0
 10
0.0
 20
0.0
 11
1.0
 21
1.0
 12
0.0
 22
0.0
 13
0.0
 23
0.0
 14
0.5
 24
0.5
 15
0.5
 25
0.5
 16
0.0
 26
0.0
 36
1.0
 17
0.0
 27
0.0
 37
0.0
 40
1000.0
 41
1.34
 42
50.0
 43
0.0
 44
0.0
 50
0.0
 51
0.0
 71
0
 72
1000
 73
1
 74
3
 75
0
 76
0
 77
0
 78
0
281
0
 65
0
146
0.0
  0
ENDTAB
  0
TABLE
  2
LTYPE
  5
2
330
0
100
AcDbSymbolTable
 70
3
  0
LTYPE
  5
24
330
2
100
AcDbSymbolTableRecord
100
AcDbLinetypeTableRecord
  2
ByBlock
 70
0
  3

 72
65
 73
0
 40
0.0
  0
LTYPE
  5
25
330
2
100
AcDbSymbolTableRecord
100
AcDbLinetypeTableRecord
  2
ByLayer
 70
0
  3

 72
65
 73
0
 40
0.0
  0
LTYPE
  5
26
330
2
100
AcDbSymbolTableRecord
100
AcDbLinetypeTableRecord
  2
Continuous
 70
0
  3

 72
65
 73
0
 40
0.0
  0
ENDTAB
  0
TABLE
  2
LAYER
  5
1
330
0
100
AcDbSymbolTable
 70
2
  0
LAYER
  5
27
330
1
100
AcDbSymbolTableRecord
100
AcDbLayerTableRecord
  2
0
 70
0
 62
7
  6
Continuous
370
-3
390
13
347
21
  0
LAYER
  5
28
330
1
100
AcDbSymbolTableRecord
100
AcDbLayerTableRecord
  2
Defpoints
 70
0
 62
7
  6
Continuous
290
0
370
-3
390
13
347
21
  0
ENDTAB
  0
TABLE
  2
STYLE
  5
5
330
0
100
AcDbSymbolTable
 70
1
  0
STYLE
  5
29
330
5
100
AcDbSymbolTableRecord
100
AcDbTextStyleTableRecord
  2
Standard
 70
0
 40
0.0
 41
1.0
 50
0.0
 71
0
 42
2.5
  3
txt
  4

  0
ENDTAB
  0
TABLE
  2
VIEW
  5
7
330
0
100
AcDbSymbolTable
 70
0
  0
ENDTAB
  0
TABLE
  2
UCS
  5
6
330
0
100
AcDbSymbolTable
 70
0
  0
ENDTAB
  0
TABLE
  2
APPID
  5
3
330
0
100
AcDbSymbolTable
 70
3
  0
APPID
  5
2A
330
3
100
AcDbSymbolTableRecord
100
AcDbRegAppTableRecord
  2
ACAD
 70
0
  0
APPID
  5
68
330
3
100
AcDbSymbolTableRecord
100
AcDbRegAppTableRecord
  2
HATCHBACKGROUNDCOLOR
 70
0
  0
APPID
  5
69
330
3
100
AcDbSymbolTableRecord
100
AcDbRegAppTableRecord
  2
EZDXF
 70
0
  0
ENDTAB
  0
TABLE
  2
DIMSTYLE
  5
4
330
0
100
AcDbSymbolTable
 70
1
100
AcDbDimStyleTable
  0
DIMSTYLE
105
2B
330
4
100
AcDbSymbolTableRecord
100
AcDbDimStyleTableRecord
  2
Standard
 70
0
 40
1.0
 41
2.5
 42
0.625
 43
3.75
 44
1.25
 45
0.0
 46
0.0
 47
0.0
 48
0.0
 49
2.5
140
2.5
141
2.5
142
0.0
143
0.03937007874
144
1.0
145
0.0
146
1.0
147
0.625
148
0.0
 69
0
 70
0
 71
0
 72
0
 73
0
 74
0
 75
0
 76
0
 77
1
 78
8
 79
3
170
0
171
3
172
1
173
0
174
0
175
0
176
0
177
0
178
0
179
2
271
2
272
2
273
2
274
3
275
0
276
0
277
2
278
44
279
0
280
0
281
0
282
0
283
0
284
8
285
0
286
0
288
0
289
3
290
0
371
-2
372
-2
  0
ENDTAB
  0
TABLE
  2
BLOCK_RECORD
  5
9
330
0
100
AcDbSymbolTable
 70
2
  0
BLOCK_RECORD
  5
17
330
9
100
AcDbSymbolTableRecord
100
AcDbBlockTableRecord
  2
*Model_Space
340
1A
 70
0
280
1
281
0
  0
BLOCK_RECORD
  5
1B
330
9
100
AcDbSymbolTableRecord
100
AcDbBlockTableRecord
  2
*Paper_Space
340
1E
 70
0
280
1
281
0
  0
ENDTAB
  0
ENDSEC
  0
SECTION
  2
BLOCKS
  0
BLOCK
  5
18
330
17
100
AcDbEntity
  8
0
100
AcDbBlockBegin
  2
*Model_Space
 70
0
 10
0.0
 20
0.0
 30
0.0
  3
*Model_Space
  1

  0
ENDBLK
  5
19
330
17
100
AcDbEntity
  8
0
100
AcDbBlockEnd
  0
BLOCK
  5
1C
330
1B
100
AcDbEntity
  8
0
100
AcDbBlockBegin
  2
*Paper_Space
 70
0
 10
0.0
 20
0.0
 30
0.0
  3
*Paper_Space
  1

  0
ENDBLK
  5
1D
330
1B
100
AcDbEntity
  8
0
100
AcDbBlockEnd
  0
ENDSEC
  0
SECTION
  2
ENTITIES
  0
LWPOLYLINE
  5
2F
330
17
100
AcDbEntity
  8
0
100
AcDbPolyline
 90
52
 70
0
 10
1906.6014911000004
 20
49.75802476318351
 10
1907.7585191000005
 20
39.11336776318369
 10
1911.5767111000005
 20
29.04722576318356
 10
1918.5188781000004
 20
18.749676763183672
 10
1926.6180731000004
 20
10.7661847631836
 10
1932.6346181000004
 20
8.567831763183603
 10
1940.8495161000003
 20
7.295100763183578
 10
2371.2499151
 20
7.524932763183597
 10
2387.0626291
 20
8.199865763183608
 10
2404.1287901
 20
12.345882763183631
 10
2433.7587321
 20
22.42976676318354
 10
2456.9178021
 20
33.59277176318365
 10
2483.4091131
 20
50.25397276318355
 10
2490.7400421
 20
55.91878176318365
 10
2494.2388941
 20
60.08408176318354
 10
2496.4048500999997
 20
64.9158307631837
 10
2497.7377460999996
 20
70.41402676318371
 10
2498.9040301
 20
77.41173176318371
 10
2498.9999991
 20
350.9660027631837
 10
2494.5014741
 20
363.4619047631837
 10
2491.0026221
 20
370.12638476318364
 10
2486.1708741
 20
375.7911937631836
 10
2480.0062291
 20
379.95649376318363
 10
2473.0085240999997
 20
382.62228576318364
 10
2461.6789071000003
 20
383.78856976318366
 10
2443.5181971
 20
384.7882427631837
 10
2373.8450511
 20
384.0711437631837
 10
2368.0136301000002
 20
385.57065276318366
 10
2358.8499691
 20
390.7356247631836
 10
2348.5200241000002
 20
398.39977776318364
 10
2340.3560361
 20
409.8960067631836
 10
2334.1913911
 20
423.7248037631836
 10
2328.5265831
 20
431.38895676318367
 10
2318.0300261
 20
439.0531097631836
 10
2306.0339601
 20
443.8848577631837
 10
2299.0362561
 20
445.0511417631836
 10
2283.2081141
 20
445.0511417631836
 10
2222.3947281
 20
444.38469376318363
 10
2212.8978431
 20
446.55065076318357
 10
2174.9103041
 20
453.71496676318367
 10
2136.9227641
 20
454.38141476318367
 10
2094.6033121
 20
456.04753476318365
 10
2058.9483401
 20
458.04687976318365
 10
2051.6174121
 20
457.0472077631836
 10
2036.4557181000005
 20
447.3837107631836
 10
2006.9653911000005
 20
414.89436676318365
 10
1967.9781791000005
 20
372.9081387631837
 10
1933.3228801000005
 20
334.7539877631836
 10
1911.9965421000004
 20
308.0960647631836
 10
1906.8315691000005
 20
296.76644776318363
 10
1905.4986731000004
 20
288.43584676318363
 10
1905.9985091000005
 20
254.11377176318356
  0
CIRCLE
  5
30
330
17
100
AcDbEntity
  8
0
100
AcDbCircle
 10
1981.6138271000004
 20
285.81227676318366
 30
0.0
 40
11.0
  0
CIRCLE
  5
31
330
17
100
AcDbEntity
  8
0
100
AcDbCircle
 10
1954.2228121000003
 20
50.08959576318369
 30
0.0
 40
11.0
  0
LWPOLYLINE
  5
32
330
17
100
AcDbEntity
  8
0
100
AcDbPolyline
 90
54
 70
0
 10
1905.4987281200001
 20
1221.9108580417414
 10
1906.54005312
 20
1211.7290130417416
 10
1909.2012171200001
 20
1203.7455200417414
 10
1918.2260351200002
 20
1185.6958850417416
 10
1921.92852412
 20
1181.4148820417415
 10
1931.30045012
 20
1175.2826340417416
 10
1939.6310511200002
 20
1172.6214700417415
 10
1962.5402031200001
 20
1170.3074140417416
 10
2069.66413912
 20
1167.5209210417415
 10
2143.37125912
 20
1166.9618450417415
 10
2149.61921012
 20
1168.4659810417415
 10
2160.37956912
 20
1177.0279880417415
 10
2165.35478912
 20
1183.8544520417415
 10
2172.5283621199997
 20
1198.5487060417415
 10
2179.47052912
 20
1218.3338830417415
 10
2183.05731612
 20
1224.2347260417416
 10
2189.30526612
 20
1228.7471340417414
 10
2199.48711212
 20
1232.7967320417415
 10
2205.73506212
 20
1233.4909490417415
 10
2229.5698371199996
 20
1234.0694630417415
 10
2307.7497491199997
 20
1233.8101030417415
 10
2320.5233371199997
 20
1235.1985370417415
 10
2331.35311812
 20
1240.3357410417416
 10
2348.84737912
 20
1254.2200750417414
 10
2353.98458312
 20
1261.0233990417414
 10
2358.56641412
 20
1268.9374700417416
 10
2360.64906412
 20
1273.6581440417415
 10
2361.4821241199998
 20
1280.4614680417415
 10
2362.45402712
 20
1489.1430180417415
 10
2358.42757012
 20
1503.8604130417414
 10
2345.0986091199998
 20
1535.1001660417414
 10
2334.96304512
 20
1546.4853200417415
 10
2324.41095012
 20
1553.8440180417415
 10
2305.38941212
 20
1563.5630520417415
 10
2281.50835612
 20
1566.6176060417415
 10
2250.96282012
 20
1568.8390990417415
 10
2208.89328612
 20
1571.0605930417414
 10
2119.61701412
 20
1578.1416030417415
 10
2109.89797912
 20
1579.8077240417415
 10
2099.90125812
 20
1582.7234340417415
 10
2092.54256112
 20
1585.7779880417415
 10
2082.26815312
 20
1591.4705650417416
 10
2075.32598612
 20
1596.6077690417417
 10
2071.16068612
 20
1597.9962020417415
 10
2065.74579512
 20
1598.4127320417415
 10
2006.04315612
 20
1598.4127320417415
 10
1937.2990381200002
 20
1601.2007070417415
 10
1929.1072811200002
 20
1598.8403700417414
 10
1923.97007712
 20
1595.2304430417414
 10
1917.4444391200002
 20
1589.3990220417415
 10
1912.8626091200001
 20
1584.5395050417417
 10
1908.8361521200002
 20
1572.8766640417414
 10
1907.4477181200002
 20
1563.0187860417416
 10
1906.7535021200001
 20
1553.8551250417415
  0
LWPOLYLINE
  5
33
330
17
100
AcDbEntity
  8
0
100
AcDbPolyline
 90
58
 70
0
 10
2233.7992111000003
 20
1205.5784146519245
 10
2211.9730371000005
 20
1204.0789056519245
 10
2198.3108521000004
 20
1200.5800536519246
 10
2175.8182301000006
 20
1188.2507646519246
 10
2156.4912361000006
 20
1172.5892346519245
 10
2127.3341331
 20
1147.9306566519247
 10
2098.5102541000006
 20
1122.1057936519244
 10
2061.1891621000004
 20
1091.7824066519245
 10
2056.3574141000004
 20
1086.1175986519245
 10
2048.6932611
 20
1074.1215336519247
 10
2046.6939171000006
 20
1067.9568886519244
 10
2046.3606931000006
 20
1058.7932276519246
 10
2048.0974571
 20
988.0191096519243
 10
2051.2164341000002
 20
932.5972886519243
 10
2051.9361971000003
 20
888.9316106519243
 10
2052.4160401000004
 20
800.6405716519242
 10
2049.5369841
 20
709.2305546519243
 10
2046.1780861000007
 20
687.6376376519243
 10
2039.7002111000006
 20
651.4095206519244
 10
2025.3049331000007
 20
580.6327366519242
 10
2023.8654051000008
 20
565.7576156519242
 10
2023.8654051000008
 20
547.0437536519244
 10
2027.2243031000007
 20
526.6504426519243
 10
2031.0630441000008
 20
514.4144566519242
 10
2038.500605100001
 20
498.57965065192445
 10
2049.0571421000004
 20
483.9444506519243
 10
2058.1741511000005
 20
474.3475986519244
 10
2075.6884071000004
 20
464.5108256519244
 10
2086.9647081000003
 20
460.91200565192446
 10
2097.7611661
 20
458.0329496519245
 10
2106.1584121000005
 20
456.5934226519245
 10
2348.9587711000004
 20
454.91397365192455
 10
2376.5497211
 20
459.4724776519244
 10
2390.9449991
 20
466.4301956519245
 10
2402.2213001000005
 20
475.0673626519244
 10
2415.6568931
 20
492.58161765192443
 10
2432.9312271000003
 20
518.2531976519243
 10
2437.4897321000003
 20
535.2876096519243
 10
2444.4474501000004
 20
553.5216286519243
 10
2464.3609181
 20
578.7133656519244
 10
2483.3147011000005
 20
597.6671486519243
 10
2487.8732061000005
 20
606.7841586519245
 10
2490.5123401000005
 20
621.1794366519244
 10
2491.4720251000003
 20
640.3731406519245
 10
2491.9518681000004
 20
727.4357836519245
 10
2496.5122921
 20
804.5484096519244
 10
2498.9997961000004
 20
984.0632866519244
 10
2496.9268761000003
 20
1001.4758156519244
 10
2495.2391101000003
 20
1129.6593696519246
 10
2492.6399621000005
 20
1142.6551066519244
 10
2489.6409461000003
 20
1151.6521556519244
 10
2480.2440281000004
 20
1165.2476966519246
 10
2468.4478971000003
 20
1180.6426466519245
 10
2457.4515041000004
 20
1188.4400886519245
 10
2443.0562261000005
 20
1197.2372036519246
 10
2427.0614731000005
 20
1202.2355636519244
 10
2411.8664571000004
 20
1203.6351046519246
 10
2387.8743261000004
 20
1204.6347766519245
  0
LWPOLYLINE
  5
34
330
17
100
AcDbEntity
  8
0
100
AcDbPolyline
 90
50
 70
0
 10
2043.7491511000003
 20
1710.9303131000004
 10
2044.1490201000004
 20
1705.7320181000005
 10
2048.3476431
 20
1693.1361491000005
 10
2055.3453471000003
 20
1679.5406091000004
 10
2062.9428551
 20
1668.5442161000003
 10
2075.9385931
 20
1658.7474291000003
 10
2084.7357071
 20
1655.3485441000005
 10
2091.7334121
 20
1654.9486751000004
 10
2176.7055401000002
 20
1653.9490031000005
 10
2191.7006221
 20
1652.5494621000005
 10
2203.8966211
 20
1649.9503151000004
 10
2216.6924241
 20
1645.1518891000005
 10
2226.4892111
 20
1639.3537911000003
 10
2235.4862591
 20
1627.9575291000003
 10
2246.6825871
 20
1597.1676281000005
 10
2257.6789801
 20
1577.5740551000004
 10
2262.6773401
 20
1573.1754981000004
 10
2270.6747171
 20
1569.5766781000004
 10
2276.8726841000002
 20
1567.9772031000005
 10
2287.2692741
 20
1567.1774651000003
 10
2314.6602901
 20
1566.1777931000004
 10
2380.4387141
 20
1568.5770061000005
 10
2468.4098581
 20
1572.3757601000004
 10
2475.8074321
 20
1574.3751041000005
 10
2481.6055301
 20
1578.3737931000005
 10
2491.0024471
 20
1586.5711041000004
 10
2497.2004141
 20
1598.1673001000004
 10
2497.4003491
 20
1609.9634311000004
 10
2498.9998240999994
 20
1959.2488621000005
 10
2497.0004800999995
 20
1971.4448611000005
 10
2493.4016610999997
 20
1980.6418451000004
 10
2487.2036940999997
 20
1988.2393521000004
 10
2476.4072350999995
 20
1995.4369921000005
 10
2469.6094650999994
 20
1998.2360731000003
 10
2337.1129250999998
 20
1998.9998231000004
 10
2330.1152200999995
 20
1996.8338671000004
 10
2318.1191550999997
 20
1991.1690581000005
 10
2296.7928170999994
 20
1978.3399331000003
 10
2283.6304680999997
 20
1975.0076931000006
 10
2270.4681180999996
 20
1973.1749601000004
 10
2227.1489940999995
 20
1970.0093321000004
 10
2188.3283940999995
 20
1968.5098241000003
 10
2110.6871950999994
 20
1963.8446881000004
 10
2091.3602010999994
 20
1957.1802071000004
 10
2076.6983430999994
 20
1949.1828301000003
 10
2064.5356660999996
 20
1938.0198251000004
 10
2054.3723330999997
 20
1924.8574761000004
 10
2047.7078531000002
 20
1910.1956181000003
 10
2044.3756121000004
 20
1899.1992251000004
 10
2042.7094921000003
 20
1883.5376961000004
  0
LWPOLYLINE
  5
35
330
17
100
AcDbEntity
  8
0
100
AcDbPolyline
 90
60
 70
0
 10
2431.7418975479954
 20
442.8307391
 10
2432.4212008910577
 20
26.147811086000395
 10
2434.277058033841
 20
21.860365539000334
 10
2438.717858788139
 20
14.893265114000432
 10
2450.250685850162
 20
5.849432723000411
 10
2460.215092215137
 20
2.02348337750039
 10
2466.889182639563
 20
1.000003822500397
 10
2857.6494827854494
 20
1.2205551339994816
 10
2870.9056049679693
 20
3.3642779075004228
 10
2880.118610601513
 20
6.311897897000451
 10
2889.0664940520214
 20
10.130404028500495
 10
2896.2248004401213
 20
15.824669703500549
 10
2903.117984645185
 20
23.193716855000453
 10
2909.3483624618925
 20
27.213197290500553
 10
2916.8380711134005
 20
31.098696111000386
 10
2972.542615044563
 20
47.3714208370006
 10
2976.7938311274506
 20
49.439053868999466
 10
2979.350952183672
 20
51.991289803999464
 10
2981.6203985172197
 20
55.83579826549949
 10
2983.4423495967
 20
60.71412136149952
 10
2984.0177009035797
 20
64.81708395199956
 10
2983.533384416825
 20
161.00905555849948
 10
2984.843972715833
 20
169.37404274950057
 10
2987.771366822101
 20
180.20431047149958
 10
2991.195866185021
 20
188.01996739650045
 10
2995.8355090419795
 20
196.05893014900042
 10
3001.0827245767277
 20
203.20467335449942
 10
3004.6729232098137
 20
206.72171991150017
 10
3010.2515428695087
 20
210.12711261400014
 10
3019.917464557405
 20
215.26311654250014
 10
3031.4613398507718
 20
219.3942489509999
 10
3054.2729181615887
 20
225.14434061250006
 10
3074.0822499007018
 20
228.86119870649975
 10
3079.8818025411315
 20
230.81511199699995
 10
3084.024342002977
 20
233.27146292900002
 10
3089.7686609328375
 20
239.69146642849992
 10
3091.2047411306876
 20
243.65512087749985
 10
3092.364652775698
 20
250.63338612350017
 10
3093.837278698527
 20
447.64736028500005
 10
3092.776789966387
 20
450.9969270010001
 10
3090.8546508816908
 20
453.40861488600007
 10
3084.2265907211995
 20
459.3708456725
 10
3080.978838859791
 20
460.9786382229999
 10
3073.2286097485635
 20
462.9880689340002
 10
3066.2860221716955
 20
463.18190858999986
 10
3025.7520513535037
 20
454.03262753150005
 10
3000.3572960312636
 20
451.9670603865001
 10
2932.314507066201
 20
452.7587540981438
 10
2867.683402453391
 20
456.74177503916417
 10
2777.5124802272303
 20
461.7774937110428
 10
2713.743878673593
 20
466.45289184595373
 10
2607.298567258012
 20
474.86546478450026
 10
2527.41750679931
 20
473.53056714804296
 10
2479.529702806645
 20
471.9853983583932
 10
2452.6202922658495
 20
470.9001132225
 10
2448.643455797247
 20
469.6272784724999
 10
2444.2689351233234
 20
466.94762359450004
 10
2440.2258167128084
 20
463.4640733820001
 10
2437.044346793311
 20
459.8465415545001
 10
2433.332632507744
 20
452.74545763300006
  0
LWPOLYLINE
  5
36
330
17
100
AcDbEntity
  8
0
100
AcDbPolyline
 90
22
 70
0
 10
2509.6197000798165
 20
311.5557088875002
 10
2512.3217009898035
 20
311.9606141930803
 10
2514.7907771333203
 20
313.1411585097639
 10
2516.814914175625
 20
314.99554645381005
 10
2518.218886945543
 20
317.3631144975256
 10
2518.882549835142
 20
320.0412082178287
 10
2518.748548165039
 20
322.7985210918668
 10
2517.828507306316
 20
325.3975067091438
 10
2516.201232770467
 20
327.6153159315126
 10
2514.007648974173
 20
329.2596595315246
 10
2511.4355408638976
 20
330.18994641289345
 10
2508.707297223006
 20
330.3253599077173
 10
2506.0578002546513
 20
329.65460558960007
 10
2503.714624291885
 20
328.2349760464561
 10
2501.8806363623544
 20
326.18973585463203
 10
2500.712749450746
 20
323.69379869270466
 10
2500.3120072874963
 20
320.9632088875
 10
2500.712749274644
 20
318.2326194867474
 10
2501.8806363623544
 20
315.7366819203682
 10
2503.7146332016714
 20
313.69142046330916
 10
2506.0578002546513
 20
312.27181218540017
 10
2508.706837088678
 20
311.60129002904176
  0
LWPOLYLINE
  5
37
330
17
100
AcDbEntity
  8
0
100
AcDbPolyline
 90
22
 70
0
 10
2507.6704849167872
 20
100.84140432600054
 10
2510.3724858267738
 20
101.2463096315804
 10
2512.841561970291
 20
102.42685394826447
 10
2514.8656990125955
 20
104.2812418923105
 10
2516.2696717825143
 20
106.64880993602549
 10
2516.9333346721123
 20
109.32690365632845
 10
2516.79933300201
 20
112.08421653036646
 10
2515.8792921432873
 20
114.68320214764447
 10
2514.252017607438
 20
116.9010113700125
 10
2512.0584338111435
 20
118.5453549700245
 10
2509.486325700868
 20
119.47564185139333
 10
2506.7580820599774
 20
119.61105534621754
 10
2504.1085850916215
 20
118.9403010280995
 10
2501.765409128856
 20
117.52067148495541
 10
2499.9314211993255
 20
115.47543129313237
 10
2498.7635342877165
 20
112.97949413120443
 10
2498.362792124467
 20
110.24890432600034
 10
2498.7635341116147
 20
107.51831492524741
 10
2499.9314211993255
 20
105.02237735886854
 10
2501.7654180386426
 20
102.9771159018095
 10
2504.1085850916215
 20
101.5575076239005
 10
2506.757621925649
 20
100.88698546754142
  0
LWPOLYLINE
  5
38
330
17
100
AcDbEntity
  8
0
100
AcDbPolyline
 90
73
 70
0
 10
2579.3021425479956
 20
862.3783543932451
 10
2879.456682306995
 20
862.4541450741144
 10
2882.527119090495
 20
864.1111601142371
 10
2887.318861200995
 20
867.9315007593063
 10
2890.296254046495
 20
871.9819834163583
 10
2893.3201688609947
 20
877.2752273535024
 10
2894.6693003174946
 20
881.1415964009682
 10
2896.018431773995
 20
886.9871793053327
 10
2897.826916403495
 20
990.2014095717406
 10
2898.0298634928267
 20
1065.5714444507496
 10
2897.826916403495
 20
1115.8210974508975
 10
2888.362145424995
 20
1294.2014940463996
 10
2874.823770781995
 20
1587.4608472848931
 10
2872.965183688995
 20
1592.85984895062
 10
2869.280659172495
 20
1599.7088458149221
 10
2866.2102223889947
 20
1603.740915994093
 10
2862.414045899495
 20
1606.4473752580882
 10
2853.872649268495
 20
1609.26430194322
 10
2846.8786964897135
 20
1609.865239028523
 10
2762.528648469907
 20
1609.265379327591
 10
2668.152675602366
 20
1607.3542679390919
 10
2610.079514464495
 20
1605.836271241654
 10
2604.552728630495
 20
1605.007763721593
 10
2600.030812434995
 20
1603.295514970902
 10
2597.295331570495
 20
1601.1966283846948
 10
2590.484544283995
 20
1593.5743577109
 10
2586.944483025646
 20
1586.287259904894
 10
2583.729584865495
 20
1573.082600828562
 10
2580.3241902814952
 20
1563.913782535781
 10
2558.399253691785
 20
1515.3382794630559
 10
2543.408604218909
 20
1479.8337894319332
 10
2530.256319187707
 20
1445.8693323486552
 10
2521.646130124995
 20
1422.383353335885
 10
2517.559657000495
 20
1416.5506597244992
 10
2512.870262845495
 20
1411.447052581844
 10
2504.1613882549955
 20
1403.6922198857621
 10
2496.5913649179947
 20
1398.522332662734
 10
2489.0883342699954
 20
1394.5454943325929
 10
2473.680324365995
 20
1387.5860300471538
 10
2470.263764960995
 20
1385.5976127436231
 10
2465.842335917495
 20
1381.289372150073
 10
2463.631622336495
 20
1377.975340208289
 10
2458.808244684995
 20
1367.039039454249
 10
2454.9227477459954
 20
1352.4573044950148
 10
2449.898395790495
 20
1326.6741447371678
 10
2447.610185105995
 20
1314.0274214017618
 10
2444.8234159319054
 20
1306.81589049822
 10
2435.551743799495
 20
1288.8301827667292
 10
2433.718859877995
 20
1280.4311032217183
 10
2432.964869449495
 20
1263.7902366937326
 10
2433.2542723719953
 20
1248.9009588107938
 10
2435.823097492495
 20
1144.669096152939
 10
2431.7420624208435
 20
1049.8102137358235
 10
2433.6475563636473
 20
927.5698721925323
 10
2435.7342120483963
 20
852.6785258217624
 10
2436.5634940834952
 20
828.9164970048182
 10
2437.6677276184955
 20
825.3334001413325
 10
2440.481364111495
 20
821.1179516603063
 10
2446.349805885995
 20
816.6638948899334
 10
2452.7809742064956
 20
813.5619629284238
 10
2456.0769482764954
 20
812.7665945177803
 10
2460.7395461084952
 20
812.4484482704461
 10
2530.2644763429953
 20
812.82696607477
 10
2534.5251255669955
 20
813.6223344854135
 10
2542.0817488609955
 20
816.644730350474
 10
2547.307075120495
 20
820.4624927646398
 10
2550.5226583399954
 20
824.3597931367931
 10
2554.3813608374953
 20
832.0748577846505
 10
2557.8381147269956
 20
845.3574919993201
 10
2559.847854003995
 20
849.8115506312316
 10
2562.9830501359957
 20
853.7088491418461
 10
2567.9672057254957
 20
857.6856874719869
 10
2573.031752165495
 20
860.6285453790601
  0
LWPOLYLINE
  5
39
330
17
100
AcDbEntity
  8
0
100
AcDbPolyline
 90
52
 70
0
 10
3129.5169668988274
 20
1875.9533311000002
 10
3131.2995371301026
 20
1976.6665490880002
 10
3129.1005053540666
 20
1982.7787335430012
 10
3124.152682927215
 20
1990.0022222100001
 10
3121.6291421650517
 20
1992.1183979420011
 10
3119.4418808973205
 20
1993.1902602695002
 10
3117.055779388467
 20
1993.5252161885003
 10
2722.563930263673
 20
1998.9999992440012
 10
2718.7729833124417
 20
1997.1060248990002
 10
2712.9508948862235
 20
1993.2473224015012
 10
2705.5062559447542
 20
1986.5910627100002
 10
2704.2654827878428
 20
1984.4687777475003
 10
2703.1201525743622
 20
1980.8994781725003
 10
2703.4362716062064
 20
1625.0675264425006
 10
2704.390712209748
 20
1621.5946951355006
 10
2706.6813707751708
 20
1617.8324609060007
 10
2709.7355803341957
 20
1614.4560978670006
 10
2713.362456861499
 20
1612.1408763685006
 10
2716.989331527264
 20
1610.5009271015006
 10
2723.4795298651925
 20
1609.8256548700006
 10
2849.5894930160302
 20
1611.2459879310006
 10
2858.2589964058902
 20
1609.3166376230006
 10
2866.0325180622967
 20
1606.0661000219388
 10
2878.0636445139908
 20
1597.9817008005007
 10
2883.7107539003287
 20
1591.9524792065006
 10
2889.198787370692
 20
1585.1193622780006
 10
2892.8574775919597
 20
1577.1607903760007
 10
2897.939832544942
 20
1554.5338185833682
 10
2902.5609595433493
 20
1529.5701369020005
 10
2904.3107685575337
 20
1523.2193575505005
 10
2906.5377960119513
 20
1520.4057191760007
 10
2911.9573416172097
 20
1516.6720686945005
 10
2916.3208159213277
 20
1514.9972853365007
 10
2921.1813936205594
 20
1513.7132838840005
 10
3106.2921623972643
 20
1513.5985594215008
 10
3109.9269169557474
 20
1514.5159694140007
 10
3113.425060645579
 20
1516.0977088340007
 10
3117.153346347394
 20
1518.8424937160005
 10
3121.157800602049
 20
1522.5642361840007
 10
3123.321126206996
 20
1525.9603248690005
 10
3124.9781412471184
 20
1529.5425014300006
 10
3125.7606203647833
 20
1532.5198942755005
 10
3131.139515552541
 20
1734.1460458320007
 10
3130.4714075023694
 20
1740.3199679465006
 10
3127.1308635284363
 20
1747.1691641740006
 10
3120.3543344986765
 20
1756.5265165545006
 10
3113.7686913557786
 20
1767.2344133980007
 10
3112.3370304504665
 20
1773.6012701670006
 10
3112.432475255436
 20
1839.3921341085002
 10
3113.7686913557786
 20
1842.4790942250002
 10
3125.2219823213527
 20
1862.3514087945011
 10
3128.657969238717
 20
1870.0688119080003
  0
LWPOLYLINE
  5
3A
330
17
100
AcDbEntity
  8
0
100
AcDbPolyline
 90
50
 70
0
 10
3142.0000011
 20
488.3650328020608
 10
3140.217430868725
 20
589.0782507900607
 10
3139.3584332086143
 20
594.9627699820605
 10
3135.92244629125
 20
602.6801730955608
 10
3123.1329392253333
 20
625.6394477815606
 10
3123.037496281902
 20
691.4303117230606
 10
3124.469157187214
 20
697.7971684920609
 10
3131.054798468573
 20
708.5050653355607
 10
3137.8313293598712
 20
717.8624177160608
 10
3141.1718714722665
 20
724.7116120620607
 10
3141.8399795224377
 20
730.8855360580607
 10
3136.46108433468
 20
932.5116876145606
 10
3135.6786052170155
 20
935.4890804600608
 10
3134.0215901768925
 20
939.0712570210607
 10
3131.858264571946
 20
942.4673457060607
 10
3127.8538103172905
 20
946.1890881740609
 10
3124.1255264770143
 20
948.9338711745607
 10
3120.627382787183
 20
950.5156124760605
 10
3116.9926282286997
 20
951.4330205870609
 10
2931.8818594519953
 20
951.3182980060608
 10
2927.0212798912253
 20
950.0342965535608
 10
2922.6578074486456
 20
948.3595131955606
 10
2917.2382618433867
 20
944.6258608325609
 10
2915.0112325274313
 20
941.8122243395608
 10
2912.8664517269144
 20
933.5170857751223
 10
2903.5579434233955
 20
887.8707915140606
 10
2899.8992532021275
 20
879.9122196120604
 10
2894.411217870226
 20
873.0791026835607
 10
2888.764110345426
 20
867.0498810895605
 10
2875.0837900638962
 20
857.9658542140606
 10
2868.959462237326
 20
855.7149442670606
 10
2860.289956985927
 20
853.7855939590605
 10
2734.179993835089
 20
855.2059270200606
 10
2727.6897954971614
 20
854.5306529070607
 10
2724.062920831396
 20
852.8907055215607
 10
2720.4360461656306
 20
850.5754840230605
 10
2717.381834745068
 20
847.1991209840605
 10
2715.091176179645
 20
843.4368867545605
 10
2714.1367355761035
 20
839.9640554475606
 10
2713.820618405798
 20
484.1321037175607
 10
2714.96594675774
 20
480.5628041425607
 10
2716.206719914652
 20
478.44051918006073
 10
2718.9745987818446
 20
475.64296010456064
 10
2723.651358856121
 20
471.7842576070608
 10
2729.4734491438776
 20
467.9255569910607
 10
2733.264396095109
 20
466.03158264606077
 10
3130.1423467287564
 20
471.8413216205607
 10
3132.3296061349492
 20
472.91318394806086
 10
3134.8531487586515
 20
475.02935968006085
 10
3139.800969323964
 20
482.2528483470607
  0
CIRCLE
  5
3B
330
17
100
AcDbEntity
  8
0
100
AcDbCircle
 10
1292.9999998807907
 20
942.7536664416518
 30
0.0
 40
6.999999880790653
  0
CIRCLE
  5
3C
330
17
100
AcDbEntity
  8
0
100
AcDbCircle
 10
1302.6019505344766
 20
1953.858933301172
 30
0.0
 40
6.999999880790613
  0
CIRCLE
  5
3D
330
17
100
AcDbEntity
  8
0
100
AcDbCircle
 10
1301.3412676507144
 20
944.805668394777
 30
0.0
 40
6.999999880790653
  0
CIRCLE
  5
3E
330
17
100
AcDbEntity
  8
0
100
AcDbCircle
 10
1305.5082379119442
 20
1955.7759712650395
 30
0.0
 40
6.999999880790692
  0
LWPOLYLINE
  5
3F
330
17
100
AcDbEntity
  8
0
100
AcDbPolyline
 90
1229
 70
0
 10
3774.7503073847506
 20
1908.2137451000003
 10
3774.726205724984
 20
1911.5166741239805
 10
3774.6863819115633
 20
1914.8277244986848
 10
3774.6068475686902
 20
1918.140771532421
 10
3774.463614320567
 20
1921.4496905334954
 10
3774.232693791396
 20
1924.7483568102152
 10
3773.9793112910006
 20
1927.2838134593753
 10
3773.9114401972506
 20
1927.8380126781253
 10
3773.503973388982
 20
1930.315843236333
 10
3773.2380091723985
 20
1931.5442890855206
 10
3772.930151466142
 20
1932.7628097748127
 10
3772.5800955591835
 20
1933.9691961492451
 10
3772.2808249628756
 20
1934.8907470531253
 10
3771.9256003535006
 20
1935.8443603343753
 10
3770.5183221842617
 20
1938.467868138362
 10
3768.652277106217
 20
1940.7838025018666
 10
3766.415983673438
 20
1942.7713135726951
 10
3763.897960439997
 20
1944.4095514986536
 10
3759.0176413691256
 20
1946.3902587718753
 10
3758.4539206660006
 20
1946.5330810375003
 10
3758.081856784727
 20
1946.618628823318
 10
3757.708176464911
 20
1946.698021980958
 10
3757.333153946479
 20
1946.7714814259157
 10
3756.9570634693578
 20
1946.8392280736884
 10
3756.5801792734737
 20
1946.901482839772
 10
3756.2888816035006
 20
1946.9459228343753
 10
3754.1751120722506
 20
1947.1707763500003
 10
3750.4719870722506
 20
1947.3260497875003
 10
3732.855285222686
 20
1947.4101765294472
 10
3715.231711203952
 20
1947.3399227658242
 10
3697.6051653172262
 20
1947.1460186039571
 10
3679.9795478636875
 20
1946.859194151171
 10
3662.3587591445125
 20
1946.5101795147923
 10
3648.7625144160006
 20
1946.2176513500003
 10
3623.305899701441
 20
1945.6395423536237
 10
3597.8320395455703
 20
1945.0992589554048
 10
3572.349938159311
 20
1944.7189598070734
 10
3546.8685997535854
 20
1944.620803560358
 10
3521.3970285393148
 20
1944.9269488669877
 10
3501.7471335566256
 20
1945.5169677562503
 10
3501.2075827753756
 20
1945.5408935375003
 10
3499.817043979041
 20
1945.6205497734284
 10
3498.4251170101493
 20
1945.7103520847052
 10
3497.032875975079
 20
1945.8096301070652
 10
3495.641394980209
 20
1945.917713476244
 10
3494.251748131919
 20
1946.0339318279766
 10
3493.1809714472506
 20
1946.1287841625003
 10
3492.6782859003756
 20
1946.1795654125003
 10
3489.3385472594136
 20
1946.6920336205553
 10
3486.0402521247374
 20
1947.409520362029
 10
3482.7774891023755
 20
1948.2860675958962
 10
3479.544346798354
 20
1949.2757172811312
 10
3476.3349138187023
 20
1950.3325113767087
 10
3473.8699362910006
 20
1951.1651611156253
 10
3472.7993796503756
 20
1951.5750732250003
 10
3468.1336081660006
 20
1954.8070068187503
 10
3466.9993308222506
 20
1956.1204833812503
 10
3463.2214987910006
 20
1963.2025146312503
 10
3461.8055382644075
 20
1967.8322839798034
 10
3460.5180552665834
 20
1972.50498109801
 10
3459.2965688009285
 20
1977.1999541958462
 10
3458.0785978708427
 20
1981.8965514832862
 10
3456.801661479725
 20
1986.574121170306
 10
3455.7361472285006
 20
1990.1588134593753
 10
3455.509091627008
 20
1990.9375166022924
 10
3455.2905183518424
 20
1991.744062180679
 10
3455.065869833569
 20
1992.5598171150818
 10
3454.820588502754
 20
1993.3661483260457
 10
3454.5401167899618
 20
1994.1444227341162
 10
3454.2903464472506
 20
1994.7142333812503
 10
3453.8919463815146
 20
1995.3346829737502
 10
3453.2987142187676
 20
1996.022537719085
 10
3452.592472488208
 20
1996.7195825750678
 10
3451.855043719034
 20
1997.3676024995107
 10
3451.1682504404434
 20
1997.9083824502272
 10
3450.7244284785006
 20
1998.2156982250003
 10
3450.3013327753756
 20
1998.3843993968753
 10
3449.561682166408
 20
1998.4992483399596
 10
3448.8083918632883
 20
1998.5744096073563
 10
3448.0498947437577
 20
1998.6371167473283
 10
3447.294623685558
 20
1998.7146033081367
 10
3446.5510115664306
 20
1998.8341028380444
 10
3445.9902976191256
 20
1998.9722900218753
 10
3445.964052501938
 20
1998.9829101390628
 10
3445.958088050881
 20
1998.9859381380736
 10
3445.9545575460083
 20
1998.988826143744
 10
3445.9559359250484
 20
1998.9931937979065
 10
3445.9651202981745
 20
1998.995257254501
 10
3445.969179455063
 20
1998.9956054515628
 10
3445.976579255433
 20
1998.995931412173
 10
3445.98144116707
 20
1998.995864656396
 10
3445.981959351044
 20
1998.9945882153659
 10
3445.97352239696
 20
1998.9924920156336
 10
3445.9385398066256
 20
1998.9857177562503
 10
3445.576472668072
 20
1998.9337894944535
 10
3445.071311627623
 20
1998.8649667437064
 10
3444.5039422280624
 20
1998.805005203778
 10
3443.9552500121717
 20
1998.779660574437
 10
3443.5061205227335
 20
1998.8146885554527
 10
3443.2786276972506
 20
1998.8992919750003
 10
3443.3045066035006
 20
1998.9045409984378
 10
3443.3092957286785
 20
1998.9054502451181
 10
3443.333179376579
 20
1998.9091784864304
 10
3443.345943293819
 20
1998.9106444070658
 10
3443.3562644160006
 20
1998.9114990062503
 10
3443.359375964128
 20
1998.9116845767687
 10
3443.360183460794
 20
1998.911598538496
 10
3443.353125357599
 20
1998.9109141748918
 10
3443.3355686229584
 20
1998.9093949297935
 10
3443.312441173813
 20
1998.9074706859378
 10
3443.2427390253756
 20
1998.9017333812503
 10
3442.5081479641426
 20
1998.861385246401
 10
3441.7727793552103
 20
1998.832565345404
 10
3441.0369988518137
 20
1998.810093590758
 10
3440.301172107189
 20
1998.788789894961
 10
3439.565664774571
 20
1998.7634741705115
 10
3438.9983542597506
 20
1998.7379150218753
 10
3425.963975581307
 20
1998.0834709030569
 10
3412.926513708393
 20
1997.4524545182944
 10
3399.887370311745
 20
1996.8379108383392
 10
3386.8479470620987
 20
1996.232884833943
 10
3380.328568514506
 20
1995.931767513439
 10
3367.2913536179917
 20
1995.3279773425397
 10
3363.6868308222506
 20
1995.1607665843753
 10
3361.478108668954
 20
1994.6119006206127
 10
3359.174842703287
 20
1993.7744324182288
 10
3356.91847216737
 20
1992.660245707375
 10
3354.850436303324
 20
1991.2812242182013
 10
3353.1121743532703
 20
1989.649251680859
 10
3352.0852683222506
 20
1988.2239990062503
 10
3351.8486960566256
 20
1987.7506103343753
 10
3350.562237158664
 20
1984.9637159450258
 10
3349.2570755525558
 20
1982.1329378219048
 10
3347.9919823781174
 20
1979.2634179636361
 10
3346.825728775165
 20
1976.360298368842
 10
3345.8170858835138
 20
1973.4287210361456
 10
3345.183412853501
 20
1971.1495361156253
 10
3344.4224562158033
 20
1968.083160194477
 10
3343.6058447766454
 20
1965.0904850503975
 10
3342.6526853754694
 20
1962.1788618369742
 10
3341.4820848517165
 20
1959.355641707793
 10
3340.0131500448283
 20
1956.6281758164416
 10
3338.624086681626
 20
1954.5928954906253
 10
3338.162416759751
 20
1953.9207763500003
 10
3333.9170072797333
 20
1947.9755002249062
 10
3329.0530141002473
 20
1942.712541986246
 10
3323.724613384448
 20
1937.9441996398436
 10
3318.0859812954886
 20
1933.4827711915236
 10
3312.2912939965236
 20
1929.14055464711
 10
3307.808901134751
 20
1925.7515868968753
 10
3307.2778225137045
 20
1925.3631943803052
 10
3306.70525494715
 20
1924.966229995021
 10
3306.121555271403
 20
1924.5561230755798
 10
3305.5570803227765
 20
1924.1283029565393
 10
3305.042186937587
 20
1923.6781989724568
 10
3304.697817150376
 20
1923.3126220531253
 10
3304.737612072251
 20
1923.3477783031253
 10
3304.747167168556
 20
1923.356277067871
 10
3304.7537347937105
 20
1923.3622155917246
 10
3304.756716918887
 20
1923.3651158258285
 10
3304.7525293806
 20
1923.3618544821306
 10
3304.7421286738136
 20
1923.3531493968753
 10
3304.706850353501
 20
1923.3233642406253
 10
3296.37484875591
 20
1916.3698129966606
 10
3288.031306762752
 20
1909.429707260407
 10
3279.6810845149494
 20
1902.4974098778187
 10
3275.5049870895928
 20
1899.0324277085097
 10
3267.153857224047
 20
1892.1012731925832
 10
3258.8081974561574
 20
1885.1638341452071
 10
3256.540346447251
 20
1883.2755126781253
 10
3245.7339356023813
 20
1874.254782727384
 10
3234.9386296033817
 20
1865.2196478301703
 10
3224.144472017364
 20
1856.1827001697789
 10
3213.3415064114374
 20
1847.1565319295034
 10
3202.519776352714
 20
1838.1537352926389
 10
3194.147035900376
 20
1831.2281493968753
 10
3192.350766606285
 20
1829.7589906764317
 10
3190.541870113931
 20
1828.3046373035231
 10
3188.7199426812003
 20
1826.8663081222676
 10
3186.8845805659794
 20
1825.4452219767827
 10
3185.035380026153
 20
1824.0425977111868
 10
3183.598207775376
 20
1822.9732665843753
 10
3183.191225353501
 20
1822.6746826000003
 10
3182.9171430435317
 20
1822.4756050767187
 10
3182.6423208738042
 20
1822.2775751980626
 10
3182.3667664620934
 20
1822.0805853462566
 10
3182.090487426176
 20
1821.8846279035245
 10
3181.813491383827
 20
1821.6896952520906
 10
3177.339346140477
 20
1818.7427885468496
 10
3174.4173397327504
 20
1817.0091856251543
 10
3173.273012462876
 20
1816.3685302562503
 10
3173.1423604392958
 20
1816.296824831557
 10
3172.9879438958187
 20
1816.2124166991125
 10
3172.822316926862
 20
1816.1221694748563
 10
3172.6580336268407
 20
1816.032946774728
 10
3172.5076480901703
 20
1815.9516122146674
 10
3172.408998791001
 20
1815.8985595531253
 10
3171.981996837876
 20
1815.6719970531253
 10
3171.8612723819942
 20
1815.6089879922224
 10
3171.6996802970325
 20
1815.5250684043965
 10
3171.519053128254
 20
1815.4313373888972
 10
3171.3412234209245
 20
1815.338894044974
 10
3171.188023720307
 20
1815.2588374718773
 10
3171.100405041001
 20
1815.2125243968753
 10
3170.299623791001
 20
1814.7630615062503
 10
3167.474312688284
 20
1813.1412124379035
 10
3164.613877491901
 20
1811.6041577663673
 10
3161.7113784081557
 20
1810.160756964824
 10
3158.7598756433517
 20
1808.8198695064566
 10
3155.752429403791
 20
1807.5903548644478
 10
3153.388246837876
 20
1806.7230224437503
 10
3153.1149786826627
 20
1806.6284199796291
 10
3152.841345275152
 20
1806.5347045186181
 10
3152.567377086447
 20
1806.441883678493
 10
3152.2931045876494
 20
1806.34996507703
 10
3152.0185582498634
 20
1806.258956332004
 10
3151.806459728501
 20
1806.1893310375003
 10
3151.5313076122593
 20
1806.099971377928
 10
3151.2558189774345
 20
1806.0115638066718
 10
3150.98000905958
 20
1805.9240930881806
 10
3150.7038930942454
 20
1805.8375439869028
 10
3150.4274863169826
 20
1805.751901267287
 10
3150.213930431626
 20
1805.6864013500003
 10
3149.9370030723703
 20
1805.6023517829829
 10
3149.6597468123073
 20
1805.5192255705667
 10
3149.3821845047655
 20
1805.4370227127515
 10
3149.1043390030713
 20
1805.3557432095379
 10
3148.826233160552
 20
1805.275387060925
 10
3148.611391369126
 20
1805.2139892406253
 10
3142.6206199160124
 20
1803.6125399556252
 10
3136.5750432444192
 20
1802.204058551416
 10
3130.4837874496816
 20
1800.9930166623562
 10
3124.355978627132
 20
1799.983885922804
 10
3118.2007428721054
 20
1799.1811379671167
 10
3113.436342541001
 20
1798.7054443187503
 10
3110.9654910164363
 20
1798.5030869972638
 10
3108.493819445006
 20
1798.3139068239066
 10
3106.022310519781
 20
1798.1244355711735
 10
3103.5519469338305
 20
1797.921205011561
 10
3101.0837113802245
 20
1797.6907469175646
 10
3099.180483166001
 20
1797.4857177562503
 10
3098.25270275161
 20
1797.3733278727063
 10
3097.325878301249
 20
1797.249796390805
 10
3096.400482117012
 20
1797.114666244002
 10
3095.4769865009976
 20
1796.967480365753
 10
3094.5558637552995
 20
1796.8077816895136
 10
3093.846742931626
 20
1796.6756591625003
 10
3093.019106212876
 20
1796.5030517406253
 10
3088.758578632324
 20
1795.2501221946918
 10
3086.929994884751
 20
1794.5255126781253
 10
3085.816225353501
 20
1794.0008544750003
 10
3085.6296193692788
 20
1793.9025961174762
 10
3085.4441887944813
 20
1793.8019786551004
 10
3085.2600098068665
 20
1793.6990173234244
 10
3085.077158584192
 20
1793.5937273580003
 10
3084.895711304215
 20
1793.486123994379
 10
3084.756655041001
 20
1793.4014892406253
 10
3082.727846447251
 20
1791.8983154125003
 10
3079.390444103501
 20
1787.4073486156253
 10
3078.626039806626
 20
1785.3638915843753
 10
3077.271791759751
 20
1778.8365478343753
 10
3077.185365978501
 20
1777.9454345531253
 10
3077.1082817337174
 20
1776.9341385041562
 10
3077.0465338087934
 20
1775.9208764008363
 10
3077.000465003637
 20
1774.9063643140855
 10
3076.970418118158
 20
1773.8913183148225
 10
3076.9567359522634
 20
1772.8764544739668
 10
3076.957582775376
 20
1772.0936279125003
 10
3077.0989536579245
 20
1763.9231861700778
 10
3077.3651304350597
 20
1755.756152379931
 10
3077.703459040885
 20
1747.5911858135307
 10
3078.061285409499
 20
1739.426945742347
 10
3078.385955475005
 20
1731.2620914378497
 10
3078.580629650376
 20
1724.9581298656253
 10
3078.9710790191057
 20
1710.9562547444298
 10
3079.295562725825
 20
1696.944017310051
 10
3079.3561633390946
 20
1682.9356780386706
 10
3078.9549634274736
 20
1668.945497406469
 10
3077.894045559522
 20
1654.9877358896272
 10
3076.498842541001
 20
1644.2445068187503
 10
3075.6626211363428
 20
1639.6978782420094
 10
3074.6440915252297
 20
1635.188032963798
 10
3073.529509782339
 20
1630.6978919309122
 10
3072.4051319823493
 20
1626.2103760901487
 10
3071.3572141999366
 20
1621.7084063883026
 10
3070.655092541001
 20
1618.2125243968753
 10
3070.650698009751
 20
1618.1558837718753
 10
3070.5758904094646
 20
1617.4103081032492
 10
3070.487773619554
 20
1616.6658617364562
 10
3070.3913296653527
 20
1615.922179018261
 10
3070.2915405721924
 20
1615.1788942954283
 10
3070.1933883654065
 20
1614.435641914722
 10
3070.121889416001
 20
1613.8616943187503
 10
3069.937759224142
 20
1612.2602415853753
 10
3069.7667595383036
 20
1610.6568040873228
 10
3069.606147959221
 20
1609.0519912466518
 10
3069.4531820876273
 20
1607.4464124854212
 10
3069.305119524258
 20
1605.8406772256903
 10
3069.192446056626
 20
1604.6014404125003
 10
3069.187830038626
 20
1604.5497946520836
 10
3069.1833365732623
 20
1604.4981488916674
 10
3069.178912336105
 20
1604.4465031312507
 10
3069.1745040027245
 20
1604.3948573708342
 10
3069.17005824869
 20
1604.3432116104177
 10
3069.166567150376
 20
1604.3033447093753
 10
3069.153383556626
 20
1604.1541747875003
 10
3069.1403731050755
 20
1604.0055821942624
 10
3069.1274564724463
 20
1603.8569896010254
 10
3069.1145955698594
 20
1603.7083970077874
 10
3069.1017523084374
 20
1603.55980441455
 10
3069.0888885993
 20
1603.411211821312
 10
3069.078920666001
 20
1603.2965087718753
 10
3069.055239025376
 20
1603.0260009593753
 10
3068.7084280926592
 20
1599.0484325176744
 10
3068.362022906732
 20
1595.0708315333704
 10
3068.015901583181
 20
1591.0932094331265
 10
3067.056948009751
 20
1580.0675048656253
 10
3067.030815368703
 20
1579.8122373659576
 10
3066.9997405286467
 20
1579.5526859366373
 10
3066.9688502526537
 20
1579.2910521148515
 10
3066.943271303797
 20
1579.0295374377888
 10
3066.928130445146
 20
1578.7703434426376
 10
3066.926821056626
 20
1578.5732421703128
 10
3066.9841572358455
 20
1577.5074498597173
 10
3067.0962991680444
 20
1576.434319025071
 10
3067.240446850441
 20
1575.3577233053359
 10
3067.3938002802515
 20
1574.2815363394748
 10
3067.533559454693
 20
1573.20963176645
 10
3067.617739025376
 20
1572.3875732250003
 10
3067.824929205366
 20
1569.8730612282088
 10
3068.0215346865325
 20
1567.3576449880811
 10
3068.213459245072
 20
1564.8418272778158
 10
3068.4066066571804
 20
1562.3261108706115
 10
3068.6068806990556
 20
1559.8109985396668
 10
3068.770082775376
 20
1557.8702392406253
 10
3068.810610119126
 20
1557.4165038890628
 10
3069.074281994126
 20
1555.0186767406253
 10
3069.1585332165077
 20
1554.3706031161626
 10
3069.2479492908105
 20
1553.7231705208424
 10
3069.3426825725487
 20
1553.076470367974
 10
3069.4428854172374
 20
1552.4305940708664
 10
3069.548710180391
 20
1551.785633042828
 10
3069.634340587876
 20
1551.2884521312503
 10
3069.691451073021
 20
1550.9657818135036
 10
3069.749400449009
 20
1550.6431906137086
 10
3069.8082801291484
 20
1550.3207356651828
 10
3069.868181526749
 20
1549.9984741012447
 10
3069.929196055119
 20
1549.6764630552118
 10
3069.977114025376
 20
1549.4281005687503
 10
3070.258119884751
 20
1548.2292480296878
 10
3071.200229602412
 20
1546.003681197924
 10
3072.509019348812
 20
1543.8965587502341
 10
3074.095955334329
 20
1541.926734681569
 10
3075.872503769341
 20
1540.1130629868792
 10
3077.750130864223
 20
1538.4743976611153
 10
3079.212709728501
 20
1537.3410644359378
 10
3080.034370862297
 20
1536.7509827306428
 10
3080.875052913768
 20
1536.1822199052294
 10
3081.733902692031
 20
1535.6386610253226
 10
3082.610067006204
 20
1535.1241911565498
 10
3083.5026926654054
 20
1534.6426953645366
 10
3084.202455822251
 20
1534.2960204906253
 10
3084.609682384751
 20
1534.1103515453128
 10
3087.9896836574435
 20
1532.7350172012182
 10
3091.4713214268904
 20
1531.497837834733
 10
3095.021862110748
 20
1530.3943760914897
 10
3098.60857212667
 20
1529.4201946171215
 10
3102.1987178923137
 20
1528.570856057261
 10
3104.951723400376
 20
1527.9978027171878
 10
3105.373665674737
 20
1527.9168823191685
 10
3105.796344334081
 20
1527.8394610862726
 10
3106.219660347323
 20
1527.7653447652187
 10
3106.643514683379
 20
1527.6943391027255
 10
3107.067808311165
 20
1527.6262498455112
 10
3107.395571056626
 20
1527.5755615062503
 10
3110.3928657785937
 20
1527.1883660687547
 10
3113.398195783805
 20
1526.9111565442472
 10
3116.4089557929583
 20
1526.704423338865
 10
3119.4225405267507
 20
1526.5286568587442
 10
3122.4363447058813
 20
1526.3443475100216
 10
3124.761293712876
 20
1526.1712646312503
 10
3131.777394639364
 20
1525.6269788326954
 10
3138.797484607395
 20
1525.1370223419444
 10
3145.8187374221698
 20
1524.664422284454
 10
3152.838326888891
 20
1524.172205785682
 10
3159.8534268127587
 20
1523.6233999710855
 10
3165.263735119126
 20
1523.1376952953128
 10
3165.728090587876
 20
1523.0958251781253
 10
3169.045909452281
 20
1522.7869951117736
 10
3172.3472620267976
 20
1522.4150253789164
 10
3175.637358870029
 20
1521.986379662266
 10
3178.921410540581
 20
1521.5075216445368
 10
3182.2046275970574
 20
1520.9849150084412
 10
3184.741762462876
 20
1520.5556640453128
 10
3193.6631634890573
 20
1519.1104451583763
 10
3202.6242492508263
 20
1517.8480099210979
 10
3211.6140958577753
 20
1516.7591941492658
 10
3220.621779419497
 20
1515.8348336586669
 10
3229.6363760455843
 20
1515.0657642650895
 10
3236.592836681626
 20
1514.5725097484378
 10
3237.496645275376
 20
1514.5031738109378
 10
3244.521969487643
 20
1514.0507190975095
 10
3251.557821198604
 20
1513.8847254927011
 10
3258.6002620182044
 20
1513.9158707671006
 10
3265.645353556386
 20
1514.0548326912958
 10
3272.689157423094
 20
1514.212289035875
 10
3278.123110119126
 20
1514.2900390453128
 10
3283.4622209904664
 20
1514.39285154043
 10
3288.7879998188564
 20
1514.5473950800456
 10
3294.105405776301
 20
1514.6495956120316
 10
3299.4193980348045
 20
1514.5953790842602
 10
3304.7349357663734
 20
1514.2806714446035
 10
3308.842348400376
 20
1513.7938232250003
 10
3310.106996837876
 20
1513.5908202953128
 10
3310.4345837346136
 20
1513.5326512459121
 10
3310.7617960238904
 20
1513.472229205939
 10
3311.088610852379
 20
1513.4095656020568
 10
3311.4150053667518
 20
1513.3446718609293
 10
3311.7409567136824
 20
1513.2775594092202
 10
3311.992250744126
 20
1513.2242431468753
 10
3312.64152380014
 20
1513.0799829003245
 10
3313.2888189073756
 20
1512.9267414966994
 10
3313.9339608569917
 20
1512.7645075093358
 10
3314.5767744401464
 20
1512.59326951157
 10
3315.217084447998
 20
1512.413016076739
 10
3315.709535900376
 20
1512.2677001781253
 10
3316.027334138288
 20
1512.1713288982617
 10
3316.3448844643763
 20
1512.0734794358002
 10
3316.66202690535
 20
1511.974014670777
 10
3316.978601487919
 20
1511.8727974832289
 10
3317.294448238793
 20
1511.7696907531924
 10
3317.537660900376
 20
1511.6887206859378
 10
3317.8400290644386
 20
1511.5828857250003
 10
3317.8656731703168
 20
1511.5737572241087
 10
3317.936270037797
 20
1511.5479790721145
 10
3318.0423164916447
 20
1511.5079622950386
 10
3318.1743093566283
 20
1511.456117918902
 10
3318.322745457516
 20
1511.3948569697257
 10
3318.4425681269386
 20
1511.3426513500003
 10
3318.468021354078
 20
1511.331042060314
 10
3318.5380735171843
 20
1511.2981871951727
 10
3318.643263338792
 20
1511.247046260449
 10
3318.7741295414344
 20
1511.1805787620176
 10
3318.9212108476463
 20
1511.1017442057525
 10
3319.039858166001
 20
1511.0343017406253
 10
3319.923158947251
 20
1510.4532470531253
 10
3320.7192942816823
 20
1509.868417384918
 10
3321.501072648184
 20
1509.2639158133227
 10
3322.2675037359113
 20
1508.6398566049745
 10
3323.0175972340176
 20
1507.9963540265107
 10
3323.7503628316563
 20
1507.333522344566
 10
3324.303530041001
 20
1506.8087158031253
 10
3326.4176225522724
 20
1504.5737574858633
 10
3328.309818612622
 20
1502.1705408129742
 10
3329.9562593484397
 20
1499.6071901422818
 10
3331.3330858861136
 20
1496.8918298316107
 10
3332.416439352035
 20
1494.032584238785
 10
3333.036928478501
 20
1491.7321777171878
 10
3333.1358535285412
 20
1491.281625071615
 10
3333.231837181649
 20
1490.8299815472005
 10
3333.3251917666303
 20
1490.377563281637
 10
3333.4162296122895
 20
1489.924686412618
 10
3333.5052630474324
 20
1489.4716670778364
 10
3333.572817150376
 20
1489.1220702953128
 10
3333.6235489734863
 20
1488.851013090455
 10
3333.671935189909
 20
1488.5794595941932
 10
3333.7179605640927
 20
1488.3074631309576
 10
3333.7616098604854
 20
1488.0350770251787
 10
3333.8028678435358
 20
1487.7623546012865
 10
3333.833071056626
 20
1487.5516357250003
 10
3333.9442432624905
 20
1486.7473091574475
 10
3334.0523964235645
 20
1485.9419998968322
 10
3334.1571496510614
 20
1485.1359783741923
 10
3334.2581220561947
 20
1484.3295150205672
 10
3334.354932750177
 20
1483.522880266995
 10
3334.426576916001
 20
1482.9002685375003
 10
3334.483949962876
 20
1482.3615722484378
 10
3335.2744175363327
 20
1474.5776682148887
 10
3336.0716891197103
 20
1466.7798970230565
 10
3336.83710450114
 20
1458.9729245605795
 10
3337.532003468754
 20
1451.1614167150979
 10
3338.1177258106827
 20
1443.3500393742504
 10
3338.470766369126
 20
1437.3232421703128
 10
3338.491762462876
 20
1436.8226318187503
 10
3338.463005325944
 20
1431.8452444308462
 10
3338.046149513183
 20
1426.880019824682
 10
3337.1412269535886
 20
1422.0140444124909
 10
3335.648269576155
 20
1417.3344046065058
 10
3333.467309309878
 20
1412.9281868189596
 10
3331.250063244126
 20
1409.7689208812503
 10
3328.463442150376
 20
1407.1488036937503
 10
3328.027895275376
 20
1406.8439941234378
 10
3326.3087884094302
 20
1405.8125379307103
 10
3322.806948009751
 20
1404.3941650218753
 10
3321.398012462876
 20
1404.0416259593753
 10
3320.075366508194
 20
1403.7885096157465
 10
3318.7502751138636
 20
1403.5893219786308
 10
3317.421831764572
 20
1403.4344341794954
 10
3316.089129945007
 20
1403.3142173498081
 10
3314.751263139856
 20
1403.2190426210368
 10
3313.714418712876
 20
1403.1566161937503
 10
3307.2208633450055
 20
1402.7916543085973
 10
3300.727707442597
 20
1402.437777289415
 10
3294.23447108578
 20
1402.0945280696578
 10
3287.7406743546835
 20
1401.7614495827825
 10
3281.2458373294353
 20
1401.438084762244
 10
3276.231264416001
 20
1401.1948242015628
 10
3275.9327151388957
 20
1401.17766252006
 10
3275.6343563061837
 20
1401.1549087897956
 10
3275.336378362258
 20
1401.1266429974144
 10
3275.0389717515136
 20
1401.092945129562
 10
3274.742326918342
 20
1401.0538951728838
 10
3274.513979259751
 20
1401.0201415843753
 10
3274.1376936231627
 20
1400.9581435223974
 10
3273.7618955242215
 20
1400.8888358705303
 10
3273.3870725005745
 20
1400.8125157220284
 10
3273.013712089869
 20
1400.7294801701448
 10
3272.6423018297523
 20
1400.6400263081339
 10
3272.357240978501
 20
1400.5667724437503
 10
3271.960756603501
 20
1400.4555663890628
 10
3268.414333529236
 20
1398.734932044921
 10
3264.505740515181
 20
1394.3586311750541
 10
3263.865541759751
 20
1392.9675292796878
 10
3263.1830986493515
 20
1390.675073564706
 10
3262.872377697251
 20
1386.1831054515628
 10
3262.992739025376
 20
1385.1057128734378
 10
3263.9132008381657
 20
1378.7261102780876
 10
3264.8045476458974
 20
1372.343558868491
 10
3265.666200497615
 20
1365.9573082937384
 10
3266.497580442362
 20
1359.566608202919
 10
3267.2981085291835
 20
1353.170708245123
 10
3267.894594494126
 20
1348.2294921703128
 10
3268.641285193693
 20
1341.6821126377718
 10
3269.3357148782407
 20
1335.1296318016043
 10
3269.9910927708993
 20
1328.5732799325926
 10
3270.620628094797
 20
1322.014287301518
 10
3271.237530073064
 20
1315.453884179162
 10
3271.713442150376
 20
1310.3895263500003
 10
3271.755922619126
 20
1309.9482421703128
 10
3273.9950879640523
 20
1287.4185654862813
 10
3276.2855352391925
 20
1264.8931223476588
 10
3278.586562668781
 20
1242.3683857242802
 10
3280.8574684770506
 20
1219.8408285859778
 10
3283.0575508882357
 20
1197.3069239025856
 10
3284.681703869126
 20
1179.9057617015628
 10
3284.7231585627123
 20
1179.4459285495789
 10
3284.763762604679
 20
1178.9860256348072
 10
3284.8035007594744
 20
1178.52604914836
 10
3284.8423577915482
 20
1178.0659952813485
 10
3284.880318465349
 20
1177.6058602248859
 10
3284.908998791001
 20
1177.2506103343753
 10
3284.972231212876
 20
1176.4490966625003
 10
3284.986696168372
 20
1176.2610454743806
 10
3285.0013013176695
 20
1176.0691583352752
 10
3285.0158790697005
 20
1175.8754691913068
 10
3285.0302618334
 20
1175.682011988597
 10
3285.0442820177022
 20
1175.4908206732678
 10
3285.054750744126
 20
1175.3460693187503
 10
3285.149082445442
 20
1174.0263095602527
 10
3285.2417518679104
 20
1172.7063088394816
 10
3285.332020087284
 20
1171.3860900097645
 10
3285.419148179317
 20
1170.0656759244291
 10
3285.5023972197623
 20
1168.7450894368021
 10
3285.563539806626
 20
1167.7255859203128
 10
3285.711090034096
 20
1164.8136497848145
 10
3285.8123300657307
 20
1161.8981364354122
 10
3285.8660182040867
 20
1158.9806570316734
 10
3285.870912751717
 20
1156.0628227331672
 10
3285.825772011178
 20
1153.1462446994617
 10
3285.755922619126
 20
1150.8967284984378
 10
3285.7442088271728
 20
1150.6006878950634
 10
3285.7316443836
 20
1150.30466252724
 10
3285.7182140528566
 20
1150.00866763052
 10
3285.703902599391
 20
1149.7127184404544
 10
3285.688694787652
 20
1149.4168301925947
 10
3285.676332775376
 20
1149.1884765453128
 10
3285.5617498938345
 20
1147.4019542127917
 10
3285.4157930026313
 20
1145.6176851381374
 10
3285.260073009751
 20
1144.0393066234378
 10
3285.194917740854
 20
1143.4455710569196
 10
3285.1261376135344
 20
1142.8522320824957
 10
3285.0538011877734
 20
1142.2593125534931
 10
3284.9779770235523
 20
1141.6668353232399
 10
3284.898733680853
 20
1141.074823245062
 10
3284.835268322251
 20
1140.6181640453128
 10
3284.773256603501
 20
1140.1896972484378
 10
3284.740367037668
 20
1139.982290971179
 10
3284.7054654435424
 20
1139.7751567955215
 10
3284.6697935185703
 20
1139.5681271303986
 10
3284.6345929601966
 20
1139.3610343847442
 10
3284.601105465866
 20
1139.1537109674923
 10
3284.577211681626
 20
1138.9934081859378
 10
3284.402406994126
 20
1137.3623046703128
 10
3284.2649361118965
 20
1135.5649577833904
 10
3284.1434757894176
 20
1133.7668278693181
 10
3284.024489239204
 20
1131.9687147945494
 10
3283.8944396737693
 20
1130.1714184255359
 10
3283.7397903056276
 20
1128.3757386287302
 10
3283.595033947251
 20
1126.9912109203128
 10
3282.59609279173
 20
1120.623801967237
 10
3281.0976196038473
 20
1114.3353119676974
 10
3279.1525122183257
 20
1108.153347740968
 10
3276.8136684698875
 20
1102.1055161063223
 10
3274.1339861932556
 20
1096.2194238830325
 10
3271.865785900376
 20
1091.8038329906253
 10
3271.609438244126
 20
1091.3342284984378
 10
3269.3502258683416
 20
1087.676306400947
 10
3266.7774749332593
 20
1084.1241938715573
 10
3263.954199679782
 20
1080.7076116623093
 10
3260.9434143488106
 20
1077.4562805252435
 10
3257.808133181248
 20
1074.3999212124006
 10
3255.342592541001
 20
1072.1927490062503
 10
3252.1871391876675
 20
1069.6555443732182
 10
3248.8566991119765
 20
1067.2936396601672
 10
3245.4005288518474
 20
1065.0794166211597
 10
3241.867884945199
 20
1062.9852570102596
 10
3238.308023929953
 20
1060.9835425815295
 10
3235.572573009751
 20
1059.4841308421878
 10
3235.4222407254283
 20
1059.4029121293288
 10
3235.2615026931862
 20
1059.3174656846227
 10
3235.095957978191
 20
1059.230796720598
 10
3234.931205645612
 20
1059.145910449783
 10
3234.772844760615
 20
1059.065812084707
 10
3234.658510509751
 20
1059.0091552562503
 10
3233.571352306626
 20
1058.5177001781253
 10
3231.0928944014695
 20
1057.490740074991
 10
3228.6275009816
 20
1056.4440549445364
 10
3226.1706927948853
 20
1055.3829162875722
 10
3223.717990589191
 20
1054.312595604908
 10
3221.2649151123833
 20
1053.2383643973549
 10
3219.368227306626
 20
1052.4097900218753
 10
3215.583027480323
 20
1050.9107089014606
 10
3211.6738931259797
 20
1049.632681598799
 10
3207.680543326293
 20
1048.5548430261465
 10
3203.642697163959
 20
1047.6563280957569
 10
3199.6000737216737
 20
1046.9162717198847
 10
3196.501283947251
 20
1046.4401855296878
 10
3195.942934337876
 20
1046.3691406078128
 10
3191.690784884595
 20
1045.9331136731885
 10
3187.4669186286715
 20
1045.5499810977456
 10
3183.2629483990195
 20
1045.1409712714676
 10
3179.070487024551
 20
1044.6273125843409
 10
3174.8811473341793
 20
1043.9302334263493
 10
3171.644106212876
 20
1043.2169189281253
 10
3171.3712790644386
 20
1043.1571044750003
 10
3171.348178293302
 20
1043.1521689582248
 10
3171.2847442064704
 20
1043.1391652814896
 10
3171.1332232277464
 20
1043.1104476454332
 10
3171.007466088583
 20
1043.089104926741
 10
3170.8721838232514
 20
1043.069159134443
 10
3170.056948009751
 20
1043.0057372875003
 10
3168.1162728510144
 20
1042.9456701014096
 10
3166.1747450359844
 20
1042.9147200586003
 10
3164.2328749556345
 20
1042.8963642034978
 10
3162.291173000939
 20
1042.8740795805268
 10
3160.3501495628734
 20
1042.8313432341122
 10
3158.852602306626
 20
1042.7739257640628
 10
3151.663734992979
 20
1042.2459275224278
 10
3144.5422919436787
 20
1041.3813986038224
 10
3137.4731671094396
 20
1040.2320789410574
 10
3130.4412544409715
 20
1038.8497084669423
 10
3123.4314478889883
 20
1037.2860271142877
 10
3118.025942150376
 20
1035.9876708812503
 10
3116.994692150376
 20
1035.7189941234378
 10
3116.6996091006986
 20
1035.636359639129
 10
3116.405014925118
 20
1035.5516364141824
 10
3116.1110467435983
 20
1035.464626386428
 10
3115.817841676101
 20
1035.3751314936974
 10
3115.5255368425915
 20
1035.2829536738213
 10
3115.300600353501
 20
1035.2098388500003
 10
3114.170961681626
 20
1034.8071288890628
 10
3109.1568668987657
 20
1032.9238301016721
 10
3104.1313234008467
 20
1031.1346612283305
 10
3099.083673919613
 20
1029.4397898601042
 10
3094.0032611868073
 20
1027.8393835880597
 10
3088.879427934173
 20
1026.333610003263
 10
3084.887758556626
 20
1025.2360839671878
 10
3076.2773503643793
 20
1022.9782566402173
 10
3067.641941701645
 20
1020.7386887202417
 10
3059.011889404738
 20
1018.4475252037466
 10
3050.417550309973
 20
1016.0349110872178
 10
3041.889281253664
 20
1013.4309913671407
 10
3035.370424572251
 20
1011.2459716625001
 10
3032.8098190056908
 20
1010.3573939264529
 10
3030.207566525109
 20
1009.4368046261652
 10
3027.610882104528
 20
1008.4476193936557
 10
3025.0669807179697
 20
1007.3532538609454
 10
3022.6230773394564
 20
1006.1171236600537
 10
3020.834780041001
 20
1005.0428466625001
 10
3019.694887462876
 20
1004.1636962718751
 10
3016.9780810840266
 20
1001.050205166958
 10
3014.916304650616
 20
997.4892078296807
 10
3013.442217025124
 20
993.6083819902938
 10
3012.48847707003
 20
989.5354053790481
 10
3011.9877436478127
 20
985.3979557261948
 10
3011.868471447251
 20
982.2407226390626
 10
3011.837179854587
 20
979.6160992109487
 10
3011.8008009245004
 20
976.9556087557414
 10
3011.8090330259042
 20
974.2814456630524
 10
3011.9115745277113
 20
971.6158043224932
 10
3012.158123798833
 20
968.9808791236753
 10
3012.478334728501
 20
966.9819335765626
 10
3012.731020275376
 20
964.4447021312501
 10
3013.173869205142
 20
945.2448200019749
 10
3014.050658075875
 20
906.8743430839077
 10
3014.8798345785212
 20
868.5314353303017
 10
3015.6185182534527
 20
830.2023199937353
 10
3016.2238286410434
 20
791.8732203267859
 10
3016.6528852816655
 20
753.5303595820326
 10
3016.7334616816265
 20
743.0996093578124
 10
3016.7542332398375
 20
741.7017115727385
 10
3016.7973616332574
 20
740.3037011915983
 10
3016.8629992174006
 20
738.9062790497596
 10
3016.9512983477825
 20
737.5101459825896
 10
3017.0624113799176
 20
736.1160028254576
 10
3017.1638816035015
 20
735.0416259593749
 10
3017.3906882441265
 20
733.1893310374999
 10
3017.4392105313073
 20
732.8699306927413
 10
3017.490363356715
 20
732.5509163821075
 10
3017.544139102575
 20
732.2323223855892
 10
3017.600530151111
 20
731.9141829831769
 10
3017.6595288845474
 20
731.596532454862
 10
3017.7068503535015
 20
731.3516845531249
 10
3017.8368153891893
 20
730.718993519564
 10
3017.977455601527
 20
730.0884876516443
 10
3018.128717666084
 20
729.4603954826382
 10
3018.2905482584306
 20
728.8349455458176
 10
3018.4628940541365
 20
728.2123663744546
 10
3018.6030905878765
 20
727.7338867015624
 10
3018.7871726191265
 20
727.1397704906249
 10
3018.887952160278
 20
726.8322650581144
 10
3018.991513659645
 20
726.5257061008194
 10
3019.0962421487716
 20
726.2195451388868
 10
3019.200522659201
 20
725.9132336924633
 10
3019.302740222477
 20
725.606223281696
 10
3019.3792136347515
 20
725.3684081859374
 10
3019.9339011347515
 20
723.5736083812499
 10
3022.910712283716
 20
718.0276728403894
 10
3024.943628645822
 20
715.7359965387309
 10
3027.2763043469868
 20
713.7223337669875
 10
3029.8613034976916
 20
711.9545489382103
 10
3031.9993308222515
 20
710.7377929515624
 10
3036.6336123079072
 20
708.4311880920523
 10
3041.347440344663
 20
706.3330340416865
 10
3046.127674269372
 20
704.4004312963987
 10
3050.961173418887
 20
702.5904803521219
 10
3055.83479713006
 20
700.8602817047895
 10
3059.6160300410015
 20
699.5521240062499
 10
3062.773470727113
 20
698.5049347114252
 10
3065.9645869266565
 20
697.5462782035509
 10
3069.1886701864887
 20
696.7073073765059
 10
3072.445012053466
 20
696.0191751241691
 10
3075.7329040744453
 20
695.5130343404201
 10
3078.2920554316265
 20
695.2664794749999
 10
3079.2085593378765
 20
695.2392577953124
 10
3083.131960309196
 20
695.2568424316148
 10
3087.0648875094503
 20
695.2943255668376
 10
3091.000774415952
 20
695.3716276845348
 10
3094.933054506016
 20
695.508669268261
 10
3098.8551612569568
 20
695.7253708015696
 10
3101.8716452753765
 20
695.9597167796874
 10
3102.061669295057
 20
695.9779546302573
 10
3102.2552874347557
 20
695.9992417294259
 10
3102.4504657483503
 20
696.023307646155
 10
3102.6451702897198
 20
696.0498819494051
 10
3102.837367112742
 20
696.0786942081381
 10
3102.9827292597515
 20
696.1022949046874
 10
3108.0926202395035
 20
697.0169137654734
 10
3113.179207374359
 20
697.9904981522488
 10
3118.2615731925407
 20
698.95265600831
 10
3123.3588002222723
 20
699.8329952769532
 10
3128.489970991776
 20
700.5611239014747
 10
3132.4861472285015
 20
700.9746093578124
 10
3133.7861960566265
 20
701.1400146312499
 10
3137.182346928934
 20
701.7920327227293
 10
3140.5732621174348
 20
702.4978967270154
 10
3143.9698426592104
 20
703.1599124791605
 10
3147.382989591341
 20
703.6803858142171
 10
3150.8236039509075
 20
703.961622567238
 10
3153.5051901972515
 20
703.9533691234374
 10
3157.1909993650224
 20
703.7892348722396
 10
3160.883430384526
 20
703.6278587235415
 10
3164.578552483481
 20
703.4590938000613
 10
3168.272434889607
 20
703.2727932245159
 10
3171.961146830624
 20
703.0588101196229
 10
3174.8025534785015
 20
702.8682861156251
 10
3175.7464011347515
 20
702.7645263500001
 10
3176.1817902579146
 20
702.6915342568752
 10
3176.616314162132
 20
702.6103243879938
 10
3177.0497671674584
 20
702.5219784675105
 10
3177.4819435939494
 20
702.4275782195798
 10
3177.91263776166
 20
702.3282053683567
 10
3178.2439597285015
 20
702.2487792796876
 10
3178.4436000926457
 20
702.1994853011649
 10
3178.648129331382
 20
702.147515010942
 10
3178.8548736054263
 20
702.0935997154897
 10
3179.061159075495
 20
702.0384707212793
 10
3179.264311902304
 20
701.9828593347813
 10
3179.4172995722515
 20
701.9400634593751
 10
3179.8596823847515
 20
701.8101806468751
 10
3183.29038546632
 20
700.7637858119679
 10
3186.71188453741
 20
699.6724453653333
 10
3190.114931618275
 20
698.5209808888142
 10
3193.4902787291703
 20
697.2942139642525
 10
3196.8286778903507
 20
695.9769661734924
 10
3199.3745749628765
 20
694.8886718578126
 10
3203.4177177986844
 20
693.0199067898689
 10
3207.414638778246
 20
691.0527796659608
 10
3211.3845423141956
 20
689.0283769595287
 10
3215.346632819169
 20
686.987785144014
 10
3219.320114705799
 20
684.9720906928576
 10
3222.4072898066265
 20
683.4591064281251
 10
3222.558447305496
 20
683.3868956886322
 10
3222.73942772789
 20
683.300959053834
 10
3222.9351174067465
 20
683.208521984018
 10
3223.1304026750013
 20
683.1168099394704
 10
3223.310169865591
 20
683.0330483804792
 10
3223.4287741816265
 20
682.9783935375001
 10
3224.2566550410015
 20
682.6191406078126
 10
3225.7093075282005
 20
682.0427184113205
 10
3227.173746719068
 20
681.4941752691855
 10
3228.6487004450546
 20
680.9730960126305
 10
3230.1328965376124
 20
680.4790654728772
 10
3231.625062828194
 20
680.0116684811483
 10
3232.7815573847515
 20
679.6688232250001
 10
3236.3040222798068
 20
678.6625751212787
 10
3239.8473227268705
 20
677.6824466999124
 10
3243.4064843183864
 20
676.7399598467039
 10
3246.9765326467973
 20
675.8466364474561
 10
3250.5524933045463
 20
675.0139983879728
 10
3253.3137839472515
 20
674.4200439281251
 10
3254.4478171503765
 20
674.2309570140626
 10
3259.6914772321097
 20
673.8141055086462
 10
3264.9913943198817
 20
673.7200074648331
 10
3270.3191845812953
 20
673.8509382465722
 10
3275.646464183951
 20
674.1091732178136
 10
3280.9448492954507
 20
674.3969877425063
 10
3284.9971335566265
 20
674.5776367015626
 10
3285.7915671503765
 20
674.6353759593751
 10
3289.340081228341
 20
675.0930663668835
 10
3292.8453010815847
 20
675.5202064866573
 10
3296.3342393428725
 20
675.8845312295593
 10
3299.8339086449705
 20
676.1537755064535
 10
3303.3713216206447
 20
676.295674228202
 10
3306.1448386347515
 20
676.2977294750001
 10
3307.4261785573553
 20
676.3005827254296
 10
3308.708253795779
 20
676.3433084160717
 10
3309.9907444034425
 20
676.4078714628677
 10
3311.2733304337644
 20
676.4762367817586
 10
3312.5556919401633
 20
676.5303692886862
 10
3313.5452292597515
 20
676.5510253734376
 10
3316.2951752821764
 20
676.5127914616439
 10
3318.9935413454323
 20
676.3325742388267
 10
3321.648897447223
 20
675.981765148204
 10
3324.269813585254
 20
675.4317556329929
 10
3326.86485975723
 20
674.6539371364104
 10
3328.8557761347515
 20
673.8796386546876
 10
3329.3772605097515
 20
673.6445312328126
 10
3333.6607077753765
 20
670.8394775218751
 10
3334.8672507441265
 20
669.6820068187501
 10
3337.527760339881
 20
666.2493672873982
 10
3339.4952695218444
 20
662.3970875476573
 10
3340.919360934401
 20
658.2558467334186
 10
3341.949617221936
 20
653.9563239785741
 10
3342.7356210288335
 20
649.6291984170152
 10
3343.2698386347515
 20
646.3526611156251
 10
3343.4940493499644
 20
645.0064752476799
 10
3343.7219271554495
 20
643.659928069969
 10
3343.948345288136
 20
642.3127681958924
 10
3344.1681769849524
 20
640.9647442388509
 10
3344.376295482827
 20
639.6156048122455
 10
3344.5256980097515
 20
638.5732421703126
 10
3344.6099265253765
 20
637.8768310375001
 10
3345.968582282982
 20
625.1502980873388
 10
3347.1730518553713
 20
612.4067061977223
 10
3348.2973495516135
 20
599.6542787575586
 10
3349.415489680774
 20
586.9012391557565
 10
3350.6014865519205
 20
574.1558107812252
 10
3351.610170666001
 20
564.3276367015626
 10
3351.8014591696956
 20
562.7297906139338
 10
3352.0192300018075
 20
561.1352002567096
 10
3352.24859041077
 20
559.5420868792555
 10
3352.474647645015
 20
557.9486717309369
 10
3352.682508952976
 20
556.353176061119
 10
3352.821108166001
 20
555.1190185375001
 10
3352.901430431626
 20
552.3813476390626
 10
3353.7873845565346
 20
547.574795183863
 10
3355.783828886517
 20
543.1152630846188
 10
3358.745271522759
 20
539.2697696164862
 10
3362.526220566448
 20
536.3053330546213
 10
3366.98118411877
 20
534.4889716741804
 10
3370.789125744126
 20
534.0407714671876
 10
3371.013249791591
 20
534.0437986490851
 10
3371.23723017048
 20
534.0499711036391
 10
3371.46114305855
 20
534.0573996224668
 10
3371.6850646335583
 20
534.0641949971857
 10
3371.9090710732626
 20
534.068468019412
 10
3372.082094494126
 20
534.0688476390626
 10
3373.766718371616
 20
534.066547121877
 10
3375.4366962066806
 20
534.0893725014173
 10
3377.0986630819875
 20
534.1465108152233
 10
3378.7592540802034
 20
534.2471491008343
 10
3380.4251042839965
 20
534.4004743957905
 10
3381.718813244126
 20
534.5606689281251
 10
3383.858705822251
 20
534.6490478343751
 10
3393.660073693611
 20
534.5517002077747
 10
3403.4622938203274
 20
534.4277253812434
 10
3413.264459687087
 20
534.2696008012394
 10
3423.065664778577
 20
534.0698039142226
 10
3432.8650025794846
 20
533.8208121666516
 10
3440.427553478501
 20
533.5902099437501
 10
3441.532045666001
 20
533.5349120921876
 10
3443.29745643762
 20
533.3780508237433
 10
3445.054760559477
 20
533.2262799002285
 10
3446.8087343769603
 20
533.1143249523443
 10
3448.5641542354565
 20
533.0769116107906
 10
3450.3257964803533
 20
533.1487655062672
 10
3451.692934337876
 20
533.3009033031251
 10
3452.319399181626
 20
533.4049072093751
 10
3454.8242956271188
 20
533.9515789968377
 10
3457.488403182417
 20
534.7504467377719
 10
3460.0971062516637
 20
535.8592303189419
 10
3462.435789239002
 20
537.3356496271113
 10
3464.2898365485753
 20
539.2374245490453
 10
3465.253969494126
 20
541.0328368968751
 10
3465.298647228501
 20
541.1890868968751
 10
3466.194946969977
 20
545.539321870059
 10
3466.9345201984183
 20
549.921485614004
 10
3467.5752543916547
 20
554.3229440476496
 10
3468.1750370275167
 20
558.7310630899335
 10
3468.7917555838353
 20
563.1332086597961
 10
3469.315981212876
 20
566.5192870921876
 10
3471.162416759751
 20
572.5046386546876
 10
3471.389223400376
 20
572.9776611156251
 10
3472.0487285477725
 20
574.2472794315706
 10
3472.7658038989966
 20
575.5169542124777
 10
3473.5421786891416
 20
576.7643615665477
 10
3474.3795821532995
 20
577.9671776019809
 10
3475.279743526563
 20
579.1030784269788
 10
3476.018617931626
 20
579.9200439281251
 10
3477.169985119126
 20
580.9304199046876
 10
3477.3832903624716
 20
581.0819640465845
 10
3477.6007259103385
 20
581.227904512587
 10
3477.8220251405755
 20
581.3681118005077
 10
3478.0469214310324
 20
581.5024564081596
 10
3478.3904271186743
 20
581.6926975080964
 10
3479.850405041001
 20
582.3201904125001
 10
3481.2637643520898
 20
582.8030983097651
 10
3485.58576544869
 20
584.0652951505442
 10
3487.041475583064
 20
584.4199794444655
 10
3488.166323009751
 20
584.6699218578126
 10
3490.4468329256847
 20
585.0872602661248
 10
3494.796938244126
 20
585.5207519359376
 10
3494.971629830316
 20
585.528418714234
 10
3495.1548916814245
 20
585.5355851917698
 10
3495.3421912208883
 20
585.5421028219184
 10
3495.5289958721432
 20
585.5478230580527
 10
3495.7107730586254
 20
585.5525973535457
 10
3495.844789806626
 20
585.5555419750001
 10
3497.410219494126
 20
585.5588378734376
 10
3498.0980729472512
 20
585.5484465088052
 10
3498.7858765507212
 20
585.5350307535912
 10
3499.473668393415
 20
585.5208645138521
 10
3500.1614865642123
 20
585.5082216956464
 10
3500.8493691519902
 20
585.4993762050319
 10
3501.380434337876
 20
585.4965820140626
 10
3503.757468858039
 20
585.5119978065029
 10
3506.1342236588252
 20
585.554097932061
 10
3508.5108587135255
 20
585.6079058436371
 10
3510.8875339954297
 20
585.6584449941306
 10
3513.264409477829
 20
585.6907388364414
 10
3515.099428478501
 20
585.6937255687501
 10
3515.2968708258886
 20
585.6925057756475
 10
3515.473269803041
 20
585.6910543754348
 10
3515.64047105123
 20
585.6894475458705
 10
3515.810320211728
 20
585.687761464711
 10
3515.9946629258066
 20
585.6860723097141
 10
3516.154360119126
 20
585.6848144359376
 10
3546.789165784076
 20
585.4803177709994
 10
3577.424361960263
 20
585.30960313471
 10
3608.059811527724
 20
585.1723543893766
 10
3638.6953773664964
 20
585.0682553973064
 10
3669.3309223566157
 20
584.996990020806
 10
3692.979311291001
 20
584.9642333812502
 10
3693.0986240679204
 20
584.9641614490735
 10
3693.231298022429
 20
584.9641994400635
 10
3693.370248623091
 20
584.96434735422
 10
3693.50839133847
 20
584.9646051915437
 10
3693.6386416371306
 20
584.9649729520341
 10
3693.729311291001
 20
584.9653320140627
 10
3697.2103612963965
 20
584.9912596997041
 10
3700.69209917357
 20
585.0351933346202
 10
3704.174113562632
 20
585.0922308801236
 10
3707.6559931036923
 20
585.1574702975271
 10
3711.1373264368617
 20
585.2260095481432
 10
3713.824037853501
 20
585.2780761546877
 10
3714.741274181626
 20
585.2999267406252
 10
3715.560419043788
 20
585.3263161304811
 10
3716.379573929338
 20
585.3564933590702
 10
3717.198616953865
 20
585.3910145240212
 10
3718.0174262329565
 20
585.4304357229624
 10
3718.835879882201
 20
585.4753130535236
 10
3719.467348400376
 20
585.5140380687502
 10
3722.6732887194776
 20
585.8105357837311
 10
3724.1263682797835
 20
586.0044102652768
 10
3725.0838081660136
 20
586.1527278660989
 10
3725.929750744126
 20
586.2977294750002
 10
3727.758119884751
 20
586.6696777171877
 10
3727.913028534287
 20
586.7060801051365
 10
3728.070655794221
 20
586.7439779159102
 10
3728.2294552560766
 20
586.782997878497
 10
3728.38788051138
 20
586.8227667218863
 10
3728.544385151656
 20
586.8629111750664
 10
3728.662905041001
 20
586.8939208812502
 10
3730.0602902445603
 20
587.2965869413332
 10
3730.981071825706
 20
587.6003079651088
 10
3731.333803478501
 20
587.7250976390627
 10
3731.5607613560933
 20
587.8072855444588
 10
3731.787710546747
 20
587.890290890646
 10
3732.0144225171894
 20
587.9743155486816
 10
3732.2406687341495
 20
588.0595613896224
 10
3732.4662206643548
 20
588.1462302845254
 10
3732.639711681626
 20
588.2142333812502
 10
3732.8554099238136
 20
588.3040771312502
 10
3732.873708455837
 20
588.3118835137126
 10
3732.924104485705
 20
588.3342107799116
 10
3732.999848664114
 20
588.3694211080639
 10
3733.09419164176
 20
588.4158766763852
 10
3733.20038406934
 20
588.4719396630918
 10
3733.286196056626
 20
588.5207519359377
 10
3733.304437087808
 20
588.5317960735371
 10
3733.3546504581154
 20
588.5633769993439
 10
3733.430071582694
 20
588.6131674828697
 10
3733.523935876689
 20
588.6788402936266
 10
3733.629478755245
 20
588.7580682011277
 10
3733.714662853501
 20
588.8270263500002
 10
3733.732746183361
 20
588.8424433915476
 10
3733.7824712141532
 20
588.8857718295639
 10
3733.857050507695
 20
588.9526276341134
 10
3733.9496966258043
 20
589.0386267752582
 10
3734.0536221302987
 20
589.1393852230618
 10
3734.137270275376
 20
589.2244872875002
 10
3734.346498791001
 20
589.4426269359377
 10
3736.300104312919
 20
591.8608738352722
 10
3737.9471891176822
 20
594.5088828057836
 10
3739.2986466245957
 20
597.3351005501673
 10
3740.3653702529646
 20
600.2879737711186
 10
3741.158253422093
 20
603.315949171333
 10
3741.589906994126
 20
605.6721191234377
 10
3741.9440015398377
 20
608.5847101778703
 10
3742.153219757491
 20
611.5234393575589
 10
3742.247507123511
 20
614.4766971722794
 10
3742.256809114322
 20
617.4328741318071
 10
3742.211071206349
 20
620.3803607459182
 10
3742.157045666001
 20
622.6423339671877
 10
3742.153871837876
 20
622.7332763500002
 10
3742.1048813810703
 20
624.4839590656726
 10
3742.0584352613464
 20
626.2348332280761
 10
3742.0145715675826
 20
627.9858264683406
 10
3741.973328388658
 20
629.7368664175973
 10
3741.9347438134514
 20
631.4878807069764
 10
3741.906801525376
 20
632.8394775218752
 10
3737.1103112300343
 20
976.737257474287
 10
3737.1075373421195
 20
976.9321422004658
 10
3737.104793925307
 20
977.1270201775634
 10
3737.1020962151492
 20
977.3218990233544
 10
3737.0994594471977
 20
977.5167863556152
 10
3737.097475353501
 20
977.6672363109377
 10
3737.0939459189353
 20
977.9455680513303
 10
3737.0906158829885
 20
978.2238854248654
 10
3737.087332890146
 20
978.5021960493183
 10
3737.0839445848933
 20
978.7805075424657
 10
3737.080298611715
 20
979.058827522082
 10
3737.077211681626
 20
979.2736816234377
 10
3737.023989025376
 20
981.1148681468752
 10
3737.018088796697
 20
981.213216302944
 10
3737.009271227227
 20
981.3477690738736
 10
3736.9990598721133
 20
981.5002971223229
 10
3736.9889782865034
 20
981.6525711109526
 10
3736.9805500255443
 20
981.7863617024221
 10
3736.976137462876
 20
981.8654784984377
 10
3736.7784444699414
 20
986.6643017825628
 10
3736.6467132620346
 20
991.4684476199155
 10
3736.5603301380092
 20
996.2755659266812
 10
3736.4986813967193
 20
1001.0833066190443
 10
3736.441153337019
 20
1005.8893196131902
 10
3736.386537853501
 20
1009.5965576000002
 10
3735.67579812643
 20
1053.8500775399418
 10
3734.926876502837
 20
1098.1055082719108
 10
3733.967177037834
 20
1142.35557101119
 10
3732.6241037865334
 20
1186.5929869730617
 10
3730.7250608040467
 20
1230.810477372809
 10
3728.769838634751
 20
1264.9250488109378
 10
3728.739076916001
 20
1265.4271240062503
 10
3728.715960571821
 20
1265.8873542145682
 10
3728.696805604646
 20
1266.3479711252357
 10
3728.6815282189436
 20
1266.8088338094012
 10
3728.6700446191803
 20
1267.2698013382144
 10
3728.6622710098222
 20
1267.7307327828235
 10
3728.658754650376
 20
1268.0864257640628
 10
3728.658998791001
 20
1268.6666259593753
 10
3728.734382797335
 20
1271.7539000115723
 10
3728.9070953817686
 20
1274.8830314690485
 10
3729.1997613382428
 20
1278.0217895226574
 10
3729.6350054606987
 20
1281.1379433632535
 10
3730.235452543077
 20
1284.1992621816905
 10
3730.826235119126
 20
1286.5045165843753
 10
3730.993471447251
 20
1287.0466308421878
 10
3732.0355090950025
 20
1289.8086971620587
 10
3733.306994413858
 20
1292.567130938519
 10
3734.7962036469585
 20
1295.2550938072468
 10
3736.491413037443
 20
1297.8057474039194
 10
3738.3808988284513
 20
1300.1522533642146
 10
3739.964906994126
 20
1301.7817382640628
 10
3740.815737072251
 20
1302.4847411937503
 10
3743.2420770442745
 20
1304.128422231925
 10
3745.784443491305
 20
1305.645921498159
 10
3748.404442823624
 20
1307.0646858384353
 10
3751.0636814515137
 20
1308.4121620987366
 10
3753.723765785257
 20
1309.7157971250456
 10
3755.753481212876
 20
1310.7094726390628
 10
3756.540346447251
 20
1311.0430908031253
 10
3760.687785479704
 20
1312.8883876174195
 10
3764.5827841227306
 20
1315.175314284596
 10
3768.355522545912
 20
1317.6766401721763
 10
3772.1361809188297
 20
1320.1651346476817
 10
3776.0549394110635
 20
1322.413567078634
 10
3779.256655041001
 20
1323.8414306468753
 10
3779.470766369126
 20
1323.9295654125003
 10
3779.489028649893
 20
1323.9371925099438
 10
3779.539742521433
 20
1323.9588803507418
 10
3779.616798527604
 20
1323.992838757596
 10
3779.714087212264
 20
1324.037277553208
 10
3779.8254991192725
 20
1324.09040656028
 10
3779.917299572251
 20
1324.1362304515628
 10
3780.636537853501
 20
1324.5406493968753
 10
3780.8872202370812
 20
1324.694678838689
 10
3781.1362300511378
 20
1324.8517322701618
 10
3781.3835215890167
 20
1325.011645909115
 10
3781.629049144064
 20
1325.1742559733705
 10
3781.872767009625
 20
1325.3393986807496
 10
3782.059633556626
 20
1325.4685058421878
 10
3785.908266369126
 20
1328.7550048656253
 10
3786.672670666001
 20
1329.5850829906253
 10
3787.858831101721
 20
1331.016734152099
 10
3788.950892629142
 20
1332.5095458953128
 10
3789.9601067030285
 20
1334.0561746844562
 10
3790.8977247781445
 20
1335.6492769837173
 10
3791.774998309255
 20
1337.2815092572857
 10
3792.418031994126
 20
1338.5635986156253
 10
3792.660951916001
 20
1339.0734863109378
 10
3794.597231212876
 20
1344.3693847484378
 10
3794.874574962876
 20
1345.4644775218753
 10
3795.996645275376
 20
1352.7095947093753
 10
3796.637175600574
 20
1362.0722803804588
 10
3797.1648132965474
 20
1371.4600785836312
 10
3797.5797107188105
 20
1380.8618711752038
 10
3798.0718941642635
 20
1399.662966948792
 10
3798.141664806626
 20
1406.9036865062503
 10
3798.120745342907
 20
1410.2987717592437
 10
3798.031221527811
 20
1413.6852209938795
 10
3797.884337198327
 20
1417.0665117247825
 10
3797.6913361914444
 20
1420.4461214665762
 10
3797.463462344151
 20
1423.8275277338855
 10
3797.270815197251
 20
1426.4411620921878
 10
3797.148012462876
 20
1428.1473388500003
 10
3796.7564567761938
 20
1430.8746774701629
 10
3796.119112220534
 20
1433.5344263063605
 10
3795.273747728005
 20
1436.1327100502867
 10
3794.2581322307137
 20
1438.675653393634
 10
3793.1100346607677
 20
1441.169381028096
 10
3792.157045666001
 20
1443.0645751781253
 10
3791.672426525376
 20
1444.0831298656253
 10
3790.3760349552126
 20
1446.93607472476
 10
3789.004651595688
 20
1449.7436569993804
 10
3787.5886789897704
 20
1452.5248411421858
 10
3786.15851968043
 20
1455.2985916058751
 10
3784.7445762106345
 20
1458.0838728431468
 10
3783.683412853501
 20
1460.2537841625003
 10
3780.8280033245646
 20
1467.178483615092
 10
3778.6190562824218
 20
1474.4208119713153
 10
3776.9464110721306
 20
1481.8700715230384
 10
3775.6999070387487
 20
1489.4155645621295
 10
3774.769383527334
 20
1496.946593380457
 10
3774.197573009751
 20
1502.6801757640628
 10
3774.0754406465703
 20
1504.0925722570792
 10
3773.9726732037866
 20
1505.5064770028587
 10
3773.8899486634405
 20
1506.9216614681297
 10
3773.827945007573
 20
1508.3378971196198
 10
3773.7873402182245
 20
1509.754955424057
 10
3773.771059337876
 20
1510.8492431468753
 10
3773.706058294682
 20
1525.875904945163
 10
3773.7261134587416
 20
1540.9078806765576
 10
3773.757903738581
 20
1555.9418223286232
 10
3773.7281080427247
 20
1570.9743818889226
 10
3773.563405279698
 20
1586.0022113450195
 10
3773.297670666001
 20
1597.5972900218753
 10
3773.274803638072
 20
1598.3361069239836
 10
3773.2505855909526
 20
1599.0749965290743
 10
3773.2268752619225
 20
1599.813943601595
 10
3773.2055313882615
 20
1600.552932905995
 10
3773.18841270725
 20
1601.2919492067226
 10
3773.179262462876
 20
1601.8624267406253
 10
3773.179018322251
 20
1601.8988036937503
 10
3773.1791132103353
 20
1601.907442518651
 10
3773.1794375003856
 20
1601.9132190311216
 10
3773.180129181059
 20
1601.9155029270237
 10
3773.181325372319
 20
1601.9109461939204
 10
3773.182680431626
 20
1601.9006347484378
 10
3773.190004650376
 20
1601.7440185375003
 10
3773.147242360626
 20
1601.8673337944274
 10
3773.126127651036
 20
1602.032419720972
 10
3773.1202996788656
 20
1602.2182588738738
 10
3773.1233976013737
 20
1602.4038338098728
 10
3773.129060575819
 20
1602.5681270857087
 10
3773.131166759751
 20
1602.6671142406253
 10
3773.133364025376
 20
1602.7286376781253
 10
3773.1463330961324
 20
1603.596279146483
 10
3773.1517768736812
 20
1604.464215569769
 10
3773.1524149039606
 20
1605.332302210244
 10
3773.1509667329087
 20
1606.2003943301697
 10
3773.1501519064645
 20
1607.0683471918062
 10
3773.151674572251
 20
1607.7381591625003
 10
3773.4258402512633
 20
1659.718231923573
 10
3773.7653763351714
 20
1711.6990112667509
 10
3773.943715702675
 20
1737.6895706844323
 10
3774.2856519362103
 20
1789.6708385675875
 10
3774.5654179643534
 20
1841.6520512552738
 10
3774.731997542989
 20
1893.6329040364622
  0
LWPOLYLINE
  5
40
330
17
100
AcDbEntity
  8
0
100
AcDbPolyline
 90
35
 70
0
 10
3665.432436291001
 20
1556.1986083812503
 10
3665.27899951354
 20
1556.246676958693
 10
3664.509499474962
 20
1556.464403853853
 10
3663.6794913086956
 20
1556.6610306117689
 10
3662.8262858238395
 20
1556.822685794829
 10
3661.9871938294914
 20
1556.9354979654229
 10
3661.199526134751
 20
1556.9855956859378
 10
3661.046181987321
 20
1556.986104950149
 10
3660.2892307580437
 20
1556.9331631151495
 10
3659.4895685347424
 20
1556.8084301092845
 10
3658.681592317385
 20
1556.638083403092
 10
3657.8996991059403
 20
1556.44830046711
 10
3657.178285900376
 20
1556.2652587718753
 10
3657.0955097196847
 20
1556.2432009100553
 10
3656.7080804481934
 20
1556.1103310166868
 10
3656.322707351672
 20
1555.93825654438
 10
3655.944722016777
 20
1555.740657765877
 10
3655.579456030168
 20
1555.5312149539197
 10
3655.232240978501
 20
1555.3236083812503
 10
3654.5828271822033
 20
1554.9026083756173
 10
3650.428908529358
 20
1549.4881932555193
 10
3650.015204389758
 20
1542.766692209521
 10
3651.342104259751
 20
1539.5278320140628
 10
3651.609573436393
 20
1539.1077653090208
 10
3654.809730214141
 20
1535.940723792799
 10
3658.944780426785
 20
1534.2397786423687
 10
3661.213198009751
 20
1533.9857177562503
 10
3662.2866879157787
 20
1534.0427088445867
 10
3670.187837107769
 20
1538.4465672599088
 10
3672.2375075445116
 20
1542.4432657775303
 10
3671.085024181626
 20
1551.4497070140628
 10
3670.928429482443
 20
1551.7009158019744
 10
3669.0942347864684
 20
1553.9219782856749
 10
3667.9680579063906
 20
1554.870343182831
 10
3666.738465660638
 20
1555.6454953417897
  0
LWPOLYLINE
  5
41
330
17
100
AcDbEntity
  8
0
100
AcDbPolyline
 90
32
 70
0
 10
3703.679018322251
 20
724.9743652171877
 10
3703.5255236419334
 20
724.9749280423656
 10
3702.7678437206105
 20
724.9220831788147
 10
3701.9674490452408
 20
724.7972636640312
 10
3701.158777978252
 20
724.6267399860056
 10
3700.376268882071
 20
724.4367826327283
 10
3699.654360119126
 20
724.2536620921877
 10
3699.5715839723243
 20
724.2316192801478
 10
3699.1841608335812
 20
724.0988196190109
 10
3698.7988189631046
 20
723.9268153789354
 10
3698.4209106126177
 20
723.7292868326639
 10
3698.0557880338424
 20
723.5199142529383
 10
3697.708803478501
 20
723.3123779125002
 10
3697.514995341089
 20
723.1932122197028
 10
3693.821108166001
 20
719.4393310375002
 10
3693.306565890764
 20
718.4956134693426
 10
3692.970774589167
 20
709.5268921662549
 10
3703.690492931626
 20
701.9742431468752
 10
3704.7642124619047
 20
702.0312463111817
 10
3712.668469005201
 20
706.4350488376723
 10
3714.7194993824896
 20
710.4317214404988
 10
3713.566713634751
 20
719.4384765453127
 10
3713.410058719502
 20
719.689684748629
 10
3711.575283486279
 20
721.9107191693084
 10
3710.448787185072
 20
722.8590879323818
 10
3709.2188423064767
 20
723.6342834422952
 10
3707.912416759751
 20
724.1874999828127
 10
3707.7589487624928
 20
724.2355803676732
 10
3706.9893114541733
 20
724.4532834216901
 10
3706.159178649385
 20
724.6498125305137
 10
3705.3058714547324
 20
724.8113685972797
 10
3704.4667109768197
 20
724.9241525251258
  0
LWPOLYLINE
  5
42
330
17
100
AcDbEntity
  8
0
100
AcDbPolyline
 90
26
 70
0
 10
3683.205385509751
 20
1836.4724120921878
 10
3684.180185857135
 20
1816.3010588471693
 10
3689.194155041001
 20
1815.1343993968753
 10
3691.3411073020447
 20
1815.3434058144883
 10
3697.558071397278
 20
1818.697101837719
 10
3700.129478322458
 20
1823.0768959927623
 10
3698.942818460871
 20
1832.783287077535
 10
3695.185121837876
 20
1836.4732665843753
 10
3694.9801657508683
 20
1836.5954727087546
 10
3694.6039975419594
 20
1836.8114519128287
 10
3694.2158057582456
 20
1837.0162331808228
 10
3693.8191994965014
 20
1837.1986190586413
 10
3693.417787853501
 20
1837.3474120921878
 10
3692.943765698907
 20
1837.4904322188663
 10
3691.053198697658
 20
1837.9294376860921
 10
3690.086892497511
 20
1838.071492326177
 10
3689.180727306626
 20
1838.1343993968753
 10
3688.7095194721246
 20
1838.1228324087876
 10
3687.8140737075432
 20
1838.017884633369
 10
3686.8885608122205
 20
1837.8384929711797
 10
3685.9843101625056
 20
1837.6239564759878
 10
3685.152651134751
 20
1837.4135742015628
 10
3684.903793853731
 20
1837.3403947454203
 10
3684.4611424279897
 20
1837.1645060581568
 10
3684.0251153914146
 20
1836.9475320841323
 10
3683.603825500002
 20
1836.7099937774435
  0
LWPOLYLINE
  5
43
330
17
100
AcDbEntity
  8
0
100
AcDbPolyline
 90
35
 70
0
 10
3684.895571056626
 20
1057.5568847484378
 10
3684.7417127611498
 20
1057.5574602086886
 10
3683.9822794981164
 20
1057.504619342945
 10
3683.1800613673436
 20
1057.3797399855987
 10
3682.3695277288857
 20
1057.2091287885362
 10
3681.585147942795
 20
1057.0190924036456
 10
3680.861391369126
 20
1056.8359374828128
 10
3680.778433421882
 20
1056.8139085174732
 10
3680.3901351456834
 20
1056.6811467378905
 10
3680.003889354272
 20
1056.5091515958884
 10
3679.625068964434
 20
1056.311624029275
 10
3679.259046892956
 20
1056.1022649758559
 10
3678.911196056626
 20
1055.8947753734378
 10
3678.0441322612883
 20
1055.320621316106
 10
3673.5369901984104
 20
1047.780113629552
 10
3675.503179899552
 20
1039.3783660155748
 10
3678.912172619126
 20
1036.2248534984378
 10
3679.1389781744465
 20
1036.0922861127383
 10
3681.347243126302
 20
1035.1280412770675
 10
3682.505630254527
 20
1034.8247685423532
 10
3683.693822311065
 20
1034.6356522121923
 10
3684.907045666001
 20
1034.5568847484378
 10
3685.400046326686
 20
1034.5710064008817
 10
3693.426386081851
 20
1038.2761153615052
 10
3694.806459728501
 20
1040.0986327953128
 10
3695.2065055688313
 20
1040.819919089756
 10
3696.3126761525173
 20
1044.4745622837497
 10
3694.938428434054
 20
1051.9012828724158
 10
3692.5651584916745
 20
1054.858991402711
 10
3689.139223400376
 20
1056.7700195140628
 10
3688.9853604995915
 20
1056.81808487456
 10
3688.213800101222
 20
1057.035722295907
 10
3687.381657855943
 20
1057.232204592033
 10
3686.526316865552
 20
1057.3937481648734
 10
3685.6851602318466
 20
1057.5065694163634
  0
LWPOLYLINE
  5
44
330
17
100
AcDbEntity
  8
0
100
AcDbPolyline
 90
54
 70
0
 10
4053.7997923847506
 20
1998.9999771000003
 10
4045.9257994648287
 20
1997.9839706302737
 10
4042.3698149677584
 20
1996.7139816166018
 10
4039.3217955585787
 20
1994.935951221094
 10
4035.7658110615084
 20
1991.8879318119143
 10
4032.4638091083834
 20
1987.5699233890628
 10
4029.9238310810397
 20
1982.4899673343753
 10
4028.399783229477
 20
1976.6479873539065
 10
4023.5738097187354
 20
1764.303970325098
 10
4016.3040293246463
 20
1675.3645231303244
 10
4013.15983877147
 20
1645.9399413944338
 10
4006.809817409165
 20
1598.69594572793
 10
4005.2857695576026
 20
1576.3439559818362
 10
4004.2698393818214
 20
1557.8019714237307
 10
4004.5238219257667
 20
1550.6899642826174
 10
4005.5398283954933
 20
1543.3239555240725
 10
4008.079806422837
 20
1537.4819564701174
 10
4013.9217864033058
 20
1528.8459586979006
 10
4021.0338316913917
 20
1522.749958026514
 10
4029.161807155259
 20
1518.9399528385256
 10
4033.7337981220558
 20
1517.6699447513674
 10
4038.559771632798
 20
1516.9079589725588
 10
4313.641787624008
 20
1516.145954120264
 10
4319.737788295395
 20
1516.9079589725588
 10
4325.325785731919
 20
1518.9399528385256
 10
4328.373805141098
 20
1520.7179450870608
 10
4331.16780385936
 20
1523.5119628788088
 10
4338.279811000473
 20
1532.6559448124026
 10
4341.581812953598
 20
1538.497962939844
 10
4344.121790980942
 20
1545.6099700809573
 10
4345.645800685532
 20
1552.2139358402346
 10
4348.439799403794
 20
1570.5019378543948
 10
4349.963809108383
 20
1577.1059417606448
 10
4352.249804591782
 20
1583.9639663578128
 10
4359.107791041977
 20
1596.9179534793948
 10
4368.251811122544
 20
1610.37994383584
 10
4382.073015819902
 20
1627.3530882505977
 10
4401.525813197739
 20
1649.4959640384768
 10
4407.367793178208
 20
1655.3379440189456
 10
4425.655795192368
 20
1672.8639602542971
 10
4430.735789394028
 20
1678.9599609256838
 10
4434.291812038071
 20
1685.0559615970706
 10
4438.6098204609225
 20
1697.7559661747073
 10
4440.13379201854
 20
1704.6139526249026
 10
4441.149798488266
 20
1711.7259597660159
 10
4440.641795253403
 20
1763.2879638553713
 10
4439.625788783676
 20
1971.059989917383
 10
4437.593813991196
 20
1977.9179763675784
 10
4435.561801051743
 20
1981.727943408594
 10
4432.513819789536
 20
1985.537986743555
 10
4428.7038146015475
 20
1989.0939712406253
 10
4419.813815211899
 20
1994.935951221094
 10
4414.987803554184
 20
1996.7139816166018
 10
4404.319811916001
 20
1998.7459182621096
  0
LWPOLYLINE
  5
45
330
17
100
AcDbEntity
  8
0
100
AcDbPolyline
 90
24
 70
0
 10
4397.207804774887
 20
1942.61196135293
 10
4393.651820277817
 20
1942.103919971094
 10
4390.349818324692
 20
1940.5799484134768
 10
4387.301798915512
 20
1938.5479354740237
 10
4385.015803432114
 20
1935.499916064844
 10
4383.745814418442
 20
1932.1979904056643
 10
4383.237811183579
 20
1928.6419296146487
 10
4383.745814418442
 20
1924.831962573633
 10
4385.015803432114
 20
1921.529960620508
 10
4387.301798915512
 20
1918.7359237552737
 10
4390.349818324692
 20
1916.4499282718753
 10
4393.651820277817
 20
1914.925956714258
 10
4397.207804774887
 20
1914.4179916263674
 10
4400.763789271958
 20
1914.925956714258
 10
4404.319811916001
 20
1916.4499282718753
 10
4407.113810634262
 20
1918.7359237552737
 10
4409.399806117661
 20
1921.529960620508
 10
4410.669795131333
 20
1924.831962573633
 10
4411.177798366196
 20
1928.6419296146487
 10
4410.669795131333
 20
1932.1979904056643
 10
4409.399806117661
 20
1935.499916064844
 10
4407.113810634262
 20
1938.5479354740237
 10
4404.319811916001
 20
1940.5799484134768
 10
4400.763789271958
 20
1942.103919971094
  0
LWPOLYLINE
  5
46
330
17
100
AcDbEntity
  8
0
100
AcDbPolyline
 90
23
 70
0
 10
4081.9938384052584
 20
1944.8979568363284
 10
4078.1837950702975
 20
1944.3899917484378
 10
4074.8817931171725
 20
1942.8659438968753
 10
4072.0878325458834
 20
1940.8339309574221
 10
4069.801837062485
 20
1937.7859878421878
 10
4068.2777892109225
 20
1934.4839858890628
 10
4067.769824123032
 20
1930.9279250980471
 10
4068.2777892109225
 20
1927.1179580570315
 10
4069.801837062485
 20
1923.8159561039065
 10
4072.0878325458834
 20
1921.0219192386721
 10
4074.8817931171725
 20
1918.7359237552737
 10
4078.1837950702975
 20
1917.2119521976565
 10
4085.5498229023287
 20
1917.2119521976565
 10
4088.8518248554537
 20
1918.7359237552737
 10
4091.645785426743
 20
1921.0219192386721
 10
4093.9317809101412
 20
1923.8159561039065
 10
4095.4558287617037
 20
1927.1179580570315
 10
4095.9637938495944
 20
1930.9279250980471
 10
4095.4558287617037
 20
1934.4839858890628
 10
4093.9317809101412
 20
1937.7859878421878
 10
4091.645785426743
 20
1940.8339309574221
 10
4088.8518248554537
 20
1942.8659438968753
 10
4085.5498229023287
 20
1944.3899917484378
  0
LWPOLYLINE
  5
47
330
17
100
AcDbEntity
  8
0
100
AcDbPolyline
 90
78
 70
0
 10
4018.239643384751
 20
867.0172904919879
 10
4018.239643384751
 20
746.3672660779254
 10
4016.969578077133
 20
607.6832603406207
 10
4019.7636149423683
 20
596.7612480115191
 10
4023.827640821274
 20
586.3472770642535
 10
4029.6696208017433
 20
575.4252647351519
 10
4036.781589795883
 20
565.5192588757769
 10
4044.655582715805
 20
557.1373008679644
 10
4053.291599561508
 20
550.2793144177691
 10
4060.403568555649
 20
545.9613059949176
 10
4068.277637769516
 20
542.6593040417926
 10
4076.6595957773293
 20
539.8652671765582
 10
4085.2956126230324
 20
537.833254237105
 10
4198.833591749008
 20
537.5792716931597
 10
4214.073612500961
 20
539.1033195447222
 10
4229.56761579686
 20
541.643297572066
 10
4241.251575757798
 20
544.437258143355
 10
4251.411640455063
 20
548.247301478316
 10
4260.047581006821
 20
553.0732749890582
 10
4268.429615308579
 20
558.6612724255817
 10
4274.017612745102
 20
563.4873222302692
 10
4278.335621167954
 20
568.3132957410114
 10
4281.3836405771335
 20
573.1392692517536
 10
4282.907612134751
 20
576.9493125867145
 10
4283.669636060532
 20
581.5213035535114
 10
4284.6856425302585
 20
598.539278407027
 10
4285.4475901620945
 20
622.1612571667927
 10
4286.717579175766
 20
628.0033134412067
 10
4288.495609571274
 20
632.8292869519489
 10
4293.067600538071
 20
640.4492973279255
 10
4298.147632886704
 20
646.0372947644489
 10
4304.497577955063
 20
650.1013206433552
 10
4311.8636057870945
 20
653.1492637585895
 10
4385.523578931626
 20
651.1172508191364
 10
4394.667637159165
 20
652.133257288863
 10
4403.049595166977
 20
654.4192527722614
 10
4410.669605542954
 20
657.7212547253864
 10
4417.7815745370945
 20
662.2933219861286
 10
4424.131595899399
 20
667.881319422652
 10
4429.973575879868
 20
674.7393058728474
 10
4434.54564314061
 20
681.851274866988
 10
4438.609592725571
 20
691.2493156384724
 10
4441.149570752915
 20
701.663286585738
 10
4440.1336405771335
 20
947.0272849988239
 10
4438.609592725571
 20
953.6312889050739
 10
4436.323597242173
 20
959.7272895764605
 10
4433.275577832993
 20
965.3152870129841
 10
4429.973575879868
 20
970.1412986706989
 10
4424.89361982518
 20
974.7132896374958
 10
4419.051639844712
 20
979.0312980603475
 10
4412.193577100571
 20
982.3333000134725
 10
4404.827625562485
 20
984.8732780408161
 10
4284.939625074204
 20
984.1112922620075
 10
4268.9375803964695
 20
993.2552741956014
 10
4253.443577100571
 20
1003.415300745894
 10
4234.647571851548
 20
1018.4013008069293
 10
4226.265613843735
 20
1023.7352775525349
 10
4221.439640332994
 20
1025.767290491988
 10
4210.771610547836
 20
1028.3072685193317
 10
4204.675571729476
 20
1028.815271754195
 10
4194.769642164047
 20
1029.069292445113
 10
4168.353626539047
 20
1027.799303431441
 10
4159.209568311508
 20
1028.0532859753864
 10
4109.171573926744
 20
1032.371294398238
 10
4095.455601026352
 20
1032.6252769421833
 10
4083.2635996835793
 20
1031.6092704724567
 10
4060.403568555649
 20
1028.3072685193317
 10
4053.291599561508
 20
1026.2752937268515
 10
4046.9415781992043
 20
1023.4812950085893
 10
4036.781589795883
 20
1015.8612846326129
 10
4032.209598829086
 20
1011.0352729748979
 10
4027.891590406235
 20
1005.4472755383746
 10
4020.017597486313
 20
991.731302637984
 10
4013.413593580063
 20
975.4752754163043
 10
4011.127598096665
 20
965.315287012984
 10
4010.111591626938
 20
953.885271449019
 10
4010.365574170883
 20
941.6932701062457
 10
4014.42960004979
 20
892.1632789563433
  0
LWPOLYLINE
  5
48
330
17
100
AcDbEntity
  8
0
100
AcDbPolyline
 90
24
 70
0
 10
4090.883610059555
 20
942.7092765759724
 10
4090.375568677719
 20
946.2652992200151
 10
4089.105579664047
 20
949.5673011731401
 10
4086.819584180649
 20
952.3612998914018
 10
4083.771641065415
 20
954.6472953748004
 10
4080.46963911229
 20
956.1712669324176
 10
4076.913578321274
 20
956.679270167281
 10
4073.3575938242043
 20
956.1712669324176
 10
4069.801609327133
 20
954.6472953748004
 10
4067.007572461899
 20
952.3612998914018
 10
4064.721576978501
 20
949.5673011731401
 10
4063.4515879648293
 20
946.2652992200151
 10
4062.943622876938
 20
942.7092765759724
 10
4063.4515879648293
 20
938.899271387984
 10
4064.721576978501
 20
935.597269434859
 10
4067.007572461899
 20
932.8032707165974
 10
4069.801609327133
 20
930.5172752331988
 10
4073.3575938242043
 20
928.9933036755816
 10
4076.913578321274
 20
928.4853004407183
 10
4080.46963911229
 20
928.9933036755816
 10
4083.771641065415
 20
930.5172752331988
 10
4086.819584180649
 20
932.8032707165974
 10
4089.105579664047
 20
935.597269434859
 10
4090.375568677719
 20
938.899271387984
  0
LWPOLYLINE
  5
49
330
17
100
AcDbEntity
  8
0
100
AcDbPolyline
 90
24
 70
0
 10
4088.343632032211
 20
628.2572959851519
 10
4087.835590650376
 20
631.8132804822222
 10
4086.311619092758
 20
635.1152824353472
 10
4084.02562360936
 20
638.1633018445269
 10
4081.231586744126
 20
640.19531478398
 10
4077.929584791001
 20
641.7192863415972
 10
4074.37360029393
 20
642.2272514294879
 10
4070.563633252915
 20
641.7192863415972
 10
4067.26163129979
 20
640.19531478398
 10
4064.467594434555
 20
638.1633018445269
 10
4062.1815989511574
 20
635.1152824353472
 10
4060.65762739354
 20
631.8132804822222
 10
4060.1495860117043
 20
628.2572959851519
 10
4060.65762739354
 20
624.447252650191
 10
4062.1815989511574
 20
621.145250697066
 10
4064.467594434555
 20
618.3512901257769
 10
4067.26163129979
 20
616.0652946423785
 10
4070.563633252915
 20
614.5413230847613
 10
4074.37360029393
 20
614.0332817029254
 10
4077.929584791001
 20
614.5413230847613
 10
4081.231586744126
 20
616.0652946423785
 10
4084.02562360936
 20
618.3512901257769
 10
4086.311619092758
 20
621.145250697066
 10
4087.835590650376
 20
624.447252650191
  0
LWPOLYLINE
  5
4A
330
17
100
AcDbEntity
  8
0
100
AcDbPolyline
 90
78
 70
0
 10
4166.3216743847515
 20
1469.4570706225668
 10
4046.43367389647
 20
1469.9650357104567
 10
4039.067722358384
 20
1467.4250576831137
 10
4032.2097359081886
 20
1464.1230557299887
 10
4026.3676796337745
 20
1460.0590298510817
 10
4021.287723579087
 20
1455.2329800463947
 10
4014.9377022167823
 20
1445.0730679370197
 10
4012.651706733384
 20
1438.9770291186596
 10
4011.1277351757667
 20
1432.3730252124096
 10
4010.11172870604
 20
1187.0090267993237
 10
4012.651706733384
 20
1176.5950558520587
 10
4016.71573261229
 20
1167.1970150805737
 10
4021.287723579087
 20
1159.8310635424887
 10
4027.1297035595558
 20
1153.2270596362387
 10
4033.4797249218605
 20
1147.6390621997148
 10
4040.591693916001
 20
1143.0670712329177
 10
4048.2117042919776
 20
1139.7650692797927
 10
4056.5937385937355
 20
1137.4790737963947
 10
4065.737720527329
 20
1136.2090847827228
 10
4075.1356850048683
 20
1136.2090847827228
 10
4139.397693671861
 20
1138.2410214282306
 10
4146.763721503892
 20
1135.4470608569418
 10
4153.113742866197
 20
1131.1290524340898
 10
4158.193698920884
 20
1125.7950375415119
 10
4162.765689887681
 20
1117.9210446215895
 10
4164.543720283189
 20
1113.0950711108478
 10
4165.559726752916
 20
1107.2530148364337
 10
4167.591739692369
 20
1066.6130612231523
 10
4168.353687324205
 20
1062.2950528003007
 10
4169.877735175767
 20
1058.485085759285
 10
4172.9256782910015
 20
1053.4050534106523
 10
4177.243686713853
 20
1048.57907989991
 10
4182.8316841503765
 20
1044.007012639168
 10
4191.213718452134
 20
1038.1650326586991
 10
4199.8497352978375
 20
1033.339059147957
 10
4209.7557411572125
 20
1029.7830746508866
 10
4221.693683662095
 20
1026.735055241707
 10
4237.187686957994
 20
1024.1950772143632
 10
4252.427707709947
 20
1022.9250119067458
 10
4365.965686835923
 20
1022.9250119067459
 10
4374.6017036816265
 20
1024.9570248461991
 10
4382.983737983384
 20
1027.7510617114335
 10
4390.603672065416
 20
1031.3070462085038
 10
4397.7157173535015
 20
1035.37107208741
 10
4406.60571674315
 20
1042.4830410815507
 10
4414.479709663072
 20
1050.8650753833085
 10
4421.5916786572125
 20
1060.7710812426835
 10
4427.4337349316265
 20
1071.6930172778398
 10
4431.4976845165875
 20
1081.8530819751054
 10
4434.291721381822
 20
1093.0290768481523
 10
4433.02173236815
 20
1231.7130825854567
 10
4433.02173236815
 20
1352.3630307055737
 10
4436.831699409166
 20
1377.5090573169027
 10
4440.895725288072
 20
1427.0390103198317
 10
4441.149707832016
 20
1438.9770291186596
 10
4440.133701362291
 20
1450.6609890795978
 10
4437.593723334947
 20
1460.8210537768637
 10
4431.243701972641
 20
1477.0770047045978
 10
4427.4337349316265
 20
1484.1889736987387
 10
4423.36970905272
 20
1490.5390713549887
 10
4419.051700629869
 20
1496.1269924975668
 10
4414.479709663072
 20
1501.2071011401447
 10
4409.399677314439
 20
1505.2709744311596
 10
4404.3197212597515
 20
1508.5729763842846
 10
4397.969699897447
 20
1511.3670132495197
 10
4390.603672065416
 20
1513.3990261889728
 10
4382.729679145494
 20
1514.9230740405346
 10
4355.551715888658
 20
1517.7171109057697
 10
4341.835742988266
 20
1517.7171109057697
 10
4291.797672309555
 20
1513.1451199389728
 10
4282.907672919908
 20
1513.1451199389728
 10
4246.585727729477
 20
1514.1610501147536
 10
4234.901691474595
 20
1512.3830960131918
 10
4229.821735419908
 20
1510.8590481616286
 10
4224.99568561522
 20
1508.8270352221757
 10
4216.3597450634625
 20
1503.4930203295978
 10
4197.817722358384
 20
1488.5070584155346
 10
4182.323719062486
 20
1478.6010525561596
  0
LWPOLYLINE
  5
4B
330
17
100
AcDbEntity
  8
0
100
AcDbPolyline
 90
24
 70
0
 10
4360.3776893994
 20
1427.8010342456137
 10
4360.885730781236
 20
1424.2449734545978
 10
4362.155719794908
 20
1420.6890652514728
 10
4364.441715278305
 20
1417.8950283862387
 10
4367.489734687486
 20
1415.6091091967846
 10
4370.791736640611
 20
1414.3391201831137
 10
4374.34772113768
 20
1413.8310025073317
 10
4377.9037056347515
 20
1414.3391201831137
 10
4381.459690131822
 20
1415.6091091967846
 10
4384.253726997055
 20
1417.8950283862387
 10
4386.539722480455
 20
1420.6890652514728
 10
4387.8097114941265
 20
1424.2449734545978
 10
4388.317676582016
 20
1427.8010342456137
 10
4387.8097114941265
 20
1431.3570950366286
 10
4386.539722480455
 20
1434.9130032397536
 10
4384.253726997055
 20
1437.7070401049887
 10
4381.459690131822
 20
1439.9931118823317
 10
4377.9037056347515
 20
1441.2631008960036
 10
4374.34772113768
 20
1441.7710659838947
 10
4370.791736640611
 20
1441.2631008960036
 10
4367.489734687486
 20
1439.9931118823317
 10
4364.441715278305
 20
1437.7070401049887
 10
4362.155719794908
 20
1434.9130032397536
 10
4360.885730781236
 20
1431.3570950366286
  0
LWPOLYLINE
  5
4C
330
17
100
AcDbEntity
  8
0
100
AcDbPolyline
 90
24
 70
0
 10
4362.917743720689
 20
1113.3490536547927
 10
4363.42570880858
 20
1109.7930691577228
 10
4364.949680366197
 20
1106.4910672045978
 10
4366.98169330565
 20
1103.4430477954177
 10
4370.02971271483
 20
1101.1570523120195
 10
4373.331714667955
 20
1099.8870632983476
 10
4376.887699165025
 20
1099.3790219165116
 10
4380.697742499986
 20
1099.8870632983476
 10
4383.999744453111
 20
1101.1570523120195
 10
4386.7937050244
 20
1103.4430477954177
 10
4389.079700507798
 20
1106.4910672045978
 10
4390.603672065416
 20
1109.7930691577228
 10
4390.857730903305
 20
1113.3490536547927
 10
4390.603672065416
 20
1116.9050381518637
 10
4389.079700507798
 20
1120.4610226489337
 10
4386.7937050244
 20
1123.2550595141677
 10
4383.999744453111
 20
1125.5410549975668
 10
4380.697742499986
 20
1126.8110440112387
 10
4376.887699165025
 20
1127.3190853930737
 10
4373.331714667955
 20
1126.8110440112387
 10
4370.02971271483
 20
1125.5410549975668
 10
4366.98169330565
 20
1123.2550595141677
 10
4364.949680366197
 20
1120.4610226489337
 10
4363.42570880858
 20
1116.9050381518637
  0
LWPOLYLINE
  5
4D
330
17
100
AcDbEntity
  8
0
100
AcDbPolyline
 90
53
 70
0
 10
4099.011813384752
 20
184.1788526552388
 10
4359.615832549791
 20
184.17885265523887
 10
4367.235842925767
 20
185.44884166891075
 10
4373.839846832017
 20
188.24284038717246
 10
4377.903796416978
 20
191.03683910543413
 10
4381.459857207994
 20
194.59286174947718
 10
4384.761859161119
 20
198.9108320253561
 10
4387.301837188463
 20
203.736843683071
 10
4388.317843658189
 20
207.038845636196
 10
4388.82580874608
 20
210.5948682802389
 10
4388.571826202135
 20
223.0408521669577
 10
4389.079791290025
 20
227.8668638246725
 10
4391.111804229478
 20
242.0908399599264
 10
4392.38179324315
 20
246.1548658388327
 10
4394.413806182603
 20
249.71085033590296
 10
4396.953860503892
 20
252.50484905416468
 10
4400.763827544908
 20
255.0448652284811
 10
4416.2578308408065
 20
262.1568342226217
 10
4430.481845123033
 20
267.74486980611783
 10
4433.783847076158
 20
270.0308652895163
 10
4436.0698425595565
 20
272.3168607729147
 10
4438.10185549901
 20
275.3648420351217
 10
4439.625827056627
 20
278.9208646791647
 10
4440.641833526353
 20
282.730869867153
 10
4441.149798614244
 20
287.0488401430319
 10
4441.149798614244
 20
303.3048673647116
 10
4439.3718445126815
 20
503.20286235982877
 10
4438.10185549901
 20
510.3148313539694
 10
4435.815860015611
 20
516.9188352602193
 10
4432.7678406064315
 20
522.5068326967428
 10
4428.703814727525
 20
527.3328825014303
 10
4424.639788848619
 20
530.6348844545553
 10
4419.813815337877
 20
533.174862481899
 10
4413.971835357408
 20
535.4608579652975
 10
4407.875796539049
 20
536.7308469789693
 10
4057.609759551743
 20
536.4768644350239
 10
4052.0218384091654
 20
534.6988340395161
 10
4046.6878235165873
 20
532.1588560121724
 10
4041.8617737119002
 20
529.1108366029927
 10
4037.797900420884
 20
525.5548521059224
 10
4034.749804717759
 20
521.7448850649067
 10
4032.2098266904154
 20
517.6808591860005
 10
4028.145800811509
 20
508.0288358705709
 10
4028.3998596494007
 20
261.394848443813
 10
4033.4798157040873
 20
248.6948438661763
 10
4040.3378784482284
 20
237.51884899312938
 10
4043.1317627255717
 20
234.72485027486772
 10
4046.6878235165873
 20
231.930851556606
 10
4067.0078003232284
 20
217.70683727437938
 10
4070.563861114243
 20
213.6428495424459
 10
4080.977832061509
 20
198.40286693746538
 10
4086.3118469540873
 20
192.81486950094188
 10
4092.4078094785013
 20
188.2428403871724
  0
LWPOLYLINE
  5
4E
330
17
100
AcDbEntity
  8
0
100
AcDbPolyline
 90
24
 70
0
 10
4072.3418152158065
 20
481.61282024557096
 10
4068.785830718736
 20
481.10485515768033
 10
4065.483828765611
 20
479.58088360006315
 10
4062.4358093564315
 20
477.2948881166647
 10
4060.4037964169784
 20
474.50085125143033
 10
4058.8799011533065
 20
471.19884929830533
 10
4058.3717834775252
 20
467.3888822572897
 10
4058.8799011533065
 20
463.8328214662741
 10
4060.4037964169784
 20
460.5308195131491
 10
4062.4358093564315
 20
457.73685894186
 10
4065.483828765611
 20
455.4508634584616
 10
4068.785830718736
 20
453.9268156068991
 10
4072.3418152158065
 20
453.41885051900846
 10
4076.1518585507674
 20
453.9268156068991
 10
4079.4538605038924
 20
455.4508634584616
 10
4082.2478210751815
 20
457.73685894186
 10
4084.5338165585795
 20
460.5308195131491
 10
4086.057788116196
 20
463.8328214662741
 10
4086.3118469540873
 20
467.3888822572897
 10
4086.057788116196
 20
471.19884929830533
 10
4084.5338165585795
 20
474.50085125143033
 10
4082.2478210751815
 20
477.2948881166647
 10
4079.4538605038924
 20
479.58088360006315
 10
4076.1518585507674
 20
481.10485515768033
  0
LWPOLYLINE
  5
4F
330
17
100
AcDbEntity
  8
0
100
AcDbPolyline
 90
24
 70
0
 10
4386.5398132626815
 20
455.9588285463522
 10
4390.095797759752
 20
456.46686992818815
 10
4393.397799712877
 20
457.73685894186
 10
4396.4458191220565
 20
460.02285442525846
 10
4398.47783206151
 20
462.8168149965475
 10
4400.001803619127
 20
466.37287578756315
 10
4400.509845000963
 20
469.92886028463346
 10
4400.001803619127
 20
473.48484478170377
 10
4398.47783206151
 20
476.78684673482877
 10
4396.4458191220565
 20
479.83486614400846
 10
4393.397799712877
 20
481.8668790834616
 10
4390.095797759752
 20
483.39085064107877
 10
4386.5398132626815
 20
483.8988157289694
 10
4382.729846221666
 20
483.39085064107877
 10
4379.427844268541
 20
481.8668790834616
 10
4376.6338074033065
 20
479.83486614400846
 10
4374.347811919908
 20
476.78684673482877
 10
4373.077822906236
 20
473.48484478170377
 10
4372.569857818346
 20
469.92886028463346
 10
4373.077822906236
 20
466.37287578756315
 10
4374.347811919908
 20
462.8168149965475
 10
4376.6338074033065
 20
460.02285442525846
 10
4379.427844268541
 20
457.73685894186
 10
4382.729846221666
 20
456.46686992818815
  0
LWPOLYLINE
  5
50
330
17
100
AcDbEntity
  8
0
100
AcDbPolyline
 90
70
 70
0
 10
5044.525775384751
 20
1610.1420291000004
 10
4819.481791925278
 20
1610.1420291000004
 10
4803.733767938462
 20
1611.1580260329838
 10
4787.7317614077
 20
1611.666029267847
 10
4771.729793023911
 20
1611.666029267847
 10
4755.981769037095
 20
1611.1580260329838
 10
4722.707766961899
 20
1610.396030717432
 10
4713.563785028306
 20
1608.364027314722
 10
4705.943774652329
 20
1605.062025361597
 10
4701.371783685532
 20
1602.0140250259037
 10
4696.799792718735
 20
1598.2040293746586
 10
4686.89378685936
 20
1587.5360186629887
 10
4683.845767450181
 20
1583.472030931055
 10
4681.051768731919
 20
1578.9000208907719
 10
4676.225757074204
 20
1567.9780276351566
 10
4673.431758355942
 20
1559.5960314803715
 10
4666.319789361802
 20
1531.9100268416996
 10
4662.509784173813
 20
1520.7340319686527
 10
4646.253756952134
 20
1483.1420214706059
 10
4634.3046949515465
 20
1456.8300632429907
 10
4613.233775567857
 20
1414.3080218368168
 10
4597.739772271959
 20
1386.876037889063
 10
4591.389789056627
 20
1374.4300158553715
 10
4585.29378838524
 20
1360.9680254989262
 10
4581.483783197252
 20
1348.2680209212895
 10
4578.943767022935
 20
1335.8220370345707
 10
4577.419776391832
 20
1321.8520434432621
 10
4576.911773156969
 20
1308.8980181747074
 10
4576.657771539537
 20
1273.0840380721684
 10
4575.823131445982
 20
1239.8324859704196
 10
4575.895766687242
 20
1162.8480227523441
 10
4572.339782190172
 20
1120.430038743555
 10
4572.339782190172
 20
1109.7620471053715
 10
4575.895766687242
 20
1086.902015977442
 10
4577.1657747744
 20
1083.0920489364264
 10
4578.943767022935
 20
1080.0440295272467
 10
4582.24576897606
 20
1076.9960101180668
 10
4586.309756707994
 20
1074.2020495467777
 10
4591.135768365709
 20
1072.1700366073246
 10
4596.469783258287
 20
1070.6460650497074
 10
4985.3437990663915
 20
1070.6460650497074
 10
4991.9478029726415
 20
1072.42401915127
 10
4997.78978295311
 20
1074.9639971786137
 10
5002.869739007798
 20
1078.0120165877934
 10
5009.473742914048
 20
1084.8700030379887
 10
5013.283786249009
 20
1092.7439959579106
 10
5015.061740350571
 20
1102.6500018172856
 10
5015.315799188462
 20
1107.9840167098637
 10
5014.04581017479
 20
1119.4140322738285
 10
5017.347812127915
 20
1288.5780413680668
 10
5015.823764276352
 20
1307.120025926172
 10
5015.569781732407
 20
1325.4080279403324
 10
5016.077746820298
 20
1343.6960299544924
 10
5017.347812127915
 20
1361.9840319686527
 10
5021.157779168931
 20
1387.8920443587895
 10
5026.491794061509
 20
1412.5300295882816
 10
5033.095797967759
 20
1433.1040270858402
 10
5052.74811522719
 20
1483.0849493080186
 10
5067.13174767479
 20
1518.1940348678227
 10
5074.7517580507665
 20
1540.5460246139164
 10
5082.879809808579
 20
1564.6760256820316
 10
5084.149798822251
 20
1571.534031205713
 10
5083.641757440415
 20
1577.6300318771
 10
5081.609744500962
 20
1585.5040247970219
 10
5078.307742547837
 20
1592.616022401392
 10
5074.243792962876
 20
1598.7120230727787
 10
5069.417743158188
 20
1603.2840235763188
 10
5064.337787103501
 20
1606.3320239120121
 10
5058.495807123032
 20
1608.364027314722
 10
5051.6377443788915
 20
1609.6340258651371
  0
CIRCLE
  5
51
330
17
100
AcDbEntity
  8
0
100
AcDbCircle
 10
4628.750705194322
 20
1120.1283343368168
 30
0.0
 40
10.49999952316284
  0
CIRCLE
  5
52
330
17
100
AcDbEntity
  8
0
100
AcDbCircle
 10
4974.4551271913915
 20
1118.1746752791996
 30
0.0
 40
10.49999952316284
  0
LWPOLYLINE
  5
53
330
17
100
AcDbEntity
  8
0
100
AcDbPolyline
 90
91
 70
0
 10
4603.3278263847515
 20
1839.7420351000003
 10
4602.56580245897
 20
1833.3920137376956
 10
4602.8197850029155
 20
1827.0420686693362
 10
4603.581808928697
 20
1821.2000123949222
 10
4605.105780486314
 20
1815.6120149583987
 10
4608.661764983384
 20
1807.4840394945315
 10
4613.487814788072
 20
1800.372070500391
 10
4619.075812224595
 20
1795.0380556078128
 10
4625.171774749009
 20
1791.2280122728519
 10
4628.219794158189
 20
1790.2120058031253
 10
4631.775778655259
 20
1789.7040407152347
 10
4669.113806609361
 20
1787.9260103197269
 10
4674.95578658983
 20
1786.656021306055
 10
4679.781760100572
 20
1784.6240083666019
 10
4685.3698338310405
 20
1780.560058781641
 10
4690.449789885728
 20
1774.7180025072269
 10
4695.27576339647
 20
1767.6060335130862
 10
4701.37180221483
 20
1754.3980257005862
 10
4702.6417912285015
 20
1749.8260347337894
 10
4703.657797698228
 20
1739.9200288744144
 10
4703.403815154283
 20
1731.5380708666019
 10
4701.117819670884
 20
1708.6780397386722
 10
4701.117819670884
 20
1700.550064274805
 10
4699.085806731431
 20
1664.4820253343753
 10
4700.101813201158
 20
1655.3380434007815
 10
4702.133826140611
 20
1647.2100679369144
 10
4705.689810637681
 20
1637.81202716543
 10
4708.737830046861
 20
1631.9700471849612
 10
4712.293814543931
 20
1627.1439973802737
 10
4716.103781584947
 20
1623.5880128832034
 10
4720.929831389634
 20
1620.7940523119144
 10
4726.517828826158
 20
1618.7620393724612
 10
4732.867773894517
 20
1617.7460329027347
 10
4739.725798491685
 20
1617.4920503587894
 10
4902.793806914537
 20
1613.1740419359378
 10
4912.191809539048
 20
1611.6500703783206
 10
4921.335791472642
 20
1611.1420289964847
 10
4930.4798115532085
 20
1611.1420289964847
 10
4939.369810942857
 20
1612.1580354662112
 10
4952.069815520494
 20
1614.4440309496097
 10
4960.197790984361
 20
1616.730026433008
 10
4967.055815581529
 20
1620.032028386133
 10
4972.389792327134
 20
1624.0960542650394
 10
4975.691794280259
 20
1628.1600038500003
 10
4978.485792998521
 20
1633.4940187425784
 10
4981.025809172837
 20
1639.5900575609378
 10
4984.073790435044
 20
1649.4960634203128
 10
4985.85178268358
 20
1657.8780214281253
 10
4986.867789153306
 20
1667.2760621996097
 10
4986.359785918443
 20
1709.948028752344
 10
4983.819807891098
 20
1738.6500398607425
 10
4984.581793669907
 20
1747.7940217943362
 10
4987.121809844223
 20
1755.4140321703128
 10
4990.677794341294
 20
1763.2880250902347
 10
4994.233778838365
 20
1769.1300050707034
 10
4997.789801482407
 20
1773.7019960375003
 10
5001.85378921434
 20
1777.258056828516
 10
5005.66379440233
 20
1779.290069767969
 10
5010.2357853691265
 20
1780.8140413255862
 10
5025.221785430161
 20
1782.3380128832034
 10
5030.0477970878765
 20
1783.35401935293
 10
5048.335799102036
 20
1786.656021306055
 10
5054.685782317369
 20
1788.4340517015628
 10
5061.289805297105
 20
1790.9740297289065
 10
5066.1157978813335
 20
1794.7839967699222
 10
5069.163798217027
 20
1797.8320161791019
 10
5071.703795317857
 20
1801.6420595140628
 10
5079.577788237778
 20
1817.6440278978519
 10
5081.101797942369
 20
1822.7240602464847
 10
5082.879790190903
 20
1834.4080202074222
 10
5083.133791808335
 20
1844.822067448633
 10
5082.371806029526
 20
1877.5880281419925
 10
5083.641795043197
 20
1916.4500276537117
 10
5083.387793425766
 20
1947.4380342455086
 10
5084.14979827806
 20
1970.0440065355476
 10
5083.387793425766
 20
1975.8860628099617
 10
5081.355799559799
 20
1980.7120363207036
 10
5075.513800505843
 20
1988.0780641527347
 10
5071.957796935288
 20
1991.1260072679686
 10
5064.337805632797
 20
1995.6979982347657
 10
5055.447806243148
 20
1998.4920351000005
 10
5050.621794585433
 20
1999.0000001878907
 10
4629.997824553697
 20
1999.0000001878907
 10
4622.37781417772
 20
1997.9840700121097
 10
4615.77381027147
 20
1995.9520570726565
 10
4610.693777922837
 20
1992.9040376634766
 10
4606.883810881822
 20
1989.0940706224617
 10
4604.597815398423
 20
1985.0300447435545
 10
4603.3278263847515
 20
1980.2040712328126
 10
4603.073767546861
 20
1974.3620149583985
 10
4603.581808928697
 20
1968.2660524339847
  0
CIRCLE
  5
54
330
17
100
AcDbEntity
  8
0
100
AcDbCircle
 10
4644.812582854477
 20
1928.3448640794927
 30
0.0
 40
10.49999952316284
  0
CIRCLE
  5
55
330
17
100
AcDbEntity
  8
0
100
AcDbCircle
 10
5043.686293486801
 20
1928.3093111009766
 30
0.0
 40
10.49999952316284
  0
LWPOLYLINE
  5
56
330
17
100
AcDbEntity
  8
0
100
AcDbPolyline
 90
87
 70
0
 10
4603.327807384751
 20
347.5673285252007
 10
4602.819842296861
 20
341.2173071628958
 10
4603.327807384751
 20
335.6293097263728
 10
4604.597796398423
 20
330.54935367168576
 10
4606.629809337876
 20
326.48532779277883
 10
4610.439776378892
 20
322.67536075176366
 10
4615.77379127147
 20
319.62734134258375
 10
4622.37779517772
 20
317.59532840313085
 10
4629.743823009751
 20
316.57932193340383
 10
5050.621813732407
 20
316.5793219334039
 10
5059.7657956660005
 20
318.35735232891165
 10
5064.083804088853
 20
319.88132388652883
 10
5071.957797008774
 20
324.4533148533257
 10
5075.513781505844
 20
327.50133426250585
 10
5078.561800915024
 20
331.0573187595757
 10
5081.101778942368
 20
334.86736209453665
 10
5083.133791881821
 20
339.69333560527883
 10
5084.149798351547
 20
345.5353155857478
 10
5083.261917378091
 20
372.78642200682265
 10
5083.641833263657
 20
399.12929446758375
 10
5082.117785412094
 20
447.8972998386775
 10
5082.8798093378755
 20
470.7573309666072
 10
5082.62582679393
 20
481.1713019138728
 10
5080.847796398422
 20
492.8553381687556
 10
5077.545794445297
 20
502.7613440281306
 10
5071.703814464829
 20
513.9373389011774
 10
5066.115817028305
 20
521.0493078953181
 10
5061.035784679672
 20
524.6052923923884
 10
5054.685839611314
 20
527.3993292576228
 10
5048.081835705064
 20
528.9233008152399
 10
5025.221804577133
 20
533.2413092380915
 10
5009.98178382518
 20
535.0193396335993
 10
5005.409792858383
 20
536.2893286472712
 10
5001.853808361314
 20
538.3213415867243
 10
4997.789782482407
 20
541.8773260837946
 10
4993.979815441392
 20
546.4493170505915
 10
4990.423830944321
 20
552.2912970310603
 10
4986.8678464472505
 20
560.1652899509821
 10
4984.581850963853
 20
568.0393591648493
 10
4983.5658444941255
 20
576.9293585544978
 10
4983.819827038071
 20
584.0413275486384
 10
4986.10582252147
 20
605.6312933689509
 10
4986.359805065415
 20
614.0133276707087
 10
4986.61378760936
 20
648.3033362156306
 10
4985.851839977524
 20
657.7013006931696
 10
4983.819827038071
 20
666.0833349949274
 10
4978.485812145493
 20
682.3393622166071
 10
4975.691775280259
 20
687.4193182712946
 10
4972.389849621079
 20
691.4833441502009
 10
4967.0558347285005
 20
695.8013525730524
 10
4960.197848278306
 20
698.8492956882868
 10
4951.815813976548
 20
701.1352911716853
 10
4939.115847545884
 20
703.421362949029
 10
4930.225848156235
 20
704.4372931248103
 10
4921.335848766586
 20
704.4372931248103
 10
4911.937807995103
 20
703.9293280369196
 10
4902.793826061509
 20
702.4053564793023
 10
4732.867831188461
 20
698.0873480564508
 10
4726.517809826157
 20
696.8173590427789
 10
4720.675829845688
 20
695.0393286472711
 10
4715.8497800410005
 20
692.2452917820367
 10
4712.039812999985
 20
688.6893072849664
 10
4708.73781104686
 20
683.8633337742242
 10
4705.68979163768
 20
677.7672949558648
 10
4702.13380714061
 20
668.3693304783258
 10
4699.847811657211
 20
660.4953375584039
 10
4699.08578773143
 20
651.0972967869195
 10
4701.117800670883
 20
606.901358676568
 10
4703.403796154282
 20
575.6592932468805
 10
4702.387789684555
 20
565.7533636814508
 10
4699.593829113266
 20
557.1173468357476
 10
4695.021838146469
 20
547.9733649021539
 10
4690.195788341782
 20
540.861319614068
 10
4685.115832287094
 20
535.2733221775445
 10
4679.527834850571
 20
530.955313754693
 10
4674.701785045883
 20
528.9233008152398
 10
4668.859805065415
 20
527.653311801568
 10
4628.219775158189
 20
525.3673163181695
 10
4625.1718320429545
 20
524.351309848443
 10
4619.075793224595
 20
520.7953253513726
 10
4613.487795788072
 20
515.2073279148492
 10
4608.6618222773295
 20
508.09535892070875
 10
4604.851778942369
 20
499.96730716289625
 10
4603.327807384751
 20
494.3793097263728
 10
4602.56578345897
 20
488.53732974590406
 10
4602.56578345897
 20
482.1873083835994
 10
4603.073824840806
 20
475.83736331524
  0
CIRCLE
  5
57
330
17
100
AcDbEntity
  8
0
100
AcDbCircle
 10
5043.086031872055
 20
387.39910037578676
 30
0.0
 40
10.49999952316284
  0
CIRCLE
  5
58
330
17
100
AcDbEntity
  8
0
100
AcDbCircle
 10
4644.517382580063
 20
387.61226565898977
 30
0.0
 40
10.49999952316284
  0
LWPOLYLINE
  5
59
330
17
100
AcDbEntity
  8
0
100
AcDbPolyline
 90
63
 70
0
 10
5084.149798384751
 20
888.2900551000005
 10
5082.879733077134
 20
906.3240745702153
 10
5081.1017789755715
 20
924.3580558934575
 10
5078.815783492172
 20
942.1380546727544
 10
5076.021746626939
 20
959.9180534520514
 10
5070.622546601206
 20
986.5286828634324
 10
5061.2897672568215
 20
1024.6880653539067
 10
5059.257754317368
 20
1038.40407640127
 10
5057.479800215806
 20
1044.754059616602
 10
5054.431780806626
 20
1051.358063522852
 10
5051.129778853501
 20
1056.6920784154304
 10
5047.31973551854
 20
1061.0100677647954
 10
5043.509768477525
 20
1064.3120697179204
 10
5039.191760054672
 20
1066.5980652013188
 10
5034.619769087876
 20
1068.1220749059087
 10
5029.539736739243
 20
1069.1380813756352
 10
5024.205798140611
 20
1069.6460655370122
 10
4726.517733565415
 20
1069.6460655370124
 10
4718.643740645493
 20
1068.8840797582038
 10
4711.277789107407
 20
1066.8520668187507
 10
4702.641772261704
 20
1062.788079086817
 10
4699.339770308579
 20
1060.5020645299323
 10
4696.799792281236
 20
1057.962067429102
 10
4694.513796797837
 20
1054.914067093409
 10
4692.481783858384
 20
1051.104080978907
 10
4687.147768965806
 20
1030.5300834813481
 10
4685.115756026353
 20
1013.7660530248052
 10
4683.845767012681
 20
1009.1940620580082
 10
4682.067736617173
 20
1005.1300743260746
 10
4677.495745650376
 20
999.0340736546879
 10
4656.92178629979
 20
977.4440696874027
 10
4653.111742964829
 20
971.8560722508793
 10
4650.571764937486
 20
966.5220573583013
 10
4648.793734541978
 20
960.9340599217777
 10
4647.523745528306
 20
954.838059250391
 10
4647.015780440415
 20
948.7420585790043
 10
4647.015780440415
 20
727.0000770726566
 10
4647.523745528306
 20
721.6660621800785
 10
4648.793734541978
 20
716.586106125391
 10
4650.571764937486
 20
712.2680977025394
 10
4653.111742964829
 20
708.9660957494144
 10
4655.905779830064
 20
706.17205888418
 10
4659.461764327134
 20
704.1400459447269
 10
4664.033755293931
 20
702.3620918431644
 10
4669.621752730454
 20
700.8380439916019
 10
4673.685778609361
 20
700.3300789037113
 10
4678.257769576157
 20
700.3300789037113
 10
4696.2917508994
 20
703.6320808568363
 10
4721.691760054673
 20
705.9180763402347
 10
4759.496743358013
 20
704.7983966257076
 10
4879.453522437001
 20
705.6136910658477
 10
5011.251772872055
 20
705.1560524144536
 10
5021.919802657211
 20
702.8700569310552
 10
5032.587756148422
 20
701.6000679173833
 10
5043.255785933579
 20
701.6000679173833
 10
5053.669756880844
 20
702.6160743871098
 10
5066.877764693344
 20
704.9020698705083
 10
5070.941790572251
 20
706.4260414281255
 10
5074.243792525376
 20
708.4580543675786
 10
5077.291735640611
 20
711.5060737767583
 10
5080.085772505844
 20
715.3160408177739
 10
5082.371767989243
 20
719.6340492406255
 10
5084.149798384751
 20
724.460099045313
  0
CIRCLE
  5
5A
330
17
100
AcDbEntity
  8
0
100
AcDbCircle
 10
5029.598711958969
 20
756.1852958836919
 30
0.0
 40
10.49999952316284
  0
CIRCLE
  5
5B
330
17
100
AcDbEntity
  8
0
100
AcDbCircle
 10
4685.822619429673
 20
750.5534294286136
 30
0.0
 40
10.49999952316284
  0
LWPOLYLINE
  5
5C
330
17
100
AcDbEntity
  8
0
100
AcDbPolyline
 90
91
 70
0
 10
5727.149798384751
 20
1515.6380311000003
 10
5727.149798384751
 20
1975.3780213343755
 10
5726.64168070897
 20
1980.9660950648445
 10
5724.8637266074065
 20
1985.7919922816413
 10
5723.339678755845
 20
1988.0780640589844
 10
5721.0539121542815
 20
1990.3639832484373
 10
5714.9577207480315
 20
1994.6820679652344
 10
5708.861834517562
 20
1997.2220459925784
 10
5702.257830611312
 20
1998.4920350062505
 10
5347.4198789511565
 20
1998.4920350062505
 10
5333.957812300765
 20
1999.0000000941413
 10
5320.495745650376
 20
1998.2379761683594
 10
5307.541796675765
 20
1995.6979981410163
 10
5295.349871626937
 20
1991.8880311000005
 10
5287.9838437949065
 20
1988.8400879847663
 10
5282.395770064437
 20
1985.7919922816413
 10
5278.0778379355315
 20
1982.2360840785163
 10
5269.441821089829
 20
1973.6000672328123
 10
5265.377795210923
 20
1970.2980652796873
 10
5254.963824263657
 20
1963.1860962855474
 10
5246.581866255845
 20
1959.6300354945313
 10
5238.961779585923
 20
1958.3600464808594
 10
5227.531878462876
 20
1958.3600464808594
 10
5213.815752974595
 20
1960.3920594203123
 10
5208.227831832016
 20
1960.1380005824224
 10
5196.035754195298
 20
1955.8200684535163
 10
5192.225787154282
 20
1953.7880555140623
 10
5189.431750289048
 20
1950.9940186488284
 10
5186.891772261704
 20
1947.6920166957034
 10
5184.605853072251
 20
1943.6279908167974
 10
5183.081805220688
 20
1939.3100586878913
 10
5183.081805220688
 20
1897.6540223109373
 10
5182.319781294907
 20
1890.7959595667974
 10
5180.287768355454
 20
1884.7000733363284
 10
5175.207812300766
 20
1877.3340455042974
 10
5170.63582133397
 20
1873.7779847132813
 10
5164.793841353501
 20
1871.2380066859373
 10
5130.503832808579
 20
1871.238006685937
 10
5123.391863814438
 20
1868.4439698207032
 10
5117.549731246079
 20
1864.380096529687
 10
5114.755846968735
 20
1861.332000826562
 10
5112.215868941391
 20
1857.776092623437
 10
5110.183856001938
 20
1853.7120667445313
 10
5108.659808150376
 20
1849.3939820277344
 10
5108.659808150376
 20
1653.8139954554695
 10
5109.421832076157
 20
1649.4960633265623
 10
5110.691821089829
 20
1645.4320374476563
 10
5112.469775191391
 20
1641.8760529505864
 10
5114.755846968736
 20
1638.8280335414063
 10
5118.819872847641
 20
1635.0180665003913
 10
5123.645770064439
 20
1632.2240296351563
 10
5127.709795943345
 20
1630.7000580775393
 10
5132.281786910141
 20
1629.9380341517583
 10
5141.933733931626
 20
1630.7000580775393
 10
5246.327807417954
 20
1630.7000580775393
 10
5252.677752486313
 20
1629.9380341517583
 10
5258.773791304673
 20
1628.1600037562505
 10
5263.853747359361
 20
1625.3660431849614
 10
5267.917773238266
 20
1622.0640412318364
 10
5270.457751265611
 20
1619.0160218226563
 10
5272.743823042954
 20
1614.9519959437505
 10
5274.521777144516
 20
1610.1260224330083
 10
5276.299731246079
 20
1603.5220185267583
 10
5276.807848921861
 20
1599.2040101039063
 10
5277.061755171861
 20
1589.5520630824224
 10
5277.823779097641
 20
1585.2340546595703
 10
5283.411852828111
 20
1573.8040009486333
 10
5285.951830855454
 20
1571.0100403773445
 10
5290.015856734361
 20
1567.9620209681643
 10
5294.587847701157
 20
1565.4220429408203
 10
5299.921862593736
 20
1563.3900300013674
 10
5305.763842574204
 20
1562.1200409876953
 10
5519.885851851548
 20
1562.1200409876953
 10
5532.839800826157
 20
1559.0720215785163
 10
5545.285784712876
 20
1555.5160370814453
 10
5557.731768599595
 20
1550.9440461146482
 10
5569.669787398423
 20
1545.8640137660163
 10
5580.337817183579
 20
1540.2760163294922
 10
5610.055834761704
 20
1522.4960175501956
 10
5613.848089717065
 20
1520.4356634915903
 10
5636.979815474595
 20
1508.780044649805
 10
5646.631762496079
 20
1504.7160187708987
 10
5655.521838179673
 20
1501.667999361719
 10
5675.841814986313
 20
1496.5880433070315
 10
5684.731738082016
 20
1495.3180542933596
 10
5706.067797652329
 20
1494.0480652796878
 10
5709.877764693345
 20
1494.5560303675784
 10
5712.92586039647
 20
1495.572036837305
 10
5717.751910201157
 20
1498.87403879043
 10
5722.069842330063
 20
1503.4460297572268
 10
5725.117938033188
 20
1509.0340271937503
  0
LWPOLYLINE
  5
5D
330
17
100
AcDbEntity
  8
0
100
AcDbPolyline
 90
23
 70
0
 10
5710.893847457015
 20
1955.8200684535163
 10
5710.385729781235
 20
1959.6300354945313
 10
5708.861834517562
 20
1962.9320374476563
 10
5706.82982157811
 20
1965.7260743128913
 10
5703.781878462876
 20
1968.0119935023445
 10
5700.479876509751
 20
1969.5360413539063
 10
5696.923815718735
 20
1970.0440064417974
 10
5693.11384867772
 20
1969.5360413539063
 10
5689.811846724595
 20
1968.0119935023445
 10
5687.01780985936
 20
1965.7260743128913
 10
5684.731738082015
 20
1962.9320374476563
 10
5683.207842818345
 20
1959.6300354945313
 10
5683.207842818345
 20
1952.2640076625005
 10
5684.731738082015
 20
1948.9620057093755
 10
5687.01780985936
 20
1945.9140625941413
 10
5689.811846724595
 20
1943.8820496546873
 10
5693.11384867772
 20
1942.3580018031255
 10
5696.923815718735
 20
1941.8500367152344
 10
5700.479876509751
 20
1942.3580018031255
 10
5703.781878462876
 20
1943.8820496546873
 10
5706.82982157811
 20
1945.9140625941413
 10
5708.861834517562
 20
1948.9620057093755
 10
5710.385729781235
 20
1952.2640076625005
  0
LWPOLYLINE
  5
5E
330
17
100
AcDbEntity
  8
0
100
AcDbPolyline
 90
24
 70
0
 10
5711.909777632798
 20
1542.0540467250005
 10
5711.401812544907
 20
1545.6100312220703
 10
5710.131823531236
 20
1548.9120331751953
 10
5707.845751753891
 20
1551.9600525843753
 10
5705.051867476548
 20
1553.9920655238284
 10
5701.495806685532
 20
1555.5160370814453
 10
5697.939745894516
 20
1556.0240021693364
 10
5694.383837691391
 20
1555.5160370814453
 10
5690.827776900376
 20
1553.9920655238284
 10
5688.033740035141
 20
1551.9600525843755
 10
5685.747820845688
 20
1548.9120331751953
 10
5684.477831832016
 20
1545.6100312220703
 10
5683.969866744126
 20
1542.0540467250003
 10
5684.477831832016
 20
1538.2440033900393
 10
5685.747820845688
 20
1534.9420014369143
 10
5688.033740035141
 20
1532.1480408656253
 10
5690.827776900376
 20
1529.8620453822268
 10
5694.383837691391
 20
1528.3379975306643
 10
5697.939745894516
 20
1527.8300324427737
 10
5701.495806685532
 20
1528.3379975306643
 10
5705.051867476548
 20
1529.8620453822268
 10
5707.845751753891
 20
1532.1480408656253
 10
5710.131823531236
 20
1534.9420014369143
 10
5711.401812544907
 20
1538.2440033900393
  0
LWPOLYLINE
  5
5F
330
17
100
AcDbEntity
  8
0
100
AcDbPolyline
 90
67
 70
0
 10
5165.365782127132
 20
1148.819072386953
 10
5169.937849387874
 20
1141.4530445549217
 10
5175.525846824398
 20
1135.611064574453
 10
5179.335813865413
 20
1133.070781371328
 10
5183.90780483221
 20
1130.785014769766
 10
5188.733778342952
 20
1129.007060668203
 10
5194.067793235531
 20
1127.990825316641
 10
5460.767851218929
 20
1127.990825316641
 10
5467.87982021307
 20
1131.292827269766
 10
5473.721800193538
 20
1135.864970824453
 10
5476.261778220882
 20
1139.420879027578
 10
5478.5478499982255
 20
1143.738811156485
 10
5480.071745261897
 20
1148.5648609611717
 10
5480.833769187679
 20
1153.64481701586
 10
5480.833769187679
 20
1292.837016722891
 10
5483.373747215022
 20
1300.965068480703
 10
5487.437773093929
 20
1308.076884886953
 10
5490.231809959163
 20
1311.88700451586
 10
5497.089872703304
 20
1318.74491467211
 10
5501.15374599432
 20
1321.538798949453
 10
5509.281797752132
 20
1325.60282482836
 10
5517.917814597835
 20
1328.142802855703
 10
5556.271849021663
 20
1327.634990355703
 10
5561.859770164242
 20
1329.412944457266
 10
5567.19378505682
 20
1331.69901623461
 10
5572.273741111507
 20
1334.746806761953
 10
5575.575743064632
 20
1337.794902465078
 10
5577.8618148419755
 20
1340.842998168203
 10
5579.639768943538
 20
1344.145000121328
 10
5580.90975795721
 20
1347.700908324453
 10
5581.671781882992
 20
1351.76493420336
 10
5576.591825828304
 20
1502.3868824455467
 10
5568.209867820492
 20
1528.294780394766
 10
5566.177854881038
 20
1532.866923949453
 10
5563.891783103695
 20
1536.67704357836
 10
5555.509825095882
 20
1546.074931761953
 10
5550.937834129085
 20
1549.88505139086
 10
5546.111784324398
 20
1553.187053343985
 10
5536.459837302913
 20
1556.99686779711
 10
5531.379881248226
 20
1558.2670093986717
 10
5526.045866355648
 20
1559.029033324453
 10
5473.1844610068965
 20
1557.5692901147108
 10
5405.9711001848045
 20
1554.696130141735
 10
5310.127264289
 20
1548.287989112734
 10
5193.813810691585
 20
1541.248881957266
 10
5139.457807883969
 20
1541.7569996330467
 10
5134.631834373226
 20
1539.724834105703
 10
5126.7578414533045
 20
1533.882854125235
 10
5123.4558395001795
 20
1530.58085217211
 10
5120.1538375470545
 20
1525.7548023674217
 10
5118.375807151547
 20
1521.436870238516
 10
5117.105818137875
 20
1514.832866332266
 10
5115.327787742367
 20
1368.783061644766
 10
5114.3117812726405
 20
1363.4488941642967
 10
5114.057798728695
 20
1358.36893810961
 10
5114.565840110531
 20
1353.5428883049217
 10
5116.089811668148
 20
1349.224956176016
 10
5118.629789695492
 20
1344.90702404711
 10
5122.439833030453
 20
1340.5887867424217
 10
5127.5197890851405
 20
1337.0328785392967
 10
5140.981779441585
 20
1331.444804808828
 10
5151.141844138851
 20
1325.60282482836
 10
5156.475782737484
 20
1321.284892699453
 10
5160.031843528499
 20
1316.458842894766
 10
5162.825804099788
 20
1310.6168629142967
 10
5164.603834495296
 20
1304.0128590080467
 10
5165.365782127132
 20
1296.9010426017967
  0
LWPOLYLINE
  5
60
330
17
100
AcDbEntity
  8
0
100
AcDbPolyline
 90
64
 70
0
 10
5316.939837384751
 20
811.5228383869529
 10
5465.2757138495945
 20
811.5228383869529
 10
5472.1336240058445
 20
810.7608144611717
 10
5478.7376279120945
 20
808.9828603596092
 10
5484.5799130683445
 20
806.1888234943748
 10
5489.405657697251
 20
802.6328389973045
 10
5493.977801251938
 20
797.2988241047264
 10
5499.819781232407
 20
787.138835701406
 10
5505.407854962876
 20
773.6768453449607
 10
5508.709856916001
 20
768.5968129963279
 10
5513.027789044907
 20
764.7868459553123
 10
5517.345721173813
 20
762.2468679279685
 10
5521.6636533027195
 20
760.722820076406
 10
5526.489703107407
 20
760.2148549885154
 10
5531.823870587876
 20
760.4688375324607
 10
5536.903826642563
 20
761.4848440021873
 10
5682.953631330063
 20
763.2627981037499
 10
5689.557635236313
 20
764.5328634113671
 10
5694.129778791001
 20
766.3108175129296
 10
5698.701922345688
 20
769.6128194660546
 10
5702.257830548813
 20
772.9148214191796
 10
5705.305926251938
 20
776.7248647541405
 10
5710.1316708808445
 20
785.614864143789
 10
5709.6238583808445
 20
839.9708669514062
 10
5724.631589100212
 20
1090.5217154421018
 10
5727.149798322251
 20
1172.2028463215236
 10
5726.3877743964695
 20
1177.5368230671288
 10
5723.593890119126
 20
1187.696849617422
 10
5721.307818341782
 20
1192.2688405842189
 10
5718.259722638657
 20
1197.094814094961
 10
5714.449908185532
 20
1201.6668432087306
 10
5709.8777646308445
 20
1205.9848516315822
 10
5704.797808576157
 20
1210.0488393635158
 10
5696.6697568183445
 20
1214.3668477863673
 10
5670.5076474433445
 20
1222.7488439411525
 10
5519.885699201157
 20
1227.8288381428124
 10
5512.265765119126
 20
1225.7968252033595
 10
5508.963763166001
 20
1224.0188329548243
 10
5506.169878888657
 20
1221.732837471426
 10
5503.121783185532
 20
1218.430835518301
 10
5499.819781232407
 20
1213.3508413166408
 10
5497.533709455063
 20
1208.0168264240624
 10
5496.009661603501
 20
1202.4288289875392
 10
5496.517779279282
 20
1164.0748327106837
 10
5493.723895001938
 20
1155.4388158649806
 10
5489.913775373032
 20
1147.3108404011134
 10
5483.817889142563
 20
1139.6908300251368
 10
5480.261675763657
 20
1136.3888280720118
 10
5476.451861310532
 20
1133.5948293537501
 10
5469.085833478501
 20
1129.7848241657618
 10
5460.957781720688
 20
1126.9908254475001
 10
5322.019793439438
 20
1126.9908254475001
 10
5316.939837384751
 20
1126.2288396686915
 10
5312.113787580063
 20
1124.7048299641017
 10
5307.795855451157
 20
1122.4188344807033
 10
5304.239642072251
 20
1119.8788183063868
 10
5301.699664044907
 20
1117.338840279043
 10
5299.6678036933445
 20
1114.036838325918
 10
5296.1118954902195
 20
1106.9248311848048
 10
5296.1118954902195
 20
840.2248494953514
 10
5298.905779767563
 20
830.064861092031
 10
5301.191851544907
 20
825.4928701252342
 10
5303.985735822251
 20
821.6828267902732
 10
5309.8277158027195
 20
816.0948293537498
  0
LWPOLYLINE
  5
61
330
17
100
AcDbEntity
  8
0
100
AcDbPolyline
 90
57
 70
0
 10
5242.771784384751
 20
60.206981386953146
 10
5704.797808249497
 20
60.206981386953174
 10
5709.115816672349
 20
60.968700136953174
 10
5712.925783713365
 20
62.492747988514765
 10
5719.275805075669
 20
66.30286761742099
 10
5723.593813498521
 20
70.62079974632817
 10
5725.879808981919
 20
76.208873476796
 10
5727.149797995591
 20
92.97278949242101
 10
5726.38777406981
 20
100.33881732445317
 10
5718.259798605943
 20
135.13679095726476
 10
5714.449755270982
 20
148.09089251976476
 10
5697.431780417466
 20
194.06486102562505
 10
5695.5953418847075
 20
198.43004279458611
 10
5685.747820456529
 20
219.97291156273397
 10
5680.4138055639505
 20
234.95887347679601
 10
5675.841814597154
 20
258.32679339867104
 10
5674.571825583482
 20
270.2648121975001
 10
5673.8098016577005
 20
282.4568898342179
 10
5673.8098016577005
 20
453.90677997093707
 10
5682.064983659764
 20
508.208839361235
 10
5687.7797571020365
 20
553.4748036525781
 10
5691.589800436997
 20
589.034801211171
 10
5695.907808859849
 20
637.040782656484
 10
5700.9877649145365
 20
703.080821718984
 10
5704.2897668676615
 20
723.1468922756251
 10
5704.543825705552
 20
728.480907168203
 10
5704.035784323716
 20
733.0528981350001
 10
5701.495806296372
 20
742.9589039943751
 10
5697.939821799302
 20
749.0547902248429
 10
5693.6218133764505
 20
753.8808400295311
 10
5689.049822409654
 20
756.928783144765
 10
5683.7158075170755
 20
759.214854922109
 10
5298.651796896958
 20
759.2148549221089
 10
5291.539789755845
 20
758.1987721584368
 10
5285.189806540513
 20
755.4048878810928
 10
5281.125780661607
 20
752.3567921779678
 10
5276.807810385728
 20
747.7848012111709
 10
5273.505808432603
 20
742.4507863185928
 10
5255.715470050395
 20
700.8036147537929
 10
5243.533808310533
 20
669.0448720119529
 10
5231.595789511704
 20
646.1847645900779
 10
5229.309794028306
 20
640.0888783596089
 10
5228.039805014634
 20
634.5008046291399
 10
5227.531801779771
 20
624.5947987697649
 10
5229.547060748253
 20
602.2040376013709
 10
5234.389788229966
 20
563.3808095119531
 10
5235.405794699693
 20
546.8707997463281
 10
5235.659777243638
 20
530.3607899807031
 10
5235.405794699693
 20
513.8507802150781
 10
5234.389788229966
 20
497.34077044945315
 10
5231.595789511704
 20
470.92490741234286
 10
5227.023798544908
 20
444.50889178734286
 10
5224.483782370591
 20
81.03477069359285
 10
5226.007792075181
 20
75.70075580101472
 10
5228.801790793443
 20
70.87470599632813
 10
5234.643808920884
 20
65.03272601585893
 10
5238.4537759619
 20
62.238841738514736
  0
LWPOLYLINE
  5
62
330
17
100
AcDbEntity
  8
0
100
AcDbPolyline
 90
104
 70
0
 10
5782.848095384751
 20
1091.8354163226477
 10
5789.7070736562355
 20
1089.8924002704016
 10
5814.153193792479
 20
1089.5951223820928
 10
5863.023463454578
 20
1089.54186637319
 10
5906.95172069751
 20
1090.848628833553
 10
5945.942769086234
 20
1093.3970454592557
 10
6004.373096910629
 20
1098.605397706925
 10
6055.429005113754
 20
1112.0316062030188
 10
6110.991655937185
 20
1127.2380303951284
 10
6139.35724851867
 20
1132.7492653001143
 10
6163.152769311511
 20
1135.83084613599
 10
6182.334603376552
 20
1136.9011508494882
 10
6225.976585832748
 20
1137.5689826068274
 10
6235.722946611557
 20
1138.8313231524817
 10
6245.332741228256
 20
1140.8897719439856
 10
6253.787521806869
 20
1143.1690726336828
 10
6257.280334917221
 20
1144.7698721942295
 10
6260.433697191391
 20
1146.9650206622473
 10
6263.147530046615
 20
1149.6848235186924
 10
6265.335716692123
 20
1152.8430113849035
 10
6266.928829637681
 20
1156.3393340167395
 10
6267.876324144516
 20
1160.062860017716
 10
6268.148083177719
 20
1163.8954100665442
 10
6267.695507494125
 20
1195.5816969928137
 10
6268.035091844711
 20
1227.2694144305578
 10
6267.007069078598
 20
1237.221005922257
 10
6267.035736528549
 20
1247.2255263385166
 10
6268.120789018783
 20
1257.17107153505
 10
6270.250095811997
 20
1266.946404939591
 10
6271.793693987045
 20
1270.4575285968176
 10
6273.827385393295
 20
1273.709443574845
 10
6276.308655229721
 20
1276.6341719683996
 10
6279.185642686997
 20
1279.170640474259
 10
6282.398266283188
 20
1281.265843873917
 10
6285.87938734642
 20
1282.8759894427649
 10
6289.556259599839
 20
1283.9674506244055
 10
6293.3520931874855
 20
1284.5174155291907
 10
6353.757090059433
 20
1298.6954150256506
 10
6357.687611070785
 20
1300.7154974994055
 10
6361.227793184433
 20
1303.3606753405918
 10
6364.279159990463
 20
1306.5573821124426
 10
6366.756882158432
 20
1310.216725831925
 10
6368.592028108749
 20
1314.2369303759924
 10
6369.733585802231
 20
1318.5061965045325
 10
6370.14979788414
 20
1322.905810838639
 10
6369.829086748276
 20
1327.3134074267737
 10
6369.741892305527
 20
1479.390936857163
 10
6368.707518068466
 20
1483.8106999453894
 10
6366.925539461288
 20
1487.98547602266
 10
6365.770086733017
 20
1489.9414119777075
 10
6362.045292345199
 20
1492.9637131747595
 10
6358.0251736318205
 20
1495.5804143008581
 10
6353.753733125839
 20
1497.762883668839
 10
6349.277681795273
 20
1499.4872460421911
 10
6344.646000353012
 20
1500.7346329745642
 10
6339.909367052232
 20
1501.491402154862
 10
6335.119595018539
 20
1501.7492661532751
 10
6324.3159813558195
 20
1501.3650260028235
 10
6312.336658922348
 20
1502.3744807299963
 10
6300.624031511459
 20
1505.0833306369177
 10
6289.417957750473
 20
1509.4361195620886
 10
6284.077095476303
 20
1512.2024092730871
 10
6281.381802049789
 20
1517.8684554156653
 10
6279.8160786306
 20
1523.9444098529211
 10
6277.677177873765
 20
1541.7978606280676
 10
6277.3451275502775
 20
1562.781651979386
 10
6277.359642473373
 20
1568.8390860614172
 10
6276.5601009999855
 20
1574.8435530719153
 10
6274.9609799062355
 20
1580.686114793717
 10
6273.870090929185
 20
1583.5134158191076
 10
6271.488785234604
 20
1585.8390364703528
 10
6266.008724657211
 20
1589.5992884692541
 10
6262.982086626206
 20
1590.9844145831457
 10
6248.704803685325
 20
1592.348786707389
 10
6234.414448228989
 20
1593.1500468310705
 10
6224.875119792672
 20
1593.148916296934
 10
6205.777096239242
 20
1592.3124156054846
 10
6160.452999559555
 20
1585.0961527881018
 10
6155.938979286298
 20
1584.272135990109
 10
6115.450100389633
 20
1576.0914073047034
 10
6095.590809050058
 20
1575.611973771931
 10
6060.860126938633
 20
1575.888956537946
 10
6026.166080919419
 20
1577.9374156054846
 10
5987.631380833577
 20
1578.5222299976942
 10
5963.669434770783
 20
1580.230298384843
 10
5944.600462859573
 20
1582.7015340730125
 10
5911.354069200669
 20
1588.3914122638098
 10
5878.713260432143
 20
1594.569136939864
 10
5855.293774095689
 20
1598.1802783069006
 10
5836.4542707987175
 20
1600.2732993195198
 10
5798.599056688462
 20
1603.1094107684485
 10
5794.037441698228
 20
1602.8288874682776
 10
5789.559978929673
 20
1601.912816530167
 10
5785.254711595689
 20
1600.3792223986975
 10
5781.206402269517
 20
1598.2582793292395
 10
5777.494701830064
 20
1595.5917296466223
 10
5774.192699876939
 20
1592.4320445117346
 10
5771.365246263657
 20
1588.8413844165198
 10
5769.068111864243
 20
1584.8904070910803
 10
5769.220852342759
 20
1124.7094855365149
 10
5770.79456755272
 20
1114.9177298602453
 10
5773.800472704087
 20
1103.785947328507
 10
5776.721691576157
 20
1098.4947714862217
 10
5780.596279588853
 20
1093.8560614642493
  0
CIRCLE
  5
63
330
17
100
AcDbEntity
  8
0
100
AcDbCircle
 10
5812.734112230454
 20
1502.211411958634
 30
0.0
 40
12.00000047683716
  0
CIRCLE
  5
64
330
17
100
AcDbEntity
  8
0
100
AcDbCircle
 10
5815.352062669907
 20
1220.612405305802
 30
0.0
 40
12.00000047683716
  0
LWPOLYLINE
  5
65
330
17
100
AcDbEntity
  8
0
100
AcDbPolyline
 90
85
 70
0
 10
6048.1337683847505
 20
697.1164441395821
 10
6042.4454062631685
 20
698.4592271138252
 10
6036.63588935643
 20
699.0993905354561
 10
6030.791658704575
 20
699.0274071980538
 10
6024.999689405258
 20
698.2443499852242
 10
6019.346155469711
 20
696.7618727971138
 10
6013.915170972641
 20
694.6020341206612
 10
6008.787607496079
 20
691.7969727803292
 10
6004.039758985336
 20
688.38844063769
 10
5996.721224134262
 20
676.6705441762032
 10
5988.815759961899
 20
665.3403592396797
 10
5980.343775098618
 20
654.4272542286934
 10
5971.327318494614
 20
643.9595341969551
 10
5961.78969795018
 20
633.9643311787667
 10
5951.7557089975435
 20
624.4675565053047
 10
5941.25129157811
 20
615.4938435841623
 10
5930.303758924301
 20
607.0664429951729
 10
5927.529978101547
 20
607.3620057393135
 10
5924.749712293442
 20
607.1351361561838
 10
5922.06054145604
 20
606.3937878895821
 10
5919.556803052719
 20
605.1639771748604
 10
5917.326273267564
 20
603.4888482380928
 10
5915.447267835435
 20
601.4271569539131
 10
5913.985666578111
 20
599.0512395192208
 10
5912.992777173814
 20
596.4444470692696
 10
5909.887422864732
 20
581.7377019215645
 10
5907.954744642076
 20
566.8314481068672
 10
5907.954744642076
 20
434.7954297352853
 10
5904.593990578265
 20
405.8901045531797
 10
5900.556076464568
 20
377.1272437567049
 10
5896.185335462388
 20
353.3698010731759
 10
5892.976645506789
 20
339.2386714100538
 10
5886.79282870108
 20
315.8626706276165
 10
5865.965265577134
 20
246.32233860979696
 10
5862.275423353013
 20
227.3643994618478
 10
5860.023340528306
 20
208.18242314348842
 10
5859.4407599619
 20
198.5414243031564
 10
5859.4407599619
 20
46.35545018206264
 10
5857.581890426002
 20
37.44430977146837
 10
5857.9989696767725
 20
31.364828937678084
 10
5859.680992249769
 20
25.52066339093651
 10
5862.580243519507
 20
20.16811009924786
 10
5866.556252327403
 20
15.56646153447943
 10
5871.42045799243
 20
11.89582501445031
 10
5874.123911207017
 20
10.499660997492327
 10
5879.8997443369
 20
8.58445408831264
 10
6335.371279065903
 20
8.786938219172072
 10
6345.56598121434
 20
11.472027330500199
 10
6351.883730237778
 20
14.572460680109574
 10
6355.6251090219575
 20
16.976254015070516
 10
6358.955110853012
 20
19.92371800432833
 10
6361.795534436997
 20
23.345501451593954
 10
6364.079546277817
 20
27.161190538508016
 10
6365.7535117319185
 20
31.28113987932833
 10
6366.778139417465
 20
35.60853245745333
 10
6367.129320447739
 20
40.041668443781454
 10
6366.7987387827
 20
44.47640660296114
 10
6366.448853300647
 20
62.52476539733542
 10
6364.733093818448
 20
94.03396796949643
 10
6361.265749280747
 20
125.42344334612518
 10
6354.724588833738
 20
158.24314233500857
 10
6350.988420789536
 20
181.80848362932832
 10
6348.525007180643
 20
205.54063605198402
 10
6346.386751478012
 20
238.93742802630092
 10
6345.841783826645
 20
358.3154416371408
 10
6357.440370862778
 20
423.2651257802072
 10
6358.929325096131
 20
432.5710567584068
 10
6370.031618421372
 20
508.5391927052561
 10
6370.149797742661
 20
522.0281529713693
 10
6368.787035291489
 20
535.4486394215646
 10
6367.554735486801
 20
542.082436113459
 10
6362.730132980035
 20
559.1581753572176
 10
6359.791216199692
 20
572.0934415150705
 10
6358.373212602059
 20
580.8192801219975
 10
6356.063722913559
 20
602.8674435902658
 10
6355.22418433934
 20
619.0663743306222
 10
6352.892946546372
 20
635.1186585713449
 10
6349.089998548325
 20
650.8872247029367
 10
6340.582231824692
 20
676.6685223866525
 10
6337.870363538559
 20
681.4294457722726
 10
6334.507936780747
 20
685.7555413533273
 10
6330.563616102036
 20
689.5585847188058
 10
6326.117815320786
 20
692.761023073298
 10
6321.261171644028
 20
695.297553567988
 10
6316.092790906723
 20
697.1164441395822
  0
LWPOLYLINE
  5
66
330
17
100
AcDbEntity
  8
0
100
AcDbPolyline
 90
86
 70
0
 10
6345.358161384751
 20
705.0124796984262
 10
6349.901704246689
 20
705.2630290148325
 10
6354.298781807114
 20
706.4344462511606
 10
6358.364762718369
 20
708.4775981066293
 10
6361.928939277817
 20
711.3065775988168
 10
6364.841641838242
 20
714.8026713488168
 10
6366.980580742051
 20
718.8190898058481
 10
6368.255938942124
 20
723.1871470568246
 10
6368.6141580888525
 20
727.7234324572153
 10
6368.6141580888525
 20
949.1954478380749
 10
6370.149798325787
 20
957.9380963562348
 10
6369.611923354816
 20
963.854200070356
 10
6367.888332535824
 20
969.5273965973188
 10
6365.024639364479
 20
974.7253698399918
 10
6361.150100492769
 20
979.2135335461728
 10
6356.436708281376
 20
982.8292158822578
 10
6353.820113594224
 20
984.226728355653
 10
6348.226165229966
 20
986.2024363634648
 10
6323.372163231064
 20
987.5374278185438
 10
6318.845490867783
 20
989.2225321886608
 10
6314.602260048081
 20
991.5301188585829
 10
6310.727576667954
 20
994.4141062853398
 10
6307.299165184189
 20
997.816434776551
 10
6305.11651938646
 20
1003.671003257997
 10
6303.4181494066015
 20
1009.6839579699108
 10
6302.215351516892
 20
1015.8153208849499
 10
6301.516122276475
 20
1022.024274742372
 10
6301.325110847642
 20
1028.2695445177621
 10
6301.643585617234
 20
1034.509626304872
 10
6302.469434196641
 20
1040.7029399035039
 10
6304.391235763718
 20
1050.993162071473
 10
6305.021070892502
 20
1059.4208201525282
 10
6304.902991707017
 20
1067.871213829286
 10
6304.037923271348
 20
1076.27804366327
 10
6302.383245880295
 20
1085.1619395372938
 10
6300.481066162278
 20
1089.5809611437392
 10
6297.703403885056
 20
1093.5091075060438
 10
6294.171161110093
 20
1096.775480186708
 10
6285.932368690659
 20
1097.294431602723
 10
6277.835163528611
 20
1098.901487266786
 10
6009.728440696885
 20
1098.977247154481
 10
6006.150464470078
 20
1097.8731211779188
 10
6002.874593193223
 20
1096.0593852160039
 10
6000.039777214219
 20
1093.6129435656142
 10
5997.7662939378515
 20
1090.6377085802621
 10
5996.150578910996
 20
1087.2597941515512
 10
5995.261163170029
 20
1083.6224803087782
 10
5993.326291496445
 20
1054.443555748231
 10
5993.180139340881
 20
1049.5738981145262
 10
5993.103169853379
 20
1025.2014598009648
 10
5994.227704460312
 20
1019.0953501818248
 10
5993.947438652207
 20
1012.8928050158087
 10
5992.276753837754
 20
1006.9130381701058
 10
5989.301576072861
 20
1001.4634379503788
 10
5985.174970085312
 20
996.8244608995977
 10
5980.10916655748
 20
993.2346018908087
 10
5974.36474745958
 20
990.8784922716687
 10
5968.237161094834
 20
989.8774394152227
 10
5889.672154838731
 20
989.4634684679578
 10
5885.834607536485
 20
990.5642375109259
 10
5881.863202507188
 20
990.9724101183477
 10
5877.881993705919
 20
990.6751689074106
 10
5874.015225822618
 20
989.6818980333867
 10
5870.383634025743
 20
988.0235728380746
 10
5867.100591118028
 20
985.7519206163947
 10
5864.2686361619735
 20
982.9379710314336
 10
5861.9761556932235
 20
979.6694621203008
 10
5861.8227285692
 20
977.1461161730356
 10
5861.154660637071
 20
974.7079905626836
 10
5859.255589897325
 20
971.4355143663947
 10
5858.409146721056
 20
970.4944285509646
 10
5858.409146721056
 20
711.1584910509652
 10
5859.34958403795
 20
706.9385966417855
 10
5861.137189323595
 20
703.0021342394417
 10
5863.695706779649
 20
699.5170268175667
 10
5866.915883476427
 20
696.6322764513558
 10
5870.660199577501
 20
694.4708689806527
 10
5874.768819267442
 20
693.1251963732308
 10
5879.066304619005
 20
692.6526316759652
 10
5883.369168693712
 20
693.0734690783089
 10
5994.373158867051
 20
693.0734690783089
 10
6008.218217523046
 20
696.1975919923597
 10
6036.104194053027
 20
701.2893844423057
 10
6059.582166130234
 20
704.1174754259652
 10
6114.728612358262
 20
704.1403636095589
 10
6169.868163520981
 20
705.0124796984261
  0
LWPOLYLINE
  5
67
330
17
100
AcDbEntity
  8
0
100
AcDbPolyline
 90
95
 70
0
 10
6344.090991384752
 20
1592.4371951000003
 10
6348.718104727037
 20
1592.479614533594
 10
6353.237567312486
 20
1593.4727328197268
 10
6357.456241018541
 20
1595.3740542308597
 10
6361.19372881151
 20
1598.1022494212893
 10
6364.290271169908
 20
1601.5408175365237
 10
6366.613459951646
 20
1605.5426638500003
 10
6368.064036733873
 20
1609.9367373363284
 10
6368.579974539049
 20
1614.5352023021487
 10
6369.688487417467
 20
1629.1635744945315
 10
6370.149798757799
 20
1643.8267367259768
 10
6369.962993032701
 20
1658.4958498851565
 10
6369.1284135649275
 20
1673.142456330469
 10
6367.6477006743025
 20
1687.7378695384768
 10
6365.523753530748
 20
1702.2537081615237
 10
6362.760730154283
 20
1716.661514558008
 10
6359.36397112108
 20
1730.933212556055
 10
6354.0723756620955
 20
1745.0749819652347
 10
6349.541659719713
 20
1759.4785921947268
 10
6345.784716970689
 20
1774.1030733958987
 10
6342.812152273424
 20
1788.9069216625005
 10
6340.6324342558455
 20
1803.8480990306646
 10
6339.251780874498
 20
1818.8842623607427
 10
6338.674083120592
 20
1833.9725344554686
 10
6338.704562551743
 20
1866.6944735423826
 10
6337.370753652817
 20
1873.6337130443367
 10
6336.439967520005
 20
1877.0432131664068
 10
6335.010447866684
 20
1880.3441470042976
 10
6332.9849580595555
 20
1883.3168642894536
 10
6330.43590105272
 20
1885.8550112621097
 10
6327.454486257798
 20
1887.8677981273436
 10
6324.147410757309
 20
1889.2831271068367
 10
6320.633006460434
 20
1890.0504153148436
 10
6317.036967642075
 20
1890.1421969310547
 10
6313.487964041001
 20
1889.5551913158206
 10
6250.935664541489
 20
1891.2866824046876
 10
6244.876933462388
 20
1893.9310305492186
 10
6239.78045976854
 20
1898.1413882152347
 10
6237.719989187485
 20
1900.7362215892576
 10
6234.980426199204
 20
1908.5874026195318
 10
6233.183055288559
 20
1916.7062228099617
 10
6232.352710134751
 20
1924.9800722972657
 10
6232.500987417466
 20
1933.2942049876956
 10
6233.156962759263
 20
1957.2872012035157
 10
6234.655299551255
 20
1964.5139162914068
 10
6234.722895986802
 20
1971.8940585033206
 10
6233.357158071763
 20
1979.1470950023436
 10
6230.60996568895
 20
1985.9972231761726
 10
6228.811107046372
 20
1989.4540255443367
 10
6226.400523550278
 20
1992.5157778636726
 10
6223.462329275376
 20
1995.0755923167976
 10
6220.0992158720555
 20
1997.0440523998047
 10
6216.428599722153
 20
1998.3524172679686
 10
6212.578616506821
 20
1998.9550631419927
 10
6208.683734304673
 20
1998.8308565990237
 10
6204.8799852202
 20
1997.9842226878907
 10
5954.301982290513
 20
1997.9842226878907
 10
5947.787013418442
 20
1999.0000002757818
 10
5941.251063711411
 20
1998.1291048900396
 10
5935.229335195786
 20
1995.4428713695318
 10
5930.214991934067
 20
1991.1611788646487
 10
5925.893550283677
 20
1981.6229098216797
 10
5922.448497183091
 20
1971.7342989818367
 10
5919.907832510239
 20
1961.5756075755867
 10
5918.292079336412
 20
1951.2294619457036
 10
5917.614436514146
 20
1940.7798617259766
 10
5917.880473501451
 20
1930.3116457835936
 10
5919.087901479967
 20
1919.9099581615237
 10
5922.011256582505
 20
1904.4620364085936
 10
5921.0209611723485
 20
1899.3002169505867
 10
5916.863246328599
 20
1894.8643343822266
 10
5911.794581777818
 20
1891.5068667308597
 10
5906.08832872606
 20
1889.4087832347657
 10
5900.051951772935
 20
1888.6832278148436
 10
5892.08556688524
 20
1889.0496676341797
 10
5884.128947622545
 20
1888.5099642650396
 10
5876.285014517076
 20
1887.0709078685547
 10
5865.191951162584
 20
1883.6543124095706
 10
5862.375331289537
 20
1881.3603823558597
 10
5860.599971182115
 20
1878.1912081615237
 10
5860.1149705717635
 20
1874.5912020580076
 10
5860.1149705717635
 20
1621.203216828516
 10
5862.343516714342
 20
1616.2083285228518
 10
5865.871959097154
 20
1612.029175080469
 10
5870.422511465318
 20
1608.9948885814456
 10
5875.636973745592
 20
1607.3441927806643
 10
6142.871013052232
 20
1607.3441927806643
 10
6157.042155630357
 20
1608.9160006419925
 10
6171.296763784654
 20
1608.6029665843753
 10
6185.385280020006
 20
1606.4105837718753
 10
6203.391972294725
 20
1601.7441570043331
 10
6224.915719395363
 20
1597.9282926769067
 10
6241.903987295396
 20
1593.7322085277347
 10
6255.832913546992
 20
1593.1092220360592
 10
6302.273673148756
 20
1591.9001674103718
  0
ENDSEC
  0
SECTION
  2
OBJECTS
  0
DICTIONARY
  5
A
330
0
100
AcDbDictionary
281
1
  3
ACAD_COLOR
350
B
  3
ACAD_GROUP
350
C
  3
ACAD_LAYOUT
350
D
  3
ACAD_MATERIAL
350
E
  3
ACAD_MLEADERSTYLE
350
F
  3
ACAD_MLINESTYLE
350
10
  3
ACAD_PLOTSETTINGS
350
11
  3
ACAD_PLOTSTYLENAME
350
12
  3
ACAD_SCALELIST
350
14
  3
ACAD_TABLESTYLE
350
15
  3
ACAD_VISUALSTYLE
350
16
  3
EZDXF_META
350
2D
  0
DICTIONARY
  5
B
330
A
100
AcDbDictionary
281
1
  0
DICTIONARY
  5
C
330
A
100
AcDbDictionary
281
1
  0
DICTIONARY
  5
D
330
A
100
AcDbDictionary
281
1
  3
Model
350
1A
  3
Layout1
350
1E
  0
DICTIONARY
  5
E
330
A
100
AcDbDictionary
281
1
  3
ByBlock
350
1F
  3
ByLayer
350
20
  3
Global
350
21
  0
DICTIONARY
  5
F
330
A
100
AcDbDictionary
281
1
  3
Standard
350
2C
  0
DICTIONARY
  5
10
330
A
100
AcDbDictionary
281
1
  3
Standard
350
22
  0
DICTIONARY
  5
11
330
A
100
AcDbDictionary
281
1
  0
ACDBDICTIONARYWDFLT
  5
12
330
A
100
AcDbDictionary
281
1
  3
Normal
350
13
100
AcDbDictionaryWithDefault
340
13
  0
ACDBPLACEHOLDER
  5
13
330
12
  0
DICTIONARY
  5
14
330
A
100
AcDbDictionary
281
1
  0
DICTIONARY
  5
15
330
A
100
AcDbDictionary
281
1
  0
DICTIONARY
  5
16
330
A
100
AcDbDictionary
281
1
  0
LAYOUT
  5
1A
330
D
100
AcDbPlotSettings
  1

  4
A3
  6

 40
7.5
 41
20.0
 42
7.5
 43
20.0
 44
420.0
 45
297.0
 46
0.0
 47
0.0
 48
0.0
 49
0.0
140
0.0
141
0.0
142
1.0
143
1.0
 70
1024
 72
1
 73
0
 74
5
  7

 75
16
 76
0
 77
2
 78
300
147
1.0
148
0.0
149
0.0
100
AcDbLayout
  1
Model
 70
1
 71
0
 10
0.0
 20
0.0
 11
420.0
 21
297.0
 12
0.0
 22
0.0
 32
0.0
 14
1e+20
 24
1e+20
 34
1e+20
 15
-1e+20
 25
-1e+20
 35
-1e+20
146
0.0
 13
0.0
 23
0.0
 33
0.0
 16
1.0
 26
0.0
 36
0.0
 17
0.0
 27
1.0
 37
0.0
 76
1
330
17
  0
LAYOUT
  5
1E
330
D
100
AcDbPlotSettings
  1

  4
A3
  6

 40
7.5
 41
20.0
 42
7.5
 43
20.0
 44
420.0
 45
297.0
 46
0.0
 47
0.0
 48
0.0
 49
0.0
140
0.0
141
0.0
142
1.0
143
1.0
 70
0
 72
1
 73
0
 74
5
  7

 75
16
 76
0
 77
2
 78
300
147
1.0
148
0.0
149
0.0
100
AcDbLayout
  1
Layout1
 70
1
 71
1
 10
0.0
 20
0.0
 11
420.0
 21
297.0
 12
0.0
 22
0.0
 32
0.0
 14
1e+20
 24
1e+20
 34
1e+20
 15
-1e+20
 25
-1e+20
 35
-1e+20
146
0.0
 13
0.0
 23
0.0
 33
0.0
 16
1.0
 26
0.0
 36
0.0
 17
0.0
 27
1.0
 37
0.0
 76
1
330
1B
  0
MATERIAL
  5
1F
102
{ACAD_REACTORS
330
E
102
}
330
E
100
AcDbMaterial
  1
ByBlock
  2

 70
0
 40
1.0
 71
1
 41
1.0
 91
-1023410177
 42
1.0
 72
1
  3

 73
1
 74
1
 75
1
 44
0.5
 73
0
 45
1.0
 46
1.0
 77
1
  4

 78
1
 79
1
170
1
 48
1.0
171
1
  6

172
1
173
1
174
1
140
1.0
141
1.0
175
1
  7

176
1
177
1
178
1
143
1.0
179
1
  8

270
1
271
1
272
1
145
1.0
146
1.0
273
1
  9

274
1
275
1
276
1
 42
1.0
 72
1
  3

 73
1
 74
1
 75
1
 94
63
  0
MATERIAL
  5
20
102
{ACAD_REACTORS
330
E
102
}
330
E
100
AcDbMaterial
  1
ByLayer
  2

 70
0
 40
1.0
 71
1
 41
1.0
 91
-1023410177
 42
1.0
 72
1
  3

 73
1
 74
1
 75
1
 44
0.5
 73
0
 45
1.0
 46
1.0
 77
1
  4

 78
1
 79
1
170
1
 48
1.0
171
1
  6

172
1
173
1
174
1
140
1.0
141
1.0
175
1
  7

176
1
177
1
178
1
143
1.0
179
1
  8

270
1
271
1
272
1
145
1.0
146
1.0
273
1
  9

274
1
275
1
276
1
 42
1.0
 72
1
  3

 73
1
 74
1
 75
1
 94
63
  0
MATERIAL
  5
21
102
{ACAD_REACTORS
330
E
102
}
330
E
100
AcDbMaterial
  1
Global
  2

 70
0
 40
1.0
 71
1
 41
1.0
 91
-1023410177
 42
1.0
 72
1
  3

 73
1
 74
1
 75
1
 44
0.5
 73
0
 45
1.0
 46
1.0
 77
1
  4

 78
1
 79
1
170
1
 48
1.0
171
1
  6

172
1
173
1
174
1
140
1.0
141
1.0
175
1
  7

176
1
177
1
178
1
143
1.0
179
1
  8

270
1
271
1
272
1
145
1.0
146
1.0
273
1
  9

274
1
275
1
276
1
 42
1.0
 72
1
  3

 73
1
 74
1
 75
1
 94
63
  0
MLINESTYLE
  5
22
102
{ACAD_REACTORS
330
10
102
}
330
10
100
AcDbMlineStyle
  2
Standard
 70
0
  3

 62
256
 51
90.0
 52
90.0
 71
2
 49
0.5
 62
256
  6
BYLAYER
 49
-0.5
 62
256
  6
BYLAYER
  0
MLEADERSTYLE
  5
2C
102
{ACAD_REACTORS
330
F
102
}
330
F
100
AcDbMLeaderStyle
179
2
170
2
171
1
172
0
 90
2
 40
0.0
 41
0.0
173
1
 91
-1056964608
 92
-2
290
1
 42
2.0
291
1
 43
8.0
  3
Standard
 44
4.0
300

342
29
174
1
175
1
176
0
178
1
 93
-1056964608
 45
4.0
292
0
297
0
 46
4.0
 94
-1056964608
 47
1.0
 49
1.0
140
1.0
294
1
141
0.0
177
0
142
1.0
295
0
296
0
143
3.75
271
0
272
9
273
9
  0
DICTIONARY
  5
2D
330
A
100
AcDbDictionary
280
1
281
1
  3
CREATED_BY_EZDXF
350
2E
  3
WRITTEN_BY_EZDXF
350
6A
  0
DICTIONARYVAR
  5
2E
330
2D
100
DictionaryVariables
280
0
  1
1.4.2 @ 2025-10-23T11:27:18.086129+00:00
  0
DICTIONARYVAR
  5
6A
330
2D
100
DictionaryVariables
280
0
  1
1.4.2 @ 2025-10-23T11:27:18.731992+00:00
  0
ENDSEC
  0
EOF
