  0
SECTION
  2
HEADER
  9
$ACADVER
  1
AC1015
  9
$HANDSEED
  5
FFFF
  0
ENDSEC
  0
SECTION
  2
TABLES
  0
TABLE
  2
VPORT
  5
8
100
AcDbSymbolTable
 70
1
  0
VPORT
  5
30
100
AcDbSymbolTableRecord
100
AcDbViewportTableRecord
  2
*Active
 70
0
 10
0.0
 20
0.0
 11
1.0
 21
1.0
 12
286.30555555555549
 22
148.5
 13
0.0
 23
0.0
 14
10.0
 24
10.0
 15
10.0
 25
10.0
 16
0.0
 26
0.0
 36
1.0
 17
0.0
 27
0.0
 37
0.0
 40
297.0
 41
1.92798353909465
 42
50.0
 43
0.0
 44
0.0
 50
0.0
 51
0.0
 71
0
 72
100
 73
1
 74
3
 75
1
 76
1
 77
0
 78
0
281
0
 65
1
110
0.0
120
0.0
130
0.0
111
1.0
121
0.0
131
0.0
112
0.0
122
1.0
132
0.0
 79
0
146
0.0
  0
ENDTAB
  0
TABLE
  2
LTYPE
  5
5
100
AcDbSymbolTable
 70
3
  0
LTYPE
  5
14
100
AcDbSymbolTableRecord
100
AcDbLinetypeTableRecord
  2
BYBLOCK
 70
0
  3

 72
65
 73
0
 40
0.0
  0
LTYPE
  5
15
100
AcDbSymbolTableRecord
100
AcDbLinetypeTableRecord
  2
BYLAYER
 70
0
  3

 72
65
 73
0
 40
0.0
  0
LTYPE
  5
16
100
AcDbSymbolTableRecord
100
AcDbLinetypeTableRecord
  2
CONTINUOUS
 70
0
  3
Solid line
 72
65
 73
0
 40
0.0
  0
ENDTAB
  0
TABLE
  2
LAYER
  5
2
100
AcDbSymbolTable
 70
3
  0
LAYER
  5
10
100
AcDbSymbolTableRecord
100
AcDbLayerTableRecord
  2
0
 70
0
 62
250
  6
CONTINUOUS
370
100
390
F
  0
LAYER
  5
31
100
AcDbSymbolTableRecord
100
AcDbLayerTableRecord
  2
layer0
 70
0
 62
240
  6
CONTINUOUS
370
100
390
F
  0
LAYER
  5
32
100
AcDbSymbolTableRecord
100
AcDbLayerTableRecord
  2
layer1
 70
0
 62
255
  6
CONTINUOUS
370
100
390
F
  0
ENDTAB
  0
TABLE
  2
STYLE
  5
3
100
AcDbSymbolTable
 70
1
  0
STYLE
  5
33
100
AcDbSymbolTableRecord
100
AcDbTextStyleTableRecord
  2
standard
 70
0
 40
2.5
 41
1.0
 50
0.0
 71
0
 42
2.5
  3

  4

1001
ACAD
1000
txt
1071
0
  0
ENDTAB
  0
TABLE
  2
VIEW
  5
6
100
AcDbSymbolTable
 70
0
  0
ENDTAB
  0
TABLE
  2
UCS
  5
7
100
AcDbSymbolTable
 70
0
  0
ENDTAB
  0
TABLE
  2
APPID
  5
9
100
AcDbSymbolTable
 70
1
  0
APPID
  5
12
100
AcDbSymbolTableRecord
100
AcDbRegAppTableRecord
  2
ACAD
 70
0
  0
ENDTAB
  0
TABLE
  2
DIMSTYLE
  5
A
100
AcDbSymbolTable
 70
1
100
AcDbDimStyleTable
 71
0
  0
DIMSTYLE
105
27
100
AcDbSymbolTableRecord
100
AcDbDimStyleTableRecord
  2
Standard
 41
1.0
 42
1.0
 43
3.75
 44
1.0
 70
0
 73
0
 74
0
 77
1
 78
8
140
1.0
141
2.5
143
0.03937007874016
147
1.0
171
3
172
1
271
2
272
2
274
3
278
44
283
0
284
8
340
0
  0
ENDTAB
  0
TABLE
  2
BLOCK_RECORD
  5
1
100
AcDbSymbolTable
 70
1
  0
BLOCK_RECORD
  5
1F
100
AcDbSymbolTableRecord
100
AcDbBlockTableRecord
  2
*Model_Space
340
22
  0
BLOCK_RECORD
  5
1B
100
AcDbSymbolTableRecord
100
AcDbBlockTableRecord
  2
*Paper_Space
340
1E
  0
BLOCK_RECORD
  5
23
100
AcDbSymbolTableRecord
100
AcDbBlockTableRecord
  2
*Paper_Space0
340
26
  0
ENDTAB
  0
ENDSEC
  0
SECTION
  2
BLOCKS
  0
BLOCK
  5
20
100
AcDbEntity
  8
0
100
AcDbBlockBegin
  2
*Model_Space
 70
0
 10
0.0
 20
0.0
 30
0.0
  3
*Model_Space
  1

  0
ENDBLK
  5
21
100
AcDbEntity
  8
0
100
AcDbBlockEnd
  0
BLOCK
  5
1C
100
AcDbEntity
 67
1
  8
0
100
AcDbBlockBegin
  2
*Paper_Space
 70
0
 10
0.0
 20
0.0
 30
0.0
  3
*Paper_Space
  1

  0
ENDBLK
  5
1D
100
AcDbEntity
 67
1
  8
0
100
AcDbBlockEnd
  0
BLOCK
  5
24
100
AcDbEntity
  8
0
100
AcDbBlockBegin
  2
*Paper_Space0
 70
0
 10
0.0
 20
0.0
 30
0.0
  3
*Paper_Space0
  1

  0
ENDBLK
  5
25
100
AcDbEntity
  8
0
100
AcDbBlockEnd
  0
ENDSEC
  0
SECTION
  2
ENTITIES
  0
SPLINE
  5
34
100
AcDbEntity
  8
layer0
 62
256
370
-1
 48
1.0
  6
BYLAYER
100
AcDbSpline
 70
8
 71
3
 72
668
 73
664
 74
0
 40
0.0
 40
0.0
 40
0.0
 40
0.0
 40
0.0060240961611271
 40
0.0060240961611271
 40
0.0060240961611271
 40
0.0060240961611271
 40
0.0120481923222542
 40
0.0120481923222542
 40
0.0120481923222542
 40
0.0120481923222542
 40
0.0180722884833813
 40
0.0180722884833813
 40
0.0180722884833813
 40
0.0180722884833813
 40
0.0240963846445084
 40
0.0240963846445084
 40
0.0240963846445084
 40
0.0240963846445084
 40
0.0301204808056355
 40
0.0301204808056355
 40
0.0301204808056355
 40
0.0301204808056355
 40
0.0361445769667625
 40
0.0361445769667625
 40
0.0361445769667625
 40
0.0361445769667625
 40
0.0421686731278896
 40
0.0421686731278896
 40
0.0421686731278896
 40
0.0421686731278896
 40
0.0481927692890167
 40
0.0481927692890167
 40
0.0481927692890167
 40
0.0481927692890167
 40
0.0542168654501438
 40
0.0542168654501438
 40
0.0542168654501438
 40
0.0542168654501438
 40
0.0602409616112709
 40
0.0602409616112709
 40
0.0602409616112709
 40
0.0602409616112709
 40
0.066265057772398
 40
0.066265057772398
 40
0.066265057772398
 40
0.066265057772398
 40
0.0722891539335251
 40
0.0722891539335251
 40
0.0722891539335251
 40
0.0722891539335251
 40
0.0783132500946522
 40
0.0783132500946522
 40
0.0783132500946522
 40
0.0783132500946522
 40
0.0843373462557793
 40
0.0843373462557793
 40
0.0843373462557793
 40
0.0843373462557793
 40
0.0903614424169064
 40
0.0903614424169064
 40
0.0903614424169064
 40
0.0903614424169064
 40
0.0963855385780334
 40
0.0963855385780334
 40
0.0963855385780334
 40
0.0963855385780334
 40
0.1024096347391605
 40
0.1024096347391605
 40
0.1024096347391605
 40
0.1024096347391605
 40
0.1084337309002876
 40
0.1084337309002876
 40
0.1084337309002876
 40
0.1084337309002876
 40
0.1144578270614147
 40
0.1144578270614147
 40
0.1144578270614147
 40
0.1144578270614147
 40
0.1204819232225418
 40
0.1204819232225418
 40
0.1204819232225418
 40
0.1204819232225418
 40
0.1265060193836689
 40
0.1265060193836689
 40
0.1265060193836689
 40
0.1265060193836689
 40
0.132530115544796
 40
0.132530115544796
 40
0.132530115544796
 40
0.132530115544796
 40
0.1385542117059231
 40
0.1385542117059231
 40
0.1385542117059231
 40
0.1385542117059231
 40
0.1445783078670502
 40
0.1445783078670502
 40
0.1445783078670502
 40
0.1445783078670502
 40
0.1506024040281773
 40
0.1506024040281773
 40
0.1506024040281773
 40
0.1506024040281773
 40
0.1566265001893044
 40
0.1566265001893044
 40
0.1566265001893044
 40
0.1566265001893044
 40
0.1626505963504314
 40
0.1626505963504314
 40
0.1626505963504314
 40
0.1626505963504314
 40
0.1686746925115585
 40
0.1686746925115585
 40
0.1686746925115585
 40
0.1686746925115585
 40
0.1746987886726856
 40
0.1746987886726856
 40
0.1746987886726856
 40
0.1746987886726856
 40
0.1807228848338127
 40
0.1807228848338127
 40
0.1807228848338127
 40
0.1807228848338127
 40
0.1867469809949398
 40
0.1867469809949398
 40
0.1867469809949398
 40
0.1867469809949398
 40
0.1927710771560669
 40
0.1927710771560669
 40
0.1927710771560669
 40
0.1927710771560669
 40
0.198795173317194
 40
0.198795173317194
 40
0.198795173317194
 40
0.198795173317194
 40
0.2048192694783211
 40
0.2048192694783211
 40
0.2048192694783211
 40
0.2048192694783211
 40
0.2108433656394482
 40
0.2108433656394482
 40
0.2108433656394482
 40
0.2108433656394482
 40
0.2168674618005753
 40
0.2168674618005753
 40
0.2168674618005753
 40
0.2168674618005753
 40
0.2228915579617024
 40
0.2228915579617024
 40
0.2228915579617024
 40
0.2228915579617024
 40
0.2289156541228294
 40
0.2289156541228294
 40
0.2289156541228294
 40
0.2289156541228294
 40
0.2349397502839565
 40
0.2349397502839565
 40
0.2349397502839565
 40
0.2349397502839565
 40
0.2409638464450836
 40
0.2409638464450836
 40
0.2409638464450836
 40
0.2409638464450836
 40
0.2469879426062107
 40
0.2469879426062107
 40
0.2469879426062107
 40
0.2469879426062107
 40
0.2530120387673378
 40
0.2530120387673378
 40
0.2530120387673378
 40
0.2530120387673378
 40
0.2590361349284649
 40
0.2590361349284649
 40
0.2590361349284649
 40
0.2590361349284649
 40
0.265060231089592
 40
0.265060231089592
 40
0.265060231089592
 40
0.265060231089592
 40
0.2710843272507191
 40
0.2710843272507191
 40
0.2710843272507191
 40
0.2710843272507191
 40
0.2771084234118462
 40
0.2771084234118462
 40
0.2771084234118462
 40
0.2771084234118462
 40
0.2831325195729733
 40
0.2831325195729733
 40
0.2831325195729733
 40
0.2831325195729733
 40
0.2891566157341003
 40
0.2891566157341003
 40
0.2891566157341003
 40
0.2891566157341003
 40
0.2951807118952274
 40
0.2951807118952274
 40
0.2951807118952274
 40
0.2951807118952274
 40
0.3012048080563545
 40
0.3012048080563545
 40
0.3012048080563545
 40
0.3012048080563545
 40
0.3072289042174816
 40
0.3072289042174816
 40
0.3072289042174816
 40
0.3072289042174816
 40
0.3132530003786087
 40
0.3132530003786087
 40
0.3132530003786087
 40
0.3132530003786087
 40
0.3192770965397358
 40
0.3192770965397358
 40
0.3192770965397358
 40
0.3192770965397358
 40
0.3253011927008629
 40
0.3253011927008629
 40
0.3253011927008629
 40
0.3253011927008629
 40
0.33132528886199
 40
0.33132528886199
 40
0.33132528886199
 40
0.33132528886199
 40
0.3373493850231171
 40
0.3373493850231171
 40
0.3373493850231171
 40
0.3373493850231171
 40
0.3433734811842442
 40
0.3433734811842442
 40
0.3433734811842442
 40
0.3433734811842442
 40
0.3493975773453713
 40
0.3493975773453713
 40
0.3493975773453713
 40
0.3493975773453713
 40
0.3554216735064983
 40
0.3554216735064983
 40
0.3554216735064983
 40
0.3554216735064983
 40
0.3614457696676254
 40
0.3614457696676254
 40
0.3614457696676254
 40
0.3614457696676254
 40
0.3674698658287525
 40
0.3674698658287525
 40
0.3674698658287525
 40
0.3674698658287525
 40
0.3734939619898796
 40
0.3734939619898796
 40
0.3734939619898796
 40
0.3734939619898796
 40
0.3795180581510067
 40
0.3795180581510067
 40
0.3795180581510067
 40
0.3795180581510067
 40
0.3855421543121338
 40
0.3855421543121338
 40
0.3855421543121338
 40
0.3855421543121338
 40
0.3915662504732609
 40
0.3915662504732609
 40
0.3915662504732609
 40
0.3915662504732609
 40
0.397590346634388
 40
0.397590346634388
 40
0.397590346634388
 40
0.397590346634388
 40
0.4036144427955151
 40
0.4036144427955151
 40
0.4036144427955151
 40
0.4036144427955151
 40
0.4096385389566422
 40
0.4096385389566422
 40
0.4096385389566422
 40
0.4096385389566422
 40
0.4156626351177692
 40
0.4156626351177692
 40
0.4156626351177692
 40
0.4156626351177692
 40
0.4216867312788963
 40
0.4216867312788963
 40
0.4216867312788963
 40
0.4216867312788963
 40
0.4277108274400234
 40
0.4277108274400234
 40
0.4277108274400234
 40
0.4277108274400234
 40
0.4337349236011505
 40
0.4337349236011505
 40
0.4337349236011505
 40
0.4337349236011505
 40
0.4397590197622776
 40
0.4397590197622776
 40
0.4397590197622776
 40
0.4397590197622776
 40
0.4457831159234047
 40
0.4457831159234047
 40
0.4457831159234047
 40
0.4457831159234047
 40
0.4518072120845318
 40
0.4518072120845318
 40
0.4518072120845318
 40
0.4518072120845318
 40
0.4578313082456589
 40
0.4578313082456589
 40
0.4578313082456589
 40
0.4578313082456589
 40
0.463855404406786
 40
0.463855404406786
 40
0.463855404406786
 40
0.463855404406786
 40
0.4698795005679131
 40
0.4698795005679131
 40
0.4698795005679131
 40
0.4698795005679131
 40
0.4759035967290402
 40
0.4759035967290402
 40
0.4759035967290402
 40
0.4759035967290402
 40
0.4819276928901672
 40
0.4819276928901672
 40
0.4819276928901672
 40
0.4819276928901672
 40
0.4879517890512943
 40
0.4879517890512943
 40
0.4879517890512943
 40
0.4879517890512943
 40
0.4939758852124214
 40
0.4939758852124214
 40
0.4939758852124214
 40
0.4939758852124214
 40
0.4999999813735485
 40
0.4999999813735485
 40
0.4999999813735485
 40
0.4999999813735485
 40
0.5060240775346756
 40
0.5060240775346756
 40
0.5060240775346756
 40
0.5060240775346756
 40
0.5120481736958027
 40
0.5120481736958027
 40
0.5120481736958027
 40
0.5120481736958027
 40
0.5180722698569298
 40
0.5180722698569298
 40
0.5180722698569298
 40
0.5180722698569298
 40
0.5240963660180569
 40
0.5240963660180569
 40
0.5240963660180569
 40
0.5240963660180569
 40
0.530120462179184
 40
0.530120462179184
 40
0.530120462179184
 40
0.530120462179184
 40
0.5361445583403111
 40
0.5361445583403111
 40
0.5361445583403111
 40
0.5361445583403111
 40
0.5421686545014381
 40
0.5421686545014381
 40
0.5421686545014381
 40
0.5421686545014381
 40
0.5481927506625652
 40
0.5481927506625652
 40
0.5481927506625652
 40
0.5481927506625652
 40
0.5542168468236923
 40
0.5542168468236923
 40
0.5542168468236923
 40
0.5542168468236923
 40
0.5602409429848194
 40
0.5602409429848194
 40
0.5602409429848194
 40
0.5602409429848194
 40
0.5662650391459465
 40
0.5662650391459465
 40
0.5662650391459465
 40
0.5662650391459465
 40
0.5722891353070736
 40
0.5722891353070736
 40
0.5722891353070736
 40
0.5722891353070736
 40
0.5783132314682007
 40
0.5783132314682007
 40
0.5783132314682007
 40
0.5783132314682007
 40
0.5843373276293278
 40
0.5843373276293278
 40
0.5843373276293278
 40
0.5843373276293278
 40
0.5903614237904549
 40
0.5903614237904549
 40
0.5903614237904549
 40
0.5903614237904549
 40
0.596385519951582
 40
0.596385519951582
 40
0.596385519951582
 40
0.596385519951582
 40
0.6024096161127091
 40
0.6024096161127091
 40
0.6024096161127091
 40
0.6024096161127091
 40
0.6084337122738361
 40
0.6084337122738361
 40
0.6084337122738361
 40
0.6084337122738361
 40
0.6144578084349632
 40
0.6144578084349632
 40
0.6144578084349632
 40
0.6144578084349632
 40
0.6204819045960903
 40
0.6204819045960903
 40
0.6204819045960903
 40
0.6204819045960903
 40
0.6265060007572174
 40
0.6265060007572174
 40
0.6265060007572174
 40
0.6265060007572174
 40
0.6325300969183445
 40
0.6325300969183445
 40
0.6325300969183445
 40
0.6325300969183445
 40
0.6385541930794716
 40
0.6385541930794716
 40
0.6385541930794716
 40
0.6385541930794716
 40
0.6445782892405987
 40
0.6445782892405987
 40
0.6445782892405987
 40
0.6445782892405987
 40
0.6506023854017258
 40
0.6506023854017258
 40
0.6506023854017258
 40
0.6506023854017258
 40
0.6566264815628529
 40
0.6566264815628529
 40
0.6566264815628529
 40
0.6566264815628529
 40
0.66265057772398
 40
0.66265057772398
 40
0.66265057772398
 40
0.66265057772398
 40
0.668674673885107
 40
0.668674673885107
 40
0.668674673885107
 40
0.668674673885107
 40
0.6746987700462341
 40
0.6746987700462341
 40
0.6746987700462341
 40
0.6746987700462341
 40
0.6807228662073612
 40
0.6807228662073612
 40
0.6807228662073612
 40
0.6807228662073612
 40
0.6867469623684883
 40
0.6867469623684883
 40
0.6867469623684883
 40
0.6867469623684883
 40
0.6927710585296154
 40
0.6927710585296154
 40
0.6927710585296154
 40
0.6927710585296154
 40
0.6987951546907425
 40
0.6987951546907425
 40
0.6987951546907425
 40
0.6987951546907425
 40
0.7048192508518696
 40
0.7048192508518696
 40
0.7048192508518696
 40
0.7048192508518696
 40
0.7108433470129967
 40
0.7108433470129967
 40
0.7108433470129967
 40
0.7108433470129967
 40
0.7168674431741238
 40
0.7168674431741238
 40
0.7168674431741238
 40
0.7168674431741238
 40
0.7228915393352509
 40
0.7228915393352509
 40
0.7228915393352509
 40
0.7228915393352509
 40
0.7289156354963779
 40
0.7289156354963779
 40
0.7289156354963779
 40
0.7289156354963779
 40
0.734939731657505
 40
0.734939731657505
 40
0.734939731657505
 40
0.734939731657505
 40
0.7409638278186321
 40
0.7409638278186321
 40
0.7409638278186321
 40
0.7409638278186321
 40
0.7469879239797592
 40
0.7469879239797592
 40
0.7469879239797592
 40
0.7469879239797592
 40
0.7530120201408863
 40
0.7530120201408863
 40
0.7530120201408863
 40
0.7530120201408863
 40
0.7590361163020134
 40
0.7590361163020134
 40
0.7590361163020134
 40
0.7590361163020134
 40
0.7650602124631405
 40
0.7650602124631405
 40
0.7650602124631405
 40
0.7650602124631405
 40
0.7710843086242676
 40
0.7710843086242676
 40
0.7710843086242676
 40
0.7710843086242676
 40
0.7771084047853947
 40
0.7771084047853947
 40
0.7771084047853947
 40
0.7771084047853947
 40
0.7831325009465218
 40
0.7831325009465218
 40
0.7831325009465218
 40
0.7831325009465218
 40
0.7891565971076489
 40
0.7891565971076489
 40
0.7891565971076489
 40
0.7891565971076489
 40
0.7951806932687759
 40
0.7951806932687759
 40
0.7951806932687759
 40
0.7951806932687759
 40
0.801204789429903
 40
0.801204789429903
 40
0.801204789429903
 40
0.801204789429903
 40
0.8072288855910301
 40
0.8072288855910301
 40
0.8072288855910301
 40
0.8072288855910301
 40
0.8132529817521572
 40
0.8132529817521572
 40
0.8132529817521572
 40
0.8132529817521572
 40
0.8192770779132843
 40
0.8192770779132843
 40
0.8192770779132843
 40
0.8192770779132843
 40
0.8253011740744114
 40
0.8253011740744114
 40
0.8253011740744114
 40
0.8253011740744114
 40
0.8313252702355385
 40
0.8313252702355385
 40
0.8313252702355385
 40
0.8313252702355385
 40
0.8373493663966656
 40
0.8373493663966656
 40
0.8373493663966656
 40
0.8373493663966656
 40
0.8433734625577927
 40
0.8433734625577927
 40
0.8433734625577927
 40
0.8433734625577927
 40
0.8493975587189198
 40
0.8493975587189198
 40
0.8493975587189198
 40
0.8493975587189198
 40
0.8554216548800468
 40
0.8554216548800468
 40
0.8554216548800468
 40
0.8554216548800468
 40
0.8614457510411739
 40
0.8614457510411739
 40
0.8614457510411739
 40
0.8614457510411739
 40
0.867469847202301
 40
0.867469847202301
 40
0.867469847202301
 40
0.867469847202301
 40
0.8734939433634281
 40
0.8734939433634281
 40
0.8734939433634281
 40
0.8734939433634281
 40
0.8795180395245552
 40
0.8795180395245552
 40
0.8795180395245552
 40
0.8795180395245552
 40
0.8855421356856823
 40
0.8855421356856823
 40
0.8855421356856823
 40
0.8855421356856823
 40
0.8915662318468094
 40
0.8915662318468094
 40
0.8915662318468094
 40
0.8915662318468094
 40
0.8975903280079365
 40
0.8975903280079365
 40
0.8975903280079365
 40
0.8975903280079365
 40
0.9036144241690636
 40
0.9036144241690636
 40
0.9036144241690636
 40
0.9036144241690636
 40
0.9096385203301907
 40
0.9096385203301907
 40
0.9096385203301907
 40
0.9096385203301907
 40
0.9156626164913178
 40
0.9156626164913178
 40
0.9156626164913178
 40
0.9156626164913178
 40
0.9216867126524448
 40
0.9216867126524448
 40
0.9216867126524448
 40
0.9216867126524448
 40
0.9277108088135719
 40
0.9277108088135719
 40
0.9277108088135719
 40
0.9277108088135719
 40
0.933734904974699
 40
0.933734904974699
 40
0.933734904974699
 40
0.933734904974699
 40
0.9397590011358261
 40
0.9397590011358261
 40
0.9397590011358261
 40
0.9397590011358261
 40
0.9457830972969532
 40
0.9457830972969532
 40
0.9457830972969532
 40
0.9457830972969532
 40
0.9518071934580803
 40
0.9518071934580803
 40
0.9518071934580803
 40
0.9518071934580803
 40
0.9578312896192074
 40
0.9578312896192074
 40
0.9578312896192074
 40
0.9578312896192074
 40
0.9638553857803345
 40
0.9638553857803345
 40
0.9638553857803345
 40
0.9638553857803345
 40
0.9698794819414616
 40
0.9698794819414616
 40
0.9698794819414616
 40
0.9698794819414616
 40
0.9759035781025887
 40
0.9759035781025887
 40
0.9759035781025887
 40
0.9759035781025887
 40
0.9819276742637157
 40
0.9819276742637157
 40
0.9819276742637157
 40
0.9819276742637157
 40
0.9879517704248428
 40
0.9879517704248428
 40
0.9879517704248428
 40
0.9879517704248428
 40
0.9939758665859699
 40
0.9939758665859699
 40
0.9939758665859699
 40
0.9939758665859699
 40
1.0
 40
1.0
 40
1.0
 40
1.0
 10
-1116.003662109375
 20
-995.71210050582886
 30
0.0
 10
-1124.675537109375
 20
-994.903724193573
 30
0.0
 10
-1134.35595703125
 20
-992.73811101913452
 30
0.0
 10
-1140.577880859375
 20
-986.15595579147339
 30
0.0
 10
-1140.577880859375
 20
-986.15595579147339
 30
0.0
 10
-1141.881103515625
 20
-984.77728033065796
 30
0.0
 10
-1143.025146484375
 20
-983.23055791854858
 30
0.0
 10
-1143.9931640625
 20
-981.60020589828491
 30
0.0
 10
-1143.9931640625
 20
-981.60020589828491
 30
0.0
 10
-1144.068115234375
 20
-981.47408056259155
 30
0.0
 10
-1144.3427734375
 20
-980.9913535118103
 30
0.0
 10
-1144.412841796875
 20
-980.86276006698608
 30
0.0
 10
-1144.412841796875
 20
-980.86276006698608
 30
0.0
 10
-1144.820068359375
 20
-980.1164984703064
 30
0.0
 10
-1145.19677734375
 20
-979.34424924850464
 30
0.0
 10
-1145.538330078125
 20
-978.56573629379272
 30
0.0
 10
-1145.538330078125
 20
-978.56573629379272
 30
0.0
 10
-1145.598876953125
 20
-978.42770528793335
 30
0.0
 10
-1145.81298828125
 20
-977.91564702987671
 30
0.0
 10
-1145.8687744140625
 20
-977.77586317062378
 30
0.0
 10
-1145.8687744140625
 20
-977.77586317062378
 30
0.0
 10
-1147.75390625
 20
-973.05181646347046
 30
0.0
 10
-1148.461669921875
 20
-967.83669424057007
 30
0.0
 10
-1148.6630859375
 20
-962.78093481063843
 30
0.0
 10
-1148.6630859375
 20
-962.78093481063843
 30
0.0
 10
-1148.6630859375
 20
-962.78093481063843
 30
0.0
 10
-1148.677001953125
 20
-962.27275609970093
 30
0.0
 10
-1148.677001953125
 20
-962.27275609970093
 30
0.0
 10
-1148.677001953125
 20
-962.27275609970093
 30
0.0
 10
-1148.677001953125
 20
-962.27275609970093
 30
0.0
 10
-1148.68017578125
 20
-961.85352087020874
 30
0.0
 10
-1148.68017578125
 20
-961.85352087020874
 30
0.0
 10
-1148.68017578125
 20
-961.85352087020874
 30
0.0
 10
-1148.7064208984375
 20
-960.51588582992554
 30
0.0
 10
-1148.767578125
 20
-959.17891836166382
 30
0.0
 10
-1148.802001953125
 20
-957.84150838851929
 30
0.0
 10
-1148.802001953125
 20
-957.84150838851929
 30
0.0
 10
-1148.811279296875
 20
-957.48140096664429
 30
0.0
 10
-1148.81787109375
 20
-957.0676474571228
 30
0.0
 10
-1148.81982421875
 20
-956.70911169052124
 30
0.0
 10
-1148.81982421875
 20
-956.70911169052124
 30
0.0
 10
-1148.81982421875
 20
-956.70911169052124
 30
0.0
 10
-1148.8203125
 20
-956.01975011825562
 30
0.0
 10
-1148.8203125
 20
-956.01975011825562
 30
0.0
 10
-1148.8203125
 20
-956.01975011825562
 30
0.0
 10
-1148.8203125
 20
-956.01975011825562
 30
0.0
 10
-1148.817138671875
 20
-955.4041953086853
 30
0.0
 10
-1148.817138671875
 20
-955.4041953086853
 30
0.0
 10
-1148.817138671875
 20
-955.4041953086853
 30
0.0
 10
-1148.8134765625
 20
-954.87319707870483
 30
0.0
 10
-1148.80517578125
 20
-954.34224843978882
 30
0.0
 10
-1148.79931640625
 20
-953.81127691268921
 30
0.0
 10
-1148.79931640625
 20
-953.81127691268921
 30
0.0
 10
-1148.5216064453125
 20
-928.99936056137085
 30
0.0
 10
-1148.8076171875
 20
-904.19992208480835
 30
0.0
 10
-1148.7509765625
 20
-879.38289022445679
 30
0.0
 10
-1148.7509765625
 20
-879.38289022445679
 30
0.0
 10
-1148.7158203125
 20
-863.9784255027771
 30
0.0
 10
-1148.4383544921875
 20
-848.57478475570679
 30
0.0
 10
-1148.3367919921875
 20
-833.17054891586304
 30
0.0
 10
-1148.3367919921875
 20
-833.17054891586304
 30
0.0
 10
-1148.335205078125
 20
-832.93722677230835
 30
0.0
 10
-1148.333984375
 20
-832.65390157699585
 30
0.0
 10
-1148.3336181640625
 20
-832.42057943344116
 30
0.0
 10
-1148.3336181640625
 20
-832.42057943344116
 30
0.0
 10
-1148.33349609375
 20
-832.30694723129272
 30
0.0
 10
-1148.33349609375
 20
-831.78424215316772
 30
0.0
 10
-1148.333740234375
 20
-831.67060995101929
 30
0.0
 10
-1148.333740234375
 20
-831.67060995101929
 30
0.0
 10
-1148.3341064453125
 20
-831.45027303695679
 30
0.0
 10
-1148.33544921875
 20
-831.14096212387085
 30
0.0
 10
-1148.3369140625
 20
-830.92064046859741
 30
0.0
 10
-1148.3369140625
 20
-830.92064046859741
 30
0.0
 10
-1148.5791015625
 20
-794.62350606918335
 30
0.0
 10
-1148.742431640625
 20
-758.57727193832397
 30
0.0
 10
-1148.739501953125
 20
-722.28798055648804
 30
0.0
 10
-1148.739501953125
 20
-722.28798055648804
 30
0.0
 10
-1148.739501953125
 20
-722.08427572250366
 30
0.0
 10
-1148.7401123046875
 20
-721.74168539047241
 30
0.0
 10
-1148.740966796875
 20
-721.53798055648804
 30
0.0
 10
-1148.740966796875
 20
-721.53798055648804
 30
0.0
 10
-1148.85009765625
 20
-696.25196981430054
 30
0.0
 10
-1149.101806640625
 20
-670.95176839828491
 30
0.0
 10
-1149.584716796875
 20
-645.67036581039429
 30
0.0
 10
-1149.584716796875
 20
-645.67036581039429
 30
0.0
 10
-1149.592041015625
 20
-645.28697347640991
 30
0.0
 10
-1149.600830078125
 20
-644.95652914047241
 30
0.0
 10
-1149.607177734375
 20
-644.57719564437866
 30
0.0
 10
-1149.607177734375
 20
-644.57719564437866
 30
0.0
 10
-1149.62841796875
 20
-643.31230306625366
 30
0.0
 10
-1149.62646484375
 20
-642.04591512680054
 30
0.0
 10
-1149.60791015625
 20
-640.78102254867554
 30
0.0
 10
-1149.60791015625
 20
-640.78102254867554
 30
0.0
 10
-1149.604736328125
 20
-640.56028890609741
 30
0.0
 10
-1149.589599609375
 20
-639.77919149398804
 30
0.0
 10
-1149.583984375
 20
-639.55983114242554
 30
0.0
 10
-1149.583984375
 20
-639.55983114242554
 30
0.0
 10
-1149.564208984375
 20
-638.76768636703491
 30
0.0
 10
-1149.5333251953125
 20
-637.97551107406616
 30
0.0
 10
-1149.49853515625
 20
-637.18388509750366
 30
0.0
 10
-1149.49853515625
 20
-637.18388509750366
 30
0.0
 10
-1149.49853515625
 20
-637.18388509750366
 30
0.0
 10
-1149.471923828125
 20
-636.64390707015991
 30
0.0
 10
-1149.471923828125
 20
-636.64390707015991
 30
0.0
 10
-1149.471923828125
 20
-636.64390707015991
 30
0.0
 10
-1149.471923828125
 20
-636.64390707015991
 30
0.0
 10
-1149.43994140625
 20
-636.11894369125366
 30
0.0
 10
-1149.43994140625
 20
-636.11894369125366
 30
0.0
 10
-1149.43994140625
 20
-636.11894369125366
 30
0.0
 10
-1149.427734375
 20
-635.94438314437866
 30
0.0
 10
-1149.3726806640625
 20
-635.27867269515991
 30
0.0
 10
-1149.3558349609375
 20
-635.10420370101929
 30
0.0
 10
-1149.3558349609375
 20
-635.10420370101929
 30
0.0
 10
-1149.25537109375
 20
-634.06300497055054
 30
0.0
 10
-1149.12109375
 20
-633.01777791976929
 30
0.0
 10
-1148.950439453125
 20
-631.98579549789429
 30
0.0
 10
-1148.950439453125
 20
-631.98579549789429
 30
0.0
 10
-1148.91796875
 20
-631.78953695297241
 30
0.0
 10
-1148.791015625
 20
-631.08876180648804
 30
0.0
 10
-1148.75244140625
 20
-630.89384603500366
 30
0.0
 10
-1148.75244140625
 20
-630.89384603500366
 30
0.0
 10
-1148.53662109375
 20
-629.80351400375366
 30
0.0
 10
-1148.277099609375
 20
-628.70945882797241
 30
0.0
 10
-1147.9609375
 20
-627.64372396469116
 30
0.0
 10
-1147.9609375
 20
-627.64372396469116
 30
0.0
 10
-1147.908203125
 20
-627.46620321273804
 30
0.0
 10
-1147.68603515625
 20
-626.76841878890991
 30
0.0
 10
-1147.626220703125
 20
-626.59300374984741
 30
0.0
 10
-1147.626220703125
 20
-626.59300374984741
 30
0.0
 10
-1147.271728515625
 20
-625.55366659164429
 30
0.0
 10
-1146.856201171875
 20
-624.51875448226929
 30
0.0
 10
-1146.392333984375
 20
-623.52339315414429
 30
0.0
 10
-1146.392333984375
 20
-623.52339315414429
 30
0.0
 10
-1146.3118896484375
 20
-623.35078573226929
 30
0.0
 10
-1146.0008544921875
 20
-622.71928548812866
 30
0.0
 10
-1145.9127197265625
 20
-622.54966878890991
 30
0.0
 10
-1145.9127197265625
 20
-622.54966878890991
 30
0.0
 10
-1145.4410400390625
 20
-621.64210653305054
 30
0.0
 10
-1144.9132080078125
 20
-620.74342489242554
 30
0.0
 10
-1144.340087890625
 20
-619.89607381820679
 30
0.0
 10
-1144.340087890625
 20
-619.89607381820679
 30
0.0
 10
-1143.447509765625
 20
-618.57661581039429
 30
0.0
 10
-1142.387939453125
 20
-617.31977987289429
 30
0.0
 10
-1141.2392578125
 20
-616.21629476547241
 30
0.0
 10
-1141.2392578125
 20
-616.21629476547241
 30
0.0
 10
-1139.27099609375
 20
-614.32582235336304
 30
0.0
 10
-1136.9571533203125
 20
-612.67347860336304
 30
0.0
 10
-1134.49072265625
 20
-611.49879598617554
 30
0.0
 10
-1134.49072265625
 20
-611.49879598617554
 30
0.0
 10
-1132.192626953125
 20
-610.40431356430054
 30
0.0
 10
-1129.669189453125
 20
-609.57585287094116
 30
0.0
 10
-1127.172607421875
 20
-609.07597494125366
 30
0.0
 10
-1127.172607421875
 20
-609.07597494125366
 30
0.0
 10
-1125.50244140625
 20
-608.74159383773804
 30
0.0
 10
-1123.8013916015625
 20
-608.48649740219116
 30
0.0
 10
-1122.101806640625
 20
-608.37269735336304
 30
0.0
 10
-1122.101806640625
 20
-608.37269735336304
 30
0.0
 10
-1120.62353515625
 20
-608.27372884750366
 30
0.0
 10
-1119.140869140625
 20
-608.18840169906616
 30
0.0
 10
-1117.6611328125
 20
-608.11213827133179
 30
0.0
 10
-1117.6611328125
 20
-608.11213827133179
 30
0.0
 10
-1117.300537109375
 20
-608.09355306625366
 30
0.0
 10
-1116.889404296875
 20
-608.08049154281616
 30
0.0
 10
-1116.52978515625
 20
-608.07624959945679
 30
0.0
 10
-1116.52978515625
 20
-608.07624959945679
 30
0.0
 10
-1116.52978515625
 20
-608.07624959945679
 30
0.0
 10
-1115.8406982421875
 20
-608.07454061508179
 30
0.0
 10
-1115.8406982421875
 20
-608.07454061508179
 30
0.0
 10
-1115.8406982421875
 20
-608.07454061508179
 30
0.0
 10
-1115.8406982421875
 20
-608.07454061508179
 30
0.0
 10
-1115.225341796875
 20
-608.07988119125366
 30
0.0
 10
-1115.225341796875
 20
-608.07988119125366
 30
0.0
 10
-1115.225341796875
 20
-608.07988119125366
 30
0.0
 10
-1114.6943359375
 20
-608.08644247055054
 30
0.0
 10
-1114.1634521484375
 20
-608.10209798812866
 30
0.0
 10
-1113.632568359375
 20
-608.11314535140991
 30
0.0
 10
-1113.632568359375
 20
-608.11314535140991
 30
0.0
 10
-1092.678955078125
 20
-608.54957723617554
 30
0.0
 10
-1071.7191162109375
 20
-608.73784017562866
 30
0.0
 10
-1050.761962890625
 20
-608.21742391586304
 30
0.0
 10
-1050.761962890625
 20
-608.21742391586304
 30
0.0
 10
-1050.548095703125
 20
-608.21211385726929
 30
0.0
 10
-1050.2261962890625
 20
-608.20271444320679
 30
0.0
 10
-1050.012451171875
 20
-608.19566488265991
 30
0.0
 10
-1050.012451171875
 20
-608.19566488265991
 30
0.0
 10
-1049.3876953125
 20
-608.17503499984741
 30
0.0
 10
-1048.7633056640625
 20
-608.14845418930054
 30
0.0
 10
-1048.1387939453125
 20
-608.12407064437866
 30
0.0
 10
-1048.1387939453125
 20
-608.12407064437866
 30
0.0
 10
-1042.9864501953125
 20
-607.92286825180054
 30
0.0
 10
-1037.5423583984375
 20
-608.26677083969116
 30
0.0
 10
-1032.412353515625
 20
-607.53639364242554
 30
0.0
 10
-1032.412353515625
 20
-607.53639364242554
 30
0.0
 10
-1032.412353515625
 20
-607.53639364242554
 30
0.0
 10
-1031.92431640625
 20
-607.42756795883179
 30
0.0
 10
-1031.92431640625
 20
-607.42756795883179
 30
0.0
 10
-1031.92431640625
 20
-607.42756795883179
 30
0.0
 10
-1029.4017333984375
 20
-606.86494588851929
 30
0.0
 10
-1026.505859375
 20
-606.67970418930054
 30
0.0
 10
-1024.1220703125
 20
-605.68739461898804
 30
0.0
 10
-1024.1220703125
 20
-605.68739461898804
 30
0.0
 10
-1022.6282958984375
 20
-605.06550741195679
 30
0.0
 10
-1020.349853515625
 20
-603.69972372055054
 30
0.0
 10
-1019.21875
 20
-602.54771566390991
 30
0.0
 10
-1019.21875
 20
-602.54771566390991
 30
0.0
 10
-1018.2689208984375
 20
-601.58036947250366
 30
0.0
 10
-1017.216552734375
 20
-599.65519857406616
 30
0.0
 10
-1016.674072265625
 20
-598.40834188461304
 30
0.0
 10
-1016.674072265625
 20
-598.40834188461304
 30
0.0
 10
-1015.8115234375
 20
-596.42625570297241
 30
0.0
 10
-1015.317138671875
 20
-594.00731039047241
 30
0.0
 10
-1014.87158203125
 20
-591.88801717758179
 30
0.0
 10
-1014.87158203125
 20
-591.88801717758179
 30
0.0
 10
-1013.7923583984375
 20
-586.75355672836304
 30
0.0
 10
-1013.469970703125
 20
-581.34175252914429
 30
0.0
 10
-1012.904296875
 20
-576.12660360336304
 30
0.0
 10
-1012.904296875
 20
-576.12660360336304
 30
0.0
 10
-1012.8814697265625
 20
-575.91581869125366
 30
0.0
 10
-1012.850830078125
 20
-575.59224081039429
 30
0.0
 10
-1012.834228515625
 20
-575.38084554672241
 30
0.0
 10
-1012.834228515625
 20
-575.38084554672241
 30
0.0
 10
-1012.826904296875
 20
-575.28837728500366
 30
0.0
 10
-1012.788818359375
 20
-574.72636556625366
 30
0.0
 10
-1012.7835693359375
 20
-574.63374471664429
 30
0.0
 10
-1012.7835693359375
 20
-574.63374471664429
 30
0.0
 10
-1012.7716064453125
 20
-574.42210531234741
 30
0.0
 10
-1012.75830078125
 20
-574.09718465805054
 30
0.0
 10
-1012.7525634765625
 20
-573.88530111312866
 30
0.0
 10
-1012.7525634765625
 20
-573.88530111312866
 30
0.0
 10
-1012.735595703125
 20
-573.26020956039429
 30
0.0
 10
-1012.7401123046875
 20
-572.63520956039429
 30
0.0
 10
-1012.7366943359375
 20
-572.01002645492554
 30
0.0
 10
-1012.7366943359375
 20
-572.01002645492554
 30
0.0
 10
-1012.584716796875
 20
-544.11506795883179
 30
0.0
 10
-1012.157470703125
 20
-516.66008138656616
 30
0.0
 10
-1011.279541015625
 20
-488.88362264633179
 30
0.0
 10
-1011.279541015625
 20
-488.88362264633179
 30
0.0
 10
-1011.2396240234375
 20
-487.61897420883179
 30
0.0
 10
-1011.1737060546875
 20
-486.35408163070679
 30
0.0
 10
-1011.0904541015625
 20
-485.09163045883179
 30
0.0
 10
-1011.0904541015625
 20
-485.09163045883179
 30
0.0
 10
-1011.0762939453125
 20
-484.87709188461304
 30
0.0
 10
-1011.020263671875
 20
-484.08650350570679
 30
0.0
 10
-1011.00390625
 20
-483.87342977523804
 30
0.0
 10
-1011.00390625
 20
-483.87342977523804
 30
0.0
 10
-1010.94287109375
 20
-483.08015584945679
 30
0.0
 10
-1010.8704833984375
 20
-482.28755331039429
 30
0.0
 10
-1010.793212890625
 20
-481.49574422836304
 30
0.0
 10
-1010.793212890625
 20
-481.49574422836304
 30
0.0
 10
-1010.793212890625
 20
-481.49574422836304
 30
0.0
 10
-1010.737548828125
 20
-480.95289754867554
 30
0.0
 10
-1010.737548828125
 20
-480.95289754867554
 30
0.0
 10
-1010.737548828125
 20
-480.95289754867554
 30
0.0
 10
-1010.737548828125
 20
-480.95289754867554
 30
0.0
 10
-1010.677978515625
 20
-480.42750692367554
 30
0.0
 10
-1010.677978515625
 20
-480.42750692367554
 30
0.0
 10
-1010.677978515625
 20
-480.42750692367554
 30
0.0
 10
-1010.6572265625
 20
-480.25740194320679
 30
0.0
 10
-1010.568359375
 20
-479.59413290023804
 30
0.0
 10
-1010.54345703125
 20
-479.42366170883179
 30
0.0
 10
-1010.54345703125
 20
-479.42366170883179
 30
0.0
 10
-1010.40087890625
 20
-478.44807577133179
 30
0.0
 10
-1010.2293701171875
 20
-477.47084188461304
 30
0.0
 10
-1010.025634765625
 20
-476.50618124008179
 30
0.0
 10
-1010.025634765625
 20
-476.50618124008179
 30
0.0
 10
-1009.98876953125
 20
-476.33174276351929
 30
0.0
 10
-1009.84814453125
 20
-475.70985555648804
 30
0.0
 10
-1009.8060302734375
 20
-475.53621053695679
 30
0.0
 10
-1009.8060302734375
 20
-475.53621053695679
 30
0.0
 10
-1009.5738525390625
 20
-474.57759237289429
 30
0.0
 10
-1009.3056640625
 20
-473.61866903305054
 30
0.0
 10
-1008.9967041015625
 20
-472.68190145492554
 30
0.0
 10
-1008.9967041015625
 20
-472.68190145492554
 30
0.0
 10
-1008.94384765625
 20
-472.52174520492554
 30
0.0
 10
-1008.731201171875
 20
-471.91243124008179
 30
0.0
 10
-1008.672607421875
 20
-471.75398397445679
 30
0.0
 10
-1008.672607421875
 20
-471.75398397445679
 30
0.0
 10
-1008.3331298828125
 20
-470.83528280258179
 30
0.0
 10
-1007.9462890625
 20
-469.92268514633179
 30
0.0
 10
-1007.5213623046875
 20
-469.04023885726929
 30
0.0
 10
-1007.5213623046875
 20
-469.04023885726929
 30
0.0
 10
-1007.4482421875
 20
-468.88856649398804
 30
0.0
 10
-1007.165283203125
 20
-468.32801961898804
 30
0.0
 10
-1007.086181640625
 20
-468.17860555648804
 30
0.0
 10
-1007.086181640625
 20
-468.17860555648804
 30
0.0
 10
-1006.663818359375
 20
-467.38026571273804
 30
0.0
 10
-1006.199462890625
 20
-466.58979940414429
 30
0.0
 10
-1005.69775390625
 20
-465.83857870101929
 30
0.0
 10
-1005.69775390625
 20
-465.83857870101929
 30
0.0
 10
-1004.925048828125
 20
-464.68147420883179
 30
0.0
 10
-1004.0216064453125
 20
-463.57557821273804
 30
0.0
 10
-1003.0423583984375
 20
-462.58717489242554
 30
0.0
 10
-1003.0423583984375
 20
-462.58717489242554
 30
0.0
 10
-1001.535888671875
 20
-461.06660604476929
 30
0.0
 10
-999.8160400390625
 20
-459.71797323226929
 30
0.0
 10
-998.002197265625
 20
-458.58332967758179
 30
0.0
 10
-998.002197265625
 20
-458.58332967758179
 30
0.0
 10
-997.8681640625
 20
-458.49952840805054
 30
0.0
 10
-997.3905029296875
 20
-458.21461629867554
 30
0.0
 10
-997.253662109375
 20
-458.13655233383179
 30
0.0
 10
-997.253662109375
 20
-458.13655233383179
 30
0.0
 10
-996.1807861328125
 20
-457.52485799789429
 30
0.0
 10
-995.06201171875
 20
-456.96540975570679
 30
0.0
 10
-993.9229736328125
 20
-456.48842000961304
 30
0.0
 10
-993.9229736328125
 20
-456.48842000961304
 30
0.0
 10
-992.893310546875
 20
-456.05714559555054
 30
0.0
 10
-991.832763671875
 20
-455.67384481430054
 30
0.0
 10
-990.7694091796875
 20
-455.33418416976929
 30
0.0
 10
-990.7694091796875
 20
-455.33418416976929
 30
0.0
 10
-990.565185546875
 20
-455.26893758773804
 30
0.0
 10
-989.7969970703125
 20
-455.03651571273804
 30
0.0
 10
-989.5924072265625
 20
-454.97798299789429
 30
0.0
 10
-989.5924072265625
 20
-454.97798299789429
 30
0.0
 10
-988.3897705078125
 20
-454.63368368148804
 30
0.0
 10
-987.1656494140625
 20
-454.33217000961304
 30
0.0
 10
-985.9400634765625
 20
-454.08094930648804
 30
0.0
 10
-985.9400634765625
 20
-454.08094930648804
 30
0.0
 10
-985.74560546875
 20
-454.04109334945679
 30
0.0
 10
-984.9033203125
 20
-453.88081502914429
 30
0.0
 10
-984.7080078125
 20
-453.84645223617554
 30
0.0
 10
-984.7080078125
 20
-453.84645223617554
 30
0.0
 10
-981.929931640625
 20
-453.35774374008179
 30
0.0
 10
-979.08740234375
 20
-453.03505086898804
 30
0.0
 10
-976.26953125
 20
-452.88960409164429
 30
0.0
 10
-976.26953125
 20
-452.88960409164429
 30
0.0
 10
-976.26953125
 20
-452.88960409164429
 30
0.0
 10
-975.7607421875
 20
-452.86885213851929
 30
0.0
 10
-975.7607421875
 20
-452.86885213851929
 30
0.0
 10
-975.7607421875
 20
-452.86885213851929
 30
0.0
 10
-975.7607421875
 20
-452.86885213851929
 30
0.0
 10
-975.3419189453125
 20
-452.85902547836304
 30
0.0
 10
-975.3419189453125
 20
-452.85902547836304
 30
0.0
 10
-975.3419189453125
 20
-452.85902547836304
 30
0.0
 10
-974.0050048828125
 20
-452.81392049789429
 30
0.0
 10
-972.669189453125
 20
-452.73701620101929
 30
0.0
 10
-971.3326416015625
 20
-452.68538045883179
 30
0.0
 10
-971.3326416015625
 20
-452.68538045883179
 30
0.0
 10
-970.9669189453125
 20
-452.67122030258179
 30
0.0
 10
-970.5653076171875
 20
-452.65986776351929
 30
0.0
 10
-970.2005615234375
 20
-452.65321493148804
 30
0.0
 10
-970.2005615234375
 20
-452.65321493148804
 30
0.0
 10
-970.2005615234375
 20
-452.65321493148804
 30
0.0
 10
-969.51123046875
 20
-452.64393758773804
 30
0.0
 10
-969.51123046875
 20
-452.64393758773804
 30
0.0
 10
-969.51123046875
 20
-452.64393758773804
 30
0.0
 10
-922.055908203125
 20
-452.13783407211304
 30
0.0
 10
-874.59716796875
 20
-451.72224569320679
 30
0.0
 10
-827.1376953125
 20
-451.76582479476929
 30
0.0
 10
-827.1376953125
 20
-451.76582479476929
 30
0.0
 10
-815.5894775390625
 20
-451.77644491195679
 30
0.0
 10
-804.02197265625
 20
-450.74702596664429
 30
0.0
 10
-792.4888916015625
 20
-450.90590047836304
 30
0.0
 10
-792.4888916015625
 20
-450.90590047836304
 30
0.0
 10
-791.3656005859375
 20
-450.92140340805054
 30
0.0
 10
-790.24072265625
 20
-450.96290731430054
 30
0.0
 10
-789.1190185546875
 20
-451.02473592758179
 30
0.0
 10
-789.1190185546875
 20
-451.02473592758179
 30
0.0
 10
-789.1190185546875
 20
-451.02473592758179
 30
0.0
 10
-788.67236328125
 20
-451.05226278305054
 30
0.0
 10
-788.67236328125
 20
-451.05226278305054
 30
0.0
 10
-788.67236328125
 20
-451.05226278305054
 30
0.0
 10
-788.5311279296875
 20
-451.06251668930054
 30
0.0
 10
-787.9151611328125
 20
-451.11555624008179
 30
0.0
 10
-787.7750244140625
 20
-451.13002157211304
 30
0.0
 10
-787.7750244140625
 20
-451.13002157211304
 30
0.0
 10
-785.5052490234375
 20
-451.36403036117554
 30
0.0
 10
-783.1990966796875
 20
-451.77369832992554
 30
0.0
 10
-781.0029296875
 20
-452.39814901351929
 30
0.0
 10
-781.0029296875
 20
-452.39814901351929
 30
0.0
 10
-781.0029296875
 20
-452.39814901351929
 30
0.0
 10
-780.43115234375
 20
-452.57014608383179
 30
0.0
 10
-780.43115234375
 20
-452.57014608383179
 30
0.0
 10
-780.43115234375
 20
-452.57014608383179
 30
0.0
 10
-777.03662109375
 20
-453.68061971664429
 30
0.0
 10
-773.9493408203125
 20
-455.84254598617554
 30
0.0
 10
-771.6424560546875
 20
-458.55830526351929
 30
0.0
 10
-771.6424560546875
 20
-458.55830526351929
 30
0.0
 10
-771.6424560546875
 20
-458.55830526351929
 30
0.0
 10
-771.2808837890625
 20
-459.00605916976929
 30
0.0
 10
-771.2808837890625
 20
-459.00605916976929
 30
0.0
 10
-771.2808837890625
 20
-459.00605916976929
 30
0.0
 10
-768.7965087890625
 20
-462.18190145492554
 30
0.0
 10
-766.8509521484375
 20
-466.02620077133179
 30
0.0
 10
-765.7982177734375
 20
-469.92207479476929
 30
0.0
 10
-765.7982177734375
 20
-469.92207479476929
 30
0.0
 10
-765.694580078125
 20
-470.30561971664429
 30
0.0
 10
-765.6361083984375
 20
-470.57942342758179
 30
0.0
 10
-765.534423828125
 20
-470.97340536117554
 30
0.0
 10
-765.534423828125
 20
-470.97340536117554
 30
0.0
 10
-764.5155029296875
 20
-474.92335653305054
 30
0.0
 10
-763.391845703125
 20
-478.85536336898804
 30
0.0
 10
-762.274658203125
 20
-482.77943563461304
 30
0.0
 10
-762.274658203125
 20
-482.77943563461304
 30
0.0
 10
-761.327880859375
 20
-486.10481405258179
 30
0.0
 10
-760.7176513671875
 20
-489.96782064437866
 30
0.0
 10
-759.272705078125
 20
-493.10322713851929
 30
0.0
 10
-759.272705078125
 20
-493.10322713851929
 30
0.0
 10
-758.84765625
 20
-494.02565145492554
 30
0.0
 10
-758.197509765625
 20
-495.16722249984741
 30
0.0
 10
-757.5533447265625
 20
-495.95143270492554
 30
0.0
 10
-757.5533447265625
 20
-495.95143270492554
 30
0.0
 10
-757.023681640625
 20
-496.59620809555054
 30
0.0
 10
-756.0162353515625
 20
-497.60530233383179
 30
0.0
 10
-755.2901611328125
 20
-498.01176595687866
 30
0.0
 10
-755.2901611328125
 20
-498.01176595687866
 30
0.0
 10
-753.9725341796875
 20
-498.74943685531616
 30
0.0
 10
-751.526123046875
 20
-499.35368490219116
 30
0.0
 10
-750.023193359375
 20
-499.53895711898804
 30
0.0
 10
-750.023193359375
 20
-499.53895711898804
 30
0.0
 10
-747.20703125
 20
-499.88612508773804
 30
0.0
 10
-744.177490234375
 20
-499.27131795883179
 30
0.0
 10
-741.3306884765625
 20
-499.21858358383179
 30
0.0
 10
-741.3306884765625
 20
-499.21858358383179
 30
0.0
 10
-735.259521484375
 20
-499.10609579086304
 30
0.0
 10
-729.1768798828125
 20
-499.29545736312866
 30
0.0
 10
-723.10498046875
 20
-499.30302572250366
 30
0.0
 10
-723.10498046875
 20
-499.30302572250366
 30
0.0
 10
-720.44091796875
 20
-499.30635213851929
 30
0.0
 10
-717.6981201171875
 20
-499.71544027328491
 30
0.0
 10
-715.0994873046875
 20
-500.28193807601929
 30
0.0
 10
-715.0994873046875
 20
-500.28193807601929
 30
0.0
 10
-715.0994873046875
 20
-500.28193807601929
 30
0.0
 10
-714.4888916015625
 20
-500.42445516586304
 30
0.0
 10
-714.4888916015625
 20
-500.42445516586304
 30
0.0
 10
-714.4888916015625
 20
-500.42445516586304
 30
0.0
 10
-711.4176025390625
 20
-501.21974325180054
 30
0.0
 10
-708.4583740234375
 20
-502.69474935531616
 30
0.0
 10
-706.069091796875
 20
-504.79155111312866
 30
0.0
 10
-706.069091796875
 20
-504.79155111312866
 30
0.0
 10
-704.7467041015625
 20
-505.95213460922241
 30
0.0
 10
-703.5504150390625
 20
-507.31260824203491
 30
0.0
 10
-702.549072265625
 20
-508.75856161117554
 30
0.0
 10
-702.549072265625
 20
-508.75856161117554
 30
0.0
 10
-702.0968017578125
 20
-509.41175985336304
 30
0.0
 10
-701.677978515625
 20
-510.10029745101929
 30
0.0
 10
-701.2996826171875
 20
-510.79890584945679
 30
0.0
 10
-701.2996826171875
 20
-510.79890584945679
 30
0.0
 10
-700.46044921875
 20
-512.34907674789429
 30
0.0
 10
-699.7989501953125
 20
-514.00364828109741
 30
0.0
 10
-699.236328125
 20
-515.67271566390991
 30
0.0
 10
-699.236328125
 20
-515.67271566390991
 30
0.0
 10
-699.236328125
 20
-515.67271566390991
 30
0.0
 10
-699.131103515625
 20
-516.00261068344116
 30
0.0
 10
-699.131103515625
 20
-516.00261068344116
 30
0.0
 10
-699.131103515625
 20
-516.00261068344116
 30
0.0
 10
-699.131103515625
 20
-516.00261068344116
 30
0.0
 10
-699.01611328125
 20
-516.36711263656616
 30
0.0
 10
-699.01611328125
 20
-516.36711263656616
 30
0.0
 10
-699.01611328125
 20
-516.36711263656616
 30
0.0
 10
-698.7615966796875
 20
-517.19914388656616
 30
0.0
 10
-698.5335693359375
 20
-518.04197835922241
 30
0.0
 10
-698.3194580078125
 20
-518.88520956039429
 30
0.0
 10
-698.3194580078125
 20
-518.88520956039429
 30
0.0
 10
-698.278076171875
 20
-519.04823446273804
 30
0.0
 10
-698.120361328125
 20
-519.69032430648804
 30
0.0
 10
-698.081787109375
 20
-519.85231161117554
 30
0.0
 10
-698.081787109375
 20
-519.85231161117554
 30
0.0
 10
-697.828857421875
 20
-520.91649007797241
 30
0.0
 10
-697.59912109375
 20
-521.98744344711304
 30
0.0
 10
-697.382568359375
 20
-523.05958700180054
 30
0.0
 10
-697.382568359375
 20
-523.05958700180054
 30
0.0
 10
-697.34716796875
 20
-523.23439168930054
 30
0.0
 10
-697.20361328125
 20
-523.96516561508179
 30
0.0
 10
-697.1697998046875
 20
-524.14143514633179
 30
0.0
 10
-697.1697998046875
 20
-524.14143514633179
 30
0.0
 10
-696.9456787109375
 20
-525.31178426742554
 30
0.0
 10
-696.740234375
 20
-526.48677206039429
 30
0.0
 10
-696.55908203125
 20
-527.66456747055054
 30
0.0
 10
-696.55908203125
 20
-527.66456747055054
 30
0.0
 10
-696.4998779296875
 20
-528.04939413070679
 30
0.0
 10
-696.4537353515625
 20
-528.37169027328491
 30
0.0
 10
-696.394775390625
 20
-528.76207113265991
 30
0.0
 10
-696.394775390625
 20
-528.76207113265991
 30
0.0
 10
-695.765380859375
 20
-532.92399740219116
 30
0.0
 10
-695.06005859375
 20
-537.07588338851929
 30
0.0
 10
-694.4659423828125
 20
-541.24308919906616
 30
0.0
 10
-694.4659423828125
 20
-541.24308919906616
 30
0.0
 10
-694.4525146484375
 20
-541.33738851547241
 30
0.0
 10
-694.375244140625
 20
-541.89140462875366
 30
0.0
 10
-694.3623046875
 20
-541.98579549789429
 30
0.0
 10
-694.3623046875
 20
-541.98579549789429
 30
0.0
 10
-694.3336181640625
 20
-542.19636678695679
 30
0.0
 10
-694.291015625
 20
-542.51841878890991
 30
0.0
 10
-694.263916015625
 20
-542.72923421859741
 30
0.0
 10
-694.263916015625
 20
-542.72923421859741
 30
0.0
 10
-694.1842041015625
 20
-543.34916830062866
 30
0.0
 10
-694.1102294921875
 20
-543.96977376937866
 30
0.0
 10
-694.0341796875
 20
-544.59013509750366
 30
0.0
 10
-694.0341796875
 20
-544.59013509750366
 30
0.0
 10
-692.53857421875
 20
-556.78621053695679
 30
0.0
 10
-690.9166259765625
 20
-568.96788167953491
 30
0.0
 10
-689.49072265625
 20
-581.17228841781616
 30
0.0
 10
-689.49072265625
 20
-581.17228841781616
 30
0.0
 10
-689.4798583984375
 20
-581.26524496078491
 30
0.0
 10
-689.41552734375
 20
-581.82435750961304
 30
0.0
 10
-689.405029296875
 20
-581.91734457015991
 30
0.0
 10
-689.405029296875
 20
-581.91734457015991
 30
0.0
 10
-689.3812255859375
 20
-582.12773275375366
 30
0.0
 10
-689.3453369140625
 20
-582.45228719711304
 30
0.0
 10
-689.322509765625
 20
-582.66276693344116
 30
0.0
 10
-689.322509765625
 20
-582.66276693344116
 30
0.0
 10
-685.1484375
 20
-621.17201375961304
 30
0.0
 10
-681.7860107421875
 20
-659.76469564437866
 30
0.0
 10
-677.8441162109375
 20
-698.29808187484741
 30
0.0
 10
-677.8441162109375
 20
-698.29808187484741
 30
0.0
 10
-677.29345703125
 20
-703.68113851547241
 30
0.0
 10
-676.83447265625
 20
-709.07399129867554
 30
0.0
 10
-676.322998046875
 20
-714.46080160140991
 30
0.0
 10
-676.322998046875
 20
-714.46080160140991
 30
0.0
 10
-676.263916015625
 20
-715.08302450180054
 30
0.0
 10
-676.203125
 20
-715.70506429672241
 30
0.0
 10
-676.14697265625
 20
-716.32756185531616
 30
0.0
 10
-676.14697265625
 20
-716.32756185531616
 30
0.0
 10
-676.127685546875
 20
-716.54063558578491
 30
0.0
 10
-676.0997314453125
 20
-716.86146688461304
 30
0.0
 10
-676.0819091796875
 20
-717.07466268539429
 30
0.0
 10
-676.0819091796875
 20
-717.07466268539429
 30
0.0
 10
-674.5924072265625
 20
-734.84031820297241
 30
0.0
 10
-674.199951171875
 20
-752.70128011703491
 30
0.0
 10
-673.287109375
 20
-770.49228048324585
 30
0.0
 10
-673.287109375
 20
-770.49228048324585
 30
0.0
 10
-673.276123046875
 20
-770.70550680160522
 30
0.0
 10
-673.2584228515625
 20
-771.02794027328491
 30
0.0
 10
-673.2457275390625
 20
-771.24107503890991
 30
0.0
 10
-673.2457275390625
 20
-771.24107503890991
 30
0.0
 10
-673.239990234375
 20
-771.33705282211304
 30
0.0
 10
-673.2052001953125
 20
-771.89357137680054
 30
0.0
 10
-673.198974609375
 20
-771.98951864242554
 30
0.0
 10
-673.198974609375
 20
-771.98951864242554
 30
0.0
 10
-672.7421875
 20
-778.96067953109741
 30
0.0
 10
-672.0592041015625
 20
-785.91656637191772
 30
0.0
 10
-671.5775146484375
 20
-792.88615560531616
 30
0.0
 10
-671.5775146484375
 20
-792.88615560531616
 30
0.0
 10
-671.5526123046875
 20
-793.24592733383179
 30
0.0
 10
-671.5267333984375
 20
-793.65501546859741
 30
0.0
 10
-671.5059814453125
 20
-794.01655721664429
 30
0.0
 10
-671.5059814453125
 20
-794.01655721664429
 30
0.0
 10
-671.3740234375
 20
-796.31903219223022
 30
0.0
 10
-671.24560546875
 20
-798.62208700180054
 30
0.0
 10
-671.1243896484375
 20
-800.92514181137085
 30
0.0
 10
-671.1243896484375
 20
-800.92514181137085
 30
0.0
 10
-671.1053466796875
 20
-801.28666830062866
 30
0.0
 10
-671.086669921875
 20
-801.69635152816772
 30
0.0
 10
-671.07275390625
 20
-802.05659627914429
 30
0.0
 10
-671.07275390625
 20
-802.05659627914429
 30
0.0
 10
-669.109375
 20
-852.85565328598022
 30
0.0
 10
-668.8902587890625
 20
-903.75445699691772
 30
0.0
 10
-665.358642578125
 20
-954.48898458480835
 30
0.0
 10
-665.358642578125
 20
-954.48898458480835
 30
0.0
 10
-665.3306884765625
 20
-954.88986730575562
 30
0.0
 10
-665.306640625
 20
-955.15779256820679
 30
0.0
 10
-665.281494140625
 20
-955.54900121688843
 30
0.0
 10
-665.281494140625
 20
-955.54900121688843
 30
0.0
 10
-665.0660400390625
 20
-958.90212392807007
 30
0.0
 10
-665.08203125
 20
-962.30081701278687
 30
0.0
 10
-665.325439453125
 20
-965.65107107162476
 30
0.0
 10
-665.325439453125
 20
-965.65107107162476
 30
0.0
 10
-665.4388427734375
 20
-967.21199941635132
 30
0.0
 10
-665.6055908203125
 20
-968.78041982650757
 30
0.0
 10
-665.8643798828125
 20
-970.32457685470581
 30
0.0
 10
-665.8643798828125
 20
-970.32457685470581
 30
0.0
 10
-665.8907470703125
 20
-970.48197889328003
 30
0.0
 10
-665.995849609375
 20
-971.04617834091187
 30
0.0
 10
-666.028564453125
 20
-971.20512342453003
 30
0.0
 10
-666.028564453125
 20
-971.20512342453003
 30
0.0
 10
-666.6435546875
 20
-974.20283460617065
 30
0.0
 10
-667.667724609375
 20
-977.15203809738159
 30
0.0
 10
-669.131103515625
 20
-979.8431601524353
 30
0.0
 10
-669.131103515625
 20
-979.8431601524353
 30
0.0
 10
-669.131103515625
 20
-979.8431601524353
 30
0.0
 10
-669.3580322265625
 20
-980.24821424484253
 30
0.0
 10
-669.3580322265625
 20
-980.24821424484253
 30
0.0
 10
-669.3580322265625
 20
-980.24821424484253
 30
0.0
 10
-669.833740234375
 20
-981.06360960006714
 30
0.0
 10
-670.34619140625
 20
-981.86448812484741
 30
0.0
 10
-670.9058837890625
 20
-982.62502813339233
 30
0.0
 10
-670.9058837890625
 20
-982.62502813339233
 30
0.0
 10
-671.4776611328125
 20
-983.40195798873901
 30
0.0
 10
-672.103515625
 20
-984.15250539779663
 30
0.0
 10
-672.7655029296875
 20
-984.85412359237671
 30
0.0
 10
-672.7655029296875
 20
-984.85412359237671
 30
0.0
 10
-673.515380859375
 20
-985.64882040023804
 30
0.0
 10
-674.3245849609375
 20
-986.40587663650513
 30
0.0
 10
-675.1776123046875
 20
-987.08904695510864
 30
0.0
 10
-675.1776123046875
 20
-987.08904695510864
 30
0.0
 10
-676.619384765625
 20
-988.24374341964722
 30
0.0
 10
-678.2042236328125
 20
-989.26058340072632
 30
0.0
 10
-679.8492431640625
 20
-990.10015058517456
 30
0.0
 10
-679.8492431640625
 20
-990.10015058517456
 30
0.0
 10
-679.964111328125
 20
-990.15875387191772
 30
0.0
 10
-680.402587890625
 20
-990.37207937240601
 30
0.0
 10
-680.5194091796875
 20
-990.42624711990356
 30
0.0
 10
-680.5194091796875
 20
-990.42624711990356
 30
0.0
 10
-681.236328125
 20
-990.75882959365845
 30
0.0
 10
-681.9755859375
 20
-991.05859327316284
 30
0.0
 10
-682.7158203125
 20
-991.33539152145386
 30
0.0
 10
-682.7158203125
 20
-991.33539152145386
 30
0.0
 10
-682.8590087890625
 20
-991.38895177841187
 30
0.0
 10
-683.3775634765625
 20
-991.57482385635376
 30
0.0
 10
-683.5216064453125
 20
-991.62423276901245
 30
0.0
 10
-683.5216064453125
 20
-991.62423276901245
 30
0.0
 10
-684.3446044921875
 20
-991.90645360946655
 30
0.0
 10
-685.1820068359375
 20
-992.16088914871216
 30
0.0
 10
-686.0220947265625
 20
-992.38705778121948
 30
0.0
 10
-686.0220947265625
 20
-992.38705778121948
 30
0.0
 10
-686.1689453125
 20
-992.426598072052
 30
0.0
 10
-686.718017578125
 20
-992.56700277328491
 30
0.0
 10
-686.865478515625
 20
-992.60290384292603
 30
0.0
 10
-686.865478515625
 20
-992.60290384292603
 30
0.0
 10
-687.7088623046875
 20
-992.80824422836304
 30
0.0
 10
-688.5614013671875
 20
-992.99003744125366
 30
0.0
 10
-689.414306640625
 20
-993.15158224105835
 30
0.0
 10
-689.414306640625
 20
-993.15158224105835
 30
0.0
 10
-689.568359375
 20
-993.18077421188354
 30
0.0
 10
-690.1279296875
 20
-993.28089570999146
 30
0.0
 10
-690.2821044921875
 20
-993.30693769454956
 30
0.0
 10
-690.2821044921875
 20
-993.30693769454956
 30
0.0
 10
-692.4090576171875
 20
-993.66607618331909
 30
0.0
 10
-694.5604248046875
 20
-993.9382119178772
 30
0.0
 10
-696.7149658203125
 20
-994.05513000488281
 30
0.0
 10
-696.7149658203125
 20
-994.05513000488281
 30
0.0
 10
-696.767822265625
 20
-994.05799627304077
 30
0.0
 10
-697.3759765625
 20
-994.0864052772522
 30
0.0
 10
-697.4459228515625
 20
-994.08906126022339
 30
0.0
 10
-697.4459228515625
 20
-994.08906126022339
 30
0.0
 10
-697.8380126953125
 20
-994.10392379760742
 30
0.0
 10
-698.1744384765625
 20
-994.11069345474243
 30
0.0
 10
-698.5714111328125
 20
-994.12399911880493
 30
0.0
 10
-698.5714111328125
 20
-994.12399911880493
 30
0.0
 10
-703.3721923828125
 20
-994.28493785858154
 30
0.0
 10
-708.1719970703125
 20
-994.58742189407349
 30
0.0
 10
-712.97509765625
 20
-994.67988729476929
 30
0.0
 10
-712.97509765625
 20
-994.67988729476929
 30
0.0
 10
-713.1878662109375
 20
-994.68398332595825
 30
0.0
 10
-713.51220703125
 20
-994.68866395950317
 30
0.0
 10
-713.7249755859375
 20
-994.69084119796753
 30
0.0
 10
-713.7249755859375
 20
-994.69084119796753
 30
0.0
 10
-840.251953125
 20
-995.98533821105957
 30
0.0
 10
-966.795654296875
 20
-995.67200517654419
 30
0.0
 10
-1093.3260498046875
 20
-996.73852014541626
 30
0.0
 10
-1093.3260498046875
 20
-996.73852014541626
 30
0.0
 10
-1093.951171875
 20
-996.74378824234009
 30
0.0
 10
-1094.5760498046875
 20
-996.7530517578125
 30
0.0
 10
-1095.201171875
 20
-996.75147247314453
 30
0.0
 10
-1095.201171875
 20
-996.75147247314453
 30
0.0
 10
-1095.413818359375
 20
-996.75093507766724
 30
0.0
 10
-1095.7381591796875
 20
-996.74787998199463
 30
0.0
 10
-1095.950927734375
 20
-996.74419546127319
 30
0.0
 10
-1095.950927734375
 20
-996.74419546127319
 30
0.0
 10
-1101.5830078125
 20
-996.6466269493103
 30
0.0
 10
-1107.2135009765625
 20
-996.15948343276978
 30
0.0
 10
-1112.8389892578125
 20
-995.9104151725769
 30
0.0
 10
-1112.8389892578125
 20
-995.9104151725769
 30
0.0
 10
-1113.2393798828125
 20
-995.89268922805786
 30
0.0
 10
-1113.55419921875
 20
-995.8836498260498
 30
0.0
 10
-1113.94775390625
 20
-995.86434745788574
 30
0.0
 10
-1113.94775390625
 20
-995.86434745788574
 30
0.0
 10
-1114.01953125
 20
-995.86083078384399
 30
0.0
 10
-1114.6319580078125
 20
-995.82501554489136
 30
0.0
 10
-1114.685791015625
 20
-995.82144641876221
 30
0.0
 10
-1114.685791015625
 20
-995.82144641876221
 30
0.0
 10
-1115.125732421875
 20
-995.79229831695557
 30
0.0
 10
-1115.564697265625
 20
-995.75278091430664
 30
0.0
 10
-1116.003662109375
 20
-995.71210050582886
 30
0.0
  0
SPLINE
  5
35
100
AcDbEntity
  8
layer1
 62
256
370
-1
 48
1.0
  6
BYLAYER
100
AcDbSpline
 70
8
 71
3
 72
20
 73
16
 74
0
 40
0.0
 40
0.0
 40
0.0
 40
0.0
 40
0.25
 40
0.25
 40
0.25
 40
0.25
 40
0.5
 40
0.5
 40
0.5
 40
0.5
 40
0.75
 40
0.75
 40
0.75
 40
0.75
 40
1.0
 40
1.0
 40
1.0
 40
1.0
 10
-739.9888916015625
 20
-912.62954092025757
 30
0.0
 10
-747.7208251953125
 20
-912.62954092025757
 30
0.0
 10
-753.9888916015625
 20
-918.89755392074585
 30
0.0
 10
-753.9888916015625
 20
-926.62954092025757
 30
0.0
 10
-753.9888916015625
 20
-926.62954092025757
 30
0.0
 10
-753.9888916015625
 20
-934.36152791976929
 30
0.0
 10
-747.7208251953125
 20
-940.6295371055603
 30
0.0
 10
-739.9888916015625
 20
-940.6295371055603
 30
0.0
 10
-739.9888916015625
 20
-940.6295371055603
 30
0.0
 10
-732.2568359375
 20
-940.6295371055603
 30
0.0
 10
-725.9888916015625
 20
-934.36152791976929
 30
0.0
 10
-725.9888916015625
 20
-926.62954092025757
 30
0.0
 10
-725.9888916015625
 20
-926.62954092025757
 30
0.0
 10
-725.9888916015625
 20
-918.89755392074585
 30
0.0
 10
-732.2568359375
 20
-912.62954092025757
 30
0.0
 10
-739.9888916015625
 20
-912.62954092025757
 30
0.0
  0
SPLINE
  5
36
100
AcDbEntity
  8
layer1
 62
256
370
-1
 48
1.0
  6
BYLAYER
100
AcDbSpline
 70
8
 71
3
 72
20
 73
16
 74
0
 40
0.0
 40
0.0
 40
0.0
 40
0.0
 40
0.25
 40
0.25
 40
0.25
 40
0.25
 40
0.5
 40
0.5
 40
0.5
 40
0.5
 40
0.75
 40
0.75
 40
0.75
 40
0.75
 40
1.0
 40
1.0
 40
1.0
 40
1.0
 10
-1091.44287109375
 20
-914.22534322738647
 30
0.0
 10
-1099.1748046875
 20
-914.22534322738647
 30
0.0
 10
-1105.44287109375
 20
-920.49335622787476
 30
0.0
 10
-1105.44287109375
 20
-928.22534322738647
 30
0.0
 10
-1105.44287109375
 20
-928.22534322738647
 30
0.0
 10
-1105.44287109375
 20
-935.95733785629272
 30
0.0
 10
-1099.1748046875
 20
-942.22534704208374
 30
0.0
 10
-1091.44287109375
 20
-942.22534704208374
 30
0.0
 10
-1091.44287109375
 20
-942.22534704208374
 30
0.0
 10
-1083.7109375
 20
-942.22534704208374
 30
0.0
 10
-1077.44287109375
 20
-935.95733785629272
 30
0.0
 10
-1077.44287109375
 20
-928.22534322738647
 30
0.0
 10
-1077.44287109375
 20
-928.22534322738647
 30
0.0
 10
-1077.44287109375
 20
-920.49335622787476
 30
0.0
 10
-1083.7109375
 20
-914.22534322738647
 30
0.0
 10
-1091.44287109375
 20
-914.22534322738647
 30
0.0
  0
SPLINE
  5
37
100
AcDbEntity
  8
layer0
 62
256
370
-1
 48
1.0
  6
BYLAYER
100
AcDbSpline
 70
8
 71
3
 72
12
 73
8
 74
0
 40
0.0
 40
0.0
 40
0.0
 40
0.0
 40
0.5
 40
0.5
 40
0.5
 40
0.5
 40
1.0
 40
1.0
 40
1.0
 40
1.0
 10
-1394.297607421875
 20
-975.32211446762085
 30
0.0
 10
-1379.87451171875
 20
-974.15438413619995
 30
0.0
 10
-1366.44921875
 20
-968.21381139755249
 30
0.0
 10
-1355.28857421875
 20
-959.0912070274353
 30
0.0
 10
-1355.28857421875
 20
-959.0912070274353
 30
0.0
 10
-1353.091064453125
 20
-957.29499959945679
 30
0.0
 10
-1350.96337890625
 20
-955.17172002792358
 30
0.0
 10
-1349.1290283203125
 20
-953.00658559799194
 30
0.0
  0
LWPOLYLINE
  5
38
100
AcDbEntity
  8
layer0
 62
256
370
-1
 48
1.0
  6
BYLAYER
100
AcDbPolyline
 90
3
 70
0
 10
-1349.1290283203125
 20
-953.00658559799194
 10
-1348.8125
 20
-952.61597204208374
 10
-1348.572021484375
 20
-952.29781103134155
  0
SPLINE
  5
39
100
AcDbEntity
  8
layer0
 62
256
370
-1
 48
1.0
  6
BYLAYER
100
AcDbSpline
 70
8
 71
3
 72
8
 73
4
 74
0
 40
0.0
 40
0.0
 40
0.0
 40
0.0
 40
1.0
 40
1.0
 40
1.0
 40
1.0
 10
-1348.572021484375
 20
-952.29781103134155
 30
0.0
 10
-1341.276611328125
 20
-943.06658697128296
 30
0.0
 10
-1334.2723388671875
 20
-933.45330953598022
 30
0.0
 10
-1331.218994140625
 20
-921.87781667709351
 30
0.0
  0
LWPOLYLINE
  5
3A
100
AcDbEntity
  8
layer0
 62
256
370
-1
 48
1.0
  6
BYLAYER
100
AcDbPolyline
 90
3
 70
0
 10
-1331.218994140625
 20
-921.87781667709351
 10
-1331.098876953125
 20
-921.38598775863647
 10
-1331.0166015625
 20
-920.99577474594116
  0
SPLINE
  5
3B
100
AcDbEntity
  8
layer0
 62
256
370
-1
 48
1.0
  6
BYLAYER
100
AcDbSpline
 70
8
 71
3
 72
12
 73
8
 74
0
 40
0.0
 40
0.0
 40
0.0
 40
0.0
 40
0.5
 40
0.5
 40
0.5
 40
0.5
 40
1.0
 40
1.0
 40
1.0
 40
1.0
 10
-1331.0166015625
 20
-920.99577474594116
 30
0.0
 10
-1330.68359375
 20
-919.55448293685913
 30
0.0
 10
-1330.292724609375
 20
-918.12633657455444
 30
0.0
 10
-1329.94580078125
 20
-916.68841695785522
 30
0.0
 10
-1329.94580078125
 20
-916.68841695785522
 30
0.0
 10
-1329.861572265625
 20
-916.33976888656616
 30
0.0
 10
-1329.770263671875
 20
-915.93304586410522
 30
0.0
 10
-1329.697265625
 20
-915.58374166488647
 30
0.0
  0
LWPOLYLINE
  5
3C
100
AcDbEntity
  8
layer0
 62
256
370
-1
 48
1.0
  6
BYLAYER
100
AcDbPolyline
 90
3
 70
0
 10
-1329.697265625
 20
-915.58374166488647
 10
-1329.5615234375
 20
-914.90802907943726
 10
-1329.445556640625
 20
-914.30355215072632
  0
SPLINE
  5
3D
100
AcDbEntity
  8
layer0
 62
256
370
-1
 48
1.0
  6
BYLAYER
100
AcDbSpline
 70
8
 71
3
 72
208
 73
204
 74
0
 40
0.0
 40
0.0
 40
0.0
 40
0.0
 40
0.0196078438311815
 40
0.0196078438311815
 40
0.0196078438311815
 40
0.0196078438311815
 40
0.0392156876623631
 40
0.0392156876623631
 40
0.0392156876623631
 40
0.0392156876623631
 40
0.0588235314935446
 40
0.0588235314935446
 40
0.0588235314935446
 40
0.0588235314935446
 40
0.0784313753247261
 40
0.0784313753247261
 40
0.0784313753247261
 40
0.0784313753247261
 40
0.0980392191559076
 40
0.0980392191559076
 40
0.0980392191559076
 40
0.0980392191559076
 40
0.1176470629870892
 40
0.1176470629870892
 40
0.1176470629870892
 40
0.1176470629870892
 40
0.1372549068182707
 40
0.1372549068182707
 40
0.1372549068182707
 40
0.1372549068182707
 40
0.1568627506494522
 40
0.1568627506494522
 40
0.1568627506494522
 40
0.1568627506494522
 40
0.1764705944806337
 40
0.1764705944806337
 40
0.1764705944806337
 40
0.1764705944806337
 40
0.1960784383118153
 40
0.1960784383118153
 40
0.1960784383118153
 40
0.1960784383118153
 40
0.2156862821429968
 40
0.2156862821429968
 40
0.2156862821429968
 40
0.2156862821429968
 40
0.2352941259741783
 40
0.2352941259741783
 40
0.2352941259741783
 40
0.2352941259741783
 40
0.2549019698053598
 40
0.2549019698053598
 40
0.2549019698053598
 40
0.2549019698053598
 40
0.2745098136365414
 40
0.2745098136365414
 40
0.2745098136365414
 40
0.2745098136365414
 40
0.2941176574677229
 40
0.2941176574677229
 40
0.2941176574677229
 40
0.2941176574677229
 40
0.3137255012989044
 40
0.3137255012989044
 40
0.3137255012989044
 40
0.3137255012989044
 40
0.333333345130086
 40
0.333333345130086
 40
0.333333345130086
 40
0.333333345130086
 40
0.3529411889612675
 40
0.3529411889612675
 40
0.3529411889612675
 40
0.3529411889612675
 40
0.372549032792449
 40
0.372549032792449
 40
0.372549032792449
 40
0.372549032792449
 40
0.3921568766236305
 40
0.3921568766236305
 40
0.3921568766236305
 40
0.3921568766236305
 40
0.4117647204548121
 40
0.4117647204548121
 40
0.4117647204548121
 40
0.4117647204548121
 40
0.4313725642859936
 40
0.4313725642859936
 40
0.4313725642859936
 40
0.4313725642859936
 40
0.4509804081171751
 40
0.4509804081171751
 40
0.4509804081171751
 40
0.4509804081171751
 40
0.4705882519483566
 40
0.4705882519483566
 40
0.4705882519483566
 40
0.4705882519483566
 40
0.4901960957795382
 40
0.4901960957795382
 40
0.4901960957795382
 40
0.4901960957795382
 40
0.5098039396107197
 40
0.5098039396107197
 40
0.5098039396107197
 40
0.5098039396107197
 40
0.5294117834419012
 40
0.5294117834419012
 40
0.5294117834419012
 40
0.5294117834419012
 40
0.5490196272730827
 40
0.5490196272730827
 40
0.5490196272730827
 40
0.5490196272730827
 40
0.5686274711042643
 40
0.5686274711042643
 40
0.5686274711042643
 40
0.5686274711042643
 40
0.5882353149354458
 40
0.5882353149354458
 40
0.5882353149354458
 40
0.5882353149354458
 40
0.6078431587666273
 40
0.6078431587666273
 40
0.6078431587666273
 40
0.6078431587666273
 40
0.6274510025978088
 40
0.6274510025978088
 40
0.6274510025978088
 40
0.6274510025978088
 40
0.6470588464289904
 40
0.6470588464289904
 40
0.6470588464289904
 40
0.6470588464289904
 40
0.6666666902601719
 40
0.6666666902601719
 40
0.6666666902601719
 40
0.6666666902601719
 40
0.6862745340913534
 40
0.6862745340913534
 40
0.6862745340913534
 40
0.6862745340913534
 40
0.7058823779225349
 40
0.7058823779225349
 40
0.7058823779225349
 40
0.7058823779225349
 40
0.7254902217537165
 40
0.7254902217537165
 40
0.7254902217537165
 40
0.7254902217537165
 40
0.745098065584898
 40
0.745098065584898
 40
0.745098065584898
 40
0.745098065584898
 40
0.7647059094160795
 40
0.7647059094160795
 40
0.7647059094160795
 40
0.7647059094160795
 40
0.7843137532472611
 40
0.7843137532472611
 40
0.7843137532472611
 40
0.7843137532472611
 40
0.8039215970784426
 40
0.8039215970784426
 40
0.8039215970784426
 40
0.8039215970784426
 40
0.8235294409096241
 40
0.8235294409096241
 40
0.8235294409096241
 40
0.8235294409096241
 40
0.8431372847408056
 40
0.8431372847408056
 40
0.8431372847408056
 40
0.8431372847408056
 40
0.8627451285719872
 40
0.8627451285719872
 40
0.8627451285719872
 40
0.8627451285719872
 40
0.8823529724031687
 40
0.8823529724031687
 40
0.8823529724031687
 40
0.8823529724031687
 40
0.9019608162343502
 40
0.9019608162343502
 40
0.9019608162343502
 40
0.9019608162343502
 40
0.9215686600655317
 40
0.9215686600655317
 40
0.9215686600655317
 40
0.9215686600655317
 40
0.9411765038967133
 40
0.9411765038967133
 40
0.9411765038967133
 40
0.9411765038967133
 40
0.9607843477278948
 40
0.9607843477278948
 40
0.9607843477278948
 40
0.9607843477278948
 40
0.9803921915590763
 40
0.9803921915590763
 40
0.9803921915590763
 40
0.9803921915590763
 40
1.0
 40
1.0
 40
1.0
 40
1.0
 10
-1329.445556640625
 20
-914.30355215072632
 30
0.0
 10
-1326.36083984375
 20
-897.96312093734741
 30
0.0
 10
-1323.150390625
 20
-881.56169271469116
 30
0.0
 10
-1320.651611328125
 20
-865.10199117660522
 30
0.0
 10
-1320.651611328125
 20
-865.10199117660522
 30
0.0
 10
-1320.63525390625
 20
-864.9940505027771
 30
0.0
 10
-1320.557373046875
 20
-864.46824789047241
 30
0.0
 10
-1320.5416259765625
 20
-864.36020040512085
 30
0.0
 10
-1320.5416259765625
 20
-864.36020040512085
 30
0.0
 10
-1320.5107421875
 20
-864.14759969711304
 30
0.0
 10
-1320.46630859375
 20
-863.83043050765991
 30
0.0
 10
-1320.4375
 20
-863.61757040023804
 30
0.0
 10
-1320.4375
 20
-863.61757040023804
 30
0.0
 10
-1320.002685546875
 20
-860.41925191879272
 30
0.0
 10
-1319.558837890625
 20
-857.21717977523804
 30
0.0
 10
-1319.194580078125
 20
-854.01001119613647
 30
0.0
 10
-1319.194580078125
 20
-854.01001119613647
 30
0.0
 10
-1319.1689453125
 20
-853.78564596176147
 30
0.0
 10
-1319.1365966796875
 20
-853.48907613754272
 30
0.0
 10
-1319.11279296875
 20
-853.26452779769897
 30
0.0
 10
-1319.11279296875
 20
-853.26452779769897
 30
0.0
 10
-1314.9482421875
 20
-813.93837118148804
 30
0.0
 10
-1311.6275634765625
 20
-774.56138753890991
 30
0.0
 10
-1307.079345703125
 20
-735.27003622055054
 30
0.0
 10
-1307.079345703125
 20
-735.27003622055054
 30
0.0
 10
-1307.031982421875
 20
-734.86107015609741
 30
0.0
 10
-1306.99951171875
 20
-734.61052083969116
 30
0.0
 10
-1306.954833984375
 20
-734.21312093734741
 30
0.0
 10
-1306.954833984375
 20
-734.21312093734741
 30
0.0
 10
-1306.3876953125
 20
-729.15925741195679
 30
0.0
 10
-1306.1353759765625
 20
-724.03538656234741
 30
0.0
 10
-1306.1943359375
 20
-718.95070028305054
 30
0.0
 10
-1306.1943359375
 20
-718.95070028305054
 30
0.0
 10
-1306.197021484375
 20
-718.72133016586304
 30
0.0
 10
-1306.212646484375
 20
-717.92329549789429
 30
0.0
 10
-1306.218994140625
 20
-717.69349813461304
 30
0.0
 10
-1306.218994140625
 20
-717.69349813461304
 30
0.0
 10
-1306.252685546875
 20
-716.46083211898804
 30
0.0
 10
-1306.30517578125
 20
-715.22526693344116
 30
0.0
 10
-1306.3876953125
 20
-713.99485921859741
 30
0.0
 10
-1306.3876953125
 20
-713.99485921859741
 30
0.0
 10
-1306.40283203125
 20
-713.77168416976929
 30
0.0
 10
-1306.4654541015625
 20
-712.95747518539429
 30
0.0
 10
-1306.48486328125
 20
-712.73567342758179
 30
0.0
 10
-1306.48486328125
 20
-712.73567342758179
 30
0.0
 10
-1306.6485595703125
 20
-710.87062215805054
 30
0.0
 10
-1306.8759765625
 20
-709.00526571273804
 30
0.0
 10
-1307.174560546875
 20
-707.15706014633179
 30
0.0
 10
-1307.174560546875
 20
-707.15706014633179
 30
0.0
 10
-1307.406005859375
 20
-705.72331380844116
 30
0.0
 10
-1307.676025390625
 20
-704.28880453109741
 30
0.0
 10
-1307.998046875
 20
-702.87251424789429
 30
0.0
 10
-1307.998046875
 20
-702.87251424789429
 30
0.0
 10
-1308.388916015625
 20
-701.15266561508179
 30
0.0
 10
-1308.864990234375
 20
-699.44090414047241
 30
0.0
 10
-1309.415283203125
 20
-697.76503133773804
 30
0.0
 10
-1309.415283203125
 20
-697.76503133773804
 30
0.0
 10
-1309.48486328125
 20
-697.55354452133179
 30
0.0
 10
-1309.7490234375
 20
-696.78816366195679
 30
0.0
 10
-1309.8251953125
 20
-696.57801961898804
 30
0.0
 10
-1309.8251953125
 20
-696.57801961898804
 30
0.0
 10
-1310.2496337890625
 20
-695.40916585922241
 30
0.0
 10
-1310.72314453125
 20
-694.24672079086304
 30
0.0
 10
-1311.2384033203125
 20
-693.11500692367554
 30
0.0
 10
-1311.2384033203125
 20
-693.11500692367554
 30
0.0
 10
-1311.329345703125
 20
-692.91536092758179
 30
0.0
 10
-1311.67138671875
 20
-692.19609212875366
 30
0.0
 10
-1311.76953125
 20
-691.99891805648804
 30
0.0
 10
-1311.76953125
 20
-691.99891805648804
 30
0.0
 10
-1312.291015625
 20
-690.95106649398804
 30
0.0
 10
-1312.861083984375
 20
-689.90986776351929
 30
0.0
 10
-1313.483642578125
 20
-688.91844320297241
 30
0.0
 10
-1313.483642578125
 20
-688.91844320297241
 30
0.0
 10
-1313.58544921875
 20
-688.75633382797241
 30
0.0
 10
-1313.98681640625
 20
-688.14750814437866
 30
0.0
 10
-1314.096435546875
 20
-687.98945760726929
 30
0.0
 10
-1314.096435546875
 20
-687.98945760726929
 30
0.0
 10
-1314.927734375
 20
-686.78999471664429
 30
0.0
 10
-1315.86328125
 20
-685.63224935531616
 30
0.0
 10
-1316.877197265625
 20
-684.58259725570679
 30
0.0
 10
-1316.877197265625
 20
-684.58259725570679
 30
0.0
 10
-1317.5902099609375
 20
-683.84456014633179
 30
0.0
 10
-1318.359375
 20
-683.13093709945679
 30
0.0
 10
-1319.158935546875
 20
-682.48716878890991
 30
0.0
 10
-1319.158935546875
 20
-682.48716878890991
 30
0.0
 10
-1319.284912109375
 20
-682.38569784164429
 30
0.0
 10
-1319.800048828125
 20
-681.99290609359741
 30
0.0
 10
-1319.93212890625
 20
-681.89784383773804
 30
0.0
 10
-1319.93212890625
 20
-681.89784383773804
 30
0.0
 10
-1321.8389892578125
 20
-680.52568197250366
 30
0.0
 10
-1324.037109375
 20
-679.41883993148804
 30
0.0
 10
-1326.278076171875
 20
-678.70906209945679
 30
0.0
 10
-1326.278076171875
 20
-678.70906209945679
 30
0.0
 10
-1326.9833984375
 20
-678.48564291000366
 30
0.0
 10
-1327.7021484375
 20
-678.29170370101929
 30
0.0
 10
-1328.4200439453125
 20
-678.11290121078491
 30
0.0
 10
-1328.4200439453125
 20
-678.11290121078491
 30
0.0
 10
-1328.4935302734375
 20
-678.09459066390991
 30
0.0
 10
-1329.0589599609375
 20
-677.96571493148804
 30
0.0
 10
-1329.11767578125
 20
-677.95301961898804
 30
0.0
 10
-1329.11767578125
 20
-677.95301961898804
 30
0.0
 10
-1332.246826171875
 20
-677.27687215805054
 30
0.0
 10
-1335.47509765625
 20
-676.99464559555054
 30
0.0
 10
-1338.671142578125
 20
-676.90339803695679
 30
0.0
 10
-1338.671142578125
 20
-676.90339803695679
 30
0.0
 10
-1357.8587646484375
 20
-676.35557699203491
 30
0.0
 10
-1377.07861328125
 20
-677.01472616195679
 30
0.0
 10
-1396.25146484375
 20
-676.05922079086304
 30
0.0
 10
-1396.25146484375
 20
-676.05922079086304
 30
0.0
 10
-1400.40625
 20
-675.85215902328491
 30
0.0
 10
-1406.5234375
 20
-676.08024740219116
 30
0.0
 10
-1408.99951171875
 20
-671.87916707992554
 30
0.0
 10
-1408.99951171875
 20
-671.87916707992554
 30
0.0
 10
-1409.598388671875
 20
-670.86299276351929
 30
0.0
 10
-1410.162353515625
 20
-669.12880086898804
 30
0.0
 10
-1410.401123046875
 20
-667.97206258773804
 30
0.0
 10
-1410.401123046875
 20
-667.97206258773804
 30
0.0
 10
-1410.8665771484375
 20
-665.71791219711304
 30
0.0
 10
-1410.7451171875
 20
-663.16713094711304
 30
0.0
 10
-1410.8477783203125
 20
-660.86308431625366
 30
0.0
 10
-1410.8477783203125
 20
-660.86308431625366
 30
0.0
 10
-1410.9852294921875
 20
-657.77809286117554
 30
0.0
 10
-1411.0572509765625
 20
-654.65129232406616
 30
0.0
 10
-1411.0242919921875
 20
-651.56358480453491
 30
0.0
 10
-1411.0242919921875
 20
-651.56358480453491
 30
0.0
 10
-1411.023193359375
 20
-651.46586751937866
 30
0.0
 10
-1411.01318359375
 20
-650.91194295883179
 30
0.0
 10
-1411.0106201171875
 20
-650.81425619125366
 30
0.0
 10
-1411.0106201171875
 20
-650.81425619125366
 30
0.0
 10
-1411.005126953125
 20
-650.59669637680054
 30
0.0
 10
-1410.99365234375
 20
-650.28257894515991
 30
0.0
 10
-1410.983642578125
 20
-650.06517171859741
 30
0.0
 10
-1410.983642578125
 20
-650.06517171859741
 30
0.0
 10
-1410.0321044921875
 20
-629.32560873031616
 30
0.0
 10
-1408.661865234375
 20
-608.60325765609741
 30
0.0
 10
-1407.451416015625
 20
-587.87626791000366
 30
0.0
 10
-1407.451416015625
 20
-587.87626791000366
 30
0.0
 10
-1407.3367919921875
 20
-585.91175985336304
 30
0.0
 10
-1407.2960205078125
 20
-583.93718099594116
 30
0.0
 10
-1407.2998046875
 20
-581.96974325180054
 30
0.0
 10
-1407.2998046875
 20
-581.96974325180054
 30
0.0
 10
-1407.302001953125
 20
-580.91472005844116
 30
0.0
 10
-1407.32666015625
 20
-579.85902547836304
 30
0.0
 10
-1407.3642578125
 20
-578.80467367172241
 30
0.0
 10
-1407.3642578125
 20
-578.80467367172241
 30
0.0
 10
-1407.379150390625
 20
-578.38765096664429
 30
0.0
 10
-1407.408935546875
 20
-577.77119588851929
 30
0.0
 10
-1407.437744140625
 20
-577.35283041000366
 30
0.0
 10
-1407.437744140625
 20
-577.35283041000366
 30
0.0
 10
-1407.45263671875
 20
-577.13878011703491
 30
0.0
 10
-1407.5308837890625
 20
-576.20958089828491
 30
0.0
 10
-1407.55224609375
 20
-575.99403524398804
 30
0.0
 10
-1407.55224609375
 20
-575.99403524398804
 30
0.0
 10
-1407.674072265625
 20
-574.76634359359741
 30
0.0
 10
-1407.8450927734375
 20
-573.53160238265991
 30
0.0
 10
-1408.072265625
 20
-572.31886434555054
 30
0.0
 10
-1408.072265625
 20
-572.31886434555054
 30
0.0
 10
-1408.10888671875
 20
-572.12358236312866
 30
0.0
 10
-1408.2557373046875
 20
-571.41420125961304
 30
0.0
 10
-1408.300048828125
 20
-571.21836996078491
 30
0.0
 10
-1408.300048828125
 20
-571.21836996078491
 30
0.0
 10
-1408.603271484375
 20
-569.88078451156616
 30
0.0
 10
-1408.98388671875
 20
-568.54228353500366
 30
0.0
 10
-1409.4549560546875
 20
-567.25401449203491
 30
0.0
 10
-1409.4549560546875
 20
-567.25401449203491
 30
0.0
 10
-1410.358154296875
 20
-564.78358602523804
 30
0.0
 10
-1411.560546875
 20
-562.39079427719116
 30
0.0
 10
-1413.0576171875
 20
-560.22593832015991
 30
0.0
 10
-1413.0576171875
 20
-560.22593832015991
 30
0.0
 10
-1414.3255615234375
 20
-558.39259481430054
 30
0.0
 10
-1415.806396484375
 20
-556.67534017562866
 30
0.0
 10
-1417.47119140625
 20
-555.19072103500366
 30
0.0
 10
-1417.47119140625
 20
-555.19072103500366
 30
0.0
 10
-1417.585693359375
 20
-555.08863973617554
 30
0.0
 10
-1418.014404296875
 20
-554.72410726547241
 30
0.0
 10
-1418.1336669921875
 20
-554.62748861312866
 30
0.0
 10
-1418.1336669921875
 20
-554.62748861312866
 30
0.0
 10
-1419.088623046875
 20
-553.85371541976929
 30
0.0
 10
-1420.1162109375
 20
-553.14036703109741
 30
0.0
 10
-1421.1732177734375
 20
-552.51402425765991
 30
0.0
 10
-1421.1732177734375
 20
-552.51402425765991
 30
0.0
 10
-1423.03466796875
 20
-551.41096639633179
 30
0.0
 10
-1425.049072265625
 20
-550.52784872055054
 30
0.0
 10
-1427.11474609375
 20
-549.88499593734741
 30
0.0
 10
-1427.11474609375
 20
-549.88499593734741
 30
0.0
 10
-1427.245361328125
 20
-549.84437704086304
 30
0.0
 10
-1427.71240234375
 20
-549.70945882797241
 30
0.0
 10
-1427.8447265625
 20
-549.67390584945679
 30
0.0
 10
-1427.8447265625
 20
-549.67390584945679
 30
0.0
 10
-1428.606201171875
 20
-549.46946859359741
 30
0.0
 10
-1429.383544921875
 20
-549.30061483383179
 30
0.0
 10
-1430.156982421875
 20
-549.14845418930054
 30
0.0
 10
-1430.156982421875
 20
-549.14845418930054
 30
0.0
 10
-1430.3194580078125
 20
-549.11650228500366
 30
0.0
 10
-1430.854248046875
 20
-549.01826620101929
 30
0.0
 10
-1431.0162353515625
 20
-548.99064779281616
 30
0.0
 10
-1431.0162353515625
 20
-548.99064779281616
 30
0.0
 10
-1431.9345703125
 20
-548.83397054672241
 30
0.0
 10
-1432.861328125
 20
-548.70506429672241
 30
0.0
 10
-1433.786865234375
 20
-548.59956502914429
 30
0.0
 10
-1433.786865234375
 20
-548.59956502914429
 30
0.0
 10
-1433.950439453125
 20
-548.58091878890991
 30
0.0
 10
-1434.626220703125
 20
-548.51054525375366
 30
0.0
 10
-1434.7884521484375
 20
-548.49516439437866
 30
0.0
  0
LWPOLYLINE
  5
3E
100
AcDbEntity
  8
layer0
 62
256
370
-1
 48
1.0
  6
BYLAYER
100
AcDbPolyline
 90
3
 70
0
 10
-1434.7884521484375
 20
-548.49516439437866
 10
-1435.317626953125
 20
-548.44865560531616
 10
-1435.86572265625
 20
-548.40522909164429
  0
SPLINE
  5
3F
100
AcDbEntity
  8
layer0
 62
256
370
-1
 48
1.0
  6
BYLAYER
100
AcDbSpline
 70
8
 71
3
 72
68
 73
64
 74
0
 40
0.0
 40
0.0
 40
0.0
 40
0.0
 40
0.0625
 40
0.0625
 40
0.0625
 40
0.0625
 40
0.125
 40
0.125
 40
0.125
 40
0.125
 40
0.1875
 40
0.1875
 40
0.1875
 40
0.1875
 40
0.25
 40
0.25
 40
0.25
 40
0.25
 40
0.3125
 40
0.3125
 40
0.3125
 40
0.3125
 40
0.375
 40
0.375
 40
0.375
 40
0.375
 40
0.4375
 40
0.4375
 40
0.4375
 40
0.4375
 40
0.5
 40
0.5
 40
0.5
 40
0.5
 40
0.5625
 40
0.5625
 40
0.5625
 40
0.5625
 40
0.625
 40
0.625
 40
0.625
 40
0.625
 40
0.6875
 40
0.6875
 40
0.6875
 40
0.6875
 40
0.75
 40
0.75
 40
0.75
 40
0.75
 40
0.8125
 40
0.8125
 40
0.8125
 40
0.8125
 40
0.875
 40
0.875
 40
0.875
 40
0.875
 40
0.9375
 40
0.9375
 40
0.9375
 40
0.9375
 40
1.0
 40
1.0
 40
1.0
 40
1.0
 10
-1435.86572265625
 20
-548.40522909164429
 30
0.0
 10
-1436.659423828125
 20
-548.34584188461304
 30
0.0
 10
-1437.45361328125
 20
-548.29133749008179
 30
0.0
 10
-1438.248291015625
 20
-548.24620199203491
 30
0.0
 10
-1438.248291015625
 20
-548.24620199203491
 30
0.0
 10
-1438.455322265625
 20
-548.23445272445679
 30
0.0
 10
-1439.2530517578125
 20
-548.19288778305054
 30
0.0
 10
-1439.46142578125
 20
-548.18281698226929
 30
0.0
 10
-1439.46142578125
 20
-548.18281698226929
 30
0.0
 10
-1440.7216796875
 20
-548.12184286117554
 30
0.0
 10
-1441.983154296875
 20
-548.07347249984741
 30
0.0
 10
-1443.2445068359375
 20
-548.03941488265991
 30
0.0
 10
-1443.2445068359375
 20
-548.03941488265991
 30
0.0
 10
-1486.6507568359375
 20
-546.86769247055054
 30
0.0
 10
-1530.081298828125
 20
-546.57274007797241
 30
0.0
 10
-1573.4677734375
 20
-544.79853963851929
 30
0.0
 10
-1573.4677734375
 20
-544.79853963851929
 30
0.0
 10
-1573.6798095703125
 20
-544.78987264633179
 30
0.0
 10
-1574.005126953125
 20
-544.77784872055054
 30
0.0
 10
-1574.21728515625
 20
-544.77092123031616
 30
0.0
 10
-1574.21728515625
 20
-544.77092123031616
 30
0.0
 10
-1574.310546875
 20
-544.76786947250366
 30
0.0
 10
-1574.87353515625
 20
-544.75123739242554
 30
0.0
 10
-1574.966796875
 20
-544.74876546859741
 30
0.0
 10
-1574.966796875
 20
-544.74876546859741
 30
0.0
 10
-1575.1787109375
 20
-544.74315023422241
 30
0.0
 10
-1575.504638671875
 20
-544.73594808578491
 30
0.0
 10
-1575.716552734375
 20
-544.73207235336304
 30
0.0
 10
-1575.716552734375
 20
-544.73207235336304
 30
0.0
 10
-1605.294921875
 20
-544.19276571273804
 30
0.0
 10
-1634.860107421875
 20
-543.19914388656616
 30
0.0
 10
-1664.43310546875
 20
-542.42863607406616
 30
0.0
 10
-1664.43310546875
 20
-542.42863607406616
 30
0.0
 10
-1664.5247802734375
 20
-542.42625570297241
 30
0.0
 10
-1665.0909423828125
 20
-542.41026449203491
 30
0.0
 10
-1665.1826171875
 20
-542.40745687484741
 30
0.0
 10
-1665.1826171875
 20
-542.40745687484741
 30
0.0
 10
-1673.20703125
 20
-542.16276693344116
 30
0.0
 10
-1681.2294921875
 20
-541.79979085922241
 30
0.0
 10
-1689.2498779296875
 20
-541.45494222640991
 30
0.0
 10
-1689.2498779296875
 20
-541.45494222640991
 30
0.0
 10
-1689.871337890625
 20
-541.42820882797241
 30
0.0
 10
-1690.4925537109375
 20
-541.39735555648804
 30
0.0
 10
-1691.1142578125
 20
-541.37803792953491
 30
0.0
 10
-1691.1142578125
 20
-541.37803792953491
 30
0.0
 10
-1691.6492919921875
 20
-541.36140584945679
 30
0.0
 10
-1692.1845703125
 20
-541.35252523422241
 30
0.0
 10
-1692.7198486328125
 20
-541.34678792953491
 30
0.0
 10
-1692.7198486328125
 20
-541.34678792953491
 30
0.0
 10
-1692.9661865234375
 20
-541.34413290023804
 30
0.0
 10
-1693.3243408203125
 20
-541.34275960922241
 30
0.0
 10
-1693.5703125
 20
-541.34428548812866
 30
0.0
 10
-1693.5703125
 20
-541.34428548812866
 30
0.0
 10
-1694.6754150390625
 20
-541.35115194320679
 30
0.0
 10
-1695.7835693359375
 20
-541.38322591781616
 30
0.0
 10
-1696.886474609375
 20
-541.45573568344116
 30
0.0
 10
-1696.886474609375
 20
-541.45573568344116
 30
0.0
 10
-1697.0142822265625
 20
-541.46412801742554
 30
0.0
 10
-1697.5096435546875
 20
-541.50203084945679
 30
0.0
 10
-1697.6378173828125
 20
-541.51329183578491
 30
0.0
 10
-1697.6378173828125
 20
-541.51329183578491
 30
0.0
 10
-1698.368896484375
 20
-541.57743978500366
 30
0.0
 10
-1699.1016845703125
 20
-541.66233968734741
 30
0.0
 10
-1699.828125
 20
-541.76741170883179
 30
0.0
  0
LINE
  5
40
100
AcDbEntity
  8
layer0
 62
256
370
-1
 48
1.0
  6
BYLAYER
100
AcDbLine
 10
-1699.828125
 20
-541.76741170883179
 30
0.0
 11
-1700.288818359375
 21
-541.83775472640991
 31
0.0
  0
SPLINE
  5
41
100
AcDbEntity
  8
layer0
 62
256
370
-1
 48
1.0
  6
BYLAYER
100
AcDbSpline
 70
8
 71
3
 72
8
 73
4
 74
0
 40
0.0
 40
0.0
 40
0.0
 40
0.0
 40
1.0
 40
1.0
 40
1.0
 40
1.0
 10
-1700.288818359375
 20
-541.83775472640991
 30
0.0
 10
-1700.6947021484375
 20
-541.90434408187866
 30
0.0
 10
-1701.223876953125
 20
-541.99989461898804
 30
0.0
 10
-1701.6212158203125
 20
-542.07853841781616
 30
0.0
  0
LWPOLYLINE
  5
42
100
AcDbEntity
  8
layer0
 62
256
370
-1
 48
1.0
  6
BYLAYER
100
AcDbPolyline
 90
3
 70
0
 10
-1701.6212158203125
 20
-542.07853841781616
 10
-1702.2689208984375
 20
-542.21397542953491
 10
-1702.8870849609375
 20
-542.35691976547241
  0
SPLINE
  5
43
100
AcDbEntity
  8
layer0
 62
256
370
-1
 48
1.0
  6
BYLAYER
100
AcDbSpline
 70
8
 71
3
 72
60
 73
56
 74
0
 40
0.0
 40
0.0
 40
0.0
 40
0.0
 40
0.0714285746216774
 40
0.0714285746216774
 40
0.0714285746216774
 40
0.0714285746216774
 40
0.1428571492433548
 40
0.1428571492433548
 40
0.1428571492433548
 40
0.1428571492433548
 40
0.2142857238650322
 40
0.2142857238650322
 40
0.2142857238650322
 40
0.2142857238650322
 40
0.2857142984867096
 40
0.2857142984867096
 40
0.2857142984867096
 40
0.2857142984867096
 40
0.357142873108387
 40
0.357142873108387
 40
0.357142873108387
 40
0.357142873108387
 40
0.4285714477300644
 40
0.4285714477300644
 40
0.4285714477300644
 40
0.4285714477300644
 40
0.5000000223517418
 40
0.5000000223517418
 40
0.5000000223517418
 40
0.5000000223517418
 40
0.5714285969734192
 40
0.5714285969734192
 40
0.5714285969734192
 40
0.5714285969734192
 40
0.6428571715950966
 40
0.6428571715950966
 40
0.6428571715950966
 40
0.6428571715950966
 40
0.714285746216774
 40
0.714285746216774
 40
0.714285746216774
 40
0.714285746216774
 40
0.7857143208384514
 40
0.7857143208384514
 40
0.7857143208384514
 40
0.7857143208384514
 40
0.8571428954601288
 40
0.8571428954601288
 40
0.8571428954601288
 40
0.8571428954601288
 40
0.9285714700818062
 40
0.9285714700818062
 40
0.9285714700818062
 40
0.9285714700818062
 40
1.0
 40
1.0
 40
1.0
 40
1.0
 10
-1702.8870849609375
 20
-542.35691976547241
 30
0.0
 10
-1707.0838623046875
 20
-543.40864706039429
 30
0.0
 10
-1710.915771484375
 20
-545.61549520492554
 30
0.0
 10
-1714.0989990234375
 20
-548.52546834945679
 30
0.0
 10
-1714.0989990234375
 20
-548.52546834945679
 30
0.0
 10
-1718.662841796875
 20
-552.69752645492554
 30
0.0
 10
-1722.187255859375
 20
-558.14198446273804
 30
0.0
 10
-1724.2913818359375
 20
-563.94511556625366
 30
0.0
 10
-1724.2913818359375
 20
-563.94511556625366
 30
0.0
 10
-1724.314208984375
 20
-564.00810384750366
 30
0.0
 10
-1724.50830078125
 20
-564.57490682601929
 30
0.0
 10
-1724.524169921875
 20
-564.62291097640991
 30
0.0
 10
-1724.524169921875
 20
-564.62291097640991
 30
0.0
 10
-1724.776123046875
 20
-565.38453817367554
 30
0.0
 10
-1725.0030517578125
 20
-566.15812826156616
 30
0.0
 10
-1725.209228515625
 20
-566.93336629867554
 30
0.0
 10
-1725.209228515625
 20
-566.93336629867554
 30
0.0
 10
-1725.5045166015625
 20
-568.04408407211304
 30
0.0
 10
-1725.757080078125
 20
-569.17079305648804
 30
0.0
 10
-1725.9705810546875
 20
-570.30009603500366
 30
0.0
 10
-1725.9705810546875
 20
-570.30009603500366
 30
0.0
 10
-1725.99853515625
 20
-570.44789266586304
 30
0.0
 10
-1726.1007080078125
 20
-571.02067708969116
 30
0.0
 10
-1726.1253662109375
 20
-571.16792440414429
 30
0.0
 10
-1726.1253662109375
 20
-571.16792440414429
 30
0.0
 10
-1729.365966796875
 20
-590.50367879867554
 30
0.0
 10
-1726.8153076171875
 20
-610.32142782211304
 30
0.0
 10
-1728.6597900390625
 20
-629.74229574203491
 30
0.0
 10
-1728.6597900390625
 20
-629.74229574203491
 30
0.0
 10
-1728.7723388671875
 20
-630.92793416976929
 30
0.0
 10
-1728.9122314453125
 20
-632.11522054672241
 30
0.0
 10
-1729.0830078125
 20
-633.29387044906616
 30
0.0
 10
-1729.0830078125
 20
-633.29387044906616
 30
0.0
 10
-1729.1143798828125
 20
-633.51045370101929
 30
0.0
 10
-1729.2392578125
 20
-634.31038045883179
 30
0.0
 10
-1729.2757568359375
 20
-634.52659749984741
 30
0.0
 10
-1729.2757568359375
 20
-634.52659749984741
 30
0.0
 10
-1729.4757080078125
 20
-635.71309041976929
 30
0.0
 10
-1729.7095947265625
 20
-636.90220785140991
 30
0.0
 10
-1729.9970703125
 20
-638.07075643539429
 30
0.0
 10
-1729.9970703125
 20
-638.07075643539429
 30
0.0
 10
-1730.0440673828125
 20
-638.26191854476929
 30
0.0
 10
-1730.230712890625
 20
-638.96898031234741
 30
0.0
 10
-1730.2845458984375
 20
-639.15971517562866
 30
0.0
 10
-1730.2845458984375
 20
-639.15971517562866
 30
0.0
 10
-1730.5692138671875
 20
-640.16816854476929
 30
0.0
 10
-1730.8970947265625
 20
-641.17845296859741
 30
0.0
 10
-1731.27587890625
 20
-642.15565633773804
 30
0.0
 10
-1731.27587890625
 20
-642.15565633773804
 30
0.0
 10
-1731.3355712890625
 20
-642.30958700180054
 30
0.0
 10
-1731.5859375
 20
-642.91734457015991
 30
0.0
 10
-1731.653076171875
 20
-643.06981039047241
 30
0.0
 10
-1731.653076171875
 20
-643.06981039047241
 30
0.0
 10
-1732.419677734375
 20
-644.81184530258179
 30
0.0
 10
-1733.4140625
 20
-646.48054647445679
 30
0.0
 10
-1734.55712890625
 20
-648.00129842758179
 30
0.0
  0
LINE
  5
44
100
AcDbEntity
  8
layer0
 62
256
370
-1
 48
1.0
  6
BYLAYER
100
AcDbLine
 10
-1734.55712890625
 20
-648.00129842758179
 30
0.0
 11
-1734.9156494140625
 21
-648.46128988265991
 31
0.0
  0
SPLINE
  5
45
100
AcDbEntity
  8
layer0
 62
256
370
-1
 48
1.0
  6
BYLAYER
100
AcDbSpline
 70
8
 71
3
 72
28
 73
24
 74
0
 40
0.0
 40
0.0
 40
0.0
 40
0.0
 40
0.1666666716337204
 40
0.1666666716337204
 40
0.1666666716337204
 40
0.1666666716337204
 40
0.3333333432674408
 40
0.3333333432674408
 40
0.3333333432674408
 40
0.3333333432674408
 40
0.5000000149011612
 40
0.5000000149011612
 40
0.5000000149011612
 40
0.5000000149011612
 40
0.6666666865348816
 40
0.6666666865348816
 40
0.6666666865348816
 40
0.6666666865348816
 40
0.833333358168602
 40
0.833333358168602
 40
0.833333358168602
 40
0.833333358168602
 40
1.0
 40
1.0
 40
1.0
 40
1.0
 10
-1734.9156494140625
 20
-648.46128988265991
 30
0.0
 10
-1735.2884521484375
 20
-648.90886068344116
 30
0.0
 10
-1735.71484375
 20
-649.34816122055054
 30
0.0
 10
-1736.1480712890625
 20
-649.73747396469116
 30
0.0
 10
-1736.1480712890625
 20
-649.73747396469116
 30
0.0
 10
-1736.68505859375
 20
-650.22013998031616
 30
0.0
 10
-1737.282470703125
 20
-650.65513753890991
 30
0.0
 10
-1737.8841552734375
 20
-651.05357503890991
 30
0.0
 10
-1737.8841552734375
 20
-651.05357503890991
 30
0.0
 10
-1738.8184814453125
 20
-651.67228841781616
 30
0.0
 10
-1739.8511962890625
 20
-652.21110677719116
 30
0.0
 10
-1740.8907470703125
 20
-652.62892293930054
 30
0.0
 10
-1740.8907470703125
 20
-652.62892293930054
 30
0.0
 10
-1741.03759765625
 20
-652.68794393539429
 30
0.0
 10
-1741.640380859375
 20
-652.90992879867554
 30
0.0
 10
-1741.787109375
 20
-652.95961141586304
 30
0.0
 10
-1741.787109375
 20
-652.95961141586304
 30
0.0
 10
-1742.8564453125
 20
-653.32148885726929
 30
0.0
 10
-1743.9683837890625
 20
-653.60643148422241
 30
0.0
 10
-1745.070556640625
 20
-653.84773397445679
 30
0.0
 10
-1745.070556640625
 20
-653.84773397445679
 30
0.0
 10
-1758.2197265625
 20
-656.72639608383179
 30
0.0
 10
-1772.263671875
 20
-654.83464193344116
 30
0.0
 10
-1785.5926513671875
 20
-654.73747396469116
 30
0.0
  0
LWPOLYLINE
  5
46
100
AcDbEntity
  8
layer0
 62
256
370
-1
 48
1.0
  6
BYLAYER
100
AcDbPolyline
 90
3
 70
0
 10
-1785.5926513671875
 20
-654.73747396469116
 10
-1786.017822265625
 20
-654.72813558578491
 10
-1786.5260009765625
 20
-654.72911214828491
  0
SPLINE
  5
47
100
AcDbEntity
  8
layer0
 62
256
370
-1
 48
1.0
  6
BYLAYER
100
AcDbSpline
 70
8
 71
3
 72
56
 73
52
 74
0
 40
0.0
 40
0.0
 40
0.0
 40
0.0
 40
0.0769230797886848
 40
0.0769230797886848
 40
0.0769230797886848
 40
0.0769230797886848
 40
0.1538461595773697
 40
0.1538461595773697
 40
0.1538461595773697
 40
0.1538461595773697
 40
0.2307692393660545
 40
0.2307692393660545
 40
0.2307692393660545
 40
0.2307692393660545
 40
0.3076923191547394
 40
0.3076923191547394
 40
0.3076923191547394
 40
0.3076923191547394
 40
0.3846153989434242
 40
0.3846153989434242
 40
0.3846153989434242
 40
0.3846153989434242
 40
0.4615384787321091
 40
0.4615384787321091
 40
0.4615384787321091
 40
0.4615384787321091
 40
0.5384615585207939
 40
0.5384615585207939
 40
0.5384615585207939
 40
0.5384615585207939
 40
0.6153846383094788
 40
0.6153846383094788
 40
0.6153846383094788
 40
0.6153846383094788
 40
0.6923077180981636
 40
0.6923077180981636
 40
0.6923077180981636
 40
0.6923077180981636
 40
0.7692307978868485
 40
0.7692307978868485
 40
0.7692307978868485
 40
0.7692307978868485
 40
0.8461538776755333
 40
0.8461538776755333
 40
0.8461538776755333
 40
0.8461538776755333
 40
0.9230769574642181
 40
0.9230769574642181
 40
0.9230769574642181
 40
0.9230769574642181
 40
1.0
 40
1.0
 40
1.0
 40
1.0
 10
-1786.5260009765625
 20
-654.72911214828491
 30
0.0
 10
-1789.0225830078125
 20
-654.77482748031616
 30
0.0
 10
-1791.645263671875
 20
-655.00758504867554
 30
0.0
 10
-1794.0897216796875
 20
-655.52391195297241
 30
0.0
 10
-1794.0897216796875
 20
-655.52391195297241
 30
0.0
 10
-1794.8489990234375
 20
-655.68428182601929
 30
0.0
 10
-1795.6107177734375
 20
-655.89323568344116
 30
0.0
 10
-1796.35009765625
 20
-656.12870931625366
 30
0.0
 10
-1796.35009765625
 20
-656.12870931625366
 30
0.0
 10
-1799.241455078125
 20
-657.04954671859741
 30
0.0
 10
-1802.0181884765625
 20
-658.48033285140991
 30
0.0
 10
-1804.3984375
 20
-660.36720418930054
 30
0.0
 10
-1804.3984375
 20
-660.36720418930054
 30
0.0
 10
-1804.5030517578125
 20
-660.45018148422241
 30
0.0
 10
-1804.8697509765625
 20
-660.75459432601929
 30
0.0
 10
-1804.9705810546875
 20
-660.84214925765991
 30
0.0
 10
-1804.9705810546875
 20
-660.84214925765991
 30
0.0
 10
-1806.4266357421875
 20
-662.10679769515991
 30
0.0
 10
-1807.741455078125
 20
-663.56135702133179
 30
0.0
 10
-1808.86572265625
 20
-665.12758016586304
 30
0.0
 10
-1808.86572265625
 20
-665.12758016586304
 30
0.0
 10
-1808.952880859375
 20
-665.24897909164429
 30
0.0
 10
-1809.2698974609375
 20
-665.71003866195679
 30
0.0
 10
-1809.35205078125
 20
-665.83467245101929
 30
0.0
 10
-1809.35205078125
 20
-665.83467245101929
 30
0.0
 10
-1809.8240966796875
 20
-666.55116415023804
 30
0.0
 10
-1810.26513671875
 20
-667.30034017562866
 30
0.0
 10
-1810.666259765625
 20
-668.05879354476929
 30
0.0
 10
-1810.666259765625
 20
-668.05879354476929
 30
0.0
 10
-1810.7384033203125
 20
-668.19523763656616
 30
0.0
 10
-1810.98876953125
 20
-668.69114828109741
 30
0.0
 10
-1811.0557861328125
 20
-668.82997274398804
 30
0.0
 10
-1811.0557861328125
 20
-668.82997274398804
 30
0.0
 10
-1811.428955078125
 20
-669.60356283187866
 30
0.0
 10
-1811.7730712890625
 20
-670.40132284164429
 30
0.0
 10
-1812.0794677734375
 20
-671.20372152328491
 30
0.0
 10
-1812.0794677734375
 20
-671.20372152328491
 30
0.0
 10
-1812.13720703125
 20
-671.35496664047241
 30
0.0
 10
-1812.32568359375
 20
-671.87617635726929
 30
0.0
 10
-1812.377685546875
 20
-672.02855062484741
 30
0.0
 10
-1812.377685546875
 20
-672.02855062484741
 30
0.0
 10
-1812.6754150390625
 20
-672.90007162094116
 30
0.0
 10
-1812.941650390625
 20
-673.79161214828491
 30
0.0
 10
-1813.170166015625
 20
-674.68376302719116
 30
0.0
 10
-1813.170166015625
 20
-674.68376302719116
 30
0.0
 10
-1813.2158203125
 20
-674.86216878890991
 30
0.0
 10
-1813.3643798828125
 20
-675.48387289047241
 30
0.0
 10
-1813.4036865234375
 20
-675.66163778305054
 30
0.0
 10
-1813.4036865234375
 20
-675.66163778305054
 30
0.0
 10
-1814.3818359375
 20
-680.08329916000366
 30
0.0
 10
-1814.6732177734375
 20
-684.70472860336304
 30
0.0
 10
-1814.661865234375
 20
-689.22532796859741
 30
0.0
  0
LWPOLYLINE
  5
48
100
AcDbEntity
  8
layer0
 62
256
370
-1
 48
1.0
  6
BYLAYER
100
AcDbPolyline
 90
3
 70
0
 10
-1814.661865234375
 20
-689.22532796859741
 10
-1814.6551513671875
 20
-689.73243856430054
 10
-1814.642333984375
 20
-690.13984823226929
  0
SPLINE
  5
49
100
AcDbEntity
  8
layer0
 62
256
370
-1
 48
1.0
  6
BYLAYER
100
AcDbSpline
 70
8
 71
3
 72
8
 73
4
 74
0
 40
0.0
 40
0.0
 40
0.0
 40
0.0
 40
1.0
 40
1.0
 40
1.0
 40
1.0
 10
-1814.642333984375
 20
-690.13984823226929
 30
0.0
 10
-1814.60107421875
 20
-692.14634847640991
 30
0.0
 10
-1814.624267578125
 20
-694.15449666976929
 30
0.0
 10
-1814.564453125
 20
-696.16060018539429
 30
0.0
  0
LINE
  5
4A
100
AcDbEntity
  8
layer0
 62
256
370
-1
 48
1.0
  6
BYLAYER
100
AcDbLine
 10
-1814.564453125
 20
-696.16060018539429
 30
0.0
 11
-1814.5472412109375
 21
-696.66020345687866
 31
0.0
  0
SPLINE
  5
4B
100
AcDbEntity
  8
layer0
 62
256
370
-1
 48
1.0
  6
BYLAYER
100
AcDbSpline
 70
8
 71
3
 72
12
 73
8
 74
0
 40
0.0
 40
0.0
 40
0.0
 40
0.0
 40
0.5
 40
0.5
 40
0.5
 40
0.5
 40
1.0
 40
1.0
 40
1.0
 40
1.0
 10
-1814.5472412109375
 20
-696.66020345687866
 30
0.0
 10
-1814.4583740234375
 20
-698.97664022445679
 30
0.0
 10
-1814.3328857421875
 20
-701.29316854476929
 30
0.0
 10
-1814.2164306640625
 20
-703.60841512680054
 30
0.0
 10
-1814.2164306640625
 20
-703.60841512680054
 30
0.0
 10
-1814.1982421875
 20
-703.97087240219116
 30
0.0
 10
-1814.1749267578125
 20
-704.37843465805054
 30
0.0
 10
-1814.1519775390625
 20
-704.73921346664429
 30
0.0
  0
LWPOLYLINE
  5
4C
100
AcDbEntity
  8
layer0
 62
256
370
-1
 48
1.0
  6
BYLAYER
100
AcDbPolyline
 90
3
 70
0
 10
-1814.1519775390625
 20
-704.73921346664429
 10
-1814.1060791015625
 20
-705.42711019515991
 10
-1814.0628662109375
 20
-706.04118490219116
  0
SPLINE
  5
4D
100
AcDbEntity
  8
layer0
 62
256
370
-1
 48
1.0
  6
BYLAYER
100
AcDbSpline
 70
8
 71
3
 72
132
 73
128
 74
0
 40
0.0
 40
0.0
 40
0.0
 40
0.0
 40
0.03125
 40
0.03125
 40
0.03125
 40
0.03125
 40
0.0625
 40
0.0625
 40
0.0625
 40
0.0625
 40
0.09375
 40
0.09375
 40
0.09375
 40
0.09375
 40
0.125
 40
0.125
 40
0.125
 40
0.125
 40
0.15625
 40
0.15625
 40
0.15625
 40
0.15625
 40
0.1875
 40
0.1875
 40
0.1875
 40
0.1875
 40
0.21875
 40
0.21875
 40
0.21875
 40
0.21875
 40
0.25
 40
0.25
 40
0.25
 40
0.25
 40
0.28125
 40
0.28125
 40
0.28125
 40
0.28125
 40
0.3125
 40
0.3125
 40
0.3125
 40
0.3125
 40
0.34375
 40
0.34375
 40
0.34375
 40
0.34375
 40
0.375
 40
0.375
 40
0.375
 40
0.375
 40
0.40625
 40
0.40625
 40
0.40625
 40
0.40625
 40
0.4375
 40
0.4375
 40
0.4375
 40
0.4375
 40
0.46875
 40
0.46875
 40
0.46875
 40
0.46875
 40
0.5
 40
0.5
 40
0.5
 40
0.5
 40
0.53125
 40
0.53125
 40
0.53125
 40
0.53125
 40
0.5625
 40
0.5625
 40
0.5625
 40
0.5625
 40
0.59375
 40
0.59375
 40
0.59375
 40
0.59375
 40
0.625
 40
0.625
 40
0.625
 40
0.625
 40
0.65625
 40
0.65625
 40
0.65625
 40
0.65625
 40
0.6875
 40
0.6875
 40
0.6875
 40
0.6875
 40
0.71875
 40
0.71875
 40
0.71875
 40
0.71875
 40
0.75
 40
0.75
 40
0.75
 40
0.75
 40
0.78125
 40
0.78125
 40
0.78125
 40
0.78125
 40
0.8125
 40
0.8125
 40
0.8125
 40
0.8125
 40
0.84375
 40
0.84375
 40
0.84375
 40
0.84375
 40
0.875
 40
0.875
 40
0.875
 40
0.875
 40
0.90625
 40
0.90625
 40
0.90625
 40
0.90625
 40
0.9375
 40
0.9375
 40
0.9375
 40
0.9375
 40
0.96875
 40
0.96875
 40
0.96875
 40
0.96875
 40
1.0
 40
1.0
 40
1.0
 40
1.0
 10
-1814.0628662109375
 20
-706.04118490219116
 30
0.0
 10
-1811.72998046875
 20
-738.64262533187866
 30
0.0
 10
-1808.925048828125
 20
-771.21418905258179
 30
0.0
 10
-1806.6109619140625
 20
-803.81524801254272
 30
0.0
 10
-1806.6109619140625
 20
-803.81524801254272
 30
0.0
 10
-1805.42041015625
 20
-820.58787679672241
 30
0.0
 10
-1804.4927978515625
 20
-837.37924337387085
 30
0.0
 10
-1803.277587890625
 20
-854.15002584457397
 30
0.0
 10
-1803.277587890625
 20
-854.15002584457397
 30
0.0
 10
-1802.1632080078125
 20
-869.52877950668335
 30
0.0
 10
-1800.6441650390625
 20
-884.88586568832397
 30
0.0
 10
-1799.218994140625
 20
-900.2362380027771
 30
0.0
 10
-1799.218994140625
 20
-900.2362380027771
 30
0.0
 10
-1797.7064208984375
 20
-916.52742147445679
 30
0.0
 10
-1798.4615478515625
 20
-935.12005758285522
 30
0.0
 10
-1790.3189697265625
 20
-949.90879964828491
 30
0.0
 10
-1790.3189697265625
 20
-949.90879964828491
 30
0.0
 10
-1789.9417724609375
 20
-950.59388113021851
 30
0.0
 10
-1789.5372314453125
 20
-951.27379369735718
 30
0.0
 10
-1789.1044921875
 20
-951.92536306381226
 30
0.0
 10
-1789.1044921875
 20
-951.92536306381226
 30
0.0
 10
-1789.0301513671875
 20
-952.03730154037476
 30
0.0
 10
-1788.7587890625
 20
-952.42869329452515
 30
0.0
 10
-1788.679931640625
 20
-952.53762197494507
 30
0.0
 10
-1788.679931640625
 20
-952.53762197494507
 30
0.0
 10
-1788.0579833984375
 20
-953.39715337753296
 30
0.0
 10
-1787.378662109375
 20
-954.23130941390991
 30
0.0
 10
-1786.652587890625
 20
-955.00476980209351
 30
0.0
 10
-1786.652587890625
 20
-955.00476980209351
 30
0.0
 10
-1785.1798095703125
 20
-956.57362127304077
 30
0.0
 10
-1783.50439453125
 20
-957.98500204086304
 30
0.0
 10
-1781.70751953125
 20
-959.16932058334351
 30
0.0
 10
-1781.70751953125
 20
-959.16932058334351
 30
0.0
 10
-1781.581787109375
 20
-959.25217199325562
 30
0.0
 10
-1781.0999755859375
 20
-959.55510473251343
 30
0.0
 10
-1780.9710693359375
 20
-959.63250875473022
 30
0.0
 10
-1780.9710693359375
 20
-959.63250875473022
 30
0.0
 10
-1779.0584716796875
 20
-960.78109884262085
 30
0.0
 10
-1777.0009765625
 20
-961.7184042930603
 30
0.0
 10
-1774.902099609375
 20
-962.47000646591187
 30
0.0
 10
-1774.902099609375
 20
-962.47000646591187
 30
0.0
 10
-1774.73779296875
 20
-962.5288519859314
 30
0.0
 10
-1774.1219482421875
 20
-962.73821401596069
 30
0.0
 10
-1773.9566650390625
 20
-962.7915472984314
 30
0.0
 10
-1773.9566650390625
 20
-962.7915472984314
 30
0.0
 10
-1772.959228515625
 20
-963.11347723007202
 30
0.0
 10
-1771.9425048828125
 20
-963.39829397201538
 30
0.0
 10
-1770.92529296875
 20
-963.65033483505249
 30
0.0
 10
-1770.92529296875
 20
-963.65033483505249
 30
0.0
 10
-1770.7301025390625
 20
-963.69870138168335
 30
0.0
 10
-1770.0303955078125
 20
-963.86225652694702
 30
0.0
 10
-1769.83544921875
 20
-963.90521764755249
 30
0.0
 10
-1769.83544921875
 20
-963.90521764755249
 30
0.0
 10
-1768.687744140625
 20
-964.15814352035522
 30
0.0
 10
-1767.5269775390625
 20
-964.37613821029663
 30
0.0
 10
-1766.366455078125
 20
-964.56152105331421
 30
0.0
 10
-1766.366455078125
 20
-964.56152105331421
 30
0.0
 10
-1766.1646728515625
 20
-964.59375905990601
 30
0.0
 10
-1765.3328857421875
 20
-964.71751546859741
 30
0.0
 10
-1765.1319580078125
 20
-964.74523305892944
 30
0.0
 10
-1765.1319580078125
 20
-964.74523305892944
 30
0.0
 10
-1761.8946533203125
 20
-965.19167852401733
 30
0.0
 10
-1758.6097412109375
 20
-965.47918081283569
 30
0.0
 10
-1755.343017578125
 20
-965.58818960189819
 30
0.0
 10
-1755.343017578125
 20
-965.58818960189819
 30
0.0
 10
-1754.94775390625
 20
-965.60137319564819
 30
0.0
 10
-1754.6851806640625
 20
-965.60460805892944
 30
0.0
 10
-1754.279296875
 20
-965.61640310287476
 30
0.0
 10
-1754.279296875
 20
-965.61640310287476
 30
0.0
 10
-1748.0020751953125
 20
-965.79882955551147
 30
0.0
 10
-1741.727783203125
 20
-966.13252401351929
 30
0.0
 10
-1735.4490966796875
 20
-966.26621389389038
 30
0.0
 10
-1735.4490966796875
 20
-966.26621389389038
 30
0.0
 10
-1735.236572265625
 20
-966.27073812484741
 30
0.0
 10
-1734.9117431640625
 20
-966.27659749984741
 30
0.0
 10
-1734.69921875
 20
-966.27983236312866
 30
0.0
 10
-1734.69921875
 20
-966.27983236312866
 30
0.0
 10
-1734.0743408203125
 20
-966.28934621810913
 30
0.0
 10
-1733.4493408203125
 20
-966.29440450668335
 30
0.0
 10
-1732.8243408203125
 20
-966.30110311508179
 30
0.0
 10
-1732.8243408203125
 20
-966.30110311508179
 30
0.0
 10
-1685.2979736328125
 20
-966.81075811386108
 30
0.0
 10
-1637.815185546875
 20
-968.68425512313843
 30
0.0
 10
-1590.294189453125
 20
-969.36422109603882
 30
0.0
 10
-1590.294189453125
 20
-969.36422109603882
 30
0.0
 10
-1589.6693115234375
 20
-969.37316274642944
 30
0.0
 10
-1589.0443115234375
 20
-969.38006734848022
 30
0.0
 10
-1588.41943359375
 20
-969.39249563217163
 30
0.0
 10
-1588.41943359375
 20
-969.39249563217163
 30
0.0
 10
-1588.20654296875
 20
-969.39673376083374
 30
0.0
 10
-1587.882568359375
 20
-969.4043173789978
 30
0.0
 10
-1587.669677734375
 20
-969.41016149520874
 30
0.0
 10
-1587.669677734375
 20
-969.41016149520874
 30
0.0
 10
-1587.573974609375
 20
-969.41278600692749
 30
0.0
 10
-1587.0157470703125
 20
-969.42968130111694
 30
0.0
 10
-1586.920166015625
 20
-969.43284749984741
 30
0.0
 10
-1586.920166015625
 20
-969.43284749984741
 30
0.0
 10
-1586.707275390625
 20
-969.43988180160522
 30
0.0
 10
-1586.38330078125
 20
-969.45190954208374
 30
0.0
 10
-1586.170654296875
 20
-969.46055364608765
 30
0.0
 10
-1586.170654296875
 20
-969.46055364608765
 30
0.0
 10
-1544.553955078125
 20
-971.15185689926147
 30
0.0
 10
-1502.92431640625
 20
-972.60295820236206
 30
0.0
 10
-1461.29248046875
 20
-973.85660886764526
 30
0.0
 10
-1461.29248046875
 20
-973.85660886764526
 30
0.0
 10
-1461.0791015625
 20
-973.86303281784058
 30
0.0
 10
-1460.7562255859375
 20
-973.87414503097534
 30
0.0
 10
-1460.54296875
 20
-973.88253736495972
 30
0.0
 10
-1460.54296875
 20
-973.88253736495972
 30
0.0
 10
-1460.447265625
 20
-973.88630247116089
 30
0.0
 10
-1459.889404296875
 20
-973.91018438339233
 30
0.0
 10
-1459.793701171875
 20
-973.91460752487183
 30
0.0
 10
-1459.793701171875
 20
-973.91460752487183
 30
0.0
 10
-1459.5804443359375
 20
-973.92447423934937
 30
0.0
 10
-1459.258056640625
 20
-973.94098043441772
 30
0.0
 10
-1459.0447998046875
 20
-973.95281934738159
 30
0.0
 10
-1459.0447998046875
 20
-973.95281934738159
 30
0.0
 10
-1440.395263671875
 20
-974.98819303512573
 30
0.0
 10
-1421.9542236328125
 20
-975.19391393661499
 30
0.0
 10
-1403.245849609375
 20
-975.58018636703491
 30
0.0
 10
-1403.245849609375
 20
-975.58018636703491
 30
0.0
 10
-1402.847412109375
 20
-975.58841276168823
 30
0.0
 10
-1402.570556640625
 20
-975.59909200668335
 30
0.0
 10
-1402.18115234375
 20
-975.60522794723511
 30
0.0
 10
-1402.18115234375
 20
-975.60522794723511
 30
0.0
 10
-1399.552734375
 20
-975.6466383934021
 30
0.0
 10
-1396.9169921875
 20
-975.53021383285522
 30
0.0
 10
-1394.297607421875
 20
-975.32211446762085
 30
0.0
  0
SPLINE
  5
4E
100
AcDbEntity
  8
layer0
 62
256
370
-1
 48
1.0
  6
BYLAYER
100
AcDbSpline
 70
8
 71
3
 72
16
 73
12
 74
0
 40
0.0
 40
0.0
 40
0.0
 40
0.0
 40
0.3333333432674408
 40
0.3333333432674408
 40
0.3333333432674408
 40
0.3333333432674408
 40
0.6666666865348816
 40
0.6666666865348816
 40
0.6666666865348816
 40
0.6666666865348816
 40
1.0
 40
1.0
 40
1.0
 40
1.0
 10
-1006.9007568359375
 20
-432.13044881820679
 30
0.0
 10
-1027.3389892578125
 20
-431.57801961898804
 30
0.0
 10
-1050.1754150390625
 20
-432.18892049789429
 30
0.0
 10
-1066.5726318359375
 20
-417.86451864242554
 30
0.0
 10
-1066.5726318359375
 20
-417.86451864242554
 30
0.0
 10
-1068.05517578125
 20
-416.56935262680054
 30
0.0
 10
-1069.58056640625
 20
-415.27443075180054
 30
0.0
 10
-1070.98046875
 20
-413.89058065414429
 30
0.0
 10
-1070.98046875
 20
-413.89058065414429
 30
0.0
 10
-1081.752685546875
 20
-403.24238729476929
 30
0.0
 10
-1090.050537109375
 20
-389.09944295883179
 30
0.0
 10
-1093.970947265625
 20
-374.46803426742554
 30
0.0
  0
LWPOLYLINE
  5
4F
100
AcDbEntity
  8
layer0
 62
256
370
-1
 48
1.0
  6
BYLAYER
100
AcDbPolyline
 90
3
 70
0
 10
-1093.970947265625
 20
-374.46803426742554
 10
-1094.094482421875
 20
-373.98402547836304
 10
-1094.2086181640625
 20
-373.49751424789429
  0
SPLINE
  5
50
100
AcDbEntity
  8
layer0
 62
256
370
-1
 48
1.0
  6
BYLAYER
100
AcDbSpline
 70
8
 71
3
 72
12
 73
8
 74
0
 40
0.0
 40
0.0
 40
0.0
 40
0.0
 40
0.5
 40
0.5
 40
0.5
 40
0.5
 40
1.0
 40
1.0
 40
1.0
 40
1.0
 10
-1094.2086181640625
 20
-373.49751424789429
 30
0.0
 10
-1094.636474609375
 20
-371.59846639633179
 30
0.0
 10
-1095.053955078125
 20
-369.69435262680054
 30
0.0
 10
-1095.458984375
 20
-367.79036092758179
 30
0.0
 10
-1095.458984375
 20
-367.79036092758179
 30
0.0
 10
-1095.5341796875
 20
-367.43690633773804
 30
0.0
 10
-1095.613037109375
 20
-367.03346395492554
 30
0.0
 10
-1095.67626953125
 20
-366.67921590805054
 30
0.0
  0
LINE
  5
51
100
AcDbEntity
  8
layer0
 62
256
370
-1
 48
1.0
  6
BYLAYER
100
AcDbLine
 10
-1095.67626953125
 20
-366.67921590805054
 30
0.0
 11
-1095.7921142578125
 21
-365.99977254867554
 31
0.0
  0
SPLINE
  5
52
100
AcDbEntity
  8
layer0
 62
256
370
-1
 48
1.0
  6
BYLAYER
100
AcDbSpline
 70
8
 71
3
 72
116
 73
112
 74
0
 40
0.0
 40
0.0
 40
0.0
 40
0.0
 40
0.0357142873108387
 40
0.0357142873108387
 40
0.0357142873108387
 40
0.0357142873108387
 40
0.0714285746216774
 40
0.0714285746216774
 40
0.0714285746216774
 40
0.0714285746216774
 40
0.1071428619325161
 40
0.1071428619325161
 40
0.1071428619325161
 40
0.1071428619325161
 40
0.1428571492433548
 40
0.1428571492433548
 40
0.1428571492433548
 40
0.1428571492433548
 40
0.1785714365541935
 40
0.1785714365541935
 40
0.1785714365541935
 40
0.1785714365541935
 40
0.2142857238650322
 40
0.2142857238650322
 40
0.2142857238650322
 40
0.2142857238650322
 40
0.2500000111758709
 40
0.2500000111758709
 40
0.2500000111758709
 40
0.2500000111758709
 40
0.2857142984867096
 40
0.2857142984867096
 40
0.2857142984867096
 40
0.2857142984867096
 40
0.3214285857975483
 40
0.3214285857975483
 40
0.3214285857975483
 40
0.3214285857975483
 40
0.357142873108387
 40
0.357142873108387
 40
0.357142873108387
 40
0.357142873108387
 40
0.3928571604192257
 40
0.3928571604192257
 40
0.3928571604192257
 40
0.3928571604192257
 40
0.4285714477300644
 40
0.4285714477300644
 40
0.4285714477300644
 40
0.4285714477300644
 40
0.4642857350409031
 40
0.4642857350409031
 40
0.4642857350409031
 40
0.4642857350409031
 40
0.5000000223517418
 40
0.5000000223517418
 40
0.5000000223517418
 40
0.5000000223517418
 40
0.5357143096625805
 40
0.5357143096625805
 40
0.5357143096625805
 40
0.5357143096625805
 40
0.5714285969734192
 40
0.5714285969734192
 40
0.5714285969734192
 40
0.5714285969734192
 40
0.6071428842842579
 40
0.6071428842842579
 40
0.6071428842842579
 40
0.6071428842842579
 40
0.6428571715950966
 40
0.6428571715950966
 40
0.6428571715950966
 40
0.6428571715950966
 40
0.6785714589059353
 40
0.6785714589059353
 40
0.6785714589059353
 40
0.6785714589059353
 40
0.714285746216774
 40
0.714285746216774
 40
0.714285746216774
 40
0.714285746216774
 40
0.7500000335276127
 40
0.7500000335276127
 40
0.7500000335276127
 40
0.7500000335276127
 40
0.7857143208384514
 40
0.7857143208384514
 40
0.7857143208384514
 40
0.7857143208384514
 40
0.8214286081492901
 40
0.8214286081492901
 40
0.8214286081492901
 40
0.8214286081492901
 40
0.8571428954601288
 40
0.8571428954601288
 40
0.8571428954601288
 40
0.8571428954601288
 40
0.8928571827709675
 40
0.8928571827709675
 40
0.8928571827709675
 40
0.8928571827709675
 40
0.9285714700818062
 40
0.9285714700818062
 40
0.9285714700818062
 40
0.9285714700818062
 40
0.9642857573926449
 40
0.9642857573926449
 40
0.9642857573926449
 40
0.9642857573926449
 40
1.0
 40
1.0
 40
1.0
 40
1.0
 10
-1095.7921142578125
 20
-365.99977254867554
 30
0.0
 10
-1098.175537109375
 20
-351.63130331039429
 30
0.0
 10
-1100.4971923828125
 20
-337.17176961898804
 30
0.0
 10
-1102.6937255859375
 20
-322.77308797836304
 30
0.0
 10
-1102.6937255859375
 20
-322.77308797836304
 30
0.0
 10
-1102.748291015625
 20
-322.41566610336304
 30
0.0
 10
-1102.8060302734375
 20
-322.01167440414429
 30
0.0
 10
-1102.85400390625
 20
-321.65193319320679
 30
0.0
 10
-1102.85400390625
 20
-321.65193319320679
 30
0.0
 10
-1103.138916015625
 20
-319.51905965805054
 30
0.0
 10
-1103.4344482421875
 20
-317.38350057601929
 30
0.0
 10
-1103.6776123046875
 20
-315.24550008773804
 30
0.0
 10
-1103.6776123046875
 20
-315.24550008773804
 30
0.0
 10
-1103.9400634765625
 20
-312.93849325180054
 30
0.0
 10
-1104.1435546875
 20
-310.62184286117554
 30
0.0
 10
-1104.3624267578125
 20
-308.31025838851929
 30
0.0
 10
-1104.3624267578125
 20
-308.31025838851929
 30
0.0
 10
-1104.396484375
 20
-307.95155477523804
 30
0.0
 10
-1104.4324951171875
 20
-307.53938436508179
 30
0.0
 10
-1104.461181640625
 20
-307.18190145492554
 30
0.0
 10
-1104.461181640625
 20
-307.18190145492554
 30
0.0
 10
-1106.103271484375
 20
-286.68525838851929
 30
0.0
 10
-1106.7020263671875
 20
-266.15492391586304
 30
0.0
 10
-1108.236083984375
 20
-245.65876913070679
 30
0.0
 10
-1108.236083984375
 20
-245.65876913070679
 30
0.0
 10
-1109.73681640625
 20
-225.60719442367554
 30
0.0
 10
-1111.9578857421875
 20
-205.61128377914429
 30
0.0
 10
-1113.47509765625
 20
-185.55909872055054
 30
0.0
 10
-1113.47509765625
 20
-185.55909872055054
 30
0.0
 10
-1113.5052490234375
 20
-185.16023397445679
 30
0.0
 10
-1113.529052734375
 20
-184.88758993148804
 30
0.0
 10
-1113.557373046875
 20
-184.49800252914429
 30
0.0
 10
-1113.557373046875
 20
-184.49800252914429
 30
0.0
 10
-1113.7979736328125
 20
-181.17762899398804
 30
0.0
 10
-1113.9111328125
 20
-177.83461141586304
 30
0.0
 10
-1113.87646484375
 20
-174.50587606430054
 30
0.0
 10
-1113.87646484375
 20
-174.50587606430054
 30
0.0
 10
-1113.8580322265625
 20
-172.74537801742554
 30
0.0
 10
-1113.7874755859375
 20
-170.98115682601929
 30
0.0
 10
-1113.6644287109375
 20
-169.22480916976929
 30
0.0
 10
-1113.6644287109375
 20
-169.22480916976929
 30
0.0
 10
-1113.6485595703125
 20
-168.99812459945679
 30
0.0
 10
-1113.5848388671875
 20
-168.19911336898804
 30
0.0
 10
-1113.564453125
 20
-167.97218465805054
 30
0.0
 10
-1113.564453125
 20
-167.97218465805054
 30
0.0
 10
-1113.4541015625
 20
-166.73982381820679
 30
0.0
 10
-1113.31787109375
 20
-165.50526571273804
 30
0.0
 10
-1113.149169921875
 20
-164.27949666976929
 30
0.0
 10
-1113.149169921875
 20
-164.27949666976929
 30
0.0
 10
-1113.118408203125
 20
-164.05549764633179
 30
0.0
 10
-1113.0
 20
-163.26100301742554
 30
0.0
 10
-1112.964111328125
 20
-163.03822469711304
 30
0.0
 10
-1112.964111328125
 20
-163.03822469711304
 30
0.0
 10
-1112.75634765625
 20
-161.74824666976929
 30
0.0
 10
-1112.5115966796875
 20
-160.45802450180054
 30
0.0
 10
-1112.22802734375
 20
-159.18257284164429
 30
0.0
 10
-1112.22802734375
 20
-159.18257284164429
 30
0.0
 10
-1112.1771240234375
 20
-158.95362997055054
 30
0.0
 10
-1111.972900390625
 20
-158.08461141586304
 30
0.0
 10
-1111.9163818359375
 20
-157.85743856430054
 30
0.0
 10
-1111.9163818359375
 20
-157.85743856430054
 30
0.0
 10
-1111.58447265625
 20
-156.52278280258179
 30
0.0
 10
-1111.20703125
 20
-155.19160604476929
 30
0.0
 10
-1110.784423828125
 20
-153.88276815414429
 30
0.0
 10
-1110.784423828125
 20
-153.88276815414429
 30
0.0
 10
-1110.2447509765625
 20
-152.21095418930054
 30
0.0
 10
-1109.6204833984375
 20
-150.55433797836304
 30
0.0
 10
-1108.9237060546875
 20
-148.94148397445679
 30
0.0
 10
-1108.9237060546875
 20
-148.94148397445679
 30
0.0
 10
-1108.83642578125
 20
-148.73933553695679
 30
0.0
 10
-1108.5032958984375
 20
-147.99983358383179
 30
0.0
 10
-1108.409423828125
 20
-147.79988241195679
 30
0.0
 10
-1108.409423828125
 20
-147.79988241195679
 30
0.0
 10
-1107.8804931640625
 20
-146.67390584945679
 30
0.0
 10
-1107.30224609375
 20
-145.55952596664429
 30
0.0
 10
-1106.6859130859375
 20
-144.47895956039429
 30
0.0
 10
-1106.6859130859375
 20
-144.47895956039429
 30
0.0
 10
-1106.577880859375
 20
-144.28938436508179
 30
0.0
 10
-1106.1690673828125
 20
-143.59919881820679
 30
0.0
 10
-1106.05419921875
 20
-143.41261434555054
 30
0.0
 10
-1106.05419921875
 20
-143.41261434555054
 30
0.0
 10
-1105.4332275390625
 20
-142.40443563461304
 30
0.0
 10
-1104.762939453125
 20
-141.41102743148804
 30
0.0
 10
-1104.0498046875
 20
-140.46559286117554
 30
0.0
 10
-1104.0498046875
 20
-140.46559286117554
 30
0.0
 10
-1103.935302734375
 20
-140.31367635726929
 30
0.0
 10
-1103.481201171875
 20
-139.73585653305054
 30
0.0
 10
-1103.359619140625
 20
-139.58754110336304
 30
0.0
 10
-1103.359619140625
 20
-139.58754110336304
 30
0.0
 10
-1102.696533203125
 20
-138.77858114242554
 30
0.0
 10
-1101.980712890625
 20
-137.99263143539429
 30
0.0
 10
-1101.234619140625
 20
-137.25941610336304
 30
0.0
 10
-1101.234619140625
 20
-137.25941610336304
 30
0.0
 10
-1101.1090087890625
 20
-137.13594198226929
 30
0.0
 10
-1100.6492919921875
 20
-136.70424032211304
 30
0.0
 10
-1100.5172119140625
 20
-136.58571004867554
 30
0.0
 10
-1100.5172119140625
 20
-136.58571004867554
 30
0.0
 10
-1099.84521484375
 20
-135.98268270492554
 30
0.0
 10
-1099.12890625
 20
-135.40217733383179
 30
0.0
 10
-1098.392333984375
 20
-134.87971639633179
 30
0.0
 10
-1098.392333984375
 20
-134.87971639633179
 30
0.0
 10
-1098.273193359375
 20
-134.79524374008179
 30
0.0
 10
-1097.7972412109375
 20
-134.47548055648804
 30
0.0
 10
-1097.6734619140625
 20
-134.39705038070679
 30
0.0
 10
-1097.6734619140625
 20
-134.39705038070679
 30
0.0
 10
-1096.6280517578125
 20
-133.73469686508179
 30
0.0
 10
-1095.50146484375
 20
-133.16945028305054
 30
0.0
 10
-1094.3702392578125
 20
-132.67030477523804
 30
0.0
 10
-1094.3702392578125
 20
-132.67030477523804
 30
0.0
 10
-1093.557373046875
 20
-132.31160116195679
 30
0.0
 10
-1092.7177734375
 20
-131.96785116195679
 30
0.0
 10
-1091.8682861328125
 20
-131.70619344711304
 30
0.0
  0
LINE
  5
53
100
AcDbEntity
  8
layer0
 62
256
370
-1
 48
1.0
  6
BYLAYER
100
AcDbLine
 10
-1091.8682861328125
 20
-131.70619344711304
 30
0.0
 11
-1091.236572265625
 21
-131.52644491195679
 31
0.0
  0
SPLINE
  5
54
100
AcDbEntity
  8
layer0
 62
256
370
-1
 48
1.0
  6
BYLAYER
100
AcDbSpline
 70
8
 71
3
 72
44
 73
40
 74
0
 40
0.0
 40
0.0
 40
0.0
 40
0.0
 40
0.1000000014901161
 40
0.1000000014901161
 40
0.1000000014901161
 40
0.1000000014901161
 40
0.2000000029802322
 40
0.2000000029802322
 40
0.2000000029802322
 40
0.2000000029802322
 40
0.3000000044703484
 40
0.3000000044703484
 40
0.3000000044703484
 40
0.3000000044703484
 40
0.4000000059604645
 40
0.4000000059604645
 40
0.4000000059604645
 40
0.4000000059604645
 40
0.5000000074505806
 40
0.5000000074505806
 40
0.5000000074505806
 40
0.5000000074505806
 40
0.6000000089406967
 40
0.6000000089406967
 40
0.6000000089406967
 40
0.6000000089406967
 40
0.7000000104308128
 40
0.7000000104308128
 40
0.7000000104308128
 40
0.7000000104308128
 40
0.800000011920929
 40
0.800000011920929
 40
0.800000011920929
 40
0.800000011920929
 40
0.9000000134110451
 40
0.9000000134110451
 40
0.9000000134110451
 40
0.9000000134110451
 40
1.0
 40
1.0
 40
1.0
 40
1.0
 10
-1091.236572265625
 20
-131.52644491195679
 30
0.0
 10
-1089.766357421875
 20
-131.13636922836304
 30
0.0
 10
-1088.25634765625
 20
-130.83931112289429
 30
0.0
 10
-1086.740966796875
 20
-130.69984579086304
 30
0.0
 10
-1086.740966796875
 20
-130.69984579086304
 30
0.0
 10
-1085.2630615234375
 20
-130.56385946273804
 30
0.0
 10
-1083.778076171875
 20
-130.45369100570679
 30
0.0
 10
-1082.2978515625
 20
-130.34370565414429
 30
0.0
 10
-1082.2978515625
 20
-130.34370565414429
 30
0.0
 10
-1062.7384033203125
 20
-128.89033651351929
 30
0.0
 10
-1042.869873046875
 20
-131.85530233383179
 30
0.0
 10
-1023.3721923828125
 20
-129.38844442367554
 30
0.0
 10
-1023.3721923828125
 20
-129.38844442367554
 30
0.0
 10
-1023.1925048828125
 20
-129.36567831039429
 30
0.0
 10
-1022.431884765625
 20
-129.25843954086304
 30
0.0
 10
-1022.2501220703125
 20
-129.23018026351929
 30
0.0
 10
-1022.2501220703125
 20
-129.23018026351929
 30
0.0
 10
-1021.2882080078125
 20
-129.08052206039429
 30
0.0
 10
-1020.31982421875
 20
-128.89784383773804
 30
0.0
 10
-1019.37451171875
 20
-128.66438436508179
 30
0.0
 10
-1019.37451171875
 20
-128.66438436508179
 30
0.0
 10
-1019.2440185546875
 20
-128.63215780258179
 30
0.0
 10
-1018.67041015625
 20
-128.47804403305054
 30
0.0
 10
-1018.539306640625
 20
-128.43940877914429
 30
0.0
 10
-1018.539306640625
 20
-128.43940877914429
 30
0.0
 10
-1017.1717529296875
 20
-128.03584432601929
 30
0.0
 10
-1015.6009521484375
 20
-127.47670125961304
 30
0.0
 10
-1014.3800048828125
 20
-126.73164510726929
 30
0.0
 10
-1014.3800048828125
 20
-126.73164510726929
 30
0.0
 10
-1013.5333251953125
 20
-126.21498250961304
 30
0.0
 10
-1012.4378662109375
 20
-125.47926473617554
 30
0.0
 10
-1011.759033203125
 20
-124.75843954086304
 30
0.0
 10
-1011.759033203125
 20
-124.75843954086304
 30
0.0
 10
-1011.0135498046875
 20
-123.96693563461304
 30
0.0
 10
-1010.1981201171875
 20
-122.62379598617554
 30
0.0
 10
-1009.7017822265625
 20
-121.65492391586304
 30
0.0
 10
-1009.7017822265625
 20
-121.65492391586304
 30
0.0
 10
-1008.353271484375
 20
-119.02272176742554
 30
0.0
 10
-1007.7596435546875
 20
-115.67524862289429
 30
0.0
 10
-1007.5321044921875
 20
-112.75428915023804
 30
0.0
  0
LWPOLYLINE
  5
55
100
AcDbEntity
  8
layer0
 62
256
370
-1
 48
1.0
  6
BYLAYER
100
AcDbPolyline
 90
3
 70
0
 10
-1007.5321044921875
 20
-112.75428915023804
 10
-1007.5008544921875
 20
-112.24250936508179
 10
-1007.484619140625
 20
-111.79768514633179
  0
SPLINE
  5
56
100
AcDbEntity
  8
layer0
 62
256
370
-1
 48
1.0
  6
BYLAYER
100
AcDbSpline
 70
8
 71
3
 72
8
 73
4
 74
0
 40
0.0
 40
0.0
 40
0.0
 40
0.0
 40
1.0
 40
1.0
 40
1.0
 40
1.0
 10
-1007.484619140625
 20
-111.79768514633179
 30
0.0
 10
-1007.4073486328125
 20
-110.27308797836304
 30
0.0
 10
-1007.25390625
 20
-108.75154256820679
 30
0.0
 10
-1007.2081298828125
 20
-107.22548055648804
 30
0.0
  0
LINE
  5
57
100
AcDbEntity
  8
layer0
 62
256
370
-1
 48
1.0
  6
BYLAYER
100
AcDbLine
 10
-1007.2081298828125
 20
-107.22548055648804
 30
0.0
 11
-1007.197509765625
 21
-106.72590780258179
 31
0.0
  0
SPLINE
  5
58
100
AcDbEntity
  8
layer0
 62
256
370
-1
 48
1.0
  6
BYLAYER
100
AcDbSpline
 70
8
 71
3
 72
16
 73
12
 74
0
 40
0.0
 40
0.0
 40
0.0
 40
0.0
 40
0.3333333432674408
 40
0.3333333432674408
 40
0.3333333432674408
 40
0.3333333432674408
 40
0.6666666865348816
 40
0.6666666865348816
 40
0.6666666865348816
 40
0.6666666865348816
 40
1.0
 40
1.0
 40
1.0
 40
1.0
 10
-1007.197509765625
 20
-106.72590780258179
 30
0.0
 10
-1007.17138671875
 20
-104.89753866195679
 30
0.0
 10
-1007.1953125
 20
-103.06361532211304
 30
0.0
 10
-1007.210693359375
 20
-101.23506307601929
 30
0.0
 10
-1007.210693359375
 20
-101.23506307601929
 30
0.0
 10
-1007.2137451171875
 20
-100.87245321273804
 30
0.0
 10
-1007.22265625
 20
-100.46394491195679
 30
0.0
 10
-1007.2353515625
 20
-100.10298299789429
 30
0.0
 10
-1007.2353515625
 20
-100.10298299789429
 30
0.0
 10
-1007.998046875
 20
-78.548356533050537
 30
0.0
 10
-1009.23681640625
 20
-57.028214931488037
 30
0.0
 10
-1009.5802001953125
 20
-35.457047939300537
 30
0.0
  0
LWPOLYLINE
  5
59
100
AcDbEntity
  8
layer0
 62
256
370
-1
 48
1.0
  6
BYLAYER
100
AcDbPolyline
 90
3
 70
0
 10
-1009.5802001953125
 20
-35.457047939300537
 10
-1009.59326171875
 20
-35.036698818206787
 10
-1009.5963134765625
 20
-34.528642177581787
  0
SPLINE
  5
5A
100
AcDbEntity
  8
layer0
 62
256
370
-1
 48
1.0
  6
BYLAYER
100
AcDbSpline
 70
8
 71
3
 72
20
 73
16
 74
0
 40
0.0
 40
0.0
 40
0.0
 40
0.0
 40
0.25
 40
0.25
 40
0.25
 40
0.25
 40
0.5
 40
0.5
 40
0.5
 40
0.5
 40
0.75
 40
0.75
 40
0.75
 40
0.75
 40
1.0
 40
1.0
 40
1.0
 40
1.0
 10
-1009.5963134765625
 20
-34.528642177581787
 30
0.0
 10
-1009.5693359375
 20
-31.922441005706787
 30
0.0
 10
-1009.3209228515625
 20
-29.230546474456787
 30
0.0
 10
-1008.8336181640625
 20
-26.670732021331787
 30
0.0
 10
-1008.8336181640625
 20
-26.670732021331787
 30
0.0
 10
-1007.770751953125
 20
-21.087419033050537
 30
0.0
 10
-1004.8712158203125
 20
-15.812089443206787
 30
0.0
 10
-1000.56396484375
 20
-12.083573818206787
 30
0.0
 10
-1000.56396484375
 20
-12.083573818206787
 30
0.0
 10
-998.0498046875
 20
-9.9071822166442871
 30
0.0
 10
-994.953125
 20
-8.2968306541442871
 30
0.0
 10
-991.794677734375
 20
-7.2895674705505371
 30
0.0
 10
-991.794677734375
 20
-7.2895674705505371
 30
0.0
 10
-991.0654296875
 20
-7.0570235252380371
 30
0.0
 10
-990.31787109375
 20
-6.8553023338317871
 30
0.0
 10
-989.5721435546875
 20
-6.6834883689880371
 30
0.0
  0
LINE
  5
5B
100
AcDbEntity
  8
layer0
 62
256
370
-1
 48
1.0
  6
BYLAYER
100
AcDbLine
 10
-989.5721435546875
 20
-6.6834883689880371
 30
0.0
 11
-989.15283203125
 21
-6.5949263572692871
 31
0.0
  0
SPLINE
  5
5C
100
AcDbEntity
  8
layer0
 62
256
370
-1
 48
1.0
  6
BYLAYER
100
AcDbSpline
 70
8
 71
3
 72
44
 73
40
 74
0
 40
0.0
 40
0.0
 40
0.0
 40
0.0
 40
0.1000000014901161
 40
0.1000000014901161
 40
0.1000000014901161
 40
0.1000000014901161
 40
0.2000000029802322
 40
0.2000000029802322
 40
0.2000000029802322
 40
0.2000000029802322
 40
0.3000000044703484
 40
0.3000000044703484
 40
0.3000000044703484
 40
0.3000000044703484
 40
0.4000000059604645
 40
0.4000000059604645
 40
0.4000000059604645
 40
0.4000000059604645
 40
0.5000000074505806
 40
0.5000000074505806
 40
0.5000000074505806
 40
0.5000000074505806
 40
0.6000000089406967
 40
0.6000000089406967
 40
0.6000000089406967
 40
0.6000000089406967
 40
0.7000000104308128
 40
0.7000000104308128
 40
0.7000000104308128
 40
0.7000000104308128
 40
0.800000011920929
 40
0.800000011920929
 40
0.800000011920929
 40
0.800000011920929
 40
0.9000000134110451
 40
0.9000000134110451
 40
0.9000000134110451
 40
0.9000000134110451
 40
1.0
 40
1.0
 40
1.0
 40
1.0
 10
-989.15283203125
 20
-6.5949263572692871
 30
0.0
 10
-987.6466064453125
 20
-6.3006758689880371
 30
0.0
 10
-986.11083984375
 20
-6.1094527244567871
 30
0.0
 10
-984.5863037109375
 20
-5.9419112205505371
 30
0.0
 10
-984.5863037109375
 20
-5.9419112205505371
 30
0.0
 10
-984.1484375
 20
-5.8938155174255371
 30
0.0
 10
-983.4732666015625
 20
-5.8283247947692871
 30
0.0
 10
-983.0364990234375
 20
-5.7907271385192871
 30
0.0
 10
-983.0364990234375
 20
-5.7907271385192871
 30
0.0
 10
-981.98779296875
 20
-5.7004561424255371
 30
0.0
 10
-980.937255859375
 20
-5.6236739158630371
 30
0.0
 10
-979.885986328125
 20
-5.5710616111755371
 30
0.0
 10
-979.885986328125
 20
-5.5710616111755371
 30
0.0
 10
-979.6689453125
 20
-5.5601973533630371
 30
0.0
 10
-978.64599609375
 20
-5.5174117088317871
 30
0.0
 10
-978.4254150390625
 20
-5.5093550682067871
 30
0.0
 10
-978.4254150390625
 20
-5.5093550682067871
 30
0.0
 10
-977.04443359375
 20
-5.4590620994567871
 30
0.0
 10
-975.6607666015625
 20
-5.4275069236755371
 30
0.0
 10
-974.27880859375
 20
-5.4131636619567871
 30
0.0
 10
-974.27880859375
 20
-5.4131636619567871
 30
0.0
 10
-973.900634765625
 20
-5.4092574119567871
 30
0.0
 10
-973.6005859375
 20
-5.4093184471130371
 30
0.0
 10
-973.216064453125
 20
-5.4062666893005371
 30
0.0
 10
-973.216064453125
 20
-5.4062666893005371
 30
0.0
 10
-921.89501953125
 20
-5.0016646385192871
 30
0.0
 10
-870.553955078125
 20
-5.2599654197692871
 30
0.0
 10
-819.23486328125
 20
-5.7569746971130371
 30
0.0
 10
-819.23486328125
 20
-5.7569746971130371
 30
0.0
 10
-819.032470703125
 20
-5.7589278221130371
 30
0.0
 10
-818.687255859375
 20
-5.7612471580505371
 30
0.0
 10
-818.48486328125
 20
-5.7617964744567871
 30
0.0
 10
-818.48486328125
 20
-5.7617964744567871
 30
0.0
 10
-816.85986328125
 20
-5.7664351463317871
 30
0.0
 10
-815.235107421875
 20
-5.7341475486755371
 30
0.0
 10
-813.6102294921875
 20
-5.7136397361755371
 30
0.0
 10
-813.6102294921875
 20
-5.7136397361755371
 30
0.0
 10
-785.0675048828125
 20
-5.3532271385192871
 30
0.0
 10
-756.531982421875
 20
-5.2056441307067871
 30
0.0
 10
-727.9820556640625
 20
-5.5529341697692871
 30
0.0
  0
LINE
  5
5D
100
AcDbEntity
  8
layer0
 62
256
370
-1
 48
1.0
  6
BYLAYER
100
AcDbLine
 10
-727.9820556640625
 20
-5.5529341697692871
 30
0.0
 11
-727.2928466796875
 21
-5.5639204978942871
 31
0.0
  0
SPLINE
  5
5E
100
AcDbEntity
  8
layer0
 62
256
370
-1
 48
1.0
  6
BYLAYER
100
AcDbSpline
 70
8
 71
3
 72
24
 73
20
 74
0
 40
0.0
 40
0.0
 40
0.0
 40
0.0
 40
0.2000000029802322
 40
0.2000000029802322
 40
0.2000000029802322
 40
0.2000000029802322
 40
0.4000000059604645
 40
0.4000000059604645
 40
0.4000000059604645
 40
0.4000000059604645
 40
0.6000000089406967
 40
0.6000000089406967
 40
0.6000000089406967
 40
0.6000000089406967
 40
0.800000011920929
 40
0.800000011920929
 40
0.800000011920929
 40
0.800000011920929
 40
1.0
 40
1.0
 40
1.0
 40
1.0
 10
-727.2928466796875
 20
-5.5639204978942871
 30
0.0
 10
-726.9296875
 20
-5.5720992088317871
 30
0.0
 10
-726.525390625
 20
-5.5869307518005371
 30
0.0
 10
-726.1612548828125
 20
-5.6054244041442871
 30
0.0
 10
-726.1612548828125
 20
-5.6054244041442871
 30
0.0
 10
-724.5157470703125
 20
-5.6889204978942871
 30
0.0
 10
-722.86669921875
 20
-5.7701582908630371
 30
0.0
 10
-721.22265625
 20
-5.8775191307067871
 30
0.0
 10
-721.22265625
 20
-5.8775191307067871
 30
0.0
 10
-718.5234375
 20
-6.0538496971130371
 30
0.0
 10
-715.7669677734375
 20
-6.6013960838317871
 30
0.0
 10
-713.203857421875
 20
-7.4647994041442871
 30
0.0
 10
-713.203857421875
 20
-7.4647994041442871
 30
0.0
 10
-711.675048828125
 20
-7.9798140525817871
 30
0.0
 10
-710.1788330078125
 20
-8.6447920799255371
 30
0.0
 10
-708.7762451171875
 20
-9.4420943260192871
 30
0.0
 10
-708.7762451171875
 20
-9.4420943260192871
 30
0.0
 10
-707.24462890625
 20
-10.312699794769287
 30
0.0
 10
-705.799072265625
 20
-11.353288173675537
 30
0.0
 10
-704.4581298828125
 20
-12.495316982269287
 30
0.0
  0
LWPOLYLINE
  5
5F
100
AcDbEntity
  8
layer0
 62
256
370
-1
 48
1.0
  6
BYLAYER
100
AcDbPolyline
 90
3
 70
0
 10
-704.4581298828125
 20
-12.495316982269287
 10
-704.2052001953125
 20
-12.720475673675537
 10
-703.9281005859375
 20
-12.969010829925537
  0
SPLINE
  5
60
100
AcDbEntity
  8
layer0
 62
256
370
-1
 48
1.0
  6
BYLAYER
100
AcDbSpline
 70
8
 71
3
 72
108
 73
104
 74
0
 40
0.0
 40
0.0
 40
0.0
 40
0.0
 40
0.0384615398943424
 40
0.0384615398943424
 40
0.0384615398943424
 40
0.0384615398943424
 40
0.0769230797886848
 40
0.0769230797886848
 40
0.0769230797886848
 40
0.0769230797886848
 40
0.1153846196830273
 40
0.1153846196830273
 40
0.1153846196830273
 40
0.1153846196830273
 40
0.1538461595773697
 40
0.1538461595773697
 40
0.1538461595773697
 40
0.1538461595773697
 40
0.1923076994717121
 40
0.1923076994717121
 40
0.1923076994717121
 40
0.1923076994717121
 40
0.2307692393660545
 40
0.2307692393660545
 40
0.2307692393660545
 40
0.2307692393660545
 40
0.269230779260397
 40
0.269230779260397
 40
0.269230779260397
 40
0.269230779260397
 40
0.3076923191547394
 40
0.3076923191547394
 40
0.3076923191547394
 40
0.3076923191547394
 40
0.3461538590490818
 40
0.3461538590490818
 40
0.3461538590490818
 40
0.3461538590490818
 40
0.3846153989434242
 40
0.3846153989434242
 40
0.3846153989434242
 40
0.3846153989434242
 40
0.4230769388377667
 40
0.4230769388377667
 40
0.4230769388377667
 40
0.4230769388377667
 40
0.4615384787321091
 40
0.4615384787321091
 40
0.4615384787321091
 40
0.4615384787321091
 40
0.5000000186264515
 40
0.5000000186264515
 40
0.5000000186264515
 40
0.5000000186264515
 40
0.5384615585207939
 40
0.5384615585207939
 40
0.5384615585207939
 40
0.5384615585207939
 40
0.5769230984151363
 40
0.5769230984151363
 40
0.5769230984151363
 40
0.5769230984151363
 40
0.6153846383094788
 40
0.6153846383094788
 40
0.6153846383094788
 40
0.6153846383094788
 40
0.6538461782038212
 40
0.6538461782038212
 40
0.6538461782038212
 40
0.6538461782038212
 40
0.6923077180981636
 40
0.6923077180981636
 40
0.6923077180981636
 40
0.6923077180981636
 40
0.730769257992506
 40
0.730769257992506
 40
0.730769257992506
 40
0.730769257992506
 40
0.7692307978868485
 40
0.7692307978868485
 40
0.7692307978868485
 40
0.7692307978868485
 40
0.8076923377811909
 40
0.8076923377811909
 40
0.8076923377811909
 40
0.8076923377811909
 40
0.8461538776755333
 40
0.8461538776755333
 40
0.8461538776755333
 40
0.8461538776755333
 40
0.8846154175698757
 40
0.8846154175698757
 40
0.8846154175698757
 40
0.8846154175698757
 40
0.9230769574642181
 40
0.9230769574642181
 40
0.9230769574642181
 40
0.9230769574642181
 40
0.9615384973585606
 40
0.9615384973585606
 40
0.9615384973585606
 40
0.9615384973585606
 40
1.0
 40
1.0
 40
1.0
 40
1.0
 10
-703.9281005859375
 20
-12.969010829925537
 30
0.0
 10
-703.34130859375
 20
-13.508866786956787
 30
0.0
 10
-702.7738037109375
 20
-14.078752040863037
 30
0.0
 10
-702.2310791015625
 20
-14.662736415863037
 30
0.0
 10
-702.2310791015625
 20
-14.662736415863037
 30
0.0
 10
-701.44677734375
 20
-15.506608486175537
 30
0.0
 10
-700.7059326171875
 20
-16.400590419769287
 30
0.0
 10
-700.0142822265625
 20
-17.321916103363037
 30
0.0
 10
-700.0142822265625
 20
-17.321916103363037
 30
0.0
 10
-699.925048828125
 20
-17.440812587738037
 30
0.0
 10
-699.591064453125
 20
-17.899674892425537
 30
0.0
 10
-699.50537109375
 20
-18.020951747894287
 30
0.0
 10
-699.50537109375
 20
-18.020951747894287
 30
0.0
 10
-699.006591796875
 20
-18.727006435394287
 30
0.0
 10
-698.530517578125
 20
-19.455461025238037
 30
0.0
 10
-698.0802001953125
 20
-20.193315029144287
 30
0.0
 10
-698.0802001953125
 20
-20.193315029144287
 30
0.0
 10
-697.9984130859375
 20
-20.327348232269287
 30
0.0
 10
-697.716796875
 20
-20.802934169769287
 30
0.0
 10
-697.638671875
 20
-20.938920497894287
 30
0.0
 10
-697.638671875
 20
-20.938920497894287
 30
0.0
 10
-697.2099609375
 20
-21.684403896331787
 30
0.0
 10
-696.801025390625
 20
-22.446549892425537
 30
0.0
 10
-696.417724609375
 20
-23.216325283050537
 30
0.0
 10
-696.417724609375
 20
-23.216325283050537
 30
0.0
 10
-696.34814453125
 20
-23.356095790863037
 30
0.0
 10
-696.104248046875
 20
-23.861711025238037
 30
0.0
 10
-696.0384521484375
 20
-24.002641201019287
 30
0.0
 10
-696.0384521484375
 20
-24.002641201019287
 30
0.0
 10
-694.5562744140625
 20
-27.177873134613037
 30
0.0
 10
-693.4127197265625
 20
-30.528214931488037
 30
0.0
 10
-692.626708984375
 20
-33.942704677581787
 30
0.0
 10
-692.626708984375
 20
-33.942704677581787
 30
0.0
 10
-692.5908203125
 20
-34.098527431488037
 30
0.0
 10
-692.4718017578125
 20
-34.647050380706787
 30
0.0
 10
-692.4398193359375
 20
-34.803483486175537
 30
0.0
 10
-692.4398193359375
 20
-34.803483486175537
 30
0.0
 10
-692.1907958984375
 20
-36.022660732269287
 30
0.0
 10
-691.986572265625
 20
-37.255815029144287
 30
0.0
 10
-691.8280029296875
 20
-38.489884853363037
 30
0.0
 10
-691.8280029296875
 20
-38.489884853363037
 30
0.0
 10
-691.7886962890625
 20
-38.796403408050537
 30
0.0
 10
-691.737548828125
 20
-39.245378017425537
 30
0.0
 10
-691.7052001953125
 20
-39.551042079925537
 30
0.0
 10
-691.7052001953125
 20
-39.551042079925537
 30
0.0
 10
-691.622314453125
 20
-40.333940029144287
 30
0.0
 10
-691.544921875
 20
-41.117692470550537
 30
0.0
 10
-691.47998046875
 20
-41.902299404144287
 30
0.0
 10
-691.47998046875
 20
-41.902299404144287
 30
0.0
 10
-691.3433837890625
 20
-43.553178310394287
 30
0.0
 10
-691.2406005859375
 20
-45.209245204925537
 30
0.0
 10
-691.185302734375
 20
-46.865006923675537
 30
0.0
 10
-691.185302734375
 20
-46.865006923675537
 30
0.0
 10
-690.5870361328125
 20
-64.760087490081787
 30
0.0
 10
-689.71142578125
 20
-82.577714443206787
 30
0.0
 10
-689.7646484375
 20
-100.48359823226929
 30
0.0
 10
-689.7646484375
 20
-100.48359823226929
 30
0.0
 10
-689.7666015625
 20
-101.10878133773804
 30
0.0
 10
-689.7762451171875
 20
-101.73378133773804
 30
0.0
 10
-689.764404296875
 20
-102.35896444320679
 30
0.0
 10
-689.764404296875
 20
-102.35896444320679
 30
0.0
 10
-689.7548828125
 20
-102.85878133773804
 30
0.0
 10
-689.7310791015625
 20
-103.35878133773804
 30
0.0
 10
-689.6995849609375
 20
-103.85768270492554
 30
0.0
 10
-689.6995849609375
 20
-103.85768270492554
 30
0.0
 10
-689.6898193359375
 20
-104.01204061508179
 30
0.0
 10
-689.65966796875
 20
-104.41340780258179
 30
0.0
 10
-689.6434326171875
 20
-104.57502889633179
 30
0.0
 10
-689.6434326171875
 20
-104.57502889633179
 30
0.0
 10
-689.5836181640625
 20
-105.17427206039429
 30
0.0
 10
-689.49658203125
 20
-105.77150106430054
 30
0.0
 10
-689.392822265625
 20
-106.36464071273804
 30
0.0
 10
-689.392822265625
 20
-106.36464071273804
 30
0.0
 10
-689.33154296875
 20
-106.71540975570679
 30
0.0
 10
-689.2216796875
 20
-107.26814413070679
 30
0.0
 10
-689.1363525390625
 20
-107.61781454086304
 30
0.0
 10
-689.1363525390625
 20
-107.61781454086304
 30
0.0
 10
-688.9722900390625
 20
-108.29023885726929
 30
0.0
 10
-688.768310546875
 20
-108.96992635726929
 30
0.0
 10
-688.50927734375
 20
-109.61238241195679
 30
0.0
 10
-688.50927734375
 20
-109.61238241195679
 30
0.0
 10
-687.9971923828125
 20
-110.88276815414429
 30
0.0
 10
-687.254150390625
 20
-112.12196493148804
 30
0.0
 10
-686.3909912109375
 20
-113.18446493148804
 30
0.0
 10
-686.3909912109375
 20
-113.18446493148804
 30
0.0
 10
-686.00830078125
 20
-113.65553426742554
 30
0.0
 10
-685.5797119140625
 20
-114.10310506820679
 30
0.0
 10
-685.1365966796875
 20
-114.51753377914429
 30
0.0
 10
-685.1365966796875
 20
-114.51753377914429
 30
0.0
 10
-684.6834716796875
 20
-114.94123983383179
 30
0.0
 10
-684.1951904296875
 20
-115.33845663070679
 30
0.0
 10
-683.69091796875
 20
-115.69954061508179
 30
0.0
 10
-683.69091796875
 20
-115.69954061508179
 30
0.0
 10
-683.1815185546875
 20
-116.06440877914429
 30
0.0
 10
-682.6441650390625
 20
-116.40431356430054
 30
0.0
 10
-682.095458984375
 20
-116.70704793930054
 30
0.0
 10
-682.095458984375
 20
-116.70704793930054
 30
0.0
 10
-680.7503662109375
 20
-117.44917440414429
 30
0.0
 10
-679.2916259765625
 20
-118.05586385726929
 30
0.0
 10
-677.8299560546875
 20
-118.52565145492554
 30
0.0
 10
-677.8299560546875
 20
-118.52565145492554
 30
0.0
 10
-661.13525390625
 20
-123.89131307601929
 30
0.0
 10
-643.14453125
 20
-119.21894979476929
 30
0.0
 10
-626.1171875
 20
-122.35316610336304
 30
0.0
  0
LINE
  5
61
100
AcDbEntity
  8
layer0
 62
256
370
-1
 48
1.0
  6
BYLAYER
100
AcDbLine
 10
-626.1171875
 20
-122.35316610336304
 30
0.0
 11
-625.4864501953125
 21
-122.47871541976929
 31
0.0
  0
SPLINE
  5
62
100
AcDbEntity
  8
layer0
 62
256
370
-1
 48
1.0
  6
BYLAYER
100
AcDbSpline
 70
8
 71
3
 72
88
 73
84
 74
0
 40
0.0
 40
0.0
 40
0.0
 40
0.0
 40
0.0476190485060215
 40
0.0476190485060215
 40
0.0476190485060215
 40
0.0476190485060215
 40
0.095238097012043
 40
0.095238097012043
 40
0.095238097012043
 40
0.095238097012043
 40
0.1428571455180645
 40
0.1428571455180645
 40
0.1428571455180645
 40
0.1428571455180645
 40
0.190476194024086
 40
0.190476194024086
 40
0.190476194024086
 40
0.190476194024086
 40
0.2380952425301075
 40
0.2380952425301075
 40
0.2380952425301075
 40
0.2380952425301075
 40
0.285714291036129
 40
0.285714291036129
 40
0.285714291036129
 40
0.285714291036129
 40
0.3333333395421505
 40
0.3333333395421505
 40
0.3333333395421505
 40
0.3333333395421505
 40
0.380952388048172
 40
0.380952388048172
 40
0.380952388048172
 40
0.380952388048172
 40
0.4285714365541935
 40
0.4285714365541935
 40
0.4285714365541935
 40
0.4285714365541935
 40
0.476190485060215
 40
0.476190485060215
 40
0.476190485060215
 40
0.476190485060215
 40
0.5238095335662365
 40
0.5238095335662365
 40
0.5238095335662365
 40
0.5238095335662365
 40
0.571428582072258
 40
0.571428582072258
 40
0.571428582072258
 40
0.571428582072258
 40
0.6190476305782795
 40
0.6190476305782795
 40
0.6190476305782795
 40
0.6190476305782795
 40
0.666666679084301
 40
0.666666679084301
 40
0.666666679084301
 40
0.666666679084301
 40
0.7142857275903225
 40
0.7142857275903225
 40
0.7142857275903225
 40
0.7142857275903225
 40
0.761904776096344
 40
0.761904776096344
 40
0.761904776096344
 40
0.761904776096344
 40
0.8095238246023655
 40
0.8095238246023655
 40
0.8095238246023655
 40
0.8095238246023655
 40
0.857142873108387
 40
0.857142873108387
 40
0.857142873108387
 40
0.857142873108387
 40
0.9047619216144085
 40
0.9047619216144085
 40
0.9047619216144085
 40
0.9047619216144085
 40
0.95238097012043
 40
0.95238097012043
 40
0.95238097012043
 40
0.95238097012043
 40
1.0
 40
1.0
 40
1.0
 40
1.0
 10
-625.4864501953125
 20
-122.47871541976929
 30
0.0
 10
-623.9459228515625
 20
-122.82447957992554
 30
0.0
 10
-622.392578125
 20
-123.35884237289429
 30
0.0
 10
-620.9791259765625
 20
-124.06324911117554
 30
0.0
 10
-620.9791259765625
 20
-124.06324911117554
 30
0.0
 10
-619.3331298828125
 20
-124.88350057601929
 30
0.0
 10
-617.7886962890625
 20
-125.98072957992554
 30
0.0
 10
-616.457275390625
 20
-127.24983358383179
 30
0.0
 10
-616.457275390625
 20
-127.24983358383179
 30
0.0
 10
-615.1298828125
 20
-128.51503133773804
 30
0.0
 10
-614.01806640625
 20
-129.99379110336304
 30
0.0
 10
-613.0726318359375
 20
-131.56056356430054
 30
0.0
 10
-613.0726318359375
 20
-131.56056356430054
 30
0.0
 10
-613.041748046875
 20
-131.61177206039429
 30
0.0
 10
-612.73974609375
 20
-132.14717245101929
 30
0.0
 10
-612.7196044921875
 20
-132.18409872055054
 30
0.0
 10
-612.7196044921875
 20
-132.18409872055054
 30
0.0
 10
-612.3365478515625
 20
-132.88722372055054
 30
0.0
 10
-611.98291015625
 20
-133.61519002914429
 30
0.0
 10
-611.659423828125
 20
-134.34748983383179
 30
0.0
 10
-611.659423828125
 20
-134.34748983383179
 30
0.0
 10
-611.596923828125
 20
-134.48909139633179
 30
0.0
 10
-611.37646484375
 20
-135.01039266586304
 30
0.0
 10
-611.3189697265625
 20
-135.15266561508179
 30
0.0
 10
-611.3189697265625
 20
-135.15266561508179
 30
0.0
 10
-610.9658203125
 20
-136.02607870101929
 30
0.0
 10
-610.646240234375
 20
-136.91987752914429
 30
0.0
 10
-610.3592529296875
 20
-137.81709432601929
 30
0.0
 10
-610.3592529296875
 20
-137.81709432601929
 30
0.0
 10
-609.95361328125
 20
-139.08485555648804
 30
0.0
 10
-609.6107177734375
 20
-140.38044881820679
 30
0.0
 10
-609.3238525390625
 20
-141.68019247055054
 30
0.0
 10
-609.3238525390625
 20
-141.68019247055054
 30
0.0
 10
-609.2852783203125
 20
-141.85463094711304
 30
0.0
 10
-609.1536865234375
 20
-142.49208211898804
 30
0.0
 10
-609.119873046875
 20
-142.66664266586304
 30
0.0
 10
-609.119873046875
 20
-142.66664266586304
 30
0.0
 10
-608.919677734375
 20
-143.70332479476929
 30
0.0
 10
-608.7513427734375
 20
-144.75135946273804
 30
0.0
 10
-608.611083984375
 20
-145.79780721664429
 30
0.0
 10
-608.611083984375
 20
-145.79780721664429
 30
0.0
 10
-608.5843505859375
 20
-145.99739217758179
 30
0.0
 10
-608.4964599609375
 20
-146.71510457992554
 30
0.0
 10
-608.474365234375
 20
-146.91395711898804
 30
0.0
 10
-608.474365234375
 20
-146.91395711898804
 30
0.0
 10
-608.3436279296875
 20
-148.09071493148804
 30
0.0
 10
-608.2449951171875
 20
-149.27546834945679
 30
0.0
 10
-608.1771240234375
 20
-150.45747518539429
 30
0.0
 10
-608.1771240234375
 20
-150.45747518539429
 30
0.0
 10
-608.16455078125
 20
-150.67695760726929
 30
0.0
 10
-608.1265869140625
 20
-151.48536825180054
 30
0.0
 10
-608.1185302734375
 20
-151.70344686508179
 30
0.0
 10
-608.1185302734375
 20
-151.70344686508179
 30
0.0
 10
-608.0701904296875
 20
-153.00544881820679
 30
0.0
 10
-608.054443359375
 20
-154.31239461898804
 30
0.0
 10
-608.0672607421875
 20
-155.61525106430054
 30
0.0
 10
-608.0672607421875
 20
-155.61525106430054
 30
0.0
 10
-608.0693359375
 20
-155.83540487289429
 30
0.0
 10
-608.08642578125
 20
-156.76936483383179
 30
0.0
 10
-608.09228515625
 20
-156.98811483383179
 30
0.0
 10
-608.09228515625
 20
-156.98811483383179
 30
0.0
 10
-608.1033935546875
 20
-157.40681600570679
 30
0.0
 10
-608.1270751953125
 20
-158.01936483383179
 30
0.0
 10
-608.1458740234375
 20
-158.43599081039429
 30
0.0
 10
-608.1458740234375
 20
-158.43599081039429
 30
0.0
 10
-608.193603515625
 20
-159.48915243148804
 30
0.0
 10
-608.2481689453125
 20
-160.54219198226929
 30
0.0
 10
-608.3140869140625
 20
-161.59437704086304
 30
0.0
 10
-608.3140869140625
 20
-161.59437704086304
 30
0.0
 10
-608.437255859375
 20
-163.56172323226929
 30
0.0
 10
-608.585693359375
 20
-165.52888631820679
 30
0.0
 10
-608.7608642578125
 20
-167.49238729476929
 30
0.0
 10
-608.7608642578125
 20
-167.49238729476929
 30
0.0
 10
-613.539306640625
 20
-221.03633260726929
 30
0.0
 10
-618.8544921875
 20
-274.39460897445679
 30
0.0
 10
-624.11767578125
 20
-327.91255331039429
 30
0.0
 10
-624.11767578125
 20
-327.91255331039429
 30
0.0
 10
-626.2755126953125
 20
-349.85524129867554
 30
0.0
 10
-628.3922119140625
 20
-371.80635213851929
 30
0.0
 10
-631.114501953125
 20
-393.68629598617554
 30
0.0
 10
-631.114501953125
 20
-393.68629598617554
 30
0.0
 10
-631.438232421875
 20
-396.28846883773804
 30
0.0
 10
-631.8685302734375
 20
-398.87788534164429
 30
0.0
 10
-632.3455810546875
 20
-401.45588827133179
 30
0.0
  0
LWPOLYLINE
  5
63
100
AcDbEntity
  8
layer0
 62
256
370
-1
 48
1.0
  6
BYLAYER
100
AcDbPolyline
 90
3
 70
0
 10
-632.3455810546875
 20
-401.45588827133179
 10
-632.456787109375
 20
-402.04383993148804
 10
-632.570068359375
 20
-402.61433553695679
  0
SPLINE
  5
64
100
AcDbEntity
  8
layer0
 62
256
370
-1
 48
1.0
  6
BYLAYER
100
AcDbSpline
 70
8
 71
3
 72
156
 73
152
 74
0
 40
0.0
 40
0.0
 40
0.0
 40
0.0
 40
0.0263157896697521
 40
0.0263157896697521
 40
0.0263157896697521
 40
0.0263157896697521
 40
0.0526315793395042
 40
0.0526315793395042
 40
0.0526315793395042
 40
0.0526315793395042
 40
0.0789473690092564
 40
0.0789473690092564
 40
0.0789473690092564
 40
0.0789473690092564
 40
0.1052631586790085
 40
0.1052631586790085
 40
0.1052631586790085
 40
0.1052631586790085
 40
0.1315789483487606
 40
0.1315789483487606
 40
0.1315789483487606
 40
0.1315789483487606
 40
0.1578947380185127
 40
0.1578947380185127
 40
0.1578947380185127
 40
0.1578947380185127
 40
0.1842105276882649
 40
0.1842105276882649
 40
0.1842105276882649
 40
0.1842105276882649
 40
0.210526317358017
 40
0.210526317358017
 40
0.210526317358017
 40
0.210526317358017
 40
0.2368421070277691
 40
0.2368421070277691
 40
0.2368421070277691
 40
0.2368421070277691
 40
0.2631578966975212
 40
0.2631578966975212
 40
0.2631578966975212
 40
0.2631578966975212
 40
0.2894736863672733
 40
0.2894736863672733
 40
0.2894736863672733
 40
0.2894736863672733
 40
0.3157894760370255
 40
0.3157894760370255
 40
0.3157894760370255
 40
0.3157894760370255
 40
0.3421052657067776
 40
0.3421052657067776
 40
0.3421052657067776
 40
0.3421052657067776
 40
0.3684210553765297
 40
0.3684210553765297
 40
0.3684210553765297
 40
0.3684210553765297
 40
0.3947368450462818
 40
0.3947368450462818
 40
0.3947368450462818
 40
0.3947368450462818
 40
0.4210526347160339
 40
0.4210526347160339
 40
0.4210526347160339
 40
0.4210526347160339
 40
0.4473684243857861
 40
0.4473684243857861
 40
0.4473684243857861
 40
0.4473684243857861
 40
0.4736842140555382
 40
0.4736842140555382
 40
0.4736842140555382
 40
0.4736842140555382
 40
0.5000000037252903
 40
0.5000000037252903
 40
0.5000000037252903
 40
0.5000000037252903
 40
0.5263157933950424
 40
0.5263157933950424
 40
0.5263157933950424
 40
0.5263157933950424
 40
0.5526315830647945
 40
0.5526315830647945
 40
0.5526315830647945
 40
0.5526315830647945
 40
0.5789473727345467
 40
0.5789473727345467
 40
0.5789473727345467
 40
0.5789473727345467
 40
0.6052631624042988
 40
0.6052631624042988
 40
0.6052631624042988
 40
0.6052631624042988
 40
0.6315789520740509
 40
0.6315789520740509
 40
0.6315789520740509
 40
0.6315789520740509
 40
0.657894741743803
 40
0.657894741743803
 40
0.657894741743803
 40
0.657894741743803
 40
0.6842105314135552
 40
0.6842105314135552
 40
0.6842105314135552
 40
0.6842105314135552
 40
0.7105263210833073
 40
0.7105263210833073
 40
0.7105263210833073
 40
0.7105263210833073
 40
0.7368421107530594
 40
0.7368421107530594
 40
0.7368421107530594
 40
0.7368421107530594
 40
0.7631579004228115
 40
0.7631579004228115
 40
0.7631579004228115
 40
0.7631579004228115
 40
0.7894736900925636
 40
0.7894736900925636
 40
0.7894736900925636
 40
0.7894736900925636
 40
0.8157894797623158
 40
0.8157894797623158
 40
0.8157894797623158
 40
0.8157894797623158
 40
0.8421052694320679
 40
0.8421052694320679
 40
0.8421052694320679
 40
0.8421052694320679
 40
0.86842105910182
 40
0.86842105910182
 40
0.86842105910182
 40
0.86842105910182
 40
0.8947368487715721
 40
0.8947368487715721
 40
0.8947368487715721
 40
0.8947368487715721
 40
0.9210526384413242
 40
0.9210526384413242
 40
0.9210526384413242
 40
0.9210526384413242
 40
0.9473684281110764
 40
0.9473684281110764
 40
0.9473684281110764
 40
0.9473684281110764
 40
0.9736842177808285
 40
0.9736842177808285
 40
0.9736842177808285
 40
0.9736842177808285
 40
1.0
 40
1.0
 40
1.0
 40
1.0
 10
-632.570068359375
 20
-402.61433553695679
 30
0.0
 10
-632.6075439453125
 20
-402.79609823226929
 30
0.0
 10
-632.765625
 20
-403.52668905258179
 30
0.0
 10
-632.8070068359375
 20
-403.70851278305054
 30
0.0
 10
-632.8070068359375
 20
-403.70851278305054
 30
0.0
 10
-633.0513916015625
 20
-404.78279256820679
 30
0.0
 10
-633.32666015625
 20
-405.85518026351929
 30
0.0
 10
-633.634033203125
 20
-406.91322469711304
 30
0.0
 10
-633.634033203125
 20
-406.91322469711304
 30
0.0
 10
-633.6884765625
 20
-407.10078573226929
 30
0.0
 10
-633.8948974609375
 20
-407.77992391586304
 30
0.0
 10
-633.9544677734375
 20
-407.96693563461304
 30
0.0
 10
-633.9544677734375
 20
-407.96693563461304
 30
0.0
 10
-634.2706298828125
 20
-408.95997762680054
 30
0.0
 10
-634.6185302734375
 20
-409.95076131820679
 30
0.0
 10
-635.005859375
 20
-410.91835165023804
 30
0.0
 10
-635.005859375
 20
-410.91835165023804
 30
0.0
 10
-635.06884765625
 20
-411.07582235336304
 30
0.0
 10
-635.3194580078125
 20
-411.67390584945679
 30
0.0
 10
-635.387939453125
 20
-411.82997274398804
 30
0.0
 10
-635.387939453125
 20
-411.82997274398804
 30
0.0
 10
-636.2811279296875
 20
-413.86714315414429
 30
0.0
 10
-637.36376953125
 20
-415.84156942367554
 30
0.0
 10
-638.6275634765625
 20
-417.67292928695679
 30
0.0
 10
-638.6275634765625
 20
-417.67292928695679
 30
0.0
 10
-638.7149658203125
 20
-417.79957723617554
 30
0.0
 10
-639.046875
 20
-418.26197957992554
 30
0.0
 10
-639.1390380859375
 20
-418.38533163070679
 30
0.0
 10
-639.1390380859375
 20
-418.38533163070679
 30
0.0
 10
-640.439697265625
 20
-420.12623739242554
 30
0.0
 10
-641.9312744140625
 20
-421.76057577133179
 30
0.0
 10
-643.555908203125
 20
-423.20430135726929
 30
0.0
 10
-643.555908203125
 20
-423.20430135726929
 30
0.0
 10
-643.670654296875
 20
-423.30635213851929
 30
0.0
 10
-644.1055908203125
 20
-423.67769002914429
 30
0.0
 10
-644.2242431640625
 20
-423.77510213851929
 30
0.0
 10
-644.2242431640625
 20
-423.77510213851929
 30
0.0
 10
-645.9605712890625
 20
-425.20063924789429
 30
0.0
 10
-647.86181640625
 20
-426.44673299789429
 30
0.0
 10
-649.84716796875
 20
-427.49629354476929
 30
0.0
 10
-649.84716796875
 20
-427.49629354476929
 30
0.0
 10
-649.9959716796875
 20
-427.57490682601929
 30
0.0
 10
-650.580810546875
 20
-427.87159872055054
 30
0.0
 10
-650.73193359375
 20
-427.94514608383179
 30
0.0
 10
-650.73193359375
 20
-427.94514608383179
 30
0.0
 10
-651.6229248046875
 20
-428.37886190414429
 30
0.0
 10
-652.53955078125
 20
-428.77876424789429
 30
0.0
 10
-653.462158203125
 20
-429.14058065414429
 30
0.0
 10
-653.462158203125
 20
-429.14058065414429
 30
0.0
 10
-653.6253662109375
 20
-429.20460653305054
 30
0.0
 10
-654.228271484375
 20
-429.43019247055054
 30
0.0
 10
-654.393310546875
 20
-429.48909139633179
 30
0.0
 10
-654.393310546875
 20
-429.48909139633179
 30
0.0
 10
-655.322998046875
 20
-429.82075643539429
 30
0.0
 10
-656.271728515625
 20
-430.12129354476929
 30
0.0
 10
-657.22314453125
 20
-430.38441610336304
 30
0.0
 10
-657.22314453125
 20
-430.38441610336304
 30
0.0
 10
-657.3948974609375
 20
-430.43190145492554
 30
0.0
 10
-658.01953125
 20
-430.59449911117554
 30
0.0
 10
-658.1920166015625
 20
-430.63661336898804
 30
0.0
 10
-658.1920166015625
 20
-430.63661336898804
 30
0.0
 10
-659.2176513671875
 20
-430.88691854476929
 30
0.0
 10
-660.2593994140625
 20
-431.09748983383179
 30
0.0
 10
-661.2998046875
 20
-431.27638387680054
 30
0.0
 10
-661.2998046875
 20
-431.27638387680054
 30
0.0
 10
-661.4881591796875
 20
-431.30879354476929
 30
0.0
 10
-662.2091064453125
 20
-431.42360067367554
 30
0.0
 10
-662.3980712890625
 20
-431.45124959945679
 30
0.0
 10
-662.3980712890625
 20
-431.45124959945679
 30
0.0
 10
-663.527587890625
 20
-431.61671590805054
 30
0.0
 10
-664.667236328125
 20
-431.74214315414429
 30
0.0
 10
-665.8045654296875
 20
-431.83937215805054
 30
0.0
 10
-665.8045654296875
 20
-431.83937215805054
 30
0.0
 10
-665.9844970703125
 20
-431.85475301742554
 30
0.0
 10
-666.72265625
 20
-431.91029500961304
 30
0.0
 10
-666.9046630859375
 20
-431.92219686508179
 30
0.0
 10
-666.9046630859375
 20
-431.92219686508179
 30
0.0
 10
-668.084228515625
 20
-431.99946737289429
 30
0.0
 10
-669.2705078125
 20
-432.03846883773804
 30
0.0
 10
-670.45263671875
 20
-432.03071737289429
 30
0.0
 10
-670.45263671875
 20
-432.03071737289429
 30
0.0
 10
-670.8408203125
 20
-432.02815389633179
 30
0.0
 10
-671.1702880859375
 20
-432.01930379867554
 30
0.0
 10
-671.5633544921875
 20
-432.01472616195679
 30
0.0
 10
-671.5633544921875
 20
-432.01472616195679
 30
0.0
 10
-706.748291015625
 20
-431.60615682601929
 30
0.0
 10
-741.921142578125
 20
-432.57862997055054
 30
0.0
 10
-777.1075439453125
 20
-432.37819051742554
 30
0.0
 10
-777.1075439453125
 20
-432.37819051742554
 30
0.0
 10
-788.52490234375
 20
-432.31312704086304
 30
0.0
 10
-799.9404296875
 20
-431.96162557601929
 30
0.0
 10
-811.3577880859375
 20
-431.90217733383179
 30
0.0
 10
-811.3577880859375
 20
-431.90217733383179
 30
0.0
 10
-817.935302734375
 20
-431.86793661117554
 30
0.0
 10
-824.513671875
 20
-432.02919149398804
 30
0.0
 10
-831.0911865234375
 20
-432.05220174789429
 30
0.0
 10
-831.0911865234375
 20
-432.05220174789429
 30
0.0
 10
-831.2987060546875
 20
-432.05293416976929
 30
0.0
 10
-831.633544921875
 20
-432.05275106430054
 30
0.0
 10
-831.841064453125
 20
-432.05171346664429
 30
0.0
 10
-831.841064453125
 20
-432.05171346664429
 30
0.0
 10
-831.9296875
 20
-432.05128622055054
 30
0.0
 10
-832.50244140625
 20
-432.04646444320679
 30
0.0
 10
-832.5909423828125
 20
-432.04542684555054
 30
0.0
 10
-832.5909423828125
 20
-432.04542684555054
 30
0.0
 10
-832.805908203125
 20
-432.04292440414429
 30
0.0
 10
-833.1259765625
 20
-432.03773641586304
 30
0.0
 10
-833.3408203125
 20
-432.03340291976929
 30
0.0
 10
-833.3408203125
 20
-432.03340291976929
 30
0.0
 10
-838.973876953125
 20
-431.91920614242554
 30
0.0
 10
-844.6064453125
 20
-431.68013143539429
 30
0.0
 10
-850.2406005859375
 20
-431.62751913070679
 30
0.0
 10
-850.2406005859375
 20
-431.62751913070679
 30
0.0
 10
-852.552734375
 20
-431.60591268539429
 30
0.0
 10
-854.865234375
 20
-431.58802938461304
 30
0.0
 10
-857.177490234375
 20
-431.57380819320679
 30
0.0
 10
-857.177490234375
 20
-431.57380819320679
 30
0.0
 10
-857.5452880859375
 20
-431.57154989242554
 30
0.0
 10
-857.9432373046875
 20
-431.57075643539429
 30
0.0
 10
-858.31005859375
 20
-431.57167196273804
 30
0.0
 10
-858.31005859375
 20
-431.57167196273804
 30
0.0
 10
-875.9842529296875
 20
-431.61457967758179
 30
0.0
 10
-893.6575927734375
 20
-432.02272176742554
 30
0.0
 10
-911.3316650390625
 20
-432.03999471664429
 30
0.0
 10
-911.3316650390625
 20
-432.03999471664429
 30
0.0
 10
-928.40869140625
 20
-432.05665731430054
 30
0.0
 10
-945.468017578125
 20
-431.70137166976929
 30
0.0
 10
-962.5458984375
 20
-432.04054403305054
 30
0.0
 10
-962.5458984375
 20
-432.04054403305054
 30
0.0
 10
-962.75927734375
 20
-432.04475545883179
 30
0.0
 10
-963.082275390625
 20
-432.05207967758179
 30
0.0
 10
-963.295654296875
 20
-432.05763387680054
 30
0.0
 10
-963.295654296875
 20
-432.05763387680054
 30
0.0
 10
-967.547607421875
 20
-432.16804647445679
 30
0.0
 10
-971.8001708984375
 20
-432.37172079086304
 30
0.0
 10
-976.04931640625
 20
-432.55476522445679
 30
0.0
 10
-976.04931640625
 20
-432.55476522445679
 30
0.0
 10
-976.673828125
 20
-432.58168172836304
 30
0.0
 10
-977.2979736328125
 20
-432.61287069320679
 30
0.0
 10
-977.9227294921875
 20
-432.63258504867554
 30
0.0
 10
-977.9227294921875
 20
-432.63258504867554
 30
0.0
 10
-978.1331787109375
 20
-432.63923788070679
 30
0.0
 10
-978.4619140625
 20
-432.64723348617554
 30
0.0
 10
-978.67236328125
 20
-432.65065145492554
 30
0.0
 10
-978.67236328125
 20
-432.65065145492554
 30
0.0
 10
-978.76318359375
 20
-432.65211629867554
 30
0.0
 10
-979.3310546875
 20
-432.65797567367554
 30
0.0
 10
-979.421875
 20
-432.65840291976929
 30
0.0
 10
-979.421875
 20
-432.65840291976929
 30
0.0
 10
-988.579345703125
 20
-432.69941854476929
 30
0.0
 10
-997.7454833984375
 20
-432.37495565414429
 30
0.0
 10
-1006.9007568359375
 20
-432.13044881820679
 30
0.0
  0
SPLINE
  5
65
100
AcDbEntity
  8
layer0
 62
256
370
-1
 48
1.0
  6
BYLAYER
100
AcDbSpline
 70
8
 71
3
 72
36
 73
32
 74
0
 40
0.0
 40
0.0
 40
0.0
 40
0.0
 40
0.125
 40
0.125
 40
0.125
 40
0.125
 40
0.25
 40
0.25
 40
0.25
 40
0.25
 40
0.375
 40
0.375
 40
0.375
 40
0.375
 40
0.5
 40
0.5
 40
0.5
 40
0.5
 40
0.625
 40
0.625
 40
0.625
 40
0.625
 40
0.75
 40
0.75
 40
0.75
 40
0.75
 40
0.875
 40
0.875
 40
0.875
 40
0.875
 40
1.0
 40
1.0
 40
1.0
 40
1.0
 10
-1853.0159912109375
 20
-506.27165365219116
 30
0.0
 10
-1863.3292236328125
 20
-506.38383626937866
 30
0.0
 10
-1874.3114013671875
 20
-504.32499837875366
 30
0.0
 10
-1880.5115966796875
 20
-495.20662069320679
 30
0.0
 10
-1880.5115966796875
 20
-495.20662069320679
 30
0.0
 10
-1880.613037109375
 20
-495.05742025375366
 30
0.0
 10
-1880.9873046875
 20
-494.47358846664429
 30
0.0
 10
-1881.0802001953125
 20
-494.32020711898804
 30
0.0
 10
-1881.0802001953125
 20
-494.32020711898804
 30
0.0
 10
-1881.6583251953125
 20
-493.36528158187866
 30
0.0
 10
-1882.178955078125
 20
-492.35420370101929
 30
0.0
 10
-1882.6436767578125
 20
-491.33958578109741
 30
0.0
 10
-1882.6436767578125
 20
-491.33958578109741
 30
0.0
 10
-1882.7313232421875
 20
-491.14827108383179
 30
0.0
 10
-1883.0382080078125
 20
-490.44038534164429
 30
0.0
 10
-1883.11767578125
 20
-490.24662923812866
 30
0.0
 10
-1883.11767578125
 20
-490.24662923812866
 30
0.0
 10
-1883.57958984375
 20
-489.12117147445679
 30
0.0
 10
-1883.9874267578125
 20
-487.96009969711304
 30
0.0
 10
-1884.343505859375
 20
-486.79695272445679
 30
0.0
 10
-1884.343505859375
 20
-486.79695272445679
 30
0.0
 10
-1884.4075927734375
 20
-486.58772420883179
 30
0.0
 10
-1884.627197265625
 20
-485.82441854476929
 30
0.0
 10
-1884.6842041015625
 20
-485.61396932601929
 30
0.0
 10
-1884.6842041015625
 20
-485.61396932601929
 30
0.0
 10
-1885.11474609375
 20
-484.02510213851929
 30
0.0
 10
-1885.474365234375
 20
-482.40565633773804
 30
0.0
 10
-1885.7537841796875
 20
-480.78346395492554
 30
0.0
 10
-1885.7537841796875
 20
-480.78346395492554
 30
0.0
 10
-1886.261962890625
 20
-477.83290243148804
 30
0.0
 10
-1886.6021728515625
 20
-474.82313680648804
 30
0.0
 10
-1886.794921875
 20
-471.83491659164429
 30
0.0
  0
LWPOLYLINE
  5
66
100
AcDbEntity
  8
layer0
 62
256
370
-1
 48
1.0
  6
BYLAYER
100
AcDbPolyline
 90
3
 70
0
 10
-1886.794921875
 20
-471.83491659164429
 10
-1886.8226318359375
 20
-471.32850790023804
 10
-1886.83837890625
 20
-470.92134237289429
  0
SPLINE
  5
67
100
AcDbEntity
  8
layer0
 62
256
370
-1
 48
1.0
  6
BYLAYER
100
AcDbSpline
 70
8
 71
3
 72
48
 73
44
 74
0
 40
0.0
 40
0.0
 40
0.0
 40
0.0
 40
0.0909090936183929
 40
0.0909090936183929
 40
0.0909090936183929
 40
0.0909090936183929
 40
0.1818181872367859
 40
0.1818181872367859
 40
0.1818181872367859
 40
0.1818181872367859
 40
0.2727272808551788
 40
0.2727272808551788
 40
0.2727272808551788
 40
0.2727272808551788
 40
0.3636363744735718
 40
0.3636363744735718
 40
0.3636363744735718
 40
0.3636363744735718
 40
0.4545454680919647
 40
0.4545454680919647
 40
0.4545454680919647
 40
0.4545454680919647
 40
0.5454545617103577
 40
0.5454545617103577
 40
0.5454545617103577
 40
0.5454545617103577
 40
0.6363636553287506
 40
0.6363636553287506
 40
0.6363636553287506
 40
0.6363636553287506
 40
0.7272727489471436
 40
0.7272727489471436
 40
0.7272727489471436
 40
0.7272727489471436
 40
0.8181818425655365
 40
0.8181818425655365
 40
0.8181818425655365
 40
0.8181818425655365
 40
0.9090909361839294
 40
0.9090909361839294
 40
0.9090909361839294
 40
0.9090909361839294
 40
1.0
 40
1.0
 40
1.0
 40
1.0
 10
-1886.83837890625
 20
-470.92134237289429
 30
0.0
 10
-1886.9033203125
 20
-469.57728719711304
 30
0.0
 10
-1886.994140625
 20
-468.23439168930054
 30
0.0
 10
-1887.066650390625
 20
-466.89070272445679
 30
0.0
 10
-1887.066650390625
 20
-466.89070272445679
 30
0.0
 10
-1887.0860595703125
 20
-466.53090047836304
 30
0.0
 10
-1887.1060791015625
 20
-466.11775350570679
 30
0.0
 10
-1887.121337890625
 20
-465.75941610336304
 30
0.0
 10
-1887.121337890625
 20
-465.75941610336304
 30
0.0
 10
-1887.310791015625
 20
-461.32124471664429
 30
0.0
 10
-1887.47900390625
 20
-456.87538290023804
 30
0.0
 10
-1887.5672607421875
 20
-452.43397665023804
 30
0.0
 10
-1887.5672607421875
 20
-452.43397665023804
 30
0.0
 10
-1887.5711669921875
 20
-452.23945760726929
 30
0.0
 10
-1887.5771484375
 20
-451.87867879867554
 30
0.0
 10
-1887.579833984375
 20
-451.68415975570679
 30
0.0
 10
-1887.579833984375
 20
-451.68415975570679
 30
0.0
 10
-1887.6763916015625
 20
-444.78706502914429
 30
0.0
 10
-1887.7996826171875
 20
-437.88722372055054
 30
0.0
 10
-1887.7906494140625
 20
-430.98933553695679
 30
0.0
 10
-1887.7906494140625
 20
-430.98933553695679
 30
0.0
 10
-1887.7904052734375
 20
-430.77723836898804
 30
0.0
 10
-1887.7890625
 20
-430.45143270492554
 30
0.0
 10
-1887.78759765625
 20
-430.23933553695679
 30
0.0
 10
-1887.78759765625
 20
-430.23933553695679
 30
0.0
 10
-1887.468017578125
 20
-382.35817098617554
 30
0.0
 10
-1887.0269775390625
 20
-334.45808553695679
 30
0.0
 10
-1887.6817626953125
 20
-286.57740926742554
 30
0.0
 10
-1887.6817626953125
 20
-286.57740926742554
 30
0.0
 10
-1887.867431640625
 20
-272.99763631820679
 30
0.0
 10
-1888.410888671875
 20
-259.42305135726929
 30
0.0
 10
-1888.574462890625
 20
-245.84309530258179
 30
0.0
 10
-1888.574462890625
 20
-245.84309530258179
 30
0.0
 10
-1888.7459716796875
 20
-231.60395956039429
 30
0.0
 10
-1888.6300048828125
 20
-217.36152791976929
 30
0.0
 10
-1888.801513671875
 20
-203.12245321273804
 30
0.0
 10
-1888.801513671875
 20
-203.12245321273804
 30
0.0
 10
-1889.193115234375
 20
-170.61537313461304
 30
0.0
 10
-1890.5228271484375
 20
-138.18507528305054
 30
0.0
 10
-1891.300537109375
 20
-105.69288778305054
 30
0.0
 10
-1891.300537109375
 20
-105.69288778305054
 30
0.0
 10
-1891.6529541015625
 20
-90.968034267425537
 30
0.0
 10
-1891.7647705078125
 20
-76.236466884613037
 30
0.0
 10
-1891.9422607421875
 20
-61.508439540863037
 30
0.0
  0
LWPOLYLINE
  5
68
100
AcDbEntity
  8
layer0
 62
256
370
-1
 48
1.0
  6
BYLAYER
100
AcDbPolyline
 90
3
 70
0
 10
-1891.9422607421875
 20
-61.508439540863037
 10
-1891.94873046875
 20
-60.892899990081787
 10
-1891.952880859375
 20
-60.203507900238037
  0
SPLINE
  5
69
100
AcDbEntity
  8
layer0
 62
256
370
-1
 48
1.0
  6
BYLAYER
100
AcDbSpline
 70
8
 71
3
 72
12
 73
8
 74
0
 40
0.0
 40
0.0
 40
0.0
 40
0.0
 40
0.5
 40
0.5
 40
0.5
 40
0.5
 40
1.0
 40
1.0
 40
1.0
 40
1.0
 10
-1891.952880859375
 20
-60.203507900238037
 30
0.0
 10
-1891.95361328125
 20
-59.857194423675537
 30
0.0
 10
-1891.9512939453125
 20
-59.419999599456787
 30
0.0
 10
-1891.9466552734375
 20
-59.070939540863037
 30
0.0
 10
-1891.9466552734375
 20
-59.070939540863037
 30
0.0
 10
-1891.923828125
 20
-57.364945888519287
 30
0.0
 10
-1891.86962890625
 20
-55.658769130706787
 30
0.0
 10
-1891.8607177734375
 20
-53.952592372894287
 30
0.0
  0
LWPOLYLINE
  5
6A
100
AcDbEntity
  8
layer0
 62
256
370
-1
 48
1.0
  6
BYLAYER
100
AcDbPolyline
 90
3
 70
0
 10
-1891.8607177734375
 20
-53.952592372894287
 10
-1891.8641357421875
 20
-53.545182704925537
 10
-1891.8568115234375
 20
-53.037797451019287
  0
SPLINE
  5
6B
100
AcDbEntity
  8
layer0
 62
256
370
-1
 48
1.0
  6
BYLAYER
100
AcDbSpline
 70
8
 71
3
 72
72
 73
68
 74
0
 40
0.0
 40
0.0
 40
0.0
 40
0.0
 40
0.0588235296308994
 40
0.0588235296308994
 40
0.0588235296308994
 40
0.0588235296308994
 40
0.1176470592617989
 40
0.1176470592617989
 40
0.1176470592617989
 40
0.1176470592617989
 40
0.1764705888926983
 40
0.1764705888926983
 40
0.1764705888926983
 40
0.1764705888926983
 40
0.2352941185235977
 40
0.2352941185235977
 40
0.2352941185235977
 40
0.2352941185235977
 40
0.2941176481544972
 40
0.2941176481544972
 40
0.2941176481544972
 40
0.2941176481544972
 40
0.3529411777853966
 40
0.3529411777853966
 40
0.3529411777853966
 40
0.3529411777853966
 40
0.411764707416296
 40
0.411764707416296
 40
0.411764707416296
 40
0.411764707416296
 40
0.4705882370471954
 40
0.4705882370471954
 40
0.4705882370471954
 40
0.4705882370471954
 40
0.5294117666780949
 40
0.5294117666780949
 40
0.5294117666780949
 40
0.5294117666780949
 40
0.5882352963089943
 40
0.5882352963089943
 40
0.5882352963089943
 40
0.5882352963089943
 40
0.6470588259398937
 40
0.6470588259398937
 40
0.6470588259398937
 40
0.6470588259398937
 40
0.7058823555707932
 40
0.7058823555707932
 40
0.7058823555707932
 40
0.7058823555707932
 40
0.7647058852016926
 40
0.7647058852016926
 40
0.7647058852016926
 40
0.7647058852016926
 40
0.823529414832592
 40
0.823529414832592
 40
0.823529414832592
 40
0.823529414832592
 40
0.8823529444634914
 40
0.8823529444634914
 40
0.8823529444634914
 40
0.8823529444634914
 40
0.9411764740943909
 40
0.9411764740943909
 40
0.9411764740943909
 40
0.9411764740943909
 40
1.0
 40
1.0
 40
1.0
 40
1.0
 10
-1891.8568115234375
 20
-53.037797451019287
 30
0.0
 10
-1891.7720947265625
 20
-49.992814540863037
 30
0.0
 10
-1891.469970703125
 20
-46.900529384613037
 30
0.0
 10
-1890.926513671875
 20
-43.904069423675537
 30
0.0
 10
-1890.926513671875
 20
-43.904069423675537
 30
0.0
 10
-1890.889404296875
 20
-43.699479579925537
 30
0.0
 10
-1890.707275390625
 20
-42.784989833831787
 30
0.0
 10
-1890.6629638671875
 20
-42.580949306488037
 30
0.0
 10
-1890.6629638671875
 20
-42.580949306488037
 30
0.0
 10
-1890.392578125
 20
-41.334245204925537
 30
0.0
 10
-1890.062255859375
 20
-40.085343837738037
 30
0.0
 10
-1889.67333984375
 20
-38.870255947113037
 30
0.0
 10
-1889.67333984375
 20
-38.870255947113037
 30
0.0
 10
-1889.609130859375
 20
-38.669755458831787
 30
0.0
 10
-1889.35546875
 20
-37.928483486175537
 30
0.0
 10
-1889.2825927734375
 20
-37.729081630706787
 30
0.0
 10
-1889.2825927734375
 20
-37.729081630706787
 30
0.0
 10
-1888.8951416015625
 20
-36.668656826019287
 30
0.0
 10
-1888.4461669921875
 20
-35.613603115081787
 30
0.0
 10
-1887.950927734375
 20
-34.598954677581787
 30
0.0
 10
-1887.950927734375
 20
-34.598954677581787
 30
0.0
 10
-1887.8673095703125
 20
-34.427690029144287
 30
0.0
 10
-1887.555419921875
 20
-33.822465419769287
 30
0.0
 10
-1887.4637451171875
 20
-33.653642177581787
 30
0.0
 10
-1887.4637451171875
 20
-33.653642177581787
 30
0.0
 10
-1886.9932861328125
 20
-32.787431240081787
 30
0.0
 10
-1886.4696044921875
 20
-31.930985927581787
 30
0.0
 10
-1885.9085693359375
 20
-31.120378017425537
 30
0.0
 10
-1885.9085693359375
 20
-31.120378017425537
 30
0.0
 10
-1885.81201171875
 20
-30.980790615081787
 30
0.0
 10
-1885.4603271484375
 20
-30.498002529144287
 30
0.0
 10
-1885.356689453125
 20
-30.362687587738037
 30
0.0
 10
-1885.356689453125
 20
-30.362687587738037
 30
0.0
 10
-1883.42529296875
 20
-27.841996669769287
 30
0.0
 10
-1881.0118408203125
 20
-25.839372158050537
 30
0.0
 10
-1878.2852783203125
 20
-24.235002040863037
 30
0.0
 10
-1878.2852783203125
 20
-24.235002040863037
 30
0.0
 10
-1878.0135498046875
 20
-24.075150966644287
 30
0.0
 10
-1877.656005859375
 20
-23.871842861175537
 30
0.0
 10
-1877.3780517578125
 20
-23.724076747894287
 30
0.0
 10
-1877.3780517578125
 20
-23.724076747894287
 30
0.0
 10
-1876.1029052734375
 20
-23.045976161956787
 30
0.0
 10
-1874.76318359375
 20
-22.454728603363037
 30
0.0
 10
-1873.40966796875
 20
-21.950944423675537
 30
0.0
 10
-1873.40966796875
 20
-21.950944423675537
 30
0.0
 10
-1873.2303466796875
 20
-21.884171962738037
 30
0.0
 10
-1872.54541015625
 20
-21.644059658050537
 30
0.0
 10
-1872.3646240234375
 20
-21.584367275238037
 30
0.0
 10
-1872.3646240234375
 20
-21.584367275238037
 30
0.0
 10
-1871.2552490234375
 20
-21.218217372894287
 30
0.0
 10
-1870.1180419921875
 20
-20.903581142425537
 30
0.0
 10
-1868.9820556640625
 20
-20.631852626800537
 30
0.0
 10
-1868.9820556640625
 20
-20.631852626800537
 30
0.0
 10
-1868.7698974609375
 20
-20.581071376800537
 30
0.0
 10
-1867.991455078125
 20
-20.407365322113037
 30
0.0
 10
-1867.7786865234375
 20
-20.363175868988037
 30
0.0
 10
-1867.7786865234375
 20
-20.363175868988037
 30
0.0
 10
-1866.561767578125
 20
-20.110429286956787
 30
0.0
 10
-1865.32763671875
 20
-19.901933193206787
 30
0.0
 10
-1864.095947265625
 20
-19.735795497894287
 30
0.0
 10
-1864.095947265625
 20
-19.735795497894287
 30
0.0
 10
-1863.8990478515625
 20
-19.709245204925537
 30
0.0
 10
-1863.0501708984375
 20
-19.605790615081787
 30
0.0
 10
-1862.8526611328125
 20
-19.584245204925537
 30
0.0
 10
-1862.8526611328125
 20
-19.584245204925537
 30
0.0
 10
-1860.0362548828125
 20
-19.276628017425537
 30
0.0
 10
-1857.1815185546875
 20
-19.131120204925537
 30
0.0
 10
-1854.348388671875
 20
-19.104203701019287
 30
0.0
  0
LWPOLYLINE
  5
6C
100
AcDbEntity
  8
layer0
 62
256
370
-1
 48
1.0
  6
BYLAYER
100
AcDbPolyline
 90
3
 70
0
 10
-1854.348388671875
 20
-19.104203701019287
 10
-1853.8392333984375
 20
-19.103349208831787
 10
-1853.4210205078125
 20
-19.108048915863037
  0
SPLINE
  5
6D
100
AcDbEntity
  8
layer0
 62
256
370
-1
 48
1.0
  6
BYLAYER
100
AcDbSpline
 70
8
 71
3
 72
12
 73
8
 74
0
 40
0.0
 40
0.0
 40
0.0
 40
0.0
 40
0.5
 40
0.5
 40
0.5
 40
0.5
 40
1.0
 40
1.0
 40
1.0
 40
1.0
 10
-1853.4210205078125
 20
-19.108048915863037
 30
0.0
 10
-1851.90087890625
 20
-19.113603115081787
 30
0.0
 10
-1850.3807373046875
 20
-19.092912197113037
 30
0.0
 10
-1848.860595703125
 20
-19.092973232269287
 30
0.0
 10
-1848.860595703125
 20
-19.092973232269287
 30
0.0
 10
-1848.5035400390625
 20
-19.092973232269287
 30
0.0
 10
-1848.082763671875
 20
-19.096269130706787
 30
0.0
 10
-1847.727783203125
 20
-19.101762294769287
 30
0.0
  0
LINE
  5
6E
100
AcDbEntity
  8
layer0
 62
256
370
-1
 48
1.0
  6
BYLAYER
100
AcDbLine
 10
-1847.727783203125
 20
-19.101762294769287
 30
0.0
 11
-1847.03857421875
 21
-19.114945888519287
 31
0.0
  0
SPLINE
  5
6F
100
AcDbEntity
  8
layer0
 62
256
370
-1
 48
1.0
  6
BYLAYER
100
AcDbSpline
 70
8
 71
3
 72
80
 73
76
 74
0
 40
0.0
 40
0.0
 40
0.0
 40
0.0
 40
0.0526315793395042
 40
0.0526315793395042
 40
0.0526315793395042
 40
0.0526315793395042
 40
0.1052631586790085
 40
0.1052631586790085
 40
0.1052631586790085
 40
0.1052631586790085
 40
0.1578947380185127
 40
0.1578947380185127
 40
0.1578947380185127
 40
0.1578947380185127
 40
0.210526317358017
 40
0.210526317358017
 40
0.210526317358017
 40
0.210526317358017
 40
0.2631578966975212
 40
0.2631578966975212
 40
0.2631578966975212
 40
0.2631578966975212
 40
0.3157894760370255
 40
0.3157894760370255
 40
0.3157894760370255
 40
0.3157894760370255
 40
0.3684210553765297
 40
0.3684210553765297
 40
0.3684210553765297
 40
0.3684210553765297
 40
0.4210526347160339
 40
0.4210526347160339
 40
0.4210526347160339
 40
0.4210526347160339
 40
0.4736842140555382
 40
0.4736842140555382
 40
0.4736842140555382
 40
0.4736842140555382
 40
0.5263157933950424
 40
0.5263157933950424
 40
0.5263157933950424
 40
0.5263157933950424
 40
0.5789473727345467
 40
0.5789473727345467
 40
0.5789473727345467
 40
0.5789473727345467
 40
0.6315789520740509
 40
0.6315789520740509
 40
0.6315789520740509
 40
0.6315789520740509
 40
0.6842105314135552
 40
0.6842105314135552
 40
0.6842105314135552
 40
0.6842105314135552
 40
0.7368421107530594
 40
0.7368421107530594
 40
0.7368421107530594
 40
0.7368421107530594
 40
0.7894736900925636
 40
0.7894736900925636
 40
0.7894736900925636
 40
0.7894736900925636
 40
0.8421052694320679
 40
0.8421052694320679
 40
0.8421052694320679
 40
0.8421052694320679
 40
0.8947368487715721
 40
0.8947368487715721
 40
0.8947368487715721
 40
0.8947368487715721
 40
0.9473684281110764
 40
0.9473684281110764
 40
0.9473684281110764
 40
0.9473684281110764
 40
1.0
 40
1.0
 40
1.0
 40
1.0
 10
-1847.03857421875
 20
-19.114945888519287
 30
0.0
 10
-1833.3233642578125
 20
-19.404313564300537
 30
0.0
 10
-1819.61376953125
 20
-20.028459072113037
 30
0.0
 10
-1805.89697265625
 20
-20.213761806488037
 30
0.0
 10
-1805.89697265625
 20
-20.213761806488037
 30
0.0
 10
-1762.795654296875
 20
-20.796098232269287
 30
0.0
 10
-1719.6688232421875
 20
-19.678178310394287
 30
0.0
 10
-1676.579345703125
 20
-19.467790126800537
 30
0.0
 10
-1676.579345703125
 20
-19.467790126800537
 30
0.0
 10
-1676.3624267578125
 20
-19.466752529144287
 30
0.0
 10
-1676.0462646484375
 20
-19.466447353363037
 30
0.0
 10
-1675.829345703125
 20
-19.467240810394287
 30
0.0
 10
-1675.829345703125
 20
-19.467240810394287
 30
0.0
 10
-1643.4825439453125
 20
-19.588334560394287
 30
0.0
 10
-1610.9918212890625
 20
-20.838578701019287
 30
0.0
 10
-1578.757080078125
 20
-23.667008876800537
 30
0.0
 10
-1578.757080078125
 20
-23.667008876800537
 30
0.0
 10
-1578.547607421875
 20
-23.685380458831787
 30
0.0
 10
-1578.2196044921875
 20
-23.715653896331787
 30
0.0
 10
-1578.01025390625
 20
-23.735978603363037
 30
0.0
 10
-1578.01025390625
 20
-23.735978603363037
 30
0.0
 10
-1577.915283203125
 20
-23.745194911956787
 30
0.0
 10
-1577.359130859375
 20
-23.801164150238037
 30
0.0
 10
-1577.26416015625
 20
-23.811051845550537
 30
0.0
 10
-1577.26416015625
 20
-23.811051845550537
 30
0.0
 10
-1577.0550537109375
 20
-23.832841396331787
 30
0.0
 10
-1576.7275390625
 20
-23.868546962738037
 30
0.0
 10
-1576.5186767578125
 20
-23.892228603363037
 30
0.0
 10
-1576.5186767578125
 20
-23.892228603363037
 30
0.0
 10
-1575.897705078125
 20
-23.962724208831787
 30
0.0
 10
-1575.2774658203125
 20
-24.040116786956787
 30
0.0
 10
-1574.656982421875
 20
-24.114884853363037
 30
0.0
 10
-1574.656982421875
 20
-24.114884853363037
 30
0.0
 10
-1571.594482421875
 20
-24.483903408050537
 30
0.0
 10
-1568.529541015625
 20
-24.833573818206787
 30
0.0
 10
-1565.46728515625
 20
-25.204118251800537
 30
0.0
 10
-1565.46728515625
 20
-25.204118251800537
 30
0.0
 10
-1564.970947265625
 20
-25.264176845550537
 30
0.0
 10
-1564.474853515625
 20
-25.326554775238037
 30
0.0
 10
-1563.97900390625
 20
-25.390519618988037
 30
0.0
 10
-1563.97900390625
 20
-25.390519618988037
 30
0.0
 10
-1563.777587890625
 20
-25.416520595550537
 30
0.0
 10
-1563.436767578125
 20
-25.461259365081787
 30
0.0
 10
-1563.2354736328125
 20
-25.488114833831787
 30
0.0
 10
-1563.2354736328125
 20
-25.488114833831787
 30
0.0
 10
-1558.322998046875
 20
-26.143937587738037
 30
0.0
 10
-1553.409423828125
 20
-26.798844814300537
 30
0.0
 10
-1548.5020751953125
 20
-27.493058681488037
 30
0.0
 10
-1548.5020751953125
 20
-27.493058681488037
 30
0.0
 10
-1548.410888671875
 20
-27.505937099456787
 30
0.0
 10
-1547.850830078125
 20
-27.585954189300537
 30
0.0
 10
-1547.7596435546875
 20
-27.599076747894287
 30
0.0
 10
-1547.7596435546875
 20
-27.599076747894287
 30
0.0
 10
-1506.2999267578125
 20
-33.574967861175537
 30
0.0
 10
-1464.8802490234375
 20
-39.618791103363037
 30
0.0
 10
-1423.41064453125
 20
-45.564958095550537
 30
0.0
 10
-1423.41064453125
 20
-45.564958095550537
 30
0.0
 10
-1423.2244873046875
 20
-45.591630458831787
 30
0.0
 10
-1422.8543701171875
 20
-45.645402431488037
 30
0.0
 10
-1422.66845703125
 20
-45.672807216644287
 30
0.0
 10
-1422.66845703125
 20
-45.672807216644287
 30
0.0
 10
-1419.94091796875
 20
-46.074601650238037
 30
0.0
 10
-1417.220703125
 20
-46.524308681488037
 30
0.0
 10
-1414.49609375
 20
-46.944718837738037
 30
0.0
 10
-1414.49609375
 20
-46.944718837738037
 30
0.0
 10
-1413.87841796875
 20
-47.040055751800537
 30
0.0
 10
-1413.26025390625
 20
-47.132401943206787
 30
0.0
 10
-1412.643310546875
 20
-47.232804775238037
 30
0.0
 10
-1412.643310546875
 20
-47.232804775238037
 30
0.0
 10
-1412.427734375
 20
-47.267899990081787
 30
0.0
 10
-1412.118896484375
 20
-47.319779872894287
 30
0.0
 10
-1411.90380859375
 20
-47.357316493988037
 30
0.0
 10
-1411.90380859375
 20
-47.357316493988037
 30
0.0
 10
-1408.8355712890625
 20
-47.892533779144287
 30
0.0
 10
-1405.7813720703125
 20
-48.547074794769287
 30
0.0
 10
-1402.73095703125
 20
-49.175004482269287
 30
0.0
  0
LWPOLYLINE
  5
70
100
AcDbEntity
  8
layer0
 62
256
370
-1
 48
1.0
  6
BYLAYER
100
AcDbPolyline
 90
3
 70
0
 10
-1402.73095703125
 20
-49.175004482269287
 10
-1402.12841796875
 20
-49.300858974456787
 10
-1401.455078125
 20
-49.447831630706787
  0
SPLINE
  5
71
100
AcDbEntity
  8
layer0
 62
256
370
-1
 48
1.0
  6
BYLAYER
100
AcDbSpline
 70
8
 71
3
 72
36
 73
32
 74
0
 40
0.0
 40
0.0
 40
0.0
 40
0.0
 40
0.125
 40
0.125
 40
0.125
 40
0.125
 40
0.25
 40
0.25
 40
0.25
 40
0.25
 40
0.375
 40
0.375
 40
0.375
 40
0.375
 40
0.5
 40
0.5
 40
0.5
 40
0.5
 40
0.625
 40
0.625
 40
0.625
 40
0.625
 40
0.75
 40
0.75
 40
0.75
 40
0.75
 40
0.875
 40
0.875
 40
0.875
 40
0.875
 40
1.0
 40
1.0
 40
1.0
 40
1.0
 10
-1401.455078125
 20
-49.447831630706787
 30
0.0
 10
-1401.105224609375
 20
-49.526933193206787
 30
0.0
 10
-1400.70361328125
 20
-49.624467372894287
 30
0.0
 10
-1400.354736328125
 20
-49.715043544769287
 30
0.0
 10
-1400.354736328125
 20
-49.715043544769287
 30
0.0
 10
-1397.990966796875
 20
-50.328691005706787
 30
0.0
 10
-1395.628173828125
 20
-50.956986904144287
 30
0.0
 10
-1393.2716064453125
 20
-51.598039150238037
 30
0.0
 10
-1393.2716064453125
 20
-51.598039150238037
 30
0.0
 10
-1389.6605224609375
 20
-52.580338954925537
 30
0.0
 10
-1386.055908203125
 20
-53.856217861175537
 30
0.0
 10
-1382.5361328125
 20
-55.128129482269287
 30
0.0
 10
-1382.5361328125
 20
-55.128129482269287
 30
0.0
 10
-1382.196533203125
 20
-55.250871181488037
 30
0.0
 10
-1381.814697265625
 20
-55.396073818206787
 30
0.0
 10
-1381.4779052734375
 20
-55.530595302581787
 30
0.0
 10
-1381.4779052734375
 20
-55.530595302581787
 30
0.0
 10
-1378.903076171875
 20
-56.559098720550537
 30
0.0
 10
-1376.2884521484375
 20
-57.550004482269287
 30
0.0
 10
-1373.76123046875
 20
-58.690385341644287
 30
0.0
 10
-1373.76123046875
 20
-58.690385341644287
 30
0.0
 10
-1371.233154296875
 20
-59.831193447113037
 30
0.0
 10
-1368.6944580078125
 20
-61.089066982269287
 30
0.0
 10
-1366.26220703125
 20
-62.421891689300537
 30
0.0
 10
-1366.26220703125
 20
-62.421891689300537
 30
0.0
 10
-1359.808349609375
 20
-65.958268642425537
 30
0.0
 10
-1353.83056640625
 20
-70.252152919769287
 30
0.0
 10
-1348.13037109375
 20
-74.884843349456787
 30
0.0
 10
-1348.13037109375
 20
-74.884843349456787
 30
0.0
 10
-1347.163818359375
 20
-75.670487880706787
 30
0.0
 10
-1346.1822509765625
 20
-76.440629482269287
 30
0.0
 10
-1345.23583984375
 20
-77.250627040863037
 30
0.0
  0
LINE
  5
72
100
AcDbEntity
  8
layer0
 62
256
370
-1
 48
1.0
  6
BYLAYER
100
AcDbLine
 10
-1345.23583984375
 20
-77.250627040863037
 30
0.0
 11
-1344.858154296875
 21
-77.578141689300537
 31
0.0
  0
SPLINE
  5
73
100
AcDbEntity
  8
layer0
 62
256
370
-1
 48
1.0
  6
BYLAYER
100
AcDbSpline
 70
8
 71
3
 72
16
 73
12
 74
0
 40
0.0
 40
0.0
 40
0.0
 40
0.0
 40
0.3333333432674408
 40
0.3333333432674408
 40
0.3333333432674408
 40
0.3333333432674408
 40
0.6666666865348816
 40
0.6666666865348816
 40
0.6666666865348816
 40
0.6666666865348816
 40
1.0
 40
1.0
 40
1.0
 40
1.0
 10
-1344.858154296875
 20
-77.578141689300537
 30
0.0
 10
-1342.9879150390625
 20
-79.217729091644287
 30
0.0
 10
-1341.1263427734375
 20
-80.883988857269287
 30
0.0
 10
-1339.310791015625
 20
-82.583878993988037
 30
0.0
 10
-1339.310791015625
 20
-82.583878993988037
 30
0.0
 10
-1337.3800048828125
 20
-84.391557216644287
 30
0.0
 10
-1335.5028076171875
 20
-86.262406826019287
 30
0.0
 10
-1333.61328125
 20
-88.112992763519287
 30
0.0
 10
-1333.61328125
 20
-88.112992763519287
 30
0.0
 10
-1333.354736328125
 20
-88.366166591644287
 30
0.0
 10
-1333.06396484375
 20
-88.655961513519287
 30
0.0
 10
-1332.81103515625
 20
-88.912553310394287
 30
0.0
  0
LWPOLYLINE
  5
74
100
AcDbEntity
  8
layer0
 62
256
370
-1
 48
1.0
  6
BYLAYER
100
AcDbPolyline
 90
3
 70
0
 10
-1332.81103515625
 20
-88.912553310394287
 10
-1332.3291015625
 20
-89.405534267425537
 10
-1331.9010009765625
 20
-89.847795009613037
  0
SPLINE
  5
75
100
AcDbEntity
  8
layer0
 62
256
370
-1
 48
1.0
  6
BYLAYER
100
AcDbSpline
 70
8
 71
3
 72
8
 73
4
 74
0
 40
0.0
 40
0.0
 40
0.0
 40
0.0
 40
1.0
 40
1.0
 40
1.0
 40
1.0
 10
-1331.9010009765625
 20
-89.847795009613037
 30
0.0
 10
-1293.60888671875
 20
-129.53383016586304
 30
0.0
 10
-1254.556396484375
 20
-168.48225545883179
 30
0.0
 10
-1215.7359619140625
 20
-207.65358114242554
 30
0.0
  0
LWPOLYLINE
  5
76
100
AcDbEntity
  8
layer0
 62
256
370
-1
 48
1.0
  6
BYLAYER
100
AcDbPolyline
 90
3
 70
0
 10
-1215.7359619140625
 20
-207.65358114242554
 10
-1215.3037109375
 20
-208.09181356430054
 10
-1214.8232421875
 20
-208.58607625961304
  0
SPLINE
  5
77
100
AcDbEntity
  8
layer0
 62
256
370
-1
 48
1.0
  6
BYLAYER
100
AcDbSpline
 70
8
 71
3
 72
12
 73
8
 74
0
 40
0.0
 40
0.0
 40
0.0
 40
0.0
 40
0.5
 40
0.5
 40
0.5
 40
0.5
 40
1.0
 40
1.0
 40
1.0
 40
1.0
 10
-1214.8232421875
 20
-208.58607625961304
 30
0.0
 10
-1214.574951171875
 20
-208.84468221664429
 30
0.0
 10
-1214.2923583984375
 20
-209.14692831039429
 30
0.0
 10
-1214.0498046875
 20
-209.41316366195679
 30
0.0
 10
-1214.0498046875
 20
-209.41316366195679
 30
0.0
 10
-1212.369384765625
 20
-211.25764608383179
 30
0.0
 10
-1210.671630859375
 20
-213.09675741195679
 30
0.0
 10
-1209.034423828125
 20
-214.97963094711304
 30
0.0
  0
LINE
  5
78
100
AcDbEntity
  8
layer0
 62
256
370
-1
 48
1.0
  6
BYLAYER
100
AcDbLine
 10
-1209.034423828125
 20
-214.97963094711304
 30
0.0
 11
-1208.7093505859375
 21
-215.35908651351929
 31
0.0
  0
SPLINE
  5
79
100
AcDbEntity
  8
layer0
 62
256
370
-1
 48
1.0
  6
BYLAYER
100
AcDbSpline
 70
8
 71
3
 72
8
 73
4
 74
0
 40
0.0
 40
0.0
 40
0.0
 40
0.0
 40
1.0
 40
1.0
 40
1.0
 40
1.0
 10
-1208.7093505859375
 20
-215.35908651351929
 30
0.0
 10
-1207.533935546875
 20
-216.75605916976929
 30
0.0
 10
-1206.4681396484375
 20
-218.24318075180054
 30
0.0
 10
-1205.3193359375
 20
-219.66182088851929
 30
0.0
  0
LWPOLYLINE
  5
7A
100
AcDbEntity
  8
layer0
 62
256
370
-1
 48
1.0
  6
BYLAYER
100
AcDbPolyline
 90
3
 70
0
 10
-1205.3193359375
 20
-219.66182088851929
 10
-1205.0618896484375
 20
-219.96705770492554
 10
-1204.7481689453125
 20
-220.36500692367554
  0
SPLINE
  5
7B
100
AcDbEntity
  8
layer0
 62
256
370
-1
 48
1.0
  6
BYLAYER
100
AcDbSpline
 70
8
 71
3
 72
28
 73
24
 74
0
 40
0.0
 40
0.0
 40
0.0
 40
0.0
 40
0.1666666716337204
 40
0.1666666716337204
 40
0.1666666716337204
 40
0.1666666716337204
 40
0.3333333432674408
 40
0.3333333432674408
 40
0.3333333432674408
 40
0.3333333432674408
 40
0.5000000149011612
 40
0.5000000149011612
 40
0.5000000149011612
 40
0.5000000149011612
 40
0.6666666865348816
 40
0.6666666865348816
 40
0.6666666865348816
 40
0.6666666865348816
 40
0.833333358168602
 40
0.833333358168602
 40
0.833333358168602
 40
0.833333358168602
 40
1.0
 40
1.0
 40
1.0
 40
1.0
 10
-1204.7481689453125
 20
-220.36500692367554
 30
0.0
 10
-1202.7642822265625
 20
-222.98347616195679
 30
0.0
 10
-1201.029541015625
 20
-225.87666463851929
 30
0.0
 10
-1199.5516357421875
 20
-228.80555868148804
 30
0.0
 10
-1199.5516357421875
 20
-228.80555868148804
 30
0.0
 10
-1198.65478515625
 20
-230.58302450180054
 30
0.0
 10
-1197.8544921875
 20
-232.42439413070679
 30
0.0
 10
-1197.16015625
 20
-234.29048299789429
 30
0.0
 10
-1197.16015625
 20
-234.29048299789429
 30
0.0
 10
-1197.076904296875
 20
-234.51417684555054
 30
0.0
 10
-1196.786376953125
 20
-235.33644247055054
 30
0.0
 10
-1196.7098388671875
 20
-235.56434774398804
 30
0.0
 10
-1196.7098388671875
 20
-235.56434774398804
 30
0.0
 10
-1196.306640625
 20
-236.76509237289429
 30
0.0
 10
-1195.94580078125
 20
-237.99067831039429
 30
0.0
 10
-1195.62841796875
 20
-239.21681356430054
 30
0.0
 10
-1195.62841796875
 20
-239.21681356430054
 30
0.0
 10
-1195.57080078125
 20
-239.43885946273804
 30
0.0
 10
-1195.38623046875
 20
-240.19990682601929
 30
0.0
 10
-1195.3355712890625
 20
-240.42353963851929
 30
0.0
 10
-1195.3355712890625
 20
-240.42353963851929
 30
0.0
 10
-1194.244384765625
 20
-245.24275350570679
 30
0.0
 10
-1193.8115234375
 20
-250.24366903305054
 30
0.0
 10
-1193.700439453125
 20
-255.17738485336304
 30
0.0
  0
LWPOLYLINE
  5
7C
100
AcDbEntity
  8
layer0
 62
256
370
-1
 48
1.0
  6
BYLAYER
100
AcDbPolyline
 90
3
 70
0
 10
-1193.700439453125
 20
-255.17738485336304
 10
-1193.6943359375
 20
-255.68287801742554
 10
-1193.696533203125
 20
-256.07966756820679
  0
SPLINE
  5
7D
100
AcDbEntity
  8
layer0
 62
256
370
-1
 48
1.0
  6
BYLAYER
100
AcDbSpline
 70
8
 71
3
 72
12
 73
8
 74
0
 40
0.0
 40
0.0
 40
0.0
 40
0.0
 40
0.5
 40
0.5
 40
0.5
 40
0.5
 40
1.0
 40
1.0
 40
1.0
 40
1.0
 10
-1193.696533203125
 20
-256.07966756820679
 30
0.0
 10
-1193.687255859375
 20
-257.91475057601929
 30
0.0
 10
-1193.639892578125
 20
-259.74983358383179
 30
0.0
 10
-1193.61865234375
 20
-261.58485555648804
 30
0.0
 10
-1193.61865234375
 20
-261.58485555648804
 30
0.0
 10
-1193.614501953125
 20
-261.94905233383179
 30
0.0
 10
-1193.6121826171875
 20
-262.35456991195679
 30
0.0
 10
-1193.6123046875
 20
-262.71748495101929
 30
0.0
  0
LWPOLYLINE
  5
7E
100
AcDbEntity
  8
layer0
 62
256
370
-1
 48
1.0
  6
BYLAYER
100
AcDbPolyline
 90
3
 70
0
 10
-1193.6123046875
 20
-262.71748495101929
 10
-1193.6146240234375
 20
-263.40693807601929
 10
-1193.6187744140625
 20
-264.02247762680054
  0
SPLINE
  5
7F
100
AcDbEntity
  8
layer0
 62
256
370
-1
 48
1.0
  6
BYLAYER
100
AcDbSpline
 70
8
 71
3
 72
68
 73
64
 74
0
 40
0.0
 40
0.0
 40
0.0
 40
0.0
 40
0.0625
 40
0.0625
 40
0.0625
 40
0.0625
 40
0.125
 40
0.125
 40
0.125
 40
0.125
 40
0.1875
 40
0.1875
 40
0.1875
 40
0.1875
 40
0.25
 40
0.25
 40
0.25
 40
0.25
 40
0.3125
 40
0.3125
 40
0.3125
 40
0.3125
 40
0.375
 40
0.375
 40
0.375
 40
0.375
 40
0.4375
 40
0.4375
 40
0.4375
 40
0.4375
 40
0.5
 40
0.5
 40
0.5
 40
0.5
 40
0.5625
 40
0.5625
 40
0.5625
 40
0.5625
 40
0.625
 40
0.625
 40
0.625
 40
0.625
 40
0.6875
 40
0.6875
 40
0.6875
 40
0.6875
 40
0.75
 40
0.75
 40
0.75
 40
0.75
 40
0.8125
 40
0.8125
 40
0.8125
 40
0.8125
 40
0.875
 40
0.875
 40
0.875
 40
0.875
 40
0.9375
 40
0.9375
 40
0.9375
 40
0.9375
 40
1.0
 40
1.0
 40
1.0
 40
1.0
 10
-1193.6187744140625
 20
-264.02247762680054
 30
0.0
 10
-1193.835205078125
 20
-291.67811727523804
 30
0.0
 10
-1193.434814453125
 20
-319.22206258773804
 30
0.0
 10
-1192.75732421875
 20
-346.87104940414429
 30
0.0
 10
-1192.75732421875
 20
-346.87104940414429
 30
0.0
 10
-1192.7523193359375
 20
-347.07844686508179
 30
0.0
 10
-1192.744873046875
 20
-347.41340780258179
 30
0.0
 10
-1192.7406005859375
 20
-347.62080526351929
 30
0.0
 10
-1192.7406005859375
 20
-347.62080526351929
 30
0.0
 10
-1192.408447265625
 20
-364.07380819320679
 30
0.0
 10
-1192.4483642578125
 20
-380.52449178695679
 30
0.0
 10
-1192.042724609375
 20
-396.97731161117554
 30
0.0
 10
-1192.042724609375
 20
-396.97731161117554
 30
0.0
 10
-1192.032470703125
 20
-397.39619588851929
 30
0.0
 10
-1192.0216064453125
 20
-397.66401815414429
 30
0.0
 10
-1192.01318359375
 20
-398.07130575180054
 30
0.0
 10
-1192.01318359375
 20
-398.07130575180054
 30
0.0
 10
-1191.9554443359375
 20
-400.87806844711304
 30
0.0
 10
-1192.060546875
 20
-403.70637655258179
 30
0.0
 10
-1192.3060302734375
 20
-406.50258016586304
 30
0.0
 10
-1192.3060302734375
 20
-406.50258016586304
 30
0.0
 10
-1192.320068359375
 20
-406.66291952133179
 30
0.0
 10
-1192.386962890625
 20
-407.34144735336304
 30
0.0
 10
-1192.404541015625
 20
-407.50251913070679
 30
0.0
 10
-1192.404541015625
 20
-407.50251913070679
 30
0.0
 10
-1192.6470947265625
 20
-409.71907186508179
 30
0.0
 10
-1193.019775390625
 20
-411.93068075180054
 30
0.0
 10
-1193.55859375
 20
-414.09504842758179
 30
0.0
 10
-1193.55859375
 20
-414.09504842758179
 30
0.0
 10
-1193.59619140625
 20
-414.24592733383179
 30
0.0
 10
-1193.736083984375
 20
-414.77815389633179
 30
0.0
 10
-1193.77783203125
 20
-414.92866659164429
 30
0.0
 10
-1193.77783203125
 20
-414.92866659164429
 30
0.0
 10
-1194.0791015625
 20
-416.01558065414429
 30
0.0
 10
-1194.423583984375
 20
-417.09742879867554
 30
0.0
 10
-1194.8189697265625
 20
-418.15376424789429
 30
0.0
 10
-1194.8189697265625
 20
-418.15376424789429
 30
0.0
 10
-1195.114501953125
 20
-418.94355916976929
 30
0.0
 10
-1195.43701171875
 20
-419.72895956039429
 30
0.0
 10
-1195.784912109375
 20
-420.49708700180054
 30
0.0
 10
-1195.784912109375
 20
-420.49708700180054
 30
0.0
 10
-1195.84521484375
 20
-420.63002157211304
 30
0.0
 10
-1196.0791015625
 20
-421.12739706039429
 30
0.0
 10
-1196.1431884765625
 20
-421.25862264633179
 30
0.0
 10
-1196.1431884765625
 20
-421.25862264633179
 30
0.0
 10
-1196.510498046875
 20
-422.01112508773804
 30
0.0
 10
-1196.906494140625
 20
-422.75642538070679
 30
0.0
 10
-1197.328125
 20
-423.47999715805054
 30
0.0
 10
-1197.328125
 20
-423.47999715805054
 30
0.0
 10
-1197.880615234375
 20
-424.42854452133179
 30
0.0
 10
-1198.488525390625
 20
-425.36128377914429
 30
0.0
 10
-1199.141845703125
 20
-426.24379110336304
 30
0.0
 10
-1199.141845703125
 20
-426.24379110336304
 30
0.0
 10
-1199.234130859375
 20
-426.36860799789429
 30
0.0
 10
-1199.569091796875
 20
-426.80238485336304
 30
0.0
 10
-1199.66552734375
 20
-426.92189168930054
 30
0.0
 10
-1199.66552734375
 20
-426.92189168930054
 30
0.0
 10
-1203.13330078125
 20
-431.22151327133179
 30
0.0
 10
-1207.6204833984375
 20
-434.55378866195679
 30
0.0
 10
-1212.4638671875
 20
-437.14888143539429
 30
0.0
 10
-1212.4638671875
 20
-437.14888143539429
 30
0.0
 10
-1216.25830078125
 20
-439.18190145492554
 30
0.0
 10
-1220.3023681640625
 20
-440.87648153305054
 30
0.0
 10
-1224.426025390625
 20
-442.12477254867554
 30
0.0
  0
LWPOLYLINE
  5
80
100
AcDbEntity
  8
layer0
 62
256
370
-1
 48
1.0
  6
BYLAYER
100
AcDbPolyline
 90
3
 70
0
 10
-1224.426025390625
 20
-442.12477254867554
 10
-1224.914306640625
 20
-442.26533651351929
 10
-1225.309326171875
 20
-442.36934041976929
  0
SPLINE
  5
81
100
AcDbEntity
  8
layer0
 62
256
370
-1
 48
1.0
  6
BYLAYER
100
AcDbSpline
 70
8
 71
3
 72
8
 73
4
 74
0
 40
0.0
 40
0.0
 40
0.0
 40
0.0
 40
1.0
 40
1.0
 40
1.0
 40
1.0
 10
-1225.309326171875
 20
-442.36934041976929
 30
0.0
 10
-1226.9127197265625
 20
-442.81495809555054
 30
0.0
 10
-1228.496826171875
 20
-443.33406209945679
 30
0.0
 10
-1230.10888671875
 20
-443.74818563461304
 30
0.0
  0
LINE
  5
82
100
AcDbEntity
  8
layer0
 62
256
370
-1
 48
1.0
  6
BYLAYER
100
AcDbLine
 10
-1230.10888671875
 20
-443.74818563461304
 30
0.0
 11
-1230.5938720703125
 21
-443.86866903305054
 31
0.0
  0
SPLINE
  5
83
100
AcDbEntity
  8
layer0
 62
256
370
-1
 48
1.0
  6
BYLAYER
100
AcDbSpline
 70
8
 71
3
 72
8
 73
4
 74
0
 40
0.0
 40
0.0
 40
0.0
 40
0.0
 40
1.0
 40
1.0
 40
1.0
 40
1.0
 10
-1230.5938720703125
 20
-443.86866903305054
 30
0.0
 10
-1233.01171875
 20
-444.45259237289429
 30
0.0
 10
-1235.4527587890625
 20
-445.00874471664429
 30
0.0
 10
-1237.8917236328125
 20
-445.49696493148804
 30
0.0
  0
LWPOLYLINE
  5
84
100
AcDbEntity
  8
layer0
 62
256
370
-1
 48
1.0
  6
BYLAYER
100
AcDbPolyline
 90
3
 70
0
 10
-1237.8917236328125
 20
-445.49696493148804
 10
-1238.3824462890625
 20
-445.59217977523804
 10
-1238.8740234375
 20
-445.68257284164429
  0
SPLINE
  5
85
100
AcDbEntity
  8
layer0
 62
256
370
-1
 48
1.0
  6
BYLAYER
100
AcDbSpline
 70
8
 71
3
 72
12
 73
8
 74
0
 40
0.0
 40
0.0
 40
0.0
 40
0.0
 40
0.5
 40
0.5
 40
0.5
 40
0.5
 40
1.0
 40
1.0
 40
1.0
 40
1.0
 10
-1238.8740234375
 20
-445.68257284164429
 30
0.0
 10
-1241.1474609375
 20
-446.09028768539429
 30
0.0
 10
-1243.422607421875
 20
-446.49067831039429
 30
0.0
 10
-1245.6982421875
 20
-446.88551473617554
 30
0.0
 10
-1245.6982421875
 20
-446.88551473617554
 30
0.0
 10
-1246.0501708984375
 20
-446.94654989242554
 30
0.0
 10
-1246.4647216796875
 20
-447.01527547836304
 30
0.0
 10
-1246.815673828125
 20
-447.07069540023804
 30
0.0
  0
LWPOLYLINE
  5
86
100
AcDbEntity
  8
layer0
 62
256
370
-1
 48
1.0
  6
BYLAYER
100
AcDbPolyline
 90
3
 70
0
 10
-1246.815673828125
 20
-447.07069540023804
 10
-1247.4969482421875
 20
-447.17579793930054
 10
-1248.105712890625
 20
-447.26710653305054
  0
SPLINE
  5
87
100
AcDbEntity
  8
layer0
 62
256
370
-1
 48
1.0
  6
BYLAYER
100
AcDbSpline
 70
8
 71
3
 72
60
 73
56
 74
0
 40
0.0
 40
0.0
 40
0.0
 40
0.0
 40
0.0714285746216774
 40
0.0714285746216774
 40
0.0714285746216774
 40
0.0714285746216774
 40
0.1428571492433548
 40
0.1428571492433548
 40
0.1428571492433548
 40
0.1428571492433548
 40
0.2142857238650322
 40
0.2142857238650322
 40
0.2142857238650322
 40
0.2142857238650322
 40
0.2857142984867096
 40
0.2857142984867096
 40
0.2857142984867096
 40
0.2857142984867096
 40
0.357142873108387
 40
0.357142873108387
 40
0.357142873108387
 40
0.357142873108387
 40
0.4285714477300644
 40
0.4285714477300644
 40
0.4285714477300644
 40
0.4285714477300644
 40
0.5000000223517418
 40
0.5000000223517418
 40
0.5000000223517418
 40
0.5000000223517418
 40
0.5714285969734192
 40
0.5714285969734192
 40
0.5714285969734192
 40
0.5714285969734192
 40
0.6428571715950966
 40
0.6428571715950966
 40
0.6428571715950966
 40
0.6428571715950966
 40
0.714285746216774
 40
0.714285746216774
 40
0.714285746216774
 40
0.714285746216774
 40
0.7857143208384514
 40
0.7857143208384514
 40
0.7857143208384514
 40
0.7857143208384514
 40
0.8571428954601288
 40
0.8571428954601288
 40
0.8571428954601288
 40
0.8571428954601288
 40
0.9285714700818062
 40
0.9285714700818062
 40
0.9285714700818062
 40
0.9285714700818062
 40
1.0
 40
1.0
 40
1.0
 40
1.0
 10
-1248.105712890625
 20
-447.26710653305054
 30
0.0
 10
-1279.68310546875
 20
-451.95759725570679
 30
0.0
 10
-1311.48486328125
 20
-455.93452596664429
 30
0.0
 10
-1343.172119140625
 20
-459.61049032211304
 30
0.0
 10
-1343.172119140625
 20
-459.61049032211304
 30
0.0
 10
-1372.08056640625
 20
-462.96412801742554
 30
0.0
 10
-1400.968505859375
 20
-465.39186239242554
 30
0.0
 10
-1429.911865234375
 20
-468.44514608383179
 30
0.0
 10
-1429.911865234375
 20
-468.44514608383179
 30
0.0
 10
-1437.157958984375
 20
-469.20955038070679
 30
0.0
 10
-1444.397216796875
 20
-470.04579305648804
 30
0.0
 10
-1451.6356201171875
 20
-470.88014364242554
 30
0.0
 10
-1451.6356201171875
 20
-470.88014364242554
 30
0.0
 10
-1451.841064453125
 20
-470.90382528305054
 30
0.0
 10
-1452.175048828125
 20
-470.94319295883179
 30
0.0
 10
-1452.38037109375
 20
-470.96803426742554
 30
0.0
 10
-1452.38037109375
 20
-470.96803426742554
 30
0.0
 10
-1452.4788818359375
 20
-470.97993612289429
 30
0.0
 10
-1453.0262451171875
 20
-471.04731893539429
 30
0.0
 10
-1453.124755859375
 20
-471.05964803695679
 30
0.0
 10
-1453.124755859375
 20
-471.05964803695679
 30
0.0
 10
-1477.3232421875
 20
-474.09040975570679
 30
0.0
 10
-1501.38134765625
 20
-478.11238241195679
 30
0.0
 10
-1525.53369140625
 20
-481.47230672836304
 30
0.0
 10
-1525.53369140625
 20
-481.47230672836304
 30
0.0
 10
-1525.617431640625
 20
-481.48396444320679
 30
0.0
 10
-1526.1929931640625
 20
-481.56282186508179
 30
0.0
 10
-1526.2767333984375
 20
-481.57411336898804
 30
0.0
 10
-1526.2767333984375
 20
-481.57411336898804
 30
0.0
 10
-1564.82177734375
 20
-486.78120565414429
 30
0.0
 10
-1603.706787109375
 20
-490.22642660140991
 30
0.0
 10
-1642.489501953125
 20
-492.97786092758179
 30
0.0
 10
-1642.489501953125
 20
-492.97786092758179
 30
0.0
 10
-1642.6934814453125
 20
-492.99232625961304
 30
0.0
 10
-1643.0335693359375
 20
-493.01551961898804
 30
0.0
 10
-1643.2376708984375
 20
-493.02897787094116
 30
0.0
 10
-1643.2376708984375
 20
-493.02897787094116
 30
0.0
 10
-1643.861328125
 20
-493.07008504867554
 30
0.0
 10
-1644.4852294921875
 20
-493.10737752914429
 30
0.0
 10
-1645.1090087890625
 20
-493.14604330062866
 30
0.0
 10
-1645.1090087890625
 20
-493.14604330062866
 30
0.0
 10
-1680.0030517578125
 20
-495.30809164047241
 30
0.0
 10
-1714.682373046875
 20
-497.84248495101929
 30
0.0
 10
-1749.552978515625
 20
-500.20890951156616
 30
0.0
 10
-1749.552978515625
 20
-500.20890951156616
 30
0.0
 10
-1781.0550537109375
 20
-502.34672689437866
 30
0.0
 10
-1812.5955810546875
 20
-503.90660238265991
 30
0.0
 10
-1844.1044921875
 20
-505.94224691390991
 30
0.0
 10
-1844.1044921875
 20
-505.94224691390991
 30
0.0
 10
-1844.5185546875
 20
-505.96901082992554
 30
0.0
 10
-1844.7611083984375
 20
-505.98756551742554
 30
0.0
 10
-1845.16259765625
 20
-506.01237630844116
 30
0.0
 10
-1845.16259765625
 20
-506.01237630844116
 30
0.0
 10
-1847.7763671875
 20
-506.17384481430054
 30
0.0
 10
-1850.3978271484375
 20
-506.24430990219116
 30
0.0
 10
-1853.0159912109375
 20
-506.27165365219116
 30
0.0
  0
ENDSEC
  0
SECTION
  2
OBJECTS
  0
DICTIONARY
  5
C
100
AcDbDictionary
280
0
281
1
  3
ACAD_GROUP
350
D
  3
ACAD_LAYOUT
350
1A
  3
ACAD_MLINESTYLE
350
17
  3
ACAD_PLOTSETTINGS
350
19
  3
ACAD_PLOTSTYLENAME
350
E
  3
AcDbVariableDictionary
350
88
  0
DICTIONARY
  5
D
100
AcDbDictionary
280
0
281
1
  0
ACDBDICTIONARYWDFLT
  5
E
100
AcDbDictionary
281
1
  3
Normal
350
F
100
AcDbDictionaryWithDefault
340
F
  0
ACDBPLACEHOLDER
  5
F
  0
DICTIONARY
  5
17
100
AcDbDictionary
280
0
281
1
  3
Standard
350
18
  0
MLINESTYLE
  5
18
100
AcDbMlineStyle
  2
STANDARD
 70
0
  3

 62
256
 51
90.0
 52
90.0
 71
2
 49
0.5
 62
256
  6
BYLAYER
 49
-0.5
 62
256
  6
BYLAYER
  0
DICTIONARY
  5
19
100
AcDbDictionary
280
0
281
1
  0
DICTIONARY
  5
1A
100
AcDbDictionary
281
1
  3
Layout1
350
1E
  3
Layout2
350
26
  3
Model
350
22
  0
LAYOUT
  5
1E
100
AcDbPlotSettings
  1

  2
none_device
  4

  6

 40
0.0
 41
0.0
 42
0.0
 43
0.0
 44
0.0
 45
0.0
 46
0.0
 47
0.0
 48
0.0
 49
0.0
140
0.0
141
0.0
142
1.0
143
1.0
 70
688
 72
0
 73
0
 74
5
  7

 75
16
147
1.0
148
0.0
149
0.0
100
AcDbLayout
  1
Layout1
 70
1
 71
1
 10
0.0
 20
0.0
 11
420.0
 21
297.0
 12
0.0
 22
0.0
 32
0.0
 14
100000000000000000000.0
 24
100000000000000000000.0
 34
100000000000000000000.0
 15
-100000000000000000000.0
 25
-100000000000000000000.0
 35
-100000000000000000000.0
146
0.0
 13
0.0
 23
0.0
 33
0.0
 16
1.0
 26
0.0
 36
0.0
 17
0.0
 27
1.0
 37
0.0
 76
0
330
1B
  0
LAYOUT
  5
22
100
AcDbPlotSettings
  1

  2
none_device
  4

  6

 40
0.0
 41
0.0
 42
0.0
 43
0.0
 44
0.0
 45
0.0
 46
0.0
 47
0.0
 48
0.0
 49
0.0
140
0.0
141
0.0
142
1.0
143
1.0
 70
1712
 72
0
 73
0
 74
0
  7

 75
0
147
1.0
148
0.0
149
0.0
100
AcDbLayout
  1
Model
 70
1
 71
0
 10
0.0
 20
0.0
 11
12.0
 21
9.0
 12
0.0
 22
0.0
 32
0.0
 14
0.0
 24
0.0
 34
0.0
 15
0.0
 25
0.0
 35
0.0
146
0.0
 13
0.0
 23
0.0
 33
0.0
 16
1.0
 26
0.0
 36
0.0
 17
0.0
 27
1.0
 37
0.0
 76
0
330
1F
  0
LAYOUT
  5
26
100
AcDbPlotSettings
  1

  2
none_device
  4

  6

 40
0.0
 41
0.0
 42
0.0
 43
0.0
 44
0.0
 45
0.0
 46
0.0
 47
0.0
 48
0.0
 49
0.0
140
0.0
141
0.0
142
1.0
143
1.0
 70
688
 72
0
 73
0
 74
5
  7

 75
16
147
1.0
148
0.0
149
0.0
100
AcDbLayout
  1
Layout2
 70
1
 71
2
 10
0.0
 20
0.0
 11
12.0
 21
9.0
 12
0.0
 22
0.0
 32
0.0
 14
0.0
 24
0.0
 34
0.0
 15
0.0
 25
0.0
 35
0.0
146
0.0
 13
0.0
 23
0.0
 33
0.0
 16
1.0
 26
0.0
 36
0.0
 17
0.0
 27
1.0
 37
0.0
 76
0
330
23
  0
DICTIONARY
  5
88
100
AcDbDictionary
281
1
  3
DIMASSOC
350
8A
  3
HIDETEXT
350
89
  0
DICTIONARYVAR
  5
89
100
DictionaryVariables
280
0
  1
2
  0
DICTIONARYVAR
  5
8A
100
DictionaryVariables
280
0
  1
1
  0
ENDSEC
  0
EOF
