  0
SECTION
  2
HEADER
  9
$ACADVER
  1
AC1015
  9
$DWGCODEPAGE
  3
ansi_1252
  9
$INSBASE
 10
0
 20
0
 30
0
  9
$EXTMIN
 10
1788.7418975479954
 20
1.0000038225003971
 30
0
  9
$EXTMAX
 10
2499.0000011
 20
1998.9999992440012
 30
0
  9
$LIMMIN
 10
0
 20
0
  9
$LIMMAX
 10
12
 20
9
  9
$SNAPMODE
 70
0
  9
$SNAPUNIT
 10
1
 20
1
  9
$SNAPBASE
 10
0
 20
0
  9
$SNAPANG
 50
0
  9
$SNAPSTYLE
 70
0
  9
$SNAPISOPAIR
 70
0
  9
$ORTHOMODE
 70
0
  9
$REGENMODE
 70
1
  9
$FILLMODE
 70
1
  9
$QTEXTMODE
 70
0
  9
$MIRRTEXT
 70
1
  9
$LTSCALE
 40
1
  9
$OSMODE
 70
0
  9
$ATTMODE
 70
1
  9
$TEXTSIZE
 40
0.2
  9
$TRACEWID
 40
0.05
  9
$TEXTSTYLE
  7
Standard
  9
$CLAYER
  8
0
  9
$CELTYPE
  6
ByLayer
  9
$CECOLOR
 62
256
  9
$CELTSCALE
 40
1
  9
$DISPSILH
 70
0
  9
$DIMSCALE
 40
1
  9
$DIMASZ
 40
0.18
  9
$DIMEXO
 40
0.0625
  9
$DIMDLI
 40
0.38
  9
$DIMRND
 40
0
  9
$DIMDLE
 40
0
  9
$DIMEXE
 40
0.18
  9
$DIMTP
 40
0
  9
$DIMTM
 40
0
  9
$DIMTXT
 40
0.18
  9
$DIMCEN
 40
0.09
  9
$DIMTSZ
 40
0
  9
$DIMTOL
 70
0
  9
$DIMLIM
 70
0
  9
$DIMTIH
 70
1
  9
$DIMTOH
 70
1
  9
$DIMSE1
 70
0
  9
$DIMSE2
 70
0
  9
$DIMTAD
 70
0
  9
$DIMZIN
 70
0
  9
$DIMBLK
  1

  9
$DIMASO
 70
1
  9
$DIMSHO
 70
1
  9
$DIMPOST
  1

  9
$DIMAPOST
  1

  9
$DIMALT
 70
0
  9
$DIMALTD
 70
2
  9
$DIMALTF
 40
0.03937007874015748
  9
$DIMLFAC
 40
1
  9
$DIMTOFL
 70
0
  9
$DIMTVP
 40
0
  9
$DIMTIX
 70
0
  9
$DIMSOXD
 70
0
  9
$DIMSAH
 70
0
  9
$DIMBLK1
  1

  9
$DIMBLK2
  1

  9
$DIMSTYLE
  2
Standard
  9
$DIMCLRD
 70
0
  9
$DIMCLRE
 70
0
  9
$DIMCLRT
 70
0
  9
$DIMTFAC
 40
1
  9
$DIMGAP
 40
0.09
  9
$DIMJUST
 70
0
  9
$DIMSD1
 70
0
  9
$DIMSD2
 70
0
  9
$DIMTOLJ
 70
1
  9
$DIMTZIN
 70
0
  9
$DIMALTZ
 70
0
  9
$DIMALTTZ
 70
0
  9
$DIMUPT
 70
0
  9
$DIMDEC
 70
4
  9
$DIMTDEC
 70
4
  9
$DIMALTU
 70
2
  9
$DIMALTTD
 70
0
  9
$DIMTXSTY
  7
Standard
  9
$DIMAUNIT
 70
0
  9
$DIMADEC
 70
0
  9
$DIMALTRND
 40
0
  9
$DIMAZIN
 70
0
  9
$DIMDSEP
 70
46
  9
$DIMATFIT
 70
0
  9
$DIMFRAC
 70
0
  9
$DIMLDRBLK
  1

  9
$DIMLUNIT
 70
2
  9
$DIMLWD
 70
-2
  9
$DIMLWE
 70
-2
  9
$LUNITS
 70
2
  9
$LUPREC
 70
4
  9
$SKETCHINC
 40
0.1
  9
$FILLETRAD
 40
0
  9
$AUNITS
 70
0
  9
$AUPREC
 70
0
  9
$MENU
  1
.
  9
$ELEVATION
 40
0
  9
$PELEVATION
 40
0
  9
$THICKNESS
 40
0
  9
$LIMCHECK
 70
0
  9
$CHAMFERA
 40
0.5
  9
$CHAMFERB
 40
0.5
  9
$CHAMFERC
 40
0
  9
$CHAMFERD
 40
0
  9
$SKPOLY
 70
0
  9
$TDCREATE
 40
2460962.93936191
  9
$TDUCREATE
 40
2460962.8976952429
  9
$TDUPDATE
 40
2460962.93936191
  9
$TDUUPDATE
 40
2460962.8976952429
  9
$TDINDWG
 40
0
  9
$TDUSRTIMER
 40
1.1574074074074074E-08
  9
$USRTIMER
 70
1
  9
$ANGBASE
 50
0
  9
$ANGDIR
 70
1
  9
$PDMODE
 70
0
  9
$PDSIZE
 40
0
  9
$PLINEWID
 40
0
  9
$SPLFRAME
 70
0
  9
$SPLINETYPE
 70
6
  9
$SPLINESEGS
 70
8
  9
$HANDSEED
  5
57
  9
$SURFTAB1
 70
6
  9
$SURFTAB2
 70
6
  9
$SURFTYPE
 70
6
  9
$SURFU
 70
6
  9
$SURFV
 70
6
  9
$UCSORG
 10
0
 20
0
 30
0
  9
$UCSXDIR
 10
1
 20
0
 30
0
  9
$UCSYDIR
 10
0
 20
1
 30
0
  9
$UCSORTHOREF
  2

  9
$UCSORTHOVIEW
 70
0
  9
$UCSORGTOP
 10
0
 20
0
 30
0
  9
$UCSORGBOTTOM
 10
0
 20
0
 30
0
  9
$UCSORGLEFT
 10
0
 20
0
 30
0
  9
$UCSORGRIGHT
 10
0
 20
0
 30
0
  9
$UCSORGFRONT
 10
0
 20
0
 30
0
  9
$UCSORGBACK
 10
0
 20
0
 30
0
  9
$PUCSORG
 10
0
 20
0
 30
0
  9
$PUCSXDIR
 10
1
 20
0
 30
0
  9
$PUCSYDIR
 10
0
 20
1
 30
0
  9
$PUCSORTHOREF
  2

  9
$PUCSORTHOVIEW
 70
0
  9
$PUCSORGTOP
 10
0
 20
0
 30
0
  9
$PUCSORGBOTTOM
 10
0
 20
0
 30
0
  9
$PUCSORGLEFT
 10
0
 20
0
 30
0
  9
$PUCSORGRIGHT
 10
0
 20
0
 30
0
  9
$PUCSORGFRONT
 10
0
 20
0
 30
0
  9
$PUCSORGBACK
 10
0
 20
0
 30
0
  9
$USERI1
 70
0
  9
$USERI2
 70
0
  9
$USERI3
 70
0
  9
$USERI4
 70
0
  9
$USERI5
 70
0
  9
$USERR1
 40
0
  9
$USERR2
 40
0
  9
$USERR3
 40
0
  9
$USERR4
 40
0
  9
$USERR5
 40
0
  9
$WORLDVIEW
 70
1
  9
$SHADEDGE
 70
3
  9
$SHADEDIF
 70
70
  9
$TILEMODE
 70
1
  9
$MAXACTVP
 70
48
  9
$PINSBASE
 10
0
 20
0
 30
0
  9
$PLIMCHECK
 70
0
  9
$PEXTMIN
 10
1E+20
 20
1E+20
 30
1E+20
  9
$PEXTMAX
 10
-1E+20
 20
-1E+20
 30
-1E+20
  9
$PLIMMAX
 10
0
 20
0
  9
$PLIMMIN
 10
0
 20
0
  9
$UNITMODE
 70
0
  9
$VISRETAIN
 70
1
  9
$PLINEGEN
 70
1
  9
$PSLTSCALE
 70
1
  9
$TREEDEPTH
 70
3020
  9
$CMLSTYLE
  2
STANDARD
  9
$CMLJUST
 70
0
  9
$CMLSCALE
 40
1
  9
$PROXYGRAPHICS
 70
1
  9
$MEASUREMENT
 70
1
  9
$CELWEIGHT
370
-1
  9
$ENDCAPS
280
0
  9
$JOINSTYLE
280
0
  9
$LWDISPLAY
290
1
  9
$INSUNITS
 70
4
  9
$HYPERLINKBASE
  1

  9
$XEDIT
290
1
  9
$CEPSNTYPE
380
0
  9
$PSTYLEMODE
290
0
  9
$FINGERPRINTGUID
  2

  9
$VERSIONGUID
  2

  9
$EXTNAMES
290
1
  9
$PSVPSCALE
 40
0
  9
$CSHADOW
280
0
  9
$SHADOWPLANELOCATION
 40
0
  0
ENDSEC
  0
SECTION
  2
CLASSES
  0
CLASS
  1
RASTERVARIABLES
  2
AcDbRasterVariables
  3
ISM
 90
0
280
0
281
0
  0
CLASS
  1
IMAGEDEF
  2
AcDbRasterImageDef
  3
ISM
 90
0
280
0
281
0
  0
CLASS
  1
IMAGEDEF_REACTOR
  2
AcDbRasterImageDefReactor
  3
ISM
 90
1
280
0
281
0
  0
CLASS
  1
IMAGE
  2
AcDbRasterImage
  3
ISM
 90
127
280
0
281
1
  0
CLASS
  1
ACAD_EVALUATION_GRAPH
  2
AcDbEvalGraph
  3
ObjectDBX Classes
 90
1153
280
0
281
0
  0
CLASS
  1
BLOCKPOINTPARAMETER
  2
AcDbBlockPointParameter
  3
ObjectDBX Classes
 90
1153
280
0
281
0
  0
CLASS
  1
BLOCKBASEPOINTPARAMETER
  2
AcDbBlockBasepointParameter
  3
ObjectDBX Classes
 90
1153
280
0
281
0
  0
CLASS
  1
BLOCKLOOKUPPARAMETER
  2
AcDbBlockLookupParameter
  3
ObjectDBX Classes
 90
1153
280
0
281
0
  0
CLASS
  1
BLOCKVISIBILITYPARAMETER
  2
AcDbBlockVisibilityParameter
  3
ObjectDBX Classes
 90
1153
280
0
281
0
  0
CLASS
  1
BLOCKPROPERTIESTABLE
  2
AcDbBlockPropertiesTable
  3
ObjectDBX Classes
 90
1153
280
0
281
0
  0
CLASS
  1
BLOCKPOLARPARAMETER
  2
AcDbBlockPolarParameter
  3
ObjectDBX Classes
 90
1153
280
0
281
0
  0
CLASS
  1
BLOCKROTATIONPARAMETER
  2
AcDbBlockRotationParameter
  3
ObjectDBX Classes
 90
1153
280
0
281
0
  0
CLASS
  1
BLOCKLINEARPARAMETER
  2
AcDbBlockLinearParameter
  3
ObjectDBX Classes
 90
1153
280
0
281
0
  0
CLASS
  1
BLOCKXYPARAMETER
  2
AcDbBlockXYParameter
  3
ObjectDBX Classes
 90
1153
280
0
281
0
  0
CLASS
  1
BLOCKFLIPPARAMETER
  2
AcDbBlockFlipParameter
  3
ObjectDBX Classes
 90
1153
280
0
281
0
  0
CLASS
  1
BLOCKALIGNMENTPARAMETER
  2
AcDbBlockAlignmentParameter
  3
ObjectDBX Classes
 90
1153
280
0
281
0
  0
CLASS
  1
BLOCKROTATEACTION
  2
AcDbBlockRotateAction
  3
ObjectDBX Classes
 90
1153
280
0
281
0
  0
CLASS
  1
BLOCKSCALEACTION
  2
AcDbBlockScaleAction
  3
ObjectDBX Classes
 90
1153
280
0
281
0
  0
CLASS
  1
BLOCKARRAYACTION
  2
AcDbBlockArrayAction
  3
ObjectDBX Classes
 90
1153
280
0
281
0
  0
CLASS
  1
BLOCKFLIPACTION
  2
AcDbBlockFlipAction
  3
ObjectDBX Classes
 90
1153
280
0
281
0
  0
CLASS
  1
BLOCKLOOKUPACTION
  2
AcDbBlockLookupAction
  3
ObjectDBX Classes
 90
1153
280
0
281
0
  0
CLASS
  1
BLOCKMOVEACTION
  2
AcDbBlockMoveAction
  3
ObjectDBX Classes
 90
1153
280
0
281
0
  0
CLASS
  1
BLOCKPOLARSTRETCHACTION
  2
AcDbBlockPolarStretchAction
  3
ObjectDBX Classes
 90
1153
280
0
281
0
  0
CLASS
  1
BLOCKSTRETCHACTION
  2
AcDbBlockStretchAction
  3
ObjectDBX Classes
 90
1153
280
0
281
0
  0
CLASS
  1
BLOCKALIGNMENTGRIP
  2
AcDbBlockAlignmentGrip
  3
ObjectDBX Classes
 90
1153
280
0
281
0
  0
CLASS
  1
BLOCKFLIPGRIP
  2
AcDbBlockFlipGrip
  3
ObjectDBX Classes
 90
1153
280
0
281
0
  0
CLASS
  1
ACDB_BLOCKREPRESENTATION_DATA
  2
AcDbBlockRepresentationData
  3
ObjectDBX Classes
 90
1153
280
0
281
0
  0
CLASS
  1
ACDB_DYNAMICBLOCKPURGEPREVENTER_VERSION
  2
AcDbDynamicBlockPurgePreventer
  3
ObjectDBX Classes
 90
1153
280
0
281
0
  0
CLASS
  1
BLOCKLINEARGRIP
  2
AcDbBlockLinearGrip
  3
ObjectDBX Classes
 90
1153
280
0
281
0
  0
CLASS
  1
BLOCKLOOKUPGRIP
  2
AcDbBlockLookupGrip
  3
ObjectDBX Classes
 90
1153
280
0
281
0
  0
CLASS
  1
BLOCKPOLARGRIP
  2
AcDbBlockPolarGrip
  3
ObjectDBX Classes
 90
1153
280
0
281
0
  0
CLASS
  1
BLOCKPROPERTIESTABLEGRIP
  2
AcDbBlockPropertiesTableGrip
  3
ObjectDBX Classes
 90
1153
280
0
281
0
  0
CLASS
  1
BLOCKROTATIONGRIP
  2
AcDbBlockRotationGrip
  3
ObjectDBX Classes
 90
1153
280
0
281
0
  0
CLASS
  1
BLOCKVISIBILITYGRIP
  2
AcDbBlockVisibilityGrip
  3
ObjectDBX Classes
 90
1153
280
0
281
0
  0
CLASS
  1
BLOCKXYGRIP
  2
AcDbBlockXYGrip
  3
ObjectDBX Classes
 90
1153
280
0
281
0
  0
CLASS
  1
BLOCKGRIPLOCATIONCOMPONENT
  2
AcDbBlockGripExpr
  3
ObjectDBX Classes
 90
1153
280
0
281
0
  0
CLASS
  1
ACDB_DYNAMICBLOCKPROXYNODE
  2
AcDbDynamicBlockProxyNode
  3
ObjectDBX Classes
 90
1153
280
0
281
0
  0
CLASS
  1
BLOCKLINEARCONSTRAINTPARAMETER
  2
AcDbBlockLinearConstraintParameter
  3
ObjectDBX Classes
 90
1153
280
0
281
0
  0
CLASS
  1
BLOCKHORIZONTALCONSTRAINTPARAMETER
  2
AcDbBlockHorizontalConstraintParameter
  3
ObjectDBX Classes
 90
1153
280
0
281
0
  0
CLASS
  1
BLOCKVERTICALCONSTRAINTPARAMETER
  2
AcDbBlockVerticalConstraintParameter
  3
ObjectDBX Classes
 90
1153
280
0
281
0
  0
CLASS
  1
BLOCKALIGNEDCONSTRAINTPARAMETER
  2
AcDbBlockAlignedConstraintParameter
  3
ObjectDBX Classes
 90
1153
280
0
281
0
  0
CLASS
  1
BLOCKANGULARCONSTRAINTPARAMETER
  2
AcDbBlockAngularConstraintParameter
  3
ObjectDBX Classes
 90
1153
280
0
281
0
  0
CLASS
  1
BLOCKDIAMETRICCONSTRAINTPARAMETER
  2
AcDbBlockDiametricConstraintParameter
  3
ObjectDBX Classes
 90
1153
280
0
281
0
  0
CLASS
  1
BLOCKRADIALCONSTRAINTPARAMETER
  2
AcDbBlockRadialConstraintParameter
  3
ObjectDBX Classes
 90
1153
280
0
281
0
  0
ENDSEC
  0
SECTION
  2
TABLES
  0
TABLE
  2
VPORT
  5
8
330
0
100
AcDbSymbolTable
 70
1
  0
VPORT
  5
32
330
8
100
AcDbSymbolTableRecord
100
AcDbViewportTableRecord
  2
*Active
 70
64
 10
0
 20
0
 11
1
 21
1
 12
2143.8709493239976
 22
1000.0000015332508
 13
0
 23
0
 14
1
 24
1
 15
0
 25
0
 16
0
 26
0
 36
1
 17
0
 27
0
 37
0
 40
1997.9999954215007
 41
0.35548453712692213
 42
50
 43
0
 44
0
 50
0
 51
0
 71
0
 72
20000
 73
20000
 74
1
 75
0
 76
0
 77
0
 78
0
281
0
 65
1
110
0
120
0
130
0
111
1
121
0
131
0
112
0
122
1
132
0
 79
0
146
0
  0
ENDTAB
  0
TABLE
  2
LTYPE
  5
5
100
AcDbSymbolTable
 70
3
  0
LTYPE
  5
16
330
5
100
AcDbSymbolTableRecord
100
AcDbLinetypeTableRecord
  2
Continuous
  3
Solid line
 70
64
 72
65
 73
0
 40
0
  0
LTYPE
  5
14
330
5
100
AcDbSymbolTableRecord
100
AcDbLinetypeTableRecord
  2
ByBlock
  3

 70
64
 72
65
 73
0
 40
0
  0
LTYPE
  5
15
330
5
100
AcDbSymbolTableRecord
100
AcDbLinetypeTableRecord
  2
ByLayer
  3

 70
64
 72
65
 73
0
 40
0
  0
ENDTAB
  0
TABLE
  2
LAYER
  5
2
100
AcDbSymbolTable
 70
2
  0
LAYER
  5
10
330
2
100
AcDbSymbolTableRecord
100
AcDbLayerTableRecord
 70
64
  2
0
 62
7
  6
Continuous
370
-3
390
F
  0
LAYER
  5
27
330
2
100
AcDbSymbolTableRecord
100
AcDbLayerTableRecord
 70
64
  2
DEFPOINTS
 62
7
  6
Continuous
290
0
370
-3
390
F
  0
ENDTAB
  0
TABLE
  2
STYLE
  5
3
100
AcDbSymbolTable
 70
1
  0
STYLE
  5
11
330
3
100
AcDbSymbolTableRecord
100
AcDbTextStyleTableRecord
  2
Standard
 70
64
 40
0
 41
1
 50
0
 71
0
 42
0.2
  3
txt.shx
  0
ENDTAB
  0
TABLE
  2
VIEW
  5
6
100
AcDbSymbolTable
 70
0
  0
ENDTAB
  0
TABLE
  2
UCS
  5
7
100
AcDbSymbolTable
 70
0
  0
ENDTAB
  0
TABLE
  2
APPID
  5
9
330
0
100
AcDbSymbolTable
 70
2
  0
APPID
  5
12
330
0
100
AcDbSymbolTableRecord
100
AcDbRegAppTableRecord
  2
ACAD
 70
64
  0
APPID
  5
55
330
0
100
AcDbSymbolTableRecord
100
AcDbRegAppTableRecord
  2
ACAD_MLEADERVER
 70
64
  0
ENDTAB
  0
TABLE
  2
DIMSTYLE
  5
A
330
0
100
AcDbSymbolTable
 70
1
100
AcDbDimStyleTable
 71
0
  0
DIMSTYLE
105
31
330
A
100
AcDbSymbolTableRecord
100
AcDbDimStyleTableRecord
  2
Standard
 70
64
  3

  4

 40
1
 41
0.18
 42
0.0625
 43
0.38
 44
0.18
 45
0
 46
0
 47
0
 48
0
140
0.18
141
0.09
142
0
143
1
144
1
145
0
146
1
147
0.09
148
0
 71
0
 72
0
 73
1
 74
1
 75
0
 76
0
 77
0
 78
0
 79
0
170
0
171
2
172
0
173
0
174
0
175
0
179
0
271
4
272
4
273
2
274
0
275
0
276
0
277
2
278
46
279
0
280
0
281
0
282
0
283
1
284
0
285
0
286
0
288
0
289
0
340
11
371
-2
372
-2
  0
ENDTAB
  0
TABLE
  2
BLOCK_RECORD
  5
1
330
0
100
AcDbSymbolTable
 70
3
  0
BLOCK_RECORD
  5
1F
330
1
100
AcDbSymbolTableRecord
100
AcDbBlockTableRecord
  2
*Model_Space
340
22
  0
BLOCK_RECORD
  5
2E
330
1
100
AcDbSymbolTableRecord
100
AcDbBlockTableRecord
  2
*Paper_Space
340
1E
  0
ENDTAB
  0
ENDSEC
  0
SECTION
  2
BLOCKS
  0
BLOCK
  5
20
330
1F
100
AcDbEntity
  8
0
100
AcDbBlockBegin
  2
*Model_Space
 70
64
 10
0
 20
0
 30
0
  3
*Model_Space
  0
ENDBLK
  5
21
330
1F
100
AcDbEntity
  8
0
100
AcDbBlockEnd
  0
BLOCK
  5
2F
330
2E
100
AcDbEntity
  8
0
 67
1
100
AcDbBlockBegin
  2
*Paper_Space
 70
64
 10
0
 20
0
 30
0
  3
*Paper_Space
  0
ENDBLK
  5
30
330
2E
100
AcDbEntity
  8
0
100
AcDbBlockEnd
  0
ENDSEC
  0
SECTION
  2
ENTITIES
  0
LWPOLYLINE
  5
28
330
1F
100
AcDbEntity
  8
0
 62
7
100
AcDbPolyline
 90
60
 70
1
 10
1788.7418975479954
 20
442.8307391
 10
1789.4212008910577
 20
26.147811086000395
 10
1791.2770580338411
 20
21.860365539000334
 10
1795.717858788139
 20
14.893265114000432
 10
1807.2506858501622
 20
5.8494327230004108
 10
1817.215092215137
 20
2.02348337750039
 10
1823.8891826395632
 20
1.0000038225003971
 10
2214.6494827854494
 20
1.2205551339994816
 10
2227.9056049679693
 20
3.3642779075004228
 10
2237.118610601513
 20
6.3118978970004509
 10
2246.0664940520214
 20
10.130404028500495
 10
2253.2248004401213
 20
15.824669703500549
 10
2260.1179846451851
 20
23.193716855000453
 10
2266.3483624618925
 20
27.213197290500553
 10
2273.8380711134005
 20
31.098696111000386
 10
2329.5426150445628
 20
47.3714208370006
 10
2333.7938311274506
 20
49.439053868999466
 10
2336.3509521836718
 20
51.991289803999464
 10
2338.6203985172197
 20
55.835798265499491
 10
2340.4423495967
 20
60.714121361499522
 10
2341.0177009035797
 20
64.817083951999564
 10
2340.5333844168249
 20
161.00905555849948
 10
2341.8439727158329
 20
169.37404274950057
 10
2344.7713668221008
 20
180.20431047149958
 10
2348.1958661850208
 20
188.01996739650045
 10
2352.8355090419795
 20
196.05893014900042
 10
2358.0827245767277
 20
203.20467335449942
 10
2361.6729232098137
 20
206.72171991150017
 10
2367.2515428695087
 20
210.12711261400014
 10
2376.9174645574049
 20
215.26311654250014
 10
2388.4613398507718
 20
219.39424895099989
 10
2411.2729181615887
 20
225.14434061250006
 10
2431.0822499007018
 20
228.86119870649975
 10
2436.8818025411315
 20
230.81511199699995
 10
2441.0243420029769
 20
233.27146292900002
 10
2446.7686609328375
 20
239.69146642849992
 10
2448.2047411306876
 20
243.65512087749985
 10
2449.3646527756978
 20
250.63338612350017
 10
2450.8372786985269
 20
447.64736028500005
 10
2449.7767899663868
 20
450.99692700100007
 10
2447.8546508816908
 20
453.40861488600007
 10
2441.2265907211995
 20
459.3708456725
 10
2437.9788388597908
 20
460.9786382229999
 10
2430.2286097485635
 20
462.98806893400018
 10
2423.2860221716955
 20
463.18190858999986
 10
2382.7520513535037
 20
454.03262753150005
 10
2357.3572960312636
 20
451.96706038650012
 10
2289.3145070662008
 20
452.75875409814381
 10
2224.683402453391
 20
456.74177503916417
 10
2134.5124802272303
 20
461.77749371104278
 10
2070.7438786735929
 20
466.45289184595373
 10
1964.2985672580121
 20
474.86546478450026
 10
1884.4175067993103
 20
473.53056714804296
 10
1836.5297028066454
 20
471.98539835839318
 10
1809.6202922658492
 20
470.9001132225
 10
1805.6434557972473
 20
469.62727847249988
 10
1801.2689351233234
 20
466.94762359450004
 10
1797.2258167128082
 20
463.46407338200009
 10
1794.0443467933112
 20
459.84654155450011
 10
1790.3326325077439
 20
452.74545763300006
  0
LWPOLYLINE
  5
29
330
1F
100
AcDbEntity
  8
0
 62
7
100
AcDbPolyline
 90
22
 70
1
 10
1866.6197000798163
 20
311.5557088875002
 10
1869.3217009898033
 20
311.96061419308029
 10
1871.7907771333203
 20
313.1411585097639
 10
1873.8149141756248
 20
314.99554645381005
 10
1875.2188869455431
 20
317.3631144975256
 10
1875.8825498351421
 20
320.04120821782868
 10
1875.7485481650392
 20
322.7985210918668
 10
1874.8285073063162
 20
325.39750670914378
 10
1873.2012327704667
 20
327.61531593151261
 10
1871.007648974173
 20
329.25965953152462
 10
1868.4355408638974
 20
330.18994641289345
 10
1865.7072972230064
 20
330.32535990771731
 10
1863.0578002546513
 20
329.65460558960007
 10
1860.7146242918848
 20
328.2349760464561
 10
1858.8806363623546
 20
326.18973585463203
 10
1857.7127494507458
 20
323.69379869270466
 10
1857.3120072874963
 20
320.9632088875
 10
1857.712749274644
 20
318.23261948674741
 10
1858.8806363623546
 20
315.7366819203682
 10
1860.7146332016714
 20
313.69142046330916
 10
1863.0578002546513
 20
312.27181218540017
 10
1865.7068370886782
 20
311.60129002904176
  0
LWPOLYLINE
  5
2A
330
1F
100
AcDbEntity
  8
0
 62
7
100
AcDbPolyline
 90
22
 70
1
 10
1864.6704849167872
 20
100.84140432600054
 10
1867.3724858267738
 20
101.2463096315804
 10
1869.841561970291
 20
102.42685394826447
 10
1871.8656990125955
 20
104.2812418923105
 10
1873.2696717825143
 20
106.64880993602549
 10
1873.9333346721126
 20
109.32690365632845
 10
1873.7993330020097
 20
112.08421653036646
 10
1872.8792921432873
 20
114.68320214764447
 10
1871.2520176074381
 20
116.9010113700125
 10
1869.0584338111435
 20
118.5453549700245
 10
1866.4863257008678
 20
119.47564185139333
 10
1863.7580820599774
 20
119.61105534621754
 10
1861.1085850916218
 20
118.9403010280995
 10
1858.7654091288559
 20
117.52067148495541
 10
1856.9314211993255
 20
115.47543129313237
 10
1855.7635342877168
 20
112.97949413120443
 10
1855.3627921244672
 20
110.24890432600034
 10
1855.7635341116149
 20
107.51831492524741
 10
1856.9314211993255
 20
105.02237735886854
 10
1858.7654180386426
 20
102.9771159018095
 10
1861.1085850916218
 20
101.55750762390051
 10
1863.7576219256491
 20
100.88698546754142
  0
LWPOLYLINE
  5
2B
330
1F
100
AcDbEntity
  8
0
 62
7
100
AcDbPolyline
 90
73
 70
1
 10
1936.3021425479953
 20
862.3783543932451
 10
2236.4566823069949
 20
862.45414507411442
 10
2239.527119090495
 20
864.11116011423712
 10
2244.3188612009949
 20
867.93150075930635
 10
2247.2962540464951
 20
871.98198341635828
 10
2250.3201688609947
 20
877.27522735350237
 10
2251.6693003174946
 20
881.14159640096818
 10
2253.018431773995
 20
886.98717930533269
 10
2254.826916403495
 20
990.20140957174056
 10
2255.0298634928267
 20
1065.5714444507496
 10
2254.826916403495
 20
1115.8210974508975
 10
2245.3621454249951
 20
1294.2014940463996
 10
2231.8237707819949
 20
1587.4608472848931
 10
2229.9651836889948
 20
1592.85984895062
 10
2226.2806591724948
 20
1599.7088458149221
 10
2223.2102223889947
 20
1603.740915994093
 10
2219.4140458994948
 20
1606.4473752580882
 10
2210.872649268495
 20
1609.26430194322
 10
2203.8786964897135
 20
1609.8652390285231
 10
2119.5286484699068
 20
1609.2653793275911
 10
2025.1526756023657
 20
1607.3542679390919
 10
1967.0795144644949
 20
1605.836271241654
 10
1961.552728630495
 20
1605.0077637215929
 10
1957.0308124349949
 20
1603.2955149709021
 10
1954.2953315704949
 20
1601.1966283846948
 10
1947.4845442839949
 20
1593.5743577109
 10
1943.9444830256462
 20
1586.287259904894
 10
1940.7295848654951
 20
1573.0826008285619
 10
1937.324190281495
 20
1563.9137825357809
 10
1915.3992536917847
 20
1515.3382794630559
 10
1900.4086042189092
 20
1479.8337894319332
 10
1887.256319187707
 20
1445.8693323486552
 10
1878.6461301249951
 20
1422.383353335885
 10
1874.559657000495
 20
1416.5506597244992
 10
1869.8702628454951
 20
1411.447052581844
 10
1861.1613882549952
 20
1403.6922198857621
 10
1853.591364917995
 20
1398.522332662734
 10
1846.0883342699951
 20
1394.5454943325929
 10
1830.6803243659951
 20
1387.5860300471538
 10
1827.2637649609951
 20
1385.5976127436231
 10
1822.8423359174949
 20
1381.2893721500729
 10
1820.6316223364952
 20
1377.975340208289
 10
1815.8082446849951
 20
1367.039039454249
 10
1811.9227477459951
 20
1352.4573044950148
 10
1806.8983957904952
 20
1326.6741447371678
 10
1804.610185105995
 20
1314.0274214017618
 10
1801.8234159319052
 20
1306.81589049822
 10
1792.5517437994949
 20
1288.8301827667292
 10
1790.7188598779951
 20
1280.4311032217183
 10
1789.9648694494949
 20
1263.7902366937326
 10
1790.2542723719951
 20
1248.9009588107938
 10
1792.823097492495
 20
1144.6690961529389
 10
1788.7420624208435
 20
1049.8102137358235
 10
1790.6475563636473
 20
927.56987219253233
 10
1792.7342120483966
 20
852.67852582176238
 10
1793.5634940834952
 20
828.91649700481821
 10
1794.6677276184955
 20
825.3334001413325
 10
1797.4813641114952
 20
821.11795166030629
 10
1803.3498058859952
 20
816.66389488993343
 10
1809.7809742064956
 20
813.56196292842378
 10
1813.0769482764952
 20
812.76659451778028
 10
1817.7395461084952
 20
812.44844827044608
 10
1887.2644763429953
 20
812.82696607477
 10
1891.5251255669953
 20
813.62233448541349
 10
1899.0817488609955
 20
816.644730350474
 10
1904.3070751204953
 20
820.46249276463982
 10
1907.5226583399954
 20
824.35979313679309
 10
1911.3813608374953
 20
832.07485778465048
 10
1914.8381147269954
 20
845.35749199932013
 10
1916.8478540039953
 20
849.81155063123163
 10
1919.9830501359954
 20
853.70884914184614
 10
1924.9672057254954
 20
857.68568747198685
 10
1930.0317521654952
 20
860.62854537906014
  0
LWPOLYLINE
  5
2C
330
1F
100
AcDbEntity
  8
0
 62
7
100
AcDbPolyline
 90
52
 70
1
 10
2486.5169668988274
 20
1875.9533311000002
 10
2488.2995371301026
 20
1976.6665490880002
 10
2486.1005053540666
 20
1982.7787335430012
 10
2481.1526829272152
 20
1990.0022222100001
 10
2478.6291421650517
 20
1992.1183979420011
 10
2476.4418808973205
 20
1993.1902602695002
 10
2474.0557793884668
 20
1993.5252161885003
 10
2079.5639302636728
 20
1998.9999992440012
 10
2075.7729833124417
 20
1997.1060248990002
 10
2069.9508948862235
 20
1993.2473224015012
 10
2062.5062559447542
 20
1986.5910627100002
 10
2061.2654827878428
 20
1984.4687777475003
 10
2060.1201525743622
 20
1980.8994781725003
 10
2060.4362716062064
 20
1625.0675264425006
 10
2061.390712209748
 20
1621.5946951355006
 10
2063.6813707751708
 20
1617.8324609060007
 10
2066.7355803341957
 20
1614.4560978670006
 10
2070.3624568614991
 20
1612.1408763685006
 10
2073.9893315272639
 20
1610.5009271015006
 10
2080.4795298651925
 20
1609.8256548700006
 10
2206.5894930160302
 20
1611.2459879310006
 10
2215.2589964058902
 20
1609.3166376230006
 10
2223.0325180622967
 20
1606.0661000219388
 10
2235.0636445139908
 20
1597.9817008005007
 10
2240.7107539003287
 20
1591.9524792065006
 10
2246.1987873706921
 20
1585.1193622780006
 10
2249.8574775919597
 20
1577.1607903760007
 10
2254.939832544942
 20
1554.5338185833682
 10
2259.5609595433493
 20
1529.5701369020005
 10
2261.3107685575337
 20
1523.2193575505005
 10
2263.5377960119513
 20
1520.4057191760007
 10
2268.9573416172097
 20
1516.6720686945005
 10
2273.3208159213277
 20
1514.9972853365007
 10
2278.1813936205594
 20
1513.7132838840005
 10
2463.2921623972643
 20
1513.5985594215008
 10
2466.9269169557474
 20
1514.5159694140007
 10
2470.4250606455789
 20
1516.0977088340007
 10
2474.1533463473938
 20
1518.8424937160005
 10
2478.1578006020491
 20
1522.5642361840007
 10
2480.3211262069958
 20
1525.9603248690005
 10
2481.9781412471184
 20
1529.5425014300006
 10
2482.7606203647833
 20
1532.5198942755005
 10
2488.1395155525411
 20
1734.1460458320007
 10
2487.4714075023694
 20
1740.3199679465006
 10
2484.1308635284363
 20
1747.1691641740006
 10
2477.3543344986765
 20
1756.5265165545006
 10
2470.7686913557786
 20
1767.2344133980007
 10
2469.3370304504665
 20
1773.6012701670006
 10
2469.4324752554362
 20
1839.3921341085002
 10
2470.7686913557786
 20
1842.4790942250002
 10
2482.2219823213527
 20
1862.3514087945011
 10
2485.6579692387172
 20
1870.0688119080003
  0
LWPOLYLINE
  5
2D
330
1F
100
AcDbEntity
  8
0
 62
7
100
AcDbPolyline
 90
50
 70
1
 10
2499.0000011
 20
488.3650328020608
 10
2497.2174308687249
 20
589.07825079006068
 10
2496.3584332086143
 20
594.96276998206054
 10
2492.92244629125
 20
602.6801730955608
 10
2480.1329392253333
 20
625.63944778156065
 10
2480.0374962819019
 20
691.43031172306064
 10
2481.469157187214
 20
697.79716849206091
 10
2488.0547984685732
 20
708.50506533556074
 10
2494.8313293598712
 20
717.8624177160608
 10
2498.1718714722665
 20
724.71161206206068
 10
2498.8399795224377
 20
730.88553605806067
 10
2493.46108433468
 20
932.51168761456063
 10
2492.6786052170155
 20
935.48908046006079
 10
2491.0215901768925
 20
939.07125702106066
 10
2488.8582645719462
 20
942.46734570606066
 10
2484.8538103172905
 20
946.18908817406088
 10
2481.1255264770143
 20
948.93387117456075
 10
2477.6273827871828
 20
950.51561247606048
 10
2473.9926282286997
 20
951.43302058706092
 10
2288.8818594519953
 20
951.31829800606079
 10
2284.0212798912253
 20
950.03429655356081
 10
2279.6578074486456
 20
948.35951319556057
 10
2274.2382618433867
 20
944.62586083256087
 10
2272.0112325274313
 20
941.81222433956077
 10
2269.8664517269144
 20
933.51708577512227
 10
2260.5579434233955
 20
887.87079151406056
 10
2256.8992532021275
 20
879.91221961206043
 10
2251.4112178702262
 20
873.07910268356068
 10
2245.7641103454262
 20
867.04988108956047
 10
2232.0837900638962
 20
857.96585421406064
 10
2225.9594622373261
 20
855.71494426706056
 10
2217.2899569859269
 20
853.78559395906052
 10
2091.1799938350891
 20
855.20592702006059
 10
2084.6897954971614
 20
854.5306529070607
 10
2081.0629208313958
 20
852.89070552156068
 10
2077.4360461656306
 20
850.57548402306054
 10
2074.3818347450679
 20
847.19912098406053
 10
2072.0911761796451
 20
843.43688675456053
 10
2071.1367355761035
 20
839.96405544756055
 10
2070.8206184057981
 20
484.13210371756071
 10
2071.96594675774
 20
480.56280414256071
 10
2073.2067199146518
 20
478.44051918006073
 10
2075.9745987818446
 20
475.64296010456064
 10
2080.6513588561211
 20
471.78425760706079
 10
2086.4734491438776
 20
467.92555699106072
 10
2090.2643960951091
 20
466.03158264606077
 10
2487.1423467287564
 20
471.84132162056068
 10
2489.3296061349492
 20
472.91318394806086
 10
2491.8531487586515
 20
475.02935968006085
 10
2496.8009693239642
 20
482.25284834706071
  0
ENDSEC
  0
SECTION
  2
OBJECTS
  0
DICTIONARY
  5
C
330
0
100
AcDbDictionary
280
0
281
1
  3
ACAD_SCALELIST
350
33
  3
ACAD_COLOR
350
45
  3
ACAD_FIELDLIST
350
46
  3
ACAD_GROUP
350
D
  3
ACAD_IMAGE_DICT
350
47
  3
ACAD_LAYOUT
350
1A
  3
ACAD_MATERIAL
350
48
  3
ACAD_MLEADERSTYLE
350
49
  3
ACAD_MLINESTYLE
350
17
  3
ACAD_PLOTSETTINGS
350
19
  3
ACAD_PLOTSTYLENAME
350
E
  3
ACAD_TABLESTYLE
350
4B
  3
ACDB_RECOMPOSE_DATA
350
4F
  3
AcDbVariableDictionary
350
50
  3
ACAD_VISUALSTYLE
350
53
  3
DWGPROPS
350
54
  0
DICTIONARY
  5
4D
330
4C
100
AcDbDictionary
280
0
281
1
  3
ACAD_ROUNDTRIP_2008_TABLESTYLE_CELLSTYLEMAP
360
4E
  0
DICTIONARY
  5
33
102
{ACAD_REACTORS
330
C
102
}
330
C
100
AcDbDictionary
280
0
281
1
  0
DICTIONARY
  5
45
102
{ACAD_REACTORS
330
C
102
}
330
C
100
AcDbDictionary
280
0
281
1
  0
FIELDLIST
  5
46
102
{ACAD_REACTORS
330
C
102
}
330
C
100
AcDbIdSet
100
AcDbFieldList
  0
DICTIONARY
  5
D
102
{ACAD_REACTORS
330
C
102
}
330
C
100
AcDbDictionary
280
0
281
1
  0
DICTIONARY
  5
47
102
{ACAD_REACTORS
330
C
102
}
330
C
100
AcDbDictionary
280
0
281
1
  0
DICTIONARY
  5
1A
102
{ACAD_REACTORS
330
C
102
}
330
C
100
AcDbDictionary
280
0
281
1
  3
Layout1
350
1E
  3
Model
350
22
  0
DICTIONARY
  5
48
102
{ACAD_REACTORS
330
C
102
}
330
C
100
AcDbDictionary
280
0
281
1
  0
DICTIONARY
  5
49
102
{ACAD_REACTORS
330
C
102
}
330
C
100
AcDbDictionary
280
0
281
1
  3
Standard
350
4A
  0
DICTIONARY
  5
17
102
{ACAD_REACTORS
330
C
102
}
330
C
100
AcDbDictionary
280
0
281
1
  3
STANDARD
350
18
  0
DICTIONARY
  5
19
102
{ACAD_REACTORS
330
C
102
}
330
C
100
AcDbDictionary
280
0
281
1
  0
ACDBDICTIONARYWDFLT
  5
E
102
{ACAD_REACTORS
330
C
102
}
330
C
100
AcDbDictionary
280
0
281
1
  3
Normal
350
F
100
AcDbDictionaryWithDefault
340
F
  0
ACDBPLACEHOLDER
  5
F
102
{ACAD_REACTORS
330
E
102
}
330
E
  0
DICTIONARY
  5
4B
102
{ACAD_REACTORS
330
C
102
}
330
C
100
AcDbDictionary
280
0
281
1
  3
Standard
350
4C
  0
XRECORD
  5
4F
102
{ACAD_REACTORS
330
C
102
}
330
C
100
AcDbXrecord
280
1
 90
1
330
4C
  0
DICTIONARY
  5
50
102
{ACAD_REACTORS
330
C
102
}
330
C
100
AcDbDictionary
280
0
281
1
  3
DIMASSOC
350
51
  3
HIDETEXT
350
52
  0
DICTIONARY
  5
53
102
{ACAD_REACTORS
330
C
102
}
330
C
100
AcDbDictionary
280
0
281
1
  0
XRECORD
  5
54
102
{ACAD_REACTORS
330
C
102
}
330
C
100
AcDbXrecord
280
0
  1
DWGPROPS COOKIE
  2

  3

  4

  6

  7

  8

  9

300
=
301
=
302
=
303
=
304
=
305
=
306
=
307
=
308
=
309
=
 40
0
 41
2460962.9393618866
 42
2460962.9393618866
  1

 90
0
  0
CELLSTYLEMAP
  5
4E
102
{ACAD_REACTORS
330
4D
102
}
330
4D
100
AcDbCellStyleMap
 90
3
300
CELLSTYLE
  1
TABLEFORMAT_BEGIN
 90
5
170
0
309
TABLEFORMAT_END
  1
CELLSTYLE_BEGIN
 90
3
 91
2
300
_DATA
309
CELLSTYLE_END
300
CELLSTYLE
  1
TABLEFORMAT_BEGIN
 90
5
170
0
309
TABLEFORMAT_END
  1
CELLSTYLE_BEGIN
 90
1
 91
2
300
_TITLE
309
CELLSTYLE_END
300
CELLSTYLE
  1
TABLEFORMAT_BEGIN
 90
5
170
0
309
TABLEFORMAT_END
  1
CELLSTYLE_BEGIN
 90
2
 91
2
300
_HEADER
309
CELLSTYLE_END
  0
LAYOUT
  5
1E
102
{ACAD_REACTORS
330
1A
102
}
330
1A
100
AcDbPlotSettings
  1

  2
C:\Program Files\AutoCAD 2002\plotters\DWF ePlot (optimized for plotting).pc3
  4

  6

 40
0
 41
0
 42
0
 43
0
 44
0
 45
0
 46
0
 47
0
 48
0
 49
0
140
0
141
0
142
1
143
1
 70
688
 72
1
 73
1
 74
1
  7
acad.stb
 75
16
 76
0
 77
0
 78
0
147
1
148
0
149
0
100
AcDbLayout
  1
Layout1
 70
1
 71
1
 10
0
 20
0
 11
420
 21
297
 12
0
 22
0
 32
0
 14
0
 24
0
 34
0
 15
0
 25
0
 35
0
146
0
 13
0
 23
0
 33
0
 16
1
 26
0
 36
0
 17
0
 27
1
 37
0
 76
0
330
2E
  0
LAYOUT
  5
22
102
{ACAD_REACTORS
330
1A
102
}
330
1A
100
AcDbPlotSettings
  1

  2
C:\Program Files\AutoCAD 2002\plotters\DWF ePlot (optimized for plotting).pc3
  4

  6

 40
0
 41
0
 42
0
 43
0
 44
0
 45
0
 46
0
 47
0
 48
0
 49
0
140
0
141
0
142
1
143
1
 70
1712
 72
1
 73
1
 74
0
  7
acad.stb
 75
0
 76
0
 77
0
 78
0
147
1
148
0
149
0
100
AcDbLayout
  1
Model
 70
1
 71
0
 10
0
 20
0
 11
12
 21
9
 12
0
 22
0
 32
0
 14
0
 24
0
 34
0
 15
0
 25
0
 35
0
146
0
 13
0
 23
0
 33
0
 16
1
 26
0
 36
0
 17
0
 27
1
 37
0
 76
0
330
1F
  0
MLEADERSTYLE
  5
4A
102
{ACAD_REACTORS
330
49
102
}
330
49
100
AcDbMLeaderStyle
170
2
171
1
172
0
 90
2
 40
0
 41
0
173
1
 91
0
340
0
 92
-2
290
1
 42
0.09
292
1
 43
0.36
  3
Standard
341
0
 44
0.18
300

342
0
174
1
178
1
175
1
176
0
 93
0
 45
0.18
292
0
297
0
 46
0
343
0
 94
0
 47
1
 49
1
140
1
293
1
141
0
294
1
177
0
142
1
295
0
296
0
143
0.125
  0
MLINESTYLE
  5
18
102
{ACAD_REACTORS
330
17
102
}
330
17
100
AcDbMlineStyle
  2
STANDARD
 70
0
  3

 51
90
 52
90
 71
2
 49
0.5
 62
0
  6
ByLayer
 49
-0.5
 62
0
  6
ByLayer
  0
TABLESTYLE
  5
4C
102
{ACAD_XDICTIONARY
360
4D
102
}
102
{ACAD_REACTORS
330
4B
102
}
330
4B
100
AcDbTableStyle
  3

 70
0
 71
0
 40
0.06
 41
0.06
280
0
281
0
  7
Standard
140
0.18
170
1
 62
0
283
0
 90
512
 91
0
274
-2
284
1
 64
0
275
-2
285
1
 65
0
276
-2
286
1
 66
0
277
-2
287
1
 67
0
278
-2
288
1
 68
0
279
-2
289
1
 69
0
  7
Standard
140
0.18
170
1
 62
0
283
0
 90
512
 91
0
274
-2
284
1
 64
0
275
-2
285
1
 65
0
276
-2
286
1
 66
0
277
-2
287
1
 67
0
278
-2
288
1
 68
0
279
-2
289
1
 69
0
  7
Standard
140
0.18
170
1
 62
0
283
0
 90
512
 91
0
274
-2
284
1
 64
0
275
-2
285
1
 65
0
276
-2
286
1
 66
0
277
-2
287
1
 67
0
278
-2
288
1
 68
0
279
-2
289
1
 69
0
  0
DICTIONARYVAR
  5
51
102
{ACAD_REACTORS
330
50
102
}
330
50
100
DictionaryVariables
280
0
  1
1
  0
DICTIONARYVAR
  5
52
102
{ACAD_REACTORS
330
50
102
}
330
50
100
DictionaryVariables
280
0
  1
2
  0
ENDSEC
999
Created By CadLib version 4.0.38.30
999
CadLib website: www.woutware.com
  0
EOF
