  0
SECTION
  2
HEADER
  9
$ACADVER
  1
AC1027
  9
$ACADMAINTVER
 70
105
  9
$DWGCODEPAGE
  3
ANSI_1252
  9
$LASTSAVEDBY
  1
ezdxf
  9
$REQUIREDVERSIONS
160
0
  9
$INSBASE
 10
0.0
 20
0.0
 30
0.0
  9
$EXTMIN
 10
1e+20
 20
1e+20
 30
1e+20
  9
$EXTMAX
 10
-1e+20
 20
-1e+20
 30
-1e+20
  9
$LIMMIN
 10
0.0
 20
0.0
  9
$LIMMAX
 10
420.0
 20
297.0
  9
$ORTHOMODE
 70
0
  9
$REGENMODE
 70
1
  9
$FILLMODE
 70
1
  9
$QTEXTMODE
 70
0
  9
$MIRRTEXT
 70
1
  9
$LTSCALE
 40
1.0
  9
$ATTMODE
 70
1
  9
$TEXTSIZE
 40
2.5
  9
$TRACEWID
 40
1.0
  9
$TEXTSTYLE
  7
Standard
  9
$CLAYER
  8
0
  9
$CELTYPE
  6
ByLayer
  9
$CECOLOR
 62
256
  9
$CELTSCALE
 40
1.0
  9
$DISPSILH
 70
0
  9
$DIMSCALE
 40
1.0
  9
$DIMASZ
 40
2.5
  9
$DIMEXO
 40
0.625
  9
$DIMDLI
 40
3.75
  9
$DIMRND
 40
0.0
  9
$DIMDLE
 40
0.0
  9
$DIMEXE
 40
1.25
  9
$DIMTP
 40
0.0
  9
$DIMTM
 40
0.0
  9
$DIMTXT
 40
2.5
  9
$DIMCEN
 40
2.5
  9
$DIMTSZ
 40
0.0
  9
$DIMTOL
 70
0
  9
$DIMLIM
 70
0
  9
$DIMTIH
 70
0
  9
$DIMTOH
 70
0
  9
$DIMSE1
 70
0
  9
$DIMSE2
 70
0
  9
$DIMTAD
 70
1
  9
$DIMZIN
 70
8
  9
$DIMBLK
  1

  9
$DIMASO
 70
1
  9
$DIMSHO
 70
1
  9
$DIMPOST
  1

  9
$DIMAPOST
  1

  9
$DIMALT
 70
0
  9
$DIMALTD
 70
3
  9
$DIMALTF
 40
0.03937007874
  9
$DIMLFAC
 40
1.0
  9
$DIMTOFL
 70
1
  9
$DIMTVP
 40
0.0
  9
$DIMTIX
 70
0
  9
$DIMSOXD
 70
0
  9
$DIMSAH
 70
0
  9
$DIMBLK1
  1

  9
$DIMBLK2
  1

  9
$DIMSTYLE
  2
ISO-25
  9
$DIMCLRD
 70
0
  9
$DIMCLRE
 70
0
  9
$DIMCLRT
 70
0
  9
$DIMTFAC
 40
1.0
  9
$DIMGAP
 40
0.625
  9
$DIMJUST
 70
0
  9
$DIMSD1
 70
0
  9
$DIMSD2
 70
0
  9
$DIMTOLJ
 70
0
  9
$DIMTZIN
 70
8
  9
$DIMALTZ
 70
0
  9
$DIMALTTZ
 70
0
  9
$DIMUPT
 70
0
  9
$DIMDEC
 70
2
  9
$DIMTDEC
 70
2
  9
$DIMALTU
 70
2
  9
$DIMALTTD
 70
3
  9
$DIMTXSTY
  7
Standard
  9
$DIMAUNIT
 70
0
  9
$DIMADEC
 70
0
  9
$DIMALTRND
 40
0.0
  9
$DIMAZIN
 70
0
  9
$DIMDSEP
 70
44
  9
$DIMATFIT
 70
3
  9
$DIMFRAC
 70
0
  9
$DIMLDRBLK
  1

  9
$DIMLUNIT
 70
2
  9
$DIMLWD
 70
-2
  9
$DIMLWE
 70
-2
  9
$DIMTMOVE
 70
0
  9
$DIMFXL
 40
1.0
  9
$DIMFXLON
 70
0
  9
$DIMJOGANG
 40
0.785398163397
  9
$DIMTFILL
 70
0
  9
$DIMTFILLCLR
 70
0
  9
$DIMARCSYM
 70
0
  9
$DIMLTYPE
  6

  9
$DIMLTEX1
  6

  9
$DIMLTEX2
  6

  9
$DIMTXTDIRECTION
 70
0
  9
$LUNITS
 70
2
  9
$LUPREC
 70
4
  9
$SKETCHINC
 40
1.0
  9
$FILLETRAD
 40
10.0
  9
$AUNITS
 70
0
  9
$AUPREC
 70
2
  9
$MENU
  1
.
  9
$ELEVATION
 40
0.0
  9
$PELEVATION
 40
0.0
  9
$THICKNESS
 40
0.0
  9
$LIMCHECK
 70
0
  9
$CHAMFERA
 40
0.0
  9
$CHAMFERB
 40
0.0
  9
$CHAMFERC
 40
0.0
  9
$CHAMFERD
 40
0.0
  9
$SKPOLY
 70
0
  9
$TDCREATE
 40
2460972.7110069445
  9
$TDUCREATE
 40
2458532.153996898
  9
$TDUPDATE
 40
2460972.7110069445
  9
$TDUUPDATE
 40
2458532.1544311
  9
$TDINDWG
 40
0.0
  9
$TDUSRTIMER
 40
0.0
  9
$USRTIMER
 70
1
  9
$ANGBASE
 50
0.0
  9
$ANGDIR
 70
0
  9
$PDMODE
 70
0
  9
$PDSIZE
 40
0.0
  9
$PLINEWID
 40
0.0
  9
$SPLFRAME
 70
0
  9
$SPLINETYPE
 70
6
  9
$SPLINESEGS
 70
8
  9
$HANDSEED
  5
4A
  9
$SURFTAB1
 70
6
  9
$SURFTAB2
 70
6
  9
$SURFTYPE
 70
6
  9
$SURFU
 70
6
  9
$SURFV
 70
6
  9
$UCSBASE
  2

  9
$UCSNAME
  2

  9
$UCSORG
 10
0.0
 20
0.0
 30
0.0
  9
$UCSXDIR
 10
1.0
 20
0.0
 30
0.0
  9
$UCSYDIR
 10
0.0
 20
1.0
 30
0.0
  9
$UCSORTHOREF
  2

  9
$UCSORTHOVIEW
 70
0
  9
$UCSORGTOP
 10
0.0
 20
0.0
 30
0.0
  9
$UCSORGBOTTOM
 10
0.0
 20
0.0
 30
0.0
  9
$UCSORGLEFT
 10
0.0
 20
0.0
 30
0.0
  9
$UCSORGRIGHT
 10
0.0
 20
0.0
 30
0.0
  9
$UCSORGFRONT
 10
0.0
 20
0.0
 30
0.0
  9
$UCSORGBACK
 10
0.0
 20
0.0
 30
0.0
  9
$PUCSBASE
  2

  9
$PUCSNAME
  2

  9
$PUCSORG
 10
0.0
 20
0.0
 30
0.0
  9
$PUCSXDIR
 10
1.0
 20
0.0
 30
0.0
  9
$PUCSYDIR
 10
0.0
 20
1.0
 30
0.0
  9
$PUCSORTHOREF
  2

  9
$PUCSORTHOVIEW
 70
0
  9
$PUCSORGTOP
 10
0.0
 20
0.0
 30
0.0
  9
$PUCSORGBOTTOM
 10
0.0
 20
0.0
 30
0.0
  9
$PUCSORGLEFT
 10
0.0
 20
0.0
 30
0.0
  9
$PUCSORGRIGHT
 10
0.0
 20
0.0
 30
0.0
  9
$PUCSORGFRONT
 10
0.0
 20
0.0
 30
0.0
  9
$PUCSORGBACK
 10
0.0
 20
0.0
 30
0.0
  9
$USERI1
 70
0
  9
$USERI2
 70
0
  9
$USERI3
 70
0
  9
$USERI4
 70
0
  9
$USERI5
 70
0
  9
$USERR1
 40
0.0
  9
$USERR2
 40
0.0
  9
$USERR3
 40
0.0
  9
$USERR4
 40
0.0
  9
$USERR5
 40
0.0
  9
$WORLDVIEW
 70
1
  9
$SHADEDGE
 70
3
  9
$SHADEDIF
 70
70
  9
$TILEMODE
 70
1
  9
$MAXACTVP
 70
64
  9
$PINSBASE
 10
0.0
 20
0.0
 30
0.0
  9
$PLIMCHECK
 70
0
  9
$PEXTMIN
 10
1e+20
 20
1e+20
 30
1e+20
  9
$PEXTMAX
 10
-1e+20
 20
-1e+20
 30
-1e+20
  9
$PLIMMIN
 10
0.0
 20
0.0
  9
$PLIMMAX
 10
420.0
 20
297.0
  9
$UNITMODE
 70
0
  9
$VISRETAIN
 70
1
  9
$PLINEGEN
 70
0
  9
$PSLTSCALE
 70
1
  9
$TREEDEPTH
 70
3020
  9
$CMLSTYLE
  2
Standard
  9
$CMLJUST
 70
0
  9
$CMLSCALE
 40
20.0
  9
$PROXYGRAPHICS
 70
1
  9
$MEASUREMENT
 70
1
  9
$CELWEIGHT
370
-1
  9
$ENDCAPS
280
0
  9
$JOINSTYLE
280
0
  9
$LWDISPLAY
290
0
  9
$INSUNITS
 70
6
  9
$HYPERLINKBASE
  1

  9
$STYLESHEET
  1

  9
$XEDIT
290
1
  9
$CEPSNTYPE
380
0
  9
$PSTYLEMODE
290
1
  9
$FINGERPRINTGUID
  2
{4121FDD0-022C-4590-9B87-4E291ECBC7AE}
  9
$VERSIONGUID
  2
{F7D2708F-6879-4BE9-8127-7F11FBAB3D28}
  9
$EXTNAMES
290
1
  9
$PSVPSCALE
 40
0.0
  9
$OLESTARTUP
290
0
  9
$SORTENTS
280
127
  9
$INDEXCTL
280
0
  9
$HIDETEXT
280
1
  9
$XCLIPFRAME
280
1
  9
$HALOGAP
280
0
  9
$OBSCOLOR
 70
257
  9
$OBSLTYPE
280
0
  9
$INTERSECTIONDISPLAY
280
0
  9
$INTERSECTIONCOLOR
 70
257
  9
$DIMASSOC
280
2
  9
$PROJECTNAME
  1

  9
$CAMERADISPLAY
290
0
  9
$LENSLENGTH
 40
50.0
  9
$CAMERAHEIGHT
 40
0.0
  9
$STEPSPERSEC
 40
24.0
  9
$STEPSIZE
 40
100.0
  9
$3DDWFPREC
 40
2.0
  9
$PSOLWIDTH
 40
0.005
  9
$PSOLHEIGHT
 40
0.08
  9
$LOFTANG1
 40
1.570796326795
  9
$LOFTANG2
 40
1.570796326795
  9
$LOFTMAG1
 40
0.0
  9
$LOFTMAG2
 40
0.0
  9
$LOFTPARAM
 70
7
  9
$LOFTNORMALS
280
1
  9
$LATITUDE
 40
37.795
  9
$LONGITUDE
 40
-122.394
  9
$NORTHDIRECTION
 40
0.0
  9
$TIMEZONE
 70
-8000
  9
$LIGHTGLYPHDISPLAY
280
1
  9
$TILEMODELIGHTSYNCH
280
1
  9
$CMATERIAL
347
20
  9
$SOLIDHIST
280
0
  9
$SHOWHIST
280
1
  9
$DWFFRAME
280
2
  9
$DGNFRAME
280
2
  9
$REALWORLDSCALE
290
1
  9
$INTERFERECOLOR
 62
256
  9
$CSHADOW
280
0
  9
$SHADOWPLANELOCATION
 40
0.0
  0
ENDSEC
  0
SECTION
  2
CLASSES
  0
CLASS
  1
ACDBDICTIONARYWDFLT
  2
AcDbDictionaryWithDefault
  3
ObjectDBX Classes
 90
0
 91
0
280
0
281
0
  0
CLASS
  1
SUN
  2
AcDbSun
  3
SCENEOE
 90
1153
 91
0
280
0
281
0
  0
CLASS
  1
VISUALSTYLE
  2
AcDbVisualStyle
  3
ObjectDBX Classes
 90
4095
 91
0
280
0
281
0
  0
CLASS
  1
MATERIAL
  2
AcDbMaterial
  3
ObjectDBX Classes
 90
1153
 91
0
280
0
281
0
  0
CLASS
  1
SCALE
  2
AcDbScale
  3
ObjectDBX Classes
 90
1153
 91
0
280
0
281
0
  0
CLASS
  1
TABLESTYLE
  2
AcDbTableStyle
  3
ObjectDBX Classes
 90
4095
 91
0
280
0
281
0
  0
CLASS
  1
MLEADERSTYLE
  2
AcDbMLeaderStyle
  3
ACDB_MLEADERSTYLE_CLASS
 90
4095
 91
0
280
0
281
0
  0
CLASS
  1
DICTIONARYVAR
  2
AcDbDictionaryVar
  3
ObjectDBX Classes
 90
0
 91
0
280
0
281
0
  0
CLASS
  1
CELLSTYLEMAP
  2
AcDbCellStyleMap
  3
ObjectDBX Classes
 90
1152
 91
0
280
0
281
0
  0
CLASS
  1
MENTALRAYRENDERSETTINGS
  2
AcDbMentalRayRenderSettings
  3
SCENEOE
 90
1024
 91
0
280
0
281
0
  0
CLASS
  1
ACDBDETAILVIEWSTYLE
  2
AcDbDetailViewStyle
  3
ObjectDBX Classes
 90
1025
 91
0
280
0
281
0
  0
CLASS
  1
ACDBSECTIONVIEWSTYLE
  2
AcDbSectionViewStyle
  3
ObjectDBX Classes
 90
1025
 91
0
280
0
281
0
  0
CLASS
  1
RASTERVARIABLES
  2
AcDbRasterVariables
  3
ISM
 90
0
 91
0
280
0
281
0
  0
CLASS
  1
LAYOUT
  2
AcDbLayout
  3
ObjectDBX Classes
 90
0
 91
0
280
0
281
0
  0
CLASS
  1
ACDBPLACEHOLDER
  2
AcDbPlaceHolder
  3
ObjectDBX Classes
 90
0
 91
0
280
0
281
0
  0
ENDSEC
  0
SECTION
  2
TABLES
  0
TABLE
  2
VPORT
  5
8
330
0
100
AcDbSymbolTable
 70
1
  0
VPORT
  5
23
330
8
100
AcDbSymbolTableRecord
100
AcDbViewportTableRecord
  2
*Active
 70
0
 10
0.0
 20
0.0
 11
1.0
 21
1.0
 12
0.0
 22
0.0
 13
0.0
 23
0.0
 14
0.5
 24
0.5
 15
0.5
 25
0.5
 16
0.0
 26
0.0
 36
1.0
 17
0.0
 27
0.0
 37
0.0
 40
1000.0
 41
1.34
 42
50.0
 43
0.0
 44
0.0
 50
0.0
 51
0.0
 71
0
 72
1000
 73
1
 74
3
 75
0
 76
0
 77
0
 78
0
281
0
 65
0
146
0.0
  0
ENDTAB
  0
TABLE
  2
LTYPE
  5
2
330
0
100
AcDbSymbolTable
 70
3
  0
LTYPE
  5
24
330
2
100
AcDbSymbolTableRecord
100
AcDbLinetypeTableRecord
  2
ByBlock
 70
0
  3

 72
65
 73
0
 40
0.0
  0
LTYPE
  5
25
330
2
100
AcDbSymbolTableRecord
100
AcDbLinetypeTableRecord
  2
ByLayer
 70
0
  3

 72
65
 73
0
 40
0.0
  0
LTYPE
  5
26
330
2
100
AcDbSymbolTableRecord
100
AcDbLinetypeTableRecord
  2
Continuous
 70
0
  3

 72
65
 73
0
 40
0.0
  0
ENDTAB
  0
TABLE
  2
LAYER
  5
1
330
0
100
AcDbSymbolTable
 70
2
  0
LAYER
  5
27
330
1
100
AcDbSymbolTableRecord
100
AcDbLayerTableRecord
  2
0
 70
0
 62
7
  6
Continuous
370
-3
390
13
347
21
  0
LAYER
  5
28
330
1
100
AcDbSymbolTableRecord
100
AcDbLayerTableRecord
  2
Defpoints
 70
0
 62
7
  6
Continuous
290
0
370
-3
390
13
347
21
  0
ENDTAB
  0
TABLE
  2
STYLE
  5
5
330
0
100
AcDbSymbolTable
 70
1
  0
STYLE
  5
29
330
5
100
AcDbSymbolTableRecord
100
AcDbTextStyleTableRecord
  2
Standard
 70
0
 40
0.0
 41
1.0
 50
0.0
 71
0
 42
2.5
  3
txt
  4

  0
ENDTAB
  0
TABLE
  2
VIEW
  5
7
330
0
100
AcDbSymbolTable
 70
0
  0
ENDTAB
  0
TABLE
  2
UCS
  5
6
330
0
100
AcDbSymbolTable
 70
0
  0
ENDTAB
  0
TABLE
  2
APPID
  5
3
330
0
100
AcDbSymbolTable
 70
3
  0
APPID
  5
2A
330
3
100
AcDbSymbolTableRecord
100
AcDbRegAppTableRecord
  2
ACAD
 70
0
  0
APPID
  5
47
330
3
100
AcDbSymbolTableRecord
100
AcDbRegAppTableRecord
  2
HATCHBACKGROUNDCOLOR
 70
0
  0
APPID
  5
48
330
3
100
AcDbSymbolTableRecord
100
AcDbRegAppTableRecord
  2
EZDXF
 70
0
  0
ENDTAB
  0
TABLE
  2
DIMSTYLE
  5
4
330
0
100
AcDbSymbolTable
 70
1
100
AcDbDimStyleTable
  0
DIMSTYLE
105
2B
330
4
100
AcDbSymbolTableRecord
100
AcDbDimStyleTableRecord
  2
Standard
 70
0
 40
1.0
 41
2.5
 42
0.625
 43
3.75
 44
1.25
 45
0.0
 46
0.0
 47
0.0
 48
0.0
 49
2.5
140
2.5
141
2.5
142
0.0
143
0.03937007874
144
1.0
145
0.0
146
1.0
147
0.625
148
0.0
 69
0
 70
0
 71
0
 72
0
 73
0
 74
0
 75
0
 76
0
 77
1
 78
8
 79
3
170
0
171
3
172
1
173
0
174
0
175
0
176
0
177
0
178
0
179
2
271
2
272
2
273
2
274
3
275
0
276
0
277
2
278
44
279
0
280
0
281
0
282
0
283
0
284
8
285
0
286
0
288
0
289
3
290
0
371
-2
372
-2
  0
ENDTAB
  0
TABLE
  2
BLOCK_RECORD
  5
9
330
0
100
AcDbSymbolTable
 70
2
  0
BLOCK_RECORD
  5
17
330
9
100
AcDbSymbolTableRecord
100
AcDbBlockTableRecord
  2
*Model_Space
340
1A
 70
0
280
1
281
0
  0
BLOCK_RECORD
  5
1B
330
9
100
AcDbSymbolTableRecord
100
AcDbBlockTableRecord
  2
*Paper_Space
340
1E
 70
0
280
1
281
0
  0
ENDTAB
  0
ENDSEC
  0
SECTION
  2
BLOCKS
  0
BLOCK
  5
18
330
17
100
AcDbEntity
  8
0
100
AcDbBlockBegin
  2
*Model_Space
 70
0
 10
0.0
 20
0.0
 30
0.0
  3
*Model_Space
  1

  0
ENDBLK
  5
19
330
17
100
AcDbEntity
  8
0
100
AcDbBlockEnd
  0
BLOCK
  5
1C
330
1B
100
AcDbEntity
  8
0
100
AcDbBlockBegin
  2
*Paper_Space
 70
0
 10
0.0
 20
0.0
 30
0.0
  3
*Paper_Space
  1

  0
ENDBLK
  5
1D
330
1B
100
AcDbEntity
  8
0
100
AcDbBlockEnd
  0
ENDSEC
  0
SECTION
  2
ENTITIES
  0
LWPOLYLINE
  5
2F
330
17
100
AcDbEntity
  8
0
100
AcDbPolyline
 90
62
 70
0
 10
1943.9342406952157
 20
504.15100936358107
 10
1880.4668658836224
 20
50.98063183675943
 10
1881.5946086272866
 20
45.31368846529979
 10
1884.0942181844405
 20
40.2949163101887
 10
1888.2605275233093
 20
35.41615351159654
 10
1892.3500863367353
 20
32.60233054982367
 10
1896.8371587187214
 20
30.666544078165504
 10
1902.2088956553187
 20
29.16706218137525
 10
2078.5606369818793
 20
6.23570867107689
 10
2111.5267715915634
 20
3.908978405847492
 10
2171.0993402047698
 20
1.000508294048921
 10
2194.211277009466
 20
1.9629359478600428
 10
2225.0449370112556
 20
4.576456472392068
 10
2275.219238397529
 20
8.656857093735544
 10
2325.553660663003
 20
13.152960642054847
 10
2335.78003132817
 20
13.709297955839657
 10
2351.580048907236
 20
12.918273942190083
 10
2358.7648139751072
 20
12.237385094713277
 10
2403.0540587413852
 20
5.764180184735005
 10
2417.3616614247603
 20
2.549784346562513
 10
2427.164735210532
 20
1.0420565959287524
 10
2433.2201923863477
 20
1.0005102602037512
 10
2437.76190521972
 20
2.381120970048724
 10
2442.857272260746
 20
6.016507167583511
 10
2446.6786995414122
 20
11.370980221452184
 10
2447.67311125819
 20
13.933419935471106
 10
2487.4294295909094
 20
287.42313392091245
 10
2487.109369730676
 20
292.8498415151119
 10
2485.418110875396
 20
297.10695648967373
 10
2483.2815748513603
 20
299.99992849696963
 10
2480.54850740114
 20
302.7170985690963
 10
2477.7530403232972
 20
304.5352236919278
 10
2473.515221219575
 20
306.036668096567
 10
2456.1980718418163
 20
309.4276083785376
 10
2447.3520804588657
 20
312.68987085431246
 10
2445.4291521488567
 20
314.7488807254935
 10
2443.1324756450485
 20
319.0389323407875
 10
2442.3101920110103
 20
323.51149374421
 10
2442.407321473142
 20
335.0916070691535
 10
2442.1726382847773
 20
339.40404401854863
 10
2441.211380574495
 20
342.8845412351007
 10
2437.365707931765
 20
349.18122014518354
 10
2433.5731659967983
 20
352.0468075170886
 10
2425.005030777692
 20
356.2038687827435
 10
2413.0072758436895
 20
359.2851672569805
 10
2339.4574636130724
 20
373.36330217420226
 10
2289.7156749130945
 20
379.7421417716519
 10
2264.004678371224
 20
385.38648536202464
 10
2240.6294250388587
 20
391.4027326729868
 10
2210.855201299129
 20
402.3502607421436
 10
2182.0338923918266
 20
416.7139402217354
 10
2150.310738352029
 20
435.19511142682967
 10
2083.830342940296
 20
484.3608361679345
 10
2045.4171832088712
 20
509.26498774281794
 10
2039.9010070796985
 20
511.65119834118997
 10
2023.595938759964
 20
516.0328206758271
 10
1972.154691771447
 20
523.5617017137172
 10
1965.782317864898
 20
523.7238356064895
 10
1958.5820574121278
 20
521.7072295626641
 10
1952.9048174482177
 20
518.8049895735534
 10
1949.1044664085337
 20
515.1916363313051
 10
1945.6424536975642
 20
510.07428142789144
  0
LWPOLYLINE
  5
30
330
17
100
AcDbEntity
  8
0
100
AcDbPolyline
 90
22
 70
0
 10
1987.6481599428141
 20
454.0959545516355
 10
1991.1643509517412
 20
454.1698496542524
 10
1994.4918108991526
 20
455.3483323904037
 10
1996.9916014564799
 20
457.1970021952439
 10
1999.1259752031337
 20
460.05731700054014
 10
2000.2048159519434
 20
463.0041903317533
 10
2000.427752856476
 20
466.5827666893036
 10
1999.722686487864
 20
469.63482456493796
 10
1997.9586358265904
 20
472.726288336331
 10
1995.706971689112
 20
474.8554215195575
 10
1992.5497665888354
 20
476.41721269307476
 10
1989.5098946617209
 20
476.9053048782316
 10
1986.024414852409
 20
476.41035450028704
 10
1983.2215432771472
 20
475.0924437476358
 10
1980.583087450926
 20
472.7084198699515
 10
1978.96225669808
 20
470.02937817503107
 10
1978.0592427718263
 20
466.56012773922265
 10
1978.1660899270305
 20
463.4231268723769
 10
1979.3027715223056
 20
460.0370843356843
 10
1981.1012356318738
 20
457.49875031236917
 10
1983.8954461636363
 20
455.33712541115744
 10
1986.7794287949537
 20
454.2536167698957
  0
LWPOLYLINE
  5
31
330
17
100
AcDbEntity
  8
0
100
AcDbPolyline
 90
22
 70
0
 10
1933.3285535519578
 20
73.34077469831273
 10
1936.844744560885
 20
73.41466980092862
 10
1940.1722045082963
 20
74.59315253708066
 10
1942.6719950656236
 20
76.44182234192063
 10
1944.8063688122777
 20
79.30213714721704
 10
1945.885209561087
 20
82.24901047843026
 10
1946.1081464656197
 20
85.82758683598071
 10
1945.4030800970077
 20
88.87964471161514
 10
1943.6390294357338
 20
91.9711084830076
 10
1941.3873652982554
 20
94.10024166623414
 10
1938.230160197979
 20
95.66203283975138
 10
1935.1902882708646
 20
96.15012502490784
 10
1931.7048084615528
 20
95.65517464696394
 10
1928.901936886291
 20
94.33726389431253
 10
1926.26348106007
 20
91.9532400166283
 10
1924.6426503072237
 20
89.27419832170797
 10
1923.73963638097
 20
85.80494788589887
 10
1923.8464835361742
 20
82.66794701905344
 10
1924.9831651314494
 20
79.28190448236133
 10
1926.7816292410173
 20
76.74357045904533
 10
1929.57583977278
 20
74.58194555783406
 10
1932.4598224040974
 20
73.49843691657209
  0
LWPOLYLINE
  5
32
330
17
100
AcDbEntity
  8
0
100
AcDbPolyline
 90
65
 70
0
 10
2356.8309126631866
 20
1594.9843184655579
 10
1931.1637153283593
 20
1595.621134941706
 10
1925.9973287829334
 20
1593.970732742831
 10
1920.9820126525535
 20
1590.885189572281
 10
1914.7304067277337
 20
1586.216418423223
 10
1912.2586324476954
 20
1583.4275437313127
 10
1909.7062742082646
 20
1578.9774700132864
 10
1906.9964336332457
 20
1572.9418783436429
 10
1900.4460701348785
 20
1550.0832554522194
 10
1897.7580296733342
 20
1538.344588632646
 10
1896.4015440370765
 20
1526.6030965840482
 10
1896.43760800612
 20
1519.1975406171193
 10
1898.090108333542
 20
1506.6750145643143
 10
1904.8136988788592
 20
1470.042163948594
 10
1909.3339649555057
 20
1440.1747620458648
 10
1912.0387355103705
 20
1363.9574681207584
 10
1915.457835308985
 20
1246.4501848031057
 10
1922.250945470652
 20
1186.8216877785035
 10
1925.982384262282
 20
1160.393811096396
 10
1933.1548826106255
 20
1116.696174561918
 10
1934.2465585104762
 20
1106.8398495164279
 10
1934.2163106683133
 20
1092.590076185382
 10
1933.0997152481846
 20
1082.3407681011347
 10
1929.4559091397646
 20
1064.6775721290749
 10
1923.1203180832927
 20
1044.3612949899268
 10
1915.6871797038289
 20
1025.4507000225267
 10
1910.9289291459572
 20
1015.0811958778445
 10
1895.8366893433124
 20
986.868032418513
 10
1889.1262100642064
 20
972.6755321435725
 10
1885.690393853347
 20
964.6351995090808
 10
1884.106107624659
 20
958.8388732387791
 10
1882.4235815276522
 20
950.324149347013
 10
1880.459676824126
 20
840.0315823611445
 10
1881.3880789084042
 20
835.2126741977889
 10
1886.1220652946226
 20
826.7699161000104
 10
1888.5574142333408
 20
824.4992425224438
 10
1891.4431999722074
 20
822.6681277340232
 10
1894.9082539565306
 20
821.4650891287598
 10
2255.553568913209
 20
817.3022006152764
 10
2259.151727684604
 20
818.3014528544041
 10
2263.652098421022
 20
820.8091268688157
 10
2270.5995720070305
 20
826.5840005448059
 10
2288.42604358464
 20
844.9219147566762
 10
2304.974961736172
 20
865.2284949555676
 10
2308.225231309147
 20
871.7462461690143
 10
2310.27628745493
 20
879.6258466412451
 10
2310.9397294556525
 20
887.2365308484258
 10
2311.506612047181
 20
1072.6694572898598
 10
2314.1430303962857
 20
1114.1891148813504
 10
2315.7347055163577
 20
1132.379195307459
 10
2324.8611871220505
 20
1177.6382778829352
 10
2333.1659722916806
 20
1214.4588463250113
 10
2352.839133406441
 20
1268.7230632578555
 10
2361.7076197126794
 20
1291.441343902614
 10
2372.5154855046644
 20
1324.490554070776
 10
2378.125920331276
 20
1347.9673902493862
 10
2383.6858779651843
 20
1388.8817113131474
 10
2385.3395351614645
 20
1404.0544746291976
 10
2386.08007200472
 20
1427.7295577020245
 10
2386.0032606816712
 20
1572.3579764099607
 10
2384.07333495209
 20
1577.9805219335142
 10
2376.5102950283176
 20
1587.1492124345782
 10
2371.9871939286713
 20
1590.874240277944
 10
2366.814308211877
 20
1593.4225840380554
 10
2363.487150463047
 20
1594.2452280321793
  0
LWPOLYLINE
  5
33
330
17
100
AcDbEntity
  8
0
100
AcDbPolyline
 90
22
 70
0
 10
2317.061016676341
 20
1543.8444840629088
 10
2317.614631357023
 20
1540.3713629186373
 10
2319.236689138298
 20
1537.2361213306192
 10
2321.409565818416
 20
1535.012354299019
 10
2324.5346742102975
 20
1533.288797042995
 10
2327.601313329025
 20
1532.6227007233856
 10
2331.176790558589
 20
1532.890790617062
 10
2334.103894958357
 20
1534.0062437506474
 10
2336.9253480906946
 20
1536.1761343486728
 10
2338.726873065866
 20
1538.6975837857537
 10
2339.842653508815
 20
1542.0385671317194
 10
2339.9108348335094
 20
1545.1166195389135
 10
2338.944309425071
 20
1548.5017892558687
 10
2337.255804954713
 20
1551.098312021597
 10
2334.5336489219844
 20
1553.3862992439756
 10
2331.6582784235097
 20
1554.6258964483109
 10
2328.0981838665443
 20
1555.0464430959403
 10
2325.0051991403466
 20
1554.5119936252952
 10
2321.806213096391
 20
1552.9233409257088
 10
2319.537404508701
 20
1550.794932985546
 10
2317.777819910675
 20
1547.7315856739042
 10
2317.0985067991496
 20
1544.7266097189358
  0
LWPOLYLINE
  5
34
330
17
100
AcDbEntity
  8
0
100
AcDbPolyline
 90
22
 70
0
 10
1941.2615973577206
 20
1545.6514661159022
 10
1941.8152120384027
 20
1542.1783449716308
 10
1943.4372698196778
 20
1539.0431033836128
 10
1945.6101464997953
 20
1536.8193363520124
 10
1948.7352548916767
 20
1535.0957790959883
 10
1951.8018940104043
 20
1534.4296827763792
 10
1955.3773712399682
 20
1534.6977726700554
 10
1958.3044756397367
 20
1535.8132258036408
 10
1961.125928772074
 20
1537.9831164016662
 10
1962.9274537472459
 20
1540.504565838747
 10
1964.0432341901944
 20
1543.8455491847128
 10
1964.1114155148887
 20
1546.923601591907
 10
1963.1448901064505
 20
1550.308771308862
 10
1961.4563856360921
 20
1552.9052940745903
 10
1958.734229603364
 20
1555.1932812969692
 10
1955.8588591048892
 20
1556.4328785013045
 10
1952.298764547924
 20
1556.8534251489339
 10
1949.2057798217263
 20
1556.3189756782888
 10
1946.0067937777703
 20
1554.7303229787021
 10
1943.7379851900807
 20
1552.6019150385393
 10
1941.9784005920544
 20
1549.538567726898
 10
1941.2990874805294
 20
1546.5335917719292
  0
LWPOLYLINE
  5
35
330
17
100
AcDbEntity
  8
0
100
AcDbPolyline
 90
60
 70
0
 10
2050.129476820087
 20
1596.4532413635816
 10
2448.0333131478715
 20
1595.8448770838054
 10
2460.7183408171672
 20
1597.3438519568067
 10
2471.478551422758
 20
1599.7901019309004
 10
2479.5120758857565
 20
1603.656985549878
 10
2485.468818380757
 20
1609.1839569708145
 10
2492.476832955494
 20
1618.4338394137067
 10
2495.5043555388575
 20
1623.903588134361
 10
2497.503141217324
 20
1628.6199421170627
 10
2498.603678930579
 20
1633.7783565653833
 10
2499.0000000253494
 20
1805.0390986947828
 10
2498.3137641468766
 20
1809.2692191976314
 10
2497.1636226745
 20
1812.593936537092
 10
2494.7819887408123
 20
1816.7514593783849
 10
2491.7059246217436
 20
1820.3815600399114
 10
2488.9360105349597
 20
1822.8028675572398
 10
2485.625262186528
 20
1824.394420948537
 10
2480.6957830431697
 20
1825.6866962658178
 10
2453.220228507526
 20
1825.8168782853352
 10
2445.7303172207853
 20
1826.8786221991973
 10
2442.565981519124
 20
1827.9329158185976
 10
2433.299629917678
 20
1833.236796090651
 10
2427.5542110305487
 20
1837.3983638881061
 10
2420.8778233187463
 20
1844.751768394832
 10
2417.189428575193
 20
1852.231132799761
 10
2415.774477889128
 20
1859.225860210226
 10
2415.88441681371
 20
1976.3127561200981
 10
2415.0740807045336
 20
1979.5721251309974
 10
2410.6525716010556
 20
1989.4573308828105
 10
2407.0540765411733
 20
1993.9945323080035
 10
2403.729399225438
 20
1996.44700120543
 10
2400.1254425722805
 20
1997.8125100031345
 10
2394.6717882986654
 20
1998.9999644995444
 10
2104.082534601175
 20
1998.999999546363
 10
2097.8079505691367
 20
1996.9117031919768
 10
2092.5115280142677
 20
1993.3801686885263
 10
2088.8660665965044
 20
1989.4664354314875
 10
2086.2504665697747
 20
1984.15995566737
 10
2085.4721787708595
 20
1981.7839988006078
 10
2085.052915434854
 20
1978.0923218978594
 10
2081.603100170441
 20
1874.3478090959345
 10
2078.1497426295327
 20
1855.7766391187222
 10
2076.2933347578514
 20
1851.7019323420532
 10
2071.9335479903025
 20
1843.7348745559102
 10
2068.504851399282
 20
1839.4816356737888
 10
2044.2466617807906
 20
1815.6076270846
 10
2016.4654696217503
 20
1787.2109811816686
 10
2002.3083296967848
 20
1771.068741204415
 10
1999.1523582739383
 20
1764.0964297715989
 10
1998.0372648972798
 20
1760.92664835416
 10
1997.7512727612373
 20
1755.943035783451
 10
1996.239391610786
 20
1636.0962038504827
 10
1996.8142150498563
 20
1633.2545966986152
 10
1998.2336067248577
 20
1628.8382684934168
 10
2000.5630392455275
 20
1624.7528304610203
 10
2008.109892334918
 20
1615.1862907480565
 10
2015.5444464223613
 20
1607.8752820943573
 10
2019.953637567362
 20
1604.6337528515103
 10
2027.6610978388685
 20
1600.425103963559
 10
2041.1227071578965
 20
1597.1242812913285
  0
LWPOLYLINE
  5
36
330
17
100
AcDbEntity
  8
0
100
AcDbPolyline
 90
22
 70
0
 10
2449.0705102167612
 20
1647.7126585201333
 10
2448.5155052704413
 20
1651.1855577710492
 10
2446.8921925642276
 20
1654.3201497889804
 10
2444.7184258717134
 20
1656.5430468276097
 10
2441.592627780526
 20
1658.2653529470126
 10
2438.5257222653886
 20
1658.9302216203068
 10
2434.9503526401977
 20
1658.6607004643975
 10
2432.023694997141
 20
1657.5440756837743
 10
2429.203110710316
 20
1655.373055815994
 10
2427.4025952299266
 20
1652.8508854203228
 10
2426.2881522908647
 20
1649.5094556888362
 10
2426.2212031333825
 20
1646.4313762348938
 10
2427.189083566923
 20
1643.0465936947417
 10
2428.878627304711
 20
1640.4507470549215
 10
2431.6016990135317
 20
1638.1638497102838
 10
2434.4775654993805
 20
1636.9254036323057
 10
2438.0378281183
 20
1636.506282144314
 10
2441.1305986535413
 20
1637.041969711379
 10
2444.3289484945462
 20
1638.6319028558455
 10
2446.5969048867437
 20
1640.7612188423573
 10
2448.355263068571
 20
1643.825270280201
 10
2449.0333732168347
 20
1646.8305179272763
  0
LWPOLYLINE
  5
37
330
17
100
AcDbEntity
  8
0
100
AcDbPolyline
 90
22
 70
0
 10
2057.073807533538
 20
1647.9711120424925
 10
2056.518802587218
 20
1651.4440112934083
 10
2054.895489881005
 20
1654.5786033113395
 10
2052.7217231884906
 20
1656.8015003499688
 10
2049.5959250973033
 20
1658.5238064693717
 10
2046.5290195821663
 20
1659.188675142666
 10
2042.9536499569754
 20
1658.9191539867566
 10
2040.0269923139176
 20
1657.8025292061334
 10
2037.2064080270939
 20
1655.631509338353
 10
2035.4058925467039
 20
1653.109338942682
 10
2034.2914496076423
 20
1649.7679092111953
 10
2034.2245004501603
 20
1646.689829757253
 10
2035.1923808837003
 20
1643.3050472171008
 10
2036.881924621488
 20
1640.7092005772806
 10
2039.6049963303085
 20
1638.422303232643
 10
2042.4808628161584
 20
1637.1838571546648
 10
2046.041125435077
 20
1636.764735666673
 10
2049.1338959703185
 20
1637.3004232337378
 10
2052.332245811323
 20
1638.8903563782046
 10
2054.6002022035204
 20
1641.0196723647164
 10
2056.3585603853476
 20
1644.0837238025601
 10
2057.0366705336114
 20
1647.0889714496354
  0
LWPOLYLINE
  5
38
330
17
100
AcDbEntity
  8
0
100
AcDbPolyline
 90
56
 70
0
 10
2499.000000820087
 20
422.30661483420045
 10
2499.000001131652
 20
839.653188527756
 10
2497.5817607873337
 20
845.4880245588846
 10
2495.0348628570073
 20
852.1779705719872
 10
2491.5775628566385
 20
859.0168850576136
 10
2487.864771486572
 20
864.2579518031622
 10
2483.7147769021026
 20
868.9789153787675
 10
2475.6416999236194
 20
875.8200601684171
 10
2465.322801111218
 20
880.6398273354916
 10
2460.666488380949
 20
882.1826326282593
 10
2334.9851905834744
 20
881.995097797963
 10
2331.5236710926492
 20
881.0331026267731
 10
2325.481203616416
 20
877.8245017374021
 10
2318.4938904053947
 20
872.1118585120743
 10
2309.7432941583875
 20
862.9322387215827
 10
2253.3093676350577
 20
808.5247783655186
 10
2248.55078190906
 20
805.5982687269302
 10
2236.9949364063223
 20
800.5165488884088
 10
2228.3854959842884
 20
798.9784439862372
 10
2121.870645619689
 20
795.6017898142184
 10
2113.8768400622525
 20
794.5351140956091
 10
2107.8953726802497
 20
792.9837486195988
 10
2104.1971745273104
 20
790.4329053757801
 10
2100.7162288600525
 20
787.2162055640389
 10
2098.733592578879
 20
784.1685017967712
 10
2097.3729280980274
 20
780.3160946680231
 10
2096.1628596008627
 20
775.2307090600286
 10
2096.158838924587
 20
486.51004872884545
 10
2099.402722695008
 20
477.1078489663565
 10
2102.4219138441563
 20
472.9456583461519
 10
2106.196434262953
 20
469.2455468542781
 10
2109.669461127417
 20
467.16375648784754
 10
2115.030650465254
 20
465.77481660181184
 10
2121.3737456362796
 20
464.92493314345836
 10
2226.6030224381557
 20
464.72786081052027
 10
2241.5477589644065
 20
461.81532979691355
 10
2249.9199803751912
 20
458.81635579024606
 10
2255.0298048194472
 20
455.59661205219436
 10
2261.3345154391736
 20
448.71465910200186
 10
2268.5063868522666
 20
433.9540111145392
 10
2269.7005640721472
 20
428.2944633839196
 10
2270.4726852564836
 20
393.73479892092666
 10
2271.9190629623167
 20
390.84462013486797
 10
2274.9387046193397
 20
387.9538826280501
 10
2278.461926010309
 20
385.4482558696296
 10
2286.9562266865814
 20
381.7207866048752
 10
2294.19268980109
 20
380.17706709981496
 10
2300.1709070491193
 20
379.66122996096465
 10
2466.048568766165
 20
381.3823161753659
 10
2469.785927761353
 20
381.92584134440636
 10
2473.310583835392
 20
383.46574918749263
 10
2478.78681280623
 20
387.0598386151193
 10
2485.396815704152
 20
393.5431938897698
 10
2490.8111379988263
 20
400.026972824185
 10
2495.407796592305
 20
407.73112260514057
 10
2498.3680103937236
 20
414.72948872417845
  0
LWPOLYLINE
  5
39
330
17
100
AcDbEntity
  8
0
100
AcDbPolyline
 90
22
 70
0
 10
2448.4906417302773
 20
845.396139133544
 10
2445.0185050064956
 20
844.8363835897388
 10
2441.8861367027853
 20
843.2087841086187
 10
2439.6662155765
 20
841.031978405093
 10
2437.9481873322175
 20
837.9038270296559
 10
2437.2875149762294
 20
834.8360148076414
 10
2437.561927181874
 20
831.2610172479762
 10
2438.6825547459152
 20
828.3358899476553
 10
2440.8574312962483
 20
825.5182783746762
 10
2443.3820625357366
 20
823.721215046765
 10
2446.7250137594833
 20
822.6113444099166
 10
2449.80318192312
 20
822.5486062967772
 10
2453.1866371822616
 20
823.5211163929399
 10
2455.780170004324
 20
825.2142098104001
 10
2458.0633398973064
 20
827.9404075721313
 10
2459.2978504731127
 20
830.8179656290116
 10
2459.7121009341595
 20
834.3787982974878
 10
2459.172182788486
 20
837.47083308855
 10
2457.577875613674
 20
840.6670048207433
 10
2455.445458930885
 20
842.9320460694373
 10
2452.3790048298088
 20
844.6862108152189
 10
2449.3728323030928
 20
845.3602089851338
  0
LWPOLYLINE
  5
3A
330
17
100
AcDbEntity
  8
0
100
AcDbPolyline
 90
22
 70
0
 10
2447.858130611776
 20
453.0131507808339
 10
2444.3859938879946
 20
452.4533952370289
 10
2441.2536255842842
 20
450.82579575590864
 10
2439.0337044579983
 20
448.64899005238294
 10
2437.315676213716
 20
445.52083867694574
 10
2436.6550038577284
 20
442.4530264549312
 10
2436.929416063373
 20
438.8780288952659
 10
2438.0500436274137
 20
435.9529015949452
 10
2440.224920177747
 20
433.13529002196617
 10
2442.7495514172356
 20
431.3382266940548
 10
2446.092502640982
 20
430.22835605720644
 10
2449.170670804619
 20
430.165617944067
 10
2452.55412606376
 20
431.13812804022984
 10
2455.147658885823
 20
432.8312214576899
 10
2457.430828778805
 20
435.55741921942115
 10
2458.665339354611
 20
438.43497727630154
 10
2459.0795898156584
 20
441.9958099447776
 10
2458.539671669985
 20
445.08784473583984
 10
2456.9453644951727
 20
448.2840164680331
 10
2454.8129478123838
 20
450.5490577167273
 10
2451.7464937113073
 20
452.30322246250887
 10
2448.7403211845913
 20
452.9772206324237
  0
LWPOLYLINE
  5
3B
330
17
100
AcDbEntity
  8
0
100
AcDbPolyline
 90
69
 70
0
 10
2570.8913861
 20
598.6215523655493
 10
2571.2296339820005
 20
161.14078835154947
 10
2572.1005059560002
 20
156.81868459914955
 10
2573.5519576892
 20
153.01265420874944
 10
2575.5194827844
 20
149.59367738034945
 10
2579.3577681248003
 20
145.62637457514944
 10
2588.6470629536007
 20
140.43340001634948
 10
2595.6328721336004
 20
138.32638058154936
 10
2602.32116399
 20
137.32313779554948
 10
2818.3236179888
 20
135.75233165514945
 10
2838.7897941752
 20
137.11674347874944
 10
2862.541680174728
 20
142.10232487197453
 10
2874.3017721720717
 20
145.47128932979166
 10
2905.2714412478863
 20
155.07533304303996
 10
2921.0928788370793
 20
159.31606968494435
 10
2953.7620702522154
 20
167.5770970038937
 10
3041.5510348667826
 20
192.16883250475632
 10
3109.4387912393386
 20
209.19941963394038
 10
3128.3447174468
 20
213.78571462674952
 10
3132.6363713588
 20
215.68073059434963
 10
3135.5346324476
 20
217.63148194794954
 10
3137.4296484152
 20
219.97238450634953
 10
3140.2164363968
 20
225.32301892554952
 10
3141.6098315552
 20
231.23101070754947
 10
3141.9999815924
 20
235.41119384754953
 10
3141.5340076111997
 20
478.50553486434944
 10
3140.5276671824004
 20
482.1438418499496
 10
3136.6571268919997
 20
489.3817510487495
 10
3132.9801139664
 20
492.94264848954947
 10
3130.3481474095997
 20
494.2586317679494
 10
3122.8780060736
 20
495.8455531235495
 10
3115.8813078559997
 20
496.25025612714956
 10
3109.194146743387
 20
495.3920822566173
 10
3088.1329028568443
 20
490.8487332279207
 10
3062.6334014156
 20
486.13702334154965
 10
3039.211976096645
 20
483.5347051254169
 10
3024.6417582296
 20
482.89132769394956
 10
3018.4617751952
 20
483.69392309034953
 10
3014.6093186936
 20
485.21885422674956
 10
3011.9607547028
 20
486.98456316474955
 10
3010.0345264519997
 20
489.6331271555495
 10
3009.1516713992
 20
492.04091217714955
 10
3008.4899224232
 20
542.8790078099495
 10
3006.7804345928
 20
547.9429649039495
 10
3002.6841131551996
 20
553.5552468071495
 10
2998.4910280352
 20
557.6193144623495
 10
2996.200959278
 20
559.1352760955496
 10
2991.6853293284
 20
560.4899641463494
 10
2886.1515593
 20
560.3765750075494
 10
2837.8879819688
 20
557.3254295423493
 10
2802.6523608679095
 20
557.6236572565932
 10
2787.9601437931997
 20
558.0188706851494
 10
2771.8722854611997
 20
559.9605089207494
 10
2743.6228619875997
 20
564.9950284835494
 10
2704.6167390332
 20
575.3485054775493
 10
2685.9965314412
 20
582.3310827407494
 10
2664.5261480312
 20
593.3529616955494
 10
2644.220411552503
 20
606.1935490471424
 10
2627.4462533276005
 20
615.8898332807493
 10
2615.8888826552
 20
620.6090926703492
 10
2606.16142958
 20
623.0168776919495
 10
2592.9667661204003
 20
624.5578609931493
 10
2589.1143096188007
 20
624.5578609931493
 10
2586.5139009548
 20
623.8836805799494
 10
2584.1061159332003
 20
622.4390090999494
 10
2579.9647251356005
 20
618.9717987155494
 10
2576.4975135836003
 20
614.3488499795494
 10
2573.222925674
 20
608.4738545735494
 10
2571.2815373048006
 20
601.4640769007494
  0
LWPOLYLINE
  5
3C
330
17
100
AcDbEntity
  8
0
100
AcDbPolyline
 90
22
 70
0
 10
2617.8509562260006
 20
559.1262015083494
 10
2621.458897985898
 20
559.6973942637
 10
2624.71391426099
 20
561.3561098771469
 10
2627.0202871471183
 20
563.5736938207372
 10
2628.8052599947046
 20
566.7609431129963
 10
2629.490921171431
 20
569.8861178562978
 10
2629.204329890821
 20
573.5279025820857
 10
2628.0381821509777
 20
576.5073239511524
 10
2625.776623043029
 20
579.3761355849927
 10
2623.1517288117775
 20
581.2055569325687
 10
2619.6774847887714
 20
582.3344317111613
 10
2616.478592955574
 20
582.3972268702771
 10
2612.9626954009436
 20
581.4056653832827
 10
2610.2680269273196
 20
579.6806685689339
 10
2607.895546996673
 20
576.902887300973
 10
2606.6133689327125
 20
573.971527265045
 10
2606.1839765709237
 20
570.3438072762696
 10
2606.7464605924797
 20
567.1941311248709
 10
2608.4048860905395
 20
563.9392370176911
 10
2610.6224542343416
 20
561.6328448378486
 10
2613.8097610221444
 20
559.8477443077134
 10
2616.934264773251
 20
559.1624589495428
  0
LWPOLYLINE
  5
3D
330
17
100
AcDbEntity
  8
0
100
AcDbPolyline
 90
22
 70
0
 10
2617.9433635928003
 20
169.87166913954965
 10
2621.551305352698
 20
170.4428618949
 10
2624.8063216277897
 20
172.10157750834705
 10
2627.112694513918
 20
174.31916145193722
 10
2628.8976673615043
 20
177.5064107441966
 10
2629.5833285382314
 20
180.6315854874982
 10
2629.2967372576213
 20
184.2733702132858
 10
2628.1305895177775
 20
187.25279158235261
 10
2625.8690304098286
 20
190.12160321619282
 10
2623.2441361785777
 20
191.9510245637691
 10
2619.769892155571
 20
193.07989934236159
 10
2616.571000322374
 20
193.14269450147728
 10
2613.0551027677434
 20
192.15113301448292
 10
2610.36043429412
 20
190.42613620013407
 10
2607.987954363473
 20
187.64835493217328
 10
2606.7057762995123
 20
184.71699489624524
 10
2606.276383937724
 20
181.08927490746981
 10
2606.83886795928
 20
177.93959875607112
 10
2608.4972934573393
 20
174.6847046488911
 10
2610.714861601141
 20
172.3783124690487
 10
2613.902168388944
 20
170.5932119389135
 10
2617.0266721400512
 20
169.90792658074312
  0
LWPOLYLINE
  5
3E
330
17
100
AcDbEntity
  8
0
100
AcDbPolyline
 90
76
 70
0
 10
3119.9535891000005
 20
912.6366411678375
 10
2659.645747688401
 20
912.4107374226375
 10
2652.601364686801
 20
911.0173422642374
 10
2643.505596055201
 20
908.4627864198375
 10
2636.5773297060014
 20
905.4824710734374
 10
2631.197279940001
 20
901.8828688602374
 10
2624.1095474532012
 20
894.9716331246374
 10
2620.098316766427
 20
890.2262556200191
 10
2614.9131445452012
 20
881.9851971138374
 10
2610.3985467540015
 20
871.4511367686374
 10
2608.392058846801
 20
863.7038644050374
 10
2607.834701484001
 20
858.8548519626374
 10
2606.5370763804012
 20
764.5716937290374
 10
2607.2337739596014
 20
760.2521715402374
 10
2608.627167950401
 20
756.6293457630375
 10
2614.711656483601
 20
747.2471578458374
 10
2618.102250123601
 20
743.0205275778374
 10
2640.0823047411754
 20
722.2047756099889
 10
2647.418895025201
 20
715.3395419910374
 10
2652.946026195601
 20
706.9327297506375
 10
2657.6511883991207
 20
695.2753683941221
 10
2659.309192826401
 20
690.3048902790373
 10
2660.5168018080008
 20
682.9663468038375
 10
2661.602534366401
 20
666.3953577762375
 10
2664.112874366401
 20
659.8281974142374
 10
2670.197362899601
 20
652.1645287134374
 10
2673.959526558001
 20
650.2137761922374
 10
2675.492260765201
 20
649.9815440550374
 10
2716.9691012136004
 20
649.4021704266374
 10
2720.9202771276005
 20
647.9238393738374
 10
2726.4035415660005
 20
643.7307542538374
 10
2728.8688612452006
 20
640.8256989006375
 10
2730.2622552360003
 20
638.4259644810375
 10
2732.0039980164006
 20
632.2331016510375
 10
2732.1588194412006
 20
626.5047019278375
 10
2731.8491765916006
 20
624.2984948730375
 10
2726.2925051412003
 20
596.9045473998374
 10
2726.1319869960003
 20
586.7918493750374
 10
2726.6938034232003
 20
580.5316066842373
 10
2728.9655934024004
 20
575.1742842522374
 10
2730.7491385980006
 20
573.0563244054374
 10
2736.6013938264005
 20
568.7646704934375
 10
2743.2339514644004
 20
566.2565606094373
 10
2748.1944346788005
 20
565.1975812698373
 10
3025.2827269512004
 20
565.1739548838376
 10
3029.2693827264
 20
565.9867679478376
 10
3035.7718895736007
 20
569.1606106590376
 10
3039.2553751344003
 20
571.3668188814377
 10
3041.2680559920004
 20
573.1859723742376
 10
3043.3581475620003
 20
575.8953496434375
 10
3044.7091214772004
 20
579.4049695950374
 10
3045.3593719284004
 20
583.3529205978376
 10
3045.4522650168005
 20
591.4346076126375
 10
3044.9413536144
 20
596.4972733410376
 10
3041.6956731456003
 20
614.7061506318374
 10
3041.2627924512003
 20
620.3893420506374
 10
3041.7737038536006
 20
629.0283864282376
 10
3043.8637954236005
 20
635.3915542266376
 10
3047.3937269448006
 20
640.7793463482375
 10
3050.2734091824004
 20
643.4267952810375
 10
3057.8906319228004
 20
648.3036748326375
 10
3062.4888322092006
 20
650.1150883050376
 10
3068.3875357332004
 20
651.2298030306375
 10
3127.4158071024003
 20
651.2956463298375
 10
3129.8310238980007
 20
651.9923427414375
 10
3131.6888833308003
 20
653.1535045950376
 10
3134.2434391752004
 20
655.3829363814374
 10
3139.1203187268
 20
662.4892465518375
 10
3141.4890895620006
 20
668.1092708106376
 10
3142.0000009644004
 20
671.3140782738375
 10
3141.6286119240003
 20
899.6703322458376
 10
3140.9319155124003
 20
901.4120761938375
 10
3139.4224048692004
 20
903.5795784762375
 10
3136.0163300208005
 20
906.8308318998376
 10
3130.4427528900005
 20
910.0820853234376
 10
3123.8241293904002
 20
912.1721768934375
  0
LWPOLYLINE
  5
3F
330
17
100
AcDbEntity
  8
0
100
AcDbPolyline
 90
22
 70
0
 10
2653.8012920280007
 20
853.5713148450375
 10
2654.3724847833514
 20
849.9633730851398
 10
2656.0312003967983
 20
846.7083568100479
 10
2658.2487843403887
 20
844.4019839239197
 10
2661.4360336326476
 20
842.617011076333
 10
2664.5612083759493
 20
841.9313498996067
 10
2668.2029931017373
 20
842.2179411802168
 10
2671.182414470804
 20
843.3840889200599
 10
2674.0512261046442
 20
845.6456480280092
 10
2675.8806474522207
 20
848.2705422592603
 10
2677.0095222308128
 20
851.7447862822665
 10
2677.0723173899287
 20
854.9436781154637
 10
2676.0807559029345
 20
858.4595756700943
 10
2674.3557590885857
 20
861.1542441437181
 10
2671.5779778206247
 20
863.5267240743648
 10
2668.646617784697
 20
864.8089021383255
 10
2665.0188977959215
 20
865.2382945001139
 10
2661.8692216445224
 20
864.6758104785578
 10
2658.6143275373424
 20
863.0173849804985
 10
2656.3079353575004
 20
860.7998168366964
 10
2654.522834827365
 20
857.6125100488935
 10
2653.8375494691945
 20
854.4880062977868
  0
LWPOLYLINE
  5
40
330
17
100
AcDbEntity
  8
0
100
AcDbPolyline
 90
22
 70
0
 10
3071.2087142052005
 20
854.3288315406376
 10
3071.779906960551
 20
850.72088978074
 10
3073.438622573998
 20
847.4658735056481
 10
3075.656206517588
 20
845.1595006195199
 10
3078.843455809847
 20
843.3745277719332
 10
3081.968630553149
 20
842.6888665952068
 10
3085.6104152789367
 20
842.9754578758169
 10
3088.5898366480037
 20
844.1416056156601
 10
3091.458648281844
 20
846.4031647236093
 10
3093.28806962942
 20
849.0280589548604
 10
3094.4169444080126
 20
852.5023029778667
 10
3094.4797395671285
 20
855.7011948110638
 10
3093.488178080134
 20
859.2170923656944
 10
3091.763181265785
 20
861.9117608393182
 10
3088.985399997824
 20
864.284240769965
 10
3086.0540399618963
 20
865.5664188339257
 10
3082.426319973121
 20
865.9958111957139
 10
3079.276643821722
 20
865.433327174158
 10
3076.0217497145422
 20
863.7749016760987
 10
3073.7153575346997
 20
861.5573335322965
 10
3071.9302570045643
 20
858.3700267444935
 10
3071.244971646394
 20
855.2455229933869
  0
LWPOLYLINE
  5
41
330
17
100
AcDbEntity
  8
0
100
AcDbPolyline
 90
72
 70
0
 10
3088.8086911
 20
1260.7910573127624
 10
2624.6303093980005
 20
1260.5524956159625
 10
2621.5338773992
 20
1259.8170932643625
 10
2615.6119514788
 20
1257.2238314799624
 10
2612.4381099352004
 20
1255.2111506223623
 10
2609.0320339192003
 20
1251.9598971987623
 10
2606.8258268644004
 20
1248.0506521359623
 10
2606.5548887872
 20
1246.6185522051624
 10
2606.4544378240003
 20
1019.6943969963622
 10
2607.6620468056003
 20
1014.2601600819622
 10
2609.3341200616005
 20
1010.8695664419622
 10
2614.2109996132003
 20
1003.7632551039621
 10
2618.6234148904005
 20
1000.3726626315622
 10
2621.0386328536006
 20
999.675965052362
 10
2680.0669042228
 20
999.6101229207623
 10
2685.9656065792005
 20
998.4954070275621
 10
2690.5638080332
 20
996.6839947227622
 10
2698.181029606
 20
991.8071151711622
 10
2701.0607118436
 20
989.1596650707622
 10
2704.5906445324
 20
983.7718741167622
 10
2705.751806386
 20
981.0779780559621
 10
2706.6807349348
 20
977.4087063183621
 10
2707.1916463372
 20
968.7696619407623
 10
2706.7587656428
 20
963.0864705219622
 10
2703.0021749392
 20
939.8149275027621
 10
2703.09506686
 20
931.7332404879622
 10
2703.7453184788
 20
927.7852894851621
 10
2705.0962912264
 20
924.2756695335621
 10
2709.199063654
 20
919.7471387715623
 10
2715.6628645612
 20
915.7991877687623
 10
2719.185056062
 20
914.3670878379622
 10
2723.1717118372
 20
913.5542747739623
 10
3000.2600041096002
 20
913.5778999923624
 10
3008.7318411616
 20
915.8073317787623
 10
3011.8530449620002
 20
917.1449903835623
 10
3014.8627768228
 20
919.0400063511622
 10
3019.4888453860003
 20
923.5546041423622
 10
3021.7606353652
 20
928.9119265743624
 10
3022.32245296
 20
935.1721680975623
 10
3021.60011722
 20
949.8596595315622
 10
3016.2956193472
 20
974.8850218179622
 10
3016.450440772
 20
980.6134203735622
 10
3018.1921835524
 20
986.8062843711623
 10
3021.0950893540003
 20
991.0638782235623
 10
3024.980681176
 20
994.5839190051623
 10
3029.8457341072
 20
997.3255512243624
 10
3033.5228766364
 20
998.0905428951622
 10
3074.4949122304
 20
998.5940960823624
 10
3078.2570770564
 20
1000.5448486035623
 10
3080.1149353216
 20
1002.3562609083623
 10
3084.3415655896
 20
1008.2085173043623
 10
3086.851904422
 20
1014.7756776663623
 10
3087.9376369804
 20
1031.3466666939623
 10
3090.0368134490677
 20
1041.4009177607525
 10
3093.3718750624002
 20
1050.3432758331624
 10
3097.087593928
 20
1058.4714099759624
 10
3103.1720824612003
 20
1065.9957384603624
 10
3123.4316646712
 20
1084.6661084835625
 10
3130.3521898324
 20
1091.4008474679624
 10
3133.7427823048
 20
1095.6274765683625
 10
3139.827270838
 20
1105.0096656531625
 10
3141.2206648288
 20
1108.6324914303625
 10
3141.917362408
 20
1112.9520136191625
 10
3142.0000004656
 20
1120.7102100483623
 10
3140.0623799416
 20
1212.0841831275625
 10
3138.0558920344
 20
1219.8314566587624
 10
3133.5412942432
 20
1230.3655170039624
 10
3127.243152424
 20
1240.2307492143625
 10
3117.2571588484
 20
1250.2631887503624
 10
3111.8771090824002
 20
1253.8627909635625
 10
3104.9488427332
 20
1256.8431063099624
 10
3095.8530741016
 20
1259.3976621543625
  0
LWPOLYLINE
  5
42
330
17
100
AcDbEntity
  8
0
100
AcDbPolyline
 90
22
 70
0
 10
2653.2108315388004
 20
1204.6298335815625
 10
2653.7820242941507
 20
1201.021891821665
 10
2655.440739907598
 20
1197.766875546573
 10
2657.658323851188
 20
1195.4605026604447
 10
2660.845573143447
 20
1193.675529812858
 10
2663.9707478867485
 20
1192.9898686361316
 10
2667.6125326125366
 20
1193.2764599167417
 10
2670.591953981603
 20
1194.4426076565849
 10
2673.460765615444
 20
1196.7041667645342
 10
2675.2901869630196
 20
1199.3290609957853
 10
2676.4190617416125
 20
1202.8033050187914
 10
2676.4818569007275
 20
1206.0021968519886
 10
2675.4902954137337
 20
1209.5180944066192
 10
2673.7652985993846
 20
1212.212762880243
 10
2670.987517331424
 20
1214.58524281089
 10
2668.0561572954957
 20
1215.8674208748505
 10
2664.4284373067203
 20
1216.2968132366389
 10
2661.278761155322
 20
1215.7343292150829
 10
2658.023867048142
 20
1214.0759037170235
 10
2655.717474868299
 20
1211.8583355732214
 10
2653.932374338164
 20
1208.6710287854185
 10
2653.2470889799943
 20
1205.5465250343118
  0
LWPOLYLINE
  5
43
330
17
100
AcDbEntity
  8
0
100
AcDbPolyline
 90
22
 70
0
 10
3070.6586281564
 20
1203.9941477727623
 10
3071.2298209117507
 20
1200.386206012865
 10
3072.8885365251977
 20
1197.131189737773
 10
3075.1061204687876
 20
1194.8248168516448
 10
3078.293369761047
 20
1193.039844004058
 10
3081.4185445043486
 20
1192.3541828273317
 10
3085.0603292301366
 20
1192.6407741079418
 10
3088.039750599203
 20
1193.806921847785
 10
3090.9085622330435
 20
1196.0684809557342
 10
3092.7379835806196
 20
1198.6933751869853
 10
3093.866858359212
 20
1202.1676192099915
 10
3093.9296535183275
 20
1205.3665110431887
 10
3092.9380920313333
 20
1208.8824085978192
 10
3091.2130952169846
 20
1211.577077071443
 10
3088.435313949024
 20
1213.94955700209
 10
3085.5039539130958
 20
1215.2317350660505
 10
3081.8762339243203
 20
1215.661127427839
 10
3078.7265577729218
 20
1215.0986434062827
 10
3075.4716636657417
 20
1213.4402179082235
 10
3073.165271485899
 20
1211.2226497644215
 10
3071.3801709557642
 20
1208.0353429766185
 10
3070.694885597594
 20
1204.9108392255118
  0
LWPOLYLINE
  5
44
330
17
100
AcDbEntity
  8
0
100
AcDbPolyline
 90
62
 70
0
 10
3115.0681341
 20
1998.7963541000004
 10
2667.7279093224006
 20
1998.9999741992003
 10
2657.5999974696006
 20
1996.5808868096003
 10
2653.406912349601
 20
1994.0005270052002
 10
2650.7942975952005
 20
1991.3234035184003
 10
2647.4839542708005
 20
1984.4888043764004
 10
2647.0380676800005
 20
1981.4233371296002
 10
2655.2194049953896
 20
1789.647013306347
 10
2657.8963521486285
 20
1766.3565354230248
 10
2659.9748738057265
 20
1750.224929276453
 10
2664.641701537358
 20
1718.8516580980645
 10
2667.352595978401
 20
1691.6576585552002
 10
2669.320472211033
 20
1662.242393502075
 10
2669.9303399455252
 20
1643.485160266222
 10
2671.125091414574
 20
1593.5546480761275
 10
2671.929314760001
 20
1575.7141227044003
 10
2671.6211173992006
 20
1565.5166697632003
 10
2669.969075277282
 20
1549.7731262015648
 10
2654.9583306795175
 20
1456.3602376683127
 10
2647.29535237262
 20
1414.0846899663404
 10
2631.971946993989
 20
1321.1940813873616
 10
2627.470423911601
 20
1295.6174086184008
 10
2627.483176438801
 20
1287.3908084324007
 10
2628.0962691876007
 20
1282.0959105668007
 10
2630.1584924808003
 20
1275.4076175427997
 10
2634.1157329092007
 20
1270.5586051003997
 10
2643.7990495368003
 20
1265.7090765788007
 10
2645.831083364401
 20
1265.6445678463997
 10
2938.5452695260005
 20
1261.7138552899996
 10
2943.5382657300006
 20
1262.2170255044007
 10
2954.3370712020005
 20
1265.1586360783997
 10
2958.6720757668004
 20
1267.6357812103997
 10
2964.2069481252006
 20
1271.8159643504007
 10
2976.7464217824245
 20
1285.3603257738237
 10
3046.0163515969307
 20
1366.972767558644
 10
3067.1102531802103
 20
1391.6726929741076
 10
3078.4775863944005
 20
1404.5303963600004
 10
3084.6575682612
 20
1415.1246523232003
 10
3087.4666515648005
 20
1423.3913817536004
 10
3087.9482083356006
 20
1427.7253961936003
 10
3088.3635144841214
 20
1515.6795704362269
 10
3089.759916228492
 20
1570.6069585404632
 10
3091.2215025444
 20
1596.9260718656003
 10
3092.0258948772007
 20
1606.3892456864003
 10
3093.7595006532006
 20
1617.5613702416003
 10
3096.8414660880003
 20
1630.3707887516002
 10
3101.0686990822883
 20
1643.708706457179
 10
3111.226299893065
 20
1667.8089389760191
 10
3129.0094789272002
 20
1707.9977908784003
 10
3132.5730011328005
 20
1718.6883574952003
 10
3137.8701291144007
 20
1739.1063783548002
 10
3140.313637785613
 20
1754.8033535623629
 10
3141.461140406278
 20
1769.4875325759378
 10
3142.0000001890844
 20
1782.327166119462
 10
3140.9411273396536
 20
1888.3701682076319
 10
3139.0684428324
 20
1979.0103632936004
 10
3138.6626866536003
 20
1981.4689797812005
 10
3136.3217840951997
 20
1987.4327069492003
 10
3133.6464668856
 20
1991.2227400520003
 10
3130.135113048
 20
1994.4554146244002
 10
3126.1221384012
 20
1997.1307318340002
 10
3120.256950695264
 20
1998.3886629542153
  0
LWPOLYLINE
  5
45
330
17
100
AcDbEntity
  8
0
100
AcDbPolyline
 90
22
 70
0
 10
3082.0187817528
 20
1951.0671919592003
 10
3082.5899745081506
 20
1947.4592501993027
 10
3084.2486901215975
 20
1944.204233924211
 10
3086.4662740651875
 20
1941.8978610380827
 10
3089.653523357447
 20
1940.1128881904958
 10
3092.7786981007484
 20
1939.4272270137697
 10
3096.4204828265365
 20
1939.7138182943797
 10
3099.399904195603
 20
1940.8799660342227
 10
3102.2687158294434
 20
1943.1415251421722
 10
3104.0981371770195
 20
1945.7664193734233
 10
3105.227011955612
 20
1949.2406633964295
 10
3105.289807114728
 20
1952.4395552296266
 10
3104.298245627733
 20
1955.9554527842572
 10
3102.5732488133845
 20
1958.650121257881
 10
3099.795467545424
 20
1961.0226011885277
 10
3096.8641075094956
 20
1962.3047792524885
 10
3093.23638752072
 20
1962.7341716142766
 10
3090.0867113693216
 20
1962.1716875927207
 10
3086.8318172621416
 20
1960.5132620946615
 10
3084.525425082299
 20
1958.2956939508592
 10
3082.740324552164
 20
1955.1083871630565
 10
3082.0550391939937
 20
1951.9838834119496
  0
LWPOLYLINE
  5
46
330
17
100
AcDbEntity
  8
0
100
AcDbPolyline
 90
22
 70
0
 10
2694.4590429684
 20
1952.7460513064004
 10
2695.0302357237506
 20
1949.1381095465028
 10
2696.6889513371975
 20
1945.8830932714109
 10
2698.9065352807875
 20
1943.5767203852827
 10
2702.093784573047
 20
1941.791747537696
 10
2705.2189593163484
 20
1941.1060863609696
 10
2708.8607440421365
 20
1941.3926776415797
 10
2711.840165411203
 20
1942.5588253814228
 10
2714.7089770450434
 20
1944.8203844893721
 10
2716.5383983926195
 20
1947.445278720623
 10
2717.667273171212
 20
1950.9195227436294
 10
2717.730068330328
 20
1954.1184145768266
 10
2716.738506843333
 20
1957.6343121314571
 10
2715.0135100289845
 20
1960.328980605081
 10
2712.235728761024
 20
1962.7014605357276
 10
2709.3043687250956
 20
1963.9836385996884
 10
2705.67664873632
 20
1964.4130309614766
 10
2702.5269725849216
 20
1963.8505469399206
 10
2699.2720784777416
 20
1962.1921214418614
 10
2696.965686297899
 20
1959.9745532980594
 10
2695.180585767764
 20
1956.7872465102564
 10
2694.4953004095937
 20
1953.6627427591495
  0
ENDSEC
  0
SECTION
  2
OBJECTS
  0
DICTIONARY
  5
A
330
0
100
AcDbDictionary
281
1
  3
ACAD_COLOR
350
B
  3
ACAD_GROUP
350
C
  3
ACAD_LAYOUT
350
D
  3
ACAD_MATERIAL
350
E
  3
ACAD_MLEADERSTYLE
350
F
  3
ACAD_MLINESTYLE
350
10
  3
ACAD_PLOTSETTINGS
350
11
  3
ACAD_PLOTSTYLENAME
350
12
  3
ACAD_SCALELIST
350
14
  3
ACAD_TABLESTYLE
350
15
  3
ACAD_VISUALSTYLE
350
16
  3
EZDXF_META
350
2D
  0
DICTIONARY
  5
B
330
A
100
AcDbDictionary
281
1
  0
DICTIONARY
  5
C
330
A
100
AcDbDictionary
281
1
  0
DICTIONARY
  5
D
330
A
100
AcDbDictionary
281
1
  3
Model
350
1A
  3
Layout1
350
1E
  0
DICTIONARY
  5
E
330
A
100
AcDbDictionary
281
1
  3
ByBlock
350
1F
  3
ByLayer
350
20
  3
Global
350
21
  0
DICTIONARY
  5
F
330
A
100
AcDbDictionary
281
1
  3
Standard
350
2C
  0
DICTIONARY
  5
10
330
A
100
AcDbDictionary
281
1
  3
Standard
350
22
  0
DICTIONARY
  5
11
330
A
100
AcDbDictionary
281
1
  0
ACDBDICTIONARYWDFLT
  5
12
330
A
100
AcDbDictionary
281
1
  3
Normal
350
13
100
AcDbDictionaryWithDefault
340
13
  0
ACDBPLACEHOLDER
  5
13
330
12
  0
DICTIONARY
  5
14
330
A
100
AcDbDictionary
281
1
  0
DICTIONARY
  5
15
330
A
100
AcDbDictionary
281
1
  0
DICTIONARY
  5
16
330
A
100
AcDbDictionary
281
1
  0
LAYOUT
  5
1A
330
D
100
AcDbPlotSettings
  1

  4
A3
  6

 40
7.5
 41
20.0
 42
7.5
 43
20.0
 44
420.0
 45
297.0
 46
0.0
 47
0.0
 48
0.0
 49
0.0
140
0.0
141
0.0
142
1.0
143
1.0
 70
1024
 72
1
 73
0
 74
5
  7

 75
16
 76
0
 77
2
 78
300
147
1.0
148
0.0
149
0.0
100
AcDbLayout
  1
Model
 70
1
 71
0
 10
0.0
 20
0.0
 11
420.0
 21
297.0
 12
0.0
 22
0.0
 32
0.0
 14
1e+20
 24
1e+20
 34
1e+20
 15
-1e+20
 25
-1e+20
 35
-1e+20
146
0.0
 13
0.0
 23
0.0
 33
0.0
 16
1.0
 26
0.0
 36
0.0
 17
0.0
 27
1.0
 37
0.0
 76
1
330
17
  0
LAYOUT
  5
1E
330
D
100
AcDbPlotSettings
  1

  4
A3
  6

 40
7.5
 41
20.0
 42
7.5
 43
20.0
 44
420.0
 45
297.0
 46
0.0
 47
0.0
 48
0.0
 49
0.0
140
0.0
141
0.0
142
1.0
143
1.0
 70
0
 72
1
 73
0
 74
5
  7

 75
16
 76
0
 77
2
 78
300
147
1.0
148
0.0
149
0.0
100
AcDbLayout
  1
Layout1
 70
1
 71
1
 10
0.0
 20
0.0
 11
420.0
 21
297.0
 12
0.0
 22
0.0
 32
0.0
 14
1e+20
 24
1e+20
 34
1e+20
 15
-1e+20
 25
-1e+20
 35
-1e+20
146
0.0
 13
0.0
 23
0.0
 33
0.0
 16
1.0
 26
0.0
 36
0.0
 17
0.0
 27
1.0
 37
0.0
 76
1
330
1B
  0
MATERIAL
  5
1F
102
{ACAD_REACTORS
330
E
102
}
330
E
100
AcDbMaterial
  1
ByBlock
  2

 70
0
 40
1.0
 71
1
 41
1.0
 91
-1023410177
 42
1.0
 72
1
  3

 73
1
 74
1
 75
1
 44
0.5
 73
0
 45
1.0
 46
1.0
 77
1
  4

 78
1
 79
1
170
1
 48
1.0
171
1
  6

172
1
173
1
174
1
140
1.0
141
1.0
175
1
  7

176
1
177
1
178
1
143
1.0
179
1
  8

270
1
271
1
272
1
145
1.0
146
1.0
273
1
  9

274
1
275
1
276
1
 42
1.0
 72
1
  3

 73
1
 74
1
 75
1
 94
63
  0
MATERIAL
  5
20
102
{ACAD_REACTORS
330
E
102
}
330
E
100
AcDbMaterial
  1
ByLayer
  2

 70
0
 40
1.0
 71
1
 41
1.0
 91
-1023410177
 42
1.0
 72
1
  3

 73
1
 74
1
 75
1
 44
0.5
 73
0
 45
1.0
 46
1.0
 77
1
  4

 78
1
 79
1
170
1
 48
1.0
171
1
  6

172
1
173
1
174
1
140
1.0
141
1.0
175
1
  7

176
1
177
1
178
1
143
1.0
179
1
  8

270
1
271
1
272
1
145
1.0
146
1.0
273
1
  9

274
1
275
1
276
1
 42
1.0
 72
1
  3

 73
1
 74
1
 75
1
 94
63
  0
MATERIAL
  5
21
102
{ACAD_REACTORS
330
E
102
}
330
E
100
AcDbMaterial
  1
Global
  2

 70
0
 40
1.0
 71
1
 41
1.0
 91
-1023410177
 42
1.0
 72
1
  3

 73
1
 74
1
 75
1
 44
0.5
 73
0
 45
1.0
 46
1.0
 77
1
  4

 78
1
 79
1
170
1
 48
1.0
171
1
  6

172
1
173
1
174
1
140
1.0
141
1.0
175
1
  7

176
1
177
1
178
1
143
1.0
179
1
  8

270
1
271
1
272
1
145
1.0
146
1.0
273
1
  9

274
1
275
1
276
1
 42
1.0
 72
1
  3

 73
1
 74
1
 75
1
 94
63
  0
MLINESTYLE
  5
22
102
{ACAD_REACTORS
330
10
102
}
330
10
100
AcDbMlineStyle
  2
Standard
 70
0
  3

 62
256
 51
90.0
 52
90.0
 71
2
 49
0.5
 62
256
  6
BYLAYER
 49
-0.5
 62
256
  6
BYLAYER
  0
MLEADERSTYLE
  5
2C
102
{ACAD_REACTORS
330
F
102
}
330
F
100
AcDbMLeaderStyle
179
2
170
2
171
1
172
0
 90
2
 40
0.0
 41
0.0
173
1
 91
-1056964608
 92
-2
290
1
 42
2.0
291
1
 43
8.0
  3
Standard
 44
4.0
300

342
29
174
1
175
1
176
0
178
1
 93
-1056964608
 45
4.0
292
0
297
0
 46
4.0
 94
-1056964608
 47
1.0
 49
1.0
140
1.0
294
1
141
0.0
177
0
142
1.0
295
0
296
0
143
3.75
271
0
272
9
273
9
  0
DICTIONARY
  5
2D
330
A
100
AcDbDictionary
280
1
281
1
  3
CREATED_BY_EZDXF
350
2E
  3
WRITTEN_BY_EZDXF
350
49
  0
DICTIONARYVAR
  5
2E
330
2D
100
DictionaryVariables
280
0
  1
1.4.2 @ 2025-10-23T12:03:51.483638+00:00
  0
DICTIONARYVAR
  5
49
330
2D
100
DictionaryVariables
280
0
  1
1.4.2 @ 2025-10-23T12:03:51.642272+00:00
  0
ENDSEC
  0
EOF
