  0
SECTION
  2
HEADER
  9
$ACADVER
  1
AC1027
  9
$ACADMAINTVER
 70
105
  9
$DWGCODEPAGE
  3
ANSI_1252
  9
$LASTSAVEDBY
  1
ezdxf
  9
$REQUIREDVERSIONS
160
0
  9
$INSBASE
 10
0.0
 20
0.0
 30
0.0
  9
$EXTMIN
 10
1e+20
 20
1e+20
 30
1e+20
  9
$EXTMAX
 10
-1e+20
 20
-1e+20
 30
-1e+20
  9
$LIMMIN
 10
0.0
 20
0.0
  9
$LIMMAX
 10
420.0
 20
297.0
  9
$ORTHOMODE
 70
0
  9
$REGENMODE
 70
1
  9
$FILLMODE
 70
1
  9
$QTEXTMODE
 70
0
  9
$MIRRTEXT
 70
1
  9
$LTSCALE
 40
1.0
  9
$ATTMODE
 70
1
  9
$TEXTSIZE
 40
2.5
  9
$TRACEWID
 40
1.0
  9
$TEXTSTYLE
  7
Standard
  9
$CLAYER
  8
0
  9
$CELTYPE
  6
ByLayer
  9
$CECOLOR
 62
256
  9
$CELTSCALE
 40
1.0
  9
$DISPSILH
 70
0
  9
$DIMSCALE
 40
1.0
  9
$DIMASZ
 40
2.5
  9
$DIMEXO
 40
0.625
  9
$DIMDLI
 40
3.75
  9
$DIMRND
 40
0.0
  9
$DIMDLE
 40
0.0
  9
$DIMEXE
 40
1.25
  9
$DIMTP
 40
0.0
  9
$DIMTM
 40
0.0
  9
$DIMTXT
 40
2.5
  9
$DIMCEN
 40
2.5
  9
$DIMTSZ
 40
0.0
  9
$DIMTOL
 70
0
  9
$DIMLIM
 70
0
  9
$DIMTIH
 70
0
  9
$DIMTOH
 70
0
  9
$DIMSE1
 70
0
  9
$DIMSE2
 70
0
  9
$DIMTAD
 70
1
  9
$DIMZIN
 70
8
  9
$DIMBLK
  1

  9
$DIMASO
 70
1
  9
$DIMSHO
 70
1
  9
$DIMPOST
  1

  9
$DIMAPOST
  1

  9
$DIMALT
 70
0
  9
$DIMALTD
 70
3
  9
$DIMALTF
 40
0.03937007874
  9
$DIMLFAC
 40
1.0
  9
$DIMTOFL
 70
1
  9
$DIMTVP
 40
0.0
  9
$DIMTIX
 70
0
  9
$DIMSOXD
 70
0
  9
$DIMSAH
 70
0
  9
$DIMBLK1
  1

  9
$DIMBLK2
  1

  9
$DIMSTYLE
  2
ISO-25
  9
$DIMCLRD
 70
0
  9
$DIMCLRE
 70
0
  9
$DIMCLRT
 70
0
  9
$DIMTFAC
 40
1.0
  9
$DIMGAP
 40
0.625
  9
$DIMJUST
 70
0
  9
$DIMSD1
 70
0
  9
$DIMSD2
 70
0
  9
$DIMTOLJ
 70
0
  9
$DIMTZIN
 70
8
  9
$DIMALTZ
 70
0
  9
$DIMALTTZ
 70
0
  9
$DIMUPT
 70
0
  9
$DIMDEC
 70
2
  9
$DIMTDEC
 70
2
  9
$DIMALTU
 70
2
  9
$DIMALTTD
 70
3
  9
$DIMTXSTY
  7
Standard
  9
$DIMAUNIT
 70
0
  9
$DIMADEC
 70
0
  9
$DIMALTRND
 40
0.0
  9
$DIMAZIN
 70
0
  9
$DIMDSEP
 70
44
  9
$DIMATFIT
 70
3
  9
$DIMFRAC
 70
0
  9
$DIMLDRBLK
  1

  9
$DIMLUNIT
 70
2
  9
$DIMLWD
 70
-2
  9
$DIMLWE
 70
-2
  9
$DIMTMOVE
 70
0
  9
$DIMFXL
 40
1.0
  9
$DIMFXLON
 70
0
  9
$DIMJOGANG
 40
0.785398163397
  9
$DIMTFILL
 70
0
  9
$DIMTFILLCLR
 70
0
  9
$DIMARCSYM
 70
0
  9
$DIMLTYPE
  6

  9
$DIMLTEX1
  6

  9
$DIMLTEX2
  6

  9
$DIMTXTDIRECTION
 70
0
  9
$LUNITS
 70
2
  9
$LUPREC
 70
4
  9
$SKETCHINC
 40
1.0
  9
$FILLETRAD
 40
10.0
  9
$AUNITS
 70
0
  9
$AUPREC
 70
2
  9
$MENU
  1
.
  9
$ELEVATION
 40
0.0
  9
$PELEVATION
 40
0.0
  9
$THICKNESS
 40
0.0
  9
$LIMCHECK
 70
0
  9
$CHAMFERA
 40
0.0
  9
$CHAMFERB
 40
0.0
  9
$CHAMFERC
 40
0.0
  9
$CHAMFERD
 40
0.0
  9
$SKPOLY
 70
0
  9
$TDCREATE
 40
2460972.6885532406
  9
$TDUCREATE
 40
2458532.153996898
  9
$TDUPDATE
 40
2460972.6885648146
  9
$TDUUPDATE
 40
2458532.1544311
  9
$TDINDWG
 40
0.0
  9
$TDUSRTIMER
 40
0.0
  9
$USRTIMER
 70
1
  9
$ANGBASE
 50
0.0
  9
$ANGDIR
 70
0
  9
$PDMODE
 70
0
  9
$PDSIZE
 40
0.0
  9
$PLINEWID
 40
0.0
  9
$SPLFRAME
 70
0
  9
$SPLINETYPE
 70
6
  9
$SPLINESEGS
 70
8
  9
$HANDSEED
  5
42
  9
$SURFTAB1
 70
6
  9
$SURFTAB2
 70
6
  9
$SURFTYPE
 70
6
  9
$SURFU
 70
6
  9
$SURFV
 70
6
  9
$UCSBASE
  2

  9
$UCSNAME
  2

  9
$UCSORG
 10
0.0
 20
0.0
 30
0.0
  9
$UCSXDIR
 10
1.0
 20
0.0
 30
0.0
  9
$UCSYDIR
 10
0.0
 20
1.0
 30
0.0
  9
$UCSORTHOREF
  2

  9
$UCSORTHOVIEW
 70
0
  9
$UCSORGTOP
 10
0.0
 20
0.0
 30
0.0
  9
$UCSORGBOTTOM
 10
0.0
 20
0.0
 30
0.0
  9
$UCSORGLEFT
 10
0.0
 20
0.0
 30
0.0
  9
$UCSORGRIGHT
 10
0.0
 20
0.0
 30
0.0
  9
$UCSORGFRONT
 10
0.0
 20
0.0
 30
0.0
  9
$UCSORGBACK
 10
0.0
 20
0.0
 30
0.0
  9
$PUCSBASE
  2

  9
$PUCSNAME
  2

  9
$PUCSORG
 10
0.0
 20
0.0
 30
0.0
  9
$PUCSXDIR
 10
1.0
 20
0.0
 30
0.0
  9
$PUCSYDIR
 10
0.0
 20
1.0
 30
0.0
  9
$PUCSORTHOREF
  2

  9
$PUCSORTHOVIEW
 70
0
  9
$PUCSORGTOP
 10
0.0
 20
0.0
 30
0.0
  9
$PUCSORGBOTTOM
 10
0.0
 20
0.0
 30
0.0
  9
$PUCSORGLEFT
 10
0.0
 20
0.0
 30
0.0
  9
$PUCSORGRIGHT
 10
0.0
 20
0.0
 30
0.0
  9
$PUCSORGFRONT
 10
0.0
 20
0.0
 30
0.0
  9
$PUCSORGBACK
 10
0.0
 20
0.0
 30
0.0
  9
$USERI1
 70
0
  9
$USERI2
 70
0
  9
$USERI3
 70
0
  9
$USERI4
 70
0
  9
$USERI5
 70
0
  9
$USERR1
 40
0.0
  9
$USERR2
 40
0.0
  9
$USERR3
 40
0.0
  9
$USERR4
 40
0.0
  9
$USERR5
 40
0.0
  9
$WORLDVIEW
 70
1
  9
$SHADEDGE
 70
3
  9
$SHADEDIF
 70
70
  9
$TILEMODE
 70
1
  9
$MAXACTVP
 70
64
  9
$PINSBASE
 10
0.0
 20
0.0
 30
0.0
  9
$PLIMCHECK
 70
0
  9
$PEXTMIN
 10
1e+20
 20
1e+20
 30
1e+20
  9
$PEXTMAX
 10
-1e+20
 20
-1e+20
 30
-1e+20
  9
$PLIMMIN
 10
0.0
 20
0.0
  9
$PLIMMAX
 10
420.0
 20
297.0
  9
$UNITMODE
 70
0
  9
$VISRETAIN
 70
1
  9
$PLINEGEN
 70
0
  9
$PSLTSCALE
 70
1
  9
$TREEDEPTH
 70
3020
  9
$CMLSTYLE
  2
Standard
  9
$CMLJUST
 70
0
  9
$CMLSCALE
 40
20.0
  9
$PROXYGRAPHICS
 70
1
  9
$MEASUREMENT
 70
1
  9
$CELWEIGHT
370
-1
  9
$ENDCAPS
280
0
  9
$JOINSTYLE
280
0
  9
$LWDISPLAY
290
0
  9
$INSUNITS
 70
6
  9
$HYPERLINKBASE
  1

  9
$STYLESHEET
  1

  9
$XEDIT
290
1
  9
$CEPSNTYPE
380
0
  9
$PSTYLEMODE
290
1
  9
$FINGERPRINTGUID
  2
{8ECFF7D9-D41B-43A1-A8EE-303A2DF30C36}
  9
$VERSIONGUID
  2
{3DB090CD-DD83-499F-9569-23BB3734C559}
  9
$EXTNAMES
290
1
  9
$PSVPSCALE
 40
0.0
  9
$OLESTARTUP
290
0
  9
$SORTENTS
280
127
  9
$INDEXCTL
280
0
  9
$HIDETEXT
280
1
  9
$XCLIPFRAME
280
1
  9
$HALOGAP
280
0
  9
$OBSCOLOR
 70
257
  9
$OBSLTYPE
280
0
  9
$INTERSECTIONDISPLAY
280
0
  9
$INTERSECTIONCOLOR
 70
257
  9
$DIMASSOC
280
2
  9
$PROJECTNAME
  1

  9
$CAMERADISPLAY
290
0
  9
$LENSLENGTH
 40
50.0
  9
$CAMERAHEIGHT
 40
0.0
  9
$STEPSPERSEC
 40
24.0
  9
$STEPSIZE
 40
100.0
  9
$3DDWFPREC
 40
2.0
  9
$PSOLWIDTH
 40
0.005
  9
$PSOLHEIGHT
 40
0.08
  9
$LOFTANG1
 40
1.570796326795
  9
$LOFTANG2
 40
1.570796326795
  9
$LOFTMAG1
 40
0.0
  9
$LOFTMAG2
 40
0.0
  9
$LOFTPARAM
 70
7
  9
$LOFTNORMALS
280
1
  9
$LATITUDE
 40
37.795
  9
$LONGITUDE
 40
-122.394
  9
$NORTHDIRECTION
 40
0.0
  9
$TIMEZONE
 70
-8000
  9
$LIGHTGLYPHDISPLAY
280
1
  9
$TILEMODELIGHTSYNCH
280
1
  9
$CMATERIAL
347
20
  9
$SOLIDHIST
280
0
  9
$SHOWHIST
280
1
  9
$DWFFRAME
280
2
  9
$DGNFRAME
280
2
  9
$REALWORLDSCALE
290
1
  9
$INTERFERECOLOR
 62
256
  9
$CSHADOW
280
0
  9
$SHADOWPLANELOCATION
 40
0.0
  0
ENDSEC
  0
SECTION
  2
CLASSES
  0
CLASS
  1
ACDBDICTIONARYWDFLT
  2
AcDbDictionaryWithDefault
  3
ObjectDBX Classes
 90
0
 91
0
280
0
281
0
  0
CLASS
  1
SUN
  2
AcDbSun
  3
SCENEOE
 90
1153
 91
0
280
0
281
0
  0
CLASS
  1
VISUALSTYLE
  2
AcDbVisualStyle
  3
ObjectDBX Classes
 90
4095
 91
0
280
0
281
0
  0
CLASS
  1
MATERIAL
  2
AcDbMaterial
  3
ObjectDBX Classes
 90
1153
 91
0
280
0
281
0
  0
CLASS
  1
SCALE
  2
AcDbScale
  3
ObjectDBX Classes
 90
1153
 91
0
280
0
281
0
  0
CLASS
  1
TABLESTYLE
  2
AcDbTableStyle
  3
ObjectDBX Classes
 90
4095
 91
0
280
0
281
0
  0
CLASS
  1
MLEADERSTYLE
  2
AcDbMLeaderStyle
  3
ACDB_MLEADERSTYLE_CLASS
 90
4095
 91
0
280
0
281
0
  0
CLASS
  1
DICTIONARYVAR
  2
AcDbDictionaryVar
  3
ObjectDBX Classes
 90
0
 91
0
280
0
281
0
  0
CLASS
  1
CELLSTYLEMAP
  2
AcDbCellStyleMap
  3
ObjectDBX Classes
 90
1152
 91
0
280
0
281
0
  0
CLASS
  1
MENTALRAYRENDERSETTINGS
  2
AcDbMentalRayRenderSettings
  3
SCENEOE
 90
1024
 91
0
280
0
281
0
  0
CLASS
  1
ACDBDETAILVIEWSTYLE
  2
AcDbDetailViewStyle
  3
ObjectDBX Classes
 90
1025
 91
0
280
0
281
0
  0
CLASS
  1
ACDBSECTIONVIEWSTYLE
  2
AcDbSectionViewStyle
  3
ObjectDBX Classes
 90
1025
 91
0
280
0
281
0
  0
CLASS
  1
RASTERVARIABLES
  2
AcDbRasterVariables
  3
ISM
 90
0
 91
0
280
0
281
0
  0
CLASS
  1
ACDBPLACEHOLDER
  2
AcDbPlaceHolder
  3
ObjectDBX Classes
 90
0
 91
0
280
0
281
0
  0
CLASS
  1
LAYOUT
  2
AcDbLayout
  3
ObjectDBX Classes
 90
0
 91
0
280
0
281
0
  0
ENDSEC
  0
SECTION
  2
TABLES
  0
TABLE
  2
VPORT
  5
8
330
0
100
AcDbSymbolTable
 70
1
  0
VPORT
  5
23
330
8
100
AcDbSymbolTableRecord
100
AcDbViewportTableRecord
  2
*Active
 70
0
 10
0.0
 20
0.0
 11
1.0
 21
1.0
 12
0.0
 22
0.0
 13
0.0
 23
0.0
 14
0.5
 24
0.5
 15
0.5
 25
0.5
 16
0.0
 26
0.0
 36
1.0
 17
0.0
 27
0.0
 37
0.0
 40
1000.0
 41
1.34
 42
50.0
 43
0.0
 44
0.0
 50
0.0
 51
0.0
 71
0
 72
1000
 73
1
 74
3
 75
0
 76
0
 77
0
 78
0
281
0
 65
0
146
0.0
  0
ENDTAB
  0
TABLE
  2
LTYPE
  5
2
330
0
100
AcDbSymbolTable
 70
3
  0
LTYPE
  5
24
330
2
100
AcDbSymbolTableRecord
100
AcDbLinetypeTableRecord
  2
ByBlock
 70
0
  3

 72
65
 73
0
 40
0.0
  0
LTYPE
  5
25
330
2
100
AcDbSymbolTableRecord
100
AcDbLinetypeTableRecord
  2
ByLayer
 70
0
  3

 72
65
 73
0
 40
0.0
  0
LTYPE
  5
26
330
2
100
AcDbSymbolTableRecord
100
AcDbLinetypeTableRecord
  2
Continuous
 70
0
  3

 72
65
 73
0
 40
0.0
  0
ENDTAB
  0
TABLE
  2
LAYER
  5
1
330
0
100
AcDbSymbolTable
 70
2
  0
LAYER
  5
27
330
1
100
AcDbSymbolTableRecord
100
AcDbLayerTableRecord
  2
0
 70
0
 62
7
  6
Continuous
370
-3
390
13
347
21
  0
LAYER
  5
28
330
1
100
AcDbSymbolTableRecord
100
AcDbLayerTableRecord
  2
Defpoints
 70
0
 62
7
  6
Continuous
290
0
370
-3
390
13
347
21
  0
ENDTAB
  0
TABLE
  2
STYLE
  5
5
330
0
100
AcDbSymbolTable
 70
1
  0
STYLE
  5
29
330
5
100
AcDbSymbolTableRecord
100
AcDbTextStyleTableRecord
  2
Standard
 70
0
 40
0.0
 41
1.0
 50
0.0
 71
0
 42
2.5
  3
txt
  4

  0
ENDTAB
  0
TABLE
  2
VIEW
  5
7
330
0
100
AcDbSymbolTable
 70
0
  0
ENDTAB
  0
TABLE
  2
UCS
  5
6
330
0
100
AcDbSymbolTable
 70
0
  0
ENDTAB
  0
TABLE
  2
APPID
  5
3
330
0
100
AcDbSymbolTable
 70
3
  0
APPID
  5
2A
330
3
100
AcDbSymbolTableRecord
100
AcDbRegAppTableRecord
  2
ACAD
 70
0
  0
APPID
  5
3F
330
3
100
AcDbSymbolTableRecord
100
AcDbRegAppTableRecord
  2
HATCHBACKGROUNDCOLOR
 70
0
  0
APPID
  5
40
330
3
100
AcDbSymbolTableRecord
100
AcDbRegAppTableRecord
  2
EZDXF
 70
0
  0
ENDTAB
  0
TABLE
  2
DIMSTYLE
  5
4
330
0
100
AcDbSymbolTable
 70
1
100
AcDbDimStyleTable
  0
DIMSTYLE
105
2B
330
4
100
AcDbSymbolTableRecord
100
AcDbDimStyleTableRecord
  2
Standard
 70
0
 40
1.0
 41
2.5
 42
0.625
 43
3.75
 44
1.25
 45
0.0
 46
0.0
 47
0.0
 48
0.0
 49
2.5
140
2.5
141
2.5
142
0.0
143
0.03937007874
144
1.0
145
0.0
146
1.0
147
0.625
148
0.0
 69
0
 70
0
 71
0
 72
0
 73
0
 74
0
 75
0
 76
0
 77
1
 78
8
 79
3
170
0
171
3
172
1
173
0
174
0
175
0
176
0
177
0
178
0
179
2
271
2
272
2
273
2
274
3
275
0
276
0
277
2
278
44
279
0
280
0
281
0
282
0
283
0
284
8
285
0
286
0
288
0
289
3
290
0
371
-2
372
-2
  0
ENDTAB
  0
TABLE
  2
BLOCK_RECORD
  5
9
330
0
100
AcDbSymbolTable
 70
2
  0
BLOCK_RECORD
  5
17
330
9
100
AcDbSymbolTableRecord
100
AcDbBlockTableRecord
  2
*Model_Space
340
1A
 70
0
280
1
281
0
  0
BLOCK_RECORD
  5
1B
330
9
100
AcDbSymbolTableRecord
100
AcDbBlockTableRecord
  2
*Paper_Space
340
1E
 70
0
280
1
281
0
  0
ENDTAB
  0
ENDSEC
  0
SECTION
  2
BLOCKS
  0
BLOCK
  5
18
330
17
100
AcDbEntity
  8
0
100
AcDbBlockBegin
  2
*Model_Space
 70
0
 10
0.0
 20
0.0
 30
0.0
  3
*Model_Space
  1

  0
ENDBLK
  5
19
330
17
100
AcDbEntity
  8
0
100
AcDbBlockEnd
  0
BLOCK
  5
1C
330
1B
100
AcDbEntity
  8
0
100
AcDbBlockBegin
  2
*Paper_Space
 70
0
 10
0.0
 20
0.0
 30
0.0
  3
*Paper_Space
  1

  0
ENDBLK
  5
1D
330
1B
100
AcDbEntity
  8
0
100
AcDbBlockEnd
  0
ENDSEC
  0
SECTION
  2
ENTITIES
  0
LWPOLYLINE
  5
2F
330
17
100
AcDbEntity
  8
0
100
AcDbPolyline
 90
70
 70
0
 10
1899.6227740019801
 20
783.3551926043921
 10
1902.4078763996506
 20
763.036667945727
 10
1904.9446340638428
 20
754.4398928088337
 10
1908.9327163316193
 20
746.4126988723597
 10
1914.155109197026
 20
739.1391890870211
 10
1920.399672474399
 20
732.7218595050412
 10
1927.4821171805468
 20
727.2050827184752
 10
1935.1995109780057
 20
722.6186239915991
 10
1943.4304214425795
 20
719.0342394356142
 10
1952.0453039037259
 20
716.5086828873057
 10
1960.9214985743104
 20
715.2746862249923
 10
1964.7515839450948
 20
714.9958636481495
 10
2083.151829486164
 20
714.9276513147584
 10
2091.416330389755
 20
716.6792554537927
 10
2096.6176967036854
 20
719.4303652632968
 10
2100.992071886602
 20
723.365680102487
 10
2104.275819130979
 20
728.2483324851976
 10
2106.2089367048784
 20
733.0690629641335
 10
2107.0168104919976
 20
736.4386579275052
 10
2107.479827767352
 20
741.6118002274404
 10
2107.2831575943487
 20
745.0712293068244
 10
2105.6921558777804
 20
751.8041064150456
 10
2105.0523084393108
 20
753.4150030832053
 10
2103.9407656462267
 20
757.6252133709338
 10
2104.2139160191973
 20
762.9400477933955
 10
2105.821007507902
 20
768.00969226214
 10
2108.580789925596
 20
772.5513832387604
 10
2112.3076991844587
 20
776.3308552621723
 10
2116.7353864802144
 20
779.2461147628786
 10
2121.8291815379202
 20
781.2162344787382
 10
2127.3974306020496
 20
781.9982149551424
 10
2140.0631100593705
 20
781.9356798052299
 10
2272.7891816443375
 20
782.2922922253757
 10
2276.5255913358924
 20
783.1371983936133
 10
2281.599992223369
 20
785.9067771847718
 10
2284.695886360827
 20
788.5836798232804
 10
2288.8610831647115
 20
794.384423507732
 10
2290.0913216823205
 20
797.2007673215322
 10
2291.1473588772087
 20
801.1548914525029
 10
2291.4403291901936
 20
807.277658781682
 10
2290.5709587115452
 20
1118.8746967902268
 10
2289.4289922757007
 20
1123.1733807223388
 10
2287.520248276238
 20
1127.3983667629836
 10
2283.415793304689
 20
1132.9995913681726
 10
2278.054660533567
 20
1137.4130307036971
 10
2271.769286375252
 20
1140.3649367529374
 10
2267.249745618594
 20
1141.353312525429
 10
2265.770891891686
 20
1141.4145292503445
 10
2127.828055158913
 20
1140.3640942948891
 10
2122.446638907634
 20
1142.4876379943632
 10
2117.6403932517296
 20
1145.7175378747113
 10
2115.0235438976074
 20
1148.5689514908775
 10
2112.5372691303955
 20
1152.1302365051286
 10
2105.6041891227137
 20
1163.2635836988222
 10
2102.916097100439
 20
1166.5763283209994
 10
2097.3704857682806
 20
1170.9791458999578
 10
2092.2083129437974
 20
1173.4209282231743
 10
2086.68865328683
 20
1174.8852187429518
 10
2080.994905757182
 20
1175.3233670206757
 10
1938.626008284112
 20
1176.2334098967049
 10
1932.8549992068888
 20
1175.36278540247
 10
1924.4940316857148
 20
1172.7976030268244
 10
1917.0825444552663
 20
1169.1478250648033
 10
1913.0763310402363
 20
1166.3701226271664
 10
1907.081455952213
 20
1160.8966820519618
 10
1904.4447226659936
 20
1157.8040734361482
 10
1900.3856778177
 20
1151.7262839717825
 10
1897.282435571531
 20
1145.1091428726043
 10
1895.947645990944
 20
1140.448082014798
 10
1895.804387325014
 20
1138.2123853666565
  0
LWPOLYLINE
  5
30
330
17
100
AcDbEntity
  8
0
100
AcDbPolyline
 90
119
 70
0
 10
1922.8747894427302
 20
1538.309676857304
 10
1924.0670600207125
 20
1530.7512257638205
 10
1926.550543489545
 20
1523.5152446701807
 10
1930.2540444784236
 20
1516.8188153224798
 10
1935.0613146995472
 20
1510.863844847511
 10
1940.8299017563938
 20
1505.834717520349
 10
1947.3805799385623
 20
1501.8779252921559
 10
1954.5174156836224
 20
1499.1230544442844
 10
1962.0283493264044
 20
1497.7614315024448
 10
1963.8897608964523
 20
1497.827666819913
 10
2104.0415980640705
 20
1512.0501203489996
 10
2210.5046342751707
 20
1523.7557057196345
 10
2230.4980904276254
 20
1527.1177860809128
 10
2272.6422290760893
 20
1535.255274122639
 10
2330.4921175607637
 20
1546.9816393511092
 10
2341.3224837229022
 20
1549.8110492281928
 10
2345.0807926983325
 20
1552.0862221487819
 10
2349.8913240992256
 20
1556.852158114349
 10
2351.7662662139905
 20
1559.6809633081357
 10
2354.04599552333
 20
1564.940035751051
 10
2355.1450997920533
 20
1570.5654868211498
 10
2355.0124386723114
 20
1576.2960013792667
 10
2338.655047630427
 20
1698.1325007465703
 10
2339.4771625596045
 20
1702.8901894698145
 10
2342.0258436986715
 20
1708.9022356696107
 10
2345.8518011463525
 20
1714.1938223570482
 10
2350.784960166522
 20
1718.9276716160814
 10
2356.310272948836
 20
1722.9544464257983
 10
2365.236051107323
 20
1727.741812543883
 10
2375.6937291192244
 20
1732.3446346372898
 10
2380.234266509199
 20
1736.097447218846
 10
2383.154334994925
 20
1739.918749595339
 10
2385.2254139650177
 20
1744.2592174187375
 10
2386.133136287525
 20
1748.2719070104295
 10
2386.323790244645
 20
1752.4217244523954
 10
2386.005140860318
 20
1756.6544573782464
 10
2381.713619797474
 20
1786.4203215035884
 10
2380.3149949219633
 20
1801.480114123962
 10
2380.5448759259502
 20
1807.149223517159
 10
2382.230382400986
 20
1811.042796242077
 10
2384.6168398444356
 20
1814.550840504739
 10
2389.319103167921
 20
1818.8218473282789
 10
2392.131291546177
 20
1820.3253623302733
 10
2418.2697184121953
 20
1826.7597749394897
 10
2431.107607778614
 20
1830.122891649432
 10
2435.8001830783883
 20
1832.4119004849103
 10
2439.108583183672
 20
1835.0838799303685
 10
2441.8323312136918
 20
1838.3499269040524
 10
2443.866842279184
 20
1842.0843040290197
 10
2445.1737682781904
 20
1846.1072482501072
 10
2445.7680442138735
 20
1850.2951459623407
 10
2445.631975612267
 20
1854.522779769174
 10
2441.838122434859
 20
1888.963806038942
 10
2437.2364261249086
 20
1917.5696011238044
 10
2434.3220295036253
 20
1928.6174952198296
 10
2431.5186642906388
 20
1933.81285762557
 10
2427.6634585192223
 20
1938.2835173518176
 10
2422.9367811680795
 20
1941.8202129769018
 10
2418.135200503851
 20
1944.04225207324
 10
2413.572814840986
 20
1945.076249532634
 10
2408.89566229035
 20
1945.170275847892
 10
2401.78283899602
 20
1943.9291959365476
 10
2373.2582937514353
 20
1936.301858728127
 10
2346.6390901813593
 20
1929.9759175847448
 10
2335.4582754009703
 20
1928.6982118854723
 10
2329.5695534873075
 20
1929.3302106837457
 10
2323.9300810619184
 20
1931.134984871071
 10
2321.274500806028
 20
1932.456902325455
 10
2314.297233961735
 20
1937.9252196557404
 10
2310.7012695404073
 20
1942.6311406761652
 10
2308.117750127815
 20
1947.96476551619
 10
2306.600405488163
 20
1954.6653987071948
 10
2306.2548642481215
 20
1958.5922048364027
 10
2302.2175523432525
 20
1981.8097390945659
 10
2301.491466626809
 20
1984.1236029609074
 10
2299.745841723807
 20
1987.8015589226852
 10
2296.7403499911265
 20
1991.7222362965797
 10
2292.902883705318
 20
1994.8331921087354
 10
2286.905130001938
 20
1997.5714412267746
 10
2282.0705101147696
 20
1998.6488761572332
 10
2277.132945956497
 20
1999.0000005390928
 10
2272.1907371828506
 20
1998.7064373973842
 10
2264.9397401220317
 20
1997.1395005689235
 10
2246.7472053784727
 20
1991.211227263308
 10
2223.719651855808
 20
1985.205656443228
 10
2200.3568567717225
 20
1980.6801146625526
 10
2169.6331433606815
 20
1977.0978680115466
 10
2159.7821003451554
 20
1975.911496786948
 10
2149.876704877392
 20
1975.3337309823035
 10
2130.0432380477787
 20
1975.5883390578217
 10
2110.2645237427346
 20
1977.2132177307635
 10
2079.8793237328396
 20
1981.0752049087366
 10
1953.2295483506202
 20
1998.6271011202855
 10
1949.7741293878491
 20
1999.0000005432132
 10
1943.6227859599776
 20
1998.2988827031795
 10
1938.1316493355341
 20
1996.7064966254065
 10
1935.4947211424314
 20
1995.5970802604318
 10
1930.5169870623943
 20
1992.7845320716867
 10
1927.0999451232562
 20
1990.1909572327731
 10
1924.008516106271
 20
1987.2163421688297
 10
1918.9551875505344
 20
1980.300488702563
 10
1916.6893041627102
 20
1975.3448314452728
 10
1915.9833282210134
 20
1970.133080315581
 10
1916.0963612787978
 20
1968.8166138395422
 10
1932.950252577503
 20
1839.6025582937673
 10
1933.3351752825963
 20
1830.168283682959
 10
1932.7731107953011
 20
1825.5515721782815
 10
1931.37668581665
 20
1821.0532289615653
 10
1927.2561710345353
 20
1813.9046987626123
 10
1924.9937108361446
 20
1811.1767741651654
 10
1921.5092234324268
 20
1807.994806591331
 10
1917.9859461390765
 20
1806.2393826468078
 10
1906.7683140087495
 20
1802.1579380992428
 10
1902.1592907420809
 20
1798.4233509146206
 10
1899.3579778654448
 20
1794.9453005795256
 10
1897.3944237464327
 20
1790.9451188776309
 10
1896.3422933992924
 20
1786.651960628373
 10
1895.8047005977621
 20
1782.2215103482374
 10
1919.3666647056864
 20
1568.7781881193662
  0
CIRCLE
  5
31
330
17
100
AcDbEntity
  8
0
100
AcDbCircle
 10
1991.850349248866
 20
1907.4780855665122
 30
0.0
 40
12.00000047683703
  0
CIRCLE
  5
32
330
17
100
AcDbEntity
  8
0
100
AcDbCircle
 10
2031.4245911819526
 20
1566.9579583861855
 30
0.0
 40
12.00000047683719
  0
LWPOLYLINE
  5
33
330
17
100
AcDbEntity
  8
0
100
AcDbPolyline
 90
66
 70
0
 10
2033.7819271524247
 20
0.999998857303523
 10
2483.8520986500093
 20
0.9999989074984096
 10
2486.590869984964
 20
1.9789183886377566
 10
2489.114648154108
 20
3.4229086508279996
 10
2491.858999336561
 20
5.703591247884706
 10
2494.1953273888403
 20
8.400678651138826
 10
2496.1016618858844
 20
11.437709943902634
 10
2497.555501557785
 20
14.715511840224233
 10
2498.527187895061
 20
18.167113036833058
 10
2498.9999990050123
 20
23.995241983318692
 10
2498.8334843470534
 20
28.17765154728808
 10
2490.913154432921
 20
112.18115063162651
 10
2480.9555784214613
 20
165.25009197462202
 10
2455.566045029527
 20
290.09307257502195
 10
2451.0900425243917
 20
315.18215205727233
 10
2448.453382798686
 20
334.1233897991251
 10
2446.6134790172055
 20
357.4171765610898
 10
2446.6635649390387
 20
393.01028350073716
 10
2447.4352554254465
 20
416.89157195776966
 10
2448.4852338342603
 20
431.1931124475337
 10
2451.111519609021
 20
454.9598406279819
 10
2454.5606395318937
 20
480.587063887702
 10
2460.488386996945
 20
529.6305881249432
 10
2479.347813485803
 20
717.6626737266458
 10
2482.1425828021625
 20
749.8380342330869
 10
2481.417388144629
 20
755.0692672077481
 10
2479.858096486938
 20
760.115143589347
 10
2476.1271346887374
 20
767.0570020054711
 10
2470.9415439509557
 20
772.9915336421201
 10
2467.84470693106
 20
775.4577245459765
 10
2464.442562503917
 20
777.4821331144493
 10
2458.075465796413
 20
779.7960219457656
 10
2455.2849972312642
 20
780.0769018680986
 10
2230.0513558638895
 20
781.1774463393436
 10
2221.795704534646
 20
780.3086465697621
 10
2213.6157798848785
 20
778.9172064805682
 10
2201.5343739216687
 20
775.8990492413851
 10
2192.358772123099
 20
772.7849791958159
 10
2183.4386607867414
 20
769.0020209465475
 10
2171.026553128531
 20
762.2930719088846
 10
2160.016420015883
 20
754.8063458125994
 10
2143.2621192217935
 20
741.1289441028897
 10
2134.2878620850797
 20
732.5409423237716
 10
2128.6999330973213
 20
726.4007736801342
 10
2120.9361738877406
 20
716.6551197660893
 10
2114.915902286476
 20
708.1999558080566
 10
2055.9802139922986
 20
615.7412801089723
 10
2040.676600816383
 20
589.6801029852959
 10
2037.5986324811995
 20
582.7178528620035
 10
2030.5201568617513
 20
562.0572833080274
 10
2028.256909053503
 20
552.6931868849474
 10
2026.7258461428228
 20
543.1616638287621
 10
2024.8840284840803
 20
523.8195733278817
 10
2021.2599420306988
 20
498.85915259372655
 10
2014.1517859365845
 20
417.8414283414527
 10
2005.0468997456564
 20
310.8611183479418
 10
2002.9161258341735
 20
272.4593292861032
 10
1998.3908144391758
 20
75.26238218717559
 10
2000.2743565235937
 20
37.42557653319035
 10
2002.2860040904634
 20
29.467852985676952
 10
2003.4974817414854
 20
26.201291991291168
 10
2006.5643445262888
 20
19.962952031030657
 10
2010.3879814971913
 20
14.500558266500514
 10
2017.8051272906973
 20
7.519485104253497
 10
2023.8863478641438
 20
3.826534479874078
 10
2027.7695512906953
 20
2.108784359472721
  0
LWPOLYLINE
  5
34
330
17
100
AcDbEntity
  8
0
100
AcDbPolyline
 90
65
 70
0
 10
2499.000001152425
 20
1151.8498749947514
 10
2499.000000035478
 20
1508.9864290157032
 10
2496.500158458179
 20
1515.8543884658734
 10
2494.2735572072565
 20
1520.1911855613407
 10
2487.47892342607
 20
1529.2859088534788
 10
2481.426007766573
 20
1534.6977734501852
 10
2475.2745416729117
 20
1538.644459529564
 10
2467.1892177415525
 20
1541.9743516115211
 10
2458.6741682704724
 20
1543.9713415915276
 10
2450.465940019447
 20
1544.400790024962
 10
2441.227780388198
 20
1544.2503549256269
 10
2307.732097804729
 20
1541.3445642955355
 10
2302.228517973317
 20
1539.8209015813622
 10
2297.0928914054716
 20
1537.3237560559057
 10
2292.4958562685015
 20
1533.935799612899
 10
2289.301061905449
 20
1530.6558771965429
 10
2284.07016922946
 20
1523.0652223281638
 10
2278.4587095389597
 20
1513.2224507923388
 10
2275.606498256515
 20
1510.6064452504909
 10
2270.5870773532765
 20
1507.721600854359
 10
2266.9664949596736
 20
1506.3827077804838
 10
2125.2611017321046
 20
1505.483462544106
 10
2120.867751397385
 20
1504.003063461608
 10
2116.7803788166343
 20
1501.8151628914427
 10
2111.467054345223
 20
1497.3443989708612
 10
2107.423113001345
 20
1491.6992820622313
 10
2104.8993017785683
 20
1485.2302134704237
 10
2104.142777200991
 20
1480.6561988128346
 10
2107.3065855300833
 20
1165.435212797387
 10
2109.6611044063216
 20
1158.6899386164896
 10
2111.262428698343
 20
1156.0697176334845
 10
2113.892999598522
 20
1152.9344228431105
 10
2118.7371321461737
 20
1149.1784246581874
 10
2122.4287854401723
 20
1147.4116490570798
 10
2124.373978102091
 20
1146.7703238373947
 10
2274.0615998025087
 20
1147.8436176967275
 10
2279.517201148725
 20
1146.479279845164
 10
2284.2475828630872
 20
1144.0862737455102
 10
2288.387410198384
 20
1140.7749833071002
 10
2291.7079236466966
 20
1136.6255318580636
 10
2293.9652556743563
 20
1131.814223395453
 10
2294.977350974692
 20
1126.5894626401277
 10
2294.970653546819
 20
1123.922933949354
 10
2291.7652843821024
 20
1111.3552364389589
 10
2291.6028769537857
 20
1107.90121011166
 10
2292.113777135421
 20
1102.7432256000086
 10
2292.950633063655
 20
1099.388093559598
 10
2296.439330754677
 20
1092.0587078149824
 10
2300.347721835753
 20
1087.6404367390112
 10
2302.679363404277
 20
1085.8250354017985
 10
2306.5537838036885
 20
1083.685835814325
 10
2310.7512858883697
 20
1082.2696653684166
 10
2316.217771391381
 20
1081.451691117102
 10
2321.991105368428
 20
1081.1864685548012
 10
2434.6104897164896
 20
1082.7936945020178
 10
2444.7859559919625
 20
1083.9423694132263
 10
2451.634457055733
 20
1085.6175531234308
 10
2460.040535383809
 20
1088.7691483085327
 10
2467.9859382940977
 20
1092.948402825139
 10
2475.345543387337
 20
1098.0894566078966
 10
2481.9775624524495
 20
1104.1228873615144
 10
2487.6527892166696
 20
1111.0488508116493
 10
2492.214574593861
 20
1118.7592867686183
 10
2495.3994398523
 20
1127.1376485259952
 10
2497.330518937306
 20
1136.5540549655063
  0
LWPOLYLINE
  5
35
330
17
100
AcDbEntity
  8
0
100
AcDbPolyline
 90
68
 70
0
 10
2639.4060661000003
 20
1408.2796231000002
 10
3122.3713981312503
 20
1408.5640804972704
 10
3124.5325919789066
 20
1409.018472193819
 10
3126.809264342188
 20
1410.0282289252336
 10
3130.2738029164066
 20
1412.8723748469408
 10
3132.45147625625
 20
1417.012375110918
 10
3132.9299308460936
 20
1419.0655450560625
 10
3132.6835929554686
 20
1425.0125742690143
 10
3129.385434810129
 20
1457.064534057106
 10
3127.2683707875003
 20
1486.4650538146075
 10
3114.058946785984
 20
1569.5062763823737
 10
3109.315512493726
 20
1617.8290051622532
 10
3107.432570828942
 20
1646.5663410310085
 10
3107.309020201563
 20
1680.7071627661762
 10
3108.413329283594
 20
1720.237500922304
 10
3110.8961173695316
 20
1731.5260928900775
 10
3115.6313743150477
 20
1750.4192408255942
 10
3121.962279478906
 20
1784.5680241370258
 10
3124.4450675648436
 20
1794.0475325110492
 10
3128.701293150781
 20
1804.8295922797258
 10
3135.15655438125
 20
1818.2166925757465
 10
3138.797972838281
 20
1828.848016132265
 10
3140.374388853906
 20
1834.7777209540425
 10
3141.310362975
 20
1839.853160513979
 10
3141.9999992054686
 20
1846.536670920473
 10
3141.882573259206
 20
1871.5865139542173
 10
3140.7290021786416
 20
1899.2619856126255
 10
3138.355414917109
 20
1955.047073999682
 10
3137.1226798695307
 20
1981.7635837775285
 10
3136.2852775257807
 20
1985.532487177187
 10
3134.462584654687
 20
1988.5978303961808
 10
3131.753173033593
 20
1991.9647083014545
 10
3125.7432243031244
 20
1996.18588259955
 10
3119.8318473499994
 20
1998.2964386176166
 10
3116.2357169789057
 20
1998.9999987982806
 10
2755.524657408593
 20
1998.9418461249409
 10
2751.780760924218
 20
1998.338839014345
 10
2742.371764342187
 20
1994.519690210634
 10
2733.504637877343
 20
1989.2432379035051
 10
2729.169615904687
 20
1985.323536029726
 10
2660.382964560156
 20
1903.2307087340948
 10
2652.2168571156253
 20
1889.7894339209613
 10
2651.025084654688
 20
1886.5765298499164
 10
2647.7095747612634
 20
1868.248822771078
 10
2643.468517411932
 20
1840.5327107516014
 10
2641.4959098500003
 20
1830.4239286749896
 10
2640.9075309437503
 20
1823.0714134772356
 10
2642.0842887562503
 20
1784.8082930518206
 10
2644.2953028408333
 20
1763.5434801891793
 10
2644.879088560938
 20
1754.9480471381244
 10
2644.752379576563
 20
1735.8123309393939
 10
2644.139586607813
 20
1728.309733280092
 10
2641.7900993031253
 20
1717.9937043036516
 10
2637.1021300258917
 20
1707.675904899666
 10
2632.589537779688
 20
1698.926351740175
 10
2630.2742301625003
 20
1689.8810271643695
 10
2628.993346373438
 20
1682.1924530219133
 10
2628.4514762562503
 20
1675.5089737464007
 10
2626.6638786000003
 20
1642.014248010927
 10
2619.5437614125003
 20
1439.09410558539
 10
2619.780211607813
 20
1427.7572683791216
 10
2620.4895621937503
 20
1423.1742937060412
 10
2621.8491813343753
 20
1419.55615375815
 10
2623.6817008656253
 20
1416.7822471133288
 10
2626.401061217188
 20
1413.7671337328966
 10
2628.6472770375003
 20
1412.1389717291888
 10
2632.253356139063
 20
1410.209294496065
 10
2636.2730094593753
 20
1408.701737805849
  0
LWPOLYLINE
  5
36
330
17
100
AcDbEntity
  8
0
100
AcDbPolyline
 90
63
 70
0
 10
2647.5618251000005
 20
945.3109978626302
 10
3122.9321406517583
 20
945.4640887020164
 10
3128.6354716454102
 20
946.332440810018
 10
3133.913181606348
 20
949.1980091236167
 10
3136.8925326500494
 20
951.8899027774863
 10
3140.2975047264654
 20
957.9683771656089
 10
3140.9785006676275
 20
960.3997684619956
 10
3141.999992672021
 20
966.044061980062
 10
3138.626743618066
 20
1191.381945471578
 10
3137.2783740196783
 20
1212.1390975711874
 10
3131.7623179588873
 20
1253.2781963871055
 10
3129.160726030839
 20
1263.034102244332
 10
3123.5728800926763
 20
1279.2137869022422
 10
3113.74596243505
 20
1302.086237338826
 10
3107.907642665918
 20
1318.4705709598595
 10
3106.1933329735352
 20
1328.842581763082
 10
3104.301678005273
 20
1344.1593636844689
 10
3102.4516177878522
 20
1355.455841057949
 10
3100.537533107812
 20
1363.6236245487266
 10
3099.169147792871
 20
1365.8221191165978
 10
3096.569225612695
 20
1368.160271582418
 10
3094.037716213281
 20
1369.5212502811485
 10
3089.6931040916993
 20
1370.4983624027304
 10
3086.3405650291993
 20
1370.5332537601523
 10
2947.6556361351563
 20
1371.0427847049764
 10
2941.9084284935548
 20
1372.7876608036092
 10
2936.2296412621095
 20
1376.765953650289
 10
2933.937588039453
 20
1379.4530196903281
 10
2930.7218897972657
 20
1384.9667788456015
 10
2928.840389553125
 20
1392.6092498539022
 10
2927.9167140160157
 20
1397.285493140035
 10
2925.79571181875
 20
1400.6705404422812
 10
2922.169521633203
 20
1404.0904174564414
 10
2917.8248866234376
 20
1406.2540514896446
 10
2912.625057521875
 20
1407.4405425785117
 10
2747.1132167015626
 20
1406.7071151493126
 10
2743.589626613672
 20
1405.1716180179649
 10
2740.0318568382813
 20
1401.9959805057576
 10
2737.774013820703
 20
1397.9827963016562
 10
2737.192440334375
 20
1394.144099707418
 10
2737.437588039453
 20
1291.111554846578
 10
2736.01885635
 20
1282.427983679586
 10
2733.5360682640626
 20
1274.709318823629
 10
2730.935055080469
 20
1269.4026885746055
 10
2726.393123928125
 20
1263.797940649801
 10
2721.631130519922
 20
1260.3640701053673
 10
2716.7049525414063
 20
1258.0608398197226
 10
2711.9840357933595
 20
1256.888280615621
 10
2657.8420985375005
 20
1257.167750525289
 10
2656.507931057032
 20
1256.3651260135703
 10
2652.3001063500005
 20
1252.1774541996053
 10
2650.7949183617193
 20
1248.5830587528283
 10
2650.384395900782
 20
1245.1282287357383
 10
2647.5584071312505
 20
1171.213847021871
 10
2645.1307469669173
 20
1133.398506417417
 10
2640.6123011742193
 20
1085.142647528463
 10
2631.8936306244996
 20
1004.8705110789479
 10
2627.734005275782
 20
966.9193280170491
 10
2628.308712307032
 20
961.7685029361776
 10
2629.417110744532
 20
958.0833614490559
 10
2632.331722560938
 20
952.5556511447957
 10
2637.1758387718755
 20
947.9911018131306
 10
2640.2546961937505
 20
946.5254182193806
  0
LWPOLYLINE
  5
37
330
17
100
AcDbEntity
  8
0
100
AcDbPolyline
 90
22
 70
0
 10
2689.201565090235
 20
993.0095447300008
 10
2688.788282315658
 20
995.854043667717
 10
2687.5823329125005
 20
998.4547617862752
 10
2685.68948256634
 20
1000.5853030970256
 10
2683.270412746485
 20
1002.0645994327596
 10
2680.5355004970293
 20
1002.763414958339
 10
2677.719173732813
 20
1002.6223448703817
 10
2675.0637412166207
 20
1001.6529531276854
 10
2672.799679103907
 20
999.9399870060017
 10
2671.119720444019
 20
997.6290763371337
 10
2670.1702235375005
 20
994.921649679952
 10
2670.0318818036294
 20
992.0490536006963
 10
2670.716915432032
 20
989.2588239810995
 10
2672.165933772536
 20
986.7925111010328
 10
2674.2556727562505
 20
984.8602089450887
 10
2676.8040456235844
 20
983.6306557164864
 10
2679.5935633812505
 20
983.2084252689413
 10
2682.383125884684
 20
983.6306570108605
 10
2684.9314845238287
 20
984.8602089450886
 10
2687.0212152673284
 20
986.7925208929666
 10
2688.4702113304693
 20
989.2588239810995
 10
2689.155051132292
 20
992.0485893244096
  0
LWPOLYLINE
  5
38
330
17
100
AcDbEntity
  8
0
100
AcDbPolyline
 90
22
 70
0
 10
3095.6977656517583
 20
996.9441463230186
 10
3095.284469201772
 20
999.7886374832841
 10
3094.078525844629
 20
1002.389347967916
 10
3092.185684045346
 20
1004.5198975818179
 10
3089.7665904198243
 20
1005.9992010257773
 10
3087.0316969224623
 20
1006.6979987873589
 10
3084.2153437767583
 20
1006.5569310520225
 10
3081.559928492881
 20
1005.5875537680251
 10
3079.2958872948243
 20
1003.8745808933311
 10
3077.615942741339
 20
1001.5636606330319
 10
3076.6663859520513
 20
998.8562512729698
 10
3076.528049739625
 20
995.9836493138016
 10
3077.2131312523443
 20
993.1934178684287
 10
3078.662145109542
 20
990.7271054818979
 10
3080.7518504295904
 20
988.7948105381064
 10
3083.300231424354
 20
987.5652509325024
 10
3086.089771572168
 20
987.143026861959
 10
3088.879307435097
 20
987.5652510182373
 10
3091.427685085352
 20
988.7948105381064
 10
3093.517412055326
 20
990.7271142748915
 10
3094.966404262598
 20
993.1934178684287
 10
3095.651245195459
 20
995.9831874317987
  0
LWPOLYLINE
  5
39
330
17
100
AcDbEntity
  8
0
100
AcDbPolyline
 90
52
 70
0
 10
3192.6014911
 20
49.75802476318351
 10
3193.7585191000007
 20
39.11336776318369
 10
3197.5767111000005
 20
29.04722576318356
 10
3204.5188781000006
 20
18.749676763183672
 10
3212.6180731000004
 20
10.7661847631836
 10
3218.6346181000004
 20
8.567831763183603
 10
3226.8495161
 20
7.295100763183578
 10
3657.2499151
 20
7.524932763183597
 10
3673.0626291
 20
8.199865763183608
 10
3690.1287901
 20
12.345882763183631
 10
3719.7587321
 20
22.42976676318354
 10
3742.9178021
 20
33.59277176318365
 10
3769.4091131
 20
50.25397276318355
 10
3776.7400421
 20
55.91878176318365
 10
3780.2388941
 20
60.08408176318354
 10
3782.4048500999997
 20
64.9158307631837
 10
3783.7377460999996
 20
70.41402676318371
 10
3784.9040301
 20
77.41173176318371
 10
3784.9999991
 20
350.9660027631837
 10
3780.5014741
 20
363.4619047631837
 10
3777.0026221
 20
370.12638476318364
 10
3772.1708741
 20
375.7911937631836
 10
3766.0062291
 20
379.95649376318363
 10
3759.0085240999997
 20
382.62228576318364
 10
3747.6789071000003
 20
383.78856976318366
 10
3729.5181971
 20
384.7882427631837
 10
3659.8450511
 20
384.0711437631837
 10
3654.0136301000002
 20
385.57065276318366
 10
3644.8499691
 20
390.7356247631836
 10
3634.5200241000002
 20
398.39977776318364
 10
3626.3560361
 20
409.8960067631836
 10
3620.1913911
 20
423.7248037631836
 10
3614.5265831
 20
431.38895676318367
 10
3604.0300261
 20
439.0531097631836
 10
3592.0339601
 20
443.8848577631837
 10
3585.0362561
 20
445.0511417631836
 10
3569.2081141
 20
445.0511417631836
 10
3508.3947281
 20
444.38469376318363
 10
3498.8978431
 20
446.55065076318357
 10
3460.9103041
 20
453.71496676318367
 10
3422.9227641
 20
454.38141476318367
 10
3380.6033121
 20
456.04753476318365
 10
3344.9483401
 20
458.04687976318365
 10
3337.6174121
 20
457.0472077631836
 10
3322.4557181000005
 20
447.3837107631836
 10
3292.9653911000005
 20
414.89436676318365
 10
3253.9781791000005
 20
372.9081387631837
 10
3219.3228801000005
 20
334.7539877631836
 10
3197.9965421000006
 20
308.0960647631836
 10
3192.8315691000007
 20
296.76644776318363
 10
3191.4986731000004
 20
288.43584676318363
 10
3191.998509100001
 20
254.11377176318356
  0
CIRCLE
  5
3A
330
17
100
AcDbEntity
  8
0
100
AcDbCircle
 10
3267.6138271000004
 20
285.81227676318366
 30
0.0
 40
11.0
  0
CIRCLE
  5
3B
330
17
100
AcDbEntity
  8
0
100
AcDbCircle
 10
3240.2228121000003
 20
50.08959576318369
 30
0.0
 40
11.0
  0
LWPOLYLINE
  5
3C
330
17
100
AcDbEntity
  8
0
100
AcDbPolyline
 90
54
 70
0
 10
3191.49872812
 20
1221.9108580417414
 10
3192.5400531200003
 20
1211.7290130417416
 10
3195.2012171200004
 20
1203.7455200417414
 10
3204.2260351200002
 20
1185.6958850417416
 10
3207.92852412
 20
1181.4148820417415
 10
3217.3004501200003
 20
1175.2826340417416
 10
3225.63105112
 20
1172.6214700417415
 10
3248.54020312
 20
1170.3074140417416
 10
3355.66413912
 20
1167.5209210417415
 10
3429.37125912
 20
1166.9618450417415
 10
3435.61921012
 20
1168.4659810417415
 10
3446.37956912
 20
1177.0279880417415
 10
3451.35478912
 20
1183.8544520417415
 10
3458.5283621199997
 20
1198.5487060417415
 10
3465.47052912
 20
1218.3338830417415
 10
3469.05731612
 20
1224.2347260417416
 10
3475.30526612
 20
1228.7471340417414
 10
3485.48711212
 20
1232.7967320417415
 10
3491.73506212
 20
1233.4909490417415
 10
3515.5698371199996
 20
1234.0694630417415
 10
3593.7497491199997
 20
1233.8101030417415
 10
3606.5233371199997
 20
1235.1985370417415
 10
3617.35311812
 20
1240.3357410417416
 10
3634.84737912
 20
1254.2200750417414
 10
3639.98458312
 20
1261.0233990417414
 10
3644.56641412
 20
1268.9374700417416
 10
3646.64906412
 20
1273.6581440417415
 10
3647.4821241199998
 20
1280.4614680417415
 10
3648.45402712
 20
1489.1430180417415
 10
3644.42757012
 20
1503.8604130417414
 10
3631.0986091199998
 20
1535.1001660417414
 10
3620.96304512
 20
1546.4853200417415
 10
3610.41095012
 20
1553.8440180417415
 10
3591.38941212
 20
1563.5630520417415
 10
3567.50835612
 20
1566.6176060417415
 10
3536.96282012
 20
1568.8390990417415
 10
3494.89328612
 20
1571.0605930417414
 10
3405.61701412
 20
1578.1416030417415
 10
3395.89797912
 20
1579.8077240417415
 10
3385.90125812
 20
1582.7234340417415
 10
3378.54256112
 20
1585.7779880417415
 10
3368.26815312
 20
1591.4705650417416
 10
3361.32598612
 20
1596.6077690417417
 10
3357.16068612
 20
1597.9962020417415
 10
3351.74579512
 20
1598.4127320417415
 10
3292.0431561200003
 20
1598.4127320417415
 10
3223.29903812
 20
1601.2007070417415
 10
3215.10728112
 20
1598.8403700417414
 10
3209.97007712
 20
1595.2304430417414
 10
3203.4444391200004
 20
1589.3990220417415
 10
3198.8626091200003
 20
1584.5395050417417
 10
3194.8361521200004
 20
1572.8766640417414
 10
3193.44771812
 20
1563.0187860417416
 10
3192.75350212
 20
1553.8551250417415
  0
LWPOLYLINE
  5
3D
330
17
100
AcDbEntity
  8
0
100
AcDbPolyline
 90
58
 70
0
 10
3519.7992111000003
 20
1205.5784146519245
 10
3497.9730371000005
 20
1204.0789056519245
 10
3484.3108521000004
 20
1200.5800536519246
 10
3461.8182301000006
 20
1188.2507646519246
 10
3442.4912361000006
 20
1172.5892346519245
 10
3413.3341331
 20
1147.9306566519247
 10
3384.5102541000006
 20
1122.1057936519244
 10
3347.1891621000004
 20
1091.7824066519245
 10
3342.3574141000004
 20
1086.1175986519245
 10
3334.6932611
 20
1074.1215336519247
 10
3332.6939171000004
 20
1067.9568886519244
 10
3332.3606931000004
 20
1058.7932276519246
 10
3334.0974571
 20
988.0191096519243
 10
3337.2164341000002
 20
932.5972886519243
 10
3337.9361971000003
 20
888.9316106519243
 10
3338.4160401000004
 20
800.6405716519242
 10
3335.5369841
 20
709.2305546519243
 10
3332.1780861000007
 20
687.6376376519243
 10
3325.7002111000006
 20
651.4095206519244
 10
3311.3049331000007
 20
580.6327366519242
 10
3309.8654051000008
 20
565.7576156519242
 10
3309.8654051000008
 20
547.0437536519244
 10
3313.2243031000007
 20
526.6504426519243
 10
3317.0630441000008
 20
514.4144566519242
 10
3324.500605100001
 20
498.57965065192445
 10
3335.0571421000004
 20
483.9444506519243
 10
3344.1741511000005
 20
474.3475986519244
 10
3361.6884071000004
 20
464.5108256519244
 10
3372.9647081000003
 20
460.91200565192446
 10
3383.7611661
 20
458.0329496519245
 10
3392.1584121000005
 20
456.5934226519245
 10
3634.9587711000004
 20
454.91397365192455
 10
3662.5497211
 20
459.4724776519244
 10
3676.9449991
 20
466.4301956519245
 10
3688.2213001000005
 20
475.0673626519244
 10
3701.6568931
 20
492.58161765192443
 10
3718.9312271000003
 20
518.2531976519243
 10
3723.4897321000003
 20
535.2876096519243
 10
3730.4474501000004
 20
553.5216286519243
 10
3750.3609181
 20
578.7133656519244
 10
3769.3147011000005
 20
597.6671486519243
 10
3773.8732061000005
 20
606.7841586519245
 10
3776.5123401000005
 20
621.1794366519244
 10
3777.4720251000003
 20
640.3731406519245
 10
3777.9518681000004
 20
727.4357836519245
 10
3782.5122921
 20
804.5484096519244
 10
3784.9997961000004
 20
984.0632866519244
 10
3782.9268761000003
 20
1001.4758156519244
 10
3781.2391101000003
 20
1129.6593696519246
 10
3778.6399621000005
 20
1142.6551066519244
 10
3775.6409461000003
 20
1151.6521556519244
 10
3766.2440281000004
 20
1165.2476966519246
 10
3754.4478971000003
 20
1180.6426466519245
 10
3743.4515041000004
 20
1188.4400886519245
 10
3729.0562261000005
 20
1197.2372036519246
 10
3713.0614731000005
 20
1202.2355636519244
 10
3697.8664571000004
 20
1203.6351046519246
 10
3673.8743261000004
 20
1204.6347766519245
  0
LWPOLYLINE
  5
3E
330
17
100
AcDbEntity
  8
0
100
AcDbPolyline
 90
50
 70
0
 10
3329.7491511000003
 20
1710.9303131000004
 10
3330.1490201000006
 20
1705.7320181000005
 10
3334.3476431
 20
1693.1361491000005
 10
3341.3453471000003
 20
1679.5406091000004
 10
3348.9428551
 20
1668.5442161000003
 10
3361.9385931
 20
1658.7474291000003
 10
3370.7357071
 20
1655.3485441000005
 10
3377.7334121
 20
1654.9486751000004
 10
3462.7055401000002
 20
1653.9490031000005
 10
3477.7006221
 20
1652.5494621000005
 10
3489.8966211
 20
1649.9503151000004
 10
3502.6924241
 20
1645.1518891000005
 10
3512.4892111
 20
1639.3537911000003
 10
3521.4862591
 20
1627.9575291000003
 10
3532.6825871
 20
1597.1676281000005
 10
3543.6789801
 20
1577.5740551000004
 10
3548.6773401
 20
1573.1754981000004
 10
3556.6747171
 20
1569.5766781000004
 10
3562.8726841000002
 20
1567.9772031000005
 10
3573.2692741
 20
1567.1774651000003
 10
3600.6602901
 20
1566.1777931000004
 10
3666.4387141
 20
1568.5770061000005
 10
3754.4098581
 20
1572.3757601000004
 10
3761.8074321
 20
1574.3751041000005
 10
3767.6055301
 20
1578.3737931000005
 10
3777.0024471
 20
1586.5711041000004
 10
3783.2004141
 20
1598.1673001000004
 10
3783.4003491
 20
1609.9634311000004
 10
3784.9998240999994
 20
1959.2488621000005
 10
3783.0004800999995
 20
1971.4448611000005
 10
3779.4016610999997
 20
1980.6418451000004
 10
3773.2036940999997
 20
1988.2393521000004
 10
3762.4072350999995
 20
1995.4369921000005
 10
3755.6094650999994
 20
1998.2360731000003
 10
3623.1129250999998
 20
1998.9998231000004
 10
3616.1152200999995
 20
1996.8338671000004
 10
3604.1191550999997
 20
1991.1690581000005
 10
3582.7928170999994
 20
1978.3399331000003
 10
3569.6304680999997
 20
1975.0076931000006
 10
3556.4681180999996
 20
1973.1749601000004
 10
3513.1489940999995
 20
1970.0093321000004
 10
3474.3283940999995
 20
1968.5098241000003
 10
3396.6871950999994
 20
1963.8446881000004
 10
3377.3602010999994
 20
1957.1802071000004
 10
3362.6983430999994
 20
1949.1828301000003
 10
3350.5356660999996
 20
1938.0198251000004
 10
3340.3723330999997
 20
1924.8574761000004
 10
3333.7078531
 20
1910.1956181000003
 10
3330.3756121000006
 20
1899.1992251000004
 10
3328.7094921000003
 20
1883.5376961000004
  0
ENDSEC
  0
SECTION
  2
OBJECTS
  0
DICTIONARY
  5
A
330
0
100
AcDbDictionary
281
1
  3
ACAD_COLOR
350
B
  3
ACAD_GROUP
350
C
  3
ACAD_LAYOUT
350
D
  3
ACAD_MATERIAL
350
E
  3
ACAD_MLEADERSTYLE
350
F
  3
ACAD_MLINESTYLE
350
10
  3
ACAD_PLOTSETTINGS
350
11
  3
ACAD_PLOTSTYLENAME
350
12
  3
ACAD_SCALELIST
350
14
  3
ACAD_TABLESTYLE
350
15
  3
ACAD_VISUALSTYLE
350
16
  3
EZDXF_META
350
2D
  0
DICTIONARY
  5
B
330
A
100
AcDbDictionary
281
1
  0
DICTIONARY
  5
C
330
A
100
AcDbDictionary
281
1
  0
DICTIONARY
  5
D
330
A
100
AcDbDictionary
281
1
  3
Model
350
1A
  3
Layout1
350
1E
  0
DICTIONARY
  5
E
330
A
100
AcDbDictionary
281
1
  3
ByBlock
350
1F
  3
ByLayer
350
20
  3
Global
350
21
  0
DICTIONARY
  5
F
330
A
100
AcDbDictionary
281
1
  3
Standard
350
2C
  0
DICTIONARY
  5
10
330
A
100
AcDbDictionary
281
1
  3
Standard
350
22
  0
DICTIONARY
  5
11
330
A
100
AcDbDictionary
281
1
  0
ACDBDICTIONARYWDFLT
  5
12
330
A
100
AcDbDictionary
281
1
  3
Normal
350
13
100
AcDbDictionaryWithDefault
340
13
  0
ACDBPLACEHOLDER
  5
13
330
12
  0
DICTIONARY
  5
14
330
A
100
AcDbDictionary
281
1
  0
DICTIONARY
  5
15
330
A
100
AcDbDictionary
281
1
  0
DICTIONARY
  5
16
330
A
100
AcDbDictionary
281
1
  0
LAYOUT
  5
1A
330
D
100
AcDbPlotSettings
  1

  4
A3
  6

 40
7.5
 41
20.0
 42
7.5
 43
20.0
 44
420.0
 45
297.0
 46
0.0
 47
0.0
 48
0.0
 49
0.0
140
0.0
141
0.0
142
1.0
143
1.0
 70
1024
 72
1
 73
0
 74
5
  7

 75
16
 76
0
 77
2
 78
300
147
1.0
148
0.0
149
0.0
100
AcDbLayout
  1
Model
 70
1
 71
0
 10
0.0
 20
0.0
 11
420.0
 21
297.0
 12
0.0
 22
0.0
 32
0.0
 14
1e+20
 24
1e+20
 34
1e+20
 15
-1e+20
 25
-1e+20
 35
-1e+20
146
0.0
 13
0.0
 23
0.0
 33
0.0
 16
1.0
 26
0.0
 36
0.0
 17
0.0
 27
1.0
 37
0.0
 76
1
330
17
  0
LAYOUT
  5
1E
330
D
100
AcDbPlotSettings
  1

  4
A3
  6

 40
7.5
 41
20.0
 42
7.5
 43
20.0
 44
420.0
 45
297.0
 46
0.0
 47
0.0
 48
0.0
 49
0.0
140
0.0
141
0.0
142
1.0
143
1.0
 70
0
 72
1
 73
0
 74
5
  7

 75
16
 76
0
 77
2
 78
300
147
1.0
148
0.0
149
0.0
100
AcDbLayout
  1
Layout1
 70
1
 71
1
 10
0.0
 20
0.0
 11
420.0
 21
297.0
 12
0.0
 22
0.0
 32
0.0
 14
1e+20
 24
1e+20
 34
1e+20
 15
-1e+20
 25
-1e+20
 35
-1e+20
146
0.0
 13
0.0
 23
0.0
 33
0.0
 16
1.0
 26
0.0
 36
0.0
 17
0.0
 27
1.0
 37
0.0
 76
1
330
1B
  0
MATERIAL
  5
1F
102
{ACAD_REACTORS
330
E
102
}
330
E
100
AcDbMaterial
  1
ByBlock
  2

 70
0
 40
1.0
 71
1
 41
1.0
 91
-1023410177
 42
1.0
 72
1
  3

 73
1
 74
1
 75
1
 44
0.5
 73
0
 45
1.0
 46
1.0
 77
1
  4

 78
1
 79
1
170
1
 48
1.0
171
1
  6

172
1
173
1
174
1
140
1.0
141
1.0
175
1
  7

176
1
177
1
178
1
143
1.0
179
1
  8

270
1
271
1
272
1
145
1.0
146
1.0
273
1
  9

274
1
275
1
276
1
 42
1.0
 72
1
  3

 73
1
 74
1
 75
1
 94
63
  0
MATERIAL
  5
20
102
{ACAD_REACTORS
330
E
102
}
330
E
100
AcDbMaterial
  1
ByLayer
  2

 70
0
 40
1.0
 71
1
 41
1.0
 91
-1023410177
 42
1.0
 72
1
  3

 73
1
 74
1
 75
1
 44
0.5
 73
0
 45
1.0
 46
1.0
 77
1
  4

 78
1
 79
1
170
1
 48
1.0
171
1
  6

172
1
173
1
174
1
140
1.0
141
1.0
175
1
  7

176
1
177
1
178
1
143
1.0
179
1
  8

270
1
271
1
272
1
145
1.0
146
1.0
273
1
  9

274
1
275
1
276
1
 42
1.0
 72
1
  3

 73
1
 74
1
 75
1
 94
63
  0
MATERIAL
  5
21
102
{ACAD_REACTORS
330
E
102
}
330
E
100
AcDbMaterial
  1
Global
  2

 70
0
 40
1.0
 71
1
 41
1.0
 91
-1023410177
 42
1.0
 72
1
  3

 73
1
 74
1
 75
1
 44
0.5
 73
0
 45
1.0
 46
1.0
 77
1
  4

 78
1
 79
1
170
1
 48
1.0
171
1
  6

172
1
173
1
174
1
140
1.0
141
1.0
175
1
  7

176
1
177
1
178
1
143
1.0
179
1
  8

270
1
271
1
272
1
145
1.0
146
1.0
273
1
  9

274
1
275
1
276
1
 42
1.0
 72
1
  3

 73
1
 74
1
 75
1
 94
63
  0
MLINESTYLE
  5
22
102
{ACAD_REACTORS
330
10
102
}
330
10
100
AcDbMlineStyle
  2
Standard
 70
0
  3

 62
256
 51
90.0
 52
90.0
 71
2
 49
0.5
 62
256
  6
BYLAYER
 49
-0.5
 62
256
  6
BYLAYER
  0
MLEADERSTYLE
  5
2C
102
{ACAD_REACTORS
330
F
102
}
330
F
100
AcDbMLeaderStyle
179
2
170
2
171
1
172
0
 90
2
 40
0.0
 41
0.0
173
1
 91
-1056964608
 92
-2
290
1
 42
2.0
291
1
 43
8.0
  3
Standard
 44
4.0
300

342
29
174
1
175
1
176
0
178
1
 93
-1056964608
 45
4.0
292
0
297
0
 46
4.0
 94
-1056964608
 47
1.0
 49
1.0
140
1.0
294
1
141
0.0
177
0
142
1.0
295
0
296
0
143
3.75
271
0
272
9
273
9
  0
DICTIONARY
  5
2D
330
A
100
AcDbDictionary
280
1
281
1
  3
CREATED_BY_EZDXF
350
2E
  3
WRITTEN_BY_EZDXF
350
41
  0
DICTIONARYVAR
  5
2E
330
2D
100
DictionaryVariables
280
0
  1
1.4.2 @ 2025-10-23T11:31:31.626427+00:00
  0
DICTIONARYVAR
  5
41
330
2D
100
DictionaryVariables
280
0
  1
1.4.2 @ 2025-10-23T11:31:32.022089+00:00
  0
ENDSEC
  0
EOF
