  0
SECTION
  2
HEADER
  9
$ACADVER
  1
AC1027
  9
$ACADMAINTVER
 70
105
  9
$DWGCODEPAGE
  3
ANSI_1252
  9
$LASTSAVEDBY
  1
ezdxf
  9
$REQUIREDVERSIONS
160
0
  9
$INSBASE
 10
0.0
 20
0.0
 30
0.0
  9
$EXTMIN
 10
1e+20
 20
1e+20
 30
1e+20
  9
$EXTMAX
 10
-1e+20
 20
-1e+20
 30
-1e+20
  9
$LIMMIN
 10
0.0
 20
0.0
  9
$LIMMAX
 10
420.0
 20
297.0
  9
$ORTHOMODE
 70
0
  9
$REGENMODE
 70
1
  9
$FILLMODE
 70
1
  9
$QTEXTMODE
 70
0
  9
$MIRRTEXT
 70
1
  9
$LTSCALE
 40
1.0
  9
$ATTMODE
 70
1
  9
$TEXTSIZE
 40
2.5
  9
$TRACEWID
 40
1.0
  9
$TEXTSTYLE
  7
Standard
  9
$CLAYER
  8
0
  9
$CELTYPE
  6
ByLayer
  9
$CECOLOR
 62
256
  9
$CELTSCALE
 40
1.0
  9
$DISPSILH
 70
0
  9
$DIMSCALE
 40
1.0
  9
$DIMASZ
 40
2.5
  9
$DIMEXO
 40
0.625
  9
$DIMDLI
 40
3.75
  9
$DIMRND
 40
0.0
  9
$DIMDLE
 40
0.0
  9
$DIMEXE
 40
1.25
  9
$DIMTP
 40
0.0
  9
$DIMTM
 40
0.0
  9
$DIMTXT
 40
2.5
  9
$DIMCEN
 40
2.5
  9
$DIMTSZ
 40
0.0
  9
$DIMTOL
 70
0
  9
$DIMLIM
 70
0
  9
$DIMTIH
 70
0
  9
$DIMTOH
 70
0
  9
$DIMSE1
 70
0
  9
$DIMSE2
 70
0
  9
$DIMTAD
 70
1
  9
$DIMZIN
 70
8
  9
$DIMBLK
  1

  9
$DIMASO
 70
1
  9
$DIMSHO
 70
1
  9
$DIMPOST
  1

  9
$DIMAPOST
  1

  9
$DIMALT
 70
0
  9
$DIMALTD
 70
3
  9
$DIMALTF
 40
0.03937007874
  9
$DIMLFAC
 40
1.0
  9
$DIMTOFL
 70
1
  9
$DIMTVP
 40
0.0
  9
$DIMTIX
 70
0
  9
$DIMSOXD
 70
0
  9
$DIMSAH
 70
0
  9
$DIMBLK1
  1

  9
$DIMBLK2
  1

  9
$DIMSTYLE
  2
ISO-25
  9
$DIMCLRD
 70
0
  9
$DIMCLRE
 70
0
  9
$DIMCLRT
 70
0
  9
$DIMTFAC
 40
1.0
  9
$DIMGAP
 40
0.625
  9
$DIMJUST
 70
0
  9
$DIMSD1
 70
0
  9
$DIMSD2
 70
0
  9
$DIMTOLJ
 70
0
  9
$DIMTZIN
 70
8
  9
$DIMALTZ
 70
0
  9
$DIMALTTZ
 70
0
  9
$DIMUPT
 70
0
  9
$DIMDEC
 70
2
  9
$DIMTDEC
 70
2
  9
$DIMALTU
 70
2
  9
$DIMALTTD
 70
3
  9
$DIMTXSTY
  7
Standard
  9
$DIMAUNIT
 70
0
  9
$DIMADEC
 70
0
  9
$DIMALTRND
 40
0.0
  9
$DIMAZIN
 70
0
  9
$DIMDSEP
 70
44
  9
$DIMATFIT
 70
3
  9
$DIMFRAC
 70
0
  9
$DIMLDRBLK
  1

  9
$DIMLUNIT
 70
2
  9
$DIMLWD
 70
-2
  9
$DIMLWE
 70
-2
  9
$DIMTMOVE
 70
0
  9
$DIMFXL
 40
1.0
  9
$DIMFXLON
 70
0
  9
$DIMJOGANG
 40
0.785398163397
  9
$DIMTFILL
 70
0
  9
$DIMTFILLCLR
 70
0
  9
$DIMARCSYM
 70
0
  9
$DIMLTYPE
  6

  9
$DIMLTEX1
  6

  9
$DIMLTEX2
  6

  9
$DIMTXTDIRECTION
 70
0
  9
$LUNITS
 70
2
  9
$LUPREC
 70
4
  9
$SKETCHINC
 40
1.0
  9
$FILLETRAD
 40
10.0
  9
$AUNITS
 70
0
  9
$AUPREC
 70
2
  9
$MENU
  1
.
  9
$ELEVATION
 40
0.0
  9
$PELEVATION
 40
0.0
  9
$THICKNESS
 40
0.0
  9
$LIMCHECK
 70
0
  9
$CHAMFERA
 40
0.0
  9
$CHAMFERB
 40
0.0
  9
$CHAMFERC
 40
0.0
  9
$CHAMFERD
 40
0.0
  9
$SKPOLY
 70
0
  9
$TDCREATE
 40
2460972.5742361112
  9
$TDUCREATE
 40
2458532.153996898
  9
$TDUPDATE
 40
2460972.5742361112
  9
$TDUUPDATE
 40
2458532.1544311
  9
$TDINDWG
 40
0.0
  9
$TDUSRTIMER
 40
0.0
  9
$USRTIMER
 70
1
  9
$ANGBASE
 50
0.0
  9
$ANGDIR
 70
0
  9
$PDMODE
 70
0
  9
$PDSIZE
 40
0.0
  9
$PLINEWID
 40
0.0
  9
$SPLFRAME
 70
0
  9
$SPLINETYPE
 70
6
  9
$SPLINESEGS
 70
8
  9
$HANDSEED
  5
1BA
  9
$SURFTAB1
 70
6
  9
$SURFTAB2
 70
6
  9
$SURFTYPE
 70
6
  9
$SURFU
 70
6
  9
$SURFV
 70
6
  9
$UCSBASE
  2

  9
$UCSNAME
  2

  9
$UCSORG
 10
0.0
 20
0.0
 30
0.0
  9
$UCSXDIR
 10
1.0
 20
0.0
 30
0.0
  9
$UCSYDIR
 10
0.0
 20
1.0
 30
0.0
  9
$UCSORTHOREF
  2

  9
$UCSORTHOVIEW
 70
0
  9
$UCSORGTOP
 10
0.0
 20
0.0
 30
0.0
  9
$UCSORGBOTTOM
 10
0.0
 20
0.0
 30
0.0
  9
$UCSORGLEFT
 10
0.0
 20
0.0
 30
0.0
  9
$UCSORGRIGHT
 10
0.0
 20
0.0
 30
0.0
  9
$UCSORGFRONT
 10
0.0
 20
0.0
 30
0.0
  9
$UCSORGBACK
 10
0.0
 20
0.0
 30
0.0
  9
$PUCSBASE
  2

  9
$PUCSNAME
  2

  9
$PUCSORG
 10
0.0
 20
0.0
 30
0.0
  9
$PUCSXDIR
 10
1.0
 20
0.0
 30
0.0
  9
$PUCSYDIR
 10
0.0
 20
1.0
 30
0.0
  9
$PUCSORTHOREF
  2

  9
$PUCSORTHOVIEW
 70
0
  9
$PUCSORGTOP
 10
0.0
 20
0.0
 30
0.0
  9
$PUCSORGBOTTOM
 10
0.0
 20
0.0
 30
0.0
  9
$PUCSORGLEFT
 10
0.0
 20
0.0
 30
0.0
  9
$PUCSORGRIGHT
 10
0.0
 20
0.0
 30
0.0
  9
$PUCSORGFRONT
 10
0.0
 20
0.0
 30
0.0
  9
$PUCSORGBACK
 10
0.0
 20
0.0
 30
0.0
  9
$USERI1
 70
0
  9
$USERI2
 70
0
  9
$USERI3
 70
0
  9
$USERI4
 70
0
  9
$USERI5
 70
0
  9
$USERR1
 40
0.0
  9
$USERR2
 40
0.0
  9
$USERR3
 40
0.0
  9
$USERR4
 40
0.0
  9
$USERR5
 40
0.0
  9
$WORLDVIEW
 70
1
  9
$SHADEDGE
 70
3
  9
$SHADEDIF
 70
70
  9
$TILEMODE
 70
1
  9
$MAXACTVP
 70
64
  9
$PINSBASE
 10
0.0
 20
0.0
 30
0.0
  9
$PLIMCHECK
 70
0
  9
$PEXTMIN
 10
1e+20
 20
1e+20
 30
1e+20
  9
$PEXTMAX
 10
-1e+20
 20
-1e+20
 30
-1e+20
  9
$PLIMMIN
 10
0.0
 20
0.0
  9
$PLIMMAX
 10
420.0
 20
297.0
  9
$UNITMODE
 70
0
  9
$VISRETAIN
 70
1
  9
$PLINEGEN
 70
0
  9
$PSLTSCALE
 70
1
  9
$TREEDEPTH
 70
3020
  9
$CMLSTYLE
  2
Standard
  9
$CMLJUST
 70
0
  9
$CMLSCALE
 40
20.0
  9
$PROXYGRAPHICS
 70
1
  9
$MEASUREMENT
 70
1
  9
$CELWEIGHT
370
-1
  9
$ENDCAPS
280
0
  9
$JOINSTYLE
280
0
  9
$LWDISPLAY
290
0
  9
$INSUNITS
 70
6
  9
$HYPERLINKBASE
  1

  9
$STYLESHEET
  1

  9
$XEDIT
290
1
  9
$CEPSNTYPE
380
0
  9
$PSTYLEMODE
290
1
  9
$FINGERPRINTGUID
  2
{B30FF03C-6585-4A81-9539-5A4012D3B55E}
  9
$VERSIONGUID
  2
{DA829DBE-CC40-4C53-B63F-59C02D8CF3F3}
  9
$EXTNAMES
290
1
  9
$PSVPSCALE
 40
0.0
  9
$OLESTARTUP
290
0
  9
$SORTENTS
280
127
  9
$INDEXCTL
280
0
  9
$HIDETEXT
280
1
  9
$XCLIPFRAME
280
1
  9
$HALOGAP
280
0
  9
$OBSCOLOR
 70
257
  9
$OBSLTYPE
280
0
  9
$INTERSECTIONDISPLAY
280
0
  9
$INTERSECTIONCOLOR
 70
257
  9
$DIMASSOC
280
2
  9
$PROJECTNAME
  1

  9
$CAMERADISPLAY
290
0
  9
$LENSLENGTH
 40
50.0
  9
$CAMERAHEIGHT
 40
0.0
  9
$STEPSPERSEC
 40
24.0
  9
$STEPSIZE
 40
100.0
  9
$3DDWFPREC
 40
2.0
  9
$PSOLWIDTH
 40
0.005
  9
$PSOLHEIGHT
 40
0.08
  9
$LOFTANG1
 40
1.570796326795
  9
$LOFTANG2
 40
1.570796326795
  9
$LOFTMAG1
 40
0.0
  9
$LOFTMAG2
 40
0.0
  9
$LOFTPARAM
 70
7
  9
$LOFTNORMALS
280
1
  9
$LATITUDE
 40
37.795
  9
$LONGITUDE
 40
-122.394
  9
$NORTHDIRECTION
 40
0.0
  9
$TIMEZONE
 70
-8000
  9
$LIGHTGLYPHDISPLAY
280
1
  9
$TILEMODELIGHTSYNCH
280
1
  9
$CMATERIAL
347
20
  9
$SOLIDHIST
280
0
  9
$SHOWHIST
280
1
  9
$DWFFRAME
280
2
  9
$DGNFRAME
280
2
  9
$REALWORLDSCALE
290
1
  9
$INTERFERECOLOR
 62
256
  9
$CSHADOW
280
0
  9
$SHADOWPLANELOCATION
 40
0.0
  0
ENDSEC
  0
SECTION
  2
CLASSES
  0
CLASS
  1
ACDBDICTIONARYWDFLT
  2
AcDbDictionaryWithDefault
  3
ObjectDBX Classes
 90
0
 91
0
280
0
281
0
  0
CLASS
  1
SUN
  2
AcDbSun
  3
SCENEOE
 90
1153
 91
0
280
0
281
0
  0
CLASS
  1
VISUALSTYLE
  2
AcDbVisualStyle
  3
ObjectDBX Classes
 90
4095
 91
0
280
0
281
0
  0
CLASS
  1
MATERIAL
  2
AcDbMaterial
  3
ObjectDBX Classes
 90
1153
 91
0
280
0
281
0
  0
CLASS
  1
SCALE
  2
AcDbScale
  3
ObjectDBX Classes
 90
1153
 91
0
280
0
281
0
  0
CLASS
  1
TABLESTYLE
  2
AcDbTableStyle
  3
ObjectDBX Classes
 90
4095
 91
0
280
0
281
0
  0
CLASS
  1
MLEADERSTYLE
  2
AcDbMLeaderStyle
  3
ACDB_MLEADERSTYLE_CLASS
 90
4095
 91
0
280
0
281
0
  0
CLASS
  1
DICTIONARYVAR
  2
AcDbDictionaryVar
  3
ObjectDBX Classes
 90
0
 91
0
280
0
281
0
  0
CLASS
  1
CELLSTYLEMAP
  2
AcDbCellStyleMap
  3
ObjectDBX Classes
 90
1152
 91
0
280
0
281
0
  0
CLASS
  1
MENTALRAYRENDERSETTINGS
  2
AcDbMentalRayRenderSettings
  3
SCENEOE
 90
1024
 91
0
280
0
281
0
  0
CLASS
  1
ACDBDETAILVIEWSTYLE
  2
AcDbDetailViewStyle
  3
ObjectDBX Classes
 90
1025
 91
0
280
0
281
0
  0
CLASS
  1
ACDBSECTIONVIEWSTYLE
  2
AcDbSectionViewStyle
  3
ObjectDBX Classes
 90
1025
 91
0
280
0
281
0
  0
CLASS
  1
RASTERVARIABLES
  2
AcDbRasterVariables
  3
ISM
 90
0
 91
0
280
0
281
0
  0
CLASS
  1
ACDBPLACEHOLDER
  2
AcDbPlaceHolder
  3
ObjectDBX Classes
 90
0
 91
0
280
0
281
0
  0
CLASS
  1
LAYOUT
  2
AcDbLayout
  3
ObjectDBX Classes
 90
0
 91
0
280
0
281
0
  0
ENDSEC
  0
SECTION
  2
TABLES
  0
TABLE
  2
VPORT
  5
8
330
0
100
AcDbSymbolTable
 70
1
  0
VPORT
  5
23
330
8
100
AcDbSymbolTableRecord
100
AcDbViewportTableRecord
  2
*Active
 70
0
 10
0.0
 20
0.0
 11
1.0
 21
1.0
 12
0.0
 22
0.0
 13
0.0
 23
0.0
 14
0.5
 24
0.5
 15
0.5
 25
0.5
 16
0.0
 26
0.0
 36
1.0
 17
0.0
 27
0.0
 37
0.0
 40
1000.0
 41
1.34
 42
50.0
 43
0.0
 44
0.0
 50
0.0
 51
0.0
 71
0
 72
1000
 73
1
 74
3
 75
0
 76
0
 77
0
 78
0
281
0
 65
0
146
0.0
  0
ENDTAB
  0
TABLE
  2
LTYPE
  5
2
330
0
100
AcDbSymbolTable
 70
3
  0
LTYPE
  5
24
330
2
100
AcDbSymbolTableRecord
100
AcDbLinetypeTableRecord
  2
ByBlock
 70
0
  3

 72
65
 73
0
 40
0.0
  0
LTYPE
  5
25
330
2
100
AcDbSymbolTableRecord
100
AcDbLinetypeTableRecord
  2
ByLayer
 70
0
  3

 72
65
 73
0
 40
0.0
  0
LTYPE
  5
26
330
2
100
AcDbSymbolTableRecord
100
AcDbLinetypeTableRecord
  2
Continuous
 70
0
  3

 72
65
 73
0
 40
0.0
  0
ENDTAB
  0
TABLE
  2
LAYER
  5
1
330
0
100
AcDbSymbolTable
 70
4
  0
LAYER
  5
27
330
1
100
AcDbSymbolTableRecord
100
AcDbLayerTableRecord
  2
0
 70
0
 62
7
  6
Continuous
370
-3
390
13
347
21
  0
LAYER
  5
28
330
1
100
AcDbSymbolTableRecord
100
AcDbLayerTableRecord
  2
Defpoints
 70
0
 62
7
  6
Continuous
290
0
370
-3
390
13
347
21
  0
LAYER
  5
33
330
1
100
AcDbSymbolTableRecord
100
AcDbLayerTableRecord
  2
3
 70
64
 62
7
  6
Continuous
370
-3
390
F
347
1D1
  0
LAYER
  5
97
330
1
100
AcDbSymbolTableRecord
100
AcDbLayerTableRecord
  2
2
 70
64
 62
7
  6
Continuous
370
-3
390
F
347
1D1
  0
ENDTAB
  0
TABLE
  2
STYLE
  5
5
330
0
100
AcDbSymbolTable
 70
1
  0
STYLE
  5
29
330
5
100
AcDbSymbolTableRecord
100
AcDbTextStyleTableRecord
  2
Standard
 70
0
 40
0.0
 41
1.0
 50
0.0
 71
0
 42
2.5
  3
txt
  4

  0
ENDTAB
  0
TABLE
  2
VIEW
  5
7
330
0
100
AcDbSymbolTable
 70
0
  0
ENDTAB
  0
TABLE
  2
UCS
  5
6
330
0
100
AcDbSymbolTable
 70
0
  0
ENDTAB
  0
TABLE
  2
APPID
  5
3
330
0
100
AcDbSymbolTable
 70
3
  0
APPID
  5
2A
330
3
100
AcDbSymbolTableRecord
100
AcDbRegAppTableRecord
  2
ACAD
 70
0
  0
APPID
  5
1B7
330
3
100
AcDbSymbolTableRecord
100
AcDbRegAppTableRecord
  2
HATCHBACKGROUNDCOLOR
 70
0
  0
APPID
  5
1B8
330
3
100
AcDbSymbolTableRecord
100
AcDbRegAppTableRecord
  2
EZDXF
 70
0
  0
ENDTAB
  0
TABLE
  2
DIMSTYLE
  5
4
330
0
100
AcDbSymbolTable
 70
1
100
AcDbDimStyleTable
  0
DIMSTYLE
105
2B
330
4
100
AcDbSymbolTableRecord
100
AcDbDimStyleTableRecord
  2
Standard
 70
0
 40
1.0
 41
2.5
 42
0.625
 43
3.75
 44
1.25
 45
0.0
 46
0.0
 47
0.0
 48
0.0
 49
2.5
140
2.5
141
2.5
142
0.0
143
0.03937007874
144
1.0
145
0.0
146
1.0
147
0.625
148
0.0
 69
0
 70
0
 71
0
 72
0
 73
0
 74
0
 75
0
 76
0
 77
1
 78
8
 79
3
170
0
171
3
172
1
173
0
174
0
175
0
176
0
177
0
178
0
179
2
271
2
272
2
273
2
274
3
275
0
276
0
277
2
278
44
279
0
280
0
281
0
282
0
283
0
284
8
285
0
286
0
288
0
289
3
290
0
371
-2
372
-2
  0
ENDTAB
  0
TABLE
  2
BLOCK_RECORD
  5
9
330
0
100
AcDbSymbolTable
 70
2
  0
BLOCK_RECORD
  5
17
330
9
100
AcDbSymbolTableRecord
100
AcDbBlockTableRecord
  2
*Model_Space
340
1A
 70
0
280
1
281
0
  0
BLOCK_RECORD
  5
1B
330
9
100
AcDbSymbolTableRecord
100
AcDbBlockTableRecord
  2
*Paper_Space
340
1E
 70
0
280
1
281
0
  0
ENDTAB
  0
ENDSEC
  0
SECTION
  2
BLOCKS
  0
BLOCK
  5
18
330
17
100
AcDbEntity
  8
0
100
AcDbBlockBegin
  2
*Model_Space
 70
0
 10
0.0
 20
0.0
 30
0.0
  3
*Model_Space
  1

  0
ENDBLK
  5
19
330
17
100
AcDbEntity
  8
0
100
AcDbBlockEnd
  0
BLOCK
  5
1C
330
1B
100
AcDbEntity
  8
0
100
AcDbBlockBegin
  2
*Paper_Space
 70
0
 10
0.0
 20
0.0
 30
0.0
  3
*Paper_Space
  1

  0
ENDBLK
  5
1D
330
1B
100
AcDbEntity
  8
0
100
AcDbBlockEnd
  0
ENDSEC
  0
SECTION
  2
ENTITIES
  0
LWPOLYLINE
  5
2F
330
17
100
AcDbEntity
  8
0
100
AcDbPolyline
 90
92
 70
0
 10
2020.2919421000001
 20
1922.5314911000003
 10
2028.9899406237123
 20
1834.319516002344
 10
2030.9746274752138
 20
1826.7808349720706
 10
2031.9192251963136
 20
1819.0427215687503
 10
2031.806300620508
 20
1811.247998058008
 10
2030.6379422945497
 20
1803.5405166737307
 10
2029.8575720591066
 20
1799.5870407215823
 10
2028.5867032808778
 20
1795.7629593006839
 10
2026.8454704088686
 20
1792.128811656641
 10
2024.661468009424
 20
1788.742237865137
 10
2022.0693025393007
 20
1785.6568725697268
 10
2019.1100535196779
 20
1782.921582042383
 10
2015.8306107325075
 20
1780.5797775379885
 10
2008.1954861169233
 20
1776.3151600354438
 10
1996.4401473626183
 20
1768.5249116516784
 10
1989.1219410700319
 20
1762.5845153919925
 10
1984.9074921411989
 20
1756.6237075916995
 10
1981.543940047693
 20
1750.1445205799807
 10
1981.4838537973878
 20
1647.6735885731448
 10
1982.27240417428
 20
1644.4567688099612
 10
1983.5826573175905
 20
1641.4148910633792
 10
1985.378454665613
 20
1638.6319549671878
 10
1987.610219459009
 20
1636.1847122303714
 10
1990.216363410425
 20
1634.1407592884768
 10
1996.2188467783449
 20
1631.400814830469
 10
2002.5908455652711
 20
1629.6723373524417
 10
2012.4259886545656
 20
1628.5805709950198
 10
2019.0219411653993
 20
1628.869534312891
 10
2033.8861188692567
 20
1630.0469024769534
 10
2038.8470184059838
 20
1629.9658832321645
 10
2048.7759414715288
 20
1629.2575271717776
 10
2053.3680040044305
 20
1627.3349197499026
 10
2057.7031234865603
 20
1624.8874481312503
 10
2063.5945275825975
 20
1620.3077133290042
 10
2065.3679415983675
 20
1618.5595138661135
 10
2069.0931532186983
 20
1610.4218872181643
 10
2074.168942908716
 20
1603.0507095448245
 10
2080.442498664331
 20
1596.6678436390628
 10
2087.724941710901
 20
1591.465512096094
 10
2095.1779780191896
 20
1589.9039276234378
 10
2102.7611717981813
 20
1589.2100341908206
 10
2110.3738484186647
 20
1589.3930252186526
 10
2117.9149422449586
 20
1590.4505355946292
 10
2169.9587664408205
 20
1595.3781707875003
 10
2222.0899424356935
 20
1599.2745025746096
 10
2371.602939109277
 20
1599.2745025746096
 10
2396.056456433529
 20
1598.2610651517346
 10
2410.61737392373
 20
1596.8227966419925
 10
2425.043582841115
 20
1594.3787003519385
 10
2454.491504172754
 20
1587.8991134754885
 10
2460.1698717875
 20
1587.6875122181643
 10
2465.82001064248
 20
1588.2910354725589
 10
2471.3255724710934
 20
1589.6972854725589
 10
2476.5730700296876
 20
1591.877232371973
 10
2481.454394797754
 20
1594.7860153309573
 10
2485.8690295023434
 20
1598.3636673084964
 10
2489.725955466699
 20
1602.536526500391
 10
2498.4359392923825
 20
1623.0835159413089
 10
2498.435939292382
 20
1928.3325012318362
 10
2498.9999422831047
 20
1937.7991302601565
 10
2497.8060183329094
 20
1947.2070129505862
 10
2494.895328025292
 20
1956.2326629750003
 10
2490.3679308695305
 20
1964.5654876820315
 10
2480.853923301171
 20
1972.0033844105471
 10
2470.264399985742
 20
1977.8086670033206
 10
2458.8769182962883
 20
1981.8291290394534
 10
2446.9899401468747
 20
1983.9594848744143
 10
2433.3783001366005
 20
1986.2963176927285
 10
2396.953520190087
 20
1991.5451605155777
 10
2364.8799357218254
 20
1994.5765503041018
 10
2162.1478209299553
 20
1998.99992066543
 10
2156.2213644785393
 20
1997.9611786000003
 10
2150.460723380517
 20
1996.224270641016
 10
2144.947818259667
 20
1993.813916026758
 10
2142.308944205712
 20
1992.3665435902346
 10
2133.1700405878532
 20
1983.2667358509768
 10
2120.492003898095
 20
1968.4343536488284
 10
2115.5020603937614
 20
1964.0855224720706
 10
2110.025490264367
 20
1960.368099986719
 10
2104.1417393488396
 20
1957.3360260121096
 10
2097.936147193383
 20
1955.0333221546878
 10
2091.4987335009087
 20
1953.493328868555
 10
2084.92287013955
 20
1952.7384002796878
 10
2074.0519720626116
 20
1952.7080478427556
 10
2057.1350285740014
 20
1951.5267326195876
 10
2039.835650662851
 20
1948.1874664417971
 10
2035.3584394258974
 20
1946.2366302601565
 10
2031.2748226923463
 20
1943.5579498402346
 10
2027.702022532892
 20
1940.2282531849612
 10
2024.7425946993349
 20
1936.3432891957034
 10
2022.481485347223
 20
1932.0144470326175
 10
2020.9836015505311
 20
1927.3660858265628
  0
CIRCLE
  5
30
330
17
100
AcDbEntity
  8
0
100
AcDbCircle
 10
2452.2799334330075
 20
1665.2655227772464
 30
0.0
 40
14.50000047683716
  0
CIRCLE
  5
31
330
17
100
AcDbEntity
  8
0
100
AcDbCircle
 10
2454.330943564843
 20
1904.11954957168
 30
0.0
 40
14.50000047683716
  0
POINT
  5
32
330
17
100
AcDbEntity
  8
3
 62
7
100
AcDbPoint
 10
2030.1104507250307
 20
1830.583935558008
 30
0.0
  0
POINT
  5
34
330
17
100
AcDbEntity
  8
3
 62
7
100
AcDbPoint
 10
2030.9746274752138
 20
1826.7808349720706
 30
0.0
  0
POINT
  5
35
330
17
100
AcDbEntity
  8
3
 62
7
100
AcDbPoint
 10
2031.5784821314332
 20
1822.9278381458987
 30
0.0
  0
POINT
  5
36
330
17
100
AcDbEntity
  8
3
 62
7
100
AcDbPoint
 10
2031.9192251963136
 20
1819.0427215687503
 30
0.0
  0
POINT
  5
37
330
17
100
AcDbEntity
  8
3
 62
7
100
AcDbPoint
 10
2031.9952831072328
 20
1815.1434524647464
 30
0.0
  0
POINT
  5
38
330
17
100
AcDbEntity
  8
3
 62
7
100
AcDbPoint
 10
2031.806300620508
 20
1811.247998058008
 30
0.0
  0
POINT
  5
39
330
17
100
AcDbEntity
  8
3
 62
7
100
AcDbPoint
 10
2031.353157500696
 20
1807.3744018666018
 30
0.0
  0
POINT
  5
3A
330
17
100
AcDbEntity
  8
3
 62
7
100
AcDbPoint
 10
2029.8575720591066
 20
1799.5870407215823
 30
0.0
  0
POINT
  5
3B
330
17
100
AcDbEntity
  8
3
 62
7
100
AcDbPoint
 10
2028.5867032808778
 20
1795.7629593006839
 30
0.0
  0
POINT
  5
3C
330
17
100
AcDbEntity
  8
3
 62
7
100
AcDbPoint
 10
2026.8454704088686
 20
1792.128811656641
 30
0.0
  0
POINT
  5
3D
330
17
100
AcDbEntity
  8
3
 62
7
100
AcDbPoint
 10
2024.661468009424
 20
1788.742237865137
 30
0.0
  0
POINT
  5
3E
330
17
100
AcDbEntity
  8
3
 62
7
100
AcDbPoint
 10
2022.0693025393007
 20
1785.6568725697268
 30
0.0
  0
POINT
  5
3F
330
17
100
AcDbEntity
  8
3
 62
7
100
AcDbPoint
 10
2019.1100535196779
 20
1782.921582042383
 30
0.0
  0
POINT
  5
40
330
17
100
AcDbEntity
  8
3
 62
7
100
AcDbPoint
 10
2015.8306107325075
 20
1780.5797775379885
 30
0.0
  0
POINT
  5
41
330
17
100
AcDbEntity
  8
3
 62
7
100
AcDbPoint
 10
2000.2303776545045
 20
1771.3062866322268
 30
0.0
  0
POINT
  5
42
330
17
100
AcDbEntity
  8
3
 62
7
100
AcDbPoint
 10
1984.9074921411989
 20
1756.6237075916995
 30
0.0
  0
POINT
  5
43
330
17
100
AcDbEntity
  8
3
 62
7
100
AcDbPoint
 10
1981.2387785715578
 20
1650.9765442005862
 30
0.0
  0
POINT
  5
44
330
17
100
AcDbEntity
  8
3
 62
7
100
AcDbPoint
 10
1981.4838537973878
 20
1647.6735885731448
 30
0.0
  0
POINT
  5
45
330
17
100
AcDbEntity
  8
3
 62
7
100
AcDbPoint
 10
1982.27240417428
 20
1644.4567688099612
 30
0.0
  0
POINT
  5
46
330
17
100
AcDbEntity
  8
3
 62
7
100
AcDbPoint
 10
1983.5826573175905
 20
1641.4148910633792
 30
0.0
  0
POINT
  5
47
330
17
100
AcDbEntity
  8
3
 62
7
100
AcDbPoint
 10
1985.378454665613
 20
1638.6319549671878
 30
0.0
  0
POINT
  5
48
330
17
100
AcDbEntity
  8
3
 62
7
100
AcDbPoint
 10
1987.610219459009
 20
1636.1847122303714
 30
0.0
  0
POINT
  5
49
330
17
100
AcDbEntity
  8
3
 62
7
100
AcDbPoint
 10
1990.216363410425
 20
1634.1407592884768
 30
0.0
  0
POINT
  5
4A
330
17
100
AcDbEntity
  8
3
 62
7
100
AcDbPoint
 10
1996.2188467783449
 20
1631.400814830469
 30
0.0
  0
POINT
  5
4B
330
17
100
AcDbEntity
  8
3
 62
7
100
AcDbPoint
 10
1999.3781647486207
 20
1630.4382141224612
 30
0.0
  0
POINT
  5
4C
330
17
100
AcDbEntity
  8
3
 62
7
100
AcDbPoint
 10
2002.5908455652711
 20
1629.6723373524417
 30
0.0
  0
POINT
  5
4D
330
17
100
AcDbEntity
  8
3
 62
7
100
AcDbPoint
 10
2009.1272148890016
 20
1628.7417419544925
 30
0.0
  0
POINT
  5
4E
330
17
100
AcDbEntity
  8
3
 62
7
100
AcDbPoint
 10
2012.4259886545656
 20
1628.5805709950198
 30
0.0
  0
POINT
  5
4F
330
17
100
AcDbEntity
  8
3
 62
7
100
AcDbPoint
 10
2015.7284292978761
 20
1628.6232193104495
 30
0.0
  0
POINT
  5
50
330
17
100
AcDbEntity
  8
3
 62
7
100
AcDbPoint
 10
2033.8861188692567
 20
1630.0469024769534
 30
0.0
  0
POINT
  5
51
330
17
100
AcDbEntity
  8
3
 62
7
100
AcDbPoint
 10
2051.100208501291
 20
1628.3636673084964
 30
0.0
  0
POINT
  5
52
330
17
100
AcDbEntity
  8
3
 62
7
100
AcDbPoint
 10
2053.3680040044305
 20
1627.3349197499026
 30
0.0
  0
POINT
  5
53
330
17
100
AcDbEntity
  8
3
 62
7
100
AcDbPoint
 10
2057.7031234865603
 20
1624.8874481312503
 30
0.0
  0
POINT
  5
54
330
17
100
AcDbEntity
  8
3
 62
7
100
AcDbPoint
 10
2061.721560995054
 20
1621.9488342396487
 30
0.0
  0
POINT
  5
55
330
17
100
AcDbEntity
  8
3
 62
7
100
AcDbPoint
 10
2063.5945275825975
 20
1620.3077133290042
 30
0.0
  0
POINT
  5
56
330
17
100
AcDbEntity
  8
3
 62
7
100
AcDbPoint
 10
2067.0537165207384
 20
1614.4097717396487
 30
0.0
  0
POINT
  5
57
330
17
100
AcDbEntity
  8
3
 62
7
100
AcDbPoint
 10
2069.0931532186983
 20
1610.4218872181643
 30
0.0
  0
POINT
  5
58
330
17
100
AcDbEntity
  8
3
 62
7
100
AcDbPoint
 10
2071.4708719057558
 20
1606.6259964100589
 30
0.0
  0
POINT
  5
59
330
17
100
AcDbEntity
  8
3
 62
7
100
AcDbPoint
 10
2074.168942908716
 20
1603.0507095448245
 30
0.0
  0
POINT
  5
5A
330
17
100
AcDbEntity
  8
3
 62
7
100
AcDbPoint
 10
2077.1670207781312
 20
1599.7229583851565
 30
0.0
  0
POINT
  5
5B
330
17
100
AcDbEntity
  8
3
 62
7
100
AcDbPoint
 10
2080.442498664331
 20
1596.6678436390628
 30
0.0
  0
POINT
  5
5C
330
17
100
AcDbEntity
  8
3
 62
7
100
AcDbPoint
 10
2083.970674018335
 20
1593.9084442250003
 30
0.0
  0
POINT
  5
5D
330
17
100
AcDbEntity
  8
3
 62
7
100
AcDbPoint
 10
2091.4289483828065
 20
1590.577297984766
 30
0.0
  0
POINT
  5
5E
330
17
100
AcDbEntity
  8
3
 62
7
100
AcDbPoint
 10
2095.1779780191896
 20
1589.9039276234378
 30
0.0
  0
POINT
  5
5F
330
17
100
AcDbEntity
  8
3
 62
7
100
AcDbPoint
 10
2098.959573249292
 20
1589.4476516834964
 30
0.0
  0
POINT
  5
60
330
17
100
AcDbEntity
  8
3
 62
7
100
AcDbPoint
 10
2102.7611717981813
 20
1589.2100341908206
 30
0.0
  0
POINT
  5
61
330
17
100
AcDbEntity
  8
3
 62
7
100
AcDbPoint
 10
2106.5701517862794
 20
1589.191799937891
 30
0.0
  0
POINT
  5
62
330
17
100
AcDbEntity
  8
3
 62
7
100
AcDbPoint
 10
2110.3738484186647
 20
1589.3930252186526
 30
0.0
  0
POINT
  5
63
330
17
100
AcDbEntity
  8
3
 62
7
100
AcDbPoint
 10
2114.1596398157594
 20
1589.8130615345706
 30
0.0
  0
POINT
  5
64
330
17
100
AcDbEntity
  8
3
 62
7
100
AcDbPoint
 10
2169.9587664408205
 20
1595.3781707875003
 30
0.0
  0
POINT
  5
65
330
17
100
AcDbEntity
  8
3
 62
7
100
AcDbPoint
 10
2391.1785829191804
 20
1598.5595456427732
 30
0.0
  0
POINT
  5
66
330
17
100
AcDbEntity
  8
3
 62
7
100
AcDbPoint
 10
2410.61737392373
 20
1596.8227966419925
 30
0.0
  0
POINT
  5
67
330
17
100
AcDbEntity
  8
3
 62
7
100
AcDbPoint
 10
2425.043582841115
 20
1594.3787003519385
 30
0.0
  0
POINT
  5
68
330
17
100
AcDbEntity
  8
3
 62
7
100
AcDbPoint
 10
2454.491504172754
 20
1587.8991134754885
 30
0.0
  0
POINT
  5
69
330
17
100
AcDbEntity
  8
3
 62
7
100
AcDbPoint
 10
2460.1698717875
 20
1587.6875122181643
 30
0.0
  0
POINT
  5
6A
330
17
100
AcDbEntity
  8
3
 62
7
100
AcDbPoint
 10
2465.82001064248
 20
1588.2910354725589
 30
0.0
  0
POINT
  5
6B
330
17
100
AcDbEntity
  8
3
 62
7
100
AcDbPoint
 10
2471.3255724710934
 20
1589.6972854725589
 30
0.0
  0
POINT
  5
6C
330
17
100
AcDbEntity
  8
3
 62
7
100
AcDbPoint
 10
2476.5730700296876
 20
1591.877232371973
 30
0.0
  0
POINT
  5
6D
330
17
100
AcDbEntity
  8
3
 62
7
100
AcDbPoint
 10
2481.454394797754
 20
1594.7860153309573
 30
0.0
  0
POINT
  5
6E
330
17
100
AcDbEntity
  8
3
 62
7
100
AcDbPoint
 10
2485.8690295023434
 20
1598.3636673084964
 30
0.0
  0
POINT
  5
6F
330
17
100
AcDbEntity
  8
3
 62
7
100
AcDbPoint
 10
2498.937877158593
 20
1933.0527313343753
 30
0.0
  0
POINT
  5
70
330
17
100
AcDbEntity
  8
3
 62
7
100
AcDbPoint
 10
2498.9999422831047
 20
1937.7991302601565
 30
0.0
  0
POINT
  5
71
330
17
100
AcDbEntity
  8
3
 62
7
100
AcDbPoint
 10
2498.6215624613274
 20
1942.5308044544925
 30
0.0
  0
POINT
  5
72
330
17
100
AcDbEntity
  8
3
 62
7
100
AcDbPoint
 10
2497.8060183329094
 20
1947.2070129505862
 30
0.0
  0
POINT
  5
73
330
17
100
AcDbEntity
  8
3
 62
7
100
AcDbPoint
 10
2496.560367087792
 20
1951.7874725453128
 30
0.0
  0
POINT
  5
74
330
17
100
AcDbEntity
  8
3
 62
7
100
AcDbPoint
 10
2494.895328025292
 20
1956.2326629750003
 30
0.0
  0
POINT
  5
75
330
17
100
AcDbEntity
  8
3
 62
7
100
AcDbPoint
 10
2492.8252444071286
 20
1960.5042846791018
 30
0.0
  0
POINT
  5
76
330
17
100
AcDbEntity
  8
3
 62
7
100
AcDbPoint
 10
2485.7616839212883
 20
1968.4773071400393
 30
0.0
  0
POINT
  5
77
330
17
100
AcDbEntity
  8
3
 62
7
100
AcDbPoint
 10
2480.853923301171
 20
1972.0033844105471
 30
0.0
  0
POINT
  5
78
330
17
100
AcDbEntity
  8
3
 62
7
100
AcDbPoint
 10
2475.676845054101
 20
1975.1206787220706
 30
0.0
  0
POINT
  5
79
330
17
100
AcDbEntity
  8
3
 62
7
100
AcDbPoint
 10
2470.264399985742
 20
1977.8086670033206
 30
0.0
  0
POINT
  5
7A
330
17
100
AcDbEntity
  8
3
 62
7
100
AcDbPoint
 10
2464.6521410746086
 20
1980.04972535293
 30
0.0
  0
POINT
  5
7B
330
17
100
AcDbEntity
  8
3
 62
7
100
AcDbPoint
 10
2458.8769182962883
 20
1981.8291290394534
 30
0.0
  0
POINT
  5
7C
330
17
100
AcDbEntity
  8
3
 62
7
100
AcDbPoint
 10
2452.9766115946286
 20
1983.1352813832034
 30
0.0
  0
POINT
  5
7D
330
17
100
AcDbEntity
  8
3
 62
7
100
AcDbPoint
 10
2406.087306479882
 20
1990.4463012806643
 30
0.0
  0
POINT
  5
7E
330
17
100
AcDbEntity
  8
3
 62
7
100
AcDbPoint
 10
2401.5229212505556
 20
1991.0151265536847
 30
0.0
  0
POINT
  5
7F
330
17
100
AcDbEntity
  8
3
 62
7
100
AcDbPoint
 10
2162.1478209299553
 20
1998.99992066543
 30
0.0
  0
POINT
  5
80
330
17
100
AcDbEntity
  8
3
 62
7
100
AcDbPoint
 10
2159.1690954966057
 20
1998.569012462305
 30
0.0
  0
POINT
  5
81
330
17
100
AcDbEntity
  8
3
 62
7
100
AcDbPoint
 10
2156.2213644785393
 20
1997.9611786000003
 30
0.0
  0
POINT
  5
82
330
17
100
AcDbEntity
  8
3
 62
7
100
AcDbPoint
 10
2153.3151278299797
 20
1997.17863160293
 30
0.0
  0
POINT
  5
83
330
17
100
AcDbEntity
  8
3
 62
7
100
AcDbPoint
 10
2150.460723380517
 20
1996.224270641016
 30
0.0
  0
POINT
  5
84
330
17
100
AcDbEntity
  8
3
 62
7
100
AcDbPoint
 10
2147.6683077616203
 20
1995.1013000599612
 30
0.0
  0
POINT
  5
85
330
17
100
AcDbEntity
  8
3
 62
7
100
AcDbPoint
 10
2144.947818259667
 20
1993.813916026758
 30
0.0
  0
POINT
  5
86
330
17
100
AcDbEntity
  8
3
 62
7
100
AcDbPoint
 10
2133.1700405878532
 20
1983.2667358509768
 30
0.0
  0
POINT
  5
87
330
17
100
AcDbEntity
  8
3
 62
7
100
AcDbPoint
 10
2120.492003898095
 20
1968.4343536488284
 30
0.0
  0
POINT
  5
88
330
17
100
AcDbEntity
  8
3
 62
7
100
AcDbPoint
 10
2115.5020603937614
 20
1964.0855224720706
 30
0.0
  0
POINT
  5
89
330
17
100
AcDbEntity
  8
3
 62
7
100
AcDbPoint
 10
2110.025490264367
 20
1960.368099986719
 30
0.0
  0
POINT
  5
8A
330
17
100
AcDbEntity
  8
3
 62
7
100
AcDbPoint
 10
2104.1417393488396
 20
1957.3360260121096
 30
0.0
  0
POINT
  5
8B
330
17
100
AcDbEntity
  8
3
 62
7
100
AcDbPoint
 10
2097.936147193383
 20
1955.0333221546878
 30
0.0
  0
POINT
  5
8C
330
17
100
AcDbEntity
  8
3
 62
7
100
AcDbPoint
 10
2091.4987335009087
 20
1953.493328868555
 30
0.0
  0
POINT
  5
8D
330
17
100
AcDbEntity
  8
3
 62
7
100
AcDbPoint
 10
2084.92287013955
 20
1952.7384002796878
 30
0.0
  0
POINT
  5
8E
330
17
100
AcDbEntity
  8
3
 62
7
100
AcDbPoint
 10
2061.342301408719
 20
1952.0383270375003
 30
0.0
  0
POINT
  5
8F
330
17
100
AcDbEntity
  8
3
 62
7
100
AcDbPoint
 10
2039.835650662851
 20
1948.1874664417971
 30
0.0
  0
POINT
  5
90
330
17
100
AcDbEntity
  8
3
 62
7
100
AcDbPoint
 10
2035.3584394258974
 20
1946.2366302601565
 30
0.0
  0
POINT
  5
91
330
17
100
AcDbEntity
  8
3
 62
7
100
AcDbPoint
 10
2031.2748226923463
 20
1943.5579498402346
 30
0.0
  0
POINT
  5
92
330
17
100
AcDbEntity
  8
3
 62
7
100
AcDbPoint
 10
2027.702022532892
 20
1940.2282531849612
 30
0.0
  0
POINT
  5
93
330
17
100
AcDbEntity
  8
3
 62
7
100
AcDbPoint
 10
2024.7425946993349
 20
1936.3432891957034
 30
0.0
  0
POINT
  5
94
330
17
100
AcDbEntity
  8
3
 62
7
100
AcDbPoint
 10
2022.481485347223
 20
1932.0144470326175
 30
0.0
  0
POINT
  5
95
330
17
100
AcDbEntity
  8
3
 62
7
100
AcDbPoint
 10
2020.9836015505311
 20
1927.3660858265628
 30
0.0
  0
POINT
  5
96
330
17
100
AcDbEntity
  8
2
 62
7
100
AcDbPoint
 10
2020.2919421000001
 20
1922.5314911000003
 30
0.0
  0
LWPOLYLINE
  5
98
330
17
100
AcDbEntity
  8
0
100
AcDbPolyline
 90
96
 70
0
 10
2000.6747011000004
 20
744.090829297916
 10
2002.9981862890852
 20
733.6250740744504
 10
2004.348178272852
 20
730.302873060123
 10
2007.8047899061528
 20
724.0347151011385
 10
2012.2293046766606
 20
718.4079221934238
 10
2017.5053361708012
 20
713.5704664439121
 10
2026.70465338113
 20
708.0522514769626
 10
2030.0379136854497
 20
706.7486814707677
 10
2036.9647172743169
 20
704.9438337534824
 10
2046.6079667860356
 20
703.8681272715488
 10
2056.3101533705076
 20
703.7352232188144
 10
2065.9792665296877
 20
704.5463422984044
 10
2075.523715382227
 20
706.2938169688144
 10
2099.285998707422
 20
713.3865980357091
 10
2123.3047822767576
 20
719.5553068369785
 10
2147.544131641992
 20
724.7907880991855
 10
2171.967730885156
 20
729.085183545963
 10
2196.5391115003904
 20
732.4320844859044
 10
2221.2214998060545
 20
734.8264555186191
 10
2245.9780458265623
 20
736.264787122623
 10
2270.771670704492
 20
736.7448286265294
 10
2319.4533876234373
 20
736.6286329478183
 10
2386.0574678236326
 20
738.4913877695958
 10
2403.888430958398
 20
740.546479627506
 10
2421.500430470117
 20
744.0082411021153
 10
2438.782687550195
 20
748.854813978092
 10
2448.506656056055
 20
752.9316190928381
 10
2457.702823048242
 20
758.0897001475256
 10
2466.251483326563
 20
764.2618421763342
 10
2474.041324024805
 20
771.3677076548498
 10
2480.970950489649
 20
779.314790174381
 10
2486.950030689844
 20
787.9995969981115
 10
2491.9007448011716
 20
797.3090223521154
 10
2495.758700733789
 20
807.1218351572912
 10
2498.0009684673787
 20
829.8114270572709
 10
2498.999972706445
 20
847.9814008921545
 10
2498.973340186169
 20
861.6267383574675
 10
2496.823077564844
 20
901.7622617930334
 10
2495.409350758203
 20
908.03461591901
 10
2493.344684010156
 20
914.1238645762365
 10
2488.991885548242
 20
919.4124845713537
 10
2484.025683766016
 20
924.1298155039709
 10
2473.5622743421877
 20
931.8861631602209
 10
2463.8707307630857
 20
940.5878690928381
 10
2460.540347462305
 20
947.6745847910803
 10
2457.858310108789
 20
955.0312284678381
 10
2455.846286183008
 20
962.598596021549
 10
2454.520450001367
 20
970.3158048838537
 10
2453.8914827162107
 20
978.1207517832678
 10
2453.964343433984
 20
985.9507230967444
 10
2454.73849809707
 20
993.74262373151
 10
2456.207690601953
 20
1001.4338163584631
 10
2457.444533178286
 20
1011.059031216049
 10
2458.990917447457
 20
1030.3616281357117
 10
2458.926730518945
 20
1049.754815503971
 10
2458.207278614649
 20
1056.7344907969398
 10
2456.555209522852
 20
1063.5539488047523
 10
2454.000506764063
 20
1070.0889829844398
 10
2450.589633350977
 20
1076.220879957096
 10
2446.384692555078
 20
1081.8379453867835
 10
2441.46213090957
 20
1086.8381742686195
 10
2435.9114412123045
 20
1091.1304716319007
 10
2429.83371294082
 20
1094.636865064518
 10
2308.2937196546873
 20
1163.3428434580726
 10
2298.192553883203
 20
1163.434014722721
 10
2288.1202272230466
 20
1162.6663450449867
 10
2278.1495240980466
 20
1161.045327588932
 10
2268.352694874414
 20
1158.5828642100257
 10
2256.5613893324216
 20
1152.4649290293617
 10
2244.2642549330076
 20
1147.4407438486976
 10
2231.5623811537107
 20
1143.5515073985023
 10
2218.5603669935545
 20
1140.829263135807
 10
2205.365176563867
 20
1139.2963651865882
 10
2192.0852998548826
 20
1138.9655546397132
 10
2178.8301423841795
 20
1139.8394254893226
 10
2161.4747497158505
 20
1142.499212536202
 10
2136.0099297660718
 20
1145.2956222952191
 10
2106.40109575332
 20
1146.2649778574867
 10
2098.2027772718748
 20
1145.2056364268226
 10
2090.2379182630857
 20
1142.993340894596
 10
2082.667727833398
 20
1139.67279951276
 10
2076.1789659315427
 20
1132.1090940684242
 10
2071.305423145898
 20
1123.4164671152992
 10
2068.2376817518552
 20
1113.9348081797523
 10
2067.0957139784177
 20
1104.034829542057
 10
2053.9126924330076
 20
959.914803907291
 10
2048.9769700819334
 20
955.4196409434238
 10
2043.5306886488283
 20
951.5588621348301
 10
2033.2849828379728
 20
951.3950624921509
 10
2029.9180177503908
 20
950.7480863779941
 10
2023.4063676649416
 20
948.6455015391269
 10
2017.3397401625002
 20
945.4803709238926
 10
2011.890101795801
 20
941.3422636240879
 10
2005.191171170678
 20
933.5788264373608
 10
2003.4378007704104
 20
930.6408170908848
 10
2000.6747011000004
 20
924.3808225840488
  0
POINT
  5
99
330
17
100
AcDbEntity
  8
3
 62
7
100
AcDbPoint
 10
2001.9504503065434
 20
737.047372266666
 30
0.0
  0
POINT
  5
9A
330
17
100
AcDbEntity
  8
3
 62
7
100
AcDbPoint
 10
2004.348178272852
 20
730.302873060123
 30
0.0
  0
POINT
  5
9B
330
17
100
AcDbEntity
  8
3
 62
7
100
AcDbPoint
 10
2007.8047899061528
 20
724.0347151011385
 30
0.0
  0
POINT
  5
9C
330
17
100
AcDbEntity
  8
3
 62
7
100
AcDbPoint
 10
2012.2293046766606
 20
718.4079221934238
 30
0.0
  0
POINT
  5
9D
330
17
100
AcDbEntity
  8
3
 62
7
100
AcDbPoint
 10
2017.5053361708012
 20
713.5704664439121
 30
0.0
  0
POINT
  5
9E
330
17
100
AcDbEntity
  8
3
 62
7
100
AcDbPoint
 10
2023.4940675550786
 20
709.6496443003574
 30
0.0
  0
POINT
  5
9F
330
17
100
AcDbEntity
  8
3
 62
7
100
AcDbPoint
 10
2030.0379136854497
 20
706.7486814707677
 30
0.0
  0
POINT
  5
A0
330
17
100
AcDbEntity
  8
3
 62
7
100
AcDbPoint
 10
2041.7732576185551
 20
704.288583204166
 30
0.0
  0
POINT
  5
A1
330
17
100
AcDbEntity
  8
3
 62
7
100
AcDbPoint
 10
2046.6079667860356
 20
703.8681272715488
 30
0.0
  0
POINT
  5
A2
330
17
100
AcDbEntity
  8
3
 62
7
100
AcDbPoint
 10
2051.4574388319334
 20
703.6835340708652
 30
0.0
  0
POINT
  5
A3
330
17
100
AcDbEntity
  8
3
 62
7
100
AcDbPoint
 10
2056.3101533705076
 20
703.7352232188144
 30
0.0
  0
POINT
  5
A4
330
17
100
AcDbEntity
  8
3
 62
7
100
AcDbPoint
 10
2061.1545900160154
 20
704.0230421275058
 30
0.0
  0
POINT
  5
A5
330
17
100
AcDbEntity
  8
3
 62
7
100
AcDbPoint
 10
2065.9792665296877
 20
704.5463422984044
 30
0.0
  0
POINT
  5
A6
330
17
100
AcDbEntity
  8
3
 62
7
100
AcDbPoint
 10
2070.7727769666994
 20
705.3038648814121
 30
0.0
  0
POINT
  5
A7
330
17
100
AcDbEntity
  8
3
 62
7
100
AcDbPoint
 10
2099.285998707422
 20
713.3865980357091
 30
0.0
  0
POINT
  5
A8
330
17
100
AcDbEntity
  8
3
 62
7
100
AcDbPoint
 10
2123.3047822767576
 20
719.5553068369785
 30
0.0
  0
POINT
  5
A9
330
17
100
AcDbEntity
  8
3
 62
7
100
AcDbPoint
 10
2147.544131641992
 20
724.7907880991855
 30
0.0
  0
POINT
  5
AA
330
17
100
AcDbEntity
  8
3
 62
7
100
AcDbPoint
 10
2171.967730885156
 20
729.085183545963
 30
0.0
  0
POINT
  5
AB
330
17
100
AcDbEntity
  8
3
 62
7
100
AcDbPoint
 10
2196.5391115003904
 20
732.4320844859044
 30
0.0
  0
POINT
  5
AC
330
17
100
AcDbEntity
  8
3
 62
7
100
AcDbPoint
 10
2221.2214998060545
 20
734.8264555186191
 30
0.0
  0
POINT
  5
AD
330
17
100
AcDbEntity
  8
3
 62
7
100
AcDbPoint
 10
2245.9780458265623
 20
736.264787122623
 30
0.0
  0
POINT
  5
AE
330
17
100
AcDbEntity
  8
3
 62
7
100
AcDbPoint
 10
2319.4533876234373
 20
736.6286329478183
 30
0.0
  0
POINT
  5
AF
330
17
100
AcDbEntity
  8
3
 62
7
100
AcDbPoint
 10
2377.094912891992
 20
737.9957060069006
 30
0.0
  0
POINT
  5
B0
330
17
100
AcDbEntity
  8
3
 62
7
100
AcDbPoint
 10
2386.0574678236326
 20
738.4913877695958
 30
0.0
  0
POINT
  5
B1
330
17
100
AcDbEntity
  8
3
 62
7
100
AcDbPoint
 10
2394.993319874414
 20
739.3420652598303
 30
0.0
  0
POINT
  5
B2
330
17
100
AcDbEntity
  8
3
 62
7
100
AcDbPoint
 10
2403.888430958398
 20
740.546479627506
 30
0.0
  0
POINT
  5
B3
330
17
100
AcDbEntity
  8
3
 62
7
100
AcDbPoint
 10
2412.728762989648
 20
742.1026853770178
 30
0.0
  0
POINT
  5
B4
330
17
100
AcDbEntity
  8
3
 62
7
100
AcDbPoint
 10
2421.500430470117
 20
744.0082411021153
 30
0.0
  0
POINT
  5
B5
330
17
100
AcDbEntity
  8
3
 62
7
100
AcDbPoint
 10
2430.189624195703
 20
746.2601331919592
 30
0.0
  0
POINT
  5
B6
330
17
100
AcDbEntity
  8
3
 62
7
100
AcDbPoint
 10
2448.506656056055
 20
752.9316190928381
 30
0.0
  0
POINT
  5
B7
330
17
100
AcDbEntity
  8
3
 62
7
100
AcDbPoint
 10
2457.702823048242
 20
758.0897001475256
 30
0.0
  0
POINT
  5
B8
330
17
100
AcDbEntity
  8
3
 62
7
100
AcDbPoint
 10
2466.251483326563
 20
764.2618421763342
 30
0.0
  0
POINT
  5
B9
330
17
100
AcDbEntity
  8
3
 62
7
100
AcDbPoint
 10
2474.041324024805
 20
771.3677076548498
 30
0.0
  0
POINT
  5
BA
330
17
100
AcDbEntity
  8
3
 62
7
100
AcDbPoint
 10
2480.970950489649
 20
779.314790174381
 30
0.0
  0
POINT
  5
BB
330
17
100
AcDbEntity
  8
3
 62
7
100
AcDbPoint
 10
2486.950030689844
 20
787.9995969981115
 30
0.0
  0
POINT
  5
BC
330
17
100
AcDbEntity
  8
3
 62
7
100
AcDbPoint
 10
2491.9007448011716
 20
797.3090223521154
 30
0.0
  0
POINT
  5
BD
330
17
100
AcDbEntity
  8
3
 62
7
100
AcDbPoint
 10
2497.60928705979
 20
825.2722015119249
 30
0.0
  0
POINT
  5
BE
330
17
100
AcDbEntity
  8
3
 62
7
100
AcDbPoint
 10
2498.999972706445
 20
847.9814008921545
 30
0.0
  0
POINT
  5
BF
330
17
100
AcDbEntity
  8
3
 62
7
100
AcDbPoint
 10
2498.973340186169
 20
861.6267383574675
 30
0.0
  0
POINT
  5
C0
330
17
100
AcDbEntity
  8
3
 62
7
100
AcDbPoint
 10
2497.691073780664
 20
892.1624235361975
 30
0.0
  0
POINT
  5
C1
330
17
100
AcDbEntity
  8
3
 62
7
100
AcDbPoint
 10
2497.5703004652337
 20
895.3761152476233
 30
0.0
  0
POINT
  5
C2
330
17
100
AcDbEntity
  8
3
 62
7
100
AcDbPoint
 10
2497.280688648828
 20
898.5790113657873
 30
0.0
  0
POINT
  5
C3
330
17
100
AcDbEntity
  8
3
 62
7
100
AcDbPoint
 10
2496.823077564844
 20
901.7622617930334
 30
0.0
  0
POINT
  5
C4
330
17
100
AcDbEntity
  8
3
 62
7
100
AcDbPoint
 10
2496.198687916406
 20
904.917054578678
 30
0.0
  0
POINT
  5
C5
330
17
100
AcDbEntity
  8
3
 62
7
100
AcDbPoint
 10
2495.409350758203
 20
908.03461591901
 30
0.0
  0
POINT
  5
C6
330
17
100
AcDbEntity
  8
3
 62
7
100
AcDbPoint
 10
2494.457126026758
 20
911.1063627451819
 30
0.0
  0
POINT
  5
C7
330
17
100
AcDbEntity
  8
3
 62
7
100
AcDbPoint
 10
2488.991885548242
 20
919.4124845713537
 30
0.0
  0
POINT
  5
C8
330
17
100
AcDbEntity
  8
3
 62
7
100
AcDbPoint
 10
2473.5622743421877
 20
931.8861631602209
 30
0.0
  0
POINT
  5
C9
330
17
100
AcDbEntity
  8
3
 62
7
100
AcDbPoint
 10
2460.540347462305
 20
947.6745847910803
 30
0.0
  0
POINT
  5
CA
330
17
100
AcDbEntity
  8
3
 62
7
100
AcDbPoint
 10
2457.858310108789
 20
955.0312284678381
 30
0.0
  0
POINT
  5
CB
330
17
100
AcDbEntity
  8
3
 62
7
100
AcDbPoint
 10
2455.846286183008
 20
962.598596021549
 30
0.0
  0
POINT
  5
CC
330
17
100
AcDbEntity
  8
3
 62
7
100
AcDbPoint
 10
2454.520450001367
 20
970.3158048838537
 30
0.0
  0
POINT
  5
CD
330
17
100
AcDbEntity
  8
3
 62
7
100
AcDbPoint
 10
2453.8914827162107
 20
978.1207517832678
 30
0.0
  0
POINT
  5
CE
330
17
100
AcDbEntity
  8
3
 62
7
100
AcDbPoint
 10
2453.964343433984
 20
985.9507230967444
 30
0.0
  0
POINT
  5
CF
330
17
100
AcDbEntity
  8
3
 62
7
100
AcDbPoint
 10
2454.73849809707
 20
993.74262373151
 30
0.0
  0
POINT
  5
D0
330
17
100
AcDbEntity
  8
3
 62
7
100
AcDbPoint
 10
2458.787341480859
 20
1025.5256895274085
 30
0.0
  0
POINT
  5
D1
330
17
100
AcDbEntity
  8
3
 62
7
100
AcDbPoint
 10
2458.990917447457
 20
1030.3616281357117
 30
0.0
  0
POINT
  5
D2
330
17
100
AcDbEntity
  8
3
 62
7
100
AcDbPoint
 10
2458.207278614649
 20
1056.7344907969398
 30
0.0
  0
POINT
  5
D3
330
17
100
AcDbEntity
  8
3
 62
7
100
AcDbPoint
 10
2456.555209522852
 20
1063.5539488047523
 30
0.0
  0
POINT
  5
D4
330
17
100
AcDbEntity
  8
3
 62
7
100
AcDbPoint
 10
2454.000506764063
 20
1070.0889829844398
 30
0.0
  0
POINT
  5
D5
330
17
100
AcDbEntity
  8
3
 62
7
100
AcDbPoint
 10
2450.589633350977
 20
1076.220879957096
 30
0.0
  0
POINT
  5
D6
330
17
100
AcDbEntity
  8
3
 62
7
100
AcDbPoint
 10
2446.384692555078
 20
1081.8379453867835
 30
0.0
  0
POINT
  5
D7
330
17
100
AcDbEntity
  8
3
 62
7
100
AcDbPoint
 10
2441.46213090957
 20
1086.8381742686195
 30
0.0
  0
POINT
  5
D8
330
17
100
AcDbEntity
  8
3
 62
7
100
AcDbPoint
 10
2435.9114412123045
 20
1091.1304716319007
 30
0.0
  0
POINT
  5
D9
330
17
100
AcDbEntity
  8
3
 62
7
100
AcDbPoint
 10
2303.244128590234
 20
1163.4958891123695
 30
0.0
  0
POINT
  5
DA
330
17
100
AcDbEntity
  8
3
 62
7
100
AcDbPoint
 10
2298.192553883203
 20
1163.434014722721
 30
0.0
  0
POINT
  5
DB
330
17
100
AcDbEntity
  8
3
 62
7
100
AcDbPoint
 10
2293.1482271009763
 20
1163.1572965830726
 30
0.0
  0
POINT
  5
DC
330
17
100
AcDbEntity
  8
3
 62
7
100
AcDbPoint
 10
2288.1202272230466
 20
1162.6663450449867
 30
0.0
  0
POINT
  5
DD
330
17
100
AcDbEntity
  8
3
 62
7
100
AcDbPoint
 10
2283.117633228906
 20
1161.9619230479163
 30
0.0
  0
POINT
  5
DE
330
17
100
AcDbEntity
  8
3
 62
7
100
AcDbPoint
 10
2278.1495240980466
 20
1161.045327588932
 30
0.0
  0
POINT
  5
DF
330
17
100
AcDbEntity
  8
3
 62
7
100
AcDbPoint
 10
2273.2249025160154
 20
1159.9183134287757
 30
0.0
  0
POINT
  5
E0
330
17
100
AcDbEntity
  8
3
 62
7
100
AcDbPoint
 10
2256.5613893324216
 20
1152.4649290293617
 30
0.0
  0
POINT
  5
E1
330
17
100
AcDbEntity
  8
3
 62
7
100
AcDbPoint
 10
2244.2642549330076
 20
1147.4407438486976
 30
0.0
  0
POINT
  5
E2
330
17
100
AcDbEntity
  8
3
 62
7
100
AcDbPoint
 10
2231.5623811537107
 20
1143.5515073985023
 30
0.0
  0
POINT
  5
E3
330
17
100
AcDbEntity
  8
3
 62
7
100
AcDbPoint
 10
2218.5603669935545
 20
1140.829263135807
 30
0.0
  0
POINT
  5
E4
330
17
100
AcDbEntity
  8
3
 62
7
100
AcDbPoint
 10
2205.365176563867
 20
1139.2963651865882
 30
0.0
  0
POINT
  5
E5
330
17
100
AcDbEntity
  8
3
 62
7
100
AcDbPoint
 10
2192.0852998548826
 20
1138.9655546397132
 30
0.0
  0
POINT
  5
E6
330
17
100
AcDbEntity
  8
3
 62
7
100
AcDbPoint
 10
2178.8301423841795
 20
1139.8394254893226
 30
0.0
  0
POINT
  5
E7
330
17
100
AcDbEntity
  8
3
 62
7
100
AcDbPoint
 10
2140.266528492578
 20
1144.9797300547523
 30
0.0
  0
POINT
  5
E8
330
17
100
AcDbEntity
  8
3
 62
7
100
AcDbPoint
 10
2110.5359224134763
 20
1146.3546232432288
 30
0.0
  0
POINT
  5
E9
330
17
100
AcDbEntity
  8
3
 62
7
100
AcDbPoint
 10
2106.40109575332
 20
1146.2649778574867
 30
0.0
  0
POINT
  5
EA
330
17
100
AcDbEntity
  8
3
 62
7
100
AcDbPoint
 10
2102.2830537611326
 20
1145.8813719004554
 30
0.0
  0
POINT
  5
EB
330
17
100
AcDbEntity
  8
3
 62
7
100
AcDbPoint
 10
2098.2027772718748
 20
1145.2056364268226
 30
0.0
  0
POINT
  5
EC
330
17
100
AcDbEntity
  8
3
 62
7
100
AcDbPoint
 10
2094.1809419447263
 20
1144.241357252018
 30
0.0
  0
POINT
  5
ED
330
17
100
AcDbEntity
  8
3
 62
7
100
AcDbPoint
 10
2090.2379182630857
 20
1142.993340894596
 30
0.0
  0
POINT
  5
EE
330
17
100
AcDbEntity
  8
3
 62
7
100
AcDbPoint
 10
2086.3936952406248
 20
1141.467919752018
 30
0.0
  0
POINT
  5
EF
330
17
100
AcDbEntity
  8
3
 62
7
100
AcDbPoint
 10
2079.2358735853513
 20
1136.0517362803382
 30
0.0
  0
POINT
  5
F0
330
17
100
AcDbEntity
  8
3
 62
7
100
AcDbPoint
 10
2076.1789659315427
 20
1132.1090940684242
 30
0.0
  0
POINT
  5
F1
330
17
100
AcDbEntity
  8
3
 62
7
100
AcDbPoint
 10
2073.526797657617
 20
1127.8835539072913
 30
0.0
  0
POINT
  5
F2
330
17
100
AcDbEntity
  8
3
 62
7
100
AcDbPoint
 10
2071.305423145898
 20
1123.4164671152992
 30
0.0
  0
POINT
  5
F3
330
17
100
AcDbEntity
  8
3
 62
7
100
AcDbPoint
 10
2069.536624317773
 20
1118.751626417057
 30
0.0
  0
POINT
  5
F4
330
17
100
AcDbEntity
  8
3
 62
7
100
AcDbPoint
 10
2068.2376817518552
 20
1113.9348081797523
 30
0.0
  0
POINT
  5
F5
330
17
100
AcDbEntity
  8
3
 62
7
100
AcDbPoint
 10
2067.421374683984
 20
1109.013085767643
 30
0.0
  0
POINT
  5
F6
330
17
100
AcDbEntity
  8
3
 62
7
100
AcDbPoint
 10
2048.9769700819334
 20
955.4196409434238
 30
0.0
  0
POINT
  5
F7
330
17
100
AcDbEntity
  8
3
 62
7
100
AcDbPoint
 10
2036.690135365137
 20
951.7284635752598
 30
0.0
  0
POINT
  5
F8
330
17
100
AcDbEntity
  8
3
 62
7
100
AcDbPoint
 10
2029.9180177503908
 20
950.7480863779941
 30
0.0
  0
POINT
  5
F9
330
17
100
AcDbEntity
  8
3
 62
7
100
AcDbPoint
 10
2023.4063676649416
 20
948.6455015391269
 30
0.0
  0
POINT
  5
FA
330
17
100
AcDbEntity
  8
3
 62
7
100
AcDbPoint
 10
2017.3397401625002
 20
945.4803709238926
 30
0.0
  0
POINT
  5
FB
330
17
100
AcDbEntity
  8
3
 62
7
100
AcDbPoint
 10
2011.890101795801
 20
941.3422636240879
 30
0.0
  0
POINT
  5
FC
330
17
100
AcDbEntity
  8
3
 62
7
100
AcDbPoint
 10
2007.2119096571291
 20
936.3485960215488
 30
0.0
  0
POINT
  5
FD
330
17
100
AcDbEntity
  8
3
 62
7
100
AcDbPoint
 10
2003.4378007704104
 20
930.6408170908848
 30
0.0
  0
POINT
  5
FE
330
17
100
AcDbEntity
  8
2
 62
7
100
AcDbPoint
 10
2053.9126924330076
 20
959.914803907291
 30
0.0
  0
POINT
  5
FF
330
17
100
AcDbEntity
  8
2
 62
7
100
AcDbPoint
 10
2043.5306886488283
 20
951.5588621348301
 30
0.0
  0
LWPOLYLINE
  5
100
330
17
100
AcDbEntity
  8
0
100
AcDbPolyline
 90
95
 70
0
 10
2499.0000001000003
 20
1176.720055138998
 10
2499.0000001000003
 20
1357.010048425131
 10
2494.483530132369
 20
1366.2080570736275
 10
2492.4627915428714
 20
1368.9778266310025
 10
2487.7845994041995
 20
1373.9714942335415
 10
2482.3349610375003
 20
1378.1096015333462
 10
2476.268333535059
 20
1381.2747321485806
 10
2466.389698717686
 20
1384.0242902877528
 10
2462.9845658348636
 20
1384.3576941847134
 10
2456.1439744041995
 20
1384.1880927442837
 10
2450.6977311180667
 20
1388.0488715528775
 10
2445.76197062002
 20
1392.5440345167447
 10
2431.437019448145
 20
1546.564034020834
 10
2428.369239907129
 20
1556.045692956381
 10
2423.4957352684573
 20
1564.738319909506
 10
2417.006935219629
 20
1572.3020253538418
 10
2409.4367447899417
 20
1575.6225667356778
 10
2401.4718857811527
 20
1577.8348622679043
 10
2393.2735672997073
 20
1578.8942036985684
 10
2385.0079575584964
 20
1578.7790761350918
 10
2359.4081345604495
 20
1577.608955895834
 10
2355.1577294462
 20
1577.2183414526212
 10
2307.589363198145
 20
1571.594780480795
 10
2294.3094864891605
 20
1571.92559102767
 10
2281.114296059473
 20
1573.4584889768887
 10
2268.1122818993167
 20
1576.180733239584
 10
2255.41040812002
 20
1580.0699696897793
 10
2243.113273720606
 20
1585.0941548704434
 10
2231.3219681786136
 20
1591.2120900511075
 10
2221.525138954981
 20
1593.6745534300137
 10
2211.554435829981
 20
1595.2955708860684
 10
2201.4821091698245
 20
1596.0632405638028
 10
2191.38094339834
 20
1595.9720692991543
 10
2063.7632218407225
 20
1523.7596974729825
 10
2058.212532143457
 20
1519.4674048780728
 10
2053.28997049795
 20
1514.4671759962368
 10
2049.0850297020506
 20
1508.8501105665493
 10
2045.6741562889652
 20
1502.718213593893
 10
2043.119453530176
 20
1496.1831794142056
 10
2041.467384438379
 20
1489.363721406393
 10
2040.747932534082
 20
1482.3840437292386
 10
2040.59870696384
 20
1472.6808589871027
 10
2041.227552698147
 20
1453.3266564817507
 10
2043.466972451075
 20
1434.0630445837307
 10
2044.936164955957
 20
1426.3718519567776
 10
2045.710319619043
 20
1418.579951322012
 10
2045.7831803368172
 20
1410.7499800085354
 10
2045.1542130516611
 20
1402.9450354933072
 10
2043.82837687002
 20
1395.2278266310025
 10
2041.816352944239
 20
1387.6604590772915
 10
2039.134315590723
 20
1380.3038154005337
 10
2035.8039322899422
 20
1373.2170997022915
 10
2026.1123887108402
 20
1364.5153937696743
 10
2015.648979287012
 20
1356.7590413450528
 10
2010.6827775047861
 20
1352.0417104124356
 10
2006.329979042872
 20
1346.7530904173184
 10
2004.265312294825
 20
1340.6638417600918
 10
2002.8515854881841
 20
1334.3914876341153
 10
2002.104362587793
 20
1328.005341088705
 10
2000.674690346582
 20
1280.6106267332364
 10
2001.3293232940011
 20
1266.980967748157
 10
2003.915962319239
 20
1239.751060998373
 10
2007.773918251856
 20
1229.9382481931973
 10
2012.7246323631841
 20
1220.6288228391934
 10
2018.703712563379
 20
1211.944016015463
 10
2025.633339028223
 20
1203.9969334959317
 10
2033.4231797264652
 20
1196.891068017416
 10
2041.9718400047861
 20
1190.7189259886075
 10
2051.1680069969725
 20
1185.56084493392
 10
2060.891975502832
 20
1181.4840398191739
 10
2078.174232582911
 20
1176.6374669431973
 10
2095.7862320946288
 20
1173.175705468588
 10
2113.617195229395
 20
1171.1206136106778
 10
2131.554969887598
 20
1170.485046899252
 10
2180.22127542959
 20
1169.2578587889004
 10
2228.9029923485355
 20
1169.3740544676114
 10
2253.696617226465
 20
1168.894012963705
 10
2278.453163246973
 20
1167.4556813597012
 10
2303.135551552637
 20
1165.0613103269864
 10
2327.7069321678714
 20
1161.714409387045
 10
2352.1305314110355
 20
1157.4200139402676
 10
2376.36988077627
 20
1152.1845326780606
 10
2400.388664345606
 20
1146.015823876791
 10
2428.901924233301
 20
1137.9330907224942
 10
2438.520073037012
 20
1136.652267968588
 10
2448.2172623680667
 20
1136.3127599119473
 10
2457.901405434473
 20
1136.917809045248
 10
2462.709983925684
 20
1137.5730595945645
 10
2472.9700270386547
 20
1140.681480325549
 10
2476.1805954979495
 20
1142.2788701414395
 10
2482.1693650291995
 20
1146.1996922849942
 10
2487.44539652334
 20
1151.037148034506
 10
2491.869911293848
 20
1156.6639409422207
 10
2496.676514887282
 20
1166.25429995406
 10
2497.7242508934573
 20
1169.676598107748
  0
POINT
  5
101
330
17
100
AcDbEntity
  8
3
 62
7
100
AcDbPoint
 10
2496.23690042959
 20
1363.2700477003384
 30
0.0
  0
POINT
  5
102
330
17
100
AcDbEntity
  8
3
 62
7
100
AcDbPoint
 10
2492.4627915428714
 20
1368.9778266310025
 30
0.0
  0
POINT
  5
103
330
17
100
AcDbEntity
  8
3
 62
7
100
AcDbPoint
 10
2487.7845994041995
 20
1373.9714942335415
 30
0.0
  0
POINT
  5
104
330
17
100
AcDbEntity
  8
3
 62
7
100
AcDbPoint
 10
2482.3349610375003
 20
1378.1096015333462
 30
0.0
  0
POINT
  5
105
330
17
100
AcDbEntity
  8
3
 62
7
100
AcDbPoint
 10
2476.268333535059
 20
1381.2747321485806
 30
0.0
  0
POINT
  5
106
330
17
100
AcDbEntity
  8
3
 62
7
100
AcDbPoint
 10
2469.756645302637
 20
1383.3773169874478
 30
0.0
  0
POINT
  5
107
330
17
100
AcDbEntity
  8
3
 62
7
100
AcDbPoint
 10
2462.9845658348636
 20
1384.3576941847134
 30
0.0
  0
POINT
  5
108
330
17
100
AcDbEntity
  8
3
 62
7
100
AcDbPoint
 10
2450.6977311180667
 20
1388.0488715528775
 30
0.0
  0
POINT
  5
109
330
17
100
AcDbEntity
  8
3
 62
7
100
AcDbPoint
 10
2432.2532883690433
 20
1541.6423116087246
 30
0.0
  0
POINT
  5
10A
330
17
100
AcDbEntity
  8
3
 62
7
100
AcDbPoint
 10
2431.437019448145
 20
1546.564034020834
 30
0.0
  0
POINT
  5
10B
330
17
100
AcDbEntity
  8
3
 62
7
100
AcDbPoint
 10
2430.138038735254
 20
1551.3808522581387
 30
0.0
  0
POINT
  5
10C
330
17
100
AcDbEntity
  8
3
 62
7
100
AcDbPoint
 10
2428.369239907129
 20
1556.045692956381
 30
0.0
  0
POINT
  5
10D
330
17
100
AcDbEntity
  8
3
 62
7
100
AcDbPoint
 10
2426.1478653954105
 20
1560.512779748373
 30
0.0
  0
POINT
  5
10E
330
17
100
AcDbEntity
  8
3
 62
7
100
AcDbPoint
 10
2423.4957352684573
 20
1564.738319909506
 30
0.0
  0
POINT
  5
10F
330
17
100
AcDbEntity
  8
3
 62
7
100
AcDbPoint
 10
2420.438789467676
 20
1568.68096212142
 30
0.0
  0
POINT
  5
110
330
17
100
AcDbEntity
  8
3
 62
7
100
AcDbPoint
 10
2413.2809678124027
 20
1574.0971455930996
 30
0.0
  0
POINT
  5
111
330
17
100
AcDbEntity
  8
3
 62
7
100
AcDbPoint
 10
2409.4367447899417
 20
1575.6225667356778
 30
0.0
  0
POINT
  5
112
330
17
100
AcDbEntity
  8
3
 62
7
100
AcDbPoint
 10
2405.493721108301
 20
1576.8705830930996
 30
0.0
  0
POINT
  5
113
330
17
100
AcDbEntity
  8
3
 62
7
100
AcDbPoint
 10
2401.4718857811527
 20
1577.8348622679043
 30
0.0
  0
POINT
  5
114
330
17
100
AcDbEntity
  8
3
 62
7
100
AcDbPoint
 10
2397.391609291895
 20
1578.5105977415371
 30
0.0
  0
POINT
  5
115
330
17
100
AcDbEntity
  8
3
 62
7
100
AcDbPoint
 10
2393.2735672997073
 20
1578.8942036985684
 30
0.0
  0
POINT
  5
116
330
17
100
AcDbEntity
  8
3
 62
7
100
AcDbPoint
 10
2389.138740639551
 20
1578.9838490843106
 30
0.0
  0
POINT
  5
117
330
17
100
AcDbEntity
  8
3
 62
7
100
AcDbPoint
 10
2359.4081345604495
 20
1577.608955895834
 30
0.0
  0
POINT
  5
118
330
17
100
AcDbEntity
  8
3
 62
7
100
AcDbPoint
 10
2320.844520668848
 20
1572.4686513304043
 30
0.0
  0
POINT
  5
119
330
17
100
AcDbEntity
  8
3
 62
7
100
AcDbPoint
 10
2307.589363198145
 20
1571.594780480795
 30
0.0
  0
POINT
  5
11A
330
17
100
AcDbEntity
  8
3
 62
7
100
AcDbPoint
 10
2294.3094864891605
 20
1571.92559102767
 30
0.0
  0
POINT
  5
11B
330
17
100
AcDbEntity
  8
3
 62
7
100
AcDbPoint
 10
2281.114296059473
 20
1573.4584889768887
 30
0.0
  0
POINT
  5
11C
330
17
100
AcDbEntity
  8
3
 62
7
100
AcDbPoint
 10
2268.1122818993167
 20
1576.180733239584
 30
0.0
  0
POINT
  5
11D
330
17
100
AcDbEntity
  8
3
 62
7
100
AcDbPoint
 10
2255.41040812002
 20
1580.0699696897793
 30
0.0
  0
POINT
  5
11E
330
17
100
AcDbEntity
  8
3
 62
7
100
AcDbPoint
 10
2243.113273720606
 20
1585.0941548704434
 30
0.0
  0
POINT
  5
11F
330
17
100
AcDbEntity
  8
3
 62
7
100
AcDbPoint
 10
2226.449760537012
 20
1592.5475392698575
 30
0.0
  0
POINT
  5
120
330
17
100
AcDbEntity
  8
3
 62
7
100
AcDbPoint
 10
2221.525138954981
 20
1593.6745534300137
 30
0.0
  0
POINT
  5
121
330
17
100
AcDbEntity
  8
3
 62
7
100
AcDbPoint
 10
2216.5570298241214
 20
1594.591148888998
 30
0.0
  0
POINT
  5
122
330
17
100
AcDbEntity
  8
3
 62
7
100
AcDbPoint
 10
2211.554435829981
 20
1595.2955708860684
 30
0.0
  0
POINT
  5
123
330
17
100
AcDbEntity
  8
3
 62
7
100
AcDbPoint
 10
2206.526435952051
 20
1595.7865224241543
 30
0.0
  0
POINT
  5
124
330
17
100
AcDbEntity
  8
3
 62
7
100
AcDbPoint
 10
2201.4821091698245
 20
1596.0632405638028
 30
0.0
  0
POINT
  5
125
330
17
100
AcDbEntity
  8
3
 62
7
100
AcDbPoint
 10
2196.4305344627933
 20
1596.1251149534512
 30
0.0
  0
POINT
  5
126
330
17
100
AcDbEntity
  8
3
 62
7
100
AcDbPoint
 10
2063.7632218407225
 20
1523.7596974729825
 30
0.0
  0
POINT
  5
127
330
17
100
AcDbEntity
  8
3
 62
7
100
AcDbPoint
 10
2058.212532143457
 20
1519.4674048780728
 30
0.0
  0
POINT
  5
128
330
17
100
AcDbEntity
  8
3
 62
7
100
AcDbPoint
 10
2053.28997049795
 20
1514.4671759962368
 30
0.0
  0
POINT
  5
129
330
17
100
AcDbEntity
  8
3
 62
7
100
AcDbPoint
 10
2049.0850297020506
 20
1508.8501105665493
 30
0.0
  0
POINT
  5
12A
330
17
100
AcDbEntity
  8
3
 62
7
100
AcDbPoint
 10
2045.6741562889652
 20
1502.718213593893
 30
0.0
  0
POINT
  5
12B
330
17
100
AcDbEntity
  8
3
 62
7
100
AcDbPoint
 10
2043.119453530176
 20
1496.1831794142056
 30
0.0
  0
POINT
  5
12C
330
17
100
AcDbEntity
  8
3
 62
7
100
AcDbPoint
 10
2041.467384438379
 20
1489.363721406393
 30
0.0
  0
POINT
  5
12D
330
17
100
AcDbEntity
  8
3
 62
7
100
AcDbPoint
 10
2040.887321572168
 20
1458.154917752676
 30
0.0
  0
POINT
  5
12E
330
17
100
AcDbEntity
  8
3
 62
7
100
AcDbPoint
 10
2041.227552698147
 20
1453.3266564817507
 30
0.0
  0
POINT
  5
12F
330
17
100
AcDbEntity
  8
3
 62
7
100
AcDbPoint
 10
2044.936164955957
 20
1426.3718519567776
 30
0.0
  0
POINT
  5
130
330
17
100
AcDbEntity
  8
3
 62
7
100
AcDbPoint
 10
2045.710319619043
 20
1418.579951322012
 30
0.0
  0
POINT
  5
131
330
17
100
AcDbEntity
  8
3
 62
7
100
AcDbPoint
 10
2045.7831803368172
 20
1410.7499800085354
 30
0.0
  0
POINT
  5
132
330
17
100
AcDbEntity
  8
3
 62
7
100
AcDbPoint
 10
2045.1542130516611
 20
1402.9450354933072
 30
0.0
  0
POINT
  5
133
330
17
100
AcDbEntity
  8
3
 62
7
100
AcDbPoint
 10
2043.82837687002
 20
1395.2278266310025
 30
0.0
  0
POINT
  5
134
330
17
100
AcDbEntity
  8
3
 62
7
100
AcDbPoint
 10
2041.816352944239
 20
1387.6604590772915
 30
0.0
  0
POINT
  5
135
330
17
100
AcDbEntity
  8
3
 62
7
100
AcDbPoint
 10
2039.134315590723
 20
1380.3038154005337
 30
0.0
  0
POINT
  5
136
330
17
100
AcDbEntity
  8
3
 62
7
100
AcDbPoint
 10
2026.1123887108402
 20
1364.5153937696743
 30
0.0
  0
POINT
  5
137
330
17
100
AcDbEntity
  8
3
 62
7
100
AcDbPoint
 10
2010.6827775047861
 20
1352.0417104124356
 30
0.0
  0
POINT
  5
138
330
17
100
AcDbEntity
  8
3
 62
7
100
AcDbPoint
 10
2005.21753702627
 20
1343.7355885862637
 30
0.0
  0
POINT
  5
139
330
17
100
AcDbEntity
  8
3
 62
7
100
AcDbPoint
 10
2004.265312294825
 20
1340.6638417600918
 30
0.0
  0
POINT
  5
13A
330
17
100
AcDbEntity
  8
3
 62
7
100
AcDbPoint
 10
2003.475975136622
 20
1337.5462804197598
 30
0.0
  0
POINT
  5
13B
330
17
100
AcDbEntity
  8
3
 62
7
100
AcDbPoint
 10
2002.8515854881841
 20
1334.3914876341153
 30
0.0
  0
POINT
  5
13C
330
17
100
AcDbEntity
  8
3
 62
7
100
AcDbPoint
 10
2002.3939744042
 20
1331.2082372068692
 30
0.0
  0
POINT
  5
13D
330
17
100
AcDbEntity
  8
3
 62
7
100
AcDbPoint
 10
2002.104362587793
 20
1328.005341088705
 30
0.0
  0
POINT
  5
13E
330
17
100
AcDbEntity
  8
3
 62
7
100
AcDbPoint
 10
2001.983589272364
 20
1324.7916493772793
 30
0.0
  0
POINT
  5
13F
330
17
100
AcDbEntity
  8
3
 62
7
100
AcDbPoint
 10
2001.018708285306
 20
1303.359754762744
 30
0.0
  0
POINT
  5
140
330
17
100
AcDbEntity
  8
3
 62
7
100
AcDbPoint
 10
2000.674690346582
 20
1280.6106267332364
 30
0.0
  0
POINT
  5
141
330
17
100
AcDbEntity
  8
3
 62
7
100
AcDbPoint
 10
2001.3293232940011
 20
1266.980967748157
 30
0.0
  0
POINT
  5
142
330
17
100
AcDbEntity
  8
3
 62
7
100
AcDbPoint
 10
2007.773918251856
 20
1229.9382481931973
 30
0.0
  0
POINT
  5
143
330
17
100
AcDbEntity
  8
3
 62
7
100
AcDbPoint
 10
2012.7246323631841
 20
1220.6288228391934
 30
0.0
  0
POINT
  5
144
330
17
100
AcDbEntity
  8
3
 62
7
100
AcDbPoint
 10
2018.703712563379
 20
1211.944016015463
 30
0.0
  0
POINT
  5
145
330
17
100
AcDbEntity
  8
3
 62
7
100
AcDbPoint
 10
2025.633339028223
 20
1203.9969334959317
 30
0.0
  0
POINT
  5
146
330
17
100
AcDbEntity
  8
3
 62
7
100
AcDbPoint
 10
2033.4231797264652
 20
1196.891068017416
 30
0.0
  0
POINT
  5
147
330
17
100
AcDbEntity
  8
3
 62
7
100
AcDbPoint
 10
2041.9718400047861
 20
1190.7189259886075
 30
0.0
  0
POINT
  5
148
330
17
100
AcDbEntity
  8
3
 62
7
100
AcDbPoint
 10
2051.1680069969725
 20
1185.56084493392
 30
0.0
  0
POINT
  5
149
330
17
100
AcDbEntity
  8
3
 62
7
100
AcDbPoint
 10
2069.485038857325
 20
1178.889359033041
 30
0.0
  0
POINT
  5
14A
330
17
100
AcDbEntity
  8
3
 62
7
100
AcDbPoint
 10
2078.174232582911
 20
1176.6374669431973
 30
0.0
  0
POINT
  5
14B
330
17
100
AcDbEntity
  8
3
 62
7
100
AcDbPoint
 10
2086.9459000633788
 20
1174.7319112180996
 30
0.0
  0
POINT
  5
14C
330
17
100
AcDbEntity
  8
3
 62
7
100
AcDbPoint
 10
2095.7862320946288
 20
1173.175705468588
 30
0.0
  0
POINT
  5
14D
330
17
100
AcDbEntity
  8
3
 62
7
100
AcDbPoint
 10
2104.681343178614
 20
1171.9712911009121
 30
0.0
  0
POINT
  5
14E
330
17
100
AcDbEntity
  8
3
 62
7
100
AcDbPoint
 10
2113.617195229395
 20
1171.1206136106778
 30
0.0
  0
POINT
  5
14F
330
17
100
AcDbEntity
  8
3
 62
7
100
AcDbPoint
 10
2122.5797501610355
 20
1170.6249318479825
 30
0.0
  0
POINT
  5
150
330
17
100
AcDbEntity
  8
3
 62
7
100
AcDbPoint
 10
2180.22127542959
 20
1169.2578587889004
 30
0.0
  0
POINT
  5
151
330
17
100
AcDbEntity
  8
3
 62
7
100
AcDbPoint
 10
2253.696617226465
 20
1168.894012963705
 30
0.0
  0
POINT
  5
152
330
17
100
AcDbEntity
  8
3
 62
7
100
AcDbPoint
 10
2278.453163246973
 20
1167.4556813597012
 30
0.0
  0
POINT
  5
153
330
17
100
AcDbEntity
  8
3
 62
7
100
AcDbPoint
 10
2303.135551552637
 20
1165.0613103269864
 30
0.0
  0
POINT
  5
154
330
17
100
AcDbEntity
  8
3
 62
7
100
AcDbPoint
 10
2327.7069321678714
 20
1161.714409387045
 30
0.0
  0
POINT
  5
155
330
17
100
AcDbEntity
  8
3
 62
7
100
AcDbPoint
 10
2352.1305314110355
 20
1157.4200139402676
 30
0.0
  0
POINT
  5
156
330
17
100
AcDbEntity
  8
3
 62
7
100
AcDbPoint
 10
2376.36988077627
 20
1152.1845326780606
 30
0.0
  0
POINT
  5
157
330
17
100
AcDbEntity
  8
3
 62
7
100
AcDbPoint
 10
2400.388664345606
 20
1146.015823876791
 30
0.0
  0
POINT
  5
158
330
17
100
AcDbEntity
  8
3
 62
7
100
AcDbPoint
 10
2428.901924233301
 20
1137.9330907224942
 30
0.0
  0
POINT
  5
159
330
17
100
AcDbEntity
  8
3
 62
7
100
AcDbPoint
 10
2433.69539652334
 20
1137.1755681394864
 30
0.0
  0
POINT
  5
15A
330
17
100
AcDbEntity
  8
3
 62
7
100
AcDbPoint
 10
2438.520073037012
 20
1136.652267968588
 30
0.0
  0
POINT
  5
15B
330
17
100
AcDbEntity
  8
3
 62
7
100
AcDbPoint
 10
2443.36450968252
 20
1136.3644490598965
 30
0.0
  0
POINT
  5
15C
330
17
100
AcDbEntity
  8
3
 62
7
100
AcDbPoint
 10
2448.2172623680667
 20
1136.3127599119473
 30
0.0
  0
POINT
  5
15D
330
17
100
AcDbEntity
  8
3
 62
7
100
AcDbPoint
 10
2453.066734413965
 20
1136.497353112631
 30
0.0
  0
POINT
  5
15E
330
17
100
AcDbEntity
  8
3
 62
7
100
AcDbPoint
 10
2457.901405434473
 20
1136.917809045248
 30
0.0
  0
POINT
  5
15F
330
17
100
AcDbEntity
  8
3
 62
7
100
AcDbPoint
 10
2469.636787514551
 20
1139.3779073118496
 30
0.0
  0
POINT
  5
160
330
17
100
AcDbEntity
  8
3
 62
7
100
AcDbPoint
 10
2476.1805954979495
 20
1142.2788701414395
 30
0.0
  0
POINT
  5
161
330
17
100
AcDbEntity
  8
3
 62
7
100
AcDbPoint
 10
2482.1693650291995
 20
1146.1996922849942
 30
0.0
  0
POINT
  5
162
330
17
100
AcDbEntity
  8
3
 62
7
100
AcDbPoint
 10
2487.44539652334
 20
1151.037148034506
 30
0.0
  0
POINT
  5
163
330
17
100
AcDbEntity
  8
3
 62
7
100
AcDbPoint
 10
2491.869911293848
 20
1156.6639409422207
 30
0.0
  0
POINT
  5
164
330
17
100
AcDbEntity
  8
3
 62
7
100
AcDbPoint
 10
2495.3265229271487
 20
1162.932098901205
 30
0.0
  0
POINT
  5
165
330
17
100
AcDbEntity
  8
3
 62
7
100
AcDbPoint
 10
2497.7242508934573
 20
1169.676598107748
 30
0.0
  0
POINT
  5
166
330
17
100
AcDbEntity
  8
2
 62
7
100
AcDbPoint
 10
2456.1439744041995
 20
1384.1880927442837
 30
0.0
  0
POINT
  5
167
330
17
100
AcDbEntity
  8
2
 62
7
100
AcDbPoint
 10
2445.76197062002
 20
1392.5440345167447
 30
0.0
  0
LWPOLYLINE
  5
168
330
17
100
AcDbEntity
  8
0
100
AcDbPolyline
 90
65
 70
0
 10
2373.4139291
 20
42.03759420648042
 10
2381.3525239181154
 20
42.29626882806245
 10
2389.0863267135255
 20
44.1062663866562
 10
2396.315235252344
 20
47.39732015862886
 10
2402.7586594771974
 20
52.04167593255464
 10
2408.166526908838
 20
57.859165556578084
 10
2412.328952903711
 20
64.62392080560151
 10
2415.0844041061036
 20
72.0734523607773
 10
2416.325935478174
 20
79.91860616937103
 10
2417.4499360274904
 20
108.55885732903901
 10
2417.0669404220216
 20
137.2186015917343
 10
2432.550930137598
 20
231.7236064745468
 10
2454.7179452132814
 20
476.8766044451279
 10
2472.024940605127
 20
553.367606289534
 10
2478.4780307355395
 20
576.0281707970978
 10
2488.6181562741126
 20
617.1641333538403
 10
2498.0140153121583
 20
666.3131927324814
 10
2499.0000001144044
 20
678.6234210802597
 10
2498.6767426681154
 20
690.9688400103134
 10
2497.047943229639
 20
703.210604078917
 10
2495.601371879541
 20
708.7018607927841
 10
2493.2274857711427
 20
713.8604568316025
 10
2489.9977723312013
 20
718.5311340166611
 10
2486.0093918990724
 20
722.5733207537216
 10
2481.382392997705
 20
725.8653377367539
 10
2476.256069297754
 20
728.3081077410263
 10
2470.7846871566408
 20
729.8281215502304
 10
2465.1329270553224
 20
730.3796027971787
 10
2188.8986639127443
 20
730.3800834180988
 10
2179.7677237101775
 20
728.5744626771249
 10
2171.020189918581
 20
725.4227813360521
 10
2162.8551575345837
 20
720.9647942617046
 10
2155.4740297930903
 20
715.3104695491
 10
2149.017905390302
 20
708.6057836443005
 10
2146.2200943183534
 20
704.8909591509383
 10
2141.484936828577
 20
696.8856071306747
 10
2124.3385544967286
 20
672.7277587725204
 10
2106.588935012781
 20
649.0096067263167
 10
2076.4422360610597
 20
620.5406974627059
 10
2047.0399323653814
 20
591.3036071135085
 10
2040.6513444137213
 20
578.8683407379668
 10
2035.023826713526
 20
566.0706435514968
 10
2030.1778451156256
 20
552.9570435358565
 10
2026.1310235213873
 20
539.5752190424483
 10
2022.8980675887701
 20
525.9738229586166
 10
2020.4907456588385
 20
512.2023032976668
 10
2018.9177933883307
 20
498.31073034539645
 10
2017.8622735160186
 20
479.38863936973684
 10
2013.1122076208187
 20
400.0120830796511
 10
2011.1291295327735
 20
350.39912726811724
 10
2010.4967168373983
 20
305.7444181779389
 10
2011.0380466235936
 20
266.0484251380785
 10
2012.8672348452103
 20
216.42538433238414
 10
2017.2659341048834
 20
137.02462423577725
 10
2018.8321660726485
 20
119.3352187971373
 10
2020.6952038955328
 20
106.19183767571865
 10
2022.4855351799854
 20
97.52809820712338
 10
2029.3759099197027
 20
72.504055388121
 10
2032.2924367141363
 20
65.54707754388262
 10
2035.9651890945074
 20
58.95795095696868
 10
2040.3485051345465
 20
52.818577177671806
 10
2042.789939994776
 20
49.94160879388274
 10
2046.0953370284674
 20
48.3944057299179
 10
2052.212118263208
 20
44.42567098870696
 10
2054.97193729397
 20
42.0375942064804
  0
CIRCLE
  5
169
330
17
100
AcDbEntity
  8
0
100
AcDbCircle
 10
2353.924926872217
 20
111.76160085931244
 30
0.0
 40
14.50000047683716
  0
CIRCLE
  5
16A
330
17
100
AcDbEntity
  8
0
100
AcDbCircle
 10
2101.9529381942384
 20
111.37459982171475
 30
0.0
 40
14.50000047683716
  0
POINT
  5
16B
330
17
100
AcDbEntity
  8
3
 62
7
100
AcDbPoint
 10
2381.3525239181154
 20
42.29626882806245
 30
0.0
  0
POINT
  5
16C
330
17
100
AcDbEntity
  8
3
 62
7
100
AcDbPoint
 10
2389.0863267135255
 20
44.1062663866562
 30
0.0
  0
POINT
  5
16D
330
17
100
AcDbEntity
  8
3
 62
7
100
AcDbPoint
 10
2396.315235252344
 20
47.39732015862886
 30
0.0
  0
POINT
  5
16E
330
17
100
AcDbEntity
  8
3
 62
7
100
AcDbPoint
 10
2402.7586594771974
 20
52.04167593255464
 30
0.0
  0
POINT
  5
16F
330
17
100
AcDbEntity
  8
3
 62
7
100
AcDbPoint
 10
2408.166526908838
 20
57.859165556578084
 30
0.0
  0
POINT
  5
170
330
17
100
AcDbEntity
  8
3
 62
7
100
AcDbPoint
 10
2412.328952903711
 20
64.62392080560151
 30
0.0
  0
POINT
  5
171
330
17
100
AcDbEntity
  8
3
 62
7
100
AcDbPoint
 10
2415.0844041061036
 20
72.0734523607773
 30
0.0
  0
POINT
  5
172
330
17
100
AcDbEntity
  8
3
 62
7
100
AcDbPoint
 10
2417.4499360274904
 20
108.55885732903901
 30
0.0
  0
POINT
  5
173
330
17
100
AcDbEntity
  8
3
 62
7
100
AcDbPoint
 10
2425.045189018213
 20
184.43238485589436
 30
0.0
  0
POINT
  5
174
330
17
100
AcDbEntity
  8
3
 62
7
100
AcDbPoint
 10
2463.302597160303
 20
515.1376842333359
 30
0.0
  0
POINT
  5
175
330
17
100
AcDbEntity
  8
3
 62
7
100
AcDbPoint
 10
2477.2101117391353
 20
571.490720275131
 30
0.0
  0
POINT
  5
176
330
17
100
AcDbEntity
  8
3
 62
7
100
AcDbPoint
 10
2485.555900688135
 20
603.377418406157
 30
0.0
  0
POINT
  5
177
330
17
100
AcDbEntity
  8
3
 62
7
100
AcDbPoint
 10
2488.6181562741126
 20
617.1641333538403
 30
0.0
  0
POINT
  5
178
330
17
100
AcDbEntity
  8
3
 62
7
100
AcDbPoint
 10
2497.0329896163576
 20
660.2145980669541
 30
0.0
  0
POINT
  5
179
330
17
100
AcDbEntity
  8
3
 62
7
100
AcDbPoint
 10
2498.0140153121583
 20
666.3131927324814
 30
0.0
  0
POINT
  5
17A
330
17
100
AcDbEntity
  8
3
 62
7
100
AcDbPoint
 10
2498.6702958297365
 20
672.4552272631211
 30
0.0
  0
POINT
  5
17B
330
17
100
AcDbEntity
  8
3
 62
7
100
AcDbPoint
 10
2499.0000001144044
 20
678.6234210802597
 30
0.0
  0
POINT
  5
17C
330
17
100
AcDbEntity
  8
3
 62
7
100
AcDbPoint
 10
2499.002136344873
 20
684.8004173113388
 30
0.0
  0
POINT
  5
17D
330
17
100
AcDbEntity
  8
3
 62
7
100
AcDbPoint
 10
2498.6767426681154
 20
690.9688400103134
 30
0.0
  0
POINT
  5
17E
330
17
100
AcDbEntity
  8
3
 62
7
100
AcDbPoint
 10
2498.0247346114747
 20
697.111332304625
 30
0.0
  0
POINT
  5
17F
330
17
100
AcDbEntity
  8
3
 62
7
100
AcDbPoint
 10
2495.601371879541
 20
708.7018607927841
 30
0.0
  0
POINT
  5
180
330
17
100
AcDbEntity
  8
3
 62
7
100
AcDbPoint
 10
2493.2274857711427
 20
713.8604568316025
 30
0.0
  0
POINT
  5
181
330
17
100
AcDbEntity
  8
3
 62
7
100
AcDbPoint
 10
2489.9977723312013
 20
718.5311340166611
 30
0.0
  0
POINT
  5
182
330
17
100
AcDbEntity
  8
3
 62
7
100
AcDbPoint
 10
2486.0093918990724
 20
722.5733207537216
 30
0.0
  0
POINT
  5
183
330
17
100
AcDbEntity
  8
3
 62
7
100
AcDbPoint
 10
2481.382392997705
 20
725.8653377367539
 30
0.0
  0
POINT
  5
184
330
17
100
AcDbEntity
  8
3
 62
7
100
AcDbPoint
 10
2476.256069297754
 20
728.3081077410263
 30
0.0
  0
POINT
  5
185
330
17
100
AcDbEntity
  8
3
 62
7
100
AcDbPoint
 10
2470.7846871566408
 20
729.8281215502304
 30
0.0
  0
POINT
  5
186
330
17
100
AcDbEntity
  8
3
 62
7
100
AcDbPoint
 10
2193.536411876642
 20
730.7249664141219
 30
0.0
  0
POINT
  5
187
330
17
100
AcDbEntity
  8
3
 62
7
100
AcDbPoint
 10
2184.2982605647676
 20
729.6460841967147
 30
0.0
  0
POINT
  5
188
330
17
100
AcDbEntity
  8
3
 62
7
100
AcDbPoint
 10
2175.3334391665094
 20
727.168304808287
 30
0.0
  0
POINT
  5
189
330
17
100
AcDbEntity
  8
3
 62
7
100
AcDbPoint
 10
2166.8524864863984
 20
723.3498119188827
 30
0.0
  0
POINT
  5
18A
330
17
100
AcDbEntity
  8
3
 62
7
100
AcDbPoint
 10
2159.0545788955324
 20
718.2802890612166
 30
0.0
  0
POINT
  5
18B
330
17
100
AcDbEntity
  8
3
 62
7
100
AcDbPoint
 10
2152.122850770914
 20
712.0787929369491
 30
0.0
  0
POINT
  5
18C
330
17
100
AcDbEntity
  8
3
 62
7
100
AcDbPoint
 10
2146.2200943183534
 20
704.8909591509383
 30
0.0
  0
POINT
  5
18D
330
17
100
AcDbEntity
  8
3
 62
7
100
AcDbPoint
 10
2124.3385544967286
 20
672.7277587725204
 30
0.0
  0
POINT
  5
18E
330
17
100
AcDbEntity
  8
3
 62
7
100
AcDbPoint
 10
2076.4422360610597
 20
620.5406974627059
 30
0.0
  0
POINT
  5
18F
330
17
100
AcDbEntity
  8
3
 62
7
100
AcDbPoint
 10
2040.6513444137213
 20
578.8683407379668
 30
0.0
  0
POINT
  5
190
330
17
100
AcDbEntity
  8
3
 62
7
100
AcDbPoint
 10
2035.023826713526
 20
566.0706435514968
 30
0.0
  0
POINT
  5
191
330
17
100
AcDbEntity
  8
3
 62
7
100
AcDbPoint
 10
2030.1778451156256
 20
552.9570435358565
 30
0.0
  0
POINT
  5
192
330
17
100
AcDbEntity
  8
3
 62
7
100
AcDbPoint
 10
2026.1310235213873
 20
539.5752190424483
 30
0.0
  0
POINT
  5
193
330
17
100
AcDbEntity
  8
3
 62
7
100
AcDbPoint
 10
2022.8980675887701
 20
525.9738229586166
 30
0.0
  0
POINT
  5
194
330
17
100
AcDbEntity
  8
3
 62
7
100
AcDbPoint
 10
2020.4907456588385
 20
512.2023032976668
 30
0.0
  0
POINT
  5
195
330
17
100
AcDbEntity
  8
3
 62
7
100
AcDbPoint
 10
2018.9177933883307
 20
498.31073034539645
 30
0.0
  0
POINT
  5
196
330
17
100
AcDbEntity
  8
3
 62
7
100
AcDbPoint
 10
2013.8977022458803
 20
414.8954655846001
 30
0.0
  0
POINT
  5
197
330
17
100
AcDbEntity
  8
3
 62
7
100
AcDbPoint
 10
2011.4327342735887
 20
360.3219645309175
 30
0.0
  0
POINT
  5
198
330
17
100
AcDbEntity
  8
3
 62
7
100
AcDbPoint
 10
2010.5010834884283
 20
310.70622671380465
 30
0.0
  0
POINT
  5
199
330
17
100
AcDbEntity
  8
3
 62
7
100
AcDbPoint
 10
2010.9190727740602
 20
271.0105600245723
 30
0.0
  0
POINT
  5
19A
330
17
100
AcDbEntity
  8
3
 62
7
100
AcDbPoint
 10
2012.6395798169015
 20
221.3878067819313
 30
0.0
  0
POINT
  5
19B
330
17
100
AcDbEntity
  8
3
 62
7
100
AcDbPoint
 10
2017.9775317669933
 20
128.16707237800932
 30
0.0
  0
POINT
  5
19C
330
17
100
AcDbEntity
  8
3
 62
7
100
AcDbPoint
 10
2020.6952038955328
 20
106.19183767571865
 30
0.0
  0
POINT
  5
19D
330
17
100
AcDbEntity
  8
3
 62
7
100
AcDbPoint
 10
2022.4855351799854
 20
97.52809820712338
 30
0.0
  0
POINT
  5
19E
330
17
100
AcDbEntity
  8
3
 62
7
100
AcDbPoint
 10
2029.3759099197027
 20
72.504055388121
 30
0.0
  0
POINT
  5
19F
330
17
100
AcDbEntity
  8
3
 62
7
100
AcDbPoint
 10
2030.7371560287115
 20
68.98488271966399
 30
0.0
  0
POINT
  5
1A0
330
17
100
AcDbEntity
  8
3
 62
7
100
AcDbPoint
 10
2032.2924367141363
 20
65.54707754388262
 30
0.0
  0
POINT
  5
1A1
330
17
100
AcDbEntity
  8
3
 62
7
100
AcDbPoint
 10
2034.0369263839361
 20
62.20128286614837
 30
0.0
  0
POINT
  5
1A2
330
17
100
AcDbEntity
  8
3
 62
7
100
AcDbPoint
 10
2035.9651890945074
 20
58.95795095696868
 30
0.0
  0
POINT
  5
1A3
330
17
100
AcDbEntity
  8
3
 62
7
100
AcDbPoint
 10
2038.0712262344
 20
55.827114470152274
 30
0.0
  0
POINT
  5
1A4
330
17
100
AcDbEntity
  8
3
 62
7
100
AcDbPoint
 10
2040.3485051345465
 20
52.818577177671806
 30
0.0
  0
POINT
  5
1A5
330
17
100
AcDbEntity
  8
3
 62
7
100
AcDbPoint
 10
2044.4604054641363
 20
49.20594442620696
 30
0.0
  0
POINT
  5
1A6
330
17
100
AcDbEntity
  8
3
 62
7
100
AcDbPoint
 10
2046.0953370284674
 20
48.3944057299179
 30
0.0
  0
POINT
  5
1A7
330
17
100
AcDbEntity
  8
3
 62
7
100
AcDbPoint
 10
2049.2449132156007
 20
46.550571806578056
 30
0.0
  0
POINT
  5
1A8
330
17
100
AcDbEntity
  8
3
 62
7
100
AcDbPoint
 10
2052.212118263208
 20
44.42567098870696
 30
0.0
  0
POINT
  5
1A9
330
17
100
AcDbEntity
  8
3
 62
7
100
AcDbPoint
 10
2053.6194459151857
 20
43.263332731871024
 30
0.0
  0
POINT
  5
1AA
330
17
100
AcDbEntity
  8
2
 62
7
100
AcDbPoint
 10
2054.97193729397
 20
42.0375942064804
 30
0.0
  0
LWPOLYLINE
  5
1AB
330
17
100
AcDbEntity
  8
0
100
AcDbPolyline
 90
62
 70
0
 10
2443.9342406952155
 20
504.15100936358107
 10
2380.4668658836226
 20
50.98063183675943
 10
2381.5946086272866
 20
45.31368846529979
 10
2384.0942181844403
 20
40.2949163101887
 10
2388.260527523309
 20
35.41615351159654
 10
2392.3500863367353
 20
32.60233054982367
 10
2396.837158718721
 20
30.666544078165504
 10
2402.208895655319
 20
29.16706218137525
 10
2578.5606369818793
 20
6.23570867107689
 10
2611.5267715915634
 20
3.908978405847492
 10
2671.0993402047698
 20
1.000508294048921
 10
2694.211277009466
 20
1.9629359478600428
 10
2725.0449370112556
 20
4.576456472392068
 10
2775.219238397529
 20
8.656857093735544
 10
2825.553660663003
 20
13.152960642054847
 10
2835.78003132817
 20
13.709297955839657
 10
2851.580048907236
 20
12.918273942190083
 10
2858.7648139751072
 20
12.237385094713277
 10
2903.0540587413852
 20
5.764180184735005
 10
2917.3616614247603
 20
2.549784346562513
 10
2927.164735210532
 20
1.0420565959287524
 10
2933.2201923863477
 20
1.0005102602037512
 10
2937.76190521972
 20
2.381120970048724
 10
2942.857272260746
 20
6.016507167583511
 10
2946.6786995414122
 20
11.370980221452184
 10
2947.67311125819
 20
13.933419935471106
 10
2987.4294295909094
 20
287.42313392091245
 10
2987.109369730676
 20
292.8498415151119
 10
2985.418110875396
 20
297.10695648967373
 10
2983.2815748513603
 20
299.99992849696963
 10
2980.54850740114
 20
302.7170985690963
 10
2977.7530403232972
 20
304.5352236919278
 10
2973.515221219575
 20
306.036668096567
 10
2956.1980718418163
 20
309.4276083785376
 10
2947.3520804588657
 20
312.68987085431246
 10
2945.4291521488567
 20
314.7488807254935
 10
2943.1324756450485
 20
319.0389323407875
 10
2942.3101920110103
 20
323.51149374421
 10
2942.407321473142
 20
335.0916070691535
 10
2942.1726382847773
 20
339.40404401854863
 10
2941.211380574495
 20
342.8845412351007
 10
2937.365707931765
 20
349.18122014518354
 10
2933.5731659967983
 20
352.0468075170886
 10
2925.005030777692
 20
356.2038687827435
 10
2913.0072758436895
 20
359.2851672569805
 10
2839.4574636130724
 20
373.36330217420226
 10
2789.7156749130945
 20
379.7421417716519
 10
2764.004678371224
 20
385.38648536202464
 10
2740.6294250388587
 20
391.4027326729868
 10
2710.855201299129
 20
402.3502607421436
 10
2682.0338923918266
 20
416.7139402217354
 10
2650.310738352029
 20
435.19511142682967
 10
2583.830342940296
 20
484.3608361679345
 10
2545.4171832088714
 20
509.26498774281794
 10
2539.9010070796985
 20
511.65119834118997
 10
2523.595938759964
 20
516.0328206758271
 10
2472.154691771447
 20
523.5617017137172
 10
2465.782317864898
 20
523.7238356064895
 10
2458.582057412128
 20
521.7072295626641
 10
2452.9048174482177
 20
518.8049895735534
 10
2449.104466408534
 20
515.1916363313051
 10
2445.642453697564
 20
510.07428142789144
  0
LWPOLYLINE
  5
1AC
330
17
100
AcDbEntity
  8
0
100
AcDbPolyline
 90
22
 70
0
 10
2487.6481599428143
 20
454.0959545516355
 10
2491.164350951741
 20
454.1698496542524
 10
2494.4918108991524
 20
455.3483323904037
 10
2496.9916014564797
 20
457.1970021952439
 10
2499.1259752031337
 20
460.05731700054014
 10
2500.2048159519436
 20
463.0041903317533
 10
2500.427752856476
 20
466.5827666893036
 10
2499.722686487864
 20
469.63482456493796
 10
2497.9586358265906
 20
472.726288336331
 10
2495.706971689112
 20
474.8554215195575
 10
2492.549766588835
 20
476.41721269307476
 10
2489.509894661721
 20
476.9053048782316
 10
2486.024414852409
 20
476.41035450028704
 10
2483.2215432771472
 20
475.0924437476358
 10
2480.583087450926
 20
472.7084198699515
 10
2478.9622566980797
 20
470.02937817503107
 10
2478.0592427718266
 20
466.56012773922265
 10
2478.1660899270305
 20
463.4231268723769
 10
2479.3027715223056
 20
460.0370843356843
 10
2481.101235631874
 20
457.49875031236917
 10
2483.8954461636363
 20
455.33712541115744
 10
2486.7794287949537
 20
454.2536167698957
  0
LWPOLYLINE
  5
1AD
330
17
100
AcDbEntity
  8
0
100
AcDbPolyline
 90
22
 70
0
 10
2433.328553551958
 20
73.34077469831273
 10
2436.844744560885
 20
73.41466980092862
 10
2440.172204508296
 20
74.59315253708066
 10
2442.6719950656234
 20
76.44182234192063
 10
2444.8063688122775
 20
79.30213714721704
 10
2445.8852095610873
 20
82.24901047843026
 10
2446.10814646562
 20
85.82758683598071
 10
2445.4030800970077
 20
88.87964471161514
 10
2443.639029435734
 20
91.9711084830076
 10
2441.3873652982556
 20
94.10024166623414
 10
2438.230160197979
 20
95.66203283975138
 10
2435.1902882708646
 20
96.15012502490784
 10
2431.7048084615526
 20
95.65517464696394
 10
2428.901936886291
 20
94.33726389431253
 10
2426.2634810600703
 20
91.9532400166283
 10
2424.6426503072234
 20
89.27419832170797
 10
2423.7396363809703
 20
85.80494788589887
 10
2423.846483536174
 20
82.66794701905344
 10
2424.9831651314494
 20
79.28190448236133
 10
2426.781629241017
 20
76.74357045904533
 10
2429.57583977278
 20
74.58194555783406
 10
2432.4598224040974
 20
73.49843691657209
  0
LWPOLYLINE
  5
1AE
330
17
100
AcDbEntity
  8
0
100
AcDbPolyline
 90
65
 70
0
 10
2856.8309126631866
 20
1594.9843184655579
 10
2431.163715328359
 20
1595.621134941706
 10
2425.9973287829334
 20
1593.970732742831
 10
2420.9820126525537
 20
1590.885189572281
 10
2414.7304067277337
 20
1586.216418423223
 10
2412.258632447695
 20
1583.4275437313127
 10
2409.7062742082644
 20
1578.9774700132864
 10
2406.996433633246
 20
1572.9418783436429
 10
2400.4460701348785
 20
1550.0832554522194
 10
2397.758029673334
 20
1538.344588632646
 10
2396.4015440370767
 20
1526.6030965840482
 10
2396.43760800612
 20
1519.1975406171193
 10
2398.090108333542
 20
1506.6750145643143
 10
2404.813698878859
 20
1470.042163948594
 10
2409.3339649555055
 20
1440.1747620458648
 10
2412.0387355103703
 20
1363.9574681207584
 10
2415.457835308985
 20
1246.4501848031057
 10
2422.250945470652
 20
1186.8216877785035
 10
2425.982384262282
 20
1160.393811096396
 10
2433.1548826106255
 20
1116.696174561918
 10
2434.2465585104765
 20
1106.8398495164279
 10
2434.2163106683133
 20
1092.590076185382
 10
2433.0997152481846
 20
1082.3407681011347
 10
2429.4559091397646
 20
1064.6775721290749
 10
2423.1203180832927
 20
1044.3612949899268
 10
2415.687179703829
 20
1025.4507000225267
 10
2410.928929145957
 20
1015.0811958778445
 10
2395.836689343312
 20
986.868032418513
 10
2389.126210064206
 20
972.6755321435725
 10
2385.690393853347
 20
964.6351995090808
 10
2384.1061076246588
 20
958.8388732387791
 10
2382.4235815276525
 20
950.324149347013
 10
2380.4596768241263
 20
840.0315823611445
 10
2381.388078908404
 20
835.2126741977889
 10
2386.1220652946226
 20
826.7699161000104
 10
2388.5574142333408
 20
824.4992425224438
 10
2391.4431999722074
 20
822.6681277340232
 10
2394.9082539565306
 20
821.4650891287598
 10
2755.553568913209
 20
817.3022006152764
 10
2759.151727684604
 20
818.3014528544041
 10
2763.652098421022
 20
820.8091268688157
 10
2770.5995720070305
 20
826.5840005448059
 10
2788.42604358464
 20
844.9219147566762
 10
2804.974961736172
 20
865.2284949555676
 10
2808.225231309147
 20
871.7462461690143
 10
2810.27628745493
 20
879.6258466412451
 10
2810.9397294556525
 20
887.2365308484258
 10
2811.506612047181
 20
1072.6694572898598
 10
2814.1430303962857
 20
1114.1891148813504
 10
2815.7347055163577
 20
1132.379195307459
 10
2824.8611871220505
 20
1177.6382778829352
 10
2833.1659722916806
 20
1214.4588463250113
 10
2852.839133406441
 20
1268.7230632578555
 10
2861.7076197126794
 20
1291.441343902614
 10
2872.5154855046644
 20
1324.490554070776
 10
2878.125920331276
 20
1347.9673902493862
 10
2883.6858779651843
 20
1388.8817113131474
 10
2885.3395351614645
 20
1404.0544746291976
 10
2886.08007200472
 20
1427.7295577020245
 10
2886.0032606816712
 20
1572.3579764099607
 10
2884.07333495209
 20
1577.9805219335142
 10
2876.5102950283176
 20
1587.1492124345782
 10
2871.9871939286713
 20
1590.874240277944
 10
2866.814308211877
 20
1593.4225840380554
 10
2863.487150463047
 20
1594.2452280321793
  0
LWPOLYLINE
  5
1AF
330
17
100
AcDbEntity
  8
0
100
AcDbPolyline
 90
22
 70
0
 10
2817.061016676341
 20
1543.8444840629088
 10
2817.614631357023
 20
1540.3713629186373
 10
2819.236689138298
 20
1537.2361213306192
 10
2821.409565818416
 20
1535.012354299019
 10
2824.5346742102975
 20
1533.288797042995
 10
2827.601313329025
 20
1532.6227007233856
 10
2831.176790558589
 20
1532.890790617062
 10
2834.103894958357
 20
1534.0062437506474
 10
2836.9253480906946
 20
1536.1761343486728
 10
2838.726873065866
 20
1538.6975837857537
 10
2839.842653508815
 20
1542.0385671317194
 10
2839.9108348335094
 20
1545.1166195389135
 10
2838.944309425071
 20
1548.5017892558687
 10
2837.255804954713
 20
1551.098312021597
 10
2834.5336489219844
 20
1553.3862992439756
 10
2831.6582784235097
 20
1554.6258964483109
 10
2828.0981838665443
 20
1555.0464430959403
 10
2825.0051991403466
 20
1554.5119936252952
 10
2821.806213096391
 20
1552.9233409257088
 10
2819.537404508701
 20
1550.794932985546
 10
2817.777819910675
 20
1547.7315856739042
 10
2817.0985067991496
 20
1544.7266097189358
  0
LWPOLYLINE
  5
1B0
330
17
100
AcDbEntity
  8
0
100
AcDbPolyline
 90
22
 70
0
 10
2441.2615973577203
 20
1545.6514661159022
 10
2441.815212038403
 20
1542.1783449716308
 10
2443.4372698196776
 20
1539.0431033836128
 10
2445.6101464997955
 20
1536.8193363520124
 10
2448.735254891677
 20
1535.0957790959883
 10
2451.8018940104043
 20
1534.4296827763792
 10
2455.377371239968
 20
1534.6977726700554
 10
2458.3044756397367
 20
1535.8132258036408
 10
2461.125928772074
 20
1537.9831164016662
 10
2462.9274537472456
 20
1540.504565838747
 10
2464.043234190194
 20
1543.8455491847128
 10
2464.111415514889
 20
1546.923601591907
 10
2463.1448901064505
 20
1550.308771308862
 10
2461.456385636092
 20
1552.9052940745903
 10
2458.734229603364
 20
1555.1932812969692
 10
2455.8588591048892
 20
1556.4328785013045
 10
2452.2987645479243
 20
1556.8534251489339
 10
2449.2057798217265
 20
1556.3189756782888
 10
2446.0067937777703
 20
1554.7303229787021
 10
2443.7379851900805
 20
1552.6019150385393
 10
2441.9784005920546
 20
1549.538567726898
 10
2441.299087480529
 20
1546.5335917719292
  0
LWPOLYLINE
  5
1B1
330
17
100
AcDbEntity
  8
0
100
AcDbPolyline
 90
60
 70
0
 10
2550.129476820087
 20
1596.4532413635816
 10
2948.0333131478715
 20
1595.8448770838054
 10
2960.7183408171672
 20
1597.3438519568067
 10
2971.478551422758
 20
1599.7901019309004
 10
2979.5120758857565
 20
1603.656985549878
 10
2985.468818380757
 20
1609.1839569708145
 10
2992.476832955494
 20
1618.4338394137067
 10
2995.5043555388575
 20
1623.903588134361
 10
2997.503141217324
 20
1628.6199421170627
 10
2998.603678930579
 20
1633.7783565653833
 10
2999.0000000253494
 20
1805.0390986947828
 10
2998.3137641468766
 20
1809.2692191976314
 10
2997.1636226745
 20
1812.593936537092
 10
2994.7819887408123
 20
1816.7514593783849
 10
2991.7059246217436
 20
1820.3815600399114
 10
2988.9360105349597
 20
1822.8028675572398
 10
2985.625262186528
 20
1824.394420948537
 10
2980.6957830431697
 20
1825.6866962658178
 10
2953.220228507526
 20
1825.8168782853352
 10
2945.7303172207853
 20
1826.8786221991973
 10
2942.565981519124
 20
1827.9329158185976
 10
2933.299629917678
 20
1833.236796090651
 10
2927.5542110305487
 20
1837.3983638881061
 10
2920.8778233187463
 20
1844.751768394832
 10
2917.189428575193
 20
1852.231132799761
 10
2915.774477889128
 20
1859.225860210226
 10
2915.88441681371
 20
1976.3127561200981
 10
2915.0740807045336
 20
1979.5721251309974
 10
2910.6525716010556
 20
1989.4573308828105
 10
2907.0540765411733
 20
1993.9945323080035
 10
2903.729399225438
 20
1996.44700120543
 10
2900.1254425722805
 20
1997.8125100031345
 10
2894.6717882986654
 20
1998.9999644995444
 10
2604.082534601175
 20
1998.999999546363
 10
2597.8079505691367
 20
1996.9117031919768
 10
2592.5115280142677
 20
1993.3801686885263
 10
2588.8660665965044
 20
1989.4664354314875
 10
2586.2504665697747
 20
1984.15995566737
 10
2585.4721787708595
 20
1981.7839988006078
 10
2585.052915434854
 20
1978.0923218978594
 10
2581.603100170441
 20
1874.3478090959345
 10
2578.1497426295327
 20
1855.7766391187222
 10
2576.2933347578514
 20
1851.7019323420532
 10
2571.9335479903025
 20
1843.7348745559102
 10
2568.504851399282
 20
1839.4816356737888
 10
2544.2466617807904
 20
1815.6076270846
 10
2516.4654696217503
 20
1787.2109811816686
 10
2502.3083296967848
 20
1771.068741204415
 10
2499.1523582739383
 20
1764.0964297715989
 10
2498.03726489728
 20
1760.92664835416
 10
2497.7512727612375
 20
1755.943035783451
 10
2496.239391610786
 20
1636.0962038504827
 10
2496.814215049856
 20
1633.2545966986152
 10
2498.233606724858
 20
1628.8382684934168
 10
2500.5630392455278
 20
1624.7528304610203
 10
2508.109892334918
 20
1615.1862907480565
 10
2515.544446422361
 20
1607.8752820943573
 10
2519.953637567362
 20
1604.6337528515103
 10
2527.6610978388685
 20
1600.425103963559
 10
2541.1227071578965
 20
1597.1242812913285
  0
LWPOLYLINE
  5
1B2
330
17
100
AcDbEntity
  8
0
100
AcDbPolyline
 90
22
 70
0
 10
2949.0705102167612
 20
1647.7126585201333
 10
2948.5155052704413
 20
1651.1855577710492
 10
2946.8921925642276
 20
1654.3201497889804
 10
2944.7184258717134
 20
1656.5430468276097
 10
2941.592627780526
 20
1658.2653529470126
 10
2938.5257222653886
 20
1658.9302216203068
 10
2934.9503526401977
 20
1658.6607004643975
 10
2932.023694997141
 20
1657.5440756837743
 10
2929.203110710316
 20
1655.373055815994
 10
2927.4025952299266
 20
1652.8508854203228
 10
2926.2881522908647
 20
1649.5094556888362
 10
2926.2212031333825
 20
1646.4313762348938
 10
2927.189083566923
 20
1643.0465936947417
 10
2928.878627304711
 20
1640.4507470549215
 10
2931.6016990135317
 20
1638.1638497102838
 10
2934.4775654993805
 20
1636.9254036323057
 10
2938.0378281183
 20
1636.506282144314
 10
2941.1305986535413
 20
1637.041969711379
 10
2944.3289484945462
 20
1638.6319028558455
 10
2946.5969048867437
 20
1640.7612188423573
 10
2948.355263068571
 20
1643.825270280201
 10
2949.0333732168347
 20
1646.8305179272763
  0
LWPOLYLINE
  5
1B3
330
17
100
AcDbEntity
  8
0
100
AcDbPolyline
 90
22
 70
0
 10
2557.073807533538
 20
1647.9711120424925
 10
2556.518802587218
 20
1651.4440112934083
 10
2554.895489881005
 20
1654.5786033113395
 10
2552.7217231884906
 20
1656.8015003499688
 10
2549.5959250973033
 20
1658.5238064693717
 10
2546.5290195821663
 20
1659.188675142666
 10
2542.9536499569754
 20
1658.9191539867566
 10
2540.0269923139176
 20
1657.8025292061334
 10
2537.206408027094
 20
1655.631509338353
 10
2535.405892546704
 20
1653.109338942682
 10
2534.2914496076423
 20
1649.7679092111953
 10
2534.22450045016
 20
1646.689829757253
 10
2535.1923808837
 20
1643.3050472171008
 10
2536.881924621488
 20
1640.7092005772806
 10
2539.6049963303085
 20
1638.422303232643
 10
2542.480862816158
 20
1637.1838571546648
 10
2546.041125435077
 20
1636.764735666673
 10
2549.1338959703185
 20
1637.3004232337378
 10
2552.332245811323
 20
1638.8903563782046
 10
2554.6002022035204
 20
1641.0196723647164
 10
2556.3585603853476
 20
1644.0837238025601
 10
2557.0366705336114
 20
1647.0889714496354
  0
LWPOLYLINE
  5
1B4
330
17
100
AcDbEntity
  8
0
100
AcDbPolyline
 90
56
 70
0
 10
2999.000000820087
 20
422.30661483420045
 10
2999.000001131652
 20
839.653188527756
 10
2997.5817607873337
 20
845.4880245588846
 10
2995.0348628570073
 20
852.1779705719872
 10
2991.5775628566385
 20
859.0168850576136
 10
2987.864771486572
 20
864.2579518031622
 10
2983.7147769021026
 20
868.9789153787675
 10
2975.6416999236194
 20
875.8200601684171
 10
2965.322801111218
 20
880.6398273354916
 10
2960.666488380949
 20
882.1826326282593
 10
2834.9851905834744
 20
881.995097797963
 10
2831.5236710926492
 20
881.0331026267731
 10
2825.481203616416
 20
877.8245017374021
 10
2818.4938904053947
 20
872.1118585120743
 10
2809.7432941583875
 20
862.9322387215827
 10
2753.3093676350577
 20
808.5247783655186
 10
2748.55078190906
 20
805.5982687269302
 10
2736.9949364063223
 20
800.5165488884088
 10
2728.3854959842884
 20
798.9784439862372
 10
2621.870645619689
 20
795.6017898142184
 10
2613.8768400622525
 20
794.5351140956091
 10
2607.8953726802497
 20
792.9837486195988
 10
2604.1971745273104
 20
790.4329053757801
 10
2600.7162288600525
 20
787.2162055640389
 10
2598.733592578879
 20
784.1685017967712
 10
2597.3729280980274
 20
780.3160946680231
 10
2596.1628596008627
 20
775.2307090600286
 10
2596.158838924587
 20
486.51004872884545
 10
2599.402722695008
 20
477.1078489663565
 10
2602.4219138441563
 20
472.9456583461519
 10
2606.196434262953
 20
469.2455468542781
 10
2609.669461127417
 20
467.16375648784754
 10
2615.030650465254
 20
465.77481660181184
 10
2621.3737456362796
 20
464.92493314345836
 10
2726.6030224381557
 20
464.72786081052027
 10
2741.5477589644065
 20
461.81532979691355
 10
2749.9199803751912
 20
458.81635579024606
 10
2755.0298048194472
 20
455.59661205219436
 10
2761.3345154391736
 20
448.71465910200186
 10
2768.5063868522666
 20
433.9540111145392
 10
2769.7005640721472
 20
428.2944633839196
 10
2770.4726852564836
 20
393.73479892092666
 10
2771.9190629623167
 20
390.84462013486797
 10
2774.9387046193397
 20
387.9538826280501
 10
2778.461926010309
 20
385.4482558696296
 10
2786.9562266865814
 20
381.7207866048752
 10
2794.19268980109
 20
380.17706709981496
 10
2800.1709070491193
 20
379.66122996096465
 10
2966.048568766165
 20
381.3823161753659
 10
2969.785927761353
 20
381.92584134440636
 10
2973.310583835392
 20
383.46574918749263
 10
2978.78681280623
 20
387.0598386151193
 10
2985.396815704152
 20
393.5431938897698
 10
2990.8111379988263
 20
400.026972824185
 10
2995.407796592305
 20
407.73112260514057
 10
2998.3680103937236
 20
414.72948872417845
  0
LWPOLYLINE
  5
1B5
330
17
100
AcDbEntity
  8
0
100
AcDbPolyline
 90
22
 70
0
 10
2948.4906417302773
 20
845.396139133544
 10
2945.0185050064956
 20
844.8363835897388
 10
2941.8861367027853
 20
843.2087841086187
 10
2939.6662155765
 20
841.031978405093
 10
2937.9481873322175
 20
837.9038270296559
 10
2937.2875149762294
 20
834.8360148076414
 10
2937.561927181874
 20
831.2610172479762
 10
2938.6825547459152
 20
828.3358899476553
 10
2940.8574312962483
 20
825.5182783746762
 10
2943.3820625357366
 20
823.721215046765
 10
2946.7250137594833
 20
822.6113444099166
 10
2949.80318192312
 20
822.5486062967772
 10
2953.1866371822616
 20
823.5211163929399
 10
2955.780170004324
 20
825.2142098104001
 10
2958.0633398973064
 20
827.9404075721313
 10
2959.2978504731127
 20
830.8179656290116
 10
2959.7121009341595
 20
834.3787982974878
 10
2959.172182788486
 20
837.47083308855
 10
2957.577875613674
 20
840.6670048207433
 10
2955.445458930885
 20
842.9320460694373
 10
2952.3790048298088
 20
844.6862108152189
 10
2949.3728323030928
 20
845.3602089851338
  0
LWPOLYLINE
  5
1B6
330
17
100
AcDbEntity
  8
0
100
AcDbPolyline
 90
22
 70
0
 10
2947.858130611776
 20
453.0131507808339
 10
2944.3859938879946
 20
452.4533952370289
 10
2941.2536255842842
 20
450.82579575590864
 10
2939.0337044579983
 20
448.64899005238294
 10
2937.315676213716
 20
445.52083867694574
 10
2936.6550038577284
 20
442.4530264549312
 10
2936.929416063373
 20
438.8780288952659
 10
2938.0500436274137
 20
435.9529015949452
 10
2940.224920177747
 20
433.13529002196617
 10
2942.7495514172356
 20
431.3382266940548
 10
2946.092502640982
 20
430.22835605720644
 10
2949.170670804619
 20
430.165617944067
 10
2952.55412606376
 20
431.13812804022984
 10
2955.147658885823
 20
432.8312214576899
 10
2957.430828778805
 20
435.55741921942115
 10
2958.665339354611
 20
438.43497727630154
 10
2959.0795898156584
 20
441.9958099447776
 10
2958.539671669985
 20
445.08784473583984
 10
2956.9453644951727
 20
448.2840164680331
 10
2954.8129478123838
 20
450.5490577167273
 10
2951.7464937113073
 20
452.30322246250887
 10
2948.7403211845913
 20
452.9772206324237
  0
ENDSEC
  0
SECTION
  2
OBJECTS
  0
DICTIONARY
  5
A
330
0
100
AcDbDictionary
281
1
  3
ACAD_COLOR
350
B
  3
ACAD_GROUP
350
C
  3
ACAD_LAYOUT
350
D
  3
ACAD_MATERIAL
350
E
  3
ACAD_MLEADERSTYLE
350
F
  3
ACAD_MLINESTYLE
350
10
  3
ACAD_PLOTSETTINGS
350
11
  3
ACAD_PLOTSTYLENAME
350
12
  3
ACAD_SCALELIST
350
14
  3
ACAD_TABLESTYLE
350
15
  3
ACAD_VISUALSTYLE
350
16
  3
EZDXF_META
350
2D
  0
DICTIONARY
  5
B
330
A
100
AcDbDictionary
281
1
  0
DICTIONARY
  5
C
330
A
100
AcDbDictionary
281
1
  0
DICTIONARY
  5
D
330
A
100
AcDbDictionary
281
1
  3
Model
350
1A
  3
Layout1
350
1E
  0
DICTIONARY
  5
E
330
A
100
AcDbDictionary
281
1
  3
ByBlock
350
1F
  3
ByLayer
350
20
  3
Global
350
21
  0
DICTIONARY
  5
F
330
A
100
AcDbDictionary
281
1
  3
Standard
350
2C
  0
DICTIONARY
  5
10
330
A
100
AcDbDictionary
281
1
  3
Standard
350
22
  0
DICTIONARY
  5
11
330
A
100
AcDbDictionary
281
1
  0
ACDBDICTIONARYWDFLT
  5
12
330
A
100
AcDbDictionary
281
1
  3
Normal
350
13
100
AcDbDictionaryWithDefault
340
13
  0
ACDBPLACEHOLDER
  5
13
330
12
  0
DICTIONARY
  5
14
330
A
100
AcDbDictionary
281
1
  0
DICTIONARY
  5
15
330
A
100
AcDbDictionary
281
1
  0
DICTIONARY
  5
16
330
A
100
AcDbDictionary
281
1
  0
LAYOUT
  5
1A
330
D
100
AcDbPlotSettings
  1

  4
A3
  6

 40
7.5
 41
20.0
 42
7.5
 43
20.0
 44
420.0
 45
297.0
 46
0.0
 47
0.0
 48
0.0
 49
0.0
140
0.0
141
0.0
142
1.0
143
1.0
 70
1024
 72
1
 73
0
 74
5
  7

 75
16
 76
0
 77
2
 78
300
147
1.0
148
0.0
149
0.0
100
AcDbLayout
  1
Model
 70
1
 71
0
 10
0.0
 20
0.0
 11
420.0
 21
297.0
 12
0.0
 22
0.0
 32
0.0
 14
1e+20
 24
1e+20
 34
1e+20
 15
-1e+20
 25
-1e+20
 35
-1e+20
146
0.0
 13
0.0
 23
0.0
 33
0.0
 16
1.0
 26
0.0
 36
0.0
 17
0.0
 27
1.0
 37
0.0
 76
1
330
17
  0
LAYOUT
  5
1E
330
D
100
AcDbPlotSettings
  1

  4
A3
  6

 40
7.5
 41
20.0
 42
7.5
 43
20.0
 44
420.0
 45
297.0
 46
0.0
 47
0.0
 48
0.0
 49
0.0
140
0.0
141
0.0
142
1.0
143
1.0
 70
0
 72
1
 73
0
 74
5
  7

 75
16
 76
0
 77
2
 78
300
147
1.0
148
0.0
149
0.0
100
AcDbLayout
  1
Layout1
 70
1
 71
1
 10
0.0
 20
0.0
 11
420.0
 21
297.0
 12
0.0
 22
0.0
 32
0.0
 14
1e+20
 24
1e+20
 34
1e+20
 15
-1e+20
 25
-1e+20
 35
-1e+20
146
0.0
 13
0.0
 23
0.0
 33
0.0
 16
1.0
 26
0.0
 36
0.0
 17
0.0
 27
1.0
 37
0.0
 76
1
330
1B
  0
MATERIAL
  5
1F
102
{ACAD_REACTORS
330
E
102
}
330
E
100
AcDbMaterial
  1
ByBlock
  2

 70
0
 40
1.0
 71
1
 41
1.0
 91
-1023410177
 42
1.0
 72
1
  3

 73
1
 74
1
 75
1
 44
0.5
 73
0
 45
1.0
 46
1.0
 77
1
  4

 78
1
 79
1
170
1
 48
1.0
171
1
  6

172
1
173
1
174
1
140
1.0
141
1.0
175
1
  7

176
1
177
1
178
1
143
1.0
179
1
  8

270
1
271
1
272
1
145
1.0
146
1.0
273
1
  9

274
1
275
1
276
1
 42
1.0
 72
1
  3

 73
1
 74
1
 75
1
 94
63
  0
MATERIAL
  5
20
102
{ACAD_REACTORS
330
E
102
}
330
E
100
AcDbMaterial
  1
ByLayer
  2

 70
0
 40
1.0
 71
1
 41
1.0
 91
-1023410177
 42
1.0
 72
1
  3

 73
1
 74
1
 75
1
 44
0.5
 73
0
 45
1.0
 46
1.0
 77
1
  4

 78
1
 79
1
170
1
 48
1.0
171
1
  6

172
1
173
1
174
1
140
1.0
141
1.0
175
1
  7

176
1
177
1
178
1
143
1.0
179
1
  8

270
1
271
1
272
1
145
1.0
146
1.0
273
1
  9

274
1
275
1
276
1
 42
1.0
 72
1
  3

 73
1
 74
1
 75
1
 94
63
  0
MATERIAL
  5
21
102
{ACAD_REACTORS
330
E
102
}
330
E
100
AcDbMaterial
  1
Global
  2

 70
0
 40
1.0
 71
1
 41
1.0
 91
-1023410177
 42
1.0
 72
1
  3

 73
1
 74
1
 75
1
 44
0.5
 73
0
 45
1.0
 46
1.0
 77
1
  4

 78
1
 79
1
170
1
 48
1.0
171
1
  6

172
1
173
1
174
1
140
1.0
141
1.0
175
1
  7

176
1
177
1
178
1
143
1.0
179
1
  8

270
1
271
1
272
1
145
1.0
146
1.0
273
1
  9

274
1
275
1
276
1
 42
1.0
 72
1
  3

 73
1
 74
1
 75
1
 94
63
  0
MLINESTYLE
  5
22
102
{ACAD_REACTORS
330
10
102
}
330
10
100
AcDbMlineStyle
  2
Standard
 70
0
  3

 62
256
 51
90.0
 52
90.0
 71
2
 49
0.5
 62
256
  6
BYLAYER
 49
-0.5
 62
256
  6
BYLAYER
  0
MLEADERSTYLE
  5
2C
102
{ACAD_REACTORS
330
F
102
}
330
F
100
AcDbMLeaderStyle
179
2
170
2
171
1
172
0
 90
2
 40
0.0
 41
0.0
173
1
 91
-1056964608
 92
-2
290
1
 42
2.0
291
1
 43
8.0
  3
Standard
 44
4.0
300

342
29
174
1
175
1
176
0
178
1
 93
-1056964608
 45
4.0
292
0
297
0
 46
4.0
 94
-1056964608
 47
1.0
 49
1.0
140
1.0
294
1
141
0.0
177
0
142
1.0
295
0
296
0
143
3.75
271
0
272
9
273
9
  0
DICTIONARY
  5
2D
330
A
100
AcDbDictionary
280
1
281
1
  3
CREATED_BY_EZDXF
350
2E
  3
WRITTEN_BY_EZDXF
350
1B9
  0
DICTIONARYVAR
  5
2E
330
2D
100
DictionaryVariables
280
0
  1
1.4.2 @ 2025-10-23T08:46:54.226607+00:00
  0
DICTIONARYVAR
  5
1B9
330
2D
100
DictionaryVariables
280
0
  1
1.4.2 @ 2025-10-23T08:46:54.389178+00:00
  0
ENDSEC
  0
EOF
