  0
SECTION
  2
BLOCKS
  0
BLOCK
  8
1
  2
1
 70
64
 10
0.0
 20
0.0
  0
LINE
  8
7
 10
1908.395233154297
 20
753.2369995117188
 11
2365.715789794922
 21
753.2369995117188
  0
TEXT
  8
1
 10
1914.643867492676
 20
788.9155340671539
 40
46.33575916290283
 50
0.0000000000000000
 51
0.0000000000000000
 71
0
  1
Size: Base
  0
TEXT
  8
1
 10
1914.643867492676
 20
839.8848691463470
 40
46.33575916290283
 50
0.0000000000000000
 51
0.0000000000000000
 71
0
  1
Piece Name: M14-2
  0
TEXT
  8
1
 10
1914.643867492676
 20
737.9461989879608
 40
46.33575916290283
 50
0.0000000000000000
 51
0.0000000000000000
 71
0
  1
Sample Size
  0
TEXT
  8
1
 10
1914.643867492676
 20
686.9768639087677
 40
46.33575916290283
 50
0.0000000000000000
 51
0.0000000000000000
 71
0
  1
Quantity: 1
  0
POLYLINE
  8
1
 66
1
 70
1
  0
VERTEX
  8
1
 10
2518.155975341797
 20
610.8700180053711
  0
VERTEX
  8
1
 10
2516.123962402344
 20
602.2340011596680
  0
VERTEX
  8
1
 10
2513.076019287109
 20
594.3600082397461
  0
VERTEX
  8
1
 10
2507.487945556641
 20
584.4540023803711
  0
VERTEX
  8
1
 10
2504.440002441406
 20
580.6439971923828
  0
VERTEX
  8
1
 10
2501.138000488281
 20
577.0880126953125
  0
VERTEX
  8
1
 10
2498.343963623047
 20
574.5479965209961
  0
VERTEX
  8
1
 10
2494.533996582031
 20
572.5159835815430
 70
8
  0
VERTEX
  8
1
 10
2479.548034667969
 20
565.1499938964844
  0
VERTEX
  8
1
 10
2464.053955078125
 20
556.0060119628906
 70
8
  0
VERTEX
  8
1
 10
2456.434020996094
 20
551.9419860839844
  0
VERTEX
  8
1
 10
2441.956024169922
 20
546.1000061035156
  0
VERTEX
  8
1
 10
2432.812042236328
 20
543.5599899291992
  0
VERTEX
  8
1
 10
2423.159942626953
 20
541.5280151367188
  0
VERTEX
  8
1
 10
2412.745971679688
 20
540.2579879760742
  0
VERTEX
  8
1
 10
2401.569976806641
 20
539.7499847412109
  0
VERTEX
  8
1
 10
2383.027954101563
 20
540.2579879760742
  0
VERTEX
  8
1
 10
2350.330179893775
 20
543.2299682471136
 70
8
  0
VERTEX
  8
1
 10
2336.291961669922
 20
544.0679931640625
 70
8
  0
VERTEX
  8
1
 10
2320.798034667969
 20
544.5759963989258
  0
VERTEX
  8
1
 10
2205.735931396484
 20
546.6080093383789
 70
8
  0
VERTEX
  8
1
 10
2149.230723280943
 20
546.8955019894745
 70
8
  0
VERTEX
  8
1
 10
2144.521942138672
 20
546.8619918823242
 70
8
  0
VERTEX
  8
1
 10
2107.183990478516
 20
546.1000061035156
 70
8
  0
VERTEX
  8
1
 10
2074.925994873047
 20
544.5759963989258
 70
8
  0
VERTEX
  8
1
 10
2037.079925537109
 20
541.7819976806641
 70
8
  0
VERTEX
  8
1
 10
1989.438842257589
 20
536.9032188458598
 70
8
  0
VERTEX
  8
1
 10
1941.829986572266
 20
531.6220092773438
 70
8
  0
VERTEX
  8
1
 10
1908.955449764721
 20
528.5322233410450
 70
8
  0
VERTEX
  8
1
 10
1894.839935302734
 20
527.5579833984375
 70
8
  0
VERTEX
  8
1
 10
1863.090057373047
 20
525.7799911499023
 70
8
  0
VERTEX
  8
1
 10
1835.657958984375
 20
523.4939956665039
 70
8
  0
VERTEX
  8
1
 10
1826.768035888672
 20
522.9859924316406
  0
VERTEX
  8
1
 10
1816.607971191406
 20
523.4939956665039
  0
VERTEX
  8
1
 10
1807.718048095703
 20
525.2719879150391
  0
VERTEX
  8
1
 10
1798.827972412109
 20
528.0659866333008
  0
VERTEX
  8
1
 10
1792.223968505859
 20
530.6060028076172
  0
VERTEX
  8
1
 10
1786.889953613281
 20
533.6539840698242
  0
VERTEX
  8
1
 10
1782.317962646484
 20
536.9559860229492
  0
VERTEX
  8
1
 10
1779.015960693359
 20
540.2579879760742
  0
VERTEX
  8
1
 10
1775.968017578125
 20
544.3220138549805
  0
VERTEX
  8
1
 10
1770.126037597656
 20
554.4820022583008
  0
VERTEX
  8
1
 10
1768.094024658203
 20
559.0539932250977
  0
VERTEX
  8
1
 10
1766.569976806641
 20
564.6419906616211
  0
VERTEX
  8
1
 10
1763.522033691406
 20
580.1359939575195
  0
VERTEX
  8
1
 10
1761.743927001953
 20
596.1380004882813
  0
VERTEX
  8
1
 10
1754.378051757813
 20
796.0359954833984
  0
VERTEX
  8
1
 10
1753.869934082031
 20
807.7200317382813
  0
VERTEX
  8
1
 10
1754.631958007813
 20
816.3559722900391
  0
VERTEX
  8
1
 10
1756.410064697266
 20
824.7380065917969
  0
VERTEX
  8
1
 10
1760.220031738281
 20
836.1679840087891
  0
VERTEX
  8
1
 10
1766.062011718750
 20
847.0899963378906
  0
VERTEX
  8
1
 10
1845.055999755859
 20
966.4700317382813
  0
VERTEX
  8
1
 10
1851.660003662109
 20
973.0740356445313
  0
VERTEX
  8
1
 10
1859.026031494141
 20
978.1539916992188
  0
VERTEX
  8
1
 10
1864.360046386719
 20
980.4399871826172
  0
VERTEX
  8
1
 10
1870.455932617188
 20
981.7099761962891
  0
VERTEX
  8
1
 10
1877.059936523438
 20
982.4720001220703
  0
VERTEX
  8
1
 10
1891.537933349609
 20
983.2340240478516
 70
8
  0
VERTEX
  8
1
 10
1904.492034912109
 20
983.4880065917969
  0
VERTEX
  8
1
 10
1919.223937988281
 20
982.7259826660156
  0
VERTEX
  8
1
 10
1933.193969726563
 20
980.9480285644531
 70
8
  0
VERTEX
  8
1
 10
1962.378781209440
 20
976.4478069277882
 70
8
  0
VERTEX
  8
1
 10
1967.230072021484
 20
975.6140136718750
 70
8
  0
VERTEX
  8
1
 10
2014.219970703125
 20
967.4859619140625
 70
8
  0
VERTEX
  8
1
 10
2031.492004394531
 20
964.9459838867188
  0
VERTEX
  8
1
 10
2054.606018066406
 20
963.4220123291016
 70
8
  0
VERTEX
  8
1
 10
2079.156946617110
 20
962.6763149048912
 70
8
  0
VERTEX
  8
1
 10
2084.069976806641
 20
962.6599884033203
 70
8
  0
VERTEX
  8
1
 10
2106.168060302734
 20
963.1680297851563
 70
8
  0
VERTEX
  8
1
 10
2164.333953857422
 20
966.9779968261719
 70
8
  0
VERTEX
  8
1
 10
2184.907989501953
 20
967.4859619140625
 70
8
  0
VERTEX
  8
1
 10
2209.586261748192
 20
967.2958720145455
 70
8
  0
VERTEX
  8
1
 10
2219.452056884766
 20
966.9779968261719
 70
8
  0
VERTEX
  8
1
 10
2230.628051757813
 20
966.4700317382813
  0
VERTEX
  8
1
 10
2240.787963867188
 20
965.1999664306641
  0
VERTEX
  8
1
 10
2259.584045410156
 20
961.6439819335938
  0
VERTEX
  8
1
 10
2285.238037109375
 20
955.0399780273438
  0
VERTEX
  8
1
 10
2300.478057861328
 20
950.2140045166016
  0
VERTEX
  8
1
 10
2341.372070312500
 20
934.4660186767578
  0
VERTEX
  8
1
 10
2356.611938476563
 20
929.6399688720703
 70
8
  0
VERTEX
  8
1
 10
2378.202056884766
 20
923.5440063476563
  0
VERTEX
  8
1
 10
2391.663970947266
 20
921.2580108642578
  0
VERTEX
  8
1
 10
2399.029998779297
 20
920.7499694824219
  0
VERTEX
  8
1
 10
2407.158050537109
 20
921.0040283203125
 70
8
  0
VERTEX
  8
1
 10
2425.630611319042
 20
922.3240520498105
 70
8
  0
VERTEX
  8
1
 10
2434.844055175781
 20
923.2900238037109
 70
8
  0
VERTEX
  8
1
 10
2468.880004882813
 20
927.6080322265625
  0
VERTEX
  8
1
 10
2483.358001708984
 20
928.3699798583984
  0
VERTEX
  8
1
 10
2494.279937744141
 20
928.3699798583984
  0
VERTEX
  8
1
 10
2500.122070312500
 20
927.3539733886719
  0
VERTEX
  8
1
 10
2506.472015380859
 20
924.5600128173828
  0
VERTEX
  8
1
 10
2511.551971435547
 20
920.7499694824219
  0
VERTEX
  8
1
 10
2514.853973388672
 20
915.9239959716797
  0
VERTEX
  8
1
 10
2517.140045166016
 20
909.8280334472656
  0
VERTEX
  8
1
 10
2518.410034179688
 20
902.4620056152344
  0
VERTEX
  8
1
 10
2518.155975341797
 20
894.8419952392578
  0
SEQEND
  0
POINT
  8
2
 10
2518.155975341797
 20
610.8700180053711
  0
POINT
  8
3
 10
2494.533996582031
 20
572.5159835815430
  0
POINT
  8
3
 10
2464.053955078125
 20
556.0060119628906
  0
POINT
  8
3
 10
2345.653213664306
 20
543.5520237011451
  0
POINT
  8
3
 10
2336.291961669922
 20
544.0679931640625
  0
POINT
  8
3
 10
2205.735931396484
 20
546.6080093383789
  0
POINT
  8
3
 10
2144.521942138672
 20
546.8619918823242
  0
POINT
  8
3
 10
2107.183990478516
 20
546.1000061035156
  0
POINT
  8
3
 10
2074.925994873047
 20
544.5759963989258
  0
POINT
  8
3
 10
2037.079925537109
 20
541.7819976806641
  0
POINT
  8
3
 10
1979.919159655158
 20
535.8349798207537
  0
POINT
  8
3
 10
1941.829986572266
 20
531.6220092773438
  0
POINT
  8
3
 10
1904.252350724461
 20
528.1776332013546
  0
POINT
  8
3
 10
1894.839935302734
 20
527.5579833984375
  0
POINT
  8
3
 10
1863.090057373047
 20
525.7799911499023
  0
POINT
  8
3
 10
1835.657958984375
 20
523.4939956665039
  0
POINT
  8
3
 10
1891.537933349609
 20
983.2340240478516
  0
POINT
  8
3
 10
1933.193969726563
 20
980.9480285644531
  0
POINT
  8
3
 10
1967.230072021484
 20
975.6140136718750
  0
POINT
  8
3
 10
2014.219970703125
 20
967.4859619140625
  0
POINT
  8
3
 10
2054.606018066406
 20
963.4220123291016
  0
POINT
  8
3
 10
2084.069976806641
 20
962.6599884033203
  0
POINT
  8
3
 10
2106.168060302734
 20
963.1680297851563
  0
POINT
  8
3
 10
2164.333953857422
 20
966.9779968261719
  0
POINT
  8
3
 10
2184.907989501953
 20
967.4859619140625
  0
POINT
  8
3
 10
2214.519814978170
 20
967.1551866497769
  0
POINT
  8
3
 10
2219.452056884766
 20
966.9779968261719
  0
POINT
  8
3
 10
2356.611938476563
 20
929.6399688720703
  0
POINT
  8
3
 10
2407.158050537109
 20
921.0040283203125
  0
POINT
  8
3
 10
2430.239264870816
 20
922.7890343860723
  0
POINT
  8
3
 10
2434.844055175781
 20
923.2900238037109
  0
ENDBLK
  0
BLOCK
  8
1
  2
2
 70
64
 10
0.0
 20
0.0
  0
LINE
  8
7
 10
2016.455230712891
 20
1216.278991699219
 11
2398.064727783203
 21
1216.278991699219
  0
TEXT
  8
1
 10
2021.867683410645
 20
1246.019005823135
 40
38.62339496612549
 50
0.0000000000000000
 51
0.0000000000000000
 71
0
  1
Size: Base
  0
TEXT
  8
1
 10
2021.867683410645
 20
1288.504740285873
 40
38.62339496612549
 50
0.0000000000000000
 51
0.0000000000000000
 71
0
  1
Piece Name: M14-1
  0
TEXT
  8
1
 10
2021.867683410645
 20
1203.533271360397
 40
38.62339496612549
 50
0.0000000000000000
 51
0.0000000000000000
 71
0
  1
Sample Size
  0
TEXT
  8
1
 10
2021.867683410645
 20
1161.047536897659
 40
38.62339496612549
 50
0.0000000000000000
 51
0.0000000000000000
 71
0
  1
Quantity: 1
  0
POLYLINE
  8
1
 66
1
 70
1
  0
VERTEX
  8
1
 10
1889.252014160156
 20
1290.827941894531
  0
VERTEX
  8
1
 10
1891.029968261719
 20
1294.384002685547
  0
VERTEX
  8
1
 10
1893.316040039063
 20
1297.431945800781
  0
VERTEX
  8
1
 10
1896.363983154297
 20
1299.718017578125
  0
VERTEX
  8
1
 10
1900.173950195313
 20
1301.495971679688
  0
VERTEX
  8
1
 10
1914.143981933594
 20
1304.035949707031
 70
8
  0
VERTEX
  8
1
 10
1927.351989746094
 20
1305.814056396484
  0
VERTEX
  8
1
 10
1932.431945800781
 20
1307.592010498047
  0
VERTEX
  8
1
 10
1944.624023437500
 20
1313.941955566406
  0
VERTEX
  8
1
 10
1948.941955566406
 20
1315.466003417969
  0
VERTEX
  8
1
 10
1959.355926513672
 20
1318.005981445313
  0
VERTEX
  8
1
 10
1968.246002197266
 20
1319.275970458984
  0
VERTEX
  8
1
 10
1976.119995117188
 20
1319.022064208984
  0
VERTEX
  8
1
 10
1983.231964111328
 20
1317.752075195313
  0
VERTEX
  8
1
 10
1988.058013916016
 20
1315.973968505859
  0
VERTEX
  8
1
 10
1992.630004882813
 20
1313.433990478516
  0
VERTEX
  8
1
 10
1997.201995849609
 20
1310.386047363281
  0
VERTEX
  8
1
 10
2002.028045654297
 20
1306.575927734375
  0
VERTEX
  8
1
 10
2005.838012695313
 20
1302.512054443359
  0
VERTEX
  8
1
 10
2013.712005615234
 20
1290.827941894531
  0
VERTEX
  8
1
 10
2016.506042480469
 20
1287.525939941406
  0
VERTEX
  8
1
 10
2023.872070312500
 20
1280.668029785156
  0
VERTEX
  8
1
 10
2029.459991455078
 20
1276.095962524414
  0
VERTEX
  8
1
 10
2034.794006347656
 20
1273.048019409180
  0
VERTEX
  8
1
 10
2040.128021240234
 20
1271.269989013672
  0
VERTEX
  8
1
 10
2047.239990234375
 20
1270.253982543945
  0
VERTEX
  8
1
 10
2053.843994140625
 20
1270.507965087891
  0
VERTEX
  8
1
 10
2059.940032958984
 20
1271.778030395508
  0
VERTEX
  8
1
 10
2064.765930175781
 20
1274.064025878906
  0
VERTEX
  8
1
 10
2068.067932128906
 20
1276.604003906250
  0
VERTEX
  8
1
 10
2070.861968994141
 20
1279.652023315430
  0
VERTEX
  8
1
 10
2073.656005859375
 20
1283.715972900391
  0
VERTEX
  8
1
 10
2076.450042724609
 20
1289.049987792969
  0
VERTEX
  8
1
 10
2078.482055664063
 20
1294.638061523438
  0
VERTEX
  8
1
 10
2079.497985839844
 20
1301.242065429688
  0
VERTEX
  8
1
 10
2079.497985839844
 20
1325.879974365234
 70
8
  0
VERTEX
  8
1
 10
2079.752044677734
 20
1335.532073974609
  0
VERTEX
  8
1
 10
2078.990020751953
 20
1360.424041748047
  0
VERTEX
  8
1
 10
2080.005950927734
 20
1374.140014648438
 70
8
  0
VERTEX
  8
1
 10
2080.767974853516
 20
1381.251983642578
  0
VERTEX
  8
1
 10
2081.784057617188
 20
1384.808044433594
  0
VERTEX
  8
1
 10
2084.577941894531
 20
1389.380035400391
  0
VERTEX
  8
1
 10
2088.896026611328
 20
1393.444061279297
  0
VERTEX
  8
1
 10
2094.483947753906
 20
1396.746063232422
  0
VERTEX
  8
1
 10
2100.834045410156
 20
1399.286041259766
  0
VERTEX
  8
1
 10
2208.784027099609
 20
1440.433959960938
  0
VERTEX
  8
1
 10
2223.007965087891
 20
1443.735961914063
  0
VERTEX
  8
1
 10
2237.232055664063
 20
1446.022033691406
 70
8
  0
VERTEX
  8
1
 10
2251.201934814453
 20
1447.545928955078
  0
VERTEX
  8
1
 10
2265.171966552734
 20
1448.054046630859
  0
VERTEX
  8
1
 10
2438.146057128906
 20
1451.356048583984
  0
VERTEX
  8
1
 10
2450.592041015625
 20
1450.086059570313
  0
VERTEX
  8
1
 10
2462.276000976563
 20
1447.292022705078
  0
VERTEX
  8
1
 10
2468.625946044922
 20
1444.497985839844
  0
VERTEX
  8
1
 10
2481.325988769531
 20
1437.386016845703
  0
VERTEX
  8
1
 10
2499.613952636719
 20
1429.512023925781
  0
VERTEX
  8
1
 10
2507.742004394531
 20
1424.685974121094
  0
VERTEX
  8
1
 10
2516.885986328125
 20
1416.558074951172
  0
VERTEX
  8
1
 10
2519.933929443359
 20
1412.747955322266
  0
VERTEX
  8
1
 10
2522.474060058594
 20
1408.937988281250
  0
VERTEX
  8
1
 10
2525.014038085938
 20
1402.333984375000
  0
VERTEX
  8
1
 10
2526.537933349609
 20
1394.459991455078
  0
VERTEX
  8
1
 10
2526.537933349609
 20
1386.331939697266
  0
VERTEX
  8
1
 10
2525.267944335938
 20
1377.696075439453
  0
VERTEX
  8
1
 10
2525.267944335938
 20
1037.844009399414
  0
VERTEX
  8
1
 10
2523.489990234375
 20
1030.477981567383
  0
VERTEX
  8
1
 10
2521.204071044922
 20
1023.619995117188
  0
VERTEX
  8
1
 10
2517.648010253906
 20
1015.238037109375
  0
VERTEX
  8
1
 10
2514.091949462891
 20
1008.634033203125
  0
VERTEX
  8
1
 10
2510.281982421875
 20
1002.791976928711
  0
VERTEX
  8
1
 10
2505.964050292969
 20
997.9660034179688
  0
VERTEX
  8
1
 10
2499.613952636719
 20
992.6319885253906
  0
VERTEX
  8
1
 10
2492.247924804688
 20
988.3139801025391
  0
VERTEX
  8
1
 10
2483.612060546875
 20
984.7579956054688
  0
VERTEX
  8
1
 10
2474.467926025391
 20
981.9640350341797
  0
VERTEX
  8
1
 10
2468.372039794922
 20
981.2020111083984
  0
VERTEX
  8
1
 10
2461.513977050781
 20
981.2020111083984
  0
VERTEX
  8
1
 10
2438.907928466797
 20
983.4880065917969
 70
8
  0
VERTEX
  8
1
 10
2426.970062255859
 20
985.0119781494141
 70
8
  0
VERTEX
  8
1
 10
2413.507995605469
 20
987.2979736328125
 70
8
  0
VERTEX
  8
1
 10
2389.488344074788
 20
992.5090571825119
 70
8
  0
VERTEX
  8
1
 10
2370.328063964844
 20
996.9499969482422
 70
8
  0
VERTEX
  8
1
 10
2354.833984375000
 20
1000.251998901367
 70
8
  0
VERTEX
  8
1
 10
2326.463860843513
 20
1005.410458089942
 70
8
  0
VERTEX
  8
1
 10
2297.937927246094
 20
1009.649963378906
 70
8
  0
VERTEX
  8
1
 10
2276.094055175781
 20
1012.444000244141
 70
8
  0
VERTEX
  8
1
 10
2255.773925781250
 20
1014.729995727539
 70
8
  0
VERTEX
  8
1
 10
2236.215972900391
 20
1016.253967285156
 70
8
  0
VERTEX
  8
1
 10
2214.626007080078
 20
1017.524032592773
 70
8
  0
VERTEX
  8
1
 10
2175.654390581745
 20
1018.769411572616
 70
8
  0
VERTEX
  8
1
 10
2161.031951904297
 20
1019.048004150391
  0
VERTEX
  8
1
 10
2150.364074707031
 20
1018.794021606445
 70
8
  0
VERTEX
  8
1
 10
2117.597961425781
 20
1017.269973754883
  0
VERTEX
  8
1
 10
2106.929931640625
 20
1017.778015136719
  0
VERTEX
  8
1
 10
2097.532043457031
 20
1019.048004150391
 70
8
  0
VERTEX
  8
1
 10
2085.086059570313
 20
1020.826034545898
  0
VERTEX
  8
1
 10
2081.784057617188
 20
1022.096023559570
  0
VERTEX
  8
1
 10
2078.990020751953
 20
1023.619995117188
  0
VERTEX
  8
1
 10
2076.703948974609
 20
1026.159973144531
  0
VERTEX
  8
1
 10
2074.671936035156
 20
1029.207992553711
  0
VERTEX
  8
1
 10
2070.861968994141
 20
1038.097991943359
  0
VERTEX
  8
1
 10
2069.846038818359
 20
1042.416000366211
  0
VERTEX
  8
1
 10
2069.338073730469
 20
1047.241973876953
  0
VERTEX
  8
1
 10
2071.369934082031
 20
1068.323974609375
  0
VERTEX
  8
1
 10
2071.878051757813
 20
1080.770034790039
  0
VERTEX
  8
1
 10
2071.369934082031
 20
1084.072036743164
  0
VERTEX
  8
1
 10
2070.608062744141
 20
1086.865997314453
  0
VERTEX
  8
1
 10
2067.052001953125
 20
1092.707977294922
  0
VERTEX
  8
1
 10
2062.734069824219
 20
1097.025985717773
  0
VERTEX
  8
1
 10
2057.653961181641
 20
1099.311981201172
  0
VERTEX
  8
1
 10
2051.811981201172
 20
1100.074005126953
  0
VERTEX
  8
1
 10
2044.700012207031
 20
1099.311981201172
  0
VERTEX
  8
1
 10
2037.588043212891
 20
1097.279968261719
  0
VERTEX
  8
1
 10
1918.208007812500
 20
1085.849990844727
  0
VERTEX
  8
1
 10
1910.841979980469
 20
1086.103973388672
  0
VERTEX
  8
1
 10
1903.984069824219
 20
1087.882003784180
  0
VERTEX
  8
1
 10
1898.395996093750
 20
1090.421981811523
  0
VERTEX
  8
1
 10
1894.331970214844
 20
1093.977966308594
  0
VERTEX
  8
1
 10
1892.299957275391
 20
1097.534027099609
  0
VERTEX
  8
1
 10
1890.522003173828
 20
1101.852035522461
  0
VERTEX
  8
1
 10
1889.506072998047
 20
1106.678009033203
  0
VERTEX
  8
1
 10
1889.252014160156
 20
1112.266006469727
  0
SEQEND
  0
POINT
  8
2
 10
1889.252014160156
 20
1290.827941894531
  0
POINT
  8
3
 10
1914.143981933594
 20
1304.035949707031
  0
POINT
  8
3
 10
2079.497985839844
 20
1325.879974365234
  0
POINT
  8
3
 10
2080.005950927734
 20
1374.140014648438
  0
POINT
  8
3
 10
2237.232055664063
 20
1446.022033691406
  0
POINT
  8
3
 10
2438.907928466797
 20
983.4880065917969
  0
POINT
  8
3
 10
2426.970062255859
 20
985.0119781494141
  0
POINT
  8
3
 10
2413.507995605469
 20
987.2979736328125
  0
POINT
  8
3
 10
2370.328063964844
 20
996.9499969482422
  0
POINT
  8
3
 10
2354.833984375000
 20
1000.251998901367
  0
POINT
  8
3
 10
2321.718132281721
 20
1006.174304144833
  0
POINT
  8
3
 10
2297.937927246094
 20
1009.649963378906
  0
POINT
  8
3
 10
2276.094055175781
 20
1012.444000244141
  0
POINT
  8
3
 10
2255.773925781250
 20
1014.729995727539
  0
POINT
  8
3
 10
2236.215972900391
 20
1016.253967285156
  0
POINT
  8
3
 10
2214.626007080078
 20
1017.524032592773
  0
POINT
  8
3
 10
2150.364074707031
 20
1018.794021606445
  0
POINT
  8
3
 10
2097.532043457031
 20
1019.048004150391
  0
ENDBLK
  0
BLOCK
  8
1
  2
3
 70
64
 10
0.0
 20
0.0
  0
LINE
  8
7
 10
2637.891540527344
 20
1235.328979492188
 11
2862.986450195313
 21
1235.328979492188
  0
TEXT
  8
1
 10
2639.307220458984
 20
1253.156392860413
 40
23.15248489379883
 50
0.0000000000000000
 51
0.0000000000000000
 71
0
  1
Size: Base
  0
TEXT
  8
1
 10
2639.307220458984
 20
1278.624126243592
 40
23.15248489379883
 50
0.0000000000000000
 51
0.0000000000000000
 71
0
  1
Piece Name: M14-3
  0
TEXT
  8
1
 10
2639.307220458984
 20
1227.688659477234
 40
23.15248489379883
 50
0.0000000000000000
 51
0.0000000000000000
 71
0
  1
Sample Size
  0
TEXT
  8
1
 10
2639.307220458984
 20
1202.220926094055
 40
23.15248489379883
 50
0.0000000000000000
 51
0.0000000000000000
 71
0
  1
Quantity: 1
  0
POLYLINE
  8
1
 66
1
 70
1
  0
VERTEX
  8
1
 10
2656.839904785156
 20
1062.735977172852
  0
VERTEX
  8
1
 10
2590.799865722656
 20
1067.816009521484
  0
VERTEX
  8
1
 10
2586.228027343750
 20
1069.085998535156
  0
VERTEX
  8
1
 10
2581.910095214844
 20
1070.864028930664
  0
VERTEX
  8
1
 10
2577.846069335938
 20
1073.150024414063
  0
VERTEX
  8
1
 10
2574.544067382813
 20
1075.690002441406
  0
VERTEX
  8
1
 10
2570.733947753906
 20
1079.245986938477
  0
VERTEX
  8
1
 10
2567.685852050781
 20
1083.817977905273
  0
VERTEX
  8
1
 10
2564.891967773438
 20
1088.644027709961
  0
VERTEX
  8
1
 10
2562.860107421875
 20
1093.977966308594
  0
VERTEX
  8
1
 10
2562.860107421875
 20
1269.492034912109
  0
VERTEX
  8
1
 10
2562.351989746094
 20
1278.889999389648
  0
VERTEX
  8
1
 10
2562.860107421875
 20
1288.034057617188
  0
VERTEX
  8
1
 10
2564.638061523438
 20
1296.670074462891
  0
VERTEX
  8
1
 10
2567.685852050781
 20
1304.290008544922
  0
VERTEX
  8
1
 10
2570.733947753906
 20
1309.369964599609
  0
VERTEX
  8
1
 10
2574.544067382813
 20
1314.450073242188
  0
VERTEX
  8
1
 10
2579.624023437500
 20
1319.530029296875
  0
VERTEX
  8
1
 10
2587.243957519531
 20
1326.134033203125
  0
VERTEX
  8
1
 10
2592.832031250000
 20
1330.451965332031
  0
VERTEX
  8
1
 10
2599.436035156250
 20
1334.770050048828
  0
VERTEX
  8
1
 10
2626.105957031250
 20
1348.486022949219
 70
8
  0
VERTEX
  8
1
 10
2652.268066406250
 20
1361.186065673828
  0
VERTEX
  8
1
 10
2658.617858886719
 20
1365.503997802734
  0
VERTEX
  8
1
 10
2663.698120117188
 20
1369.821929931641
  0
VERTEX
  8
1
 10
2671.064147949219
 20
1378.712005615234
  0
VERTEX
  8
1
 10
2676.144104003906
 20
1387.093963623047
  0
VERTEX
  8
1
 10
2678.175964355469
 20
1393.190002441406
  0
VERTEX
  8
1
 10
2681.224060058594
 20
1406.905975341797
 70
8
  0
VERTEX
  8
1
 10
2686.304016113281
 20
1428.495941162109
  0
VERTEX
  8
1
 10
2688.590087890625
 20
1434.591979980469
  0
VERTEX
  8
1
 10
2691.130065917969
 20
1439.671936035156
  0
VERTEX
  8
1
 10
2695.194091796875
 20
1445.514068603516
  0
VERTEX
  8
1
 10
2699.765930175781
 20
1450.847930908203
  0
VERTEX
  8
1
 10
2704.083862304688
 20
1455.166015625000
  0
VERTEX
  8
1
 10
2708.909912109375
 20
1458.468017578125
  0
VERTEX
  8
1
 10
2715.768127441406
 20
1462.023925781250
  0
VERTEX
  8
1
 10
2723.641967773438
 20
1464.564056396484
  0
VERTEX
  8
1
 10
2732.278137207031
 20
1465.834045410156
  0
VERTEX
  8
1
 10
2907.538146972656
 20
1465.834045410156
  0
VERTEX
  8
1
 10
2912.872009277344
 20
1465.325927734375
  0
VERTEX
  8
1
 10
2918.205871582031
 20
1464.309997558594
  0
VERTEX
  8
1
 10
2923.031921386719
 20
1462.532043457031
  0
VERTEX
  8
1
 10
2928.619995117188
 20
1459.738006591797
  0
VERTEX
  8
1
 10
2933.446044921875
 20
1456.690063476563
  0
VERTEX
  8
1
 10
2937.255859375000
 20
1453.388061523438
  0
VERTEX
  8
1
 10
2940.050048828125
 20
1449.577941894531
  0
VERTEX
  8
1
 10
2941.828002929688
 20
1446.022033691406
  0
VERTEX
  8
1
 10
2943.098144531250
 20
1441.703948974609
  0
VERTEX
  8
1
 10
2944.367980957031
 20
1429.257965087891
  0
VERTEX
  8
1
 10
2944.114074707031
 20
1419.859924316406
  0
VERTEX
  8
1
 10
2941.319885253906
 20
1401.063995361328
 70
8
  0
VERTEX
  8
1
 10
2938.426738975440
 20
1373.639960540581
 70
8
  0
VERTEX
  8
1
 10
2938.017883300781
 20
1369.060058593750
  0
VERTEX
  8
1
 10
2938.017883300781
 20
1068.069992065430
  0
VERTEX
  8
1
 10
2938.526000976563
 20
1060.449981689453
  0
VERTEX
  8
1
 10
2938.526000976563
 20
1052.829971313477
  0
VERTEX
  8
1
 10
2938.017883300781
 20
1045.210037231445
  0
VERTEX
  8
1
 10
2937.001953125000
 20
1038.097991943359
  0
VERTEX
  8
1
 10
2934.970092773438
 20
1027.938003540039
  0
VERTEX
  8
1
 10
2932.684020996094
 20
1022.350006103516
  0
VERTEX
  8
1
 10
2930.397949218750
 20
1019.555969238281
 70
8
  0
VERTEX
  8
1
 10
2927.857971191406
 20
1016.762008666992
  0
VERTEX
  8
1
 10
2925.064086914063
 20
1014.729995727539
  0
VERTEX
  8
1
 10
2921.762084960938
 20
1012.951965332031
  0
VERTEX
  8
1
 10
2917.698059082031
 20
1011.427993774414
  0
VERTEX
  8
1
 10
2913.125915527344
 20
1010.665969848633
  0
VERTEX
  8
1
 10
2723.133850097656
 20
1005.332031250000
  0
VERTEX
  8
1
 10
2717.037963867188
 20
1004.823989868164
  0
VERTEX
  8
1
 10
2711.449890136719
 20
1005.332031250000
  0
VERTEX
  8
1
 10
2706.624145507813
 20
1006.602020263672
  0
VERTEX
  8
1
 10
2702.560119628906
 20
1008.888015747070
  0
VERTEX
  8
1
 10
2698.496093750000
 20
1013.460006713867
  0
VERTEX
  8
1
 10
2694.939880371094
 20
1020.317993164063
  0
VERTEX
  8
1
 10
2693.670043945313
 20
1024.128036499023
  0
VERTEX
  8
1
 10
2692.654113769531
 20
1034.542007446289
  0
VERTEX
  8
1
 10
2691.637878417969
 20
1037.844009399414
  0
VERTEX
  8
1
 10
2688.590087890625
 20
1044.448013305664
  0
VERTEX
  8
1
 10
2684.526062011719
 20
1050.289993286133
  0
VERTEX
  8
1
 10
2679.953918457031
 20
1054.861984252930
  0
VERTEX
  8
1
 10
2675.127868652344
 20
1058.417968750000
  0
VERTEX
  8
1
 10
2671.064147949219
 20
1060.195999145508
  0
VERTEX
  8
1
 10
2666.745910644531
 20
1061.719970703125
  0
VERTEX
  8
1
 10
2661.919860839844
 20
1062.481994628906
  0
SEQEND
  0
POINT
  8
2
 10
2656.839904785156
 20
1062.735977172852
  0
POINT
  8
3
 10
2626.105957031250
 20
1348.486022949219
  0
POINT
  8
3
 10
2681.224060058594
 20
1406.905975341797
  0
POINT
  8
3
 10
2941.319885253906
 20
1401.063995361328
  0
POINT
  8
3
 10
2930.397949218750
 20
1019.555969238281
  0
ENDBLK
  0
BLOCK
  8
1
  2
4
 70
64
 10
0.0
 20
0.0
  0
LINE
  8
7
 10
2631.236877441406
 20
753.3640289306641
 11
2856.179199218750
 21
753.3640289306641
  0
TEXT
  8
1
 10
2632.575958251953
 20
771.1914422988891
 40
23.15248489379883
 50
0.0000000000000000
 51
0.0000000000000000
 71
0
  1
Size: Base
  0
TEXT
  8
1
 10
2632.575958251953
 20
796.6591756820679
 40
23.15248489379883
 50
0.0000000000000000
 51
0.0000000000000000
 71
0
  1
Piece Name: M14-4
  0
TEXT
  8
1
 10
2632.575958251953
 20
745.7237089157104
 40
23.15248489379883
 50
0.0000000000000000
 51
0.0000000000000000
 71
0
  1
Sample Size
  0
TEXT
  8
1
 10
2632.575958251953
 20
720.2559755325318
 40
23.15248489379883
 50
0.0000000000000000
 51
0.0000000000000000
 71
0
  1
Quantity: 1
  0
POLYLINE
  8
1
 66
1
 70
1
  0
VERTEX
  8
1
 10
2583.941955566406
 20
921.0040283203125
  0
VERTEX
  8
1
 10
2650.235900878906
 20
925.8300018310547
  0
VERTEX
  8
1
 10
2655.061950683594
 20
926.0839843750000
  0
VERTEX
  8
1
 10
2659.888000488281
 20
927.0999908447266
  0
VERTEX
  8
1
 10
2664.460144042969
 20
928.3699798583984
  0
VERTEX
  8
1
 10
2668.523864746094
 20
930.1480102539063
  0
VERTEX
  8
1
 10
2673.349914550781
 20
933.7039947509766
  0
VERTEX
  8
1
 10
2677.922058105469
 20
938.2759857177734
  0
VERTEX
  8
1
 10
2681.731872558594
 20
944.1179656982422
  0
VERTEX
  8
1
 10
2685.033874511719
 20
950.7219696044922
  0
VERTEX
  8
1
 10
2685.795898437500
 20
954.0239715576172
  0
VERTEX
  8
1
 10
2687.066040039063
 20
964.4380187988281
  0
VERTEX
  8
1
 10
2688.081970214844
 20
968.2479858398438
  0
VERTEX
  8
1
 10
2691.892089843750
 20
975.1059722900391
  0
VERTEX
  8
1
 10
2695.956115722656
 20
979.6779632568359
  0
VERTEX
  8
1
 10
2700.020141601563
 20
981.9640350341797
  0
VERTEX
  8
1
 10
2704.845886230469
 20
983.4880065917969
  0
VERTEX
  8
1
 10
2710.433959960938
 20
983.9959716796875
  0
VERTEX
  8
1
 10
2716.275939941406
 20
983.2340240478516
  0
VERTEX
  8
1
 10
2906.521911621094
 20
977.9000091552734
  0
VERTEX
  8
1
 10
2911.094055175781
 20
977.1379852294922
  0
VERTEX
  8
1
 10
2915.158081054688
 20
975.6140136718750
  0
VERTEX
  8
1
 10
2918.205871582031
 20
973.8359832763672
  0
VERTEX
  8
1
 10
2921.253967285156
 20
971.8039703369141
  0
VERTEX
  8
1
 10
2923.793945312500
 20
969.0100097656250
 70
8
  0
VERTEX
  8
1
 10
2926.080017089844
 20
966.2159729003906
  0
VERTEX
  8
1
 10
2928.366088867188
 20
960.6279754638672
  0
VERTEX
  8
1
 10
2930.144042968750
 20
950.7219696044922
 70
8
  0
VERTEX
  8
1
 10
2931.159973144531
 20
943.3560180664063
  0
VERTEX
  8
1
 10
2931.668090820313
 20
935.7360076904297
 70
8
  0
VERTEX
  8
1
 10
2931.921997070313
 20
928.1159973144531
  0
VERTEX
  8
1
 10
2931.159973144531
 20
920.4959869384766
  0
VERTEX
  8
1
 10
2931.159973144531
 20
619.7600173950195
  0
VERTEX
  8
1
 10
2933.893041563908
 20
592.3158674844507
 70
8
  0
VERTEX
  8
1
 10
2934.461975097656
 20
587.7560043334961
 70
8
  0
VERTEX
  8
1
 10
2937.255859375000
 20
568.7060165405273
  0
VERTEX
  8
1
 10
2937.510070800781
 20
559.5619964599609
  0
VERTEX
  8
1
 10
2936.239929199219
 20
546.8619918823242
  0
VERTEX
  8
1
 10
2935.223999023438
 20
542.5439834594727
  0
VERTEX
  8
1
 10
2933.446044921875
 20
538.9879989624023
  0
VERTEX
  8
1
 10
2930.397949218750
 20
535.4320144653320
  0
VERTEX
  8
1
 10
2926.588134765625
 20
531.8759918212891
  0
VERTEX
  8
1
 10
2922.015991210938
 20
528.8280105590820
  0
VERTEX
  8
1
 10
2916.174011230469
 20
526.0340118408203
  0
VERTEX
  8
1
 10
2911.347961425781
 20
524.2559814453125
  0
VERTEX
  8
1
 10
2906.268005371094
 20
523.2400131225586
  0
VERTEX
  8
1
 10
2900.679931640625
 20
522.7320098876953
  0
VERTEX
  8
1
 10
2725.419921875000
 20
522.7320098876953
  0
VERTEX
  8
1
 10
2717.037963867188
 20
524.2559814453125
  0
VERTEX
  8
1
 10
2709.164123535156
 20
526.5420150756836
  0
VERTEX
  8
1
 10
2702.305908203125
 20
530.0979995727539
  0
VERTEX
  8
1
 10
2697.479858398438
 20
533.4000015258789
  0
VERTEX
  8
1
 10
2692.908020019531
 20
537.7180099487305
  0
VERTEX
  8
1
 10
2688.590087890625
 20
543.0519866943359
  0
VERTEX
  8
1
 10
2684.526062011719
 20
549.1479873657227
  0
VERTEX
  8
1
 10
2681.731872558594
 20
553.9739990234375
  0
VERTEX
  8
1
 10
2679.700012207031
 20
560.0699996948242
  0
VERTEX
  8
1
 10
2674.366149902344
 20
581.6600036621094
 70
8
  0
VERTEX
  8
1
 10
2671.571960449219
 20
595.3760147094727
  0
VERTEX
  8
1
 10
2669.540100097656
 20
601.4720153808594
  0
VERTEX
  8
1
 10
2664.460144042969
 20
609.8540115356445
  0
VERTEX
  8
1
 10
2656.839904785156
 20
618.7440109252930
  0
VERTEX
  8
1
 10
2652.013854980469
 20
623.3160018920898
  0
VERTEX
  8
1
 10
2645.664062500000
 20
627.3799896240234
  0
VERTEX
  8
1
 10
2619.501953125000
 20
640.0800323486328
 70
8
  0
VERTEX
  8
1
 10
2592.578125000000
 20
654.0499877929688
  0
VERTEX
  8
1
 10
2585.974121093750
 20
658.1140136718750
  0
VERTEX
  8
1
 10
2580.386047363281
 20
662.4320220947266
  0
VERTEX
  8
1
 10
2573.020019531250
 20
669.0360260009766
  0
VERTEX
  8
1
 10
2567.940063476563
 20
674.1159820556641
  0
VERTEX
  8
1
 10
2563.876037597656
 20
679.1960144042969
  0
VERTEX
  8
1
 10
2560.827941894531
 20
684.2759704589844
  0
VERTEX
  8
1
 10
2558.034057617188
 20
692.1499633789063
  0
VERTEX
  8
1
 10
2556.002044677734
 20
700.5319976806641
  0
VERTEX
  8
1
 10
2555.493927001953
 20
709.6759796142578
  0
VERTEX
  8
1
 10
2556.255950927734
 20
719.0740203857422
  0
VERTEX
  8
1
 10
2556.255950927734
 20
894.5880126953125
  0
VERTEX
  8
1
 10
2558.287963867188
 20
899.9220275878906
  0
VERTEX
  8
1
 10
2560.827941894531
 20
905.0019836425781
  0
VERTEX
  8
1
 10
2564.129943847656
 20
909.3199920654297
  0
VERTEX
  8
1
 10
2567.685852050781
 20
912.8759765625000
  0
VERTEX
  8
1
 10
2571.242065429688
 20
915.4160308837891
  0
VERTEX
  8
1
 10
2575.051879882813
 20
917.7020263671875
  0
VERTEX
  8
1
 10
2579.370117187500
 20
919.4799804687500
  0
SEQEND
  0
POINT
  8
2
 10
2583.941955566406
 20
921.0040283203125
  0
POINT
  8
3
 10
2923.793945312500
 20
969.0100097656250
  0
POINT
  8
3
 10
2930.144042968750
 20
950.7219696044922
  0
POINT
  8
3
 10
2931.668090820313
 20
935.7360076904297
  0
POINT
  8
3
 10
2934.461975097656
 20
587.7560043334961
  0
POINT
  8
3
 10
2674.366149902344
 20
581.6600036621094
  0
POINT
  8
3
 10
2619.501953125000
 20
640.0800323486328
  0
ENDBLK
  0
ENDSEC
  0
SECTION
  2
ENTITIES
  0
INSERT
  8
1
  2
1
 10
0.0
 20
0.0
  0
INSERT
  8
1
  2
2
 10
0.0
 20
0.0
  0
INSERT
  8
1
  2
3
 10
0.0
 20
0.0
  0
INSERT
  8
1
  2
4
 10
0.0
 20
0.0
  0
TEXT
  8
1
 10
1753.869934082031
 20
506.7320098876953
 40
8.000000000000000
 50
0.0000000000000000
 51
0.0000000000000000
 71
0
  1
Sample Size: Base
  0
TEXT
  8
1
 10
1753.869934082031
 20
498.7320098876953
 40
8.000000000000000
 50
0.0000000000000000
 51
0.0000000000000000
 71
0
  1
Units: METRIC
  0
TEXT
  8
1
 10
1753.869934082031
 20
490.7320098876953
 40
8.000000000000000
 50
0.0000000000000000
 51
0.0000000000000000
 71
0
  1
Tolerance: 0.020000
  0
TEXT
  8
1
 10
1753.869934082031
 20
482.7320098876953
 40
8.000000000000000
 50
0.0000000000000000
 51
0.0000000000000000
 71
0
  1
Creation Date: 03-05-2019
  0
TEXT
  8
1
 10
1753.869934082031
 20
474.7320098876953
 40
8.000000000000000
 50
0.0000000000000000
 51
0.0000000000000000
 71
0
  1
Creation Time: 13:55
  0
TEXT
  8
1
 10
1753.869934082031
 20
466.7320098876953
 40
8.000000000000000
 50
0.0000000000000000
 51
0.0000000000000000
 71
0
  1
Author: Optitex
  0
ENDSEC
  0
EOF
