  0
SECTION
  2
HEADER
  9
$ACADVER
  1
AC1027
  9
$ACADMAINTVER
 70
105
  9
$DWGCODEPAGE
  3
ANSI_1252
  9
$LASTSAVEDBY
  1
ezdxf
  9
$REQUIREDVERSIONS
160
0
  9
$INSBASE
 10
0.0
 20
0.0
 30
0.0
  9
$EXTMIN
 10
1e+20
 20
1e+20
 30
1e+20
  9
$EXTMAX
 10
-1e+20
 20
-1e+20
 30
-1e+20
  9
$LIMMIN
 10
0.0
 20
0.0
  9
$LIMMAX
 10
420.0
 20
297.0
  9
$ORTHOMODE
 70
0
  9
$REGENMODE
 70
1
  9
$FILLMODE
 70
1
  9
$QTEXTMODE
 70
0
  9
$MIRRTEXT
 70
1
  9
$LTSCALE
 40
1.0
  9
$ATTMODE
 70
1
  9
$TEXTSIZE
 40
2.5
  9
$TRACEWID
 40
1.0
  9
$TEXTSTYLE
  7
Standard
  9
$CLAYER
  8
0
  9
$CELTYPE
  6
ByLayer
  9
$CECOLOR
 62
256
  9
$CELTSCALE
 40
1.0
  9
$DISPSILH
 70
0
  9
$DIMSCALE
 40
1.0
  9
$DIMASZ
 40
2.5
  9
$DIMEXO
 40
0.625
  9
$DIMDLI
 40
3.75
  9
$DIMRND
 40
0.0
  9
$DIMDLE
 40
0.0
  9
$DIMEXE
 40
1.25
  9
$DIMTP
 40
0.0
  9
$DIMTM
 40
0.0
  9
$DIMTXT
 40
2.5
  9
$DIMCEN
 40
2.5
  9
$DIMTSZ
 40
0.0
  9
$DIMTOL
 70
0
  9
$DIMLIM
 70
0
  9
$DIMTIH
 70
0
  9
$DIMTOH
 70
0
  9
$DIMSE1
 70
0
  9
$DIMSE2
 70
0
  9
$DIMTAD
 70
1
  9
$DIMZIN
 70
8
  9
$DIMBLK
  1

  9
$DIMASO
 70
1
  9
$DIMSHO
 70
1
  9
$DIMPOST
  1

  9
$DIMAPOST
  1

  9
$DIMALT
 70
0
  9
$DIMALTD
 70
3
  9
$DIMALTF
 40
0.03937007874
  9
$DIMLFAC
 40
1.0
  9
$DIMTOFL
 70
1
  9
$DIMTVP
 40
0.0
  9
$DIMTIX
 70
0
  9
$DIMSOXD
 70
0
  9
$DIMSAH
 70
0
  9
$DIMBLK1
  1

  9
$DIMBLK2
  1

  9
$DIMSTYLE
  2
ISO-25
  9
$DIMCLRD
 70
0
  9
$DIMCLRE
 70
0
  9
$DIMCLRT
 70
0
  9
$DIMTFAC
 40
1.0
  9
$DIMGAP
 40
0.625
  9
$DIMJUST
 70
0
  9
$DIMSD1
 70
0
  9
$DIMSD2
 70
0
  9
$DIMTOLJ
 70
0
  9
$DIMTZIN
 70
8
  9
$DIMALTZ
 70
0
  9
$DIMALTTZ
 70
0
  9
$DIMUPT
 70
0
  9
$DIMDEC
 70
2
  9
$DIMTDEC
 70
2
  9
$DIMALTU
 70
2
  9
$DIMALTTD
 70
3
  9
$DIMTXSTY
  7
Standard
  9
$DIMAUNIT
 70
0
  9
$DIMADEC
 70
0
  9
$DIMALTRND
 40
0.0
  9
$DIMAZIN
 70
0
  9
$DIMDSEP
 70
44
  9
$DIMATFIT
 70
3
  9
$DIMFRAC
 70
0
  9
$DIMLDRBLK
  1

  9
$DIMLUNIT
 70
2
  9
$DIMLWD
 70
-2
  9
$DIMLWE
 70
-2
  9
$DIMTMOVE
 70
0
  9
$DIMFXL
 40
1.0
  9
$DIMFXLON
 70
0
  9
$DIMJOGANG
 40
0.785398163397
  9
$DIMTFILL
 70
0
  9
$DIMTFILLCLR
 70
0
  9
$DIMARCSYM
 70
0
  9
$DIMLTYPE
  6

  9
$DIMLTEX1
  6

  9
$DIMLTEX2
  6

  9
$DIMTXTDIRECTION
 70
0
  9
$LUNITS
 70
2
  9
$LUPREC
 70
4
  9
$SKETCHINC
 40
1.0
  9
$FILLETRAD
 40
10.0
  9
$AUNITS
 70
0
  9
$AUPREC
 70
2
  9
$MENU
  1
.
  9
$ELEVATION
 40
0.0
  9
$PELEVATION
 40
0.0
  9
$THICKNESS
 40
0.0
  9
$LIMCHECK
 70
0
  9
$CHAMFERA
 40
0.0
  9
$CHAMFERB
 40
0.0
  9
$CHAMFERC
 40
0.0
  9
$CHAMFERD
 40
0.0
  9
$SKPOLY
 70
0
  9
$TDCREATE
 40
2460972.6647800924
  9
$TDUCREATE
 40
2458532.153996898
  9
$TDUPDATE
 40
2460972.6647800924
  9
$TDUUPDATE
 40
2458532.1544311
  9
$TDINDWG
 40
0.0
  9
$TDUSRTIMER
 40
0.0
  9
$USRTIMER
 70
1
  9
$ANGBASE
 50
0.0
  9
$ANGDIR
 70
0
  9
$PDMODE
 70
0
  9
$PDSIZE
 40
0.0
  9
$PLINEWID
 40
0.0
  9
$SPLFRAME
 70
0
  9
$SPLINETYPE
 70
6
  9
$SPLINESEGS
 70
8
  9
$HANDSEED
  5
46
  9
$SURFTAB1
 70
6
  9
$SURFTAB2
 70
6
  9
$SURFTYPE
 70
6
  9
$SURFU
 70
6
  9
$SURFV
 70
6
  9
$UCSBASE
  2

  9
$UCSNAME
  2

  9
$UCSORG
 10
0.0
 20
0.0
 30
0.0
  9
$UCSXDIR
 10
1.0
 20
0.0
 30
0.0
  9
$UCSYDIR
 10
0.0
 20
1.0
 30
0.0
  9
$UCSORTHOREF
  2

  9
$UCSORTHOVIEW
 70
0
  9
$UCSORGTOP
 10
0.0
 20
0.0
 30
0.0
  9
$UCSORGBOTTOM
 10
0.0
 20
0.0
 30
0.0
  9
$UCSORGLEFT
 10
0.0
 20
0.0
 30
0.0
  9
$UCSORGRIGHT
 10
0.0
 20
0.0
 30
0.0
  9
$UCSORGFRONT
 10
0.0
 20
0.0
 30
0.0
  9
$UCSORGBACK
 10
0.0
 20
0.0
 30
0.0
  9
$PUCSBASE
  2

  9
$PUCSNAME
  2

  9
$PUCSORG
 10
0.0
 20
0.0
 30
0.0
  9
$PUCSXDIR
 10
1.0
 20
0.0
 30
0.0
  9
$PUCSYDIR
 10
0.0
 20
1.0
 30
0.0
  9
$PUCSORTHOREF
  2

  9
$PUCSORTHOVIEW
 70
0
  9
$PUCSORGTOP
 10
0.0
 20
0.0
 30
0.0
  9
$PUCSORGBOTTOM
 10
0.0
 20
0.0
 30
0.0
  9
$PUCSORGLEFT
 10
0.0
 20
0.0
 30
0.0
  9
$PUCSORGRIGHT
 10
0.0
 20
0.0
 30
0.0
  9
$PUCSORGFRONT
 10
0.0
 20
0.0
 30
0.0
  9
$PUCSORGBACK
 10
0.0
 20
0.0
 30
0.0
  9
$USERI1
 70
0
  9
$USERI2
 70
0
  9
$USERI3
 70
0
  9
$USERI4
 70
0
  9
$USERI5
 70
0
  9
$USERR1
 40
0.0
  9
$USERR2
 40
0.0
  9
$USERR3
 40
0.0
  9
$USERR4
 40
0.0
  9
$USERR5
 40
0.0
  9
$WORLDVIEW
 70
1
  9
$SHADEDGE
 70
3
  9
$SHADEDIF
 70
70
  9
$TILEMODE
 70
1
  9
$MAXACTVP
 70
64
  9
$PINSBASE
 10
0.0
 20
0.0
 30
0.0
  9
$PLIMCHECK
 70
0
  9
$PEXTMIN
 10
1e+20
 20
1e+20
 30
1e+20
  9
$PEXTMAX
 10
-1e+20
 20
-1e+20
 30
-1e+20
  9
$PLIMMIN
 10
0.0
 20
0.0
  9
$PLIMMAX
 10
420.0
 20
297.0
  9
$UNITMODE
 70
0
  9
$VISRETAIN
 70
1
  9
$PLINEGEN
 70
0
  9
$PSLTSCALE
 70
1
  9
$TREEDEPTH
 70
3020
  9
$CMLSTYLE
  2
Standard
  9
$CMLJUST
 70
0
  9
$CMLSCALE
 40
20.0
  9
$PROXYGRAPHICS
 70
1
  9
$MEASUREMENT
 70
1
  9
$CELWEIGHT
370
-1
  9
$ENDCAPS
280
0
  9
$JOINSTYLE
280
0
  9
$LWDISPLAY
290
0
  9
$INSUNITS
 70
6
  9
$HYPERLINKBASE
  1

  9
$STYLESHEET
  1

  9
$XEDIT
290
1
  9
$CEPSNTYPE
380
0
  9
$PSTYLEMODE
290
1
  9
$FINGERPRINTGUID
  2
{1E81D681-4C88-4F95-83C4-5E3A50493054}
  9
$VERSIONGUID
  2
{EBA3FEB1-512C-4F8C-85C4-2F8C21715D78}
  9
$EXTNAMES
290
1
  9
$PSVPSCALE
 40
0.0
  9
$OLESTARTUP
290
0
  9
$SORTENTS
280
127
  9
$INDEXCTL
280
0
  9
$HIDETEXT
280
1
  9
$XCLIPFRAME
280
1
  9
$HALOGAP
280
0
  9
$OBSCOLOR
 70
257
  9
$OBSLTYPE
280
0
  9
$INTERSECTIONDISPLAY
280
0
  9
$INTERSECTIONCOLOR
 70
257
  9
$DIMASSOC
280
2
  9
$PROJECTNAME
  1

  9
$CAMERADISPLAY
290
0
  9
$LENSLENGTH
 40
50.0
  9
$CAMERAHEIGHT
 40
0.0
  9
$STEPSPERSEC
 40
24.0
  9
$STEPSIZE
 40
100.0
  9
$3DDWFPREC
 40
2.0
  9
$PSOLWIDTH
 40
0.005
  9
$PSOLHEIGHT
 40
0.08
  9
$LOFTANG1
 40
1.570796326795
  9
$LOFTANG2
 40
1.570796326795
  9
$LOFTMAG1
 40
0.0
  9
$LOFTMAG2
 40
0.0
  9
$LOFTPARAM
 70
7
  9
$LOFTNORMALS
280
1
  9
$LATITUDE
 40
37.795
  9
$LONGITUDE
 40
-122.394
  9
$NORTHDIRECTION
 40
0.0
  9
$TIMEZONE
 70
-8000
  9
$LIGHTGLYPHDISPLAY
280
1
  9
$TILEMODELIGHTSYNCH
280
1
  9
$CMATERIAL
347
20
  9
$SOLIDHIST
280
0
  9
$SHOWHIST
280
1
  9
$DWFFRAME
280
2
  9
$DGNFRAME
280
2
  9
$REALWORLDSCALE
290
1
  9
$INTERFERECOLOR
 62
256
  9
$CSHADOW
280
0
  9
$SHADOWPLANELOCATION
 40
0.0
  0
ENDSEC
  0
SECTION
  2
CLASSES
  0
CLASS
  1
ACDBDICTIONARYWDFLT
  2
AcDbDictionaryWithDefault
  3
ObjectDBX Classes
 90
0
 91
0
280
0
281
0
  0
CLASS
  1
SUN
  2
AcDbSun
  3
SCENEOE
 90
1153
 91
0
280
0
281
0
  0
CLASS
  1
VISUALSTYLE
  2
AcDbVisualStyle
  3
ObjectDBX Classes
 90
4095
 91
0
280
0
281
0
  0
CLASS
  1
MATERIAL
  2
AcDbMaterial
  3
ObjectDBX Classes
 90
1153
 91
0
280
0
281
0
  0
CLASS
  1
SCALE
  2
AcDbScale
  3
ObjectDBX Classes
 90
1153
 91
0
280
0
281
0
  0
CLASS
  1
TABLESTYLE
  2
AcDbTableStyle
  3
ObjectDBX Classes
 90
4095
 91
0
280
0
281
0
  0
CLASS
  1
MLEADERSTYLE
  2
AcDbMLeaderStyle
  3
ACDB_MLEADERSTYLE_CLASS
 90
4095
 91
0
280
0
281
0
  0
CLASS
  1
DICTIONARYVAR
  2
AcDbDictionaryVar
  3
ObjectDBX Classes
 90
0
 91
0
280
0
281
0
  0
CLASS
  1
CELLSTYLEMAP
  2
AcDbCellStyleMap
  3
ObjectDBX Classes
 90
1152
 91
0
280
0
281
0
  0
CLASS
  1
MENTALRAYRENDERSETTINGS
  2
AcDbMentalRayRenderSettings
  3
SCENEOE
 90
1024
 91
0
280
0
281
0
  0
CLASS
  1
ACDBDETAILVIEWSTYLE
  2
AcDbDetailViewStyle
  3
ObjectDBX Classes
 90
1025
 91
0
280
0
281
0
  0
CLASS
  1
ACDBSECTIONVIEWSTYLE
  2
AcDbSectionViewStyle
  3
ObjectDBX Classes
 90
1025
 91
0
280
0
281
0
  0
CLASS
  1
RASTERVARIABLES
  2
AcDbRasterVariables
  3
ISM
 90
0
 91
0
280
0
281
0
  0
CLASS
  1
ACDBPLACEHOLDER
  2
AcDbPlaceHolder
  3
ObjectDBX Classes
 90
0
 91
0
280
0
281
0
  0
CLASS
  1
LAYOUT
  2
AcDbLayout
  3
ObjectDBX Classes
 90
0
 91
0
280
0
281
0
  0
ENDSEC
  0
SECTION
  2
TABLES
  0
TABLE
  2
VPORT
  5
8
330
0
100
AcDbSymbolTable
 70
1
  0
VPORT
  5
23
330
8
100
AcDbSymbolTableRecord
100
AcDbViewportTableRecord
  2
*Active
 70
0
 10
0.0
 20
0.0
 11
1.0
 21
1.0
 12
0.0
 22
0.0
 13
0.0
 23
0.0
 14
0.5
 24
0.5
 15
0.5
 25
0.5
 16
0.0
 26
0.0
 36
1.0
 17
0.0
 27
0.0
 37
0.0
 40
1000.0
 41
1.34
 42
50.0
 43
0.0
 44
0.0
 50
0.0
 51
0.0
 71
0
 72
1000
 73
1
 74
3
 75
0
 76
0
 77
0
 78
0
281
0
 65
0
146
0.0
  0
ENDTAB
  0
TABLE
  2
LTYPE
  5
2
330
0
100
AcDbSymbolTable
 70
3
  0
LTYPE
  5
24
330
2
100
AcDbSymbolTableRecord
100
AcDbLinetypeTableRecord
  2
ByBlock
 70
0
  3

 72
65
 73
0
 40
0.0
  0
LTYPE
  5
25
330
2
100
AcDbSymbolTableRecord
100
AcDbLinetypeTableRecord
  2
ByLayer
 70
0
  3

 72
65
 73
0
 40
0.0
  0
LTYPE
  5
26
330
2
100
AcDbSymbolTableRecord
100
AcDbLinetypeTableRecord
  2
Continuous
 70
0
  3

 72
65
 73
0
 40
0.0
  0
ENDTAB
  0
TABLE
  2
LAYER
  5
1
330
0
100
AcDbSymbolTable
 70
2
  0
LAYER
  5
27
330
1
100
AcDbSymbolTableRecord
100
AcDbLayerTableRecord
  2
0
 70
0
 62
7
  6
Continuous
370
-3
390
13
347
21
  0
LAYER
  5
28
330
1
100
AcDbSymbolTableRecord
100
AcDbLayerTableRecord
  2
Defpoints
 70
0
 62
7
  6
Continuous
290
0
370
-3
390
13
347
21
  0
ENDTAB
  0
TABLE
  2
STYLE
  5
5
330
0
100
AcDbSymbolTable
 70
1
  0
STYLE
  5
29
330
5
100
AcDbSymbolTableRecord
100
AcDbTextStyleTableRecord
  2
Standard
 70
0
 40
0.0
 41
1.0
 50
0.0
 71
0
 42
2.5
  3
txt
  4

  0
ENDTAB
  0
TABLE
  2
VIEW
  5
7
330
0
100
AcDbSymbolTable
 70
0
  0
ENDTAB
  0
TABLE
  2
UCS
  5
6
330
0
100
AcDbSymbolTable
 70
0
  0
ENDTAB
  0
TABLE
  2
APPID
  5
3
330
0
100
AcDbSymbolTable
 70
3
  0
APPID
  5
2A
330
3
100
AcDbSymbolTableRecord
100
AcDbRegAppTableRecord
  2
ACAD
 70
0
  0
APPID
  5
43
330
3
100
AcDbSymbolTableRecord
100
AcDbRegAppTableRecord
  2
HATCHBACKGROUNDCOLOR
 70
0
  0
APPID
  5
44
330
3
100
AcDbSymbolTableRecord
100
AcDbRegAppTableRecord
  2
EZDXF
 70
0
  0
ENDTAB
  0
TABLE
  2
DIMSTYLE
  5
4
330
0
100
AcDbSymbolTable
 70
1
100
AcDbDimStyleTable
  0
DIMSTYLE
105
2B
330
4
100
AcDbSymbolTableRecord
100
AcDbDimStyleTableRecord
  2
Standard
 70
0
 40
1.0
 41
2.5
 42
0.625
 43
3.75
 44
1.25
 45
0.0
 46
0.0
 47
0.0
 48
0.0
 49
2.5
140
2.5
141
2.5
142
0.0
143
0.03937007874
144
1.0
145
0.0
146
1.0
147
0.625
148
0.0
 69
0
 70
0
 71
0
 72
0
 73
0
 74
0
 75
0
 76
0
 77
1
 78
8
 79
3
170
0
171
3
172
1
173
0
174
0
175
0
176
0
177
0
178
0
179
2
271
2
272
2
273
2
274
3
275
0
276
0
277
2
278
44
279
0
280
0
281
0
282
0
283
0
284
8
285
0
286
0
288
0
289
3
290
0
371
-2
372
-2
  0
ENDTAB
  0
TABLE
  2
BLOCK_RECORD
  5
9
330
0
100
AcDbSymbolTable
 70
2
  0
BLOCK_RECORD
  5
17
330
9
100
AcDbSymbolTableRecord
100
AcDbBlockTableRecord
  2
*Model_Space
340
1A
 70
0
280
1
281
0
  0
BLOCK_RECORD
  5
1B
330
9
100
AcDbSymbolTableRecord
100
AcDbBlockTableRecord
  2
*Paper_Space
340
1E
 70
0
280
1
281
0
  0
ENDTAB
  0
ENDSEC
  0
SECTION
  2
BLOCKS
  0
BLOCK
  5
18
330
17
100
AcDbEntity
  8
0
100
AcDbBlockBegin
  2
*Model_Space
 70
0
 10
0.0
 20
0.0
 30
0.0
  3
*Model_Space
  1

  0
ENDBLK
  5
19
330
17
100
AcDbEntity
  8
0
100
AcDbBlockEnd
  0
BLOCK
  5
1C
330
1B
100
AcDbEntity
  8
0
100
AcDbBlockBegin
  2
*Paper_Space
 70
0
 10
0.0
 20
0.0
 30
0.0
  3
*Paper_Space
  1

  0
ENDBLK
  5
1D
330
1B
100
AcDbEntity
  8
0
100
AcDbBlockEnd
  0
ENDSEC
  0
SECTION
  2
ENTITIES
  0
LWPOLYLINE
  5
2F
330
17
100
AcDbEntity
  8
0
100
AcDbPolyline
 90
92
 70
0
 10
2021.2919421000001
 20
1922.5314911000003
 10
2029.9899406237123
 20
1834.319516002344
 10
2031.9746274752138
 20
1826.7808349720706
 10
2032.9192251963136
 20
1819.0427215687503
 10
2032.806300620508
 20
1811.247998058008
 10
2031.6379422945497
 20
1803.5405166737307
 10
2030.8575720591066
 20
1799.5870407215823
 10
2029.5867032808778
 20
1795.7629593006839
 10
2027.8454704088686
 20
1792.128811656641
 10
2025.661468009424
 20
1788.742237865137
 10
2023.0693025393007
 20
1785.6568725697268
 10
2020.1100535196779
 20
1782.921582042383
 10
2016.8306107325075
 20
1780.5797775379885
 10
2009.1954861169233
 20
1776.3151600354438
 10
1997.4401473626183
 20
1768.5249116516784
 10
1990.1219410700319
 20
1762.5845153919925
 10
1985.9074921411989
 20
1756.6237075916995
 10
1982.543940047693
 20
1750.1445205799807
 10
1982.4838537973878
 20
1647.6735885731448
 10
1983.27240417428
 20
1644.4567688099612
 10
1984.5826573175905
 20
1641.4148910633792
 10
1986.378454665613
 20
1638.6319549671878
 10
1988.610219459009
 20
1636.1847122303714
 10
1991.216363410425
 20
1634.1407592884768
 10
1997.2188467783449
 20
1631.400814830469
 10
2003.5908455652711
 20
1629.6723373524417
 10
2013.4259886545656
 20
1628.5805709950198
 10
2020.0219411653993
 20
1628.869534312891
 10
2034.8861188692567
 20
1630.0469024769534
 10
2039.8470184059838
 20
1629.9658832321645
 10
2049.7759414715288
 20
1629.2575271717776
 10
2054.3680040044305
 20
1627.3349197499026
 10
2058.7031234865603
 20
1624.8874481312503
 10
2064.5945275825975
 20
1620.3077133290042
 10
2066.3679415983675
 20
1618.5595138661135
 10
2070.0931532186983
 20
1610.4218872181643
 10
2075.168942908716
 20
1603.0507095448245
 10
2081.442498664331
 20
1596.6678436390628
 10
2088.724941710901
 20
1591.465512096094
 10
2096.1779780191896
 20
1589.9039276234378
 10
2103.7611717981813
 20
1589.2100341908206
 10
2111.3738484186647
 20
1589.3930252186526
 10
2118.9149422449586
 20
1590.4505355946292
 10
2170.9587664408205
 20
1595.3781707875003
 10
2223.0899424356935
 20
1599.2745025746096
 10
2372.602939109277
 20
1599.2745025746096
 10
2397.056456433529
 20
1598.2610651517346
 10
2411.61737392373
 20
1596.8227966419925
 10
2426.043582841115
 20
1594.3787003519385
 10
2455.491504172754
 20
1587.8991134754885
 10
2461.1698717875
 20
1587.6875122181643
 10
2466.82001064248
 20
1588.2910354725589
 10
2472.3255724710934
 20
1589.6972854725589
 10
2477.5730700296876
 20
1591.877232371973
 10
2482.454394797754
 20
1594.7860153309573
 10
2486.8690295023434
 20
1598.3636673084964
 10
2490.725955466699
 20
1602.536526500391
 10
2499.4359392923825
 20
1623.0835159413089
 10
2499.435939292382
 20
1928.3325012318362
 10
2499.9999422831047
 20
1937.7991302601565
 10
2498.8060183329094
 20
1947.2070129505862
 10
2495.895328025292
 20
1956.2326629750003
 10
2491.3679308695305
 20
1964.5654876820315
 10
2481.853923301171
 20
1972.0033844105471
 10
2471.264399985742
 20
1977.8086670033206
 10
2459.8769182962883
 20
1981.8291290394534
 10
2447.9899401468747
 20
1983.9594848744143
 10
2434.3783001366005
 20
1986.2963176927285
 10
2397.953520190087
 20
1991.5451605155777
 10
2365.8799357218254
 20
1994.5765503041018
 10
2163.1478209299553
 20
1998.99992066543
 10
2157.2213644785393
 20
1997.9611786000003
 10
2151.460723380517
 20
1996.224270641016
 10
2145.947818259667
 20
1993.813916026758
 10
2143.308944205712
 20
1992.3665435902346
 10
2134.1700405878532
 20
1983.2667358509768
 10
2121.492003898095
 20
1968.4343536488284
 10
2116.5020603937614
 20
1964.0855224720706
 10
2111.025490264367
 20
1960.368099986719
 10
2105.1417393488396
 20
1957.3360260121096
 10
2098.936147193383
 20
1955.0333221546878
 10
2092.4987335009087
 20
1953.493328868555
 10
2085.92287013955
 20
1952.7384002796878
 10
2075.0519720626116
 20
1952.7080478427556
 10
2058.1350285740014
 20
1951.5267326195876
 10
2040.835650662851
 20
1948.1874664417971
 10
2036.3584394258974
 20
1946.2366302601565
 10
2032.2748226923463
 20
1943.5579498402346
 10
2028.702022532892
 20
1940.2282531849612
 10
2025.7425946993349
 20
1936.3432891957034
 10
2023.481485347223
 20
1932.0144470326175
 10
2021.9836015505311
 20
1927.3660858265628
  0
CIRCLE
  5
30
330
17
100
AcDbEntity
  8
0
100
AcDbCircle
 10
2453.2799334330075
 20
1665.2655227772464
 30
0.0
 40
14.50000047683716
  0
CIRCLE
  5
31
330
17
100
AcDbEntity
  8
0
100
AcDbCircle
 10
2455.330943564843
 20
1904.11954957168
 30
0.0
 40
14.50000047683716
  0
LWPOLYLINE
  5
32
330
17
100
AcDbEntity
  8
0
100
AcDbPolyline
 90
96
 70
0
 10
2001.6747011000004
 20
744.090829297916
 10
2003.9981862890852
 20
733.6250740744504
 10
2005.348178272852
 20
730.302873060123
 10
2008.8047899061528
 20
724.0347151011385
 10
2013.2293046766606
 20
718.4079221934238
 10
2018.5053361708012
 20
713.5704664439121
 10
2027.70465338113
 20
708.0522514769626
 10
2031.0379136854497
 20
706.7486814707677
 10
2037.9647172743169
 20
704.9438337534824
 10
2047.6079667860356
 20
703.8681272715488
 10
2057.3101533705076
 20
703.7352232188144
 10
2066.9792665296877
 20
704.5463422984044
 10
2076.523715382227
 20
706.2938169688144
 10
2100.285998707422
 20
713.3865980357091
 10
2124.3047822767576
 20
719.5553068369785
 10
2148.544131641992
 20
724.7907880991855
 10
2172.967730885156
 20
729.085183545963
 10
2197.5391115003904
 20
732.4320844859044
 10
2222.2214998060545
 20
734.8264555186191
 10
2246.9780458265623
 20
736.264787122623
 10
2271.771670704492
 20
736.7448286265294
 10
2320.4533876234373
 20
736.6286329478183
 10
2387.0574678236326
 20
738.4913877695958
 10
2404.888430958398
 20
740.546479627506
 10
2422.500430470117
 20
744.0082411021153
 10
2439.782687550195
 20
748.854813978092
 10
2449.506656056055
 20
752.9316190928381
 10
2458.702823048242
 20
758.0897001475256
 10
2467.251483326563
 20
764.2618421763342
 10
2475.041324024805
 20
771.3677076548498
 10
2481.970950489649
 20
779.314790174381
 10
2487.950030689844
 20
787.9995969981115
 10
2492.9007448011716
 20
797.3090223521154
 10
2496.758700733789
 20
807.1218351572912
 10
2499.0009684673787
 20
829.8114270572709
 10
2499.999972706445
 20
847.9814008921545
 10
2499.973340186169
 20
861.6267383574675
 10
2497.823077564844
 20
901.7622617930334
 10
2496.409350758203
 20
908.03461591901
 10
2494.344684010156
 20
914.1238645762365
 10
2489.991885548242
 20
919.4124845713537
 10
2485.025683766016
 20
924.1298155039709
 10
2474.5622743421877
 20
931.8861631602209
 10
2464.8707307630857
 20
940.5878690928381
 10
2461.540347462305
 20
947.6745847910803
 10
2458.858310108789
 20
955.0312284678381
 10
2456.846286183008
 20
962.598596021549
 10
2455.520450001367
 20
970.3158048838537
 10
2454.8914827162107
 20
978.1207517832678
 10
2454.964343433984
 20
985.9507230967444
 10
2455.73849809707
 20
993.74262373151
 10
2457.207690601953
 20
1001.4338163584631
 10
2458.444533178286
 20
1011.059031216049
 10
2459.990917447457
 20
1030.3616281357117
 10
2459.926730518945
 20
1049.754815503971
 10
2459.207278614649
 20
1056.7344907969398
 10
2457.555209522852
 20
1063.5539488047523
 10
2455.000506764063
 20
1070.0889829844398
 10
2451.589633350977
 20
1076.220879957096
 10
2447.384692555078
 20
1081.8379453867835
 10
2442.46213090957
 20
1086.8381742686195
 10
2436.9114412123045
 20
1091.1304716319007
 10
2430.83371294082
 20
1094.636865064518
 10
2309.2937196546873
 20
1163.3428434580726
 10
2299.192553883203
 20
1163.434014722721
 10
2289.1202272230466
 20
1162.6663450449867
 10
2279.1495240980466
 20
1161.045327588932
 10
2269.352694874414
 20
1158.5828642100257
 10
2257.5613893324216
 20
1152.4649290293617
 10
2245.2642549330076
 20
1147.4407438486976
 10
2232.5623811537107
 20
1143.5515073985023
 10
2219.5603669935545
 20
1140.829263135807
 10
2206.365176563867
 20
1139.2963651865882
 10
2193.0852998548826
 20
1138.9655546397132
 10
2179.8301423841795
 20
1139.8394254893226
 10
2162.4747497158505
 20
1142.499212536202
 10
2137.0099297660718
 20
1145.2956222952191
 10
2107.40109575332
 20
1146.2649778574867
 10
2099.2027772718748
 20
1145.2056364268226
 10
2091.2379182630857
 20
1142.993340894596
 10
2083.667727833398
 20
1139.67279951276
 10
2077.1789659315427
 20
1132.1090940684242
 10
2072.305423145898
 20
1123.4164671152992
 10
2069.2376817518552
 20
1113.9348081797523
 10
2068.0957139784177
 20
1104.034829542057
 10
2054.9126924330076
 20
959.914803907291
 10
2049.9769700819334
 20
955.4196409434238
 10
2044.5306886488283
 20
951.5588621348301
 10
2034.2849828379728
 20
951.3950624921509
 10
2030.9180177503908
 20
950.7480863779941
 10
2024.4063676649416
 20
948.6455015391269
 10
2018.3397401625002
 20
945.4803709238926
 10
2012.890101795801
 20
941.3422636240879
 10
2006.191171170678
 20
933.5788264373608
 10
2004.4378007704104
 20
930.6408170908848
 10
2001.6747011000004
 20
924.3808225840488
  0
LWPOLYLINE
  5
33
330
17
100
AcDbEntity
  8
0
100
AcDbPolyline
 90
95
 70
0
 10
2500.0000001000003
 20
1176.720055138998
 10
2500.0000001000003
 20
1357.010048425131
 10
2495.483530132369
 20
1366.2080570736275
 10
2493.4627915428714
 20
1368.9778266310025
 10
2488.7845994041995
 20
1373.9714942335415
 10
2483.3349610375003
 20
1378.1096015333462
 10
2477.268333535059
 20
1381.2747321485806
 10
2467.389698717686
 20
1384.0242902877528
 10
2463.9845658348636
 20
1384.3576941847134
 10
2457.1439744041995
 20
1384.1880927442837
 10
2451.6977311180667
 20
1388.0488715528775
 10
2446.76197062002
 20
1392.5440345167447
 10
2432.437019448145
 20
1546.564034020834
 10
2429.369239907129
 20
1556.045692956381
 10
2424.4957352684573
 20
1564.738319909506
 10
2418.006935219629
 20
1572.3020253538418
 10
2410.4367447899417
 20
1575.6225667356778
 10
2402.4718857811527
 20
1577.8348622679043
 10
2394.2735672997073
 20
1578.8942036985684
 10
2386.0079575584964
 20
1578.7790761350918
 10
2360.4081345604495
 20
1577.608955895834
 10
2356.1577294462
 20
1577.2183414526212
 10
2308.589363198145
 20
1571.594780480795
 10
2295.3094864891605
 20
1571.92559102767
 10
2282.114296059473
 20
1573.4584889768887
 10
2269.1122818993167
 20
1576.180733239584
 10
2256.41040812002
 20
1580.0699696897793
 10
2244.113273720606
 20
1585.0941548704434
 10
2232.3219681786136
 20
1591.2120900511075
 10
2222.525138954981
 20
1593.6745534300137
 10
2212.554435829981
 20
1595.2955708860684
 10
2202.4821091698245
 20
1596.0632405638028
 10
2192.38094339834
 20
1595.9720692991543
 10
2064.7632218407225
 20
1523.7596974729825
 10
2059.212532143457
 20
1519.4674048780728
 10
2054.28997049795
 20
1514.4671759962368
 10
2050.0850297020506
 20
1508.8501105665493
 10
2046.6741562889652
 20
1502.718213593893
 10
2044.119453530176
 20
1496.1831794142056
 10
2042.467384438379
 20
1489.363721406393
 10
2041.747932534082
 20
1482.3840437292386
 10
2041.59870696384
 20
1472.6808589871027
 10
2042.227552698147
 20
1453.3266564817507
 10
2044.466972451075
 20
1434.0630445837307
 10
2045.936164955957
 20
1426.3718519567776
 10
2046.710319619043
 20
1418.579951322012
 10
2046.7831803368172
 20
1410.7499800085354
 10
2046.1542130516611
 20
1402.9450354933072
 10
2044.82837687002
 20
1395.2278266310025
 10
2042.816352944239
 20
1387.6604590772915
 10
2040.134315590723
 20
1380.3038154005337
 10
2036.8039322899422
 20
1373.2170997022915
 10
2027.1123887108402
 20
1364.5153937696743
 10
2016.648979287012
 20
1356.7590413450528
 10
2011.6827775047861
 20
1352.0417104124356
 10
2007.329979042872
 20
1346.7530904173184
 10
2005.265312294825
 20
1340.6638417600918
 10
2003.8515854881841
 20
1334.3914876341153
 10
2003.104362587793
 20
1328.005341088705
 10
2001.674690346582
 20
1280.6106267332364
 10
2002.3293232940011
 20
1266.980967748157
 10
2004.915962319239
 20
1239.751060998373
 10
2008.773918251856
 20
1229.9382481931973
 10
2013.7246323631841
 20
1220.6288228391934
 10
2019.703712563379
 20
1211.944016015463
 10
2026.633339028223
 20
1203.9969334959317
 10
2034.4231797264652
 20
1196.891068017416
 10
2042.9718400047861
 20
1190.7189259886075
 10
2052.1680069969725
 20
1185.56084493392
 10
2061.891975502832
 20
1181.4840398191739
 10
2079.174232582911
 20
1176.6374669431973
 10
2096.7862320946288
 20
1173.175705468588
 10
2114.617195229395
 20
1171.1206136106778
 10
2132.554969887598
 20
1170.485046899252
 10
2181.22127542959
 20
1169.2578587889004
 10
2229.9029923485355
 20
1169.3740544676114
 10
2254.696617226465
 20
1168.894012963705
 10
2279.453163246973
 20
1167.4556813597012
 10
2304.135551552637
 20
1165.0613103269864
 10
2328.7069321678714
 20
1161.714409387045
 10
2353.1305314110355
 20
1157.4200139402676
 10
2377.36988077627
 20
1152.1845326780606
 10
2401.388664345606
 20
1146.015823876791
 10
2429.901924233301
 20
1137.9330907224942
 10
2439.520073037012
 20
1136.652267968588
 10
2449.2172623680667
 20
1136.3127599119473
 10
2458.901405434473
 20
1136.917809045248
 10
2463.709983925684
 20
1137.5730595945645
 10
2473.9700270386547
 20
1140.681480325549
 10
2477.1805954979495
 20
1142.2788701414395
 10
2483.1693650291995
 20
1146.1996922849942
 10
2488.44539652334
 20
1151.037148034506
 10
2492.869911293848
 20
1156.6639409422207
 10
2497.676514887282
 20
1166.25429995406
 10
2498.7242508934573
 20
1169.676598107748
  0
LWPOLYLINE
  5
34
330
17
100
AcDbEntity
  8
0
100
AcDbPolyline
 90
65
 70
0
 10
2374.4139291
 20
42.03759420648042
 10
2382.3525239181154
 20
42.29626882806245
 10
2390.0863267135255
 20
44.1062663866562
 10
2397.315235252344
 20
47.39732015862886
 10
2403.7586594771974
 20
52.04167593255464
 10
2409.166526908838
 20
57.859165556578084
 10
2413.328952903711
 20
64.62392080560151
 10
2416.0844041061036
 20
72.0734523607773
 10
2417.325935478174
 20
79.91860616937103
 10
2418.4499360274904
 20
108.55885732903901
 10
2418.0669404220216
 20
137.2186015917343
 10
2433.550930137598
 20
231.7236064745468
 10
2455.7179452132814
 20
476.8766044451279
 10
2473.024940605127
 20
553.367606289534
 10
2479.4780307355395
 20
576.0281707970978
 10
2489.6181562741126
 20
617.1641333538403
 10
2499.0140153121583
 20
666.3131927324814
 10
2500.0000001144044
 20
678.6234210802597
 10
2499.6767426681154
 20
690.9688400103134
 10
2498.047943229639
 20
703.210604078917
 10
2496.601371879541
 20
708.7018607927841
 10
2494.2274857711427
 20
713.8604568316025
 10
2490.9977723312013
 20
718.5311340166611
 10
2487.0093918990724
 20
722.5733207537216
 10
2482.382392997705
 20
725.8653377367539
 10
2477.256069297754
 20
728.3081077410263
 10
2471.7846871566408
 20
729.8281215502304
 10
2466.1329270553224
 20
730.3796027971787
 10
2189.8986639127443
 20
730.3800834180988
 10
2180.7677237101775
 20
728.5744626771249
 10
2172.020189918581
 20
725.4227813360521
 10
2163.8551575345837
 20
720.9647942617046
 10
2156.4740297930903
 20
715.3104695491
 10
2150.017905390302
 20
708.6057836443005
 10
2147.2200943183534
 20
704.8909591509383
 10
2142.484936828577
 20
696.8856071306747
 10
2125.3385544967286
 20
672.7277587725204
 10
2107.588935012781
 20
649.0096067263167
 10
2077.4422360610597
 20
620.5406974627059
 10
2048.0399323653814
 20
591.3036071135085
 10
2041.6513444137213
 20
578.8683407379668
 10
2036.023826713526
 20
566.0706435514968
 10
2031.1778451156256
 20
552.9570435358565
 10
2027.1310235213873
 20
539.5752190424483
 10
2023.8980675887701
 20
525.9738229586166
 10
2021.4907456588385
 20
512.2023032976668
 10
2019.9177933883307
 20
498.31073034539645
 10
2018.8622735160186
 20
479.38863936973684
 10
2014.1122076208187
 20
400.0120830796511
 10
2012.1291295327735
 20
350.39912726811724
 10
2011.4967168373983
 20
305.7444181779389
 10
2012.0380466235936
 20
266.0484251380785
 10
2013.8672348452103
 20
216.42538433238414
 10
2018.2659341048834
 20
137.02462423577725
 10
2019.8321660726485
 20
119.3352187971373
 10
2021.6952038955328
 20
106.19183767571865
 10
2023.4855351799854
 20
97.52809820712338
 10
2030.3759099197027
 20
72.504055388121
 10
2033.2924367141363
 20
65.54707754388262
 10
2036.9651890945074
 20
58.95795095696868
 10
2041.3485051345465
 20
52.818577177671806
 10
2043.789939994776
 20
49.94160879388274
 10
2047.0953370284674
 20
48.3944057299179
 10
2053.212118263208
 20
44.42567098870696
 10
2055.97193729397
 20
42.0375942064804
  0
CIRCLE
  5
35
330
17
100
AcDbEntity
  8
0
100
AcDbCircle
 10
2354.924926872217
 20
111.76160085931244
 30
0.0
 40
14.50000047683716
  0
CIRCLE
  5
36
330
17
100
AcDbEntity
  8
0
100
AcDbCircle
 10
2102.9529381942384
 20
111.37459982171475
 30
0.0
 40
14.50000047683716
  0
LWPOLYLINE
  5
37
330
17
100
AcDbEntity
  8
0
100
AcDbPolyline
 90
62
 70
0
 10
2946.9342406952155
 20
504.15100936358107
 10
2883.4668658836226
 20
50.98063183675943
 10
2884.5946086272866
 20
45.31368846529979
 10
2887.0942181844403
 20
40.2949163101887
 10
2891.260527523309
 20
35.41615351159654
 10
2895.3500863367353
 20
32.60233054982367
 10
2899.837158718721
 20
30.666544078165504
 10
2905.208895655319
 20
29.16706218137525
 10
3081.5606369818793
 20
6.23570867107689
 10
3114.5267715915634
 20
3.908978405847492
 10
3174.0993402047698
 20
1.000508294048921
 10
3197.211277009466
 20
1.9629359478600428
 10
3228.0449370112556
 20
4.576456472392068
 10
3278.219238397529
 20
8.656857093735544
 10
3328.553660663003
 20
13.152960642054847
 10
3338.78003132817
 20
13.709297955839657
 10
3354.580048907236
 20
12.918273942190083
 10
3361.7648139751072
 20
12.237385094713277
 10
3406.0540587413852
 20
5.764180184735005
 10
3420.3616614247603
 20
2.549784346562513
 10
3430.164735210532
 20
1.0420565959287524
 10
3436.2201923863477
 20
1.0005102602037512
 10
3440.76190521972
 20
2.381120970048724
 10
3445.857272260746
 20
6.016507167583511
 10
3449.6786995414122
 20
11.370980221452184
 10
3450.67311125819
 20
13.933419935471106
 10
3490.4294295909094
 20
287.42313392091245
 10
3490.109369730676
 20
292.8498415151119
 10
3488.418110875396
 20
297.10695648967373
 10
3486.2815748513603
 20
299.99992849696963
 10
3483.54850740114
 20
302.7170985690963
 10
3480.7530403232972
 20
304.5352236919278
 10
3476.515221219575
 20
306.036668096567
 10
3459.1980718418163
 20
309.4276083785376
 10
3450.3520804588657
 20
312.68987085431246
 10
3448.4291521488567
 20
314.7488807254935
 10
3446.1324756450485
 20
319.0389323407875
 10
3445.3101920110103
 20
323.51149374421
 10
3445.407321473142
 20
335.0916070691535
 10
3445.1726382847773
 20
339.40404401854863
 10
3444.211380574495
 20
342.8845412351007
 10
3440.365707931765
 20
349.18122014518354
 10
3436.5731659967983
 20
352.0468075170886
 10
3428.005030777692
 20
356.2038687827435
 10
3416.0072758436895
 20
359.2851672569805
 10
3342.4574636130724
 20
373.36330217420226
 10
3292.7156749130945
 20
379.7421417716519
 10
3267.004678371224
 20
385.38648536202464
 10
3243.6294250388587
 20
391.4027326729868
 10
3213.855201299129
 20
402.3502607421436
 10
3185.0338923918266
 20
416.7139402217354
 10
3153.310738352029
 20
435.19511142682967
 10
3086.830342940296
 20
484.3608361679345
 10
3048.4171832088714
 20
509.26498774281794
 10
3042.9010070796985
 20
511.65119834118997
 10
3026.595938759964
 20
516.0328206758271
 10
2975.154691771447
 20
523.5617017137172
 10
2968.782317864898
 20
523.7238356064895
 10
2961.582057412128
 20
521.7072295626641
 10
2955.9048174482177
 20
518.8049895735534
 10
2952.104466408534
 20
515.1916363313051
 10
2948.642453697564
 20
510.07428142789144
  0
LWPOLYLINE
  5
38
330
17
100
AcDbEntity
  8
0
100
AcDbPolyline
 90
22
 70
0
 10
2990.6481599428143
 20
454.0959545516355
 10
2994.164350951741
 20
454.1698496542524
 10
2997.4918108991524
 20
455.3483323904037
 10
2999.9916014564797
 20
457.1970021952439
 10
3002.1259752031337
 20
460.05731700054014
 10
3003.2048159519436
 20
463.0041903317533
 10
3003.427752856476
 20
466.5827666893036
 10
3002.722686487864
 20
469.63482456493796
 10
3000.9586358265906
 20
472.726288336331
 10
2998.706971689112
 20
474.8554215195575
 10
2995.549766588835
 20
476.41721269307476
 10
2992.509894661721
 20
476.9053048782316
 10
2989.024414852409
 20
476.41035450028704
 10
2986.2215432771472
 20
475.0924437476358
 10
2983.583087450926
 20
472.7084198699515
 10
2981.9622566980797
 20
470.02937817503107
 10
2981.0592427718266
 20
466.56012773922265
 10
2981.1660899270305
 20
463.4231268723769
 10
2982.3027715223056
 20
460.0370843356843
 10
2984.101235631874
 20
457.49875031236917
 10
2986.8954461636363
 20
455.33712541115744
 10
2989.7794287949537
 20
454.2536167698957
  0
LWPOLYLINE
  5
39
330
17
100
AcDbEntity
  8
0
100
AcDbPolyline
 90
22
 70
0
 10
2936.328553551958
 20
73.34077469831273
 10
2939.844744560885
 20
73.41466980092862
 10
2943.172204508296
 20
74.59315253708066
 10
2945.6719950656234
 20
76.44182234192063
 10
2947.8063688122775
 20
79.30213714721704
 10
2948.8852095610873
 20
82.24901047843026
 10
2949.10814646562
 20
85.82758683598071
 10
2948.4030800970077
 20
88.87964471161514
 10
2946.639029435734
 20
91.9711084830076
 10
2944.3873652982556
 20
94.10024166623414
 10
2941.230160197979
 20
95.66203283975138
 10
2938.1902882708646
 20
96.15012502490784
 10
2934.7048084615526
 20
95.65517464696394
 10
2931.901936886291
 20
94.33726389431253
 10
2929.2634810600703
 20
91.9532400166283
 10
2927.6426503072234
 20
89.27419832170797
 10
2926.7396363809703
 20
85.80494788589887
 10
2926.846483536174
 20
82.66794701905344
 10
2927.9831651314494
 20
79.28190448236133
 10
2929.781629241017
 20
76.74357045904533
 10
2932.57583977278
 20
74.58194555783406
 10
2935.4598224040974
 20
73.49843691657209
  0
LWPOLYLINE
  5
3A
330
17
100
AcDbEntity
  8
0
100
AcDbPolyline
 90
65
 70
0
 10
3359.8309126631866
 20
1594.9843184655579
 10
2934.163715328359
 20
1595.621134941706
 10
2928.9973287829334
 20
1593.970732742831
 10
2923.9820126525537
 20
1590.885189572281
 10
2917.7304067277337
 20
1586.216418423223
 10
2915.258632447695
 20
1583.4275437313127
 10
2912.7062742082644
 20
1578.9774700132864
 10
2909.996433633246
 20
1572.9418783436429
 10
2903.4460701348785
 20
1550.0832554522194
 10
2900.758029673334
 20
1538.344588632646
 10
2899.4015440370767
 20
1526.6030965840482
 10
2899.43760800612
 20
1519.1975406171193
 10
2901.090108333542
 20
1506.6750145643143
 10
2907.813698878859
 20
1470.042163948594
 10
2912.3339649555055
 20
1440.1747620458648
 10
2915.0387355103703
 20
1363.9574681207584
 10
2918.457835308985
 20
1246.4501848031057
 10
2925.250945470652
 20
1186.8216877785035
 10
2928.982384262282
 20
1160.393811096396
 10
2936.1548826106255
 20
1116.696174561918
 10
2937.2465585104765
 20
1106.8398495164279
 10
2937.2163106683133
 20
1092.590076185382
 10
2936.0997152481846
 20
1082.3407681011347
 10
2932.4559091397646
 20
1064.6775721290749
 10
2926.1203180832927
 20
1044.3612949899268
 10
2918.687179703829
 20
1025.4507000225267
 10
2913.928929145957
 20
1015.0811958778445
 10
2898.836689343312
 20
986.868032418513
 10
2892.126210064206
 20
972.6755321435725
 10
2888.690393853347
 20
964.6351995090808
 10
2887.1061076246588
 20
958.8388732387791
 10
2885.4235815276525
 20
950.324149347013
 10
2883.4596768241263
 20
840.0315823611445
 10
2884.388078908404
 20
835.2126741977889
 10
2889.1220652946226
 20
826.7699161000104
 10
2891.5574142333408
 20
824.4992425224438
 10
2894.4431999722074
 20
822.6681277340232
 10
2897.9082539565306
 20
821.4650891287598
 10
3258.553568913209
 20
817.3022006152764
 10
3262.151727684604
 20
818.3014528544041
 10
3266.652098421022
 20
820.8091268688157
 10
3273.5995720070305
 20
826.5840005448059
 10
3291.42604358464
 20
844.9219147566762
 10
3307.974961736172
 20
865.2284949555676
 10
3311.225231309147
 20
871.7462461690143
 10
3313.27628745493
 20
879.6258466412451
 10
3313.9397294556525
 20
887.2365308484258
 10
3314.506612047181
 20
1072.6694572898598
 10
3317.1430303962857
 20
1114.1891148813504
 10
3318.7347055163577
 20
1132.379195307459
 10
3327.8611871220505
 20
1177.6382778829352
 10
3336.1659722916806
 20
1214.4588463250113
 10
3355.839133406441
 20
1268.7230632578555
 10
3364.7076197126794
 20
1291.441343902614
 10
3375.5154855046644
 20
1324.490554070776
 10
3381.125920331276
 20
1347.9673902493862
 10
3386.6858779651843
 20
1388.8817113131474
 10
3388.3395351614645
 20
1404.0544746291976
 10
3389.08007200472
 20
1427.7295577020245
 10
3389.0032606816712
 20
1572.3579764099607
 10
3387.07333495209
 20
1577.9805219335142
 10
3379.5102950283176
 20
1587.1492124345782
 10
3374.9871939286713
 20
1590.874240277944
 10
3369.814308211877
 20
1593.4225840380554
 10
3366.487150463047
 20
1594.2452280321793
  0
LWPOLYLINE
  5
3B
330
17
100
AcDbEntity
  8
0
100
AcDbPolyline
 90
22
 70
0
 10
3320.061016676341
 20
1543.8444840629088
 10
3320.614631357023
 20
1540.3713629186373
 10
3322.236689138298
 20
1537.2361213306192
 10
3324.409565818416
 20
1535.012354299019
 10
3327.5346742102975
 20
1533.288797042995
 10
3330.601313329025
 20
1532.6227007233856
 10
3334.176790558589
 20
1532.890790617062
 10
3337.103894958357
 20
1534.0062437506474
 10
3339.9253480906946
 20
1536.1761343486728
 10
3341.726873065866
 20
1538.6975837857537
 10
3342.842653508815
 20
1542.0385671317194
 10
3342.9108348335094
 20
1545.1166195389135
 10
3341.944309425071
 20
1548.5017892558687
 10
3340.255804954713
 20
1551.098312021597
 10
3337.5336489219844
 20
1553.3862992439756
 10
3334.6582784235097
 20
1554.6258964483109
 10
3331.0981838665443
 20
1555.0464430959403
 10
3328.0051991403466
 20
1554.5119936252952
 10
3324.806213096391
 20
1552.9233409257088
 10
3322.537404508701
 20
1550.794932985546
 10
3320.777819910675
 20
1547.7315856739042
 10
3320.0985067991496
 20
1544.7266097189358
  0
LWPOLYLINE
  5
3C
330
17
100
AcDbEntity
  8
0
100
AcDbPolyline
 90
22
 70
0
 10
2944.2615973577203
 20
1545.6514661159022
 10
2944.815212038403
 20
1542.1783449716308
 10
2946.4372698196776
 20
1539.0431033836128
 10
2948.6101464997955
 20
1536.8193363520124
 10
2951.735254891677
 20
1535.0957790959883
 10
2954.8018940104043
 20
1534.4296827763792
 10
2958.377371239968
 20
1534.6977726700554
 10
2961.3044756397367
 20
1535.8132258036408
 10
2964.125928772074
 20
1537.9831164016662
 10
2965.9274537472456
 20
1540.504565838747
 10
2967.043234190194
 20
1543.8455491847128
 10
2967.111415514889
 20
1546.923601591907
 10
2966.1448901064505
 20
1550.308771308862
 10
2964.456385636092
 20
1552.9052940745903
 10
2961.734229603364
 20
1555.1932812969692
 10
2958.8588591048892
 20
1556.4328785013045
 10
2955.2987645479243
 20
1556.8534251489339
 10
2952.2057798217265
 20
1556.3189756782888
 10
2949.0067937777703
 20
1554.7303229787021
 10
2946.7379851900805
 20
1552.6019150385393
 10
2944.9784005920546
 20
1549.538567726898
 10
2944.299087480529
 20
1546.5335917719292
  0
LWPOLYLINE
  5
3D
330
17
100
AcDbEntity
  8
0
100
AcDbPolyline
 90
60
 70
0
 10
3053.129476820087
 20
1596.4532413635816
 10
3451.0333131478715
 20
1595.8448770838054
 10
3463.7183408171672
 20
1597.3438519568067
 10
3474.478551422758
 20
1599.7901019309004
 10
3482.5120758857565
 20
1603.656985549878
 10
3488.468818380757
 20
1609.1839569708145
 10
3495.476832955494
 20
1618.4338394137067
 10
3498.5043555388575
 20
1623.903588134361
 10
3500.503141217324
 20
1628.6199421170627
 10
3501.603678930579
 20
1633.7783565653833
 10
3502.0000000253494
 20
1805.0390986947828
 10
3501.3137641468766
 20
1809.2692191976314
 10
3500.1636226745
 20
1812.593936537092
 10
3497.7819887408123
 20
1816.7514593783849
 10
3494.7059246217436
 20
1820.3815600399114
 10
3491.9360105349597
 20
1822.8028675572398
 10
3488.625262186528
 20
1824.394420948537
 10
3483.6957830431697
 20
1825.6866962658178
 10
3456.220228507526
 20
1825.8168782853352
 10
3448.7303172207853
 20
1826.8786221991973
 10
3445.565981519124
 20
1827.9329158185976
 10
3436.299629917678
 20
1833.236796090651
 10
3430.5542110305487
 20
1837.3983638881061
 10
3423.8778233187463
 20
1844.751768394832
 10
3420.189428575193
 20
1852.231132799761
 10
3418.774477889128
 20
1859.225860210226
 10
3418.88441681371
 20
1976.3127561200981
 10
3418.0740807045336
 20
1979.5721251309974
 10
3413.6525716010556
 20
1989.4573308828105
 10
3410.0540765411733
 20
1993.9945323080035
 10
3406.729399225438
 20
1996.44700120543
 10
3403.1254425722805
 20
1997.8125100031345
 10
3397.6717882986654
 20
1998.9999644995444
 10
3107.082534601175
 20
1998.999999546363
 10
3100.8079505691367
 20
1996.9117031919768
 10
3095.5115280142677
 20
1993.3801686885263
 10
3091.8660665965044
 20
1989.4664354314875
 10
3089.2504665697747
 20
1984.15995566737
 10
3088.4721787708595
 20
1981.7839988006078
 10
3088.052915434854
 20
1978.0923218978594
 10
3084.603100170441
 20
1874.3478090959345
 10
3081.1497426295327
 20
1855.7766391187222
 10
3079.2933347578514
 20
1851.7019323420532
 10
3074.9335479903025
 20
1843.7348745559102
 10
3071.504851399282
 20
1839.4816356737888
 10
3047.2466617807904
 20
1815.6076270846
 10
3019.4654696217503
 20
1787.2109811816686
 10
3005.3083296967848
 20
1771.068741204415
 10
3002.1523582739383
 20
1764.0964297715989
 10
3001.03726489728
 20
1760.92664835416
 10
3000.7512727612375
 20
1755.943035783451
 10
2999.239391610786
 20
1636.0962038504827
 10
2999.814215049856
 20
1633.2545966986152
 10
3001.233606724858
 20
1628.8382684934168
 10
3003.5630392455278
 20
1624.7528304610203
 10
3011.109892334918
 20
1615.1862907480565
 10
3018.544446422361
 20
1607.8752820943573
 10
3022.953637567362
 20
1604.6337528515103
 10
3030.6610978388685
 20
1600.425103963559
 10
3044.1227071578965
 20
1597.1242812913285
  0
LWPOLYLINE
  5
3E
330
17
100
AcDbEntity
  8
0
100
AcDbPolyline
 90
22
 70
0
 10
3452.0705102167612
 20
1647.7126585201333
 10
3451.5155052704413
 20
1651.1855577710492
 10
3449.8921925642276
 20
1654.3201497889804
 10
3447.7184258717134
 20
1656.5430468276097
 10
3444.592627780526
 20
1658.2653529470126
 10
3441.5257222653886
 20
1658.9302216203068
 10
3437.9503526401977
 20
1658.6607004643975
 10
3435.023694997141
 20
1657.5440756837743
 10
3432.203110710316
 20
1655.373055815994
 10
3430.4025952299266
 20
1652.8508854203228
 10
3429.2881522908647
 20
1649.5094556888362
 10
3429.2212031333825
 20
1646.4313762348938
 10
3430.189083566923
 20
1643.0465936947417
 10
3431.878627304711
 20
1640.4507470549215
 10
3434.6016990135317
 20
1638.1638497102838
 10
3437.4775654993805
 20
1636.9254036323057
 10
3441.0378281183
 20
1636.506282144314
 10
3444.1305986535413
 20
1637.041969711379
 10
3447.3289484945462
 20
1638.6319028558455
 10
3449.5969048867437
 20
1640.7612188423573
 10
3451.355263068571
 20
1643.825270280201
 10
3452.0333732168347
 20
1646.8305179272763
  0
LWPOLYLINE
  5
3F
330
17
100
AcDbEntity
  8
0
100
AcDbPolyline
 90
22
 70
0
 10
3060.073807533538
 20
1647.9711120424925
 10
3059.518802587218
 20
1651.4440112934083
 10
3057.895489881005
 20
1654.5786033113395
 10
3055.7217231884906
 20
1656.8015003499688
 10
3052.5959250973033
 20
1658.5238064693717
 10
3049.5290195821663
 20
1659.188675142666
 10
3045.9536499569754
 20
1658.9191539867566
 10
3043.0269923139176
 20
1657.8025292061334
 10
3040.206408027094
 20
1655.631509338353
 10
3038.405892546704
 20
1653.109338942682
 10
3037.2914496076423
 20
1649.7679092111953
 10
3037.22450045016
 20
1646.689829757253
 10
3038.1923808837
 20
1643.3050472171008
 10
3039.881924621488
 20
1640.7092005772806
 10
3042.6049963303085
 20
1638.422303232643
 10
3045.480862816158
 20
1637.1838571546648
 10
3049.041125435077
 20
1636.764735666673
 10
3052.1338959703185
 20
1637.3004232337378
 10
3055.332245811323
 20
1638.8903563782046
 10
3057.6002022035204
 20
1641.0196723647164
 10
3059.3585603853476
 20
1644.0837238025601
 10
3060.0366705336114
 20
1647.0889714496354
  0
LWPOLYLINE
  5
40
330
17
100
AcDbEntity
  8
0
100
AcDbPolyline
 90
56
 70
0
 10
3502.000000820087
 20
422.30661483420045
 10
3502.000001131652
 20
839.653188527756
 10
3500.5817607873337
 20
845.4880245588846
 10
3498.0348628570073
 20
852.1779705719872
 10
3494.5775628566385
 20
859.0168850576136
 10
3490.864771486572
 20
864.2579518031622
 10
3486.7147769021026
 20
868.9789153787675
 10
3478.6416999236194
 20
875.8200601684171
 10
3468.322801111218
 20
880.6398273354916
 10
3463.666488380949
 20
882.1826326282593
 10
3337.9851905834744
 20
881.995097797963
 10
3334.5236710926492
 20
881.0331026267731
 10
3328.481203616416
 20
877.8245017374021
 10
3321.4938904053947
 20
872.1118585120743
 10
3312.7432941583875
 20
862.9322387215827
 10
3256.3093676350577
 20
808.5247783655186
 10
3251.55078190906
 20
805.5982687269302
 10
3239.9949364063223
 20
800.5165488884088
 10
3231.3854959842884
 20
798.9784439862372
 10
3124.870645619689
 20
795.6017898142184
 10
3116.8768400622525
 20
794.5351140956091
 10
3110.8953726802497
 20
792.9837486195988
 10
3107.1971745273104
 20
790.4329053757801
 10
3103.7162288600525
 20
787.2162055640389
 10
3101.733592578879
 20
784.1685017967712
 10
3100.3729280980274
 20
780.3160946680231
 10
3099.1628596008627
 20
775.2307090600286
 10
3099.158838924587
 20
486.51004872884545
 10
3102.402722695008
 20
477.1078489663565
 10
3105.4219138441563
 20
472.9456583461519
 10
3109.196434262953
 20
469.2455468542781
 10
3112.669461127417
 20
467.16375648784754
 10
3118.030650465254
 20
465.77481660181184
 10
3124.3737456362796
 20
464.92493314345836
 10
3229.6030224381557
 20
464.72786081052027
 10
3244.5477589644065
 20
461.81532979691355
 10
3252.9199803751912
 20
458.81635579024606
 10
3258.0298048194472
 20
455.59661205219436
 10
3264.3345154391736
 20
448.71465910200186
 10
3271.5063868522666
 20
433.9540111145392
 10
3272.7005640721472
 20
428.2944633839196
 10
3273.4726852564836
 20
393.73479892092666
 10
3274.9190629623167
 20
390.84462013486797
 10
3277.9387046193397
 20
387.9538826280501
 10
3281.461926010309
 20
385.4482558696296
 10
3289.9562266865814
 20
381.7207866048752
 10
3297.19268980109
 20
380.17706709981496
 10
3303.1709070491193
 20
379.66122996096465
 10
3469.048568766165
 20
381.3823161753659
 10
3472.785927761353
 20
381.92584134440636
 10
3476.310583835392
 20
383.46574918749263
 10
3481.78681280623
 20
387.0598386151193
 10
3488.396815704152
 20
393.5431938897698
 10
3493.8111379988263
 20
400.026972824185
 10
3498.407796592305
 20
407.73112260514057
 10
3501.3680103937236
 20
414.72948872417845
  0
LWPOLYLINE
  5
41
330
17
100
AcDbEntity
  8
0
100
AcDbPolyline
 90
22
 70
0
 10
3451.4906417302773
 20
845.396139133544
 10
3448.0185050064956
 20
844.8363835897388
 10
3444.8861367027853
 20
843.2087841086187
 10
3442.6662155765
 20
841.031978405093
 10
3440.9481873322175
 20
837.9038270296559
 10
3440.2875149762294
 20
834.8360148076414
 10
3440.561927181874
 20
831.2610172479762
 10
3441.6825547459152
 20
828.3358899476553
 10
3443.8574312962483
 20
825.5182783746762
 10
3446.3820625357366
 20
823.721215046765
 10
3449.7250137594833
 20
822.6113444099166
 10
3452.80318192312
 20
822.5486062967772
 10
3456.1866371822616
 20
823.5211163929399
 10
3458.780170004324
 20
825.2142098104001
 10
3461.0633398973064
 20
827.9404075721313
 10
3462.2978504731127
 20
830.8179656290116
 10
3462.7121009341595
 20
834.3787982974878
 10
3462.172182788486
 20
837.47083308855
 10
3460.577875613674
 20
840.6670048207433
 10
3458.445458930885
 20
842.9320460694373
 10
3455.3790048298088
 20
844.6862108152189
 10
3452.3728323030928
 20
845.3602089851338
  0
LWPOLYLINE
  5
42
330
17
100
AcDbEntity
  8
0
100
AcDbPolyline
 90
22
 70
0
 10
3450.858130611776
 20
453.0131507808339
 10
3447.3859938879946
 20
452.4533952370289
 10
3444.2536255842842
 20
450.82579575590864
 10
3442.0337044579983
 20
448.64899005238294
 10
3440.315676213716
 20
445.52083867694574
 10
3439.6550038577284
 20
442.4530264549312
 10
3439.929416063373
 20
438.8780288952659
 10
3441.0500436274137
 20
435.9529015949452
 10
3443.224920177747
 20
433.13529002196617
 10
3445.7495514172356
 20
431.3382266940548
 10
3449.092502640982
 20
430.22835605720644
 10
3452.170670804619
 20
430.165617944067
 10
3455.55412606376
 20
431.13812804022984
 10
3458.147658885823
 20
432.8312214576899
 10
3460.430828778805
 20
435.55741921942115
 10
3461.665339354611
 20
438.43497727630154
 10
3462.0795898156584
 20
441.9958099447776
 10
3461.539671669985
 20
445.08784473583984
 10
3459.9453644951727
 20
448.2840164680331
 10
3457.8129478123838
 20
450.5490577167273
 10
3454.7464937113073
 20
452.30322246250887
 10
3451.7403211845913
 20
452.9772206324237
  0
ENDSEC
  0
SECTION
  2
OBJECTS
  0
DICTIONARY
  5
A
330
0
100
AcDbDictionary
281
1
  3
ACAD_COLOR
350
B
  3
ACAD_GROUP
350
C
  3
ACAD_LAYOUT
350
D
  3
ACAD_MATERIAL
350
E
  3
ACAD_MLEADERSTYLE
350
F
  3
ACAD_MLINESTYLE
350
10
  3
ACAD_PLOTSETTINGS
350
11
  3
ACAD_PLOTSTYLENAME
350
12
  3
ACAD_SCALELIST
350
14
  3
ACAD_TABLESTYLE
350
15
  3
ACAD_VISUALSTYLE
350
16
  3
EZDXF_META
350
2D
  0
DICTIONARY
  5
B
330
A
100
AcDbDictionary
281
1
  0
DICTIONARY
  5
C
330
A
100
AcDbDictionary
281
1
  0
DICTIONARY
  5
D
330
A
100
AcDbDictionary
281
1
  3
Model
350
1A
  3
Layout1
350
1E
  0
DICTIONARY
  5
E
330
A
100
AcDbDictionary
281
1
  3
ByBlock
350
1F
  3
ByLayer
350
20
  3
Global
350
21
  0
DICTIONARY
  5
F
330
A
100
AcDbDictionary
281
1
  3
Standard
350
2C
  0
DICTIONARY
  5
10
330
A
100
AcDbDictionary
281
1
  3
Standard
350
22
  0
DICTIONARY
  5
11
330
A
100
AcDbDictionary
281
1
  0
ACDBDICTIONARYWDFLT
  5
12
330
A
100
AcDbDictionary
281
1
  3
Normal
350
13
100
AcDbDictionaryWithDefault
340
13
  0
ACDBPLACEHOLDER
  5
13
330
12
  0
DICTIONARY
  5
14
330
A
100
AcDbDictionary
281
1
  0
DICTIONARY
  5
15
330
A
100
AcDbDictionary
281
1
  0
DICTIONARY
  5
16
330
A
100
AcDbDictionary
281
1
  0
LAYOUT
  5
1A
330
D
100
AcDbPlotSettings
  1

  4
A3
  6

 40
7.5
 41
20.0
 42
7.5
 43
20.0
 44
420.0
 45
297.0
 46
0.0
 47
0.0
 48
0.0
 49
0.0
140
0.0
141
0.0
142
1.0
143
1.0
 70
1024
 72
1
 73
0
 74
5
  7

 75
16
 76
0
 77
2
 78
300
147
1.0
148
0.0
149
0.0
100
AcDbLayout
  1
Model
 70
1
 71
0
 10
0.0
 20
0.0
 11
420.0
 21
297.0
 12
0.0
 22
0.0
 32
0.0
 14
1e+20
 24
1e+20
 34
1e+20
 15
-1e+20
 25
-1e+20
 35
-1e+20
146
0.0
 13
0.0
 23
0.0
 33
0.0
 16
1.0
 26
0.0
 36
0.0
 17
0.0
 27
1.0
 37
0.0
 76
1
330
17
  0
LAYOUT
  5
1E
330
D
100
AcDbPlotSettings
  1

  4
A3
  6

 40
7.5
 41
20.0
 42
7.5
 43
20.0
 44
420.0
 45
297.0
 46
0.0
 47
0.0
 48
0.0
 49
0.0
140
0.0
141
0.0
142
1.0
143
1.0
 70
0
 72
1
 73
0
 74
5
  7

 75
16
 76
0
 77
2
 78
300
147
1.0
148
0.0
149
0.0
100
AcDbLayout
  1
Layout1
 70
1
 71
1
 10
0.0
 20
0.0
 11
420.0
 21
297.0
 12
0.0
 22
0.0
 32
0.0
 14
1e+20
 24
1e+20
 34
1e+20
 15
-1e+20
 25
-1e+20
 35
-1e+20
146
0.0
 13
0.0
 23
0.0
 33
0.0
 16
1.0
 26
0.0
 36
0.0
 17
0.0
 27
1.0
 37
0.0
 76
1
330
1B
  0
MATERIAL
  5
1F
102
{ACAD_REACTORS
330
E
102
}
330
E
100
AcDbMaterial
  1
ByBlock
  2

 70
0
 40
1.0
 71
1
 41
1.0
 91
-1023410177
 42
1.0
 72
1
  3

 73
1
 74
1
 75
1
 44
0.5
 73
0
 45
1.0
 46
1.0
 77
1
  4

 78
1
 79
1
170
1
 48
1.0
171
1
  6

172
1
173
1
174
1
140
1.0
141
1.0
175
1
  7

176
1
177
1
178
1
143
1.0
179
1
  8

270
1
271
1
272
1
145
1.0
146
1.0
273
1
  9

274
1
275
1
276
1
 42
1.0
 72
1
  3

 73
1
 74
1
 75
1
 94
63
  0
MATERIAL
  5
20
102
{ACAD_REACTORS
330
E
102
}
330
E
100
AcDbMaterial
  1
ByLayer
  2

 70
0
 40
1.0
 71
1
 41
1.0
 91
-1023410177
 42
1.0
 72
1
  3

 73
1
 74
1
 75
1
 44
0.5
 73
0
 45
1.0
 46
1.0
 77
1
  4

 78
1
 79
1
170
1
 48
1.0
171
1
  6

172
1
173
1
174
1
140
1.0
141
1.0
175
1
  7

176
1
177
1
178
1
143
1.0
179
1
  8

270
1
271
1
272
1
145
1.0
146
1.0
273
1
  9

274
1
275
1
276
1
 42
1.0
 72
1
  3

 73
1
 74
1
 75
1
 94
63
  0
MATERIAL
  5
21
102
{ACAD_REACTORS
330
E
102
}
330
E
100
AcDbMaterial
  1
Global
  2

 70
0
 40
1.0
 71
1
 41
1.0
 91
-1023410177
 42
1.0
 72
1
  3

 73
1
 74
1
 75
1
 44
0.5
 73
0
 45
1.0
 46
1.0
 77
1
  4

 78
1
 79
1
170
1
 48
1.0
171
1
  6

172
1
173
1
174
1
140
1.0
141
1.0
175
1
  7

176
1
177
1
178
1
143
1.0
179
1
  8

270
1
271
1
272
1
145
1.0
146
1.0
273
1
  9

274
1
275
1
276
1
 42
1.0
 72
1
  3

 73
1
 74
1
 75
1
 94
63
  0
MLINESTYLE
  5
22
102
{ACAD_REACTORS
330
10
102
}
330
10
100
AcDbMlineStyle
  2
Standard
 70
0
  3

 62
256
 51
90.0
 52
90.0
 71
2
 49
0.5
 62
256
  6
BYLAYER
 49
-0.5
 62
256
  6
BYLAYER
  0
MLEADERSTYLE
  5
2C
102
{ACAD_REACTORS
330
F
102
}
330
F
100
AcDbMLeaderStyle
179
2
170
2
171
1
172
0
 90
2
 40
0.0
 41
0.0
173
1
 91
-1056964608
 92
-2
290
1
 42
2.0
291
1
 43
8.0
  3
Standard
 44
4.0
300

342
29
174
1
175
1
176
0
178
1
 93
-1056964608
 45
4.0
292
0
297
0
 46
4.0
 94
-1056964608
 47
1.0
 49
1.0
140
1.0
294
1
141
0.0
177
0
142
1.0
295
0
296
0
143
3.75
271
0
272
9
273
9
  0
DICTIONARY
  5
2D
330
A
100
AcDbDictionary
280
1
281
1
  3
CREATED_BY_EZDXF
350
2E
  3
WRITTEN_BY_EZDXF
350
45
  0
DICTIONARYVAR
  5
2E
330
2D
100
DictionaryVariables
280
0
  1
1.4.2 @ 2025-10-23T10:57:17.473957+00:00
  0
DICTIONARYVAR
  5
45
330
2D
100
DictionaryVariables
280
0
  1
1.4.2 @ 2025-10-23T10:57:17.690519+00:00
  0
ENDSEC
  0
EOF
